<svg width="260" height="260" viewBox="0 0 260 260" fill="none" xmlns="http://www.w3.org/2000/svg">
<path d="M0 0H260V260H0V0Z" fill="#172673"/>
<path d="M59.234 138.432C57.634 138.432 56.266 138.152 55.13 137.592C54.01 137.032 53.106 136.304 52.418 135.408C51.73 134.512 51.226 133.544 50.906 132.504C50.586 131.448 50.426 130.432 50.426 129.456V128.928C50.426 127.872 50.586 126.816 50.906 125.76C51.242 124.704 51.754 123.744 52.442 122.88C53.13 122.016 54.026 121.32 55.13 120.792C56.234 120.264 57.554 120 59.09 120C60.658 120 62.002 120.272 63.122 120.816C64.242 121.36 65.13 122.12 65.786 123.096C66.442 124.072 66.842 125.224 66.986 126.552H64.586C64.458 125.56 64.138 124.744 63.626 124.104C63.114 123.448 62.466 122.96 61.682 122.64C60.914 122.32 60.05 122.16 59.09 122.16C58.05 122.16 57.138 122.344 56.354 122.712C55.57 123.064 54.914 123.568 54.386 124.224C53.874 124.864 53.482 125.608 53.21 126.456C52.954 127.304 52.826 128.224 52.826 129.216C52.826 130.16 52.954 131.056 53.21 131.904C53.482 132.752 53.882 133.504 54.41 134.16C54.954 134.816 55.626 135.336 56.426 135.72C57.226 136.088 58.162 136.272 59.234 136.272C60.738 136.272 62.002 135.896 63.026 135.144C64.05 134.392 64.674 133.304 64.898 131.88H67.298C67.138 133.08 66.73 134.176 66.074 135.168C65.434 136.16 64.538 136.952 63.386 137.544C62.25 138.136 60.866 138.432 59.234 138.432Z" fill="white"/>
<path d="M78.1202 138V134.16H77.7362V129.72C77.7362 128.84 77.5042 128.176 77.0402 127.728C76.5922 127.28 75.9282 127.056 75.0482 127.056C74.5522 127.056 74.0402 127.064 73.5122 127.08C72.9842 127.096 72.4802 127.112 72.0002 127.128C71.5202 127.144 71.1042 127.168 70.7522 127.2V125.184C71.1042 125.152 71.4722 125.128 71.8562 125.112C72.2562 125.08 72.6642 125.064 73.0802 125.064C73.4962 125.048 73.8962 125.04 74.2802 125.04C75.5922 125.04 76.6642 125.2 77.4962 125.52C78.3282 125.824 78.9442 126.328 79.3442 127.032C79.7442 127.736 79.9442 128.688 79.9442 129.888V138H78.1202ZM73.9202 138.336C72.9602 138.336 72.1282 138.176 71.4242 137.856C70.7362 137.52 70.2002 137.04 69.8162 136.416C69.4482 135.792 69.2642 135.04 69.2642 134.16C69.2642 133.248 69.4642 132.488 69.8642 131.88C70.2802 131.272 70.8802 130.816 71.6642 130.512C72.4482 130.192 73.3922 130.032 74.4962 130.032H77.9762V131.76H74.4002C73.4722 131.76 72.7602 131.984 72.2642 132.432C71.7682 132.88 71.5202 133.456 71.5202 134.16C71.5202 134.864 71.7682 135.432 72.2642 135.864C72.7602 136.296 73.4722 136.512 74.4002 136.512C74.9442 136.512 75.4642 136.416 75.9602 136.224C76.4562 136.016 76.8642 135.68 77.1842 135.216C77.5202 134.736 77.7042 134.08 77.7362 133.248L78.3602 134.16C78.2802 135.072 78.0562 135.84 77.6882 136.464C77.3362 137.072 76.8402 137.536 76.2002 137.856C75.5762 138.176 74.8162 138.336 73.9202 138.336Z" fill="white"/>
<path d="M90.9408 138.432C89.8848 138.432 88.9408 138.2 88.1088 137.736C87.2928 137.272 86.6448 136.6 86.1648 135.72C85.6848 134.824 85.4208 133.752 85.3728 132.504H85.9968V138H84.1728V120.48H86.4768V129L85.6608 130.752C85.7248 129.36 86.0048 128.224 86.5008 127.344C86.9968 126.464 87.6448 125.816 88.4448 125.4C89.2608 124.968 90.1568 124.752 91.1328 124.752C92.0448 124.752 92.8768 124.928 93.6288 125.28C94.3808 125.616 95.0288 126.088 95.5728 126.696C96.1168 127.288 96.5328 127.984 96.8208 128.784C97.1088 129.568 97.2528 130.416 97.2528 131.328V131.76C97.2528 132.672 97.1008 133.528 96.7968 134.328C96.5088 135.128 96.0848 135.84 95.5248 136.464C94.9648 137.072 94.2928 137.552 93.5088 137.904C92.7408 138.256 91.8848 138.432 90.9408 138.432ZM90.6768 136.416C91.5408 136.416 92.2928 136.208 92.9328 135.792C93.5728 135.376 94.0688 134.808 94.4208 134.088C94.7728 133.352 94.9488 132.504 94.9488 131.544C94.9488 130.584 94.7648 129.744 94.3968 129.024C94.0448 128.304 93.5488 127.752 92.9088 127.368C92.2688 126.968 91.5248 126.768 90.6768 126.768C89.9088 126.768 89.1968 126.944 88.5408 127.296C87.8848 127.632 87.3568 128.128 86.9568 128.784C86.5728 129.424 86.3808 130.2 86.3808 131.112V132.216C86.3808 133.096 86.5808 133.848 86.9808 134.472C87.3808 135.096 87.9088 135.576 88.5648 135.912C89.2208 136.248 89.9248 136.416 90.6768 136.416Z" fill="white"/>
<path d="M100.864 138V120.48H103.168V138H100.864ZM99.0877 122.304V120.48H103.168V122.304H99.0877Z" fill="white"/>
<path d="M113.035 138.432C111.915 138.432 110.947 138.24 110.131 137.856C109.315 137.472 108.651 136.968 108.139 136.344C107.627 135.704 107.243 134.992 106.987 134.208C106.747 133.424 106.627 132.624 106.627 131.808V131.376C106.627 130.544 106.747 129.736 106.987 128.952C107.243 128.168 107.627 127.464 108.139 126.84C108.651 126.2 109.299 125.696 110.083 125.328C110.883 124.944 111.819 124.752 112.891 124.752C114.283 124.752 115.427 125.056 116.323 125.664C117.235 126.256 117.907 127.024 118.339 127.968C118.787 128.912 119.011 129.92 119.011 130.992V132.024H107.635V130.296H117.331L116.803 131.232C116.803 130.32 116.659 129.536 116.371 128.88C116.083 128.208 115.651 127.688 115.075 127.32C114.499 126.952 113.771 126.768 112.891 126.768C111.979 126.768 111.219 126.976 110.611 127.392C110.019 127.808 109.571 128.376 109.267 129.096C108.979 129.816 108.835 130.648 108.835 131.592C108.835 132.504 108.979 133.328 109.267 134.064C109.571 134.784 110.035 135.36 110.659 135.792C111.283 136.208 112.075 136.416 113.035 136.416C114.043 136.416 114.859 136.192 115.483 135.744C116.123 135.296 116.507 134.776 116.635 134.184H118.795C118.619 135.064 118.267 135.824 117.739 136.464C117.211 137.104 116.547 137.592 115.747 137.928C114.947 138.264 114.043 138.432 113.035 138.432Z" fill="white"/>
<path d="M135.903 138.432C134.543 138.432 133.311 138.208 132.207 137.76C131.103 137.312 130.151 136.68 129.351 135.864C128.567 135.048 127.959 134.088 127.527 132.984C127.095 131.864 126.879 130.648 126.879 129.336V128.808C126.879 127.688 127.071 126.608 127.455 125.568C127.855 124.512 128.423 123.568 129.159 122.736C129.911 121.888 130.823 121.224 131.895 120.744C132.967 120.248 134.175 120 135.519 120C136.975 120 138.271 120.28 139.407 120.84C140.543 121.384 141.455 122.152 142.143 123.144C142.831 124.12 143.231 125.256 143.343 126.552H140.943C140.831 125.576 140.511 124.768 139.983 124.128C139.455 123.472 138.799 122.984 138.015 122.664C137.247 122.328 136.415 122.16 135.519 122.16C134.607 122.16 133.767 122.328 132.999 122.664C132.231 122.984 131.567 123.448 131.007 124.056C130.463 124.664 130.039 125.392 129.735 126.24C129.431 127.088 129.279 128.04 129.279 129.096C129.279 130.296 129.439 131.352 129.759 132.264C130.095 133.16 130.559 133.912 131.151 134.52C131.743 135.112 132.439 135.56 133.239 135.864C134.055 136.168 134.943 136.32 135.903 136.32C137.263 136.32 138.455 136.048 139.479 135.504C140.519 134.944 141.303 134.224 141.831 133.344L140.967 136.2V130.992H143.175V135.168C142.391 136.192 141.383 136.992 140.151 137.568C138.919 138.144 137.503 138.432 135.903 138.432ZM135.279 131.472V129.504H144.663V131.472H135.279Z" fill="white"/>
<path d="M147.832 138V120.48H150.136V138H147.832ZM146.056 122.304V120.48H150.136V122.304H146.056Z" fill="white"/>
<path d="M162.308 138V134.16H161.924V129.72C161.924 128.84 161.692 128.176 161.228 127.728C160.78 127.28 160.116 127.056 159.236 127.056C158.74 127.056 158.228 127.064 157.7 127.08C157.172 127.096 156.668 127.112 156.188 127.128C155.708 127.144 155.292 127.168 154.94 127.2V125.184C155.292 125.152 155.66 125.128 156.044 125.112C156.444 125.08 156.852 125.064 157.268 125.064C157.684 125.048 158.084 125.04 158.468 125.04C159.78 125.04 160.852 125.2 161.684 125.52C162.516 125.824 163.132 126.328 163.532 127.032C163.932 127.736 164.132 128.688 164.132 129.888V138H162.308ZM158.108 138.336C157.148 138.336 156.316 138.176 155.612 137.856C154.924 137.52 154.388 137.04 154.004 136.416C153.636 135.792 153.452 135.04 153.452 134.16C153.452 133.248 153.652 132.488 154.052 131.88C154.468 131.272 155.068 130.816 155.852 130.512C156.636 130.192 157.58 130.032 158.684 130.032H162.164V131.76H158.588C157.66 131.76 156.948 131.984 156.452 132.432C155.956 132.88 155.708 133.456 155.708 134.16C155.708 134.864 155.956 135.432 156.452 135.864C156.948 136.296 157.66 136.512 158.588 136.512C159.132 136.512 159.652 136.416 160.148 136.224C160.644 136.016 161.052 135.68 161.372 135.216C161.708 134.736 161.892 134.08 161.924 133.248L162.548 134.16C162.468 135.072 162.244 135.84 161.876 136.464C161.524 137.072 161.028 137.536 160.388 137.856C159.764 138.176 159.004 138.336 158.108 138.336Z" fill="white"/>
<path d="M168.36 138V125.184H170.184V130.68H169.896C169.896 129.416 170.064 128.352 170.4 127.488C170.752 126.608 171.28 125.944 171.984 125.496C172.688 125.032 173.576 124.8 174.648 124.8H174.744C176.36 124.8 177.552 125.304 178.32 126.312C179.104 127.32 179.496 128.776 179.496 130.68V138H177.192V130.2C177.192 129.208 176.912 128.416 176.352 127.824C175.792 127.216 175.024 126.912 174.048 126.912C173.04 126.912 172.224 127.224 171.6 127.848C170.976 128.472 170.664 129.304 170.664 130.344V138H168.36Z" fill="white"/>
<path d="M189.064 138.432C188.152 138.432 187.312 138.264 186.544 137.928C185.776 137.592 185.104 137.12 184.528 136.512C183.968 135.904 183.528 135.2 183.208 134.4C182.904 133.6 182.752 132.736 182.752 131.808V131.376C182.752 130.464 182.904 129.608 183.208 128.808C183.512 128.008 183.936 127.304 184.48 126.696C185.04 126.088 185.696 125.616 186.448 125.28C187.216 124.928 188.064 124.752 188.992 124.752C189.968 124.752 190.856 124.96 191.656 125.376C192.456 125.776 193.112 126.408 193.624 127.272C194.136 128.136 194.424 129.256 194.488 130.632L193.528 129.096V120.48H195.832V138H194.008V132.312H194.68C194.616 133.768 194.312 134.952 193.768 135.864C193.224 136.76 192.536 137.416 191.704 137.832C190.888 138.232 190.008 138.432 189.064 138.432ZM189.376 136.416C190.16 136.416 190.872 136.24 191.512 135.888C192.152 135.536 192.664 135.032 193.048 134.376C193.432 133.704 193.624 132.92 193.624 132.024V130.92C193.624 130.04 193.424 129.296 193.024 128.688C192.64 128.064 192.12 127.592 191.464 127.272C190.824 126.936 190.12 126.768 189.352 126.768C188.504 126.768 187.752 126.968 187.096 127.368C186.456 127.768 185.952 128.328 185.584 129.048C185.232 129.768 185.056 130.616 185.056 131.592C185.056 132.568 185.24 133.424 185.608 134.16C185.976 134.88 186.488 135.44 187.144 135.84C187.8 136.224 188.544 136.416 189.376 136.416Z" fill="white"/>
<path d="M204.459 138.384C202.779 138.384 201.475 138.024 200.547 137.304C199.635 136.584 199.163 135.6 199.131 134.352H201.291C201.323 134.848 201.571 135.32 202.035 135.768C202.515 136.2 203.323 136.416 204.459 136.416C205.483 136.416 206.267 136.216 206.811 135.816C207.355 135.4 207.627 134.896 207.627 134.304C207.627 133.776 207.427 133.368 207.027 133.08C206.627 132.776 205.979 132.576 205.083 132.48L203.691 132.336C202.475 132.208 201.483 131.848 200.715 131.256C199.947 130.648 199.563 129.8 199.563 128.712C199.563 127.896 199.771 127.2 200.187 126.624C200.603 126.032 201.179 125.584 201.915 125.28C202.651 124.96 203.499 124.8 204.459 124.8C205.899 124.8 207.067 125.12 207.963 125.76C208.859 126.4 209.323 127.352 209.355 128.616H207.195C207.179 128.104 206.939 127.672 206.475 127.32C206.027 126.952 205.355 126.768 204.459 126.768C203.563 126.768 202.883 126.952 202.419 127.32C201.955 127.688 201.723 128.152 201.723 128.712C201.723 129.192 201.883 129.576 202.203 129.864C202.539 130.152 203.083 130.336 203.835 130.416L205.227 130.56C206.603 130.704 207.707 131.088 208.539 131.712C209.371 132.32 209.787 133.184 209.787 134.304C209.787 135.104 209.555 135.816 209.091 136.44C208.643 137.048 208.019 137.528 207.219 137.88C206.419 138.216 205.499 138.384 204.459 138.384Z" fill="white"/>
</svg>
