<svg width="260" height="260" viewBox="0 0 260 260" fill="none" xmlns="http://www.w3.org/2000/svg">
<path d="M0 0H260V260H0V0Z" fill="#172673"/>
<path fill-rule="evenodd" clip-rule="evenodd" d="M118.89 95.3171C117.709 95.3171 116.533 95.3262 115.353 95.3126C114.471 95.3036 113.598 95.2222 112.739 95.0051C110.871 94.5348 109.777 93.3408 109.374 91.473C109.225 90.7675 109.157 90.053 109.153 89.3339C109.144 87.9319 109.144 86.5345 109.153 85.1325C109.157 84.3275 109.234 83.5315 109.433 82.7491C109.903 80.9311 111.088 79.8638 112.893 79.4387C113.639 79.2623 114.399 79.1673 115.163 79.1673C117.827 79.1583 120.491 79.1583 123.15 79.1673C124.014 79.1719 124.873 79.2804 125.71 79.5201C127.505 80.0266 128.554 81.2115 128.93 83.025C129.074 83.726 129.138 84.4315 129.138 85.1461C129.138 86.7742 129.174 88.4068 129.11 90.0349C129.083 90.7223 128.975 91.4052 128.771 92.0655C128.283 93.6574 127.184 94.5935 125.601 95.0006C124.728 95.2267 123.842 95.3126 122.942 95.3171C121.59 95.3262 120.233 95.3217 118.881 95.3217L118.89 95.3171ZM136.889 95.3217C134.768 95.3217 132.652 95.3217 130.531 95.3217C129.934 95.3217 129.735 95.1227 129.735 94.5212C129.735 93.9016 129.735 93.282 129.735 92.6624C129.735 92.0519 129.938 91.8484 130.544 91.8484C134.37 91.8484 138.196 91.8484 142.022 91.8484C142.09 91.8484 142.158 91.8484 142.23 91.8484C143.026 91.8439 143.307 91.577 143.334 90.7811C143.347 90.3786 143.361 89.9716 143.316 89.5645C143.261 89.0399 142.985 88.7641 142.461 88.7188C142.361 88.7098 142.262 88.7143 142.162 88.7143C139.399 88.7143 136.636 88.7143 133.877 88.7143C133.303 88.7143 132.733 88.66 132.181 88.4882C130.996 88.1264 130.205 87.344 129.915 86.1501C129.576 84.7436 129.59 83.3009 129.861 81.8944C130.146 80.4155 131.222 79.4929 132.706 79.2533C133.108 79.1899 133.511 79.1583 133.918 79.1583C137.875 79.1583 141.832 79.1583 145.785 79.1583C146.943 79.1583 146.531 80.8994 146.531 81.8673C146.531 82.4326 146.341 82.6225 145.771 82.6225C142.108 82.6225 138.44 82.6225 134.777 82.6225C134.632 82.6225 134.488 82.627 134.343 82.6406C133.859 82.6813 133.588 82.93 133.533 83.4185C133.479 83.8843 133.484 84.3501 133.533 84.8159C133.583 85.2953 133.886 85.5667 134.375 85.5938C134.551 85.6028 134.727 85.5983 134.904 85.5983C137.568 85.5983 140.231 85.5983 142.891 85.5983C143.451 85.5983 144.008 85.639 144.55 85.7928C145.961 86.1908 146.757 87.145 147.033 88.5605C147.182 89.3203 147.119 90.0846 147.124 90.8489C147.128 91.369 147.146 91.8891 147.042 92.4047C146.73 93.9785 145.663 94.9961 144.075 95.2312C143.673 95.29 143.27 95.3217 142.863 95.3217C140.873 95.3217 138.884 95.3217 136.894 95.3217H136.889ZM62.4399 89.9082C62.9645 90.5595 63.4756 91.1926 63.9821 91.8258C64.0499 91.9072 64.1223 91.9253 64.2218 91.9253C65.5514 91.9208 66.8855 91.9208 68.2151 91.9298C68.3644 91.9298 68.4277 91.871 68.491 91.7534C69.3819 90.1118 70.2819 88.4701 71.1774 86.8284C72.2311 84.8973 73.2848 82.9707 74.3386 81.0396C74.5421 80.6688 74.7637 80.316 75.035 79.9949C75.4918 79.4568 76.0797 79.1809 76.7852 79.1764C77.4591 79.1719 78.1329 79.1266 78.8023 79.2126C79.4807 79.303 80.0233 79.6286 80.4439 80.1623C80.661 80.4381 80.8464 80.7366 81.0183 81.0442C82.972 84.5943 84.9303 88.1445 86.8794 91.6992C86.9789 91.8846 87.0875 91.9388 87.2865 91.9343C87.8066 91.9208 88.3266 91.9162 88.8467 91.9343C89.0774 91.9434 89.1497 91.8891 89.1497 91.6449C89.1407 88.3616 89.1452 85.0782 89.1452 81.7949C89.1452 81.4648 89.1588 81.1391 89.2131 80.8135C89.3985 79.7598 89.8779 79.2623 90.9452 79.1945C92.0125 79.1266 93.0843 79.1402 94.1561 79.2035C94.7576 79.2397 95.2325 79.5201 95.6124 79.9723C96.2048 80.6733 96.7385 81.4195 97.2947 82.1477C99.6781 85.2636 102.052 88.3887 104.431 91.5047C104.458 91.5409 104.49 91.577 104.513 91.6132C104.594 91.7308 104.721 91.7172 104.825 91.6946C104.938 91.672 104.883 91.5544 104.883 91.4821C104.888 87.6561 104.888 83.83 104.888 80.004C104.888 79.9045 104.883 79.805 104.897 79.7055C104.947 79.3528 105.137 79.1719 105.494 79.1719C106.322 79.1673 107.149 79.1673 107.972 79.1719C108.357 79.1764 108.56 79.3799 108.587 79.7643C108.592 79.8231 108.592 79.8864 108.592 79.9497C108.592 84.219 108.592 88.4882 108.592 92.7619C108.592 93.1599 108.569 93.5579 108.474 93.9468C108.271 94.7518 107.787 95.1815 106.964 95.29C106.738 95.3217 106.507 95.3352 106.276 95.3307C105.426 95.3126 104.58 95.3578 103.73 95.2991C103.061 95.2538 102.532 94.9644 102.116 94.4488C101.686 93.9152 101.265 93.368 100.845 92.8207C98.344 89.551 95.8476 86.2857 93.3511 83.016C93.315 82.9662 93.2743 82.921 93.2336 82.8758C93.1476 82.7718 93.0255 82.7763 92.917 82.8034C92.8084 82.8351 92.8627 82.9481 92.8627 83.025C92.8582 86.8375 92.8582 90.6454 92.8582 94.4579C92.8582 94.5574 92.8582 94.6569 92.8537 94.7564C92.831 95.0865 92.6321 95.29 92.3064 95.3262C92.225 95.3352 92.1391 95.3307 92.0532 95.3307C89.81 95.3307 87.5669 95.3262 85.3282 95.3352C84.8896 95.3398 84.6227 95.1724 84.4147 94.788C82.271 90.8354 80.1183 86.8872 77.9656 82.9391C77.9068 82.8305 77.8797 82.6949 77.6988 82.6994C77.5179 82.7039 77.4953 82.8441 77.441 82.9481C75.32 86.8963 73.1944 90.8399 71.0824 94.7925C70.8743 95.177 70.603 95.3398 70.1688 95.3352C68.2106 95.3262 66.2524 95.4076 64.2941 95.3759C63.7514 95.3669 63.2087 95.3443 62.666 95.3262C62.3992 95.3171 62.1957 95.2041 62.0464 94.987C60.3369 92.477 58.4149 90.1253 56.6828 87.6289C56.6195 87.5385 56.5154 87.448 56.5878 87.3214C56.6511 87.2038 56.7777 87.2445 56.8772 87.2445C57.8858 87.24 58.8988 87.2445 59.9073 87.24C60.1832 87.24 60.4545 87.2128 60.7259 87.1586C61.3228 87.0365 61.6937 86.6747 61.8022 86.0822C61.9424 85.3496 61.9334 84.5988 61.8248 83.8662C61.7027 83.0567 61.2369 82.6723 60.4003 82.6089C60.2013 82.5954 60.0023 82.5863 59.8033 82.5863C57.1169 82.5863 54.4306 82.5863 51.7442 82.5863C51.4276 82.5863 51.4276 82.5863 51.4276 82.8939C51.4276 86.7651 51.4276 90.6364 51.4276 94.5121C51.4276 95.1453 51.2467 95.3217 50.6091 95.3262C49.8674 95.3262 49.1257 95.3262 48.384 95.3262C47.8684 95.3262 47.6514 95.1136 47.6514 94.6071C47.6514 89.7545 47.6514 84.9064 47.6514 80.0537C47.6514 79.4206 47.9001 79.1673 48.5242 79.1673C52.6397 79.1673 56.7597 79.1673 60.8751 79.1673C61.5128 79.1673 62.1414 79.2442 62.7565 79.4115C64.3258 79.8367 65.1986 80.8994 65.5197 82.4552C65.7594 83.6265 65.669 84.8159 65.6373 86.0008C65.6237 86.4214 65.5378 86.833 65.4157 87.24C64.9996 88.6646 64.0409 89.5103 62.6208 89.863C62.5711 89.8766 62.5213 89.8902 62.4354 89.9173L62.4399 89.9082ZM46.2358 79.1583C46.3444 79.1583 46.4529 79.1538 46.5569 79.1673C46.8599 79.199 47.0634 79.3889 47.068 79.6874C47.0815 80.515 47.0815 81.3381 47.068 82.1657C47.0634 82.4597 46.8554 82.6587 46.5614 82.6994C46.4484 82.713 46.3308 82.7175 46.2177 82.7175C44.0424 82.7175 41.8716 82.722 39.6963 82.713C39.4928 82.713 39.4476 82.7672 39.4476 82.9662C39.4521 86.7923 39.4521 90.6183 39.4521 94.4443C39.4521 94.5348 39.4521 94.6297 39.4476 94.7202C39.4295 95.082 39.2214 95.3126 38.8551 95.3171C38.4164 95.3217 37.9777 95.3262 37.5391 95.3262C37.1004 95.3262 36.6617 95.3217 36.223 95.3171C35.8567 95.3126 35.6487 95.082 35.6306 94.7202C35.6261 94.6297 35.626 94.5348 35.626 94.4443C35.626 90.6183 35.6261 86.7923 35.6306 82.9662C35.6306 82.7672 35.5853 82.713 35.3818 82.713C33.211 82.722 31.0357 82.7175 28.8604 82.7175C28.7473 82.7175 28.6298 82.7175 28.5167 82.6994C28.2227 82.6587 28.0147 82.4642 28.0102 82.1657C27.9966 81.3381 27.9966 80.515 28.0102 79.6874C28.0147 79.3889 28.2227 79.199 28.5212 79.1673C28.6252 79.1538 28.7338 79.1583 28.8423 79.1583H46.2358ZM148.277 80.6598C148.277 83.5089 148.277 78.2674 148.277 80.6598ZM147.815 80.8407C148.028 85.1415 147.58 76.0378 147.815 80.8407ZM119.41 82.6225C120.473 82.6361 121.784 82.5954 123.091 82.6451C123.358 82.6542 123.625 82.6949 123.882 82.7537C124.715 82.9346 125.126 83.4999 125.262 84.3004C125.321 84.6531 125.357 85.0104 125.357 85.3722C125.357 86.6204 125.357 87.8641 125.357 89.1123C125.357 89.4741 125.321 89.8314 125.257 90.1841C125.081 91.17 124.547 91.6585 123.53 91.7851C123.317 91.8122 123.105 91.8348 122.892 91.8348C120.382 91.8394 117.877 91.8348 115.367 91.8348C115.068 91.8348 114.77 91.7941 114.48 91.7308C113.653 91.5544 113.209 91.0751 113.051 90.2067C112.992 89.8811 112.956 89.5555 112.956 89.2253C112.956 87.8641 112.956 86.5028 112.961 85.1415C112.961 84.825 113.001 84.5174 113.065 84.2099C113.259 83.2783 113.775 82.8215 114.743 82.6949C115.145 82.6406 115.552 82.6316 115.955 82.627C117.026 82.6225 118.094 82.627 119.41 82.627V82.6225Z" fill="#FEFEFE"/>
<path d="M171.405 79C171.622 79 171.789 79.0543 171.907 79.1673C172.024 79.2804 172.088 79.4432 172.088 79.6558V81.926C172.088 82.1431 172.029 82.3105 171.911 82.428C171.794 82.5456 171.626 82.6044 171.409 82.6044H164.282V94.8513C164.282 95.29 164.065 95.5071 163.626 95.5071H161.103C160.895 95.5071 160.732 95.4483 160.619 95.3352C160.506 95.2222 160.447 95.0594 160.447 94.8513V82.6044H153.319C153.102 82.6044 152.935 82.5456 152.817 82.428C152.7 82.3105 152.641 82.1431 152.641 81.926V79.6558C152.641 79.2171 152.867 79 153.319 79H171.414H171.405ZM190.268 92.4499H193.66L199.996 80.8361C200.195 80.4789 200.389 80.1849 200.584 79.9452C200.783 79.701 200.982 79.511 201.181 79.3844C201.38 79.2578 201.592 79.1628 201.823 79.095C202.054 79.0317 202.298 79 202.556 79H203.922C204.225 79 204.509 79.0317 204.767 79.095C205.03 79.1583 205.265 79.2533 205.482 79.3799C205.694 79.5065 205.907 79.6965 206.115 79.9407C206.318 80.1849 206.517 80.4834 206.716 80.8361L214.387 94.7654C214.482 94.9599 214.504 95.1272 214.45 95.2674C214.414 95.3533 214.35 95.4212 214.26 95.4619C214.183 95.498 214.088 95.5116 213.975 95.5116H211.031C210.71 95.5116 210.488 95.385 210.371 95.1317L208.77 92.2238H198.056L196.5 95.1362C196.432 95.2629 196.342 95.3579 196.229 95.4212C196.116 95.4845 195.989 95.5161 195.84 95.5161H188.681C188.572 95.5161 188.482 95.5071 188.4 95.498C188.314 95.4845 188.238 95.4573 188.188 95.4257C188.138 95.3986 188.093 95.3578 188.043 95.3126C187.998 95.2674 187.953 95.2131 187.912 95.1543L184.298 90.3967H177.035V94.8604C177.035 95.0684 176.977 95.2312 176.863 95.3443C176.75 95.4573 176.588 95.5161 176.38 95.5161H173.879C173.662 95.5161 173.494 95.4573 173.377 95.3488C173.259 95.2357 173.196 95.0729 173.196 94.8604V79.8457C173.196 79.5744 173.268 79.3663 173.413 79.2216C173.558 79.0769 173.766 79.0045 174.037 79.0045H186.478C188.296 79.0045 189.608 79.4206 190.408 80.2527C191.209 81.0849 191.607 82.3059 191.607 83.9205V85.241C191.607 86.5978 191.326 87.6787 190.77 88.4746C190.485 88.8771 190.114 89.2118 189.658 89.4696C189.264 89.6912 188.803 89.8585 188.278 89.9716L190.277 92.4544L190.268 92.4499ZM177.026 87.2716H185.755C186.135 87.2716 186.456 87.2309 186.718 87.1495C186.971 87.0726 187.17 86.9596 187.315 86.8058C187.46 86.6521 187.573 86.4576 187.645 86.2179C187.722 85.9737 187.758 85.6842 187.758 85.3541V84.3818C187.758 84.0471 187.717 83.7577 187.645 83.518C187.573 83.2828 187.46 83.0838 187.315 82.93C187.17 82.7763 186.971 82.6632 186.718 82.5863C186.456 82.5049 186.135 82.4642 185.755 82.4642H177.185C177.081 82.4642 177.031 82.5095 177.031 82.5954V87.2671L177.026 87.2716ZM207.155 89.2389L203.587 82.6677C203.569 82.6361 203.546 82.6135 203.528 82.5999C203.51 82.5863 203.487 82.5818 203.46 82.5818H203.32C203.293 82.5818 203.27 82.5863 203.252 82.5999C203.23 82.6135 203.211 82.6361 203.193 82.6677L199.67 89.2389H207.155ZM231.387 79C231.595 79 231.757 79.0588 231.871 79.1719C231.984 79.2849 232.042 79.4477 232.042 79.6558V81.926C232.042 82.1431 231.988 82.3105 231.875 82.428C231.762 82.5456 231.599 82.6089 231.387 82.6089H221.075C220.777 82.6089 220.506 82.6225 220.266 82.6451C220.026 82.6677 219.809 82.7039 219.619 82.7537C219.434 82.7989 219.266 82.8622 219.122 82.9436C218.977 83.0205 218.855 83.1155 218.751 83.224C218.647 83.3325 218.552 83.4637 218.475 83.6084C218.398 83.7577 218.335 83.9295 218.285 84.1195C218.235 84.3139 218.199 84.5355 218.176 84.7797C218.154 85.024 218.14 85.3044 218.14 85.6119V88.8997C218.14 89.2073 218.154 89.4877 218.176 89.7364C218.199 89.9851 218.24 90.2067 218.285 90.4057C218.33 90.6002 218.394 90.772 218.475 90.9258C218.552 91.0751 218.642 91.2062 218.746 91.3147C218.85 91.4233 218.977 91.5183 219.122 91.5951C219.266 91.672 219.434 91.7353 219.619 91.7851C219.809 91.8348 220.026 91.871 220.266 91.8936C220.506 91.9162 220.777 91.9298 221.075 91.9298H231.387C231.595 91.9298 231.757 91.9886 231.871 92.1017C231.984 92.2147 232.042 92.3775 232.042 92.5856V94.8559C232.042 95.0639 231.984 95.2267 231.871 95.3398C231.757 95.4528 231.595 95.5116 231.387 95.5116H220.94C219.755 95.5116 218.746 95.4031 217.914 95.1815C217.494 95.0729 217.114 94.9237 216.77 94.7428C216.426 94.5619 216.119 94.3448 215.847 94.0916C215.581 93.8383 215.345 93.5489 215.151 93.2187C214.956 92.8931 214.798 92.5268 214.671 92.1288C214.549 91.7308 214.459 91.2921 214.396 90.8082C214.337 90.3288 214.305 89.8042 214.305 89.248V85.2636C214.305 84.1375 214.427 83.1833 214.671 82.3964C214.794 81.9984 214.956 81.6366 215.151 81.3155C215.345 80.9899 215.581 80.7005 215.847 80.4472C216.114 80.1939 216.422 79.9769 216.765 79.7914C217.109 79.6105 217.489 79.4613 217.91 79.3437C218.742 79.1176 219.75 79.0045 220.935 79.0045H231.382L231.387 79Z" fill="#96989A"/>
<path d="M42.2351 131.324C41.0351 131.324 40.0091 131.114 39.1571 130.694C38.3171 130.274 37.6391 129.728 37.1231 129.056C36.6071 128.384 36.2291 127.658 35.9891 126.878C35.7491 126.086 35.6291 125.324 35.6291 124.592V124.196C35.6291 123.404 35.7491 122.612 35.9891 121.82C36.2411 121.028 36.6251 120.308 37.1411 119.66C37.6571 119.012 38.3291 118.49 39.1571 118.094C39.9851 117.698 40.9751 117.5 42.1271 117.5C43.3031 117.5 44.3111 117.704 45.1511 118.112C45.9911 118.52 46.6571 119.09 47.1491 119.822C47.6411 120.554 47.9411 121.418 48.0491 122.414H46.2491C46.1531 121.67 45.9131 121.058 45.5291 120.578C45.1451 120.086 44.6591 119.72 44.0711 119.48C43.4951 119.24 42.8471 119.12 42.1271 119.12C41.3471 119.12 40.6631 119.258 40.0751 119.534C39.4871 119.798 38.9951 120.176 38.5991 120.668C38.2151 121.148 37.9211 121.706 37.7171 122.342C37.5251 122.978 37.4291 123.668 37.4291 124.412C37.4291 125.12 37.5251 125.792 37.7171 126.428C37.9211 127.064 38.2211 127.628 38.6171 128.12C39.0251 128.612 39.5291 129.002 40.1291 129.29C40.7291 129.566 41.4311 129.704 42.2351 129.704C43.3631 129.704 44.3111 129.422 45.0791 128.858C45.8471 128.294 46.3151 127.478 46.4831 126.41H48.2831C48.1631 127.31 47.8571 128.132 47.3651 128.876C46.8851 129.62 46.2131 130.214 45.3491 130.658C44.4971 131.102 43.4591 131.324 42.2351 131.324Z" fill="white"/>
<path d="M56.3997 131V128.12H56.1117V124.79C56.1117 124.13 55.9377 123.632 55.5897 123.296C55.2537 122.96 54.7557 122.792 54.0957 122.792C53.7237 122.792 53.3397 122.798 52.9437 122.81C52.5477 122.822 52.1697 122.834 51.8097 122.846C51.4497 122.858 51.1377 122.876 50.8737 122.9V121.388C51.1377 121.364 51.4137 121.346 51.7017 121.334C52.0017 121.31 52.3077 121.298 52.6197 121.298C52.9317 121.286 53.2317 121.28 53.5197 121.28C54.5037 121.28 55.3077 121.4 55.9317 121.64C56.5557 121.868 57.0177 122.246 57.3177 122.774C57.6177 123.302 57.7677 124.016 57.7677 124.916V131H56.3997ZM53.2497 131.252C52.5297 131.252 51.9057 131.132 51.3777 130.892C50.8617 130.64 50.4597 130.28 50.1717 129.812C49.8957 129.344 49.7577 128.78 49.7577 128.12C49.7577 127.436 49.9077 126.866 50.2077 126.41C50.5197 125.954 50.9697 125.612 51.5577 125.384C52.1457 125.144 52.8537 125.024 53.6817 125.024H56.2917V126.32H53.6097C52.9137 126.32 52.3797 126.488 52.0077 126.824C51.6357 127.16 51.4497 127.592 51.4497 128.12C51.4497 128.648 51.6357 129.074 52.0077 129.398C52.3797 129.722 52.9137 129.884 53.6097 129.884C54.0177 129.884 54.4077 129.812 54.7797 129.668C55.1517 129.512 55.4577 129.26 55.6977 128.912C55.9497 128.552 56.0877 128.06 56.1117 127.436L56.5797 128.12C56.5197 128.804 56.3517 129.38 56.0757 129.848C55.8117 130.304 55.4397 130.652 54.9597 130.892C54.4917 131.132 53.9217 131.252 53.2497 131.252Z" fill="white"/>
<path d="M66.0152 131.324C65.2232 131.324 64.5152 131.15 63.8912 130.802C63.2792 130.454 62.7932 129.95 62.4332 129.29C62.0732 128.618 61.8752 127.814 61.8392 126.878H62.3072V131H60.9392V117.86H62.6672V124.25L62.0552 125.564C62.1032 124.52 62.3132 123.668 62.6852 123.008C63.0572 122.348 63.5432 121.862 64.1432 121.55C64.7552 121.226 65.4272 121.064 66.1592 121.064C66.8432 121.064 67.4672 121.196 68.0312 121.46C68.5952 121.712 69.0812 122.066 69.4892 122.522C69.8972 122.966 70.2092 123.488 70.4252 124.088C70.6412 124.676 70.7492 125.312 70.7492 125.996V126.32C70.7492 127.004 70.6352 127.646 70.4072 128.246C70.1912 128.846 69.8732 129.38 69.4532 129.848C69.0332 130.304 68.5292 130.664 67.9412 130.928C67.3652 131.192 66.7232 131.324 66.0152 131.324ZM65.8172 129.812C66.4652 129.812 67.0292 129.656 67.5092 129.344C67.9892 129.032 68.3612 128.606 68.6252 128.066C68.8892 127.514 69.0212 126.878 69.0212 126.158C69.0212 125.438 68.8832 124.808 68.6072 124.268C68.3432 123.728 67.9712 123.314 67.4912 123.026C67.0112 122.726 66.4532 122.576 65.8172 122.576C65.2412 122.576 64.7072 122.708 64.2152 122.972C63.7232 123.224 63.3272 123.596 63.0272 124.088C62.7392 124.568 62.5952 125.15 62.5952 125.834V126.662C62.5952 127.322 62.7452 127.886 63.0452 128.354C63.3452 128.822 63.7412 129.182 64.2332 129.434C64.7252 129.686 65.2532 129.812 65.8172 129.812Z" fill="white"/>
<path d="M73.4574 131V117.86H75.1854V131H73.4574ZM72.1254 119.228V117.86H75.1854V119.228H72.1254Z" fill="white"/>
<path d="M82.5857 131.324C81.7457 131.324 81.0198 131.18 80.4078 130.892C79.7958 130.604 79.2977 130.226 78.9137 129.758C78.5297 129.278 78.2418 128.744 78.0498 128.156C77.8698 127.568 77.7797 126.968 77.7797 126.356V126.032C77.7797 125.408 77.8698 124.802 78.0498 124.214C78.2418 123.626 78.5297 123.098 78.9137 122.63C79.2977 122.15 79.7837 121.772 80.3717 121.496C80.9717 121.208 81.6738 121.064 82.4778 121.064C83.5218 121.064 84.3797 121.292 85.0518 121.748C85.7357 122.192 86.2398 122.768 86.5638 123.476C86.8998 124.184 87.0677 124.94 87.0677 125.744V126.518H78.5358V125.222H85.8077L85.4118 125.924C85.4118 125.24 85.3038 124.652 85.0878 124.16C84.8718 123.656 84.5478 123.266 84.1158 122.99C83.6838 122.714 83.1378 122.576 82.4778 122.576C81.7938 122.576 81.2238 122.732 80.7678 123.044C80.3238 123.356 79.9878 123.782 79.7598 124.322C79.5438 124.862 79.4358 125.486 79.4358 126.194C79.4358 126.878 79.5438 127.496 79.7598 128.048C79.9878 128.588 80.3357 129.02 80.8037 129.344C81.2717 129.656 81.8657 129.812 82.5857 129.812C83.3417 129.812 83.9538 129.644 84.4218 129.308C84.9018 128.972 85.1898 128.582 85.2858 128.138H86.9057C86.7737 128.798 86.5098 129.368 86.1138 129.848C85.7178 130.328 85.2198 130.694 84.6198 130.946C84.0198 131.198 83.3417 131.324 82.5857 131.324Z" fill="white"/>
<path d="M96.4249 131V119.084H98.1889V131H96.4249ZM92.4289 119.444V117.86H102.185V119.444H92.4289Z" fill="white"/>
<path d="M103.76 131V121.388H105.128V125.348H105.056C105.056 123.944 105.362 122.918 105.974 122.27C106.598 121.61 107.528 121.28 108.764 121.28H109.088V122.828H108.476C107.516 122.828 106.778 123.086 106.262 123.602C105.746 124.106 105.488 124.838 105.488 125.798V131H103.76Z" fill="white"/>
<path d="M116.921 131V128.12H116.633V124.79C116.633 124.13 116.459 123.632 116.111 123.296C115.775 122.96 115.277 122.792 114.617 122.792C114.245 122.792 113.861 122.798 113.465 122.81C113.069 122.822 112.691 122.834 112.331 122.846C111.971 122.858 111.659 122.876 111.395 122.9V121.388C111.659 121.364 111.935 121.346 112.223 121.334C112.523 121.31 112.829 121.298 113.141 121.298C113.453 121.286 113.753 121.28 114.041 121.28C115.025 121.28 115.829 121.4 116.453 121.64C117.077 121.868 117.539 122.246 117.839 122.774C118.139 123.302 118.289 124.016 118.289 124.916V131H116.921ZM113.771 131.252C113.051 131.252 112.427 131.132 111.899 130.892C111.383 130.64 110.981 130.28 110.693 129.812C110.417 129.344 110.279 128.78 110.279 128.12C110.279 127.436 110.429 126.866 110.729 126.41C111.041 125.954 111.491 125.612 112.079 125.384C112.667 125.144 113.375 125.024 114.203 125.024H116.813V126.32H114.131C113.435 126.32 112.901 126.488 112.529 126.824C112.157 127.16 111.971 127.592 111.971 128.12C111.971 128.648 112.157 129.074 112.529 129.398C112.901 129.722 113.435 129.884 114.131 129.884C114.539 129.884 114.929 129.812 115.301 129.668C115.673 129.512 115.979 129.26 116.219 128.912C116.471 128.552 116.609 128.06 116.633 127.436L117.101 128.12C117.041 128.804 116.873 129.38 116.597 129.848C116.333 130.304 115.961 130.652 115.481 130.892C115.013 131.132 114.443 131.252 113.771 131.252Z" fill="white"/>
<path d="M120.778 134.744V133.196H122.164C122.572 133.196 122.914 133.142 123.19 133.034C123.478 132.938 123.712 132.77 123.892 132.53C124.084 132.29 124.24 131.972 124.36 131.576L127.384 121.388H129.076L125.872 132.026C125.68 132.662 125.41 133.178 125.062 133.574C124.714 133.982 124.288 134.276 123.784 134.456C123.292 134.648 122.716 134.744 122.056 134.744H120.778ZM123.712 130.784V129.344H125.8V130.784H123.712ZM123.532 130.784L120.094 121.388H121.858L125.152 130.784H123.532Z" fill="white"/>
<path d="M134.349 131.288C133.089 131.288 132.111 131.018 131.415 130.478C130.731 129.938 130.377 129.2 130.353 128.264H131.973C131.997 128.636 132.183 128.99 132.531 129.326C132.891 129.65 133.497 129.812 134.349 129.812C135.117 129.812 135.705 129.662 136.113 129.362C136.521 129.05 136.725 128.672 136.725 128.228C136.725 127.832 136.575 127.526 136.275 127.31C135.975 127.082 135.489 126.932 134.817 126.86L133.773 126.752C132.861 126.656 132.117 126.386 131.541 125.942C130.965 125.486 130.677 124.85 130.677 124.034C130.677 123.422 130.833 122.9 131.145 122.468C131.457 122.024 131.889 121.688 132.441 121.46C132.993 121.22 133.629 121.1 134.349 121.1C135.429 121.1 136.305 121.34 136.977 121.82C137.649 122.3 137.997 123.014 138.021 123.962H136.401C136.389 123.578 136.209 123.254 135.861 122.99C135.525 122.714 135.021 122.576 134.349 122.576C133.677 122.576 133.167 122.714 132.819 122.99C132.471 123.266 132.297 123.614 132.297 124.034C132.297 124.394 132.417 124.682 132.657 124.898C132.909 125.114 133.317 125.252 133.881 125.312L134.925 125.42C135.957 125.528 136.785 125.816 137.409 126.284C138.033 126.74 138.345 127.388 138.345 128.228C138.345 128.828 138.171 129.362 137.823 129.83C137.487 130.286 137.019 130.646 136.419 130.91C135.819 131.162 135.129 131.288 134.349 131.288Z" fill="white"/>
<path d="M140.872 133.826L139.486 133.304L141.16 128.66L142.582 129.2L140.872 133.826Z" fill="white"/>
<path d="M149.732 131V117.86H151.496V131H149.732ZM151.136 131V129.416H157.148V131H151.136Z" fill="white"/>
<path d="M165.085 131V128.12H164.797V124.79C164.797 124.13 164.623 123.632 164.275 123.296C163.939 122.96 163.441 122.792 162.781 122.792C162.409 122.792 162.025 122.798 161.629 122.81C161.233 122.822 160.855 122.834 160.495 122.846C160.135 122.858 159.823 122.876 159.559 122.9V121.388C159.823 121.364 160.099 121.346 160.387 121.334C160.687 121.31 160.993 121.298 161.305 121.298C161.617 121.286 161.917 121.28 162.205 121.28C163.189 121.28 163.993 121.4 164.617 121.64C165.241 121.868 165.703 122.246 166.003 122.774C166.303 123.302 166.453 124.016 166.453 124.916V131H165.085ZM161.935 131.252C161.215 131.252 160.591 131.132 160.063 130.892C159.547 130.64 159.145 130.28 158.857 129.812C158.581 129.344 158.443 128.78 158.443 128.12C158.443 127.436 158.593 126.866 158.893 126.41C159.205 125.954 159.655 125.612 160.243 125.384C160.831 125.144 161.539 125.024 162.367 125.024H164.977V126.32H162.295C161.599 126.32 161.065 126.488 160.693 126.824C160.321 127.16 160.135 127.592 160.135 128.12C160.135 128.648 160.321 129.074 160.693 129.398C161.065 129.722 161.599 129.884 162.295 129.884C162.703 129.884 163.093 129.812 163.465 129.668C163.837 129.512 164.143 129.26 164.383 128.912C164.635 128.552 164.773 128.06 164.797 127.436L165.265 128.12C165.205 128.804 165.037 129.38 164.761 129.848C164.497 130.304 164.125 130.652 163.645 130.892C163.177 131.132 162.607 131.252 161.935 131.252Z" fill="white"/>
<path d="M173.639 131.324C172.955 131.324 172.325 131.198 171.749 130.946C171.173 130.694 170.669 130.34 170.237 129.884C169.817 129.428 169.487 128.9 169.247 128.3C169.019 127.7 168.905 127.052 168.905 126.356V126.032C168.905 125.348 169.019 124.706 169.247 124.106C169.475 123.506 169.793 122.978 170.201 122.522C170.621 122.066 171.113 121.712 171.677 121.46C172.253 121.196 172.889 121.064 173.585 121.064C174.317 121.064 174.983 121.22 175.583 121.532C176.183 121.832 176.675 122.306 177.059 122.954C177.443 123.602 177.659 124.442 177.707 125.474L176.987 124.322V117.86H178.715V131H177.347V126.734H177.851C177.803 127.826 177.575 128.714 177.167 129.398C176.759 130.07 176.243 130.562 175.619 130.874C175.007 131.174 174.347 131.324 173.639 131.324ZM173.873 129.812C174.461 129.812 174.995 129.68 175.475 129.416C175.955 129.152 176.339 128.774 176.627 128.282C176.915 127.778 177.059 127.19 177.059 126.518V125.69C177.059 125.03 176.909 124.472 176.609 124.016C176.321 123.548 175.931 123.194 175.439 122.954C174.959 122.702 174.431 122.576 173.855 122.576C173.219 122.576 172.655 122.726 172.163 123.026C171.683 123.326 171.305 123.746 171.029 124.286C170.765 124.826 170.633 125.462 170.633 126.194C170.633 126.926 170.771 127.568 171.047 128.12C171.323 128.66 171.707 129.08 172.199 129.38C172.691 129.668 173.249 129.812 173.873 129.812Z" fill="white"/>
<path d="M186.049 131.324C185.365 131.324 184.735 131.198 184.159 130.946C183.583 130.694 183.079 130.34 182.647 129.884C182.227 129.428 181.897 128.9 181.657 128.3C181.429 127.7 181.315 127.052 181.315 126.356V126.032C181.315 125.348 181.429 124.706 181.657 124.106C181.885 123.506 182.203 122.978 182.611 122.522C183.031 122.066 183.523 121.712 184.087 121.46C184.663 121.196 185.299 121.064 185.995 121.064C186.727 121.064 187.393 121.22 187.993 121.532C188.593 121.832 189.085 122.306 189.469 122.954C189.853 123.602 190.069 124.442 190.117 125.474L189.397 124.322V117.86H191.125V131H189.757V126.734H190.261C190.213 127.826 189.985 128.714 189.577 129.398C189.169 130.07 188.653 130.562 188.029 130.874C187.417 131.174 186.757 131.324 186.049 131.324ZM186.283 129.812C186.871 129.812 187.405 129.68 187.885 129.416C188.365 129.152 188.749 128.774 189.037 128.282C189.325 127.778 189.469 127.19 189.469 126.518V125.69C189.469 125.03 189.319 124.472 189.019 124.016C188.731 123.548 188.341 123.194 187.849 122.954C187.369 122.702 186.841 122.576 186.265 122.576C185.629 122.576 185.065 122.726 184.573 123.026C184.093 123.326 183.715 123.746 183.439 124.286C183.175 124.826 183.043 125.462 183.043 126.194C183.043 126.926 183.181 127.568 183.457 128.12C183.733 128.66 184.117 129.08 184.609 129.38C185.101 129.668 185.659 129.812 186.283 129.812Z" fill="white"/>
<path d="M198.531 131.324C197.691 131.324 196.965 131.18 196.353 130.892C195.741 130.604 195.243 130.226 194.859 129.758C194.475 129.278 194.187 128.744 193.995 128.156C193.815 127.568 193.725 126.968 193.725 126.356V126.032C193.725 125.408 193.815 124.802 193.995 124.214C194.187 123.626 194.475 123.098 194.859 122.63C195.243 122.15 195.729 121.772 196.317 121.496C196.917 121.208 197.619 121.064 198.423 121.064C199.467 121.064 200.325 121.292 200.997 121.748C201.681 122.192 202.185 122.768 202.509 123.476C202.845 124.184 203.013 124.94 203.013 125.744V126.518H194.481V125.222H201.753L201.357 125.924C201.357 125.24 201.249 124.652 201.033 124.16C200.817 123.656 200.493 123.266 200.061 122.99C199.629 122.714 199.083 122.576 198.423 122.576C197.739 122.576 197.169 122.732 196.713 123.044C196.269 123.356 195.933 123.782 195.705 124.322C195.489 124.862 195.381 125.486 195.381 126.194C195.381 126.878 195.489 127.496 195.705 128.048C195.933 128.588 196.281 129.02 196.749 129.344C197.217 129.656 197.811 129.812 198.531 129.812C199.287 129.812 199.899 129.644 200.367 129.308C200.847 128.972 201.135 128.582 201.231 128.138H202.851C202.719 128.798 202.455 129.368 202.059 129.848C201.663 130.328 201.165 130.694 200.565 130.946C199.965 131.198 199.287 131.324 198.531 131.324Z" fill="white"/>
<path d="M205.467 131V121.388H206.835V125.348H206.763C206.763 123.944 207.069 122.918 207.681 122.27C208.305 121.61 209.235 121.28 210.471 121.28H210.795V122.828H210.183C209.223 122.828 208.485 123.086 207.969 123.602C207.453 124.106 207.195 124.838 207.195 125.798V131H205.467Z" fill="white"/>
<path d="M215.999 131.288C214.739 131.288 213.761 131.018 213.065 130.478C212.381 129.938 212.027 129.2 212.003 128.264H213.623C213.647 128.636 213.833 128.99 214.181 129.326C214.541 129.65 215.147 129.812 215.999 129.812C216.767 129.812 217.355 129.662 217.763 129.362C218.171 129.05 218.375 128.672 218.375 128.228C218.375 127.832 218.225 127.526 217.925 127.31C217.625 127.082 217.139 126.932 216.467 126.86L215.423 126.752C214.511 126.656 213.767 126.386 213.191 125.942C212.615 125.486 212.327 124.85 212.327 124.034C212.327 123.422 212.483 122.9 212.795 122.468C213.107 122.024 213.539 121.688 214.091 121.46C214.643 121.22 215.279 121.1 215.999 121.1C217.079 121.1 217.955 121.34 218.627 121.82C219.299 122.3 219.647 123.014 219.671 123.962H218.051C218.039 123.578 217.859 123.254 217.511 122.99C217.175 122.714 216.671 122.576 215.999 122.576C215.327 122.576 214.817 122.714 214.469 122.99C214.121 123.266 213.947 123.614 213.947 124.034C213.947 124.394 214.067 124.682 214.307 124.898C214.559 125.114 214.967 125.252 215.531 125.312L216.575 125.42C217.607 125.528 218.435 125.816 219.059 126.284C219.683 126.74 219.995 127.388 219.995 128.228C219.995 128.828 219.821 129.362 219.473 129.83C219.137 130.286 218.669 130.646 218.069 130.91C217.469 131.162 216.779 131.288 215.999 131.288Z" fill="white"/>
<path d="M222.522 133.826L221.136 133.304L222.81 128.66L224.232 129.2L222.522 133.826Z" fill="white"/>
<path d="M45.1369 154.324C44.0449 154.324 43.1149 154.144 42.3469 153.784C41.5789 153.424 40.9909 152.926 40.5829 152.29C40.1749 151.654 39.9709 150.934 39.9709 150.13H41.7349C41.7349 150.526 41.8369 150.922 42.0409 151.318C42.2569 151.714 42.6109 152.044 43.1029 152.308C43.6069 152.572 44.2849 152.704 45.1369 152.704C45.9289 152.704 46.5769 152.59 47.0809 152.362C47.5849 152.122 47.9569 151.816 48.1969 151.444C48.4369 151.06 48.5569 150.646 48.5569 150.202C48.5569 149.662 48.3229 149.218 47.8549 148.87C47.3869 148.51 46.7029 148.288 45.8029 148.204L44.3449 148.078C43.1809 147.982 42.2509 147.622 41.5549 146.998C40.8589 146.374 40.5109 145.552 40.5109 144.532C40.5109 143.728 40.7029 143.026 41.0869 142.426C41.4829 141.826 42.0289 141.358 42.7249 141.022C43.4209 140.674 44.2309 140.5 45.1549 140.5C46.0669 140.5 46.8709 140.668 47.5669 141.004C48.2629 141.34 48.8029 141.814 49.1869 142.426C49.5829 143.026 49.7809 143.746 49.7809 144.586H48.0169C48.0169 144.166 47.9149 143.77 47.7109 143.398C47.5189 143.026 47.2129 142.72 46.7929 142.48C46.3729 142.24 45.8269 142.12 45.1549 142.12C44.5069 142.12 43.9669 142.234 43.5349 142.462C43.1149 142.69 42.7969 142.99 42.5809 143.362C42.3769 143.722 42.2749 144.112 42.2749 144.532C42.2749 145.012 42.4609 145.438 42.8329 145.81C43.2049 146.182 43.7569 146.398 44.4889 146.458L45.9469 146.584C46.8469 146.656 47.6209 146.848 48.2689 147.16C48.9289 147.46 49.4329 147.868 49.7809 148.384C50.1409 148.888 50.3209 149.494 50.3209 150.202C50.3209 151.006 50.1049 151.72 49.6729 152.344C49.2409 152.968 48.6349 153.454 47.8549 153.802C47.0749 154.15 46.1689 154.324 45.1369 154.324Z" fill="white"/>
<path d="M56.359 154.288C55.219 154.288 54.343 153.916 53.731 153.172C53.119 152.428 52.813 151.354 52.813 149.95V144.37H54.541V150.292C54.541 151.048 54.745 151.642 55.153 152.074C55.561 152.494 56.113 152.704 56.809 152.704C57.529 152.704 58.117 152.476 58.573 152.02C59.029 151.552 59.257 150.916 59.257 150.112V144.37H60.985V154H59.617V149.878H59.833C59.833 150.826 59.707 151.63 59.455 152.29C59.203 152.938 58.825 153.436 58.321 153.784C57.829 154.12 57.199 154.288 56.431 154.288H56.359Z" fill="white"/>
<path d="M64.3318 157.6V144.388H65.6998V148.546L65.3758 148.51C65.4358 147.478 65.6518 146.638 66.0238 145.99C66.4078 145.33 66.9058 144.844 67.5178 144.532C68.1298 144.22 68.7958 144.064 69.5158 144.064C70.2118 144.064 70.8418 144.196 71.4058 144.46C71.9818 144.724 72.4738 145.084 72.8818 145.54C73.2898 145.996 73.6018 146.524 73.8178 147.124C74.0338 147.724 74.1418 148.36 74.1418 149.032V149.356C74.1418 150.028 74.0278 150.664 73.7998 151.264C73.5718 151.864 73.2478 152.392 72.8278 152.848C72.4198 153.304 71.9278 153.664 71.3518 153.928C70.7878 154.192 70.1638 154.324 69.4798 154.324C68.7958 154.324 68.1418 154.174 67.5178 153.874C66.8938 153.574 66.3778 153.088 65.9698 152.416C65.5618 151.744 65.3278 150.862 65.2678 149.77L66.0598 151.21V157.6H64.3318ZM69.2098 152.812C69.8578 152.812 70.4218 152.662 70.9018 152.362C71.3818 152.05 71.7538 151.624 72.0178 151.084C72.2818 150.532 72.4138 149.902 72.4138 149.194C72.4138 148.474 72.2818 147.844 72.0178 147.304C71.7538 146.764 71.3818 146.344 70.9018 146.044C70.4218 145.732 69.8578 145.576 69.2098 145.576C68.6338 145.576 68.0998 145.708 67.6078 145.972C67.1158 146.224 66.7198 146.596 66.4198 147.088C66.1318 147.568 65.9878 148.15 65.9878 148.834V149.662C65.9878 150.322 66.1378 150.886 66.4378 151.354C66.7378 151.822 67.1338 152.182 67.6258 152.434C68.1178 152.686 68.6458 152.812 69.2098 152.812Z" fill="white"/>
<path d="M76.7419 157.6V144.388H78.1099V148.546L77.7859 148.51C77.8459 147.478 78.0619 146.638 78.4339 145.99C78.8179 145.33 79.3159 144.844 79.9279 144.532C80.5399 144.22 81.2059 144.064 81.9259 144.064C82.6219 144.064 83.2519 144.196 83.8159 144.46C84.3919 144.724 84.8839 145.084 85.2919 145.54C85.6999 145.996 86.0119 146.524 86.2279 147.124C86.4439 147.724 86.5519 148.36 86.5519 149.032V149.356C86.5519 150.028 86.4379 150.664 86.2099 151.264C85.9819 151.864 85.6579 152.392 85.2379 152.848C84.8299 153.304 84.3379 153.664 83.7619 153.928C83.1979 154.192 82.5739 154.324 81.8899 154.324C81.2059 154.324 80.5519 154.174 79.9279 153.874C79.3039 153.574 78.7879 153.088 78.3799 152.416C77.9719 151.744 77.7379 150.862 77.6779 149.77L78.4699 151.21V157.6H76.7419ZM81.6199 152.812C82.2679 152.812 82.8319 152.662 83.3119 152.362C83.7919 152.05 84.1639 151.624 84.4279 151.084C84.6919 150.532 84.8239 149.902 84.8239 149.194C84.8239 148.474 84.6919 147.844 84.4279 147.304C84.1639 146.764 83.7919 146.344 83.3119 146.044C82.8319 145.732 82.2679 145.576 81.6199 145.576C81.0439 145.576 80.5099 145.708 80.0179 145.972C79.5259 146.224 79.1299 146.596 78.8299 147.088C78.5419 147.568 78.3979 148.15 78.3979 148.834V149.662C78.3979 150.322 78.5479 150.886 78.8479 151.354C79.1479 151.822 79.5439 152.182 80.0359 152.434C80.5279 152.686 81.0559 152.812 81.6199 152.812Z" fill="white"/>
<path d="M93.5801 154.324C92.7401 154.324 92.0021 154.18 91.3661 153.892C90.7301 153.604 90.1901 153.226 89.7461 152.758C89.3141 152.278 88.9841 151.744 88.7561 151.156C88.5401 150.568 88.4321 149.968 88.4321 149.356V149.032C88.4321 148.42 88.5461 147.82 88.7741 147.232C89.0021 146.632 89.3381 146.098 89.7821 145.63C90.2261 145.15 90.7661 144.772 91.4021 144.496C92.0381 144.208 92.7641 144.064 93.5801 144.064C94.3961 144.064 95.1221 144.208 95.7581 144.496C96.3941 144.772 96.9341 145.15 97.3781 145.63C97.8221 146.098 98.1581 146.632 98.3861 147.232C98.6141 147.82 98.7281 148.42 98.7281 149.032V149.356C98.7281 149.968 98.6141 150.568 98.3861 151.156C98.1701 151.744 97.8401 152.278 97.3961 152.758C96.9641 153.226 96.4301 153.604 95.7941 153.892C95.1581 154.18 94.4201 154.324 93.5801 154.324ZM93.5801 152.776C94.3001 152.776 94.9121 152.62 95.4161 152.308C95.9321 151.984 96.3221 151.552 96.5861 151.012C96.8621 150.472 97.0001 149.866 97.0001 149.194C97.0001 148.51 96.8621 147.898 96.5861 147.358C96.3101 146.818 95.9141 146.392 95.3981 146.08C94.8941 145.768 94.2881 145.612 93.5801 145.612C92.8841 145.612 92.2781 145.768 91.7621 146.08C91.2461 146.392 90.8501 146.818 90.5741 147.358C90.2981 147.898 90.1601 148.51 90.1601 149.194C90.1601 149.866 90.2921 150.472 90.5561 151.012C90.8321 151.552 91.2221 151.984 91.7261 152.308C92.2421 152.62 92.8601 152.776 93.5801 152.776Z" fill="white"/>
<path d="M101.316 154V144.388H102.684V148.348H102.612C102.612 146.944 102.918 145.918 103.53 145.27C104.154 144.61 105.084 144.28 106.32 144.28H106.644V145.828H106.032C105.072 145.828 104.334 146.086 103.818 146.602C103.302 147.106 103.044 147.838 103.044 148.798V154H101.316Z" fill="white"/>
<path d="M112.619 154.108C111.899 154.108 111.275 154.006 110.747 153.802C110.231 153.598 109.829 153.25 109.541 152.758C109.265 152.254 109.127 151.576 109.127 150.724V141.472H110.783V150.94C110.783 151.456 110.921 151.858 111.197 152.146C111.485 152.422 111.887 152.56 112.403 152.56H114.095V154.108H112.619ZM107.471 145.684V144.388H114.095V145.684H107.471Z" fill="white"/>
<path d="M119.618 154.288C118.358 154.288 117.381 154.018 116.685 153.478C116.001 152.938 115.646 152.2 115.622 151.264H117.243C117.267 151.636 117.452 151.99 117.8 152.326C118.16 152.65 118.766 152.812 119.618 152.812C120.386 152.812 120.974 152.662 121.382 152.362C121.79 152.05 121.994 151.672 121.994 151.228C121.994 150.832 121.845 150.526 121.545 150.31C121.245 150.082 120.759 149.932 120.087 149.86L119.043 149.752C118.131 149.656 117.387 149.386 116.811 148.942C116.235 148.486 115.947 147.85 115.947 147.034C115.947 146.422 116.102 145.9 116.414 145.468C116.726 145.024 117.159 144.688 117.711 144.46C118.263 144.22 118.898 144.1 119.618 144.1C120.698 144.1 121.574 144.34 122.246 144.82C122.918 145.3 123.266 146.014 123.29 146.962H121.671C121.659 146.578 121.479 146.254 121.131 145.99C120.795 145.714 120.29 145.576 119.618 145.576C118.946 145.576 118.437 145.714 118.089 145.99C117.741 146.266 117.566 146.614 117.566 147.034C117.566 147.394 117.686 147.682 117.926 147.898C118.178 148.114 118.586 148.252 119.15 148.312L120.195 148.42C121.227 148.528 122.054 148.816 122.678 149.284C123.302 149.74 123.615 150.388 123.615 151.228C123.615 151.828 123.44 152.362 123.092 152.83C122.756 153.286 122.288 153.646 121.688 153.91C121.088 154.162 120.398 154.288 119.618 154.288Z" fill="white"/>
<path d="M126.141 156.826L124.755 156.304L126.429 151.66L127.851 152.2L126.141 156.826Z" fill="white"/>
<path d="M135.002 154V140.86H136.766V154H135.002ZM136.406 148.15V146.566L142.04 146.548V148.132L136.406 148.15ZM136.406 142.444V140.86H142.346V142.444H136.406Z" fill="white"/>
<path d="M150.32 154V151.12H150.032V147.79C150.032 147.13 149.858 146.632 149.51 146.296C149.174 145.96 148.676 145.792 148.016 145.792C147.644 145.792 147.26 145.798 146.864 145.81C146.468 145.822 146.09 145.834 145.73 145.846C145.37 145.858 145.058 145.876 144.794 145.9V144.388C145.058 144.364 145.334 144.346 145.622 144.334C145.922 144.31 146.228 144.298 146.54 144.298C146.852 144.286 147.152 144.28 147.44 144.28C148.424 144.28 149.228 144.4 149.852 144.64C150.476 144.868 150.938 145.246 151.238 145.774C151.538 146.302 151.688 147.016 151.688 147.916V154H150.32ZM147.17 154.252C146.45 154.252 145.826 154.132 145.298 153.892C144.782 153.64 144.38 153.28 144.092 152.812C143.816 152.344 143.678 151.78 143.678 151.12C143.678 150.436 143.828 149.866 144.128 149.41C144.44 148.954 144.89 148.612 145.478 148.384C146.066 148.144 146.774 148.024 147.602 148.024H150.212V149.32H147.53C146.834 149.32 146.3 149.488 145.928 149.824C145.556 150.16 145.37 150.592 145.37 151.12C145.37 151.648 145.556 152.074 145.928 152.398C146.3 152.722 146.834 152.884 147.53 152.884C147.938 152.884 148.328 152.812 148.7 152.668C149.072 152.512 149.378 152.26 149.618 151.912C149.87 151.552 150.008 151.06 150.032 150.436L150.5 151.12C150.44 151.804 150.272 152.38 149.996 152.848C149.732 153.304 149.36 153.652 148.88 153.892C148.412 154.132 147.842 154.252 147.17 154.252Z" fill="white"/>
<path d="M158.009 154.288C156.749 154.288 155.771 154.018 155.075 153.478C154.391 152.938 154.037 152.2 154.013 151.264H155.633C155.657 151.636 155.843 151.99 156.191 152.326C156.551 152.65 157.157 152.812 158.009 152.812C158.777 152.812 159.365 152.662 159.773 152.362C160.181 152.05 160.385 151.672 160.385 151.228C160.385 150.832 160.235 150.526 159.935 150.31C159.635 150.082 159.149 149.932 158.477 149.86L157.433 149.752C156.521 149.656 155.777 149.386 155.201 148.942C154.625 148.486 154.337 147.85 154.337 147.034C154.337 146.422 154.493 145.9 154.805 145.468C155.117 145.024 155.549 144.688 156.101 144.46C156.653 144.22 157.289 144.1 158.009 144.1C159.089 144.1 159.965 144.34 160.637 144.82C161.309 145.3 161.657 146.014 161.681 146.962H160.061C160.049 146.578 159.869 146.254 159.521 145.99C159.185 145.714 158.681 145.576 158.009 145.576C157.337 145.576 156.827 145.714 156.479 145.99C156.131 146.266 155.957 146.614 155.957 147.034C155.957 147.394 156.077 147.682 156.317 147.898C156.569 148.114 156.977 148.252 157.541 148.312L158.585 148.42C159.617 148.528 160.445 148.816 161.069 149.284C161.693 149.74 162.005 150.388 162.005 151.228C162.005 151.828 161.831 152.362 161.483 152.83C161.147 153.286 160.679 153.646 160.079 153.91C159.479 154.162 158.789 154.288 158.009 154.288Z" fill="white"/>
<path d="M168.254 154.108C167.534 154.108 166.91 154.006 166.382 153.802C165.866 153.598 165.464 153.25 165.176 152.758C164.9 152.254 164.762 151.576 164.762 150.724V141.472H166.418V150.94C166.418 151.456 166.556 151.858 166.832 152.146C167.12 152.422 167.522 152.56 168.038 152.56H169.73V154.108H168.254ZM163.106 145.684V144.388H169.73V145.684H163.106Z" fill="white"/>
<path d="M176.189 154.324C175.349 154.324 174.623 154.18 174.011 153.892C173.399 153.604 172.901 153.226 172.517 152.758C172.133 152.278 171.845 151.744 171.653 151.156C171.473 150.568 171.383 149.968 171.383 149.356V149.032C171.383 148.408 171.473 147.802 171.653 147.214C171.845 146.626 172.133 146.098 172.517 145.63C172.901 145.15 173.387 144.772 173.975 144.496C174.575 144.208 175.277 144.064 176.081 144.064C177.125 144.064 177.983 144.292 178.655 144.748C179.339 145.192 179.843 145.768 180.167 146.476C180.503 147.184 180.671 147.94 180.671 148.744V149.518H172.139V148.222H179.411L179.015 148.924C179.015 148.24 178.907 147.652 178.691 147.16C178.475 146.656 178.151 146.266 177.719 145.99C177.287 145.714 176.741 145.576 176.081 145.576C175.397 145.576 174.827 145.732 174.371 146.044C173.927 146.356 173.591 146.782 173.363 147.322C173.147 147.862 173.039 148.486 173.039 149.194C173.039 149.878 173.147 150.496 173.363 151.048C173.591 151.588 173.939 152.02 174.407 152.344C174.875 152.656 175.469 152.812 176.189 152.812C176.945 152.812 177.557 152.644 178.025 152.308C178.505 151.972 178.793 151.582 178.889 151.138H180.509C180.377 151.798 180.113 152.368 179.717 152.848C179.321 153.328 178.823 153.694 178.223 153.946C177.623 154.198 176.945 154.324 176.189 154.324Z" fill="white"/>
<path d="M183.125 154V144.388H184.493V148.51H184.277C184.277 147.562 184.403 146.764 184.655 146.116C184.919 145.456 185.315 144.958 185.843 144.622C186.371 144.274 187.037 144.1 187.841 144.1H187.913C189.125 144.1 190.019 144.478 190.595 145.234C191.183 145.99 191.477 147.082 191.477 148.51V154H189.749V148.15C189.749 147.406 189.539 146.812 189.119 146.368C188.699 145.912 188.123 145.684 187.391 145.684C186.635 145.684 186.023 145.918 185.555 146.386C185.087 146.854 184.853 147.478 184.853 148.258V154H183.125Z" fill="white"/>
<path d="M198.724 154.324C197.884 154.324 197.158 154.18 196.546 153.892C195.934 153.604 195.436 153.226 195.052 152.758C194.668 152.278 194.38 151.744 194.188 151.156C194.008 150.568 193.918 149.968 193.918 149.356V149.032C193.918 148.408 194.008 147.802 194.188 147.214C194.38 146.626 194.668 146.098 195.052 145.63C195.436 145.15 195.922 144.772 196.51 144.496C197.11 144.208 197.812 144.064 198.616 144.064C199.66 144.064 200.518 144.292 201.19 144.748C201.874 145.192 202.378 145.768 202.702 146.476C203.038 147.184 203.206 147.94 203.206 148.744V149.518H194.674V148.222H201.946L201.55 148.924C201.55 148.24 201.442 147.652 201.226 147.16C201.01 146.656 200.686 146.266 200.254 145.99C199.822 145.714 199.276 145.576 198.616 145.576C197.932 145.576 197.362 145.732 196.906 146.044C196.462 146.356 196.126 146.782 195.898 147.322C195.682 147.862 195.574 148.486 195.574 149.194C195.574 149.878 195.682 150.496 195.898 151.048C196.126 151.588 196.474 152.02 196.942 152.344C197.41 152.656 198.004 152.812 198.724 152.812C199.48 152.812 200.092 152.644 200.56 152.308C201.04 151.972 201.328 151.582 201.424 151.138H203.044C202.912 151.798 202.648 152.368 202.252 152.848C201.856 153.328 201.358 153.694 200.758 153.946C200.158 154.198 199.48 154.324 198.724 154.324Z" fill="white"/>
<path d="M205.66 154V144.388H207.028V148.348H206.956C206.956 146.944 207.262 145.918 207.874 145.27C208.498 144.61 209.428 144.28 210.664 144.28H210.988V145.828H210.376C209.416 145.828 208.678 146.086 208.162 146.602C207.646 147.106 207.388 147.838 207.388 148.798V154H205.66Z" fill="white"/>
<path d="M216.193 154.288C214.933 154.288 213.955 154.018 213.259 153.478C212.575 152.938 212.221 152.2 212.197 151.264H213.817C213.841 151.636 214.027 151.99 214.375 152.326C214.735 152.65 215.341 152.812 216.193 152.812C216.961 152.812 217.549 152.662 217.957 152.362C218.365 152.05 218.569 151.672 218.569 151.228C218.569 150.832 218.419 150.526 218.119 150.31C217.819 150.082 217.333 149.932 216.661 149.86L215.617 149.752C214.705 149.656 213.961 149.386 213.385 148.942C212.809 148.486 212.521 147.85 212.521 147.034C212.521 146.422 212.677 145.9 212.989 145.468C213.301 145.024 213.733 144.688 214.285 144.46C214.837 144.22 215.473 144.1 216.193 144.1C217.273 144.1 218.149 144.34 218.821 144.82C219.493 145.3 219.841 146.014 219.865 146.962H218.245C218.233 146.578 218.053 146.254 217.705 145.99C217.369 145.714 216.865 145.576 216.193 145.576C215.521 145.576 215.011 145.714 214.663 145.99C214.315 146.266 214.141 146.614 214.141 147.034C214.141 147.394 214.261 147.682 214.501 147.898C214.753 148.114 215.161 148.252 215.725 148.312L216.769 148.42C217.801 148.528 218.629 148.816 219.253 149.284C219.877 149.74 220.189 150.388 220.189 151.228C220.189 151.828 220.015 152.362 219.667 152.83C219.331 153.286 218.863 153.646 218.263 153.91C217.663 154.162 216.973 154.288 216.193 154.288Z" fill="white"/>
<path d="M60.5305 177V174.12H60.2425V170.79C60.2425 170.13 60.0685 169.632 59.7205 169.296C59.3845 168.96 58.8865 168.792 58.2265 168.792C57.8545 168.792 57.4705 168.798 57.0745 168.81C56.6785 168.822 56.3005 168.834 55.9405 168.846C55.5805 168.858 55.2685 168.876 55.0045 168.9V167.388C55.2685 167.364 55.5445 167.346 55.8325 167.334C56.1325 167.31 56.4385 167.298 56.7505 167.298C57.0625 167.286 57.3625 167.28 57.6505 167.28C58.6345 167.28 59.4385 167.4 60.0625 167.64C60.6865 167.868 61.1485 168.246 61.4485 168.774C61.7485 169.302 61.8985 170.016 61.8985 170.916V177H60.5305ZM57.3805 177.252C56.6605 177.252 56.0365 177.132 55.5085 176.892C54.9925 176.64 54.5905 176.28 54.3025 175.812C54.0265 175.344 53.8885 174.78 53.8885 174.12C53.8885 173.436 54.0385 172.866 54.3385 172.41C54.6505 171.954 55.1005 171.612 55.6885 171.384C56.2765 171.144 56.9845 171.024 57.8125 171.024H60.4225V172.32H57.7405C57.0445 172.32 56.5105 172.488 56.1385 172.824C55.7665 173.16 55.5805 173.592 55.5805 174.12C55.5805 174.648 55.7665 175.074 56.1385 175.398C56.5105 175.722 57.0445 175.884 57.7405 175.884C58.1485 175.884 58.5385 175.812 58.9105 175.668C59.2825 175.512 59.5885 175.26 59.8285 174.912C60.0805 174.552 60.2185 174.06 60.2425 173.436L60.7105 174.12C60.6505 174.804 60.4825 175.38 60.2065 175.848C59.9425 176.304 59.5705 176.652 59.0905 176.892C58.6225 177.132 58.0525 177.252 57.3805 177.252Z" fill="white"/>
<path d="M65.0701 177V167.388H66.4381V171.51H66.2221C66.2221 170.562 66.3481 169.764 66.6001 169.116C66.8641 168.456 67.2601 167.958 67.7881 167.622C68.3161 167.274 68.9821 167.1 69.7861 167.1H69.8581C71.0701 167.1 71.9641 167.478 72.5401 168.234C73.1281 168.99 73.4221 170.082 73.4221 171.51V177H71.6941V171.15C71.6941 170.406 71.4841 169.812 71.0641 169.368C70.6441 168.912 70.0681 168.684 69.3361 168.684C68.5801 168.684 67.9681 168.918 67.5001 169.386C67.0321 169.854 66.7981 170.478 66.7981 171.258V177H65.0701Z" fill="white"/>
<path d="M80.5977 177.324C79.9137 177.324 79.2837 177.198 78.7077 176.946C78.1317 176.694 77.6277 176.34 77.1957 175.884C76.7757 175.428 76.4457 174.9 76.2057 174.3C75.9777 173.7 75.8637 173.052 75.8637 172.356V172.032C75.8637 171.348 75.9777 170.706 76.2057 170.106C76.4337 169.506 76.7517 168.978 77.1597 168.522C77.5797 168.066 78.0717 167.712 78.6357 167.46C79.2117 167.196 79.8477 167.064 80.5437 167.064C81.2757 167.064 81.9417 167.22 82.5417 167.532C83.1417 167.832 83.6337 168.306 84.0177 168.954C84.4017 169.602 84.6177 170.442 84.6657 171.474L83.9457 170.322V163.86H85.6737V177H84.3057V172.734H84.8097C84.7617 173.826 84.5337 174.714 84.1257 175.398C83.7177 176.07 83.2017 176.562 82.5777 176.874C81.9657 177.174 81.3057 177.324 80.5977 177.324ZM80.8317 175.812C81.4197 175.812 81.9537 175.68 82.4337 175.416C82.9137 175.152 83.2977 174.774 83.5857 174.282C83.8737 173.778 84.0177 173.19 84.0177 172.518V171.69C84.0177 171.03 83.8677 170.472 83.5677 170.016C83.2797 169.548 82.8897 169.194 82.3977 168.954C81.9177 168.702 81.3897 168.576 80.8137 168.576C80.1777 168.576 79.6137 168.726 79.1217 169.026C78.6417 169.326 78.2637 169.746 77.9877 170.286C77.7237 170.826 77.5917 171.462 77.5917 172.194C77.5917 172.926 77.7297 173.568 78.0057 174.12C78.2817 174.66 78.6657 175.08 79.1577 175.38C79.6497 175.668 80.2077 175.812 80.8317 175.812Z" fill="white"/>
<path d="M96.0333 177L100.767 163.86H103.755L108.633 177H106.815L102.405 165.012L103.269 165.444H101.145L102.063 165.012L97.7973 177H96.0333ZM98.8593 173.076L99.4533 171.492H105.123L105.717 173.076H98.8593Z" fill="white"/>
<path d="M114.807 177.324C113.979 177.324 113.259 177.18 112.647 176.892C112.047 176.604 111.549 176.22 111.153 175.74C110.757 175.248 110.457 174.708 110.253 174.12C110.061 173.532 109.965 172.944 109.965 172.356V172.032C109.965 171.42 110.061 170.82 110.253 170.232C110.457 169.644 110.757 169.116 111.153 168.648C111.561 168.168 112.065 167.784 112.665 167.496C113.265 167.208 113.967 167.064 114.771 167.064C115.575 167.064 116.295 167.214 116.931 167.514C117.579 167.814 118.095 168.24 118.479 168.792C118.875 169.332 119.097 169.974 119.145 170.718H117.489C117.405 170.118 117.129 169.62 116.661 169.224C116.193 168.816 115.563 168.612 114.771 168.612C114.087 168.612 113.517 168.768 113.061 169.08C112.605 169.392 112.263 169.818 112.035 170.358C111.807 170.898 111.693 171.51 111.693 172.194C111.693 172.854 111.807 173.46 112.035 174.012C112.263 174.552 112.605 174.984 113.061 175.308C113.529 175.62 114.111 175.776 114.807 175.776C115.347 175.776 115.815 175.68 116.211 175.488C116.607 175.296 116.925 175.038 117.165 174.714C117.405 174.39 117.549 174.024 117.597 173.616H119.253C119.217 174.372 118.995 175.026 118.587 175.578C118.191 176.13 117.663 176.562 117.003 176.874C116.355 177.174 115.623 177.324 114.807 177.324Z" fill="white"/>
<path d="M125.723 177.324C124.895 177.324 124.175 177.18 123.563 176.892C122.963 176.604 122.465 176.22 122.069 175.74C121.673 175.248 121.373 174.708 121.169 174.12C120.977 173.532 120.881 172.944 120.881 172.356V172.032C120.881 171.42 120.977 170.82 121.169 170.232C121.373 169.644 121.673 169.116 122.069 168.648C122.477 168.168 122.981 167.784 123.581 167.496C124.181 167.208 124.883 167.064 125.687 167.064C126.491 167.064 127.211 167.214 127.847 167.514C128.495 167.814 129.011 168.24 129.395 168.792C129.791 169.332 130.013 169.974 130.061 170.718H128.405C128.321 170.118 128.045 169.62 127.577 169.224C127.109 168.816 126.479 168.612 125.687 168.612C125.003 168.612 124.433 168.768 123.977 169.08C123.521 169.392 123.179 169.818 122.951 170.358C122.723 170.898 122.609 171.51 122.609 172.194C122.609 172.854 122.723 173.46 122.951 174.012C123.179 174.552 123.521 174.984 123.977 175.308C124.445 175.62 125.027 175.776 125.723 175.776C126.263 175.776 126.731 175.68 127.127 175.488C127.523 175.296 127.841 175.038 128.081 174.714C128.321 174.39 128.465 174.024 128.513 173.616H130.169C130.133 174.372 129.911 175.026 129.503 175.578C129.107 176.13 128.579 176.562 127.919 176.874C127.271 177.174 126.539 177.324 125.723 177.324Z" fill="white"/>
<path d="M136.603 177.324C135.763 177.324 135.037 177.18 134.425 176.892C133.813 176.604 133.315 176.226 132.931 175.758C132.547 175.278 132.259 174.744 132.067 174.156C131.887 173.568 131.797 172.968 131.797 172.356V172.032C131.797 171.408 131.887 170.802 132.067 170.214C132.259 169.626 132.547 169.098 132.931 168.63C133.315 168.15 133.801 167.772 134.389 167.496C134.989 167.208 135.691 167.064 136.495 167.064C137.539 167.064 138.397 167.292 139.069 167.748C139.753 168.192 140.257 168.768 140.581 169.476C140.917 170.184 141.085 170.94 141.085 171.744V172.518H132.553V171.222H139.825L139.429 171.924C139.429 171.24 139.321 170.652 139.105 170.16C138.889 169.656 138.565 169.266 138.133 168.99C137.701 168.714 137.155 168.576 136.495 168.576C135.811 168.576 135.241 168.732 134.785 169.044C134.341 169.356 134.005 169.782 133.777 170.322C133.561 170.862 133.453 171.486 133.453 172.194C133.453 172.878 133.561 173.496 133.777 174.048C134.005 174.588 134.353 175.02 134.821 175.344C135.289 175.656 135.883 175.812 136.603 175.812C137.359 175.812 137.971 175.644 138.439 175.308C138.919 174.972 139.207 174.582 139.303 174.138H140.923C140.791 174.798 140.527 175.368 140.131 175.848C139.735 176.328 139.237 176.694 138.637 176.946C138.037 177.198 137.359 177.324 136.603 177.324Z" fill="white"/>
<path d="M146.689 177.288C145.429 177.288 144.451 177.018 143.755 176.478C143.071 175.938 142.717 175.2 142.693 174.264H144.313C144.337 174.636 144.523 174.99 144.871 175.326C145.231 175.65 145.837 175.812 146.689 175.812C147.457 175.812 148.045 175.662 148.453 175.362C148.861 175.05 149.065 174.672 149.065 174.228C149.065 173.832 148.915 173.526 148.615 173.31C148.315 173.082 147.829 172.932 147.157 172.86L146.113 172.752C145.201 172.656 144.457 172.386 143.881 171.942C143.305 171.486 143.017 170.85 143.017 170.034C143.017 169.422 143.173 168.9 143.485 168.468C143.797 168.024 144.229 167.688 144.781 167.46C145.333 167.22 145.969 167.1 146.689 167.1C147.769 167.1 148.645 167.34 149.317 167.82C149.989 168.3 150.337 169.014 150.361 169.962H148.741C148.729 169.578 148.549 169.254 148.201 168.99C147.865 168.714 147.361 168.576 146.689 168.576C146.017 168.576 145.507 168.714 145.159 168.99C144.811 169.266 144.637 169.614 144.637 170.034C144.637 170.394 144.757 170.682 144.997 170.898C145.249 171.114 145.657 171.252 146.221 171.312L147.265 171.42C148.297 171.528 149.125 171.816 149.749 172.284C150.373 172.74 150.685 173.388 150.685 174.228C150.685 174.828 150.511 175.362 150.163 175.83C149.827 176.286 149.359 176.646 148.759 176.91C148.159 177.162 147.469 177.288 146.689 177.288Z" fill="white"/>
<path d="M156.339 177.288C155.079 177.288 154.101 177.018 153.405 176.478C152.721 175.938 152.367 175.2 152.343 174.264H153.963C153.987 174.636 154.173 174.99 154.521 175.326C154.881 175.65 155.487 175.812 156.339 175.812C157.107 175.812 157.695 175.662 158.103 175.362C158.511 175.05 158.715 174.672 158.715 174.228C158.715 173.832 158.565 173.526 158.265 173.31C157.965 173.082 157.479 172.932 156.807 172.86L155.763 172.752C154.851 172.656 154.107 172.386 153.531 171.942C152.955 171.486 152.667 170.85 152.667 170.034C152.667 169.422 152.823 168.9 153.135 168.468C153.447 168.024 153.879 167.688 154.431 167.46C154.983 167.22 155.619 167.1 156.339 167.1C157.419 167.1 158.295 167.34 158.967 167.82C159.639 168.3 159.987 169.014 160.011 169.962H158.391C158.379 169.578 158.199 169.254 157.851 168.99C157.515 168.714 157.011 168.576 156.339 168.576C155.667 168.576 155.157 168.714 154.809 168.99C154.461 169.266 154.287 169.614 154.287 170.034C154.287 170.394 154.407 170.682 154.647 170.898C154.899 171.114 155.307 171.252 155.871 171.312L156.915 171.42C157.947 171.528 158.775 171.816 159.399 172.284C160.023 172.74 160.335 173.388 160.335 174.228C160.335 174.828 160.161 175.362 159.813 175.83C159.477 176.286 159.009 176.646 158.409 176.91C157.809 177.162 157.119 177.288 156.339 177.288Z" fill="white"/>
<path d="M167.268 177.324C166.428 177.324 165.69 177.18 165.054 176.892C164.418 176.604 163.878 176.226 163.434 175.758C163.002 175.278 162.672 174.744 162.444 174.156C162.228 173.568 162.12 172.968 162.12 172.356V172.032C162.12 171.42 162.234 170.82 162.462 170.232C162.69 169.632 163.026 169.098 163.47 168.63C163.914 168.15 164.454 167.772 165.09 167.496C165.726 167.208 166.452 167.064 167.268 167.064C168.084 167.064 168.81 167.208 169.446 167.496C170.082 167.772 170.622 168.15 171.066 168.63C171.51 169.098 171.846 169.632 172.074 170.232C172.302 170.82 172.416 171.42 172.416 172.032V172.356C172.416 172.968 172.302 173.568 172.074 174.156C171.858 174.744 171.528 175.278 171.084 175.758C170.652 176.226 170.118 176.604 169.482 176.892C168.846 177.18 168.108 177.324 167.268 177.324ZM167.268 175.776C167.988 175.776 168.6 175.62 169.104 175.308C169.62 174.984 170.01 174.552 170.274 174.012C170.55 173.472 170.688 172.866 170.688 172.194C170.688 171.51 170.55 170.898 170.274 170.358C169.998 169.818 169.602 169.392 169.086 169.08C168.582 168.768 167.976 168.612 167.268 168.612C166.572 168.612 165.966 168.768 165.45 169.08C164.934 169.392 164.538 169.818 164.262 170.358C163.986 170.898 163.848 171.51 163.848 172.194C163.848 172.866 163.98 173.472 164.244 174.012C164.52 174.552 164.91 174.984 165.414 175.308C165.93 175.62 166.548 175.776 167.268 175.776Z" fill="white"/>
<path d="M175.004 177V167.388H176.372V171.348H176.3C176.3 169.944 176.606 168.918 177.218 168.27C177.842 167.61 178.772 167.28 180.008 167.28H180.332V168.828H179.72C178.76 168.828 178.022 169.086 177.506 169.602C176.99 170.106 176.732 170.838 176.732 171.798V177H175.004Z" fill="white"/>
<path d="M182.854 177V167.388H184.582V177H182.854ZM181.378 168.756V167.388H184.582V168.756H181.378ZM183.34 165.84C182.956 165.84 182.668 165.738 182.476 165.534C182.296 165.33 182.206 165.072 182.206 164.76C182.206 164.448 182.296 164.19 182.476 163.986C182.668 163.782 182.956 163.68 183.34 163.68C183.724 163.68 184.006 163.782 184.186 163.986C184.378 164.19 184.474 164.448 184.474 164.76C184.474 165.072 184.378 165.33 184.186 165.534C184.006 165.738 183.724 165.84 183.34 165.84Z" fill="white"/>
<path d="M192.01 177.324C191.17 177.324 190.444 177.18 189.832 176.892C189.22 176.604 188.722 176.226 188.338 175.758C187.954 175.278 187.666 174.744 187.474 174.156C187.294 173.568 187.204 172.968 187.204 172.356V172.032C187.204 171.408 187.294 170.802 187.474 170.214C187.666 169.626 187.954 169.098 188.338 168.63C188.722 168.15 189.208 167.772 189.796 167.496C190.396 167.208 191.098 167.064 191.902 167.064C192.946 167.064 193.804 167.292 194.476 167.748C195.16 168.192 195.664 168.768 195.988 169.476C196.324 170.184 196.492 170.94 196.492 171.744V172.518H187.96V171.222H195.232L194.836 171.924C194.836 171.24 194.728 170.652 194.512 170.16C194.296 169.656 193.972 169.266 193.54 168.99C193.108 168.714 192.562 168.576 191.902 168.576C191.218 168.576 190.648 168.732 190.192 169.044C189.748 169.356 189.412 169.782 189.184 170.322C188.968 170.862 188.86 171.486 188.86 172.194C188.86 172.878 188.968 173.496 189.184 174.048C189.412 174.588 189.76 175.02 190.228 175.344C190.696 175.656 191.29 175.812 192.01 175.812C192.766 175.812 193.378 175.644 193.846 175.308C194.326 174.972 194.614 174.582 194.71 174.138H196.33C196.198 174.798 195.934 175.368 195.538 175.848C195.142 176.328 194.644 176.694 194.044 176.946C193.444 177.198 192.766 177.324 192.01 177.324Z" fill="white"/>
<path d="M202.095 177.288C200.835 177.288 199.857 177.018 199.161 176.478C198.477 175.938 198.123 175.2 198.099 174.264H199.719C199.743 174.636 199.929 174.99 200.277 175.326C200.637 175.65 201.243 175.812 202.095 175.812C202.863 175.812 203.451 175.662 203.859 175.362C204.267 175.05 204.471 174.672 204.471 174.228C204.471 173.832 204.321 173.526 204.021 173.31C203.721 173.082 203.235 172.932 202.563 172.86L201.519 172.752C200.607 172.656 199.863 172.386 199.287 171.942C198.711 171.486 198.423 170.85 198.423 170.034C198.423 169.422 198.579 168.9 198.891 168.468C199.203 168.024 199.635 167.688 200.187 167.46C200.739 167.22 201.375 167.1 202.095 167.1C203.175 167.1 204.051 167.34 204.723 167.82C205.395 168.3 205.743 169.014 205.767 169.962H204.147C204.135 169.578 203.955 169.254 203.607 168.99C203.271 168.714 202.767 168.576 202.095 168.576C201.423 168.576 200.913 168.714 200.565 168.99C200.217 169.266 200.043 169.614 200.043 170.034C200.043 170.394 200.163 170.682 200.403 170.898C200.655 171.114 201.063 171.252 201.627 171.312L202.671 171.42C203.703 171.528 204.531 171.816 205.155 172.284C205.779 172.74 206.091 173.388 206.091 174.228C206.091 174.828 205.917 175.362 205.569 175.83C205.233 176.286 204.765 176.646 204.165 176.91C203.565 177.162 202.875 177.288 202.095 177.288Z" fill="white"/>
</svg>
