<svg width="260" height="260" viewBox="0 0 260 260" fill="none" xmlns="http://www.w3.org/2000/svg">
<path d="M0 0H260V260H0V0Z" fill="#172673"/>
<path d="M57.3841 138.456C55.8001 138.456 54.4401 138.176 53.3041 137.616C52.1681 137.056 51.2401 136.328 50.5201 135.432C49.8161 134.536 49.2961 133.56 48.9601 132.504C48.6241 131.448 48.4561 130.432 48.4561 129.456V128.928C48.4561 127.84 48.6241 126.768 48.9601 125.712C49.3121 124.656 49.8481 123.696 50.5681 122.832C51.2881 121.968 52.2001 121.28 53.3041 120.768C54.4241 120.24 55.7441 119.976 57.2641 119.976C58.8481 119.976 60.2241 120.264 61.3921 120.84C62.5761 121.4 63.5201 122.2 64.2241 123.24C64.9281 124.264 65.3521 125.464 65.4961 126.84H62.0641C61.9361 126.04 61.6481 125.368 61.2001 124.824C60.7681 124.264 60.2161 123.848 59.5441 123.576C58.8721 123.288 58.1121 123.144 57.2641 123.144C56.4001 123.144 55.6321 123.296 54.9601 123.6C54.2881 123.888 53.7281 124.304 53.2801 124.848C52.8321 125.392 52.4881 126.032 52.2481 126.768C52.0241 127.504 51.9121 128.32 51.9121 129.216C51.9121 130.08 52.0241 130.88 52.2481 131.616C52.4881 132.352 52.8401 133 53.3041 133.56C53.7681 134.104 54.3361 134.528 55.0081 134.832C55.6961 135.136 56.4881 135.288 57.3841 135.288C58.6961 135.288 59.8001 134.968 60.6961 134.328C61.6081 133.672 62.1601 132.76 62.3521 131.592H65.7841C65.6241 132.84 65.2001 133.984 64.5121 135.024C63.8241 136.064 62.8801 136.896 61.6801 137.52C60.4801 138.144 59.0481 138.456 57.3841 138.456Z" fill="white"/>
<path d="M76.292 138V134.136H75.74V129.84C75.74 129.088 75.556 128.528 75.188 128.16C74.82 127.792 74.252 127.608 73.484 127.608C73.084 127.608 72.604 127.616 72.044 127.632C71.484 127.648 70.916 127.672 70.34 127.704C69.78 127.72 69.276 127.744 68.828 127.776V124.944C69.196 124.912 69.612 124.88 70.076 124.848C70.54 124.816 71.012 124.8 71.492 124.8C71.988 124.784 72.452 124.776 72.884 124.776C74.228 124.776 75.34 124.952 76.22 125.304C77.116 125.656 77.788 126.208 78.236 126.96C78.7 127.712 78.932 128.696 78.932 129.912V138H76.292ZM72.092 138.336C71.148 138.336 70.316 138.168 69.596 137.832C68.892 137.496 68.34 137.016 67.94 136.392C67.556 135.768 67.364 135.016 67.364 134.136C67.364 133.176 67.596 132.392 68.06 131.784C68.54 131.176 69.204 130.72 70.052 130.416C70.916 130.112 71.924 129.96 73.076 129.96H76.1V131.952H73.028C72.26 131.952 71.668 132.144 71.252 132.528C70.852 132.896 70.652 133.376 70.652 133.968C70.652 134.56 70.852 135.04 71.252 135.408C71.668 135.776 72.26 135.96 73.028 135.96C73.492 135.96 73.916 135.88 74.3 135.72C74.7 135.544 75.028 135.256 75.284 134.856C75.556 134.44 75.708 133.88 75.74 133.176L76.556 134.112C76.476 135.024 76.252 135.792 75.884 136.416C75.532 137.04 75.036 137.52 74.396 137.856C73.772 138.176 73.004 138.336 72.092 138.336Z" fill="white"/>
<path d="M90.1614 138.432C89.0894 138.432 88.1454 138.208 87.3294 137.76C86.5134 137.296 85.8734 136.624 85.4094 135.744C84.9454 134.864 84.6894 133.8 84.6414 132.552H85.1454V138H82.5054V120.48H85.8414V129.24L84.9534 130.608C85.0174 129.264 85.2814 128.144 85.7454 127.248C86.2254 126.352 86.8654 125.68 87.6654 125.232C88.4654 124.784 89.3694 124.56 90.3774 124.56C91.2734 124.56 92.0894 124.728 92.8254 125.064C93.5614 125.4 94.1934 125.872 94.7214 126.48C95.2494 127.072 95.6494 127.768 95.9214 128.568C96.2094 129.368 96.3534 130.24 96.3534 131.184V131.688C96.3534 132.632 96.2094 133.512 95.9214 134.328C95.6334 135.144 95.2174 135.864 94.6734 136.488C94.1294 137.096 93.4734 137.576 92.7054 137.928C91.9534 138.264 91.1054 138.432 90.1614 138.432ZM89.4174 135.624C90.1374 135.624 90.7614 135.448 91.2894 135.096C91.8334 134.728 92.2574 134.232 92.5614 133.608C92.8654 132.984 93.0174 132.264 93.0174 131.448C93.0174 130.616 92.8654 129.896 92.5614 129.288C92.2574 128.68 91.8334 128.208 91.2894 127.872C90.7614 127.536 90.1374 127.368 89.4174 127.368C88.7614 127.368 88.1534 127.512 87.5934 127.8C87.0494 128.088 86.6014 128.512 86.2494 129.072C85.9134 129.632 85.7454 130.304 85.7454 131.088V132.048C85.7454 132.8 85.9214 133.44 86.2734 133.968C86.6254 134.496 87.0814 134.904 87.6414 135.192C88.2014 135.48 88.7934 135.624 89.4174 135.624Z" fill="white"/>
<path d="M99.4546 138V120.48H102.791V138H99.4546ZM97.8226 122.976V120.48H102.791V122.976H97.8226Z" fill="white"/>
<path d="M112.431 138.456C111.311 138.456 110.327 138.264 109.479 137.88C108.647 137.496 107.951 136.984 107.391 136.344C106.847 135.688 106.431 134.96 106.143 134.16C105.871 133.36 105.735 132.544 105.735 131.712V131.256C105.735 130.392 105.871 129.56 106.143 128.76C106.431 127.944 106.847 127.224 107.391 126.6C107.951 125.96 108.639 125.456 109.455 125.088C110.271 124.704 111.215 124.512 112.287 124.512C113.695 124.512 114.871 124.824 115.815 125.448C116.775 126.056 117.495 126.864 117.975 127.872C118.455 128.864 118.695 129.936 118.695 131.088V132.288H107.151V130.248H116.607L115.575 131.256C115.575 130.424 115.455 129.712 115.215 129.12C114.975 128.528 114.607 128.072 114.111 127.752C113.631 127.432 113.023 127.272 112.287 127.272C111.551 127.272 110.927 127.44 110.415 127.776C109.903 128.112 109.511 128.6 109.239 129.24C108.983 129.864 108.855 130.616 108.855 131.496C108.855 132.312 108.983 133.04 109.239 133.68C109.495 134.304 109.887 134.8 110.415 135.168C110.943 135.52 111.615 135.696 112.431 135.696C113.247 135.696 113.911 135.536 114.423 135.216C114.935 134.88 115.263 134.472 115.407 133.992H118.479C118.287 134.888 117.919 135.672 117.375 136.344C116.831 137.016 116.135 137.536 115.287 137.904C114.455 138.272 113.503 138.456 112.431 138.456Z" fill="white"/>
<path d="M135.086 138.456C133.582 138.456 132.254 138.208 131.102 137.712C129.966 137.2 129.006 136.52 128.222 135.672C127.454 134.808 126.87 133.84 126.47 132.768C126.086 131.68 125.894 130.552 125.894 129.384V128.856C125.894 127.752 126.086 126.672 126.47 125.616C126.854 124.56 127.414 123.608 128.15 122.76C128.902 121.912 129.822 121.24 130.91 120.744C132.014 120.232 133.278 119.976 134.702 119.976C136.238 119.976 137.598 120.264 138.782 120.84C139.966 121.4 140.918 122.192 141.638 123.216C142.358 124.224 142.782 125.4 142.91 126.744H139.478C139.366 125.992 139.086 125.352 138.638 124.824C138.19 124.28 137.622 123.864 136.934 123.576C136.262 123.288 135.518 123.144 134.702 123.144C133.886 123.144 133.142 123.288 132.47 123.576C131.814 123.864 131.254 124.272 130.79 124.8C130.326 125.328 129.966 125.96 129.71 126.696C129.47 127.432 129.35 128.248 129.35 129.144C129.35 130.12 129.486 130.992 129.758 131.76C130.03 132.528 130.414 133.184 130.91 133.728C131.406 134.256 132.006 134.664 132.71 134.952C133.414 135.224 134.206 135.36 135.086 135.36C136.254 135.36 137.278 135.12 138.158 134.64C139.038 134.144 139.678 133.504 140.078 132.72L139.478 135.48V130.968H142.622V134.856C141.87 135.992 140.846 136.88 139.55 137.52C138.254 138.144 136.766 138.456 135.086 138.456ZM134.534 131.64V129.096H144.086V131.64H134.534Z" fill="white"/>
<path d="M146.798 138V120.48H150.134V138H146.798ZM145.166 122.976V120.48H150.134V122.976H145.166Z" fill="white"/>
<path d="M161.839 138V134.136H161.287V129.84C161.287 129.088 161.103 128.528 160.735 128.16C160.367 127.792 159.799 127.608 159.031 127.608C158.631 127.608 158.151 127.616 157.591 127.632C157.031 127.648 156.463 127.672 155.887 127.704C155.327 127.72 154.823 127.744 154.375 127.776V124.944C154.743 124.912 155.159 124.88 155.623 124.848C156.087 124.816 156.559 124.8 157.039 124.8C157.535 124.784 157.999 124.776 158.431 124.776C159.775 124.776 160.887 124.952 161.767 125.304C162.663 125.656 163.335 126.208 163.783 126.96C164.247 127.712 164.479 128.696 164.479 129.912V138H161.839ZM157.639 138.336C156.695 138.336 155.863 138.168 155.143 137.832C154.439 137.496 153.887 137.016 153.487 136.392C153.103 135.768 152.911 135.016 152.911 134.136C152.911 133.176 153.143 132.392 153.607 131.784C154.087 131.176 154.751 130.72 155.599 130.416C156.463 130.112 157.471 129.96 158.623 129.96H161.647V131.952H158.575C157.807 131.952 157.215 132.144 156.799 132.528C156.399 132.896 156.199 133.376 156.199 133.968C156.199 134.56 156.399 135.04 156.799 135.408C157.215 135.776 157.807 135.96 158.575 135.96C159.039 135.96 159.463 135.88 159.847 135.72C160.247 135.544 160.575 135.256 160.831 134.856C161.103 134.44 161.255 133.88 161.287 133.176L162.103 134.112C162.023 135.024 161.799 135.792 161.431 136.416C161.079 137.04 160.583 137.52 159.943 137.856C159.319 138.176 158.551 138.336 157.639 138.336Z" fill="white"/>
<path d="M168.052 138V124.968H170.692V130.56H170.452C170.452 129.232 170.628 128.128 170.98 127.248C171.332 126.352 171.852 125.68 172.54 125.232C173.244 124.784 174.116 124.56 175.156 124.56H175.3C176.852 124.56 178.028 125.064 178.828 126.072C179.628 127.064 180.028 128.552 180.028 130.536V138H176.692V130.248C176.692 129.448 176.46 128.8 175.996 128.304C175.548 127.808 174.924 127.56 174.124 127.56C173.308 127.56 172.644 127.816 172.132 128.328C171.636 128.824 171.388 129.496 171.388 130.344V138H168.052Z" fill="white"/>
<path d="M189.015 138.432C188.103 138.432 187.263 138.264 186.495 137.928C185.727 137.592 185.063 137.12 184.503 136.512C183.943 135.904 183.511 135.2 183.207 134.4C182.903 133.584 182.751 132.704 182.751 131.76V131.256C182.751 130.328 182.895 129.456 183.183 128.64C183.487 127.824 183.903 127.112 184.431 126.504C184.975 125.896 185.623 125.424 186.375 125.088C187.143 124.736 187.991 124.56 188.919 124.56C189.943 124.56 190.839 124.784 191.607 125.232C192.391 125.664 193.015 126.32 193.479 127.2C193.943 128.08 194.199 129.184 194.247 130.512L193.263 129.36V120.48H196.599V138H193.959V132.456H194.535C194.487 133.784 194.215 134.896 193.719 135.792C193.223 136.672 192.567 137.336 191.751 137.784C190.951 138.216 190.039 138.432 189.015 138.432ZM189.759 135.624C190.415 135.624 191.015 135.48 191.559 135.192C192.103 134.888 192.535 134.456 192.855 133.896C193.191 133.32 193.359 132.648 193.359 131.88V130.92C193.359 130.152 193.191 129.512 192.855 129C192.519 128.472 192.079 128.072 191.535 127.8C190.991 127.512 190.399 127.368 189.759 127.368C189.039 127.368 188.399 127.544 187.839 127.896C187.295 128.232 186.863 128.712 186.543 129.336C186.239 129.96 186.087 130.688 186.087 131.52C186.087 132.352 186.247 133.08 186.567 133.704C186.887 134.312 187.319 134.784 187.863 135.12C188.423 135.456 189.055 135.624 189.759 135.624Z" fill="white"/>
<path d="M205.124 138.408C203.332 138.408 201.924 138.032 200.9 137.28C199.892 136.512 199.364 135.456 199.316 134.112H202.316C202.364 134.56 202.612 134.968 203.06 135.336C203.508 135.704 204.212 135.888 205.172 135.888C205.972 135.888 206.604 135.744 207.068 135.456C207.548 135.168 207.788 134.776 207.788 134.28C207.788 133.848 207.604 133.504 207.236 133.248C206.884 132.992 206.276 132.824 205.412 132.744L204.26 132.624C202.804 132.464 201.684 132.048 200.9 131.376C200.116 130.704 199.724 129.808 199.724 128.688C199.724 127.792 199.948 127.04 200.396 126.432C200.844 125.824 201.46 125.368 202.244 125.064C203.044 124.744 203.956 124.584 204.98 124.584C206.58 124.584 207.876 124.936 208.868 125.64C209.86 126.344 210.38 127.376 210.428 128.736H207.428C207.396 128.288 207.172 127.904 206.756 127.584C206.34 127.264 205.74 127.104 204.956 127.104C204.252 127.104 203.708 127.24 203.324 127.512C202.94 127.784 202.748 128.136 202.748 128.568C202.748 128.984 202.9 129.304 203.204 129.528C203.524 129.752 204.036 129.904 204.74 129.984L205.892 130.104C207.428 130.264 208.628 130.688 209.492 131.376C210.372 132.064 210.812 132.992 210.812 134.16C210.812 135.024 210.572 135.776 210.092 136.416C209.628 137.04 208.972 137.528 208.124 137.88C207.276 138.232 206.276 138.408 205.124 138.408Z" fill="white"/>
</svg>
