<svg width="260" height="260" viewBox="0 0 260 260" fill="none" xmlns="http://www.w3.org/2000/svg">
<path d="M0 0H260V260H0V0Z" fill="#172673"/>
<path fill-rule="evenodd" clip-rule="evenodd" d="M174.854 104.272C175.447 104.388 175.995 104.787 176.438 105.096C176.937 105.445 177.302 105.842 177.643 106.36C178.521 107.695 178.514 108.372 178.632 110.269C179.287 109.445 179.754 108.552 179.898 107.438C180.143 105.561 179.985 103.722 178.989 102.266C178.543 101.612 178.06 101.122 177.426 100.664C177.22 100.515 177 100.386 176.774 100.261C174.947 99.2518 174.056 99.2873 171.917 98.8594C170.773 98.6304 169.581 98.408 168.389 98.1683L161.492 96.7022C160.541 96.4089 159.077 95.4764 158.811 94.7279C158.402 94.4222 158.101 93.5792 157.932 93.0197C157.824 92.6628 157.749 92.284 157.727 91.8446C157.712 91.5339 157.775 90.9319 157.694 90.6868C157.122 90.9001 156.485 93.0296 156.406 93.5103C156.11 95.3064 156.312 97.2205 157.313 98.6952C157.472 98.9308 157.601 99.0781 157.78 99.2827C157.977 99.508 158.054 99.6231 158.274 99.8439C159.884 101.454 162.224 101.66 164.393 102.093L174.067 104.022C174.489 104.125 174.638 104.251 174.854 104.272Z" fill="#FDFDFD"/>
<path fill-rule="evenodd" clip-rule="evenodd" d="M86.0362 112.925L88.8003 112.965C88.6431 112.611 87.8963 112.654 87.2675 112.211L87.0641 112C86.7373 111.999 86.0713 111.256 85.8039 110.991C85.3868 110.578 84.8195 109.204 84.6787 108.491C84.524 107.705 84.3532 103.345 84.6301 102.901L84.6119 102.815C84.654 102.412 84.878 101.592 85.0249 101.31C85.157 101.057 85.5531 100.303 85.7156 100.276C85.8675 99.857 86.4633 99.1696 86.8804 99.0603C87.0117 98.7826 87.4643 98.672 87.7098 98.5709C87.9293 98.4806 88.4583 98.33 88.5899 98.3848C87.7346 98.3007 86.9671 98.2899 86.1064 98.3155C85.6183 98.3139 85.3418 98.3853 84.9523 98.3853C84.3887 98.9225 84.5182 97.9429 84.5195 97.612C84.5248 95.6364 84.3251 92.9681 85.1714 91.2487C85.3864 90.8109 85.9731 89.8792 86.3626 89.6989C86.5339 89.401 87.2324 88.9344 87.5889 88.7726C88.1987 88.4958 88.7525 88.3951 89.0995 88.1888C85.8233 88.1888 83.7359 88.0056 81.5173 90.492C81.2392 90.8035 80.7614 91.5912 80.5902 92.0261C79.7394 94.1882 80.0587 96.5974 80.0587 99.0186C80.0587 100.66 80.0587 102.301 80.0587 103.941C80.0587 106.867 79.8021 109.548 82.4081 111.578C83.1405 112.148 84.7101 113.045 86.0362 112.925Z" fill="#FDFDFD"/>
<path fill-rule="evenodd" clip-rule="evenodd" d="M110.368 112.858L113.529 112.878C112.683 112.481 112.364 112.66 111.202 111.753C110.92 111.534 110.738 111.453 110.585 111.114C109.653 110.084 109.139 108.682 109.09 106.894C109.185 105.455 109.102 103.724 109.102 102.253C109.102 100.354 109.213 88.4396 109.032 88.2585C108.857 88.0831 104.818 88.1962 104.776 88.2222C104.615 88.3229 104.681 88.3311 104.645 88.5828C104.526 89.3957 104.601 103.487 104.601 105.488C104.601 107.461 104.839 109.199 106.028 110.601C106.984 111.728 108.828 112.965 110.368 112.858Z" fill="#FEFEFE"/>
<path fill-rule="evenodd" clip-rule="evenodd" d="M132.941 112.859L135.921 112.881C135.712 112.669 135.404 112.75 135.235 112.491C134.83 112.523 133.793 111.889 133.552 111.502C133.455 111.465 133.467 111.483 133.336 111.358C132.15 110.227 131.811 108.792 131.656 107.175L131.68 88.6753C131.656 87.98 131.204 88.1876 130.48 88.1876C129.918 88.188 129.356 88.1876 128.793 88.1876C126.717 88.1876 127.176 87.5105 127.176 91.6337C127.176 96.1341 127.176 100.635 127.176 105.136C127.176 107.029 127.093 107.921 127.879 109.496C128.437 110.615 129.252 111.464 130.342 112.095C130.913 112.426 132.022 112.922 132.941 112.859Z" fill="#FDFDFD"/>
<path fill-rule="evenodd" clip-rule="evenodd" d="M149.65 112.801C149.892 113.043 149.956 112.943 150.663 112.941C151.284 112.941 153.802 113.038 153.968 112.871C154.13 112.709 154.049 100.846 154.037 98.8062C154.035 98.3325 154.106 98.1678 154.111 97.7548L154.038 95.6707L153.959 95.4904C153.804 95.0163 153.928 95.143 153.569 94.222C153.364 93.6968 152.975 93.1443 152.983 92.9974C152.74 92.8699 152.944 93.0065 152.761 92.8414C152.729 92.8125 152.651 92.7181 152.623 92.6805C152.493 92.508 152.496 92.5873 152.49 92.4218C152.167 92.2951 151.591 91.6824 151.228 91.4278C150.841 91.1555 150.125 90.7928 149.64 90.7383L149.65 112.801Z" fill="#FEFEFE"/>
<path fill-rule="evenodd" clip-rule="evenodd" d="M165.004 112.871C164.997 112.611 165.453 112.653 165.848 112.649L165.41 112.529C165.694 112.338 165.74 112.399 165.912 112.321C165.58 112.315 165.165 112.34 164.939 112.238C164.954 112.228 164.982 112.204 164.991 112.22C165.001 112.237 165.032 112.207 165.045 112.204C165.576 112.067 165.428 112.299 165.428 110.902L165.423 109.49C165.444 109.214 165.421 109.28 165.569 109.147C165.302 109.125 165.288 109.076 164.938 109.074L165.291 108.933C165.471 108.855 165.351 108.915 165.428 108.862C165.194 108.525 164.002 108.63 163.322 108.618L161.563 108.595C161.495 108.595 161.337 108.597 161.279 108.592L160.959 108.511C160.201 108.511 156.811 108.399 156.43 108.581C156.197 109.067 156.197 112.315 156.43 112.801C156.856 113.005 163.859 112.871 165.004 112.871Z" fill="#F5F4F4"/>
<path fill-rule="evenodd" clip-rule="evenodd" d="M102.211 112.889C102.422 112.601 102.353 112.413 102.351 111.957C102.35 111.606 102.351 111.254 102.351 110.902C102.351 110.206 102.404 109.362 102.281 108.779C101.655 108.667 97.5769 108.784 96.722 108.828L96.7385 112.156C96.6481 112.34 95.9817 112.226 95.7713 112.29C95.9454 112.407 96.1278 112.369 96.4137 112.404L97.1028 112.495C97.1152 112.499 97.1379 112.506 97.154 112.515L95.5493 112.625C96.3246 112.747 95.5093 112.75 95.9722 112.812C96.781 112.92 101.767 112.941 102.211 112.889Z" fill="#F9F7F8"/>
<path fill-rule="evenodd" clip-rule="evenodd" d="M102.281 92.36C102.429 92.3356 102.297 92.4351 102.337 92.2432L102.351 89.3128C102.353 88.7607 102.434 88.587 102.211 88.3271C101.537 88.2198 97.6964 88.3642 96.7474 88.3985L96.7387 92.3463C97.559 92.4128 101.777 92.5968 102.281 92.36Z" fill="#F9F7F8"/>
<path fill-rule="evenodd" clip-rule="evenodd" d="M95.7446 102.575L100.663 102.608C101.234 102.594 101.288 102.594 101.352 102.098L101.366 98.3845C101.265 98.3276 101.295 98.3478 101.156 98.3267L96.1572 98.3618V102.182L95.75 102.322C96.083 102.52 96.3689 102.266 96.7134 102.521L95.7446 102.575Z" fill="#F8F8F8"/>
<path fill-rule="evenodd" clip-rule="evenodd" d="M178.862 92.3657C179.103 91.8883 179.024 89.6792 179.005 88.8886C178.984 87.9986 178.832 88.1303 178.581 88.1001L174.749 88.0973L174.745 88.3642C174.122 88.3593 174.269 88.6209 174.269 90.2276C174.269 90.9121 174.266 91.5979 174.271 92.2828L178.862 92.3657Z" fill="#FBFBFB"/>
<path fill-rule="evenodd" clip-rule="evenodd" d="M165.004 112.871L169.894 112.871C169.811 112.824 169.883 112.839 169.826 112.731C169.951 112.638 169.658 112.646 170.111 112.621C169.739 112.421 169.731 112.696 169.43 112.238L169.84 112.098V109.144C169.952 109.052 169.726 109.092 170.051 109.053L169.886 108.885C169.875 108.875 169.851 108.857 169.835 108.841C170.076 108.819 169.975 108.856 170.121 108.753L166.876 108.512L160.959 108.511L161.279 108.592C161.337 108.597 161.495 108.595 161.563 108.595L163.322 108.618C164.002 108.63 165.194 108.525 165.428 108.862C165.351 108.915 165.471 108.855 165.291 108.933L164.938 109.074C165.288 109.076 165.302 109.125 165.569 109.147C165.421 109.28 165.444 109.214 165.423 109.49L165.428 110.902C165.428 112.299 165.576 112.067 165.045 112.204C165.032 112.207 165.001 112.237 164.991 112.22C164.982 112.204 164.954 112.228 164.939 112.238C165.165 112.34 165.58 112.315 165.912 112.321C165.74 112.399 165.694 112.338 165.41 112.529L165.848 112.649C165.453 112.653 164.997 112.611 165.004 112.871Z" fill="#D5D3D4"/>
<path fill-rule="evenodd" clip-rule="evenodd" d="M172.854 92.3389L178.3 92.3793L178.862 92.3657L174.271 92.2828C174.266 91.5979 174.269 90.9121 174.269 90.2276C174.269 88.6209 174.122 88.3593 174.745 88.3642L174.749 88.0973L169.72 88.1872C169.591 88.0374 170.237 88.2615 169.66 88.339C169.9 88.4715 169.843 88.3106 169.874 88.6716L169.868 92.2626L172.854 92.3389Z" fill="#ECEAEB"/>
<path fill-rule="evenodd" clip-rule="evenodd" d="M120.462 112.886L124.643 112.881C124.999 112.709 124.854 111.454 124.854 110.761L124.856 109.071C124.83 108.673 124.78 108.701 124.643 108.678L120.466 108.702L120.462 112.886Z" fill="#F9F7F8"/>
<path fill-rule="evenodd" clip-rule="evenodd" d="M175.206 107.562C175.705 107.855 175.658 108.029 175.606 108.393C175.526 108.954 175.625 111.441 175.568 112.388L175.362 112.519C175.848 112.474 176.852 111.884 177.195 111.626C177.448 111.436 177.714 111.239 177.932 111.026C178.214 110.75 178.326 110.538 178.632 110.269C178.514 108.372 178.521 107.695 177.643 106.36C177.302 105.842 176.937 105.445 176.438 105.096C175.995 104.787 175.447 104.388 174.854 104.272C174.866 104.285 174.887 104.285 174.893 104.309C174.931 104.454 175.495 104.529 175.489 105.766C175.485 106.48 175.492 107.136 175.206 107.562Z" fill="#857E80"/>
<path fill-rule="evenodd" clip-rule="evenodd" d="M142.778 112.876L147.076 112.888C147.514 112.733 147.357 111.843 147.357 110.972C147.357 110.222 147.357 109.472 147.357 108.722C147.138 108.598 147.291 108.685 147.147 108.722L143.176 108.704C143.093 109.246 143.201 111.503 143.192 112.379C143.037 112.469 143.08 112.438 142.848 112.441L142.855 112.591C143.098 112.611 143.052 112.596 143.196 112.731L142.778 112.876Z" fill="#FBF9F9"/>
<path fill-rule="evenodd" clip-rule="evenodd" d="M158.89 89.5021C159.17 89.5855 159.055 89.595 158.992 89.8817L158.996 90.1867C158.92 90.7004 158.993 91.2384 158.991 91.7769C158.989 92.3405 159.159 93.0304 158.985 93.4785C158.979 93.4946 158.97 93.5119 158.963 93.528C158.956 93.5433 158.947 93.561 158.941 93.5759L158.771 94.0079C158.947 93.8593 158.826 93.8544 159.06 93.7809C159.051 94.425 158.94 93.8688 158.919 94.3767C159.126 94.4943 158.707 94.3656 159.012 94.3631C159.059 94.3627 159.029 94.3281 159.133 94.3767C159.098 94.567 159.071 94.5975 159.065 94.8418L158.811 94.7279C159.077 95.4764 160.541 96.4089 161.492 96.7022C161.34 96.4844 161.357 96.616 161.167 96.3891C161.07 96.2723 160.964 96.0912 160.915 95.9385C160.8 95.5803 160.646 93.75 161.402 93.0226C161.474 92.9541 161.516 92.9219 161.583 92.8526L161.773 92.619C161.609 92.6793 161.473 92.7969 161.395 92.6009C161.317 92.404 161.351 92.5493 161.566 92.4078L161.473 92.2877C161.467 92.2737 161.457 92.2551 161.452 92.239L161.428 90.3686C161.428 89.8558 161.539 88.6881 161.289 88.3291C160.662 88.3786 159.211 89.1576 158.89 89.5021Z" fill="#8D8788"/>
<path fill-rule="evenodd" clip-rule="evenodd" d="M139.78 108.652C139.846 108.788 139.815 108.675 139.797 108.84L139.765 112.283C139.751 112.418 139.652 112.184 139.76 112.371C139.828 112.49 140.072 112.455 140.252 112.459C140.127 112.522 140.033 112.525 139.901 112.588C140.209 112.783 140.107 112.617 140.185 112.801L140.041 112.847L142.778 112.876L143.196 112.731C143.052 112.596 143.098 112.611 142.855 112.591L142.848 112.441C143.08 112.438 143.037 112.469 143.192 112.379C143.201 111.503 143.093 109.246 143.176 108.704L147.147 108.722C147.052 108.496 147.136 108.576 146.303 108.581C144.937 108.591 140.437 108.478 139.78 108.652Z" fill="#E7E5E5"/>
<path fill-rule="evenodd" clip-rule="evenodd" d="M166.884 92.4074L176.893 92.4775C177.211 92.4775 178.077 92.577 178.3 92.3793L172.854 92.3389C171.59 92.3307 168.621 92.4866 167.586 92.2663L167.586 88.5391C167.71 88.2223 167.521 88.4612 167.864 88.3279L167.854 88.0696C167.389 87.9966 166.575 88.0844 166.063 88.1018C164.156 88.1665 165.302 88.2982 164.439 88.3262L164.583 92.3063L166.884 92.4074Z" fill="#C5C2C2"/>
<path fill-rule="evenodd" clip-rule="evenodd" d="M101.999 112.988L102.211 112.889C101.767 112.941 96.781 112.92 95.9722 112.812C95.5093 112.75 96.3246 112.747 95.5493 112.625L97.154 112.515C97.1379 112.506 97.1152 112.499 97.1028 112.495L96.4137 112.404C96.1278 112.369 95.9454 112.407 95.7713 112.29C95.9817 112.226 96.6481 112.34 96.7385 112.156L96.722 108.828C97.5769 108.784 101.655 108.667 102.281 108.779L102.14 108.694L94.5727 108.753L93.0758 108.88L93.4252 109.005C93.2528 109.286 93.3584 109.291 93.3568 109.987C93.3559 110.386 93.3563 110.784 93.3568 111.183L93.3477 112.031C93.3448 112.053 93.3402 112.072 93.3365 112.092C93.3332 112.11 93.3258 112.13 93.3225 112.146C93.3196 112.16 93.3105 112.18 93.3085 112.193C93.3064 112.203 93.2986 112.223 93.2969 112.232L93.3394 112.386C93.3811 112.48 93.3568 112.383 93.3988 112.547L93.4484 112.755C93.523 112.945 93.3064 112.627 93.49 112.839L101.999 112.988Z" fill="#E2DFE1"/>
<path fill-rule="evenodd" clip-rule="evenodd" d="M161.29 88.3283C161.54 88.6873 161.429 89.855 161.429 90.3679L161.452 92.2382C161.458 92.2543 161.467 92.2725 161.474 92.2869L161.567 92.407C161.352 92.5485 161.318 92.4033 161.396 92.6001C161.473 92.7961 161.61 92.6785 161.774 92.6183C161.941 92.6286 162.313 92.4495 162.832 92.4103L166.884 92.4074L164.583 92.3063L164.439 88.3262C165.302 88.2982 164.156 88.1665 166.063 88.1018C166.575 88.0844 167.389 87.9966 167.854 88.0696L169.148 88.0465C167.656 88.0465 162.016 87.9533 161.29 88.3283Z" fill="#AAA6A6"/>
<path fill-rule="evenodd" clip-rule="evenodd" d="M117.518 112.871L120.462 112.886L120.466 108.702L117.486 108.792C117.211 109.107 117.25 109.017 117.252 110.128L117.319 112.177C117.035 112.332 117.124 112.107 116.915 112.379C117.088 112.486 117.144 112.451 117.4 112.462C117.405 112.478 117.35 112.499 117.395 112.612C117.493 112.851 117.49 112.43 117.518 112.871Z" fill="#E7E5E5"/>
<path fill-rule="evenodd" clip-rule="evenodd" d="M93.7613 92.4627C93.9507 92.4549 94.1459 92.4487 94.3361 92.4545C94.4314 92.4573 94.5271 92.4631 94.6204 92.4813C94.8568 92.5271 94.7549 92.5139 94.8262 92.5477C96.8493 92.5477 99.8098 92.6079 101.794 92.5576C102.221 92.5469 102.142 92.5143 102.21 92.4186L94.7334 92.3905L94.7351 88.3551C95.0969 88.3275 95.538 88.3964 95.7955 88.2429L93.3743 88.2541C93.0227 88.4047 92.3403 88.3803 91.8942 88.3931L91.8992 91.9952C91.886 92.5349 91.8282 92.3497 91.8282 92.3497L93.7613 92.4627Z" fill="#D5D2D2"/>
<path fill-rule="evenodd" clip-rule="evenodd" d="M95.7446 102.575L96.7134 102.521C96.3689 102.266 96.083 102.52 95.75 102.322L96.1572 102.182V98.3618L93.064 98.3894V102.33C93.2703 102.384 93.4589 102.445 93.6813 102.508L92.8568 102.542L95.7446 102.575Z" fill="#E4E2E3"/>
<path fill-rule="evenodd" clip-rule="evenodd" d="M114.59 108.651L114.891 108.771C114.903 108.776 114.926 108.783 114.942 108.792C114.926 108.802 114.9 108.793 114.891 108.815C114.853 108.919 114.886 108.819 114.791 108.858C114.62 108.928 114.753 108.838 114.604 108.933L114.543 111.894C114.513 112.263 114.593 112.065 114.402 112.238C114.423 112.248 114.518 112.281 114.528 112.289C114.534 112.293 114.553 112.307 114.559 112.311C114.564 112.316 114.577 112.333 114.581 112.338C114.585 112.343 114.594 112.364 114.596 112.368C114.599 112.372 114.609 112.389 114.608 112.4C114.432 112.497 114.173 112.47 113.978 112.479L114.537 112.503C114.47 112.693 114.382 112.684 114.335 112.757L117.518 112.871C117.49 112.43 117.493 112.851 117.395 112.612C117.35 112.499 117.405 112.478 117.4 112.462C117.144 112.451 117.088 112.486 116.915 112.379C117.124 112.107 117.035 112.332 117.319 112.177L117.252 110.128C117.25 109.017 117.211 109.107 117.486 108.792L120.466 108.702L124.643 108.678C124.43 108.492 123.725 108.581 123.448 108.581L114.59 108.651Z" fill="#CBC8C9"/>
<path fill-rule="evenodd" clip-rule="evenodd" d="M90.6806 98.3642L90.6641 102.232C90.6641 102.254 90.6641 102.309 90.667 102.327L90.7297 102.49C90.7322 102.479 90.7483 102.516 90.7528 102.523L90.2775 102.604C91.2001 102.604 91.8632 102.674 92.7878 102.674L100.033 102.675C100.271 102.678 100.502 102.704 100.663 102.608L95.7446 102.575L92.858 102.542L93.6824 102.508C93.46 102.445 93.2714 102.384 93.0651 102.33V98.3894L96.1585 98.3617L101.157 98.3267C101.142 98.3155 101.117 98.2862 101.108 98.3011L91.8743 98.2437C91.6664 98.363 91.4869 98.3523 91.2414 98.356C91.0553 98.3584 90.8684 98.3626 90.6823 98.3638L90.6806 98.3642Z" fill="#CBC8C9"/>
<path fill-rule="evenodd" clip-rule="evenodd" d="M171.83 112.871H173.769C174.014 112.521 173.764 112.654 174.086 112.522C174.071 112.511 174.046 112.48 174.038 112.495C174.028 112.513 173.984 112.465 173.941 112.444L173.846 112.4C173.836 112.396 173.814 112.387 173.8 112.379C174.009 112.144 174.012 112.048 174.007 111.608C174.003 111.223 174.097 109.251 173.922 109L173.778 108.848C173.992 108.801 174.229 108.65 174.348 108.527L173.94 108.581C173.395 108.371 170.64 108.512 169.845 108.512C170.078 108.688 171.046 108.623 171.409 108.654L171.471 108.855C171.473 108.861 171.481 108.88 171.483 108.886C171.484 108.892 171.488 108.912 171.489 108.919C171.516 109.077 171.481 108.821 171.49 108.985C171.497 109.092 171.47 108.976 171.503 109.135L171.569 111.892C171.518 112.483 171.463 111.947 171.439 112.356C171.559 112.451 171.471 112.384 171.604 112.462C171.617 112.47 171.636 112.48 171.649 112.487C171.662 112.495 171.682 112.505 171.695 112.512L171.785 112.564C171.795 112.57 171.816 112.58 171.831 112.59C171.815 112.6 171.788 112.589 171.779 112.611C171.771 112.632 171.739 112.627 171.727 112.631C171.715 112.635 171.689 112.644 171.674 112.649L171.424 112.73C171.574 112.805 171.507 112.747 171.622 112.786L171.83 112.871Z" fill="#ADA9A9"/>
<path fill-rule="evenodd" clip-rule="evenodd" d="M167.854 88.0696L167.864 88.3279C167.521 88.4612 167.71 88.2223 167.586 88.5391L167.586 92.2663C168.621 92.4866 171.59 92.3307 172.854 92.3389L169.868 92.2626L169.874 88.6716C169.843 88.3106 169.9 88.4715 169.66 88.339C170.237 88.2615 169.591 88.0374 169.72 88.1872L174.749 88.0973L178.581 88.1001C178.186 87.9116 170.325 88.0473 169.147 88.0473L167.854 88.0696Z" fill="#D9D6D6"/>
<path fill-rule="evenodd" clip-rule="evenodd" d="M135.235 112.491C135.404 112.75 135.712 112.669 135.921 112.881L132.941 112.859L133.288 112.948C134.571 113.012 138.623 112.941 139.973 112.941C140.899 112.941 146.746 113.048 147.076 112.888L142.778 112.876L140.041 112.847C139.608 112.866 139.204 112.807 138.775 112.803C137.913 112.795 138.486 112.688 137.717 112.657C137.787 112.592 137.92 112.532 137.942 112.415C137.977 112.223 138.022 112.47 137.856 112.247L137.789 112.162C138.124 111.969 137.988 111.891 137.988 110.831C137.988 110.316 137.988 109.8 137.988 109.284C138.045 109.018 138.015 109.134 138.19 109.003L137.904 108.892C137.891 108.885 137.866 108.874 137.85 108.862C138.021 108.709 138.037 108.75 138.183 108.651H135.34C135.355 108.661 135.378 108.666 135.39 108.67L135.782 108.762C135.948 108.853 135.824 108.864 135.776 109.085L135.765 112.013C135.794 112.169 135.767 112.082 135.823 112.169C135.726 112.405 135.837 112.224 135.615 112.376C135.859 112.409 135.873 112.465 136.028 112.589C135.842 112.665 135.504 112.509 135.234 112.491L135.235 112.491Z" fill="#BAB6B6"/>
<path fill-rule="evenodd" clip-rule="evenodd" d="M87.9117 108.749C87.8919 108.759 87.8659 108.767 87.8486 108.772L87.3472 108.858C87.4372 108.877 87.3126 108.798 87.4273 108.911C87.6365 109.116 87.5663 109.221 87.563 109.307L87.5432 111.636C87.417 111.69 87.4586 111.7 87.2693 111.705C87.5899 111.797 87.5486 111.749 87.5482 112.125C87.3357 112.106 87.2419 112.062 87.0641 112L87.2675 112.211C87.8963 112.654 88.6431 112.611 88.8003 112.965L86.0362 112.925C86.2743 113.111 89.5316 113.012 89.8341 113.012C91.1548 113.012 92.4756 113.012 93.7964 113.012C93.567 112.915 93.0991 112.927 92.7892 112.961L90.3263 112.888C89.9607 112.864 89.8225 112.787 89.4817 112.786C89.5539 112.619 89.4738 112.747 89.6257 112.653C89.827 112.529 90.0478 112.48 90.2966 112.488L89.5551 112.441C89.5679 112.43 89.5906 112.401 89.5964 112.413L89.8184 112.238C89.6604 111.941 89.7334 110.299 89.7421 109.702C89.7495 109.202 89.8968 109.165 89.6038 109.093C89.7441 108.976 90.035 108.931 90.2409 108.908C90.1996 108.901 90.0944 108.896 90.04 108.881C90.0218 108.876 90.0012 108.87 89.9826 108.864L89.865 108.816C89.8493 108.81 89.8237 108.8 89.8052 108.787C90.5425 108.746 92.4393 108.825 92.9282 108.652H90.2054L87.9117 108.749Z" fill="#A6A2A1"/>
<path fill-rule="evenodd" clip-rule="evenodd" d="M149.65 112.801L149.64 90.7383C150.125 90.7928 150.841 91.1555 151.228 91.4278C151.591 91.6824 152.167 92.2951 152.49 92.4218C152.478 92.4016 152.463 92.3781 152.453 92.3624C152.087 91.8223 151.642 91.7291 151.466 91.3206C151.664 91.3676 151.92 91.4769 152.026 91.602C152.027 91.5784 152.02 91.4864 152.023 91.4728C152.073 91.2884 151.944 91.5029 152.099 91.3296C152.264 91.5669 152.142 91.4369 152.489 91.4732C152.784 91.5038 152.71 91.5236 152.919 91.6044C153.066 91.6614 153.584 91.5954 153.907 91.597L153.981 91.3668L154.053 89.7275L153.986 89.8178C153.979 89.8281 153.961 89.8541 153.955 89.8632L153.897 89.954C153.633 89.954 150.327 89.8789 150.11 90.0229C150.037 89.9573 150.065 90.0056 149.996 89.9065C149.914 89.7865 149.973 89.8706 149.937 89.751C149.842 89.9276 149.944 89.8867 149.694 89.9606L149.678 88.5396C149.526 88.6027 149.517 88.3836 149.534 89.1708C149.63 93.587 149.329 111.952 149.65 112.801Z" fill="#C1BEBE"/>
<path fill-rule="evenodd" clip-rule="evenodd" d="M86.3626 89.6989C86.762 89.5669 86.9612 89.2562 87.3016 89.1725C87.4072 89.0062 87.4143 89.0697 87.5793 88.9732C87.9308 88.7681 88.2135 88.6237 88.6612 88.5907C88.589 88.8028 88.6211 88.7562 88.2993 88.861L88.6575 88.9418C88.6236 89.2076 88.6566 89.1131 88.5077 89.2426C88.7779 89.4584 88.7259 89.4089 88.7206 89.8719L88.7189 92.3636C89.4942 92.4466 89.6679 92.3748 90.1854 92.4016C90.2972 92.4078 90.3632 92.4131 90.4709 92.4457C90.6343 92.4953 90.5877 92.4845 90.6768 92.5477L94.8262 92.5477C94.7549 92.5139 94.8568 92.5271 94.6204 92.4813C94.5271 92.4631 94.4314 92.4573 94.3361 92.4545C94.1459 92.4487 93.9507 92.4549 93.7613 92.4627L90.4503 92.376L90.4498 88.3671L93.3743 88.2541L95.7955 88.2429L102 88.2177L89.1002 88.188C88.7532 88.3943 88.1995 88.495 87.5896 88.7718C87.2331 88.9336 86.5346 89.4002 86.3633 89.6982L86.3626 89.6989Z" fill="#B1ADAE"/>
<path fill-rule="evenodd" clip-rule="evenodd" d="M92.7892 112.961C93.0991 112.927 93.567 112.915 93.7964 113.012L101.999 112.988L93.49 112.839C93.3064 112.627 93.523 112.945 93.4484 112.755L93.3988 112.547C93.3568 112.383 93.3811 112.48 93.3394 112.386L93.2969 112.232C93.2986 112.223 93.3064 112.203 93.3085 112.193C93.3105 112.18 93.3196 112.16 93.3225 112.146C93.3258 112.13 93.3332 112.11 93.3365 112.092C93.3402 112.072 93.3448 112.053 93.3477 112.031L93.3568 111.183C93.3563 110.784 93.3559 110.386 93.3568 109.987C93.3584 109.291 93.2528 109.286 93.4252 109.005L93.0758 108.88L94.5727 108.753C93.5234 108.725 92.6132 108.754 91.5218 108.802C91.3477 109.084 91.4216 108.924 91.1084 109.049L91.5833 109.157C91.3947 109.494 91.5132 111.448 91.5132 112.027C91.4863 112.198 91.3201 112.277 91.1657 112.343L91.4517 112.449C91.3708 112.608 91.299 112.608 91.2301 112.661C91.7294 112.79 91.1736 112.682 91.4562 112.807C91.6555 112.895 92.4748 112.851 92.7892 112.961Z" fill="#CDC9CA"/>
<path fill-rule="evenodd" clip-rule="evenodd" d="M102.21 92.4186C102.319 92.5102 102.281 92.5011 102.281 92.36C101.777 92.5968 97.559 92.4128 96.7387 92.3463L96.7474 88.3985C97.6964 88.3642 101.537 88.2198 102.211 88.3271L102 88.2177L95.7955 88.2429C95.538 88.3964 95.0969 88.3275 94.7351 88.3551L94.7334 92.3905L102.21 92.4186Z" fill="#E8E6E6"/>
<path fill-rule="evenodd" clip-rule="evenodd" d="M92.7892 112.961C92.4752 112.851 91.6544 112.895 91.4552 112.807C91.1725 112.682 91.7283 112.79 91.229 112.661C91.2979 112.608 91.3697 112.608 91.4506 112.449L91.1647 112.343C91.319 112.277 91.4853 112.197 91.5121 112.027C91.5121 111.448 91.3937 109.494 91.5822 109.157L91.1073 109.049C91.4205 108.924 91.3466 109.084 91.5208 108.802C92.6121 108.754 93.5228 108.726 94.572 108.754L102.139 108.694C101.77 108.553 94.0563 108.652 92.9269 108.652C92.438 108.825 90.5412 108.746 89.8039 108.787C89.8224 108.8 89.848 108.81 89.8637 108.816L89.9813 108.864C89.9999 108.871 90.0205 108.876 90.0387 108.881C90.0931 108.896 90.1983 108.901 90.2396 108.908C90.0337 108.931 89.7428 108.976 89.6025 109.093C89.8955 109.165 89.7486 109.202 89.7407 109.702C89.7321 110.299 89.659 111.941 89.8171 112.238L89.5951 112.413C89.5893 112.4 89.5666 112.43 89.5538 112.441L90.2953 112.488C90.0469 112.48 89.8262 112.529 89.6244 112.653C89.4721 112.747 89.5522 112.619 89.4804 112.785C89.8208 112.787 89.9594 112.864 90.325 112.888L92.7879 112.961L92.7892 112.961Z" fill="#BBB8B7"/>
<path fill-rule="evenodd" clip-rule="evenodd" d="M140.041 112.847L140.185 112.801C140.107 112.617 140.209 112.783 139.901 112.588C140.033 112.525 140.127 112.522 140.252 112.459C140.072 112.455 139.828 112.49 139.76 112.371C139.652 112.184 139.751 112.418 139.765 112.283L139.797 108.84C139.815 108.675 139.846 108.788 139.78 108.652L138.184 108.651C138.039 108.751 138.023 108.709 137.852 108.862C137.868 108.874 137.892 108.885 137.905 108.892L138.191 109.003C138.017 109.134 138.046 109.018 137.99 109.284C137.99 109.8 137.99 110.316 137.99 110.831C137.99 111.891 138.125 111.969 137.79 112.162L137.857 112.247C138.023 112.47 137.978 112.223 137.943 112.415C137.921 112.532 137.788 112.592 137.719 112.657C138.487 112.688 137.915 112.795 138.777 112.803C139.206 112.807 139.61 112.865 140.042 112.846L140.041 112.847Z" fill="#D1CECE"/>
<path fill-rule="evenodd" clip-rule="evenodd" d="M169.894 112.871L171.83 112.871L171.622 112.786C171.507 112.747 171.574 112.805 171.424 112.73L171.674 112.649C171.689 112.644 171.715 112.635 171.727 112.631C171.739 112.627 171.771 112.632 171.779 112.611C171.788 112.589 171.815 112.6 171.831 112.59C171.816 112.58 171.795 112.57 171.785 112.564L171.695 112.512C171.682 112.505 171.662 112.495 171.649 112.487C171.636 112.48 171.617 112.47 171.604 112.462C171.471 112.384 171.559 112.451 171.439 112.356C171.463 111.947 171.518 112.483 171.569 111.892L171.503 109.135C171.47 108.976 171.497 109.092 171.49 108.985C171.481 108.821 171.516 109.077 171.489 108.919C171.488 108.912 171.484 108.892 171.483 108.886C171.481 108.88 171.473 108.861 171.471 108.855L171.409 108.654C171.046 108.623 170.078 108.688 169.845 108.512L166.876 108.512L170.121 108.753C169.975 108.856 170.076 108.819 169.835 108.841C169.851 108.857 169.875 108.875 169.886 108.885L170.051 109.053C169.726 109.092 169.952 109.052 169.84 109.144V112.098L169.43 112.238C169.731 112.696 169.739 112.421 170.111 112.621C169.658 112.646 169.951 112.638 169.826 112.731C169.883 112.839 169.811 112.824 169.894 112.871Z" fill="#C0BCBA"/>
<path fill-rule="evenodd" clip-rule="evenodd" d="M173.94 108.581L174.348 108.527C174.229 108.65 173.992 108.801 173.778 108.848L173.922 109C174.097 109.251 174.003 111.223 174.007 111.608C174.012 112.048 174.009 112.144 173.8 112.379C173.814 112.387 173.836 112.396 173.846 112.4L173.941 112.444C173.984 112.465 174.028 112.513 174.038 112.495C174.046 112.48 174.071 112.511 174.086 112.522C173.764 112.654 174.014 112.521 173.769 112.871C174.288 112.771 174.951 112.767 175.362 112.519L175.568 112.388C175.625 111.441 175.526 108.954 175.606 108.393C175.658 108.029 175.705 107.855 175.206 107.562C174.665 108.409 174.198 108.255 173.94 108.581Z" fill="#989394"/>
<path fill-rule="evenodd" clip-rule="evenodd" d="M111.261 111.605C110.921 111.414 110.917 111.261 110.585 111.114C110.738 111.453 110.92 111.534 111.202 111.753C112.364 112.66 112.683 112.481 113.529 112.878L110.368 112.858C110.624 113.05 117.185 112.941 117.47 112.941H123.8C123.94 112.942 124.089 112.947 124.227 112.946C124.477 112.943 124.477 112.972 124.643 112.881L120.462 112.886L117.518 112.871L114.335 112.757C114.382 112.684 114.47 112.693 114.537 112.503L113.978 112.479C114.173 112.47 114.432 112.497 114.608 112.4C114.609 112.389 114.599 112.372 114.596 112.368C114.594 112.364 114.585 112.343 114.581 112.338C114.577 112.333 114.564 112.316 114.559 112.311C114.553 112.307 114.534 112.293 114.528 112.289C114.518 112.281 114.423 112.248 114.402 112.238C114.593 112.065 114.513 112.263 114.543 111.894L114.604 108.933C114.753 108.838 114.62 108.928 114.791 108.858C114.886 108.819 114.853 108.919 114.891 108.815C114.9 108.793 114.926 108.802 114.942 108.792C114.926 108.783 114.903 108.776 114.891 108.771L114.59 108.651L113.43 108.651C113.365 108.741 113.371 108.734 113.285 108.821L113.134 108.965C113.128 108.952 113.107 108.989 113.094 109.002C113.282 109.445 113.163 111.437 113.163 112.115C113.276 112.167 113.402 112.185 113.499 112.237C113.464 112.253 113.194 112.297 113.079 112.397C113.198 112.428 113.638 112.651 113.917 112.606C112.984 112.628 111.91 112.24 111.261 111.604L111.261 111.605Z" fill="#B5B1B1"/>
<path fill-rule="evenodd" clip-rule="evenodd" d="M133.552 111.502C133.793 111.889 134.83 112.523 135.235 112.491C135.505 112.509 135.842 112.665 136.028 112.589C135.873 112.465 135.859 112.409 135.615 112.376C135.837 112.224 135.726 112.405 135.823 112.169C135.767 112.082 135.794 112.169 135.765 112.013L135.776 109.085C135.824 108.864 135.948 108.853 135.782 108.762L135.39 108.67C135.378 108.666 135.355 108.661 135.34 108.651H133.79L133.788 109.284C133.805 109.518 133.795 109.754 133.795 109.987C133.797 110.546 133.78 110.845 133.726 111.312L134.036 111.246C134.04 111.234 134.061 111.247 134.073 111.253C133.963 111.496 134.061 111.261 133.95 111.414C133.891 111.495 133.921 111.387 133.861 111.554L133.552 111.501L133.552 111.502Z" fill="#9D9B9B"/>
<path fill-rule="evenodd" clip-rule="evenodd" d="M111.261 111.605C111.91 112.241 112.984 112.629 113.916 112.608C113.638 112.652 113.198 112.429 113.079 112.398C113.194 112.298 113.463 112.254 113.499 112.238C113.401 112.187 113.275 112.168 113.163 112.116C113.163 111.438 113.281 109.446 113.093 109.004C113.106 108.991 113.127 108.954 113.133 108.966L113.285 108.822C113.371 108.734 113.365 108.742 113.429 108.652H110.664C110.843 108.735 110.936 108.669 111.158 108.773C111.29 109.402 111.021 108.769 111.087 109.987C111.115 110.517 111.207 110.682 111.091 111.254C111.222 111.366 111.35 111.487 111.439 111.605C111.336 111.642 111.606 111.767 111.261 111.605Z" fill="#9E9A9A"/>
<path fill-rule="evenodd" clip-rule="evenodd" d="M86.3633 89.6982C85.9738 89.8789 85.3864 90.8113 85.1714 91.2487C84.3251 92.9681 84.5248 95.6364 84.5195 97.612C84.5182 97.9429 84.3887 98.9225 84.9523 98.3853C84.7398 98.3712 84.7287 98.3536 84.56 98.3144C84.56 97.091 84.3933 94.3401 84.7461 93.5078C84.9742 92.9702 85.5684 92.5489 86.3144 92.5444C87.1809 92.5394 88.0519 92.5477 88.9192 92.5477C88.6585 92.3756 88.0449 92.4408 87.421 92.4029L87.4202 90.0848C87.4256 89.699 87.5048 89.5567 87.27 89.4143L87.4144 89.2819C87.5089 89.1845 87.4264 89.3103 87.5081 89.1725C87.4561 89.1506 87.5892 89.0656 87.3016 89.1725C86.9612 89.2567 86.7627 89.5661 86.3633 89.6982Z" fill="#8A8586"/>
<path fill-rule="evenodd" clip-rule="evenodd" d="M89.0009 102.604L90.2775 102.604L90.7528 102.523C90.7483 102.516 90.7322 102.479 90.7297 102.49L90.667 102.327C90.6641 102.309 90.6641 102.254 90.6641 102.232L90.6806 98.3642L88.9906 98.3841V101.549C88.9923 102.148 89.0723 102.245 88.8784 102.463C89.0079 102.549 88.9638 102.563 89.0009 102.604Z" fill="#B6B2B2"/>
<path fill-rule="evenodd" clip-rule="evenodd" d="M86.8804 99.0603C87.2209 99.0657 87.0554 99.0756 87.2976 98.9518C87.4597 98.8689 87.4106 98.7847 87.645 98.8772C87.4832 99.0872 87.5876 98.9424 87.3578 99.088C87.3739 99.0991 87.4003 99.0934 87.4086 99.1173C87.449 99.2349 87.6173 99.2172 87.6376 99.2287L87.6487 102.18C87.7176 102.477 87.6169 102.204 87.8418 102.464C87.7816 102.509 87.8142 102.518 87.7696 102.604L89.0009 102.604C88.9638 102.563 89.0087 102.549 88.8795 102.464C89.0735 102.245 88.9934 102.148 88.9918 101.55V98.3845L90.6806 98.3642C90.8667 98.363 91.054 98.3593 91.2405 98.3568C91.486 98.3535 91.6655 98.3639 91.8734 98.2446L86.4538 98.2393C86.3779 98.2426 86.3362 98.2434 86.2619 98.2587C86.1084 98.2908 86.193 98.2602 86.1064 98.3155C86.9671 98.2899 87.7346 98.3007 88.5899 98.3848C88.4583 98.33 87.9293 98.4806 87.7098 98.5709C87.4643 98.672 87.0117 98.7826 86.8804 99.0603Z" fill="#A3A09F"/>
<path fill-rule="evenodd" clip-rule="evenodd" d="M86.8804 99.0603C86.4633 99.1696 85.8675 99.857 85.7156 100.276C86.0247 100.2 85.7891 100.149 85.9467 100.283C85.6884 100.595 85.9904 100.279 85.9793 100.859C85.6867 100.824 85.768 100.967 85.7173 100.658C85.7111 100.881 85.7338 100.897 85.8683 101.011C85.7866 101.249 85.8439 101.163 85.6678 101.268C85.9108 101.425 85.8204 101.197 85.7519 101.58C85.7198 101.76 85.6372 101.901 85.6315 101.936C85.6092 102.081 85.6706 102.134 85.6438 102.319C85.5844 102.728 85.6459 102.514 85.4738 102.605L87.7696 102.604C87.8142 102.518 87.7816 102.509 87.8418 102.464C87.6169 102.204 87.7176 102.477 87.6487 102.18L87.6376 99.2287C87.6173 99.2172 87.449 99.2349 87.4086 99.1173C87.4003 99.0934 87.3739 99.0991 87.3578 99.088C87.5876 98.9424 87.4832 99.0872 87.645 98.8772C87.4106 98.7847 87.4597 98.8689 87.2976 98.9518C87.0554 99.0756 87.2209 99.0657 86.8804 99.0603Z" fill="#8E898A"/>
<path fill-rule="evenodd" clip-rule="evenodd" d="M93.7613 92.4627L91.8282 92.3497C91.8282 92.3497 91.886 92.5349 91.8992 91.9952L91.8942 88.3931C92.3403 88.3803 93.0227 88.4047 93.3743 88.2541L90.4498 88.3671L90.4503 92.376L93.7613 92.4627Z" fill="#C1BEBE"/>
<path fill-rule="evenodd" clip-rule="evenodd" d="M157.695 90.6868C157.776 90.9323 157.712 91.5339 157.728 91.8446C157.75 92.284 157.825 92.6628 157.933 93.0197C158.102 93.5792 158.403 94.4222 158.812 94.7279L159.066 94.841C159.071 94.5967 159.099 94.5662 159.133 94.376C159.03 94.3273 159.06 94.3619 159.013 94.3624C158.708 94.3652 159.127 94.4936 158.92 94.376C158.941 93.868 159.051 94.4247 159.061 93.7802C158.826 93.8536 158.947 93.8586 158.772 94.0071L158.942 93.5751C158.948 93.5602 158.958 93.5425 158.964 93.5272C158.97 93.5111 158.98 93.4942 158.986 93.4777C159.16 93.0292 158.99 92.3397 158.992 91.7761C158.994 91.2376 158.921 90.7 158.996 90.1859L158.993 89.881C159.055 89.5946 159.171 89.5851 158.891 89.5014C158.507 89.8368 157.914 90.247 157.695 90.6868Z" fill="#7A7475"/>
<path fill-rule="evenodd" clip-rule="evenodd" d="M87.0641 112C87.2419 112.062 87.3357 112.106 87.5482 112.125C87.5486 111.749 87.5899 111.797 87.2693 111.705C87.4586 111.7 87.417 111.69 87.5432 111.636L87.563 109.307C87.5663 109.221 87.6365 109.116 87.4273 108.911C87.3126 108.798 87.4372 108.877 87.3472 108.858L87.8486 108.772C87.8659 108.767 87.8919 108.759 87.9117 108.749L86.2239 108.828L85.9161 109.074L86.3378 109.131C86.3238 109.14 86.2966 109.135 86.2895 109.162C86.2747 109.221 86.1427 109.172 86.1191 109.492C86.0486 110.448 86.2681 110.122 86.4133 110.328C86.4162 110.331 86.5643 110.329 86.4154 110.557C86.4067 110.57 86.3898 110.586 86.3795 110.597L86.2404 110.691C86.363 111.041 86.4117 110.731 86.3915 111.267C85.9549 111.061 85.4214 110.078 85.2312 109.682C84.9172 109.027 84.6989 108.337 84.6989 107.457C84.465 106.85 84.559 105.961 84.559 105.206C84.559 104.808 84.5599 104.409 84.5586 104.01C84.557 103.546 84.6301 103.253 84.6301 102.901C84.3532 103.345 84.524 107.705 84.6787 108.491C84.8195 109.204 85.3868 110.578 85.8039 110.991C86.0713 111.256 86.7373 111.999 87.0641 112Z" fill="#928F90"/>
<path fill-rule="evenodd" clip-rule="evenodd" d="M87.3016 89.1725C87.5892 89.0656 87.4561 89.1506 87.5081 89.1725C87.4264 89.3103 87.5089 89.1845 87.4144 89.2819L87.27 89.4143C87.5048 89.5567 87.4256 89.699 87.4202 90.0848L87.421 92.4029C88.0449 92.4408 88.6585 92.3756 88.9192 92.5477L90.6768 92.5477C90.5877 92.4845 90.6343 92.4953 90.4709 92.4457C90.3632 92.4131 90.2972 92.4078 90.1854 92.4016C89.6679 92.3748 89.4942 92.4466 88.7189 92.3636L88.7206 89.8719C88.7259 89.4089 88.7779 89.4584 88.5077 89.2426C88.6566 89.1131 88.6236 89.2076 88.6575 88.9418L88.2993 88.861C88.6211 88.7562 88.589 88.8028 88.6612 88.5907C88.2135 88.6237 87.9308 88.7681 87.5793 88.9732C87.4143 89.0697 87.4072 89.0062 87.3016 89.1725Z" fill="#9E9A9A"/>
<path fill-rule="evenodd" clip-rule="evenodd" d="M149.678 88.5396L149.694 89.9606C149.944 89.8867 149.842 89.9276 149.937 89.751C149.973 89.8706 149.914 89.7865 149.996 89.9065C150.065 90.0056 150.037 89.9573 150.11 90.0229C150.327 89.8789 153.633 89.954 153.897 89.954L153.955 89.8632C153.961 89.8541 153.979 89.8281 153.986 89.8178L154.053 89.7275L154.078 88.445L153.974 88.9108L149.709 88.915L149.674 88.2581C149.665 88.2721 149.647 88.2754 149.647 88.2998C149.647 88.3245 149.63 88.3361 149.63 88.3472C149.639 88.4693 149.63 88.4149 149.679 88.5399L149.678 88.5396Z" fill="#DBD9DA"/>
<path fill-rule="evenodd" clip-rule="evenodd" d="M133.552 111.502L133.86 111.555C133.92 111.388 133.891 111.496 133.949 111.415C134.061 111.261 133.962 111.496 134.072 111.254C134.061 111.248 134.039 111.234 134.035 111.247L133.726 111.313C133.78 110.846 133.796 110.547 133.795 109.988C133.794 109.754 133.804 109.518 133.788 109.285L133.789 108.652C133.154 108.652 132.78 108.546 132.388 108.29C132.189 108.16 132.075 108.02 131.943 107.821C131.796 107.601 131.835 107.573 131.757 107.374L131.656 107.176C131.81 108.793 132.15 110.227 133.335 111.359C133.466 111.484 133.454 111.466 133.551 111.503L133.552 111.502Z" fill="#868182"/>
<path fill-rule="evenodd" clip-rule="evenodd" d="M110.585 111.114C110.917 111.261 110.921 111.414 111.261 111.605C111.606 111.767 111.336 111.642 111.439 111.605C111.35 111.487 111.222 111.366 111.091 111.254C111.207 110.682 111.115 110.517 111.087 109.987C111.021 108.769 111.29 109.402 111.158 108.773C110.936 108.669 110.843 108.735 110.664 108.652C110.647 108.643 110.621 108.614 110.611 108.629C110.611 108.63 109.985 108.448 109.609 108.074C109.055 107.524 109.284 107.156 109.09 106.894C109.139 108.682 109.653 110.084 110.585 111.114Z" fill="#857E80"/>
<path fill-rule="evenodd" clip-rule="evenodd" d="M149.674 88.2581L149.709 88.915L153.974 88.9108L154.078 88.445L154.065 88.3287C154.014 88.0808 153.578 88.188 153.054 88.188C152.274 88.1889 150.049 88.0856 149.674 88.2581Z" fill="#F4F1F1"/>
<path fill-rule="evenodd" clip-rule="evenodd" d="M87.9117 108.749L90.2054 108.652C89.074 108.652 87.9418 108.65 86.8096 108.652C86.0818 108.652 85.8697 108.68 85.3778 108.396C85.0865 108.227 84.7154 107.863 84.6989 107.457C84.6989 108.337 84.9172 109.027 85.2312 109.682C85.4214 110.078 85.9549 111.061 86.3915 111.267C86.4117 110.731 86.363 111.041 86.2404 110.691L86.3795 110.597C86.3898 110.586 86.4067 110.57 86.4154 110.557C86.5643 110.329 86.4162 110.331 86.4133 110.328C86.2681 110.122 86.0486 110.448 86.1191 109.492C86.1427 109.172 86.2747 109.221 86.2895 109.162C86.2966 109.135 86.3238 109.14 86.3378 109.131L85.9161 109.074L86.2239 108.828L87.9117 108.749Z" fill="#7E797A"/>
<path fill-rule="evenodd" clip-rule="evenodd" d="M154.053 89.7275L153.981 91.3668L153.981 92.3587C153.753 92.357 153.481 92.3405 153.259 92.3479C152.961 92.3578 153.034 92.3512 152.776 92.5472C152.932 92.8451 152.906 92.6277 152.983 92.9974C152.975 93.1443 153.364 93.6968 153.569 94.222C153.928 95.143 153.804 95.0163 153.959 95.4904L154.038 95.6707C154.038 94.6747 154.253 88.8086 154.065 88.3287L154.078 88.445L154.053 89.7275Z" fill="#928F90"/>
<path fill-rule="evenodd" clip-rule="evenodd" d="M152.49 92.4218C152.496 92.5873 152.493 92.508 152.623 92.6805C152.651 92.7181 152.729 92.8125 152.761 92.8414C152.944 93.0065 152.74 92.8699 152.983 92.9974C152.906 92.6277 152.932 92.8451 152.776 92.5472C153.034 92.3512 152.961 92.3578 153.259 92.3479C153.481 92.3405 153.753 92.357 153.981 92.3587L153.981 91.3668L153.907 91.597C153.584 91.5954 153.066 91.6614 152.919 91.6044C152.71 91.5236 152.784 91.5038 152.489 91.4732C152.142 91.4369 152.264 91.5669 152.099 91.3296C151.944 91.5029 152.073 91.2884 152.023 91.4728C152.02 91.4864 152.027 91.5784 152.026 91.602C151.92 91.4769 151.664 91.3676 151.466 91.3206C151.642 91.7291 152.087 91.8223 152.453 92.3624C152.463 92.3781 152.478 92.4016 152.49 92.4218Z" fill="#A9A4A3"/>
<path fill-rule="evenodd" clip-rule="evenodd" d="M84.6119 102.815C85.0534 102.562 84.7419 102.605 85.4738 102.605C85.6459 102.514 85.5844 102.728 85.6438 102.319C85.6706 102.134 85.6092 102.081 85.6315 101.936C85.6372 101.901 85.7198 101.76 85.7519 101.58C85.8204 101.197 85.9108 101.425 85.6678 101.268C85.8439 101.163 85.7866 101.249 85.8683 101.011C85.7338 100.897 85.7111 100.881 85.7173 100.658C85.768 100.967 85.6867 100.824 85.9793 100.859C85.9904 100.279 85.6884 100.595 85.9467 100.283C85.7895 100.149 86.0246 100.199 85.7151 100.275C85.553 100.302 85.1565 101.056 85.0244 101.309C84.878 101.59 84.6535 102.411 84.6114 102.814L84.6119 102.815Z" fill="#7D7678"/>
<path d="M55.1111 144.324C53.9111 144.324 52.8851 144.114 52.0331 143.694C51.1931 143.274 50.5151 142.728 49.9991 142.056C49.4831 141.384 49.1051 140.658 48.8651 139.878C48.6251 139.086 48.5051 138.324 48.5051 137.592V137.196C48.5051 136.404 48.6251 135.612 48.8651 134.82C49.1171 134.028 49.5011 133.308 50.0171 132.66C50.5331 132.012 51.2051 131.49 52.0331 131.094C52.8611 130.698 53.8511 130.5 55.0031 130.5C56.1791 130.5 57.1871 130.704 58.0271 131.112C58.8671 131.52 59.5331 132.09 60.0251 132.822C60.5171 133.554 60.8171 134.418 60.9251 135.414H59.1251C59.0291 134.67 58.7891 134.058 58.4051 133.578C58.0211 133.086 57.5351 132.72 56.9471 132.48C56.3711 132.24 55.7231 132.12 55.0031 132.12C54.2231 132.12 53.5391 132.258 52.9511 132.534C52.3631 132.798 51.8711 133.176 51.4751 133.668C51.0911 134.148 50.7971 134.706 50.5931 135.342C50.4011 135.978 50.3051 136.668 50.3051 137.412C50.3051 138.12 50.4011 138.792 50.5931 139.428C50.7971 140.064 51.0971 140.628 51.4931 141.12C51.9011 141.612 52.4051 142.002 53.0051 142.29C53.6051 142.566 54.3071 142.704 55.1111 142.704C56.2391 142.704 57.1871 142.422 57.9551 141.858C58.7231 141.294 59.1911 140.478 59.3591 139.41H61.1591C61.0391 140.31 60.7331 141.132 60.2411 141.876C59.7611 142.62 59.0891 143.214 58.2251 143.658C57.3731 144.102 56.3351 144.324 55.1111 144.324Z" fill="white"/>
<path d="M69.2757 144V141.12H68.9877V137.79C68.9877 137.13 68.8137 136.632 68.4657 136.296C68.1297 135.96 67.6317 135.792 66.9717 135.792C66.5997 135.792 66.2157 135.798 65.8197 135.81C65.4237 135.822 65.0457 135.834 64.6857 135.846C64.3257 135.858 64.0137 135.876 63.7497 135.9V134.388C64.0137 134.364 64.2897 134.346 64.5777 134.334C64.8777 134.31 65.1837 134.298 65.4957 134.298C65.8077 134.286 66.1077 134.28 66.3957 134.28C67.3797 134.28 68.1837 134.4 68.8077 134.64C69.4317 134.868 69.8937 135.246 70.1937 135.774C70.4937 136.302 70.6437 137.016 70.6437 137.916V144H69.2757ZM66.1257 144.252C65.4057 144.252 64.7817 144.132 64.2537 143.892C63.7377 143.64 63.3357 143.28 63.0477 142.812C62.7717 142.344 62.6337 141.78 62.6337 141.12C62.6337 140.436 62.7837 139.866 63.0837 139.41C63.3957 138.954 63.8457 138.612 64.4337 138.384C65.0217 138.144 65.7297 138.024 66.5577 138.024H69.1677V139.32H66.4857C65.7897 139.32 65.2557 139.488 64.8837 139.824C64.5117 140.16 64.3257 140.592 64.3257 141.12C64.3257 141.648 64.5117 142.074 64.8837 142.398C65.2557 142.722 65.7897 142.884 66.4857 142.884C66.8937 142.884 67.2837 142.812 67.6557 142.668C68.0277 142.512 68.3337 142.26 68.5737 141.912C68.8257 141.552 68.9637 141.06 68.9877 140.436L69.4557 141.12C69.3957 141.804 69.2277 142.38 68.9517 142.848C68.6877 143.304 68.3157 143.652 67.8357 143.892C67.3677 144.132 66.7977 144.252 66.1257 144.252Z" fill="white"/>
<path d="M78.8912 144.324C78.0992 144.324 77.3912 144.15 76.7672 143.802C76.1552 143.454 75.6692 142.95 75.3092 142.29C74.9492 141.618 74.7512 140.814 74.7152 139.878H75.1832V144H73.8152V130.86H75.5432V137.25L74.9312 138.564C74.9792 137.52 75.1892 136.668 75.5612 136.008C75.9332 135.348 76.4192 134.862 77.0192 134.55C77.6312 134.226 78.3032 134.064 79.0352 134.064C79.7192 134.064 80.3432 134.196 80.9072 134.46C81.4712 134.712 81.9572 135.066 82.3652 135.522C82.7732 135.966 83.0852 136.488 83.3012 137.088C83.5172 137.676 83.6252 138.312 83.6252 138.996V139.32C83.6252 140.004 83.5112 140.646 83.2832 141.246C83.0672 141.846 82.7492 142.38 82.3292 142.848C81.9092 143.304 81.4052 143.664 80.8172 143.928C80.2412 144.192 79.5992 144.324 78.8912 144.324ZM78.6932 142.812C79.3412 142.812 79.9052 142.656 80.3852 142.344C80.8652 142.032 81.2372 141.606 81.5012 141.066C81.7652 140.514 81.8972 139.878 81.8972 139.158C81.8972 138.438 81.7592 137.808 81.4832 137.268C81.2192 136.728 80.8472 136.314 80.3672 136.026C79.8872 135.726 79.3292 135.576 78.6932 135.576C78.1172 135.576 77.5832 135.708 77.0912 135.972C76.5992 136.224 76.2032 136.596 75.9032 137.088C75.6152 137.568 75.4712 138.15 75.4712 138.834V139.662C75.4712 140.322 75.6212 140.886 75.9212 141.354C76.2212 141.822 76.6172 142.182 77.1092 142.434C77.6012 142.686 78.1292 142.812 78.6932 142.812Z" fill="white"/>
<path d="M86.3333 144V130.86H88.0613V144H86.3333ZM85.0013 132.228V130.86H88.0613V132.228H85.0013Z" fill="white"/>
<path d="M95.4617 144.324C94.6217 144.324 93.8957 144.18 93.2837 143.892C92.6717 143.604 92.1737 143.226 91.7897 142.758C91.4057 142.278 91.1177 141.744 90.9257 141.156C90.7457 140.568 90.6557 139.968 90.6557 139.356V139.032C90.6557 138.408 90.7457 137.802 90.9257 137.214C91.1177 136.626 91.4057 136.098 91.7897 135.63C92.1737 135.15 92.6597 134.772 93.2477 134.496C93.8477 134.208 94.5497 134.064 95.3537 134.064C96.3977 134.064 97.2557 134.292 97.9277 134.748C98.6117 135.192 99.1157 135.768 99.4397 136.476C99.7757 137.184 99.9437 137.94 99.9437 138.744V139.518H91.4117V138.222H98.6837L98.2877 138.924C98.2877 138.24 98.1797 137.652 97.9637 137.16C97.7477 136.656 97.4237 136.266 96.9917 135.99C96.5597 135.714 96.0137 135.576 95.3537 135.576C94.6697 135.576 94.0997 135.732 93.6437 136.044C93.1997 136.356 92.8637 136.782 92.6357 137.322C92.4197 137.862 92.3117 138.486 92.3117 139.194C92.3117 139.878 92.4197 140.496 92.6357 141.048C92.8637 141.588 93.2117 142.02 93.6797 142.344C94.1477 142.656 94.7417 142.812 95.4617 142.812C96.2177 142.812 96.8297 142.644 97.2977 142.308C97.7777 141.972 98.0657 141.582 98.1617 141.138H99.7817C99.6497 141.798 99.3857 142.368 98.9897 142.848C98.5937 143.328 98.0957 143.694 97.4957 143.946C96.8957 144.198 96.2177 144.324 95.4617 144.324Z" fill="white"/>
<path d="M112.451 144.324C111.251 144.324 110.225 144.114 109.373 143.694C108.533 143.274 107.855 142.728 107.339 142.056C106.823 141.384 106.445 140.658 106.205 139.878C105.965 139.086 105.845 138.324 105.845 137.592V137.196C105.845 136.404 105.965 135.612 106.205 134.82C106.457 134.028 106.841 133.308 107.357 132.66C107.873 132.012 108.545 131.49 109.373 131.094C110.201 130.698 111.191 130.5 112.343 130.5C113.519 130.5 114.527 130.704 115.367 131.112C116.207 131.52 116.873 132.09 117.365 132.822C117.857 133.554 118.157 134.418 118.265 135.414H116.465C116.369 134.67 116.129 134.058 115.745 133.578C115.361 133.086 114.875 132.72 114.287 132.48C113.711 132.24 113.063 132.12 112.343 132.12C111.563 132.12 110.879 132.258 110.291 132.534C109.703 132.798 109.211 133.176 108.815 133.668C108.431 134.148 108.137 134.706 107.933 135.342C107.741 135.978 107.645 136.668 107.645 137.412C107.645 138.12 107.741 138.792 107.933 139.428C108.137 140.064 108.437 140.628 108.833 141.12C109.241 141.612 109.745 142.002 110.345 142.29C110.945 142.566 111.647 142.704 112.451 142.704C113.579 142.704 114.527 142.422 115.295 141.858C116.063 141.294 116.531 140.478 116.699 139.41H118.499C118.379 140.31 118.073 141.132 117.581 141.876C117.101 142.62 116.429 143.214 115.565 143.658C114.713 144.102 113.675 144.324 112.451 144.324Z" fill="white"/>
<path d="M120.91 144V130.86H122.638V144H120.91ZM119.578 132.228V130.86H122.638V132.228H119.578Z" fill="white"/>
<path d="M131.766 144V141.12H131.478V137.79C131.478 137.13 131.304 136.632 130.956 136.296C130.62 135.96 130.122 135.792 129.462 135.792C129.09 135.792 128.706 135.798 128.31 135.81C127.914 135.822 127.536 135.834 127.176 135.846C126.816 135.858 126.504 135.876 126.24 135.9V134.388C126.504 134.364 126.78 134.346 127.068 134.334C127.368 134.31 127.674 134.298 127.986 134.298C128.298 134.286 128.598 134.28 128.886 134.28C129.87 134.28 130.674 134.4 131.298 134.64C131.922 134.868 132.384 135.246 132.684 135.774C132.984 136.302 133.134 137.016 133.134 137.916V144H131.766ZM128.616 144.252C127.896 144.252 127.272 144.132 126.744 143.892C126.228 143.64 125.826 143.28 125.538 142.812C125.262 142.344 125.124 141.78 125.124 141.12C125.124 140.436 125.274 139.866 125.574 139.41C125.886 138.954 126.336 138.612 126.924 138.384C127.512 138.144 128.22 138.024 129.048 138.024H131.658V139.32H128.976C128.28 139.32 127.746 139.488 127.374 139.824C127.002 140.16 126.816 140.592 126.816 141.12C126.816 141.648 127.002 142.074 127.374 142.398C127.746 142.722 128.28 142.884 128.976 142.884C129.384 142.884 129.774 142.812 130.146 142.668C130.518 142.512 130.824 142.26 131.064 141.912C131.316 141.552 131.454 141.06 131.478 140.436L131.946 141.12C131.886 141.804 131.718 142.38 131.442 142.848C131.178 143.304 130.806 143.652 130.326 143.892C129.858 144.132 129.288 144.252 128.616 144.252Z" fill="white"/>
<path d="M136.305 144V134.388H137.673V138.51H137.457C137.457 137.574 137.577 136.782 137.817 136.134C138.069 135.474 138.441 134.97 138.933 134.622C139.425 134.274 140.049 134.1 140.805 134.1H140.877C141.633 134.1 142.257 134.274 142.749 134.622C143.253 134.97 143.625 135.474 143.865 136.134C144.105 136.782 144.225 137.574 144.225 138.51H143.721C143.721 137.574 143.847 136.782 144.099 136.134C144.351 135.474 144.723 134.97 145.215 134.622C145.719 134.274 146.349 134.1 147.105 134.1H147.177C147.933 134.1 148.563 134.274 149.067 134.622C149.571 134.97 149.943 135.474 150.183 136.134C150.435 136.782 150.561 137.574 150.561 138.51V144H148.833V138.132C148.833 137.352 148.641 136.752 148.257 136.332C147.873 135.9 147.339 135.684 146.655 135.684C145.947 135.684 145.377 135.912 144.945 136.368C144.513 136.812 144.297 137.436 144.297 138.24V144H142.569V138.132C142.569 137.352 142.377 136.752 141.993 136.332C141.609 135.9 141.075 135.684 140.391 135.684C139.683 135.684 139.113 135.912 138.681 136.368C138.249 136.812 138.033 137.436 138.033 138.24V144H136.305Z" fill="white"/>
<path d="M153.725 147.6V134.388H155.093V138.546L154.769 138.51C154.829 137.478 155.045 136.638 155.417 135.99C155.801 135.33 156.299 134.844 156.911 134.532C157.523 134.22 158.189 134.064 158.909 134.064C159.605 134.064 160.235 134.196 160.799 134.46C161.375 134.724 161.867 135.084 162.275 135.54C162.683 135.996 162.995 136.524 163.211 137.124C163.427 137.724 163.535 138.36 163.535 139.032V139.356C163.535 140.028 163.421 140.664 163.193 141.264C162.965 141.864 162.641 142.392 162.221 142.848C161.813 143.304 161.321 143.664 160.745 143.928C160.181 144.192 159.557 144.324 158.873 144.324C158.189 144.324 157.535 144.174 156.911 143.874C156.287 143.574 155.771 143.088 155.363 142.416C154.955 141.744 154.721 140.862 154.661 139.77L155.453 141.21V147.6H153.725ZM158.603 142.812C159.251 142.812 159.815 142.662 160.295 142.362C160.775 142.05 161.147 141.624 161.411 141.084C161.675 140.532 161.807 139.902 161.807 139.194C161.807 138.474 161.675 137.844 161.411 137.304C161.147 136.764 160.775 136.344 160.295 136.044C159.815 135.732 159.251 135.576 158.603 135.576C158.027 135.576 157.493 135.708 157.001 135.972C156.509 136.224 156.113 136.596 155.813 137.088C155.525 137.568 155.381 138.15 155.381 138.834V139.662C155.381 140.322 155.531 140.886 155.831 141.354C156.131 141.822 156.527 142.182 157.019 142.434C157.511 142.686 158.039 142.812 158.603 142.812Z" fill="white"/>
<path d="M169.285 144.288C168.025 144.288 167.047 144.018 166.351 143.478C165.667 142.938 165.313 142.2 165.289 141.264H166.909C166.933 141.636 167.119 141.99 167.467 142.326C167.827 142.65 168.433 142.812 169.285 142.812C170.053 142.812 170.641 142.662 171.049 142.362C171.457 142.05 171.661 141.672 171.661 141.228C171.661 140.832 171.511 140.526 171.211 140.31C170.911 140.082 170.425 139.932 169.753 139.86L168.709 139.752C167.797 139.656 167.053 139.386 166.477 138.942C165.901 138.486 165.613 137.85 165.613 137.034C165.613 136.422 165.769 135.9 166.081 135.468C166.393 135.024 166.825 134.688 167.377 134.46C167.929 134.22 168.565 134.1 169.285 134.1C170.365 134.1 171.241 134.34 171.913 134.82C172.585 135.3 172.933 136.014 172.957 136.962H171.337C171.325 136.578 171.145 136.254 170.797 135.99C170.461 135.714 169.957 135.576 169.285 135.576C168.613 135.576 168.103 135.714 167.755 135.99C167.407 136.266 167.233 136.614 167.233 137.034C167.233 137.394 167.353 137.682 167.593 137.898C167.845 138.114 168.253 138.252 168.817 138.312L169.861 138.42C170.893 138.528 171.721 138.816 172.345 139.284C172.969 139.74 173.281 140.388 173.281 141.228C173.281 141.828 173.107 142.362 172.759 142.83C172.423 143.286 171.955 143.646 171.355 143.91C170.755 144.162 170.065 144.288 169.285 144.288Z" fill="white"/>
<path d="M185.696 144V141.12H185.408V137.79C185.408 137.13 185.234 136.632 184.886 136.296C184.55 135.96 184.052 135.792 183.392 135.792C183.02 135.792 182.636 135.798 182.24 135.81C181.844 135.822 181.466 135.834 181.106 135.846C180.746 135.858 180.434 135.876 180.17 135.9V134.388C180.434 134.364 180.71 134.346 180.998 134.334C181.298 134.31 181.604 134.298 181.916 134.298C182.228 134.286 182.528 134.28 182.816 134.28C183.8 134.28 184.604 134.4 185.228 134.64C185.852 134.868 186.314 135.246 186.614 135.774C186.914 136.302 187.064 137.016 187.064 137.916V144H185.696ZM182.546 144.252C181.826 144.252 181.202 144.132 180.674 143.892C180.158 143.64 179.756 143.28 179.468 142.812C179.192 142.344 179.054 141.78 179.054 141.12C179.054 140.436 179.204 139.866 179.504 139.41C179.816 138.954 180.266 138.612 180.854 138.384C181.442 138.144 182.15 138.024 182.978 138.024H185.588V139.32H182.906C182.21 139.32 181.676 139.488 181.304 139.824C180.932 140.16 180.746 140.592 180.746 141.12C180.746 141.648 180.932 142.074 181.304 142.398C181.676 142.722 182.21 142.884 182.906 142.884C183.314 142.884 183.704 142.812 184.076 142.668C184.448 142.512 184.754 142.26 184.994 141.912C185.246 141.552 185.384 141.06 185.408 140.436L185.876 141.12C185.816 141.804 185.648 142.38 185.372 142.848C185.108 143.304 184.736 143.652 184.256 143.892C183.788 144.132 183.218 144.252 182.546 144.252Z" fill="white"/>
<path d="M190.235 144V134.388H191.603V138.51H191.387C191.387 137.562 191.513 136.764 191.765 136.116C192.029 135.456 192.425 134.958 192.953 134.622C193.481 134.274 194.147 134.1 194.951 134.1H195.023C196.235 134.1 197.129 134.478 197.705 135.234C198.293 135.99 198.587 137.082 198.587 138.51V144H196.859V138.15C196.859 137.406 196.649 136.812 196.229 136.368C195.809 135.912 195.233 135.684 194.501 135.684C193.745 135.684 193.133 135.918 192.665 136.386C192.197 136.854 191.963 137.478 191.963 138.258V144H190.235Z" fill="white"/>
<path d="M205.763 144.324C205.079 144.324 204.449 144.198 203.873 143.946C203.297 143.694 202.793 143.34 202.361 142.884C201.941 142.428 201.611 141.9 201.371 141.3C201.143 140.7 201.029 140.052 201.029 139.356V139.032C201.029 138.348 201.143 137.706 201.371 137.106C201.599 136.506 201.917 135.978 202.325 135.522C202.745 135.066 203.237 134.712 203.801 134.46C204.377 134.196 205.013 134.064 205.709 134.064C206.441 134.064 207.107 134.22 207.707 134.532C208.307 134.832 208.799 135.306 209.183 135.954C209.567 136.602 209.783 137.442 209.831 138.474L209.111 137.322V130.86H210.839V144H209.471V139.734H209.975C209.927 140.826 209.699 141.714 209.291 142.398C208.883 143.07 208.367 143.562 207.743 143.874C207.131 144.174 206.471 144.324 205.763 144.324ZM205.997 142.812C206.585 142.812 207.119 142.68 207.599 142.416C208.079 142.152 208.463 141.774 208.751 141.282C209.039 140.778 209.183 140.19 209.183 139.518V138.69C209.183 138.03 209.033 137.472 208.733 137.016C208.445 136.548 208.055 136.194 207.563 135.954C207.083 135.702 206.555 135.576 205.979 135.576C205.343 135.576 204.779 135.726 204.287 136.026C203.807 136.326 203.429 136.746 203.153 137.286C202.889 137.826 202.757 138.462 202.757 139.194C202.757 139.926 202.895 140.568 203.171 141.12C203.447 141.66 203.831 142.08 204.323 142.38C204.815 142.668 205.373 142.812 205.997 142.812Z" fill="white"/>
<path d="M108.575 167.324C107.375 167.324 106.349 167.114 105.497 166.694C104.657 166.274 103.979 165.728 103.463 165.056C102.947 164.384 102.569 163.658 102.329 162.878C102.089 162.086 101.969 161.324 101.969 160.592V160.196C101.969 159.404 102.089 158.612 102.329 157.82C102.581 157.028 102.965 156.308 103.481 155.66C103.997 155.012 104.669 154.49 105.497 154.094C106.325 153.698 107.315 153.5 108.467 153.5C109.643 153.5 110.651 153.704 111.491 154.112C112.331 154.52 112.997 155.09 113.489 155.822C113.981 156.554 114.281 157.418 114.389 158.414H112.589C112.493 157.67 112.253 157.058 111.869 156.578C111.485 156.086 110.999 155.72 110.411 155.48C109.835 155.24 109.187 155.12 108.467 155.12C107.687 155.12 107.003 155.258 106.415 155.534C105.827 155.798 105.335 156.176 104.939 156.668C104.555 157.148 104.261 157.706 104.057 158.342C103.865 158.978 103.769 159.668 103.769 160.412C103.769 161.12 103.865 161.792 104.057 162.428C104.261 163.064 104.561 163.628 104.957 164.12C105.365 164.612 105.869 165.002 106.469 165.29C107.069 165.566 107.771 165.704 108.575 165.704C109.703 165.704 110.651 165.422 111.419 164.858C112.187 164.294 112.655 163.478 112.823 162.41H114.623C114.503 163.31 114.197 164.132 113.705 164.876C113.225 165.62 112.553 166.214 111.689 166.658C110.837 167.102 109.799 167.324 108.575 167.324Z" fill="white"/>
<path d="M117.034 167V153.86H118.762V167H117.034ZM115.702 155.228V153.86H118.762V155.228H115.702Z" fill="white"/>
<path d="M126.162 167.324C125.322 167.324 124.596 167.18 123.984 166.892C123.372 166.604 122.874 166.226 122.49 165.758C122.106 165.278 121.818 164.744 121.626 164.156C121.446 163.568 121.356 162.968 121.356 162.356V162.032C121.356 161.408 121.446 160.802 121.626 160.214C121.818 159.626 122.106 159.098 122.49 158.63C122.874 158.15 123.36 157.772 123.948 157.496C124.548 157.208 125.25 157.064 126.054 157.064C127.098 157.064 127.956 157.292 128.628 157.748C129.312 158.192 129.816 158.768 130.14 159.476C130.476 160.184 130.644 160.94 130.644 161.744V162.518H122.112V161.222H129.384L128.988 161.924C128.988 161.24 128.88 160.652 128.664 160.16C128.448 159.656 128.124 159.266 127.692 158.99C127.26 158.714 126.714 158.576 126.054 158.576C125.37 158.576 124.8 158.732 124.344 159.044C123.9 159.356 123.564 159.782 123.336 160.322C123.12 160.862 123.012 161.486 123.012 162.194C123.012 162.878 123.12 163.496 123.336 164.048C123.564 164.588 123.912 165.02 124.38 165.344C124.848 165.656 125.442 165.812 126.162 165.812C126.918 165.812 127.53 165.644 127.998 165.308C128.478 164.972 128.766 164.582 128.862 164.138H130.482C130.35 164.798 130.086 165.368 129.69 165.848C129.294 166.328 128.796 166.694 128.196 166.946C127.596 167.198 126.918 167.324 126.162 167.324Z" fill="white"/>
<path d="M138.911 167V164.12H138.623V160.79C138.623 160.13 138.449 159.632 138.101 159.296C137.765 158.96 137.267 158.792 136.607 158.792C136.235 158.792 135.851 158.798 135.455 158.81C135.059 158.822 134.681 158.834 134.321 158.846C133.961 158.858 133.649 158.876 133.385 158.9V157.388C133.649 157.364 133.925 157.346 134.213 157.334C134.513 157.31 134.819 157.298 135.131 157.298C135.443 157.286 135.743 157.28 136.031 157.28C137.015 157.28 137.819 157.4 138.443 157.64C139.067 157.868 139.529 158.246 139.829 158.774C140.129 159.302 140.279 160.016 140.279 160.916V167H138.911ZM135.761 167.252C135.041 167.252 134.417 167.132 133.889 166.892C133.373 166.64 132.971 166.28 132.683 165.812C132.407 165.344 132.269 164.78 132.269 164.12C132.269 163.436 132.419 162.866 132.719 162.41C133.031 161.954 133.481 161.612 134.069 161.384C134.657 161.144 135.365 161.024 136.193 161.024H138.803V162.32H136.121C135.425 162.32 134.891 162.488 134.519 162.824C134.147 163.16 133.961 163.592 133.961 164.12C133.961 164.648 134.147 165.074 134.519 165.398C134.891 165.722 135.425 165.884 136.121 165.884C136.529 165.884 136.919 165.812 137.291 165.668C137.663 165.512 137.969 165.26 138.209 164.912C138.461 164.552 138.599 164.06 138.623 163.436L139.091 164.12C139.031 164.804 138.863 165.38 138.587 165.848C138.323 166.304 137.951 166.652 137.471 166.892C137.003 167.132 136.433 167.252 135.761 167.252Z" fill="white"/>
<path d="M147.195 167.108C146.475 167.108 145.851 167.006 145.323 166.802C144.807 166.598 144.405 166.25 144.117 165.758C143.841 165.254 143.703 164.576 143.703 163.724V154.472H145.359V163.94C145.359 164.456 145.497 164.858 145.773 165.146C146.061 165.422 146.463 165.56 146.979 165.56H148.671V167.108H147.195ZM142.047 158.684V157.388H148.671V158.684H142.047Z" fill="white"/>
<path d="M154.195 167.288C152.935 167.288 151.957 167.018 151.261 166.478C150.577 165.938 150.223 165.2 150.199 164.264H151.819C151.843 164.636 152.029 164.99 152.377 165.326C152.737 165.65 153.343 165.812 154.195 165.812C154.963 165.812 155.551 165.662 155.959 165.362C156.367 165.05 156.571 164.672 156.571 164.228C156.571 163.832 156.421 163.526 156.121 163.31C155.821 163.082 155.335 162.932 154.663 162.86L153.619 162.752C152.707 162.656 151.963 162.386 151.387 161.942C150.811 161.486 150.523 160.85 150.523 160.034C150.523 159.422 150.679 158.9 150.991 158.468C151.303 158.024 151.735 157.688 152.287 157.46C152.839 157.22 153.475 157.1 154.195 157.1C155.275 157.1 156.151 157.34 156.823 157.82C157.495 158.3 157.843 159.014 157.867 159.962H156.247C156.235 159.578 156.055 159.254 155.707 158.99C155.371 158.714 154.867 158.576 154.195 158.576C153.523 158.576 153.013 158.714 152.665 158.99C152.317 159.266 152.143 159.614 152.143 160.034C152.143 160.394 152.263 160.682 152.503 160.898C152.755 161.114 153.163 161.252 153.727 161.312L154.771 161.42C155.803 161.528 156.631 161.816 157.255 162.284C157.879 162.74 158.191 163.388 158.191 164.228C158.191 164.828 158.017 165.362 157.669 165.83C157.333 166.286 156.865 166.646 156.265 166.91C155.665 167.162 154.975 167.288 154.195 167.288Z" fill="white"/>
</svg>
