<svg width="260" height="260" viewBox="0 0 260 260" fill="none" xmlns="http://www.w3.org/2000/svg">
<path d="M0 0H260V260H0V0Z" fill="#172673"/>
<path d="M177.627 79.0045C177.843 79.0045 178.009 79.0608 178.126 79.1733C178.246 79.2882 178.307 79.4502 178.307 79.6618V81.8658C178.307 82.3047 178.079 82.5231 177.627 82.5231H167.49C167.19 82.5231 166.918 82.5366 166.677 82.5591C166.438 82.5839 166.22 82.6199 166.029 82.6694C165.842 82.7167 165.675 82.7797 165.529 82.8585C165.383 82.9373 165.254 83.0319 165.146 83.1399C165.036 83.248 164.944 83.3786 164.867 83.5271C164.79 83.678 164.73 83.8513 164.685 84.0426C164.64 84.243 164.606 84.4659 164.583 84.7113C164.561 84.9566 164.55 85.229 164.55 85.5307V85.6162H177.51C177.719 85.6162 177.883 85.6725 177.996 85.7873C178.108 85.9021 178.167 86.0642 178.167 86.2736V88.106C178.167 88.3154 178.111 88.4797 177.996 88.5923C177.881 88.7049 177.719 88.7634 177.51 88.7634H164.55V89.011C164.55 89.3127 164.561 89.5851 164.583 89.8304C164.606 90.0758 164.64 90.2987 164.685 90.499C164.727 90.6926 164.79 90.866 164.867 91.0146C164.944 91.1631 165.036 91.2915 165.144 91.4018C165.254 91.5121 165.383 91.6044 165.527 91.6832C165.673 91.762 165.842 91.825 166.026 91.8723C166.218 91.9195 166.434 91.9578 166.675 91.9826C166.916 92.0073 167.188 92.0186 167.487 92.0186H177.624C177.841 92.0186 178.007 92.0749 178.124 92.1874C178.244 92.3022 178.304 92.4643 178.304 92.6759V94.8798C178.304 95.3166 178.077 95.5372 177.624 95.5372H167.418C166.231 95.5372 165.22 95.4269 164.387 95.2085C163.967 95.0982 163.584 94.9496 163.239 94.7695C162.893 94.5872 162.587 94.3688 162.319 94.1167C162.051 93.8646 161.817 93.5719 161.621 93.2455C161.425 92.9191 161.265 92.5544 161.141 92.1514C161.02 91.753 160.927 91.3117 160.867 90.83C160.806 90.3482 160.777 89.8259 160.777 89.2654V85.2763C160.777 84.1507 160.898 83.1917 161.144 82.4038C161.267 82.0076 161.427 81.6451 161.623 81.3187C161.819 80.9923 162.053 80.7019 162.321 80.4498C162.589 80.1976 162.897 79.977 163.242 79.7947C163.584 79.6123 163.969 79.4637 164.39 79.3489C165.223 79.1216 166.233 79.0068 167.42 79.0068H177.627V79.0045ZM197.117 92.4711H200.348V79.6596C200.348 79.2229 200.575 79.0023 201.028 79.0023H203.533C203.743 79.0023 203.907 79.0585 204.02 79.1733C204.132 79.2882 204.191 79.4502 204.191 79.6596V94.8776C204.191 95.087 204.132 95.249 204.02 95.3638C203.905 95.4764 203.743 95.5349 203.533 95.5349H195.519C195.413 95.5349 195.319 95.5282 195.24 95.5147C195.152 95.4989 195.08 95.4764 195.026 95.4426C194.977 95.4134 194.929 95.3751 194.882 95.3278C194.839 95.2851 194.794 95.231 194.751 95.1702L191.134 90.4067H183.86V94.8753C183.86 95.0847 183.802 95.2468 183.689 95.3616C183.574 95.4742 183.412 95.5327 183.203 95.5327H180.697C180.481 95.5327 180.312 95.4764 180.195 95.3638C180.076 95.249 180.015 95.087 180.015 94.8753V79.8442C180.015 79.5718 180.087 79.3624 180.234 79.2184C180.378 79.0743 180.587 79 180.859 79H193.315C195.134 79 196.447 79.4187 197.248 80.2517C198.049 81.0846 198.45 82.3092 198.45 83.9256V85.247C198.45 86.6067 198.171 87.6873 197.61 88.4842C197.327 88.8895 196.955 89.2226 196.496 89.4793C196.1 89.7021 195.638 89.8687 195.114 89.9813L197.117 92.4643V92.4711ZM183.86 87.2844H192.597C192.978 87.2844 193.302 87.2438 193.563 87.1628C193.815 87.0862 194.015 86.9714 194.162 86.8184C194.308 86.6653 194.421 86.4694 194.493 86.2308C194.569 85.9877 194.607 85.6973 194.607 85.3641V84.3893C194.607 84.0562 194.569 83.7658 194.493 83.5226C194.418 83.2863 194.308 83.0904 194.162 82.9351C194.018 82.7842 193.817 82.6694 193.563 82.5906C193.299 82.5096 192.978 82.4691 192.597 82.4691H184.013C183.91 82.4691 183.858 82.5118 183.858 82.5996V87.2776L183.86 87.2844ZM222.587 79.0023C222.797 79.0023 222.961 79.0585 223.074 79.1733C223.186 79.2882 223.245 79.4502 223.245 79.6596V81.8635C223.245 82.0729 223.188 82.2372 223.074 82.3498C222.959 82.4623 222.797 82.5209 222.587 82.5209H210.967C210.76 82.5209 210.584 82.5479 210.442 82.5996C210.309 82.6469 210.206 82.719 210.129 82.8158C209.965 83.0206 209.884 83.3065 209.884 83.6757V84.4636C209.884 85.2313 210.237 85.6162 210.944 85.6162H219.643C220.329 85.6162 220.937 85.704 221.457 85.8819C221.984 86.062 222.428 86.3321 222.785 86.6923C223.141 87.0502 223.409 87.4892 223.585 88.0025C223.76 88.509 223.848 89.0943 223.848 89.7516V91.6089C223.848 92.1897 223.76 92.7165 223.589 93.1892C223.416 93.6642 223.155 94.0852 222.81 94.4476C222.461 94.8123 222.016 95.0869 221.475 95.267C220.942 95.4471 220.314 95.5372 219.596 95.5372H206.744C206.527 95.5372 206.361 95.4809 206.244 95.3683C206.124 95.2535 206.064 95.0915 206.064 94.8798V92.6759C206.064 92.4643 206.124 92.3022 206.244 92.1874C206.361 92.0749 206.527 92.0186 206.744 92.0186H218.922C219.13 92.0186 219.305 91.9916 219.447 91.9398C219.58 91.8925 219.686 91.8182 219.76 91.7237C219.924 91.5188 220.005 91.2329 220.005 90.8637V89.9115C220.005 89.1438 219.652 88.7589 218.945 88.7589H210.246C209.557 88.7589 208.952 88.6688 208.43 88.4932C207.903 88.3154 207.459 88.043 207.101 87.6828C206.746 87.3226 206.478 86.8859 206.302 86.3726C206.127 85.8639 206.039 85.2808 206.039 84.6235V82.9306C206.039 82.3498 206.124 81.823 206.298 81.3502C206.471 80.8752 206.732 80.4543 207.077 80.0918C207.426 79.7271 207.871 79.4525 208.412 79.2724C208.945 79.0923 209.573 79.0023 210.291 79.0023H222.587Z" fill="#96989A"/>
<path fill-rule="evenodd" clip-rule="evenodd" d="M126.995 95.3436C125.816 95.3436 124.636 95.3526 123.456 95.3413C122.574 95.3323 121.701 95.249 120.841 95.0329C118.972 94.5624 117.871 93.3648 117.473 91.4963C117.322 90.7894 117.254 90.0736 117.252 89.3532C117.245 87.9507 117.243 86.5482 117.252 85.148C117.257 84.3421 117.333 83.5429 117.534 82.7595C118.004 80.9405 119.193 79.8712 120.996 79.4457C121.743 79.2679 122.504 79.1756 123.272 79.1733C125.937 79.1666 128.605 79.1621 131.27 79.1756C132.137 79.1801 132.995 79.2904 133.832 79.5268C135.631 80.0333 136.682 81.2197 137.056 83.0364C137.2 83.7365 137.263 84.4456 137.263 85.1592C137.263 86.7913 137.301 88.4234 137.236 90.0556C137.209 90.7467 137.101 91.4265 136.898 92.0884C136.41 93.68 135.311 94.6187 133.724 95.0284C132.851 95.2535 131.961 95.3391 131.063 95.3458C129.706 95.3571 128.351 95.3481 126.995 95.3481V95.3436ZM145.018 95.3458C142.895 95.3458 140.773 95.3458 138.652 95.3458C138.055 95.3458 137.855 95.1455 137.855 94.5422C137.855 93.9208 137.855 93.3018 137.855 92.6804C137.855 92.0681 138.058 91.8655 138.668 91.8655C142.499 91.8655 146.329 91.8655 150.16 91.8655C150.23 91.8655 150.297 91.8655 150.367 91.8655C151.162 91.861 151.445 91.5954 151.472 90.7962C151.486 90.391 151.497 89.9835 151.457 89.5783C151.403 89.0515 151.126 88.7769 150.601 88.7319C150.502 88.7229 150.403 88.7274 150.302 88.7274C147.535 88.7274 144.771 88.7251 142.004 88.7274C141.428 88.7274 140.858 88.6711 140.304 88.5022C139.116 88.1398 138.326 87.3541 138.037 86.1588C137.697 84.7518 137.711 83.3065 137.981 81.8973C138.265 80.4182 139.345 79.493 140.831 79.2544C141.234 79.1891 141.637 79.1598 142.042 79.1598C146.002 79.1621 149.964 79.1598 153.926 79.1621C155.083 79.1621 154.674 80.9068 154.674 81.8748C154.671 82.4398 154.482 82.6312 153.913 82.6312C150.243 82.6312 146.572 82.6312 142.902 82.6312C142.758 82.6312 142.612 82.6357 142.465 82.6469C141.981 82.6852 141.709 82.9396 141.655 83.4236C141.603 83.8896 141.606 84.3578 141.655 84.8238C141.707 85.3011 142.011 85.5757 142.495 85.6005C142.67 85.6095 142.846 85.6072 143.024 85.6072C145.689 85.6072 148.357 85.6072 151.022 85.6072C151.583 85.6072 152.141 85.6477 152.681 85.8008C154.093 86.1993 154.89 87.1538 155.169 88.572C155.318 89.3307 155.252 90.0983 155.261 90.8637C155.268 91.3838 155.281 91.9038 155.18 92.4216C154.867 93.9951 153.8 95.0172 152.209 95.2535C151.806 95.3143 151.403 95.3436 150.995 95.3436C149.003 95.3413 147.011 95.3436 145.018 95.3436V95.3458ZM70.4727 89.9272C70.9994 90.5801 71.5105 91.2127 72.0147 91.8453C72.08 91.9285 72.1543 91.9443 72.2533 91.9443C73.586 91.942 74.9187 91.9398 76.2537 91.9466C76.4023 91.9466 76.4653 91.888 76.5306 91.7687C77.4243 90.1231 78.3225 88.4797 79.2208 86.8364C80.2766 84.9048 81.3301 82.9711 82.3859 81.0396C82.5885 80.6681 82.8114 80.3124 83.086 79.9905C83.5453 79.4502 84.1351 79.1733 84.8352 79.1711C85.5083 79.1688 86.1837 79.1193 86.8545 79.2071C87.5344 79.2949 88.0769 79.6213 88.4979 80.1594C88.7162 80.4385 88.9008 80.7357 89.0719 81.0441C91.0305 84.6009 92.9912 88.1533 94.943 91.7124C95.0443 91.8948 95.1524 91.9511 95.3505 91.9466C95.8705 91.933 96.3928 91.9308 96.9128 91.9466C97.1424 91.9556 97.2167 91.9038 97.2145 91.6539C97.2055 88.3672 97.2077 85.0804 97.2077 81.7937C97.2077 81.465 97.2212 81.1341 97.2775 80.81C97.4621 79.7541 97.9416 79.2566 99.0109 79.1869C100.08 79.1193 101.154 79.1306 102.226 79.1959C102.829 79.2319 103.302 79.5133 103.687 79.9658C104.281 80.6659 104.814 81.4155 105.373 82.1449C107.757 85.2673 110.136 88.3919 112.516 91.5166C112.543 91.5526 112.574 91.5886 112.599 91.6269C112.68 91.7439 112.806 91.7282 112.912 91.7057C113.027 91.6809 112.973 91.5661 112.973 91.4918C112.975 87.6603 112.975 83.831 112.975 79.9995C112.975 79.9005 112.97 79.7992 112.984 79.7024C113.031 79.3467 113.223 79.1688 113.583 79.1666C114.411 79.1598 115.237 79.1598 116.066 79.1666C116.453 79.1688 116.656 79.3737 116.68 79.7609C116.685 79.8217 116.683 79.8825 116.683 79.9455C116.683 84.2205 116.683 88.4955 116.683 92.7727C116.683 93.1712 116.66 93.5697 116.563 93.9569C116.361 94.7628 115.877 95.1928 115.048 95.3053C114.821 95.3368 114.591 95.3526 114.362 95.3481C113.513 95.3301 112.662 95.3729 111.811 95.3188C111.14 95.2761 110.609 94.9811 110.197 94.4701C109.765 93.9343 109.344 93.3873 108.925 92.8403C106.422 89.5693 103.923 86.2938 101.422 83.0229C101.384 82.9733 101.343 82.9283 101.305 82.881C101.217 82.7752 101.095 82.7797 100.987 82.8112C100.879 82.8428 100.933 82.9576 100.933 83.0319C100.931 86.8476 100.931 90.6634 100.931 94.4791C100.931 94.5782 100.933 94.6795 100.924 94.7785C100.9 95.1095 100.704 95.3143 100.375 95.3481C100.292 95.3571 100.206 95.3526 100.123 95.3526C97.8786 95.3526 95.6319 95.3458 93.3875 95.3593C92.9507 95.3616 92.6828 95.195 92.4735 94.8123C90.3281 90.8547 88.1715 86.9016 86.0171 82.9463C85.9586 82.8383 85.9315 82.7032 85.7514 82.7054C85.5691 82.7077 85.5488 82.8495 85.4926 82.9553C83.3674 86.9062 81.2423 90.8592 79.1262 94.8146C78.9191 95.1995 78.6445 95.3616 78.21 95.3593C76.2492 95.3481 74.2884 95.4314 72.3254 95.3999C71.7806 95.3909 71.2381 95.3661 70.6933 95.3503C70.4276 95.3436 70.2205 95.2288 70.0742 95.0127C68.3633 92.4981 66.4385 90.1434 64.7029 87.6468C64.6398 87.5545 64.5363 87.4667 64.6061 87.3384C64.6714 87.2191 64.7952 87.2618 64.8987 87.2618C65.9095 87.2596 66.9225 87.2596 67.9333 87.2596C68.2102 87.2596 68.4826 87.2326 68.755 87.1786C69.3516 87.057 69.723 86.6945 69.8356 86.1025C69.9752 85.3663 69.9684 84.6189 69.8603 83.8828C69.741 83.0724 69.2705 82.6874 68.4331 82.6222C68.235 82.6064 68.0346 82.6019 67.8365 82.5996C65.1464 82.5974 62.4585 82.5996 59.7683 82.5996C59.4531 82.5996 59.4531 82.5996 59.4531 82.9103C59.4531 86.7868 59.4531 90.6634 59.4531 94.5399C59.4531 95.177 59.273 95.3526 58.6314 95.3526C57.8885 95.3526 57.1457 95.3548 56.4028 95.3526C55.8873 95.3503 55.6711 95.1387 55.6711 94.63C55.6689 89.7719 55.6689 84.9139 55.6711 80.0558C55.6711 79.421 55.921 79.1711 56.5423 79.1688C60.6643 79.1688 64.7862 79.1688 68.9081 79.1711C69.5452 79.1711 70.1755 79.2499 70.7923 79.4165C72.3637 79.8419 73.2371 80.909 73.5568 82.4623C73.7977 83.6374 73.7076 84.8261 73.6738 86.0124C73.6626 86.4334 73.5725 86.8476 73.4532 87.2528C73.039 88.6801 72.08 89.5243 70.6573 89.8777C70.6055 89.8912 70.556 89.907 70.4704 89.9295L70.4727 89.9272ZM54.2484 79.1643C54.3564 79.1643 54.4645 79.1598 54.5703 79.1711C54.872 79.2049 55.0768 79.394 55.0813 79.6934C55.0926 80.5196 55.0926 81.348 55.0813 82.1742C55.0768 82.4691 54.8675 82.6672 54.5748 82.7077C54.4623 82.7235 54.3452 82.7257 54.2304 82.7257C52.0535 82.7257 49.8788 82.7302 47.702 82.7212C47.4971 82.7212 47.4521 82.7752 47.4521 82.9756C47.4588 86.8071 47.4566 90.6364 47.4566 94.4679C47.4566 94.5602 47.4588 94.6525 47.4543 94.7448C47.4363 95.1095 47.227 95.3391 46.8623 95.3436C46.4233 95.3481 45.9843 95.3526 45.5453 95.3526C45.1063 95.3526 44.6674 95.3503 44.2284 95.3436C43.8637 95.3391 43.6543 95.1095 43.6363 94.7448C43.6318 94.6525 43.6341 94.5602 43.6341 94.4679C43.6341 90.6364 43.6318 86.8071 43.6386 82.9756C43.6386 82.7752 43.5935 82.7212 43.3887 82.7212C41.2118 82.7302 39.0371 82.7257 36.8603 82.7257C36.7454 82.7257 36.6306 82.7235 36.5158 82.7077C36.2232 82.6694 36.0138 82.4713 36.0093 82.1742C35.9958 81.3457 35.998 80.5196 36.0093 79.6934C36.0138 79.394 36.2209 79.2049 36.5203 79.1711C36.6261 79.1598 36.7342 79.1643 36.8422 79.1643H54.2484ZM156.416 80.6659C156.416 83.5159 156.416 78.2729 156.416 80.6659ZM155.955 80.8482C156.166 85.1525 155.72 76.0374 155.955 80.8482ZM127.515 82.6334C128.58 82.6492 129.89 82.6086 131.201 82.6537C131.468 82.6627 131.734 82.7054 131.995 82.7617C132.83 82.9418 133.24 83.5069 133.377 84.3105C133.438 84.6662 133.474 85.0242 133.474 85.3844C133.474 86.6338 133.474 87.8809 133.474 89.1281C133.474 89.4883 133.44 89.8462 133.375 90.2019C133.197 91.1902 132.666 91.6809 131.644 91.8047C131.432 91.8295 131.216 91.8543 131.005 91.8543C128.492 91.8565 125.98 91.8565 123.47 91.8543C123.171 91.8543 122.873 91.8115 122.583 91.7507C121.752 91.5729 121.309 91.0956 121.154 90.2221C121.095 89.898 121.057 89.5716 121.057 89.2406C121.059 87.8764 121.059 86.5144 121.059 85.1502C121.059 84.8351 121.1 84.5244 121.165 84.216C121.358 83.284 121.876 82.8248 122.844 82.6964C123.247 82.6424 123.652 82.6312 124.058 82.6289C125.129 82.6267 126.201 82.6267 127.518 82.6267L127.515 82.6334Z" fill="#FEFEFE"/>
<path d="M38.6473 130V116.86H40.4113V130H38.6473ZM40.0513 130V128.416H46.4233V130H40.0513ZM40.0513 124.114V122.53H45.8653V124.114H40.0513ZM40.0513 118.444V116.86H46.2433V118.444H40.0513Z" fill="white"/>
<path d="M56.3393 133.6V127.138L57.0233 125.77C56.9873 126.814 56.7773 127.672 56.3933 128.344C56.0093 129.016 55.5113 129.514 54.8993 129.838C54.2993 130.162 53.6393 130.324 52.9193 130.324C52.2353 130.324 51.6053 130.192 51.0293 129.928C50.4653 129.664 49.9733 129.298 49.5533 128.83C49.1453 128.362 48.8273 127.828 48.5993 127.228C48.3713 126.616 48.2573 125.968 48.2573 125.284V124.96C48.2573 124.276 48.3713 123.64 48.5993 123.052C48.8273 122.464 49.1513 121.948 49.5713 121.504C49.9913 121.048 50.4893 120.694 51.0653 120.442C51.6413 120.19 52.2833 120.064 52.9913 120.064C53.8073 120.064 54.5213 120.238 55.1333 120.586C55.7573 120.934 56.2493 121.438 56.6093 122.098C56.9693 122.758 57.1673 123.562 57.2033 124.51H56.6993V120.388H58.0673V133.6H56.3393ZM53.2253 128.74C53.8133 128.74 54.3473 128.608 54.8273 128.344C55.3073 128.08 55.6913 127.702 55.9793 127.21C56.2673 126.706 56.4113 126.118 56.4113 125.446V124.618C56.4113 123.958 56.2613 123.4 55.9613 122.944C55.6733 122.476 55.2833 122.122 54.7913 121.882C54.3113 121.63 53.7893 121.504 53.2253 121.504C52.5773 121.504 52.0073 121.654 51.5153 121.954C51.0353 122.254 50.6573 122.68 50.3813 123.232C50.1173 123.772 49.9853 124.402 49.9853 125.122C49.9853 125.842 50.1233 126.478 50.3993 127.03C50.6753 127.57 51.0593 127.99 51.5513 128.29C52.0433 128.59 52.6013 128.74 53.2253 128.74Z" fill="white"/>
<path d="M64.7174 130.288C63.5774 130.288 62.7014 129.916 62.0894 129.172C61.4774 128.428 61.1714 127.354 61.1714 125.95V120.37H62.8994V126.292C62.8994 127.048 63.1034 127.642 63.5114 128.074C63.9194 128.494 64.4714 128.704 65.1674 128.704C65.8874 128.704 66.4754 128.476 66.9314 128.02C67.3874 127.552 67.6154 126.916 67.6154 126.112V120.37H69.3434V130H67.9754V125.878H68.1914C68.1914 126.826 68.0654 127.63 67.8134 128.29C67.5614 128.938 67.1834 129.436 66.6794 129.784C66.1874 130.12 65.5574 130.288 64.7894 130.288H64.7174Z" fill="white"/>
<path d="M73.1582 130V120.388H74.8862V130H73.1582ZM71.6822 121.756V120.388H74.8862V121.756H71.6822ZM73.6442 118.84C73.2602 118.84 72.9722 118.738 72.7802 118.534C72.6002 118.33 72.5102 118.072 72.5102 117.76C72.5102 117.448 72.6002 117.19 72.7802 116.986C72.9722 116.782 73.2602 116.68 73.6442 116.68C74.0282 116.68 74.3102 116.782 74.4902 116.986C74.6822 117.19 74.7782 117.448 74.7782 117.76C74.7782 118.072 74.6822 118.33 74.4902 118.534C74.3102 118.738 74.0282 118.84 73.6442 118.84Z" fill="white"/>
<path d="M78.2273 133.6V120.388H79.5953V124.546L79.2713 124.51C79.3313 123.478 79.5473 122.638 79.9193 121.99C80.3033 121.33 80.8013 120.844 81.4133 120.532C82.0253 120.22 82.6913 120.064 83.4113 120.064C84.1073 120.064 84.7373 120.196 85.3013 120.46C85.8773 120.724 86.3693 121.084 86.7773 121.54C87.1853 121.996 87.4973 122.524 87.7133 123.124C87.9293 123.724 88.0373 124.36 88.0373 125.032V125.356C88.0373 126.028 87.9233 126.664 87.6953 127.264C87.4673 127.864 87.1433 128.392 86.7233 128.848C86.3153 129.304 85.8233 129.664 85.2473 129.928C84.6833 130.192 84.0593 130.324 83.3753 130.324C82.6913 130.324 82.0373 130.174 81.4133 129.874C80.7893 129.574 80.2733 129.088 79.8653 128.416C79.4573 127.744 79.2233 126.862 79.1633 125.77L79.9553 127.21V133.6H78.2273ZM83.1053 128.812C83.7533 128.812 84.3173 128.662 84.7973 128.362C85.2773 128.05 85.6493 127.624 85.9133 127.084C86.1773 126.532 86.3093 125.902 86.3093 125.194C86.3093 124.474 86.1773 123.844 85.9133 123.304C85.6493 122.764 85.2773 122.344 84.7973 122.044C84.3173 121.732 83.7533 121.576 83.1053 121.576C82.5293 121.576 81.9953 121.708 81.5033 121.972C81.0113 122.224 80.6153 122.596 80.3153 123.088C80.0273 123.568 79.8833 124.15 79.8833 124.834V125.662C79.8833 126.322 80.0333 126.886 80.3333 127.354C80.6333 127.822 81.0293 128.182 81.5213 128.434C82.0133 128.686 82.5413 128.812 83.1053 128.812Z" fill="white"/>
<path d="M90.6374 130V120.388H92.0054V124.51H91.7894C91.7894 123.574 91.9094 122.782 92.1494 122.134C92.4014 121.474 92.7734 120.97 93.2654 120.622C93.7574 120.274 94.3814 120.1 95.1374 120.1H95.2094C95.9654 120.1 96.5894 120.274 97.0814 120.622C97.5854 120.97 97.9574 121.474 98.1974 122.134C98.4374 122.782 98.5574 123.574 98.5574 124.51H98.0534C98.0534 123.574 98.1794 122.782 98.4314 122.134C98.6834 121.474 99.0554 120.97 99.5474 120.622C100.051 120.274 100.681 120.1 101.437 120.1H101.509C102.265 120.1 102.895 120.274 103.399 120.622C103.903 120.97 104.275 121.474 104.515 122.134C104.767 122.782 104.893 123.574 104.893 124.51V130H103.165V124.132C103.165 123.352 102.973 122.752 102.589 122.332C102.205 121.9 101.671 121.684 100.987 121.684C100.279 121.684 99.7094 121.912 99.2774 122.368C98.8454 122.812 98.6294 123.436 98.6294 124.24V130H96.9014V124.132C96.9014 123.352 96.7094 122.752 96.3254 122.332C95.9414 121.9 95.4074 121.684 94.7234 121.684C94.0154 121.684 93.4454 121.912 93.0134 122.368C92.5814 122.812 92.3654 123.436 92.3654 124.24V130H90.6374Z" fill="white"/>
<path d="M112.143 130.324C111.303 130.324 110.577 130.18 109.965 129.892C109.353 129.604 108.855 129.226 108.471 128.758C108.087 128.278 107.799 127.744 107.607 127.156C107.427 126.568 107.337 125.968 107.337 125.356V125.032C107.337 124.408 107.427 123.802 107.607 123.214C107.799 122.626 108.087 122.098 108.471 121.63C108.855 121.15 109.341 120.772 109.929 120.496C110.529 120.208 111.231 120.064 112.035 120.064C113.079 120.064 113.937 120.292 114.609 120.748C115.293 121.192 115.797 121.768 116.121 122.476C116.457 123.184 116.625 123.94 116.625 124.744V125.518H108.093V124.222H115.365L114.969 124.924C114.969 124.24 114.861 123.652 114.645 123.16C114.429 122.656 114.105 122.266 113.673 121.99C113.241 121.714 112.695 121.576 112.035 121.576C111.351 121.576 110.781 121.732 110.325 122.044C109.881 122.356 109.545 122.782 109.317 123.322C109.101 123.862 108.993 124.486 108.993 125.194C108.993 125.878 109.101 126.496 109.317 127.048C109.545 127.588 109.893 128.02 110.361 128.344C110.829 128.656 111.423 128.812 112.143 128.812C112.899 128.812 113.511 128.644 113.979 128.308C114.459 127.972 114.747 127.582 114.843 127.138H116.463C116.331 127.798 116.067 128.368 115.671 128.848C115.275 129.328 114.777 129.694 114.177 129.946C113.577 130.198 112.899 130.324 112.143 130.324Z" fill="white"/>
<path d="M119.079 130V120.388H120.447V124.51H120.231C120.231 123.562 120.357 122.764 120.609 122.116C120.873 121.456 121.269 120.958 121.797 120.622C122.325 120.274 122.991 120.1 123.795 120.1H123.867C125.079 120.1 125.973 120.478 126.549 121.234C127.137 121.99 127.431 123.082 127.431 124.51V130H125.703V124.15C125.703 123.406 125.493 122.812 125.073 122.368C124.653 121.912 124.077 121.684 123.345 121.684C122.589 121.684 121.977 121.918 121.509 122.386C121.041 122.854 120.807 123.478 120.807 124.258V130H119.079Z" fill="white"/>
<path d="M134.337 130.108C133.617 130.108 132.993 130.006 132.465 129.802C131.949 129.598 131.547 129.25 131.259 128.758C130.983 128.254 130.845 127.576 130.845 126.724V117.472H132.501V126.94C132.501 127.456 132.639 127.858 132.915 128.146C133.203 128.422 133.605 128.56 134.121 128.56H135.813V130.108H134.337ZM129.189 121.684V120.388H135.813V121.684H129.189Z" fill="white"/>
<path d="M142.604 130V116.788H144.368V130H142.604ZM150.722 130L146.366 124.15H148.436L152.864 130H150.722ZM143.702 125.248V123.682H147.23C147.782 123.682 148.256 123.568 148.652 123.34C149.048 123.112 149.354 122.8 149.57 122.404C149.786 121.996 149.894 121.534 149.894 121.018C149.894 120.502 149.786 120.046 149.57 119.65C149.354 119.242 149.048 118.924 148.652 118.696C148.256 118.456 147.782 118.336 147.23 118.336H143.702V116.788H146.906C147.866 116.788 148.706 116.932 149.426 117.22C150.146 117.508 150.704 117.952 151.1 118.552C151.496 119.152 151.694 119.926 151.694 120.874V121.162C151.694 122.11 151.49 122.884 151.082 123.484C150.686 124.084 150.128 124.528 149.408 124.816C148.7 125.104 147.866 125.248 146.906 125.248H143.702Z" fill="white"/>
<path d="M160.77 130V127.12H160.482V123.79C160.482 123.13 160.308 122.632 159.96 122.296C159.624 121.96 159.126 121.792 158.466 121.792C158.094 121.792 157.71 121.798 157.314 121.81C156.918 121.822 156.54 121.834 156.18 121.846C155.82 121.858 155.508 121.876 155.244 121.9V120.388C155.508 120.364 155.784 120.346 156.072 120.334C156.372 120.31 156.678 120.298 156.99 120.298C157.302 120.286 157.602 120.28 157.89 120.28C158.874 120.28 159.678 120.4 160.302 120.64C160.926 120.868 161.388 121.246 161.688 121.774C161.988 122.302 162.138 123.016 162.138 123.916V130H160.77ZM157.62 130.252C156.9 130.252 156.276 130.132 155.748 129.892C155.232 129.64 154.83 129.28 154.542 128.812C154.266 128.344 154.128 127.78 154.128 127.12C154.128 126.436 154.278 125.866 154.578 125.41C154.89 124.954 155.34 124.612 155.928 124.384C156.516 124.144 157.224 124.024 158.052 124.024H160.662V125.32H157.98C157.284 125.32 156.75 125.488 156.378 125.824C156.006 126.16 155.82 126.592 155.82 127.12C155.82 127.648 156.006 128.074 156.378 128.398C156.75 128.722 157.284 128.884 157.98 128.884C158.388 128.884 158.778 128.812 159.15 128.668C159.522 128.512 159.828 128.26 160.068 127.912C160.32 127.552 160.458 127.06 160.482 126.436L160.95 127.12C160.89 127.804 160.722 128.38 160.446 128.848C160.182 129.304 159.81 129.652 159.33 129.892C158.862 130.132 158.292 130.252 157.62 130.252Z" fill="white"/>
<path d="M169.431 130.324C168.603 130.324 167.883 130.18 167.271 129.892C166.671 129.604 166.173 129.22 165.777 128.74C165.381 128.248 165.081 127.708 164.877 127.12C164.685 126.532 164.589 125.944 164.589 125.356V125.032C164.589 124.42 164.685 123.82 164.877 123.232C165.081 122.644 165.381 122.116 165.777 121.648C166.185 121.168 166.689 120.784 167.289 120.496C167.889 120.208 168.591 120.064 169.395 120.064C170.199 120.064 170.919 120.214 171.555 120.514C172.203 120.814 172.719 121.24 173.103 121.792C173.499 122.332 173.721 122.974 173.769 123.718H172.113C172.029 123.118 171.753 122.62 171.285 122.224C170.817 121.816 170.187 121.612 169.395 121.612C168.711 121.612 168.141 121.768 167.685 122.08C167.229 122.392 166.887 122.818 166.659 123.358C166.431 123.898 166.317 124.51 166.317 125.194C166.317 125.854 166.431 126.46 166.659 127.012C166.887 127.552 167.229 127.984 167.685 128.308C168.153 128.62 168.735 128.776 169.431 128.776C169.971 128.776 170.439 128.68 170.835 128.488C171.231 128.296 171.549 128.038 171.789 127.714C172.029 127.39 172.173 127.024 172.221 126.616H173.877C173.841 127.372 173.619 128.026 173.211 128.578C172.815 129.13 172.287 129.562 171.627 129.874C170.979 130.174 170.247 130.324 169.431 130.324Z" fill="white"/>
<path d="M182.849 130L179.231 125.518H177.647L182.057 120.388H183.875L179.879 125.014L180.005 124.096L184.847 130H182.849ZM176.225 130V116.86H177.953V130H176.225Z" fill="white"/>
<path d="M196.453 130V127.12H196.165V123.79C196.165 123.13 195.991 122.632 195.643 122.296C195.307 121.96 194.809 121.792 194.149 121.792C193.777 121.792 193.393 121.798 192.997 121.81C192.601 121.822 192.223 121.834 191.863 121.846C191.503 121.858 191.191 121.876 190.927 121.9V120.388C191.191 120.364 191.467 120.346 191.755 120.334C192.055 120.31 192.361 120.298 192.673 120.298C192.985 120.286 193.285 120.28 193.573 120.28C194.557 120.28 195.361 120.4 195.985 120.64C196.609 120.868 197.071 121.246 197.371 121.774C197.671 122.302 197.821 123.016 197.821 123.916V130H196.453ZM193.303 130.252C192.583 130.252 191.959 130.132 191.431 129.892C190.915 129.64 190.513 129.28 190.225 128.812C189.949 128.344 189.811 127.78 189.811 127.12C189.811 126.436 189.961 125.866 190.261 125.41C190.573 124.954 191.023 124.612 191.611 124.384C192.199 124.144 192.907 124.024 193.735 124.024H196.345V125.32H193.663C192.967 125.32 192.433 125.488 192.061 125.824C191.689 126.16 191.503 126.592 191.503 127.12C191.503 127.648 191.689 128.074 192.061 128.398C192.433 128.722 192.967 128.884 193.663 128.884C194.071 128.884 194.461 128.812 194.833 128.668C195.205 128.512 195.511 128.26 195.751 127.912C196.003 127.552 196.141 127.06 196.165 126.436L196.633 127.12C196.573 127.804 196.405 128.38 196.129 128.848C195.865 129.304 195.493 129.652 195.013 129.892C194.545 130.132 193.975 130.252 193.303 130.252Z" fill="white"/>
<path d="M200.993 130V120.388H202.361V124.51H202.145C202.145 123.562 202.271 122.764 202.523 122.116C202.787 121.456 203.183 120.958 203.711 120.622C204.239 120.274 204.905 120.1 205.709 120.1H205.781C206.993 120.1 207.887 120.478 208.463 121.234C209.051 121.99 209.345 123.082 209.345 124.51V130H207.617V124.15C207.617 123.406 207.407 122.812 206.987 122.368C206.567 121.912 205.991 121.684 205.259 121.684C204.503 121.684 203.891 121.918 203.423 122.386C202.955 122.854 202.721 123.478 202.721 124.258V130H200.993Z" fill="white"/>
<path d="M216.521 130.324C215.837 130.324 215.207 130.198 214.631 129.946C214.055 129.694 213.551 129.34 213.119 128.884C212.699 128.428 212.369 127.9 212.129 127.3C211.901 126.7 211.787 126.052 211.787 125.356V125.032C211.787 124.348 211.901 123.706 212.129 123.106C212.357 122.506 212.675 121.978 213.083 121.522C213.503 121.066 213.995 120.712 214.559 120.46C215.135 120.196 215.771 120.064 216.467 120.064C217.199 120.064 217.865 120.22 218.465 120.532C219.065 120.832 219.557 121.306 219.941 121.954C220.325 122.602 220.541 123.442 220.589 124.474L219.869 123.322V116.86H221.597V130H220.229V125.734H220.733C220.685 126.826 220.457 127.714 220.049 128.398C219.641 129.07 219.125 129.562 218.501 129.874C217.889 130.174 217.229 130.324 216.521 130.324ZM216.755 128.812C217.343 128.812 217.877 128.68 218.357 128.416C218.837 128.152 219.221 127.774 219.509 127.282C219.797 126.778 219.941 126.19 219.941 125.518V124.69C219.941 124.03 219.791 123.472 219.491 123.016C219.203 122.548 218.813 122.194 218.321 121.954C217.841 121.702 217.313 121.576 216.737 121.576C216.101 121.576 215.537 121.726 215.045 122.026C214.565 122.326 214.187 122.746 213.911 123.286C213.647 123.826 213.515 124.462 213.515 125.194C213.515 125.926 213.653 126.568 213.929 127.12C214.205 127.66 214.589 128.08 215.081 128.38C215.573 128.668 216.131 128.812 216.755 128.812Z" fill="white"/>
<path d="M57.9489 153V139.86H59.7129V153H57.9489Z" fill="white"/>
<path d="M63.321 153V143.388H64.689V147.51H64.473C64.473 146.562 64.599 145.764 64.851 145.116C65.115 144.456 65.511 143.958 66.039 143.622C66.567 143.274 67.233 143.1 68.037 143.1H68.109C69.321 143.1 70.215 143.478 70.791 144.234C71.379 144.99 71.673 146.082 71.673 147.51V153H69.945V147.15C69.945 146.406 69.735 145.812 69.315 145.368C68.895 144.912 68.319 144.684 67.587 144.684C66.831 144.684 66.219 144.918 65.751 145.386C65.283 145.854 65.049 146.478 65.049 147.258V153H63.321Z" fill="white"/>
<path d="M77.9847 153.288C76.7247 153.288 75.7467 153.018 75.0507 152.478C74.3667 151.938 74.0127 151.2 73.9887 150.264H75.6087C75.6327 150.636 75.8187 150.99 76.1667 151.326C76.5267 151.65 77.1327 151.812 77.9847 151.812C78.7527 151.812 79.3407 151.662 79.7487 151.362C80.1567 151.05 80.3607 150.672 80.3607 150.228C80.3607 149.832 80.2107 149.526 79.9107 149.31C79.6107 149.082 79.1247 148.932 78.4527 148.86L77.4087 148.752C76.4967 148.656 75.7527 148.386 75.1767 147.942C74.6007 147.486 74.3127 146.85 74.3127 146.034C74.3127 145.422 74.4687 144.9 74.7807 144.468C75.0927 144.024 75.5247 143.688 76.0767 143.46C76.6287 143.22 77.2647 143.1 77.9847 143.1C79.0647 143.1 79.9407 143.34 80.6127 143.82C81.2847 144.3 81.6327 145.014 81.6567 145.962H80.0367C80.0247 145.578 79.8447 145.254 79.4967 144.99C79.1607 144.714 78.6567 144.576 77.9847 144.576C77.3127 144.576 76.8027 144.714 76.4547 144.99C76.1067 145.266 75.9327 145.614 75.9327 146.034C75.9327 146.394 76.0527 146.682 76.2927 146.898C76.5447 147.114 76.9527 147.252 77.5167 147.312L78.5607 147.42C79.5927 147.528 80.4207 147.816 81.0447 148.284C81.6687 148.74 81.9807 149.388 81.9807 150.228C81.9807 150.828 81.8067 151.362 81.4587 151.83C81.1227 152.286 80.6547 152.646 80.0547 152.91C79.4547 153.162 78.7647 153.288 77.9847 153.288Z" fill="white"/>
<path d="M88.2291 153.108C87.5091 153.108 86.8851 153.006 86.3571 152.802C85.8411 152.598 85.4391 152.25 85.1511 151.758C84.8751 151.254 84.7371 150.576 84.7371 149.724V140.472H86.3931V149.94C86.3931 150.456 86.5311 150.858 86.8071 151.146C87.0951 151.422 87.4971 151.56 88.0131 151.56H89.7051V153.108H88.2291ZM83.0811 144.684V143.388H89.7051V144.684H83.0811Z" fill="white"/>
<path d="M92.1492 153V143.388H93.5172V147.348H93.4452C93.4452 145.944 93.7512 144.918 94.3632 144.27C94.9872 143.61 95.9172 143.28 97.1532 143.28H97.4772V144.828H96.8652C95.9052 144.828 95.1672 145.086 94.6512 145.602C94.1352 146.106 93.8772 146.838 93.8772 147.798V153H92.1492Z" fill="white"/>
<path d="M102.862 153.288C101.722 153.288 100.846 152.916 100.234 152.172C99.622 151.428 99.316 150.354 99.316 148.95V143.37H101.044V149.292C101.044 150.048 101.248 150.642 101.656 151.074C102.064 151.494 102.616 151.704 103.312 151.704C104.032 151.704 104.62 151.476 105.076 151.02C105.532 150.552 105.76 149.916 105.76 149.112V143.37H107.488V153H106.12V148.878H106.336C106.336 149.826 106.21 150.63 105.958 151.29C105.706 151.938 105.328 152.436 104.824 152.784C104.332 153.12 103.702 153.288 102.934 153.288H102.862Z" fill="white"/>
<path d="M110.835 153V143.388H112.203V147.51H111.987C111.987 146.574 112.107 145.782 112.347 145.134C112.599 144.474 112.971 143.97 113.463 143.622C113.955 143.274 114.579 143.1 115.335 143.1H115.407C116.163 143.1 116.787 143.274 117.279 143.622C117.783 143.97 118.155 144.474 118.395 145.134C118.635 145.782 118.755 146.574 118.755 147.51H118.251C118.251 146.574 118.377 145.782 118.629 145.134C118.881 144.474 119.253 143.97 119.745 143.622C120.249 143.274 120.879 143.1 121.635 143.1H121.707C122.463 143.1 123.093 143.274 123.597 143.622C124.101 143.97 124.473 144.474 124.713 145.134C124.965 145.782 125.091 146.574 125.091 147.51V153H123.363V147.132C123.363 146.352 123.171 145.752 122.787 145.332C122.403 144.9 121.869 144.684 121.185 144.684C120.477 144.684 119.907 144.912 119.475 145.368C119.043 145.812 118.827 146.436 118.827 147.24V153H117.099V147.132C117.099 146.352 116.907 145.752 116.523 145.332C116.139 144.9 115.605 144.684 114.921 144.684C114.213 144.684 113.643 144.912 113.211 145.368C112.779 145.812 112.563 146.436 112.563 147.24V153H110.835Z" fill="white"/>
<path d="M132.341 153.324C131.501 153.324 130.775 153.18 130.163 152.892C129.551 152.604 129.053 152.226 128.669 151.758C128.285 151.278 127.997 150.744 127.805 150.156C127.625 149.568 127.535 148.968 127.535 148.356V148.032C127.535 147.408 127.625 146.802 127.805 146.214C127.997 145.626 128.285 145.098 128.669 144.63C129.053 144.15 129.539 143.772 130.127 143.496C130.727 143.208 131.429 143.064 132.233 143.064C133.277 143.064 134.135 143.292 134.807 143.748C135.491 144.192 135.995 144.768 136.319 145.476C136.655 146.184 136.823 146.94 136.823 147.744V148.518H128.291V147.222H135.563L135.167 147.924C135.167 147.24 135.059 146.652 134.843 146.16C134.627 145.656 134.303 145.266 133.871 144.99C133.439 144.714 132.893 144.576 132.233 144.576C131.549 144.576 130.979 144.732 130.523 145.044C130.079 145.356 129.743 145.782 129.515 146.322C129.299 146.862 129.191 147.486 129.191 148.194C129.191 148.878 129.299 149.496 129.515 150.048C129.743 150.588 130.091 151.02 130.559 151.344C131.027 151.656 131.621 151.812 132.341 151.812C133.097 151.812 133.709 151.644 134.177 151.308C134.657 150.972 134.945 150.582 135.041 150.138H136.661C136.529 150.798 136.265 151.368 135.869 151.848C135.473 152.328 134.975 152.694 134.375 152.946C133.775 153.198 133.097 153.324 132.341 153.324Z" fill="white"/>
<path d="M139.276 153V143.388H140.644V147.51H140.428C140.428 146.562 140.554 145.764 140.806 145.116C141.07 144.456 141.466 143.958 141.994 143.622C142.522 143.274 143.188 143.1 143.992 143.1H144.064C145.276 143.1 146.17 143.478 146.746 144.234C147.334 144.99 147.628 146.082 147.628 147.51V153H145.9V147.15C145.9 146.406 145.69 145.812 145.27 145.368C144.85 144.912 144.274 144.684 143.542 144.684C142.786 144.684 142.174 144.918 141.706 145.386C141.238 145.854 141.004 146.478 141.004 147.258V153H139.276Z" fill="white"/>
<path d="M154.534 153.108C153.814 153.108 153.19 153.006 152.662 152.802C152.146 152.598 151.744 152.25 151.456 151.758C151.18 151.254 151.042 150.576 151.042 149.724V140.472H152.698V149.94C152.698 150.456 152.836 150.858 153.112 151.146C153.4 151.422 153.802 151.56 154.318 151.56H156.01V153.108H154.534ZM149.386 144.684V143.388H156.01V144.684H149.386Z" fill="white"/>
<path d="M164.233 153V150.12H163.945V146.79C163.945 146.13 163.771 145.632 163.423 145.296C163.087 144.96 162.589 144.792 161.929 144.792C161.557 144.792 161.173 144.798 160.777 144.81C160.381 144.822 160.003 144.834 159.643 144.846C159.283 144.858 158.971 144.876 158.707 144.9V143.388C158.971 143.364 159.247 143.346 159.535 143.334C159.835 143.31 160.141 143.298 160.453 143.298C160.765 143.286 161.065 143.28 161.353 143.28C162.337 143.28 163.141 143.4 163.765 143.64C164.389 143.868 164.851 144.246 165.151 144.774C165.451 145.302 165.601 146.016 165.601 146.916V153H164.233ZM161.083 153.252C160.363 153.252 159.739 153.132 159.211 152.892C158.695 152.64 158.293 152.28 158.005 151.812C157.729 151.344 157.591 150.78 157.591 150.12C157.591 149.436 157.741 148.866 158.041 148.41C158.353 147.954 158.803 147.612 159.391 147.384C159.979 147.144 160.687 147.024 161.515 147.024H164.125V148.32H161.443C160.747 148.32 160.213 148.488 159.841 148.824C159.469 149.16 159.283 149.592 159.283 150.12C159.283 150.648 159.469 151.074 159.841 151.398C160.213 151.722 160.747 151.884 161.443 151.884C161.851 151.884 162.241 151.812 162.613 151.668C162.985 151.512 163.291 151.26 163.531 150.912C163.783 150.552 163.921 150.06 163.945 149.436L164.413 150.12C164.353 150.804 164.185 151.38 163.909 151.848C163.645 152.304 163.273 152.652 162.793 152.892C162.325 153.132 161.755 153.252 161.083 153.252Z" fill="white"/>
<path d="M172.516 153.108C171.796 153.108 171.172 153.006 170.644 152.802C170.128 152.598 169.726 152.25 169.438 151.758C169.162 151.254 169.024 150.576 169.024 149.724V140.472H170.68V149.94C170.68 150.456 170.818 150.858 171.094 151.146C171.382 151.422 171.784 151.56 172.3 151.56H173.992V153.108H172.516ZM167.368 144.684V143.388H173.992V144.684H167.368Z" fill="white"/>
<path d="M176.904 153V143.388H178.632V153H176.904ZM175.428 144.756V143.388H178.632V144.756H175.428ZM177.39 141.84C177.006 141.84 176.718 141.738 176.526 141.534C176.346 141.33 176.256 141.072 176.256 140.76C176.256 140.448 176.346 140.19 176.526 139.986C176.718 139.782 177.006 139.68 177.39 139.68C177.774 139.68 178.056 139.782 178.236 139.986C178.428 140.19 178.524 140.448 178.524 140.76C178.524 141.072 178.428 141.33 178.236 141.534C178.056 141.738 177.774 141.84 177.39 141.84Z" fill="white"/>
<path d="M186.401 153.324C185.561 153.324 184.823 153.18 184.187 152.892C183.551 152.604 183.011 152.226 182.567 151.758C182.135 151.278 181.805 150.744 181.577 150.156C181.361 149.568 181.253 148.968 181.253 148.356V148.032C181.253 147.42 181.367 146.82 181.595 146.232C181.823 145.632 182.159 145.098 182.603 144.63C183.047 144.15 183.587 143.772 184.223 143.496C184.859 143.208 185.585 143.064 186.401 143.064C187.217 143.064 187.943 143.208 188.579 143.496C189.215 143.772 189.755 144.15 190.199 144.63C190.643 145.098 190.979 145.632 191.207 146.232C191.435 146.82 191.549 147.42 191.549 148.032V148.356C191.549 148.968 191.435 149.568 191.207 150.156C190.991 150.744 190.661 151.278 190.217 151.758C189.785 152.226 189.251 152.604 188.615 152.892C187.979 153.18 187.241 153.324 186.401 153.324ZM186.401 151.776C187.121 151.776 187.733 151.62 188.237 151.308C188.753 150.984 189.143 150.552 189.407 150.012C189.683 149.472 189.821 148.866 189.821 148.194C189.821 147.51 189.683 146.898 189.407 146.358C189.131 145.818 188.735 145.392 188.219 145.08C187.715 144.768 187.109 144.612 186.401 144.612C185.705 144.612 185.099 144.768 184.583 145.08C184.067 145.392 183.671 145.818 183.395 146.358C183.119 146.898 182.981 147.51 182.981 148.194C182.981 148.866 183.113 149.472 183.377 150.012C183.653 150.552 184.043 150.984 184.547 151.308C185.063 151.62 185.681 151.776 186.401 151.776Z" fill="white"/>
<path d="M194.137 153V143.388H195.505V147.51H195.289C195.289 146.562 195.415 145.764 195.667 145.116C195.931 144.456 196.327 143.958 196.855 143.622C197.383 143.274 198.049 143.1 198.853 143.1H198.925C200.137 143.1 201.031 143.478 201.607 144.234C202.195 144.99 202.489 146.082 202.489 147.51V153H200.761V147.15C200.761 146.406 200.551 145.812 200.131 145.368C199.711 144.912 199.135 144.684 198.403 144.684C197.647 144.684 197.035 144.918 196.567 145.386C196.099 145.854 195.865 146.478 195.865 147.258V153H194.137Z" fill="white"/>
<path d="M98.214 176.324C97.122 176.324 96.192 176.144 95.424 175.784C94.656 175.424 94.068 174.926 93.66 174.29C93.252 173.654 93.048 172.934 93.048 172.13H94.812C94.812 172.526 94.914 172.922 95.118 173.318C95.334 173.714 95.688 174.044 96.18 174.308C96.684 174.572 97.362 174.704 98.214 174.704C99.006 174.704 99.654 174.59 100.158 174.362C100.662 174.122 101.034 173.816 101.274 173.444C101.514 173.06 101.634 172.646 101.634 172.202C101.634 171.662 101.4 171.218 100.932 170.87C100.464 170.51 99.78 170.288 98.88 170.204L97.422 170.078C96.258 169.982 95.328 169.622 94.632 168.998C93.936 168.374 93.588 167.552 93.588 166.532C93.588 165.728 93.78 165.026 94.164 164.426C94.56 163.826 95.106 163.358 95.802 163.022C96.498 162.674 97.308 162.5 98.232 162.5C99.144 162.5 99.948 162.668 100.644 163.004C101.34 163.34 101.88 163.814 102.264 164.426C102.66 165.026 102.858 165.746 102.858 166.586H101.094C101.094 166.166 100.992 165.77 100.788 165.398C100.596 165.026 100.29 164.72 99.87 164.48C99.45 164.24 98.904 164.12 98.232 164.12C97.584 164.12 97.044 164.234 96.612 164.462C96.192 164.69 95.874 164.99 95.658 165.362C95.454 165.722 95.352 166.112 95.352 166.532C95.352 167.012 95.538 167.438 95.91 167.81C96.282 168.182 96.834 168.398 97.566 168.458L99.024 168.584C99.924 168.656 100.698 168.848 101.346 169.16C102.006 169.46 102.51 169.868 102.858 170.384C103.218 170.888 103.398 171.494 103.398 172.202C103.398 173.006 103.182 173.72 102.75 174.344C102.318 174.968 101.712 175.454 100.932 175.802C100.152 176.15 99.246 176.324 98.214 176.324Z" fill="white"/>
<path d="M109.436 176.288C108.296 176.288 107.42 175.916 106.808 175.172C106.196 174.428 105.89 173.354 105.89 171.95V166.37H107.618V172.292C107.618 173.048 107.822 173.642 108.23 174.074C108.638 174.494 109.19 174.704 109.886 174.704C110.606 174.704 111.194 174.476 111.65 174.02C112.106 173.552 112.334 172.916 112.334 172.112V166.37H114.062V176H112.694V171.878H112.91C112.91 172.826 112.784 173.63 112.532 174.29C112.28 174.938 111.902 175.436 111.398 175.784C110.906 176.12 110.276 176.288 109.508 176.288H109.436Z" fill="white"/>
<path d="M117.409 179.6V166.388H118.777V170.546L118.453 170.51C118.513 169.478 118.729 168.638 119.101 167.99C119.485 167.33 119.983 166.844 120.595 166.532C121.207 166.22 121.873 166.064 122.593 166.064C123.289 166.064 123.919 166.196 124.483 166.46C125.059 166.724 125.551 167.084 125.959 167.54C126.367 167.996 126.679 168.524 126.895 169.124C127.111 169.724 127.219 170.36 127.219 171.032V171.356C127.219 172.028 127.105 172.664 126.877 173.264C126.649 173.864 126.325 174.392 125.905 174.848C125.497 175.304 125.005 175.664 124.429 175.928C123.865 176.192 123.241 176.324 122.557 176.324C121.873 176.324 121.219 176.174 120.595 175.874C119.971 175.574 119.455 175.088 119.047 174.416C118.639 173.744 118.405 172.862 118.345 171.77L119.137 173.21V179.6H117.409ZM122.287 174.812C122.935 174.812 123.499 174.662 123.979 174.362C124.459 174.05 124.831 173.624 125.095 173.084C125.359 172.532 125.491 171.902 125.491 171.194C125.491 170.474 125.359 169.844 125.095 169.304C124.831 168.764 124.459 168.344 123.979 168.044C123.499 167.732 122.935 167.576 122.287 167.576C121.711 167.576 121.177 167.708 120.685 167.972C120.193 168.224 119.797 168.596 119.497 169.088C119.209 169.568 119.065 170.15 119.065 170.834V171.662C119.065 172.322 119.215 172.886 119.515 173.354C119.815 173.822 120.211 174.182 120.703 174.434C121.195 174.686 121.723 174.812 122.287 174.812Z" fill="white"/>
<path d="M129.819 179.6V166.388H131.187V170.546L130.863 170.51C130.923 169.478 131.139 168.638 131.511 167.99C131.895 167.33 132.393 166.844 133.005 166.532C133.617 166.22 134.283 166.064 135.003 166.064C135.699 166.064 136.329 166.196 136.893 166.46C137.469 166.724 137.961 167.084 138.369 167.54C138.777 167.996 139.089 168.524 139.305 169.124C139.521 169.724 139.629 170.36 139.629 171.032V171.356C139.629 172.028 139.515 172.664 139.287 173.264C139.059 173.864 138.735 174.392 138.315 174.848C137.907 175.304 137.415 175.664 136.839 175.928C136.275 176.192 135.651 176.324 134.967 176.324C134.283 176.324 133.629 176.174 133.005 175.874C132.381 175.574 131.865 175.088 131.457 174.416C131.049 173.744 130.815 172.862 130.755 171.77L131.547 173.21V179.6H129.819ZM134.697 174.812C135.345 174.812 135.909 174.662 136.389 174.362C136.869 174.05 137.241 173.624 137.505 173.084C137.769 172.532 137.901 171.902 137.901 171.194C137.901 170.474 137.769 169.844 137.505 169.304C137.241 168.764 136.869 168.344 136.389 168.044C135.909 167.732 135.345 167.576 134.697 167.576C134.121 167.576 133.587 167.708 133.095 167.972C132.603 168.224 132.207 168.596 131.907 169.088C131.619 169.568 131.475 170.15 131.475 170.834V171.662C131.475 172.322 131.625 172.886 131.925 173.354C132.225 173.822 132.621 174.182 133.113 174.434C133.605 174.686 134.133 174.812 134.697 174.812Z" fill="white"/>
<path d="M146.657 176.324C145.817 176.324 145.079 176.18 144.443 175.892C143.807 175.604 143.267 175.226 142.823 174.758C142.391 174.278 142.061 173.744 141.833 173.156C141.617 172.568 141.509 171.968 141.509 171.356V171.032C141.509 170.42 141.623 169.82 141.851 169.232C142.079 168.632 142.415 168.098 142.859 167.63C143.303 167.15 143.843 166.772 144.479 166.496C145.115 166.208 145.841 166.064 146.657 166.064C147.473 166.064 148.199 166.208 148.835 166.496C149.471 166.772 150.011 167.15 150.455 167.63C150.899 168.098 151.235 168.632 151.463 169.232C151.691 169.82 151.805 170.42 151.805 171.032V171.356C151.805 171.968 151.691 172.568 151.463 173.156C151.247 173.744 150.917 174.278 150.473 174.758C150.041 175.226 149.507 175.604 148.871 175.892C148.235 176.18 147.497 176.324 146.657 176.324ZM146.657 174.776C147.377 174.776 147.989 174.62 148.493 174.308C149.009 173.984 149.399 173.552 149.663 173.012C149.939 172.472 150.077 171.866 150.077 171.194C150.077 170.51 149.939 169.898 149.663 169.358C149.387 168.818 148.991 168.392 148.475 168.08C147.971 167.768 147.365 167.612 146.657 167.612C145.961 167.612 145.355 167.768 144.839 168.08C144.323 168.392 143.927 168.818 143.651 169.358C143.375 169.898 143.237 170.51 143.237 171.194C143.237 171.866 143.369 172.472 143.633 173.012C143.909 173.552 144.299 173.984 144.803 174.308C145.319 174.62 145.937 174.776 146.657 174.776Z" fill="white"/>
<path d="M154.393 176V166.388H155.761V170.348H155.689C155.689 168.944 155.995 167.918 156.607 167.27C157.231 166.61 158.161 166.28 159.397 166.28H159.721V167.828H159.109C158.149 167.828 157.411 168.086 156.895 168.602C156.379 169.106 156.121 169.838 156.121 170.798V176H154.393Z" fill="white"/>
<path d="M165.696 176.108C164.976 176.108 164.352 176.006 163.824 175.802C163.308 175.598 162.906 175.25 162.618 174.758C162.342 174.254 162.204 173.576 162.204 172.724V163.472H163.86V172.94C163.86 173.456 163.998 173.858 164.274 174.146C164.562 174.422 164.964 174.56 165.48 174.56H167.172V176.108H165.696ZM160.548 167.684V166.388H167.172V167.684H160.548Z" fill="white"/>
</svg>
