<?xml version="1.0" encoding="UTF-8"?>
<!DOCTYPE svg PUBLIC "-//W3C//DTD SVG 1.1//EN" "http://www.w3.org/Graphics/SVG/1.1/DTD/svg11.dtd">
<!-- Creator: CorelDRAW 2019 (64-Bit) -->
<svg xmlns="http://www.w3.org/2000/svg" xml:space="preserve" width="2.87544in" height="0.498642in" version="1.1" style="shape-rendering:geometricPrecision; text-rendering:geometricPrecision; image-rendering:optimizeQuality; fill-rule:evenodd; clip-rule:evenodd"
viewBox="0 0 2545.91 441.5"
 xmlns:xlink="http://www.w3.org/1999/xlink"
 xmlns:xodm="http://www.corel.com/coreldraw/odm/2003">
 <defs>
  <style type="text/css">
   <![CDATA[
    .fil0 {fill:#ED3237}
   ]]>
  </style>
 </defs>
 <g id="Layer_x0020_1">
  <metadata id="CorelCorpID_0Corel-Layer"/>
  <g id="DKC.eps">
   <path class="fil0" d="M1.76 233.18c0,0 -6.05,55.45 16.13,84.68 0,0 59.48,118.96 316.55,114.92 0,0 151.21,6.05 254.04,-76.62 0,0 68.55,-48.38 48.39,-122.99 0,0 -23.19,71.58 -125.01,110.89 0,0 -79.64,37.31 -182.47,35.29 0,0 -86.71,6.05 -192.56,-32.26 0,0 -90.73,-25.2 -135.08,-113.92z"/>
   <path class="fil0" d="M0.76 136.39c0,0 -6.05,55.46 16.13,84.69 0,0 59.48,118.96 316.55,114.93 0,0 151.22,6.04 254.05,-76.61 0,0 68.55,-48.39 48.39,-123 0,0 -23.19,71.58 -125.01,110.9 0,0 -79.63,37.3 -182.47,35.28 0,0 -86.7,6.05 -192.55,-32.25 0,0 -90.73,-25.21 -135.09,-113.93z"/>
   <path class="fil0" d="M118.71 197.9l35.28 17.14c0,0 62.5,-33.27 174.4,-30.25 0,0 95.78,4.02 158.27,27.21l32.26 -17.14c0,0 -67.54,-47.38 -194.57,-47.38 0,0 -138.11,0 -205.65,50.42z"/>
   <path class="fil0" d="M80.4 154.56l15.12 23.18c0,0 71.57,-70.57 236.9,-63.51 0,0 125.01,-3.02 211.7,61.5l16.13 -15.12c0,0 -51.41,-80.64 -230.85,-84.68 0,0 -162.31,-8.06 -249,78.64z"/>
   <path class="fil0" d="M66.28 107.16l1.01 36.29c0,0 32.26,-63.52 108.87,-82.67 0,0 68.55,-22.17 159.28,-20.16 0,0 93.76,1.01 156.26,29.23 0,0 62.5,31.26 82.67,65.52l4.03 -41.31c0,0 -54.44,-56.46 -118.96,-75.62 0,0 -64.51,-21.16 -144.15,-18.15 0,0 -59.49,-4.03 -147.19,22.19 0,0 -80.65,26.2 -101.82,84.67z"/>
   <path class="fil0" d="M1073.14 34.87l-326.6 -1.16c0,0 -17.19,-2.3 -19.49,13.74l0 367.87c0,0 -2.29,20.63 20.63,19.49l308.27 0c0,0 307.11,-10.31 303.68,-222.32 0,0 20.63,-166.17 -286.49,-177.62zm120.32 183.35c4.58,169.61 -177.62,174.19 -177.62,174.19l-131.79 0 0 -316.3 129.49 0c191.38,11.46 179.91,142.11 179.91,142.11z"/>
   <path class="fil0" d="M1462.77 33.71c0,0 -18.33,-4.58 -18.33,17.19l0 363.28c0,0 -3.44,22.92 19.49,20.63l125.48 0c0,0 9.17,1.72 9.73,-7.45l0 -166.74 192.53 166.74c0,0 8.6,9.17 24.64,8.6l161.01 0 -253.83 -223.47c0,0 -6.88,-8.01 0.56,-14.32l237.22 -164.46 -102.55 0 -250.98 172.48c0,0 -9.74,4.57 -9.17,-1.14l-0.56 -166.18c0,0 1.13,-4.01 -7.46,-5.16l-127.78 0z"/>
   <path class="fil0" d="M2545.15 70.96c0,0 6.87,-14.6 -20.63,-21.49 0,0 -83.36,-24.92 -201.97,-21.49 0,0 -164.16,-0.86 -273.32,63.61 0,0 -95.4,48.99 -95.4,148.69 0,0 -0.85,105.71 126.35,158.14 0,0 73.92,40.4 229.49,42.98 0,0 134.94,2.57 195.96,-20.63 0,0 18.04,-1.72 18.9,-16.33 0,0 4.3,-18.05 12.04,-26.64 0,0 15.46,-14.61 -4.3,-18.91 0,0 -13.76,-5.16 -30.94,10.31 0,0 -53.29,30.09 -159,29.23 0,0 -198.55,8.59 -214.88,-135.8 0,0 -19.77,-128.92 103.99,-169.31 0,0 71.34,-25.79 144.4,-20.63 0,0 79.93,8.59 127.19,48.99 0,0 19.78,11.17 27.52,-7.74l14.6 -42.98z"/>
  </g>
 </g>
</svg>
