<svg width="260" height="260" viewBox="0 0 260 260" fill="none" xmlns="http://www.w3.org/2000/svg">
<path d="M0 0H260V260H0V0Z" fill="#172673"/>
<path d="M90.6406 123.383H92.1406C92.0625 124.102 91.8568 124.745 91.5234 125.312C91.1901 125.88 90.7188 126.331 90.1094 126.664C89.5 126.992 88.7396 127.156 87.8281 127.156C87.1615 127.156 86.5547 127.031 86.0078 126.781C85.4661 126.531 85 126.177 84.6094 125.719C84.2188 125.255 83.9167 124.701 83.7031 124.055C83.4948 123.404 83.3906 122.68 83.3906 121.883V120.75C83.3906 119.953 83.4948 119.232 83.7031 118.586C83.9167 117.935 84.2214 117.378 84.6172 116.914C85.0182 116.451 85.5 116.094 86.0625 115.844C86.625 115.594 87.2578 115.469 87.9609 115.469C88.8203 115.469 89.5469 115.63 90.1406 115.953C90.7344 116.276 91.1953 116.724 91.5234 117.297C91.8568 117.865 92.0625 118.523 92.1406 119.273H90.6406C90.5677 118.742 90.4323 118.286 90.2344 117.906C90.0365 117.521 89.7552 117.224 89.3906 117.016C89.026 116.807 88.5495 116.703 87.9609 116.703C87.4557 116.703 87.0104 116.799 86.625 116.992C86.2448 117.185 85.9245 117.458 85.6641 117.812C85.4089 118.167 85.2161 118.591 85.0859 119.086C84.9557 119.581 84.8906 120.13 84.8906 120.734V121.883C84.8906 122.44 84.9479 122.964 85.0625 123.453C85.1823 123.943 85.362 124.372 85.6016 124.742C85.8411 125.112 86.1458 125.404 86.5156 125.617C86.8854 125.826 87.3229 125.93 87.8281 125.93C88.4688 125.93 88.9792 125.828 89.3594 125.625C89.7396 125.422 90.026 125.13 90.2188 124.75C90.4167 124.37 90.5573 123.914 90.6406 123.383Z" fill="white"/>
<path d="M98.9609 125.555V121.203C98.9609 120.87 98.8932 120.581 98.7578 120.336C98.6276 120.086 98.4297 119.893 98.1641 119.758C97.8984 119.622 97.5703 119.555 97.1797 119.555C96.8151 119.555 96.4948 119.617 96.2188 119.742C95.9479 119.867 95.7344 120.031 95.5781 120.234C95.4271 120.438 95.3516 120.656 95.3516 120.891H93.9062C93.9062 120.589 93.9844 120.289 94.1406 119.992C94.2969 119.695 94.5208 119.427 94.8125 119.188C95.1094 118.943 95.4635 118.75 95.875 118.609C96.2917 118.464 96.7552 118.391 97.2656 118.391C97.8802 118.391 98.4219 118.495 98.8906 118.703C99.3646 118.911 99.7344 119.227 100 119.648C100.271 120.065 100.406 120.589 100.406 121.219V125.156C100.406 125.438 100.43 125.737 100.477 126.055C100.529 126.372 100.604 126.646 100.703 126.875V127H99.1953C99.1224 126.833 99.0651 126.612 99.0234 126.336C98.9818 126.055 98.9609 125.794 98.9609 125.555ZM99.2109 121.875L99.2266 122.891H97.7656C97.3542 122.891 96.987 122.924 96.6641 122.992C96.3411 123.055 96.0703 123.151 95.8516 123.281C95.6328 123.411 95.4661 123.576 95.3516 123.773C95.237 123.966 95.1797 124.193 95.1797 124.453C95.1797 124.719 95.2396 124.961 95.3594 125.18C95.4792 125.398 95.6589 125.573 95.8984 125.703C96.1432 125.828 96.4427 125.891 96.7969 125.891C97.2396 125.891 97.6302 125.797 97.9688 125.609C98.3073 125.422 98.5755 125.193 98.7734 124.922C98.9766 124.651 99.0859 124.388 99.1016 124.133L99.7188 124.828C99.6823 125.047 99.5833 125.289 99.4219 125.555C99.2604 125.82 99.0443 126.076 98.7734 126.32C98.5078 126.56 98.1901 126.76 97.8203 126.922C97.4557 127.078 97.0443 127.156 96.5859 127.156C96.013 127.156 95.5104 127.044 95.0781 126.82C94.651 126.596 94.3177 126.297 94.0781 125.922C93.8438 125.542 93.7266 125.117 93.7266 124.648C93.7266 124.195 93.8151 123.797 93.9922 123.453C94.1693 123.104 94.4245 122.815 94.7578 122.586C95.0911 122.352 95.4922 122.174 95.9609 122.055C96.4297 121.935 96.9531 121.875 97.5312 121.875H99.2109Z" fill="white"/>
<path d="M102.672 115H104.125V125.359L104 127H102.672V115ZM109.836 122.703V122.867C109.836 123.482 109.763 124.052 109.617 124.578C109.471 125.099 109.258 125.552 108.977 125.938C108.695 126.323 108.352 126.622 107.945 126.836C107.539 127.049 107.073 127.156 106.547 127.156C106.01 127.156 105.539 127.065 105.133 126.883C104.732 126.695 104.393 126.427 104.117 126.078C103.841 125.729 103.62 125.307 103.453 124.812C103.292 124.318 103.18 123.76 103.117 123.141V122.422C103.18 121.797 103.292 121.237 103.453 120.742C103.62 120.247 103.841 119.826 104.117 119.477C104.393 119.122 104.732 118.854 105.133 118.672C105.534 118.484 106 118.391 106.531 118.391C107.062 118.391 107.534 118.495 107.945 118.703C108.357 118.906 108.701 119.198 108.977 119.578C109.258 119.958 109.471 120.414 109.617 120.945C109.763 121.471 109.836 122.057 109.836 122.703ZM108.383 122.867V122.703C108.383 122.281 108.344 121.885 108.266 121.516C108.188 121.141 108.062 120.812 107.891 120.531C107.719 120.245 107.492 120.021 107.211 119.859C106.93 119.693 106.583 119.609 106.172 119.609C105.807 119.609 105.49 119.672 105.219 119.797C104.953 119.922 104.727 120.091 104.539 120.305C104.352 120.513 104.198 120.753 104.078 121.023C103.964 121.289 103.878 121.565 103.82 121.852V123.734C103.904 124.099 104.039 124.451 104.227 124.789C104.419 125.122 104.674 125.396 104.992 125.609C105.315 125.823 105.714 125.93 106.188 125.93C106.578 125.93 106.911 125.852 107.188 125.695C107.469 125.534 107.695 125.312 107.867 125.031C108.044 124.75 108.174 124.424 108.258 124.055C108.341 123.685 108.383 123.289 108.383 122.867Z" fill="white"/>
<path d="M113.234 115V127H111.781V115H113.234Z" fill="white"/>
<path d="M119.062 127.156C118.474 127.156 117.94 127.057 117.461 126.859C116.987 126.656 116.578 126.372 116.234 126.008C115.896 125.643 115.635 125.211 115.453 124.711C115.271 124.211 115.18 123.664 115.18 123.07V122.742C115.18 122.055 115.281 121.443 115.484 120.906C115.688 120.365 115.964 119.906 116.312 119.531C116.661 119.156 117.057 118.872 117.5 118.68C117.943 118.487 118.401 118.391 118.875 118.391C119.479 118.391 120 118.495 120.438 118.703C120.88 118.911 121.242 119.203 121.523 119.578C121.805 119.948 122.013 120.385 122.148 120.891C122.284 121.391 122.352 121.938 122.352 122.531V123.18H116.039V122H120.906V121.891C120.885 121.516 120.807 121.151 120.672 120.797C120.542 120.443 120.333 120.151 120.047 119.922C119.76 119.693 119.37 119.578 118.875 119.578C118.547 119.578 118.245 119.648 117.969 119.789C117.693 119.924 117.456 120.128 117.258 120.398C117.06 120.669 116.906 121 116.797 121.391C116.688 121.781 116.633 122.232 116.633 122.742V123.07C116.633 123.471 116.688 123.849 116.797 124.203C116.911 124.552 117.076 124.859 117.289 125.125C117.508 125.391 117.771 125.599 118.078 125.75C118.391 125.901 118.745 125.977 119.141 125.977C119.651 125.977 120.083 125.872 120.438 125.664C120.792 125.456 121.102 125.177 121.367 124.828L122.242 125.523C122.06 125.799 121.828 126.062 121.547 126.312C121.266 126.562 120.919 126.766 120.508 126.922C120.102 127.078 119.62 127.156 119.062 127.156Z" fill="white"/>
<path d="M136.633 121.336V125.5C136.492 125.708 136.268 125.943 135.961 126.203C135.654 126.458 135.229 126.682 134.688 126.875C134.151 127.062 133.458 127.156 132.609 127.156C131.917 127.156 131.279 127.036 130.695 126.797C130.117 126.552 129.615 126.198 129.188 125.734C128.766 125.266 128.438 124.698 128.203 124.031C127.974 123.359 127.859 122.599 127.859 121.75V120.867C127.859 120.018 127.958 119.26 128.156 118.594C128.359 117.927 128.656 117.362 129.047 116.898C129.438 116.43 129.917 116.076 130.484 115.836C131.052 115.591 131.703 115.469 132.438 115.469C133.307 115.469 134.034 115.62 134.617 115.922C135.206 116.219 135.664 116.63 135.992 117.156C136.326 117.682 136.539 118.281 136.633 118.953H135.125C135.057 118.542 134.922 118.167 134.719 117.828C134.521 117.49 134.237 117.219 133.867 117.016C133.497 116.807 133.021 116.703 132.438 116.703C131.911 116.703 131.456 116.799 131.07 116.992C130.685 117.185 130.367 117.461 130.117 117.82C129.867 118.18 129.68 118.615 129.555 119.125C129.435 119.635 129.375 120.211 129.375 120.852V121.75C129.375 122.406 129.451 122.992 129.602 123.508C129.758 124.023 129.979 124.464 130.266 124.828C130.552 125.188 130.893 125.461 131.289 125.648C131.69 125.836 132.133 125.93 132.617 125.93C133.154 125.93 133.589 125.885 133.922 125.797C134.255 125.703 134.516 125.594 134.703 125.469C134.891 125.339 135.034 125.216 135.133 125.102V122.555H132.5V121.336H136.633Z" fill="white"/>
<path d="M140.484 115V127H139.031V115H140.484Z" fill="white"/>
<path d="M147.789 125.555V121.203C147.789 120.87 147.721 120.581 147.586 120.336C147.456 120.086 147.258 119.893 146.992 119.758C146.727 119.622 146.398 119.555 146.008 119.555C145.643 119.555 145.323 119.617 145.047 119.742C144.776 119.867 144.562 120.031 144.406 120.234C144.255 120.438 144.18 120.656 144.18 120.891H142.734C142.734 120.589 142.812 120.289 142.969 119.992C143.125 119.695 143.349 119.427 143.641 119.188C143.938 118.943 144.292 118.75 144.703 118.609C145.12 118.464 145.583 118.391 146.094 118.391C146.708 118.391 147.25 118.495 147.719 118.703C148.193 118.911 148.562 119.227 148.828 119.648C149.099 120.065 149.234 120.589 149.234 121.219V125.156C149.234 125.438 149.258 125.737 149.305 126.055C149.357 126.372 149.432 126.646 149.531 126.875V127H148.023C147.951 126.833 147.893 126.612 147.852 126.336C147.81 126.055 147.789 125.794 147.789 125.555ZM148.039 121.875L148.055 122.891H146.594C146.182 122.891 145.815 122.924 145.492 122.992C145.169 123.055 144.898 123.151 144.68 123.281C144.461 123.411 144.294 123.576 144.18 123.773C144.065 123.966 144.008 124.193 144.008 124.453C144.008 124.719 144.068 124.961 144.188 125.18C144.307 125.398 144.487 125.573 144.727 125.703C144.971 125.828 145.271 125.891 145.625 125.891C146.068 125.891 146.458 125.797 146.797 125.609C147.135 125.422 147.404 125.193 147.602 124.922C147.805 124.651 147.914 124.388 147.93 124.133L148.547 124.828C148.51 125.047 148.411 125.289 148.25 125.555C148.089 125.82 147.872 126.076 147.602 126.32C147.336 126.56 147.018 126.76 146.648 126.922C146.284 127.078 145.872 127.156 145.414 127.156C144.841 127.156 144.339 127.044 143.906 126.82C143.479 126.596 143.146 126.297 142.906 125.922C142.672 125.542 142.555 125.117 142.555 124.648C142.555 124.195 142.643 123.797 142.82 123.453C142.997 123.104 143.253 122.815 143.586 122.586C143.919 122.352 144.32 122.174 144.789 122.055C145.258 121.935 145.781 121.875 146.359 121.875H148.039Z" fill="white"/>
<path d="M152.953 120.352V127H151.508V118.547H152.875L152.953 120.352ZM152.609 122.453L152.008 122.43C152.013 121.852 152.099 121.318 152.266 120.828C152.432 120.333 152.667 119.904 152.969 119.539C153.271 119.174 153.63 118.893 154.047 118.695C154.469 118.492 154.935 118.391 155.445 118.391C155.862 118.391 156.237 118.448 156.57 118.562C156.904 118.672 157.188 118.849 157.422 119.094C157.661 119.339 157.844 119.656 157.969 120.047C158.094 120.432 158.156 120.904 158.156 121.461V127H156.703V121.445C156.703 121.003 156.638 120.648 156.508 120.383C156.378 120.112 156.188 119.917 155.938 119.797C155.688 119.672 155.38 119.609 155.016 119.609C154.656 119.609 154.328 119.685 154.031 119.836C153.74 119.987 153.487 120.195 153.273 120.461C153.065 120.727 152.901 121.031 152.781 121.375C152.667 121.714 152.609 122.073 152.609 122.453Z" fill="white"/>
<path d="M165.68 125.359V115H167.133V127H165.805L165.68 125.359ZM159.992 122.867V122.703C159.992 122.057 160.07 121.471 160.227 120.945C160.388 120.414 160.615 119.958 160.906 119.578C161.203 119.198 161.555 118.906 161.961 118.703C162.372 118.495 162.831 118.391 163.336 118.391C163.867 118.391 164.331 118.484 164.727 118.672C165.128 118.854 165.466 119.122 165.742 119.477C166.023 119.826 166.245 120.247 166.406 120.742C166.568 121.237 166.68 121.797 166.742 122.422V123.141C166.685 123.76 166.573 124.318 166.406 124.812C166.245 125.307 166.023 125.729 165.742 126.078C165.466 126.427 165.128 126.695 164.727 126.883C164.326 127.065 163.857 127.156 163.32 127.156C162.826 127.156 162.372 127.049 161.961 126.836C161.555 126.622 161.203 126.323 160.906 125.938C160.615 125.552 160.388 125.099 160.227 124.578C160.07 124.052 159.992 123.482 159.992 122.867ZM161.445 122.703V122.867C161.445 123.289 161.487 123.685 161.57 124.055C161.659 124.424 161.794 124.75 161.977 125.031C162.159 125.312 162.391 125.534 162.672 125.695C162.953 125.852 163.289 125.93 163.68 125.93C164.159 125.93 164.552 125.828 164.859 125.625C165.172 125.422 165.422 125.154 165.609 124.82C165.797 124.487 165.943 124.125 166.047 123.734V121.852C165.984 121.565 165.893 121.289 165.773 121.023C165.659 120.753 165.508 120.513 165.32 120.305C165.138 120.091 164.911 119.922 164.641 119.797C164.375 119.672 164.06 119.609 163.695 119.609C163.299 119.609 162.958 119.693 162.672 119.859C162.391 120.021 162.159 120.245 161.977 120.531C161.794 120.812 161.659 121.141 161.57 121.516C161.487 121.885 161.445 122.281 161.445 122.703Z" fill="white"/>
<path d="M174.305 124.758C174.305 124.549 174.258 124.357 174.164 124.18C174.076 123.997 173.891 123.833 173.609 123.688C173.333 123.536 172.917 123.406 172.359 123.297C171.891 123.198 171.466 123.081 171.086 122.945C170.711 122.81 170.391 122.646 170.125 122.453C169.865 122.26 169.664 122.034 169.523 121.773C169.383 121.513 169.312 121.208 169.312 120.859C169.312 120.526 169.385 120.211 169.531 119.914C169.682 119.617 169.893 119.354 170.164 119.125C170.44 118.896 170.771 118.716 171.156 118.586C171.542 118.456 171.971 118.391 172.445 118.391C173.122 118.391 173.701 118.51 174.18 118.75C174.659 118.99 175.026 119.31 175.281 119.711C175.536 120.107 175.664 120.547 175.664 121.031H174.219C174.219 120.797 174.148 120.57 174.008 120.352C173.872 120.128 173.672 119.943 173.406 119.797C173.146 119.651 172.826 119.578 172.445 119.578C172.044 119.578 171.719 119.641 171.469 119.766C171.224 119.885 171.044 120.039 170.93 120.227C170.82 120.414 170.766 120.612 170.766 120.82C170.766 120.977 170.792 121.117 170.844 121.242C170.901 121.362 171 121.474 171.141 121.578C171.281 121.677 171.479 121.771 171.734 121.859C171.99 121.948 172.315 122.036 172.711 122.125C173.404 122.281 173.974 122.469 174.422 122.688C174.87 122.906 175.203 123.174 175.422 123.492C175.641 123.81 175.75 124.195 175.75 124.648C175.75 125.018 175.672 125.357 175.516 125.664C175.365 125.971 175.143 126.237 174.852 126.461C174.565 126.68 174.221 126.852 173.82 126.977C173.424 127.096 172.979 127.156 172.484 127.156C171.74 127.156 171.109 127.023 170.594 126.758C170.078 126.492 169.688 126.148 169.422 125.727C169.156 125.305 169.023 124.859 169.023 124.391H170.477C170.497 124.786 170.612 125.102 170.82 125.336C171.029 125.565 171.284 125.729 171.586 125.828C171.888 125.922 172.188 125.969 172.484 125.969C172.88 125.969 173.211 125.917 173.477 125.812C173.747 125.708 173.953 125.565 174.094 125.383C174.234 125.201 174.305 124.992 174.305 124.758Z" fill="white"/>
<path fill-rule="evenodd" clip-rule="evenodd" d="M75.0758 87.075C75.0758 87.075 74.8144 89.4708 75.7727 90.7338C75.7727 90.7338 78.3427 95.8736 89.4498 95.6991C89.4498 95.6991 95.9831 95.9605 100.426 92.3886C100.426 92.3886 103.388 90.2983 102.517 87.0746C102.517 87.0746 101.515 90.1673 97.1155 91.8658C97.1155 91.8658 93.6745 93.4778 89.2316 93.3905C89.2316 93.3905 85.4852 93.6519 80.9117 91.9967C80.9117 91.9967 76.992 90.9083 75.0758 87.075Z" fill="#ED3237"/>
<path fill-rule="evenodd" clip-rule="evenodd" d="M75.0326 82.8931C75.0326 82.8931 74.7712 85.2893 75.7295 86.5522C75.7295 86.5522 78.2994 91.6921 89.4065 91.518C89.4065 91.518 95.9402 91.7789 100.383 88.2079C100.383 88.2079 103.345 86.1171 102.474 82.8935C102.474 82.8935 101.472 85.9862 97.0727 87.6851C97.0727 87.6851 93.6322 89.2967 89.1888 89.2094C89.1888 89.2094 85.4428 89.4708 80.8693 87.816C80.8693 87.816 76.9492 86.7264 75.0326 82.8931Z" fill="#ED3237"/>
<path fill-rule="evenodd" clip-rule="evenodd" d="M80.1288 85.5507L81.6531 86.2913C81.6531 86.2913 84.3535 84.8538 89.1884 84.9843C89.1884 84.9843 93.3267 85.158 96.0267 86.1599L97.4205 85.4194C97.4205 85.4194 94.5023 83.3722 89.0138 83.3722C89.0138 83.3722 83.047 83.3722 80.1288 85.5507Z" fill="#ED3237"/>
<path fill-rule="evenodd" clip-rule="evenodd" d="M78.4735 83.6782L79.1268 84.6797C79.1268 84.6797 82.2191 81.6306 89.3624 81.9356C89.3624 81.9356 94.7637 81.8051 98.5093 84.5928L99.2062 83.9396C99.2062 83.9396 96.9849 80.4554 89.2319 80.2808C89.2319 80.2808 82.2191 79.9321 78.4735 83.6782Z" fill="#ED3237"/>
<path fill-rule="evenodd" clip-rule="evenodd" d="M77.8635 81.6302L77.9071 83.1981C77.9071 83.1981 79.301 80.4536 82.611 79.6262C82.611 79.6262 85.5729 78.6683 89.493 78.7552C89.493 78.7552 93.544 78.7988 96.2445 80.0181C96.2445 80.0181 98.9449 81.3688 99.8163 82.849L99.9905 81.0641C99.9905 81.0641 97.6383 78.6247 94.8506 77.7969C94.8506 77.7969 92.0634 76.8826 88.6224 77.0127C88.6224 77.0127 86.052 76.8385 82.2628 77.9714C82.2628 77.9714 78.7782 79.1039 77.8635 81.6302Z" fill="#ED3237"/>
<path fill-rule="evenodd" clip-rule="evenodd" d="M121.366 78.5067L107.255 78.4566C107.255 78.4566 106.512 78.3572 106.413 79.0503V94.9447C106.413 94.9447 106.314 95.836 107.304 95.7868H120.624C120.624 95.7868 133.893 95.3413 133.745 86.1811C133.745 86.1811 134.636 79.0015 121.366 78.5067ZM126.565 86.4287C126.763 93.7569 118.891 93.9548 118.891 93.9548H113.197V80.2886H118.791C127.06 80.7837 126.565 86.4287 126.565 86.4287Z" fill="#ED3237"/>
<path fill-rule="evenodd" clip-rule="evenodd" d="M138.201 78.4566C138.201 78.4566 137.409 78.2587 137.409 79.1993V94.8954C137.409 94.8954 137.26 95.8857 138.251 95.7868H143.673C143.673 95.7868 144.069 95.8611 144.093 95.4649V88.2606L152.412 95.4649C152.412 95.4649 152.783 95.8611 153.476 95.8365H160.433L149.466 86.1811C149.466 86.1811 149.169 85.835 149.49 85.5624L159.74 78.4566H155.309L144.465 85.9089C144.465 85.9089 144.044 86.1063 144.069 85.8596L144.044 78.6796C144.044 78.6796 144.093 78.5063 143.722 78.4566H138.201Z" fill="#ED3237"/>
<path fill-rule="evenodd" clip-rule="evenodd" d="M184.967 80.0661C184.967 80.0661 185.264 79.4353 184.076 79.1376C184.076 79.1376 180.474 78.0608 175.349 78.209C175.349 78.209 168.256 78.1719 163.54 80.9574C163.54 80.9574 159.418 83.0741 159.418 87.3818C159.418 87.3818 159.381 91.9492 164.877 94.2145C164.877 94.2145 168.071 95.9601 174.793 96.0715C174.793 96.0715 180.623 96.1826 183.26 95.1802C183.26 95.1802 184.039 95.1059 184.076 94.4746C184.076 94.4746 184.262 93.6947 184.596 93.3236C184.596 93.3236 185.264 92.6923 184.411 92.5065C184.411 92.5065 183.816 92.2836 183.074 92.952C183.074 92.952 180.771 94.2521 176.204 94.2149C176.204 94.2149 167.625 94.5861 166.92 88.3475C166.92 88.3475 166.065 82.7773 171.413 81.0322C171.413 81.0322 174.495 79.9179 177.652 80.1408C177.652 80.1408 181.105 80.512 183.147 82.2575C183.147 82.2575 184.002 82.7401 184.336 81.9231L184.967 80.0661Z" fill="#ED3237"/>
</svg>
