<?xml version="1.0" encoding="UTF-8"?>
<!DOCTYPE svg PUBLIC "-//W3C//DTD SVG 1.1//EN" "http://www.w3.org/Graphics/SVG/1.1/DTD/svg11.dtd">
<!-- Creator: CorelDRAW 2019 (64-Bit) -->
<svg xmlns="http://www.w3.org/2000/svg" xml:space="preserve" width="1.579in" height="0.395358in" version="1.1" style="shape-rendering:geometricPrecision; text-rendering:geometricPrecision; image-rendering:optimizeQuality; fill-rule:evenodd; clip-rule:evenodd"
viewBox="0 0 2423.59 606.83"
 xmlns:xlink="http://www.w3.org/1999/xlink"
 xmlns:xodm="http://www.corel.com/coreldraw/odm/2003">
 <defs>
  <style type="text/css">
   <![CDATA[
    .fil37 {fill:#7A7475}
    .fil44 {fill:#7D7678}
    .fil42 {fill:#7E797A}
    .fil8 {fill:#857E80}
    .fil40 {fill:#868182}
    .fil33 {fill:#8A8586}
    .fil10 {fill:#8D8788}
    .fil36 {fill:#8E898A}
    .fil38 {fill:#928F90}
    .fil29 {fill:#989394}
    .fil31 {fill:#9D9B9B}
    .fil32 {fill:#9E9A9A}
    .fil35 {fill:#A3A09F}
    .fil21 {fill:#A6A2A1}
    .fil43 {fill:#A9A4A3}
    .fil14 {fill:#AAA6A6}
    .fil18 {fill:#ADA9A9}
    .fil23 {fill:#B1ADAE}
    .fil30 {fill:#B5B1B1}
    .fil34 {fill:#B6B2B2}
    .fil20 {fill:#BAB6B6}
    .fil26 {fill:#BBB8B7}
    .fil28 {fill:#C0BCBA}
    .fil22 {fill:#C1BEBE}
    .fil12 {fill:#C5C2C2}
    .fil17 {fill:#CBC8C9}
    .fil24 {fill:#CDC9CA}
    .fil27 {fill:#D1CECE}
    .fil15 {fill:#D5D2D2}
    .fil6 {fill:#D5D3D4}
    .fil19 {fill:#D9D6D6}
    .fil39 {fill:#DBD9DA}
    .fil13 {fill:#E2DFE1}
    .fil16 {fill:#E4E2E3}
    .fil11 {fill:#E7E5E5}
    .fil25 {fill:#E8E6E6}
    .fil7 {fill:#ECEAEB}
    .fil41 {fill:#F4F1F1}
    .fil2 {fill:#F5F4F4}
    .fil4 {fill:#F8F8F8}
    .fil3 {fill:#F9F7F8}
    .fil9 {fill:#FBF9F9}
    .fil5 {fill:#FBFBFB}
    .fil0 {fill:#FDFDFD}
    .fil1 {fill:#FEFEFE}
   ]]>
  </style>
 </defs>
 <g id="Layer_x0020_1">
  <metadata id="CorelCorpID_0Corel-Layer"/>
  <g id="_2163132695248">
   <path class="fil0" d="M2298.85 394.37c14.39,2.82 27.66,12.48 38.4,19.98 12.08,8.45 20.94,18.07 29.19,30.62 21.3,32.36 21.13,48.77 23.97,94.74 15.89,-19.98 27.19,-41.62 30.7,-68.62 5.94,-45.48 2.1,-90.04 -22.03,-125.35 -10.82,-15.84 -22.53,-27.71 -37.88,-38.81 -5.01,-3.62 -10.33,-6.75 -15.8,-9.77 -44.28,-24.46 -65.89,-23.6 -117.72,-33.97 -27.73,-5.55 -56.63,-10.94 -85.51,-16.75l-167.16 -35.53c-23.04,-7.11 -58.53,-29.71 -64.97,-47.85 -9.91,-7.41 -17.2,-27.84 -21.3,-41.4 -2.62,-8.65 -4.44,-17.83 -4.97,-28.48 -0.37,-7.53 1.16,-22.12 -0.8,-28.06 -13.86,5.17 -29.29,56.78 -31.21,68.43 -7.18,43.53 -2.28,89.92 21.97,125.66 3.87,5.71 6.99,9.28 11.32,14.24 4.77,5.46 6.64,8.25 11.98,13.6 39.02,39.02 95.74,44.02 148.29,54.52l234.46 46.75c10.22,2.48 13.81,5.52 19.05,6.04z"/>
   <path class="fil0" d="M146.29 604.08l66.99 0.98c-3.81,-8.59 -21.91,-7.54 -37.15,-18.28l-4.93 -5.11c-7.92,-0.03 -24.06,-18.04 -30.54,-24.46 -10.11,-10.01 -23.86,-43.3 -27.27,-60.6 -3.75,-19.05 -7.89,-124.71 -1.18,-135.47l-0.44 -2.07c1.02,-9.78 6.45,-29.66 10.01,-36.49 3.2,-6.13 12.8,-24.39 16.74,-25.05 3.68,-10.16 18.12,-26.82 28.23,-29.47 3.18,-6.73 14.15,-9.41 20.1,-11.86 5.32,-2.19 18.14,-5.84 21.33,-4.51 -20.73,-2.04 -39.33,-2.3 -60.19,-1.68 -11.83,-0.04 -18.53,1.69 -27.97,1.69 -13.66,13.02 -10.52,-10.72 -10.49,-18.74 0.13,-47.88 -4.71,-112.55 15.8,-154.22 5.21,-10.61 19.43,-33.19 28.87,-37.56 4.15,-7.22 21.08,-18.53 29.72,-22.45 14.78,-6.71 28.2,-9.15 36.61,-14.15 -79.4,0 -129.99,-4.44 -183.76,55.82 -6.74,7.55 -18.32,26.64 -22.47,37.18 -20.62,52.4 -12.88,110.79 -12.88,169.47 0,39.77 0,79.54 0,119.3 0,70.9 -6.22,135.9 56.94,185.08 17.75,13.82 55.79,35.57 87.93,32.67z"/>
   <path class="fil1" d="M735.99 602.47l76.61 0.47c-20.5,-9.61 -28.23,-5.28 -56.4,-27.25 -6.83,-5.33 -11.23,-7.29 -14.95,-15.51 -22.58,-24.96 -35.04,-58.94 -36.23,-102.26 2.3,-34.88 0.29,-76.82 0.29,-112.49 0,-46.01 2.68,-334.77 -1.7,-339.16 -4.25,-4.25 -102.12,-1.51 -103.14,-0.88 -3.91,2.44 -2.3,2.64 -3.19,8.74 -2.88,19.7 -1.05,361.22 -1.05,409.7 0,47.84 5.75,89.94 34.58,123.92 23.17,27.31 67.86,57.32 105.18,54.73z"/>
   <path class="fil0" d="M1283.07 602.48l72.22 0.54c-5.06,-5.14 -12.54,-3.18 -16.64,-9.45 -9.8,0.78 -34.93,-14.59 -40.79,-23.98 -2.34,-0.9 -2.05,-0.45 -5.23,-3.49 -28.73,-27.41 -36.96,-62.18 -40.7,-101.38l0.58 -448.35c-0.58,-16.85 -11.54,-11.82 -29.08,-11.82 -13.63,0.01 -27.26,0 -40.9,0 -50.31,0 -39.19,-16.41 -39.19,83.52 0,109.07 0,218.15 0,327.23 0,45.88 -2,67.5 17.04,105.67 13.53,27.12 33.27,47.7 59.7,63 13.84,8.02 40.72,20.03 63.01,18.51z"/>
   <path class="fil1" d="M1688.02 601.07c5.87,5.86 7.41,3.44 24.55,3.41 15.06,-0.02 76.07,2.33 80.1,-1.7 3.93,-3.93 1.96,-291.44 1.68,-340.88 -0.06,-11.48 1.67,-15.47 1.79,-25.48l-1.77 -50.51 -1.92 -4.37c-3.76,-11.49 -0.76,-8.42 -9.46,-30.74 -4.96,-12.73 -14.39,-26.12 -14.2,-29.68 -5.87,-3.09 -0.93,0.22 -5.38,-3.78 -0.78,-0.7 -2.66,-2.99 -3.34,-3.9 -3.14,-4.18 -3.08,-2.26 -3.21,-6.27 -7.84,-3.07 -21.81,-17.92 -30.59,-24.09 -9.39,-6.6 -26.73,-15.39 -38.5,-16.71l0.24 534.69z"/>
   <path class="fil2" d="M2060.14 602.78c-0.18,-6.32 10.87,-5.29 20.44,-5.38l-10.61 -2.91c6.89,-4.63 8.01,-3.15 12.16,-5.04 -8.03,-0.15 -18.1,0.45 -23.58,-2.02 0.38,-0.24 1.05,-0.82 1.27,-0.43 0.23,0.4 1,-0.32 1.32,-0.4 12.86,-3.31 9.28,2.31 9.27,-31.55l-0.12 -34.22c0.51,-6.69 -0.04,-5.09 3.54,-8.31 -6.48,-0.53 -6.81,-1.73 -15.29,-1.76l8.56 -3.42c4.36,-1.89 1.44,-0.44 3.32,-1.72 -5.69,-8.18 -34.58,-5.62 -51.06,-5.92l-42.63 -0.55c-1.63,-0.01 -5.46,0.05 -6.88,-0.08l-7.75 -1.96c-18.38,0 -100.52,-2.73 -109.77,1.7 -5.65,11.78 -5.65,90.49 0,102.26 10.33,4.96 180.07,1.7 207.82,1.7z"/>
   <path class="fil3" d="M538.29 603.22c5.12,-7 3.46,-11.55 3.41,-22.59 -0.04,-8.52 -0.01,-17.05 -0.01,-25.57 0,-16.87 1.3,-37.33 -1.7,-51.47 -15.16,-2.71 -114,0.12 -134.72,1.21l0.4 80.64c-2.19,4.46 -18.34,1.69 -23.44,3.25 4.22,2.85 8.64,1.92 15.57,2.77l16.7 2.21c0.3,0.08 0.85,0.25 1.24,0.47l-38.89 2.67c18.79,2.95 -0.97,3.02 10.25,4.53 19.6,2.63 140.43,3.14 151.18,1.89z"/>
   <path class="fil3" d="M539.99 105.67c3.58,-0.59 0.38,1.82 1.37,-2.83l0.34 -71.02c0.04,-13.38 2.01,-17.59 -3.41,-23.89 -16.33,-2.6 -109.41,0.9 -132.41,1.73l-0.21 95.68c19.88,1.61 122.11,6.07 134.33,0.33z"/>
   <path class="fil4" d="M381.58 353.25l119.21 0.8c13.84,-0.35 15.14,-0.35 16.7,-12.38l0.34 -89.99c-2.45,-1.38 -1.73,-0.89 -5.11,-1.4l-121.14 0.85 0 92.58 -9.87 3.4c8.07,4.79 15,-1.37 23.35,4.83l-23.48 1.31z"/>
   <path class="fil5" d="M2396 105.81c5.83,-11.57 3.92,-65.11 3.47,-84.27 -0.51,-21.57 -4.21,-18.38 -10.29,-19.11l-92.86 -0.07 -0.11 6.47c-15.1,-0.12 -11.52,6.22 -11.52,45.16 0,16.59 -0.08,33.21 0.04,49.81l111.28 2.02z"/>
   <path class="fil6" d="M2060.14 602.78l118.51 0c-2.01,-1.15 -0.27,-0.79 -1.64,-3.41 3.01,-2.24 -4.08,-2.05 6.89,-2.65 -9.01,-4.85 -9.21,1.81 -16.5,-9.28l9.93 -3.41 0 -71.58c2.72,-2.24 -2.74,-1.26 5.12,-2.21l-3.99 -4.08c-0.28,-0.24 -0.85,-0.67 -1.23,-1.05 5.84,-0.53 3.38,0.36 6.93,-2.15l-78.65 -5.84 -143.42 0 7.75 1.96c1.41,0.14 5.25,0.08 6.88,0.08l42.63 0.55c16.48,0.3 45.37,-2.26 51.06,5.92 -1.88,1.28 1.04,-0.17 -3.32,1.72l-8.56 3.42c8.48,0.02 8.81,1.23 15.29,1.76 -3.57,3.22 -3.02,1.62 -3.54,8.31l0.12 34.22c0.01,33.86 3.59,28.24 -9.27,31.55 -0.31,0.08 -1.09,0.8 -1.32,0.4 -0.22,-0.39 -0.89,0.19 -1.27,0.43 5.47,2.47 15.55,1.87 23.58,2.02 -4.15,1.89 -5.26,0.41 -12.16,5.04l10.61 2.91c-9.57,0.09 -20.62,-0.94 -20.44,5.38z"/>
   <path class="fil7" d="M2250.39 105.16l131.98 0.98 13.64 -0.33 -111.28 -2.02c-0.12,-16.59 -0.04,-33.21 -0.04,-49.81 0,-38.93 -3.58,-45.28 11.52,-45.16l0.11 -6.47 -121.88 2.19c-3.14,-3.63 12.52,1.8 -1.47,3.68 5.83,3.21 4.44,-0.69 5.2,8.06l-0.16 87.03 72.38 1.84z"/>
   <path class="fil3" d="M980.64 603.14l101.33 -0.12c8.62,-4.18 5.11,-34.6 5.11,-51.38l0.04 -40.97c-0.63,-9.64 -1.85,-8.96 -5.15,-9.51l-101.24 0.57 -0.09 101.42z"/>
   <path class="fil8" d="M2307.38 474.1c12.11,7.11 10.97,11.32 9.71,20.14 -1.95,13.6 0.45,73.87 -0.94,96.83l-4.97 3.17c11.77,-1.08 36.09,-15.39 44.42,-21.65 6.12,-4.6 12.58,-9.36 17.86,-14.53 6.83,-6.7 9.55,-11.84 16.96,-18.36 -2.84,-45.97 -2.68,-62.38 -23.97,-94.74 -8.25,-12.54 -17.11,-22.17 -29.19,-30.62 -10.74,-7.51 -24.01,-17.17 -38.4,-19.98 0.3,0.31 0.8,0.33 0.95,0.9 0.91,3.53 14.59,5.35 14.44,35.33 -0.09,17.29 0.09,33.18 -6.86,43.51z"/>
   <path class="fil9" d="M1521.48 602.9l104.16 0.28c10.61,-3.76 6.82,-25.33 6.82,-46.42 0,-18.18 0,-36.36 0,-54.54 -5.33,-3 -1.61,-0.89 -5.11,-0.01l-96.24 -0.44c-2,13.15 0.61,67.84 0.4,89.07 -3.75,2.18 -2.71,1.43 -8.33,1.51l0.15 3.64c5.9,0.48 4.79,0.11 8.27,3.38l-10.12 3.53z"/>
   <path class="fil10" d="M1911.97 36.41c6.77,2.02 3.98,2.25 2.47,9.2l0.08 7.39c-1.84,12.45 -0.06,25.49 -0.11,38.54 -0.05,13.66 4.07,30.38 -0.14,41.24 -0.16,0.39 -0.38,0.81 -0.54,1.2 -0.16,0.37 -0.38,0.8 -0.54,1.16l-4.12 10.47c4.26,-3.6 1.34,-3.72 7.02,-5.5 -0.24,15.61 -2.92,2.13 -3.42,14.44 5.02,2.85 -5.14,-0.27 2.25,-0.33 1.14,-0.01 0.42,-0.85 2.92,0.33 -0.83,4.61 -1.5,5.35 -1.63,11.27l-6.16 -2.74c6.44,18.14 41.94,40.73 64.97,47.85 -3.68,-5.28 -3.28,-2.11 -7.87,-7.61 -2.36,-2.83 -4.92,-7.22 -6.11,-10.92 -2.79,-8.68 -6.53,-53.04 11.8,-70.67 1.74,-1.66 2.76,-2.44 4.38,-4.12l4.62 -5.66c-3.99,1.46 -7.29,4.31 -9.18,-0.44 -1.88,-4.77 -1.06,-1.25 4.15,-4.68l-2.24 -2.91c-0.16,-0.34 -0.39,-0.79 -0.53,-1.18l-0.56 -45.33c0,-12.43 2.69,-40.73 -3.37,-49.43 -15.2,1.2 -50.4,20.09 -58.16,28.44z"/>
   <path class="fil11" d="M1448.82 500.51c1.6,3.3 0.85,0.56 0.4,4.57l-0.76 83.45c-0.34,3.27 -2.74,-2.41 -0.14,2.13 1.66,2.89 7.58,2.04 11.93,2.12 -3.03,1.53 -5.31,1.6 -8.5,3.13 7.46,4.74 4.99,0.7 6.87,5.17l-3.48 1.11 66.34 0.72 10.12 -3.53c-3.48,-3.27 -2.37,-2.89 -8.27,-3.38l-0.15 -3.64c5.63,-0.08 4.58,0.67 8.33,-1.51 0.21,-21.23 -2.41,-75.92 -0.4,-89.07l96.24 0.44c-2.3,-5.47 -0.26,-3.55 -20.45,-3.41 -33.11,0.24 -142.16,-2.5 -158.08,1.71z"/>
   <path class="fil12" d="M2105.69 106.82l242.58 1.7c7.71,0 28.7,2.4 34.09,-2.39l-131.98 -0.98c-30.63,-0.2 -102.58,3.59 -127.66,-1.75l-0.01 -90.33c3.02,-7.68 -1.58,-1.89 6.73,-5.12l-0.22 -6.26c-11.29,-1.77 -31.02,0.36 -43.41,0.78 -46.23,1.57 -18.44,4.76 -39.36,5.44l3.49 96.46 55.75 2.44z"/>
   <path class="fil13" d="M533.17 605.6l5.11 -2.39c-10.75,1.25 -131.58,0.74 -151.18,-1.89 -11.23,-1.5 8.53,-1.57 -10.25,-4.53l38.89 -2.67c-0.39,-0.21 -0.94,-0.39 -1.24,-0.47l-16.7 -2.21c-6.93,-0.85 -11.34,0.08 -15.57,-2.77 5.1,-1.57 21.25,1.21 23.44,-3.25l-0.4 -80.64c20.72,-1.09 119.56,-3.93 134.72,-1.21l-3.41 -2.04 -183.4 1.45 -36.28 3.06 8.47 3.04c-4.18,6.8 -1.62,6.94 -1.66,23.8 -0.02,9.66 -0.01,19.32 0,28.98l-0.22 20.55c-0.07,0.54 -0.18,0.99 -0.27,1.48 -0.08,0.45 -0.26,0.92 -0.34,1.31 -0.07,0.35 -0.29,0.83 -0.34,1.14 -0.05,0.25 -0.24,0.73 -0.28,0.94l1.03 3.73c1.01,2.28 0.42,-0.07 1.44,3.92l1.2 5.02c1.81,4.62 -3.44,-3.08 1.01,2.04l206.22 3.6z"/>
   <path class="fil14" d="M1970.13 7.96c6.05,8.7 3.37,37 3.37,49.43l0.56 45.33c0.14,0.39 0.36,0.83 0.53,1.18l2.24 2.91c-5.21,3.43 -6.03,-0.09 -4.15,4.68 1.89,4.75 5.19,1.9 9.18,0.44 4.04,0.25 13.06,-4.09 25.64,-5.04l98.2 -0.08 -55.75 -2.44 -3.49 -96.46c20.91,-0.68 -6.88,-3.87 39.36,-5.44 12.39,-0.42 32.12,-2.55 43.41,-0.78l31.33 -0.56c-36.14,0 -172.82,-2.27 -190.42,6.82z"/>
   <path class="fil11" d="M909.27 602.77l71.37 0.37 0.09 -101.42 -72.22 2.19c-6.68,7.63 -5.74,5.46 -5.68,32.39l1.62 49.65c-6.89,3.75 -4.72,-1.69 -9.78,4.89 4.18,2.61 5.55,1.76 11.74,2.01 0.12,0.39 -1.21,0.92 -0.11,3.64 2.37,5.8 2.29,-4.4 2.96,6.28z"/>
   <path class="fil15" d="M333.51 108.16c4.59,-0.19 9.32,-0.34 13.93,-0.2 2.31,0.07 4.63,0.21 6.89,0.65 5.73,1.11 3.26,0.79 4.99,1.61 49.03,0 120.78,1.46 168.86,0.24 10.35,-0.26 8.44,-1.05 10.1,-3.37l-181.21 -0.68 0.04 -97.8c8.77,-0.67 19.46,1 25.7,-2.72l-58.68 0.27c-8.52,3.65 -25.06,3.06 -35.87,3.37l0.12 87.3c-0.32,13.08 -1.72,8.59 -1.72,8.59l46.85 2.74z"/>
   <path class="fil16" d="M381.58 353.25l23.48 -1.31c-8.35,-6.19 -15.28,-0.04 -23.35,-4.83l9.87 -3.4 0 -92.58 -74.97 0.67 0 95.5c5,1.32 9.57,2.78 14.96,4.32l-19.98 0.81 69.98 0.82z"/>
   <path class="fil17" d="M838.31 500.51l7.31 2.9c0.27,0.11 0.85,0.28 1.23,0.51 -0.38,0.24 -1.03,0.02 -1.23,0.55 -0.92,2.52 -0.12,0.09 -2.44,1.05 -4.14,1.7 -0.91,-0.48 -4.53,1.81l-1.48 71.77c-0.73,8.94 1.23,4.13 -3.4,8.34 0.51,0.24 2.79,1.03 3.05,1.22 0.14,0.1 0.61,0.44 0.74,0.55 0.12,0.11 0.45,0.53 0.54,0.65 0.1,0.11 0.31,0.63 0.37,0.72 0.07,0.09 0.3,0.5 0.27,0.77 -4.26,2.37 -10.54,1.7 -15.26,1.92l13.55 0.59c-1.63,4.6 -3.76,4.39 -4.89,6.14l77.13 2.78c-0.67,-10.68 -0.59,-0.48 -2.96,-6.28 -1.11,-2.72 0.23,-3.25 0.11,-3.64 -6.19,-0.25 -7.57,0.6 -11.74,-2.01 5.06,-6.57 2.89,-1.14 9.78,-4.89l-1.62 -49.65c-0.06,-26.93 -1,-24.76 5.68,-32.39l72.22 -2.19 101.24 -0.57c-5.17,-4.51 -22.26,-2.35 -28.98,-2.35l-214.68 1.7z"/>
   <path class="fil17" d="M258.85 251.19l-0.4 93.73c0,0.53 0,1.87 0.07,2.31l1.52 3.94c0.06,-0.25 0.45,0.63 0.56,0.8l-11.52 1.97c22.36,0 38.43,1.7 60.84,1.7l175.58 0.03c5.77,0.06 11.4,0.7 15.31,-1.62l-119.21 -0.8 -69.98 -0.82 19.98 -0.81c-5.39,-1.54 -9.96,-3 -14.96,-4.32l0 -95.5 74.97 -0.67 121.14 -0.85c-0.36,-0.27 -0.97,-0.98 -1.18,-0.62l-223.79 -1.39c-5.04,2.89 -9.39,2.63 -15.34,2.72 -4.51,0.06 -9.04,0.16 -13.55,0.19z"/>
   <path class="fil18" d="M2225.57 602.78l46.98 0c5.96,-8.5 -0.1,-5.26 7.7,-8.47 -0.37,-0.25 -0.98,-1.01 -1.17,-0.66 -0.24,0.45 -1.31,-0.71 -2.34,-1.22l-2.31 -1.07c-0.24,-0.11 -0.77,-0.31 -1.12,-0.51 5.08,-5.69 5.13,-8.03 5.02,-18.69 -0.09,-9.32 2.19,-57.12 -2.06,-63.2l-3.5 -3.69c5.19,-1.14 10.93,-4.79 13.82,-7.78l-9.88 1.32c-13.22,-5.11 -79.97,-1.69 -99.25,-1.69 5.65,4.27 29.11,2.7 37.9,3.44l1.51 4.89c0.04,0.14 0.24,0.61 0.28,0.75 0.04,0.15 0.14,0.63 0.16,0.79 0.64,3.84 -0.2,-2.36 0.03,1.61 0.15,2.58 -0.49,-0.22 0.3,3.63l1.6 66.82c-1.23,14.33 -2.57,1.34 -3.14,11.25 2.91,2.3 0.78,0.68 4,2.57 0.3,0.18 0.77,0.42 1.08,0.6 0.32,0.18 0.79,0.43 1.11,0.6l2.2 1.26c0.23,0.14 0.75,0.39 1.1,0.63 -0.38,0.25 -1.05,-0.01 -1.25,0.51 -0.21,0.52 -0.98,0.39 -1.27,0.48 -0.28,0.1 -0.92,0.33 -1.27,0.45l-6.07 1.96c3.64,1.82 2.01,0.4 4.79,1.35l5.07 2.06z"/>
   <path class="fil19" d="M2129.22 1.7l0.22 6.26c-8.31,3.23 -3.72,-2.56 -6.73,5.12l0.01 90.33c25.08,5.34 97.03,1.55 127.66,1.75l-72.38 -1.84 0.16 -87.03c-0.77,-8.74 0.62,-4.84 -5.2,-8.06 14,-1.88 -1.67,-7.31 1.47,-3.68l121.88 -2.19 92.86 0.07c-9.57,-4.57 -200.07,-1.28 -228.63,-1.28l-31.33 0.56z"/>
   <path class="fil20" d="M1338.65 593.57c4.1,6.27 11.58,4.31 16.64,9.45l-72.22 -0.54 8.4 2.15c31.11,1.57 129.3,-0.15 162.03,-0.15 22.44,0 164.15,2.57 172.14,-1.31l-104.16 -0.28 -66.34 -0.72c-10.49,0.45 -20.28,-0.94 -30.67,-1.04 -20.89,-0.2 -7.02,-2.79 -25.65,-3.55 1.69,-1.56 4.92,-3.02 5.44,-5.86 0.86,-4.65 1.95,1.33 -2.08,-4.07l-1.62 -2.05c8.12,-4.69 4.83,-6.58 4.83,-32.26 0,-12.49 0,-24.99 0,-37.5 1.37,-6.44 0.66,-3.64 4.89,-6.81l-6.94 -2.7c-0.31,-0.15 -0.9,-0.42 -1.29,-0.72 4.14,-3.7 4.53,-2.7 8.05,-5.11l-68.89 0c0.36,0.24 0.92,0.37 1.21,0.45l9.51 2.25c4.02,2.2 1.01,2.46 -0.15,7.81l-0.27 70.97c0.71,3.77 0.05,1.67 1.4,3.77 -2.35,5.72 0.34,1.34 -5.03,5.03 5.9,0.8 6.25,2.15 10.01,5.17 -4.51,1.82 -12.7,-1.94 -19.26,-2.38z"/>
   <path class="fil21" d="M191.74 502.87c-0.48,0.24 -1.11,0.44 -1.53,0.57l-12.15 2.08c2.18,0.46 -0.84,-1.46 1.94,1.27 5.07,4.97 3.37,7.52 3.29,9.6l-0.48 56.46c-3.06,1.3 -2.05,1.55 -6.64,1.66 7.77,2.24 6.77,1.06 6.76,10.18 -5.15,-0.46 -7.41,-1.53 -11.72,-3.02l4.93 5.11c15.23,10.74 33.34,9.69 37.15,18.28l-66.99 -0.98c5.77,4.51 84.7,2.1 92.03,2.1 32.01,0 64.02,0 96.03,0 -5.56,-2.34 -16.9,-2.04 -24.41,-1.23l-59.69 -1.76c-8.86,-0.59 -12.21,-2.46 -20.47,-2.49 1.75,-4.04 -0.19,-0.94 3.49,-3.21 4.88,-3.01 10.23,-4.19 16.26,-3.99l-17.97 -1.15c0.31,-0.27 0.86,-0.98 1,-0.68l5.38 -4.25c-3.83,-7.18 -2.06,-46.98 -1.85,-61.44 0.18,-12.13 3.75,-13.03 -3.35,-14.77 3.4,-2.84 10.45,-3.92 15.44,-4.48 -1,-0.18 -3.55,-0.29 -4.87,-0.66 -0.44,-0.12 -0.94,-0.26 -1.39,-0.4l-2.85 -1.18c-0.38,-0.15 -1,-0.39 -1.45,-0.69 17.87,-1 63.84,0.91 75.69,-3.28l-65.99 0 -55.58 2.36z"/>
   <path class="fil22" d="M1688.02 601.07l-0.24 -534.69c11.77,1.32 29.11,10.1 38.5,16.71 8.77,6.16 22.75,21.02 30.59,24.09 -0.3,-0.49 -0.66,-1.07 -0.92,-1.45 -8.87,-13.09 -19.64,-15.35 -23.92,-25.25 4.81,1.14 11.01,3.79 13.57,6.82 0.04,-0.57 -0.15,-2.8 -0.06,-3.13 1.21,-4.47 -1.93,0.73 1.83,-3.47 4,5.75 1.06,2.6 9.46,3.48 7.15,0.74 5.35,1.22 10.42,3.18 3.57,1.38 16.12,-0.22 23.94,-0.18l1.81 -5.58 1.73 -39.73 -1.62 2.19c-0.18,0.25 -0.6,0.88 -0.76,1.1l-1.39 2.2c-6.4,0 -86.53,-1.82 -91.8,1.67 -1.77,-1.59 -1.09,-0.42 -2.74,-2.82 -1.99,-2.91 -0.56,-0.87 -1.44,-3.77 -2.31,4.28 0.18,3.29 -5.89,5.08l-0.4 -34.44c-3.67,1.53 -3.88,-3.78 -3.47,15.3 2.31,107.03 -4.98,552.13 2.79,572.69z"/>
   <path class="fil23" d="M154.21 41.16c9.68,-3.2 14.5,-10.71 22.75,-12.74 2.56,-4.03 2.73,-2.49 6.73,-4.83 8.52,-4.97 15.37,-8.47 26.22,-9.27 -1.75,5.14 -0.97,4.01 -8.77,6.55l8.68 1.96c-0.82,6.44 -0.02,4.15 -3.63,7.29 6.55,5.23 5.29,4.03 5.16,15.25l-0.04 60.39c18.79,2.01 23,0.27 35.54,0.92 2.71,0.15 4.31,0.28 6.92,1.07 3.96,1.2 2.83,0.94 4.99,2.47l100.56 0c-1.73,-0.83 0.75,-0.5 -4.99,-1.61 -2.26,-0.44 -4.59,-0.58 -6.89,-0.65 -4.61,-0.15 -9.35,0.01 -13.93,0.2l-80.24 -2.1 -0.01 -97.16 70.88 -2.74 58.68 -0.27 150.36 -0.61 -312.63 -0.72c-8.41,5 -21.83,7.44 -36.61,14.15 -8.64,3.92 -25.57,15.23 -29.72,22.45z"/>
   <path class="fil24" d="M309.94 604.96c7.52,-0.81 18.85,-1.12 24.41,1.23l198.82 -0.58 -206.22 -3.6c-4.45,-5.12 0.8,2.58 -1.01,-2.04l-1.2 -5.02c-1.02,-3.98 -0.44,-1.64 -1.44,-3.92l-1.03 -3.73c0.04,-0.22 0.22,-0.69 0.28,-0.94 0.05,-0.31 0.27,-0.79 0.34,-1.14 0.08,-0.39 0.26,-0.86 0.34,-1.31 0.09,-0.49 0.2,-0.94 0.27,-1.48l0.22 -20.55c-0.01,-9.66 -0.02,-19.32 0,-28.98 0.04,-16.87 -2.52,-17 1.66,-23.8l-8.47 -3.04 36.28 -3.06c-25.43,-0.69 -47.5,-0.01 -73.95,1.15 -4.22,6.85 -2.43,2.96 -10.02,5.99l11.51 2.63c-4.57,8.15 -1.7,55.52 -1.7,69.56 -0.65,4.13 -4.68,6.04 -8.42,7.64l6.93 2.58c-1.96,3.86 -3.7,3.84 -5.37,5.14 12.1,3.12 -1.37,0.5 5.48,3.54 4.83,2.13 24.7,1.07 32.32,3.73z"/>
   <path class="fil25" d="M538.29 107.09c2.63,2.22 1.7,2.01 1.7,-1.41 -12.22,5.75 -114.45,1.28 -134.33,-0.33l0.21 -95.68c23,-0.83 116.08,-4.33 132.41,-1.73l-5.11 -2.66 -150.36 0.61c-6.24,3.72 -16.93,2.05 -25.7,2.72l-0.04 97.8 181.21 0.68z"/>
   <path class="fil26" d="M309.94 604.96c-7.61,-2.66 -27.49,-1.6 -32.32,-3.73 -6.85,-3.04 6.62,-0.42 -5.48,-3.54 1.67,-1.3 3.41,-1.28 5.37,-5.14l-6.93 -2.58c3.74,-1.6 7.77,-3.52 8.42,-7.64 0,-14.04 -2.87,-61.41 1.7,-69.56l-11.51 -2.63c7.59,-3.03 5.8,0.86 10.02,-5.99 26.45,-1.16 48.52,-1.84 73.95,-1.15l183.4 -1.45c-8.95,-3.42 -195.9,-1.03 -223.27,-1.03 -11.85,4.19 -57.82,2.28 -75.69,3.28 0.45,0.3 1.07,0.54 1.45,0.69l2.85 1.18c0.45,0.15 0.95,0.28 1.39,0.4 1.32,0.37 3.87,0.48 4.87,0.66 -4.99,0.56 -12.04,1.64 -15.44,4.48 7.1,1.75 3.54,2.65 3.35,14.77 -0.21,14.47 -1.98,54.26 1.85,61.44l-5.38 4.25c-0.14,-0.31 -0.69,0.41 -1,0.68l17.97 1.15c-6.02,-0.21 -11.37,0.98 -16.26,3.99 -3.69,2.27 -1.75,-0.83 -3.49,3.21 8.25,0.03 11.61,1.9 20.47,2.49l59.69 1.76z"/>
   <path class="fil27" d="M1455.15 602.18l3.48 -1.11c-1.88,-4.47 0.59,-0.43 -6.87,-5.17 3.19,-1.53 5.46,-1.6 8.5,-3.13 -4.35,-0.07 -10.27,0.77 -11.93,-2.12 -2.6,-4.54 -0.2,1.14 0.14,-2.13l0.76 -83.45c0.45,-4.01 1.2,-1.27 -0.4,-4.57l-38.7 0c-3.52,2.42 -3.91,1.41 -8.05,5.11 0.39,0.3 0.98,0.57 1.29,0.72l6.94 2.7c-4.23,3.17 -3.52,0.37 -4.89,6.81 0,12.5 0,25.01 0,37.5 0,25.68 3.29,27.57 -4.83,32.26l1.62 2.05c4.03,5.4 2.94,-0.58 2.08,4.07 -0.53,2.84 -3.76,4.3 -5.44,5.86 18.63,0.76 4.76,3.35 25.65,3.55 10.39,0.1 20.18,1.49 30.67,1.04z"/>
   <path class="fil28" d="M2178.65 602.78l46.92 0 -5.07 -2.06c-2.79,-0.94 -1.15,0.48 -4.79,-1.35l6.07 -1.96c0.35,-0.12 0.98,-0.35 1.27,-0.45 0.29,-0.1 1.06,0.04 1.27,-0.48 0.21,-0.53 0.87,-0.27 1.25,-0.51 -0.35,-0.24 -0.87,-0.49 -1.1,-0.63l-2.2 -1.26c-0.31,-0.18 -0.79,-0.42 -1.11,-0.6 -0.31,-0.19 -0.78,-0.42 -1.08,-0.6 -3.22,-1.89 -1.09,-0.27 -4,-2.57 0.56,-9.91 1.9,3.08 3.14,-11.25l-1.6 -66.82c-0.79,-3.86 -0.15,-1.05 -0.3,-3.63 -0.23,-3.98 0.61,2.22 -0.03,-1.61 -0.02,-0.15 -0.13,-0.64 -0.16,-0.79 -0.04,-0.14 -0.24,-0.61 -0.28,-0.75l-1.51 -4.89c-8.79,-0.74 -32.25,0.83 -37.9,-3.44l-71.94 0 78.65 5.84c-3.55,2.51 -1.09,1.62 -6.93,2.15 0.39,0.38 0.95,0.81 1.23,1.05l3.99 4.08c-7.87,0.95 -2.41,-0.03 -5.12,2.21l0 71.58 -9.93 3.41c7.29,11.09 7.49,4.44 16.5,9.28 -10.97,0.6 -3.89,0.41 -6.89,2.65 1.37,2.62 -0.37,2.26 1.64,3.41z"/>
   <path class="fil29" d="M2276.7 498.8l9.88 -1.32c-2.89,3 -8.63,6.65 -13.82,7.78l3.5 3.69c4.25,6.08 1.97,53.88 2.06,63.2 0.11,10.66 0.06,13 -5.02,18.69 0.36,0.21 0.89,0.4 1.12,0.51l2.31 1.07c1.03,0.51 2.1,1.67 2.34,1.22 0.19,-0.34 0.8,0.41 1.17,0.66 -7.8,3.2 -1.74,-0.03 -7.7,8.47 12.59,-2.43 28.68,-2.52 38.64,-8.53l4.97 -3.17c1.39,-22.96 -1.01,-83.23 0.94,-96.83 1.26,-8.82 2.4,-13.03 -9.71,-20.14 -13.11,20.54 -24.44,16.8 -30.68,24.7z"/>
   <path class="fil30" d="M757.62 572.1c-8.24,-4.63 -8.33,-8.35 -16.37,-11.93 3.72,8.22 8.12,10.18 14.95,15.51 28.17,21.97 35.9,17.65 56.4,27.25l-76.61 -0.47c6.2,4.63 165.21,2.01 172.13,2.01l153.4 0c3.4,0.02 7,0.15 10.35,0.11 6.06,-0.07 6.07,0.62 10.1,-1.57l-101.33 0.12 -71.37 -0.37 -77.13 -2.78c1.13,-1.75 3.26,-1.54 4.89,-6.14l-13.55 -0.59c4.73,-0.22 11,0.45 15.26,-1.92 0.03,-0.27 -0.21,-0.68 -0.27,-0.77 -0.07,-0.09 -0.28,-0.61 -0.37,-0.72 -0.09,-0.11 -0.42,-0.54 -0.54,-0.65 -0.13,-0.11 -0.6,-0.45 -0.74,-0.55 -0.25,-0.19 -2.53,-0.98 -3.05,-1.22 4.62,-4.21 2.66,0.6 3.4,-8.34l1.48 -71.77c3.62,-2.28 0.39,-0.11 4.53,-1.81 2.31,-0.95 1.51,1.47 2.44,-1.05 0.2,-0.53 0.85,-0.31 1.23,-0.55 -0.38,-0.24 -0.95,-0.4 -1.23,-0.51l-7.31 -2.9 -28.12 0c-1.56,2.19 -1.43,2.01 -3.5,4.12l-3.67 3.49c-0.15,-0.3 -0.66,0.6 -0.97,0.91 4.55,10.73 1.68,59 1.68,75.43 2.73,1.26 5.78,1.72 8.15,2.96 -0.86,0.39 -7.4,1.46 -10.18,3.88 2.88,0.75 13.55,6.16 20.3,5.08 -22.61,0.52 -48.64,-8.88 -64.37,-24.29z"/>
   <path class="fil31" d="M1297.86 569.59c5.86,9.4 30.99,24.76 40.79,23.98 6.56,0.44 14.74,4.21 19.26,2.38 -3.76,-3.02 -4.11,-4.36 -10.01,-5.17 5.37,-3.69 2.68,0.69 5.03,-5.03 -1.35,-2.1 -0.68,0 -1.4,-3.77l0.27 -70.97c1.15,-5.35 4.17,-5.61 0.15,-7.81l-9.51 -2.25c-0.29,-0.08 -0.85,-0.21 -1.21,-0.45l-37.6 0 -0.03 15.34c0.4,5.66 0.16,11.38 0.17,17.05 0.04,13.54 -0.36,20.79 -1.67,32.11l7.5 -1.6c0.1,-0.31 0.62,0.02 0.89,0.16 -2.66,5.88 -0.27,0.19 -2.97,3.9 -1.43,1.96 -0.71,-0.65 -2.16,3.4l-7.48 -1.29z"/>
   <path class="fil32" d="M757.62 572.1c15.74,15.4 41.76,24.81 64.37,24.29 -6.76,1.08 -17.42,-4.33 -20.3,-5.08 2.78,-2.42 9.32,-3.49 10.18,-3.88 -2.37,-1.24 -5.43,-1.7 -8.15,-2.96 0,-16.44 2.87,-64.7 -1.68,-75.43 0.31,-0.31 0.82,-1.21 0.97,-0.91l3.67 -3.49c2.08,-2.12 1.95,-1.93 3.5,-4.12l-67.02 0c4.34,2.01 6.6,0.42 11.97,2.94 3.21,15.25 -3.31,-0.1 -1.72,29.42 0.69,12.83 2.91,16.85 0.11,30.7 3.17,2.72 6.26,5.64 8.42,8.52 -2.49,0.89 4.04,3.92 -4.33,0.01z"/>
   <path class="fil33" d="M154.21 41.16c-9.44,4.38 -23.66,26.96 -28.87,37.56 -20.5,41.67 -15.67,106.34 -15.8,154.22 -0.03,8.02 -3.17,31.76 10.49,18.74 -5.15,-0.34 -5.43,-0.75 -9.52,-1.7 0,-29.65 -4.04,-96.32 4.51,-116.49 5.53,-13.03 19.93,-23.24 38.01,-23.35 21,-0.12 42.11,0.08 63.13,0.08 -6.32,-4.17 -21.19,-2.59 -36.31,-3.51l-0.02 -56.18c0.13,-9.35 2.05,-12.8 -3.64,-16.25l3.5 -3.21c2.29,-2.36 0.29,0.69 2.27,-2.65 -1.26,-0.53 1.97,-2.6 -5,-0.01 -8.25,2.04 -13.07,9.54 -22.75,12.74z"/>
   <path class="fil34" d="M218.14 353.94l30.93 0 11.52 -1.97c-0.11,-0.17 -0.5,-1.05 -0.56,-0.8l-1.52 -3.94c-0.07,-0.44 -0.07,-1.78 -0.07,-2.31l0.4 -93.73 -40.95 0.48 0 76.71c0.04,14.51 1.98,16.86 -2.72,22.15 3.14,2.08 2.05,2.42 2.95,3.41z"/>
   <path class="fil35" d="M166.75 268.05c8.25,0.13 4.24,0.38 10.11,-2.62 3.93,-2.01 2.74,-4.05 8.42,-1.81 -3.92,5.09 -1.39,1.58 -6.96,5.11 0.39,0.27 1.03,0.13 1.23,0.71 0.98,2.85 5.06,2.42 5.55,2.7l0.27 71.52c1.67,7.21 -0.77,0.6 4.68,6.88 -1.46,1.11 -0.67,1.32 -1.75,3.41l29.85 0c-0.9,-0.98 0.18,-1.33 -2.95,-3.41 4.7,-5.29 2.76,-7.64 2.72,-22.15l0 -76.71 40.95 -0.48c4.51,-0.03 9.03,-0.13 13.55,-0.19 5.95,-0.08 10.3,0.17 15.34,-2.72l-131.35 -0.13c-1.84,0.08 -2.85,0.1 -4.65,0.47 -3.72,0.78 -1.65,0.04 -3.75,1.38 20.85,-0.62 39.46,-0.36 60.19,1.68 -3.19,-1.32 -16.01,2.32 -21.33,4.51 -5.95,2.45 -16.92,5.13 -20.1,11.86z"/>
   <path class="fil36" d="M166.75 268.05c-10.11,2.65 -24.55,19.31 -28.23,29.47 7.49,-1.84 1.78,-3.08 5.6,0.18 -6.26,7.55 1.06,-0.1 0.79,13.95 -7.09,-0.85 -5.12,2.63 -6.35,-4.86 -0.15,5.4 0.4,5.78 3.66,8.54 -1.98,5.78 -0.59,3.69 -4.86,6.24 5.89,3.79 3.7,-1.72 2.04,7.55 -0.78,4.36 -2.78,7.78 -2.92,8.64 -0.54,3.52 0.95,4.79 0.3,9.27 -1.44,9.93 0.05,4.73 -4.12,6.93l55.65 0c1.08,-2.08 0.29,-2.3 1.75,-3.41 -5.45,-6.28 -3.01,0.33 -4.68,-6.88l-0.27 -71.52c-0.49,-0.28 -4.57,0.15 -5.55,-2.7 -0.2,-0.57 -0.84,-0.44 -1.23,-0.71 5.57,-3.53 3.04,-0.02 6.96,-5.11 -5.67,-2.24 -4.49,-0.2 -8.42,1.81 -5.87,3 -1.86,2.75 -10.11,2.62z"/>
   <path class="fil22" d="M333.51 108.16l-46.85 -2.74c0,0 1.4,4.49 1.72,-8.59l-0.12 -87.3c10.81,-0.31 27.35,0.28 35.87,-3.37l-70.88 2.74 0.01 97.16 80.24 2.1z"/>
   <path class="fil37" d="M1883 65.12c1.96,5.95 0.42,20.53 0.8,28.06 0.53,10.65 2.35,19.83 4.97,28.48 4.1,13.56 11.38,33.99 21.3,41.4l6.16 2.74c0.12,-5.92 0.79,-6.66 1.63,-11.27 -2.5,-1.18 -1.78,-0.34 -2.92,-0.33 -7.39,0.07 2.77,3.18 -2.25,0.33 0.5,-12.31 3.18,1.18 3.42,-14.44 -5.69,1.78 -2.76,1.9 -7.02,5.5l4.12 -10.47c0.16,-0.36 0.39,-0.79 0.54,-1.16 0.16,-0.39 0.39,-0.8 0.54,-1.2 4.21,-10.87 0.09,-27.58 0.14,-41.24 0.05,-13.05 -1.73,-26.08 0.11,-38.54l-0.08 -7.39c1.51,-6.94 4.3,-7.17 -2.47,-9.2 -9.32,8.13 -23.67,18.06 -28.98,28.72z"/>
   <path class="fil38" d="M171.2 581.67c4.31,1.49 6.57,2.56 11.72,3.02 0.01,-9.12 1.02,-7.93 -6.76,-10.18 4.59,-0.11 3.57,-0.36 6.64,-1.66l0.48 -56.46c0.08,-2.08 1.78,-4.63 -3.29,-9.6 -2.78,-2.73 0.24,-0.81 -1.94,-1.27l12.15 -2.08c0.43,-0.13 1.05,-0.33 1.53,-0.57l-40.89 1.92 -7.46 5.95 10.22 1.4c-0.34,0.21 -1,0.09 -1.17,0.74 -0.36,1.44 -3.56,0.24 -4.13,8.01 -1.71,23.16 3.61,15.26 7.13,20.24 0.07,0.09 3.66,0.04 0.05,5.57 -0.21,0.31 -0.62,0.69 -0.87,0.97l-3.37 2.27c2.97,8.48 4.15,0.97 3.66,13.95 -10.58,-4.99 -23.51,-28.81 -28.12,-38.41 -7.61,-15.88 -12.9,-32.6 -12.9,-53.93 -5.67,-14.71 -3.39,-36.25 -3.39,-54.54 0,-9.66 0.02,-19.33 -0.01,-28.98 -0.04,-11.26 1.71,-18.37 1.71,-26.9 -6.71,10.76 -2.57,116.43 1.18,135.47 3.41,17.3 17.16,50.6 27.27,60.6 6.48,6.42 22.62,24.43 30.54,24.46z"/>
   <path class="fil32" d="M176.96 28.41c6.97,-2.59 3.74,-0.52 5,0.01 -1.98,3.34 0.02,0.3 -2.27,2.65l-3.5 3.21c5.69,3.44 3.76,6.9 3.64,16.25l0.02 56.18c15.13,0.92 29.99,-0.66 36.31,3.51l42.61 0c-2.16,-1.53 -1.03,-1.27 -4.99,-2.47 -2.61,-0.79 -4.21,-0.92 -6.92,-1.07 -12.54,-0.65 -16.75,1.09 -35.54,-0.92l0.04 -60.39c0.13,-11.22 1.39,-10.02 -5.16,-15.25 3.61,-3.14 2.81,-0.86 3.63,-7.29l-8.68 -1.96c7.8,-2.54 7.02,-1.41 8.77,-6.55 -10.85,0.8 -17.7,4.3 -26.22,9.27 -4.01,2.34 -4.18,0.8 -6.73,4.83z"/>
   <path class="fil39" d="M1688.7 13.08l0.4 34.44c6.07,-1.79 3.58,-0.79 5.89,-5.08 0.88,2.9 -0.55,0.86 1.44,3.77 1.64,2.4 0.97,1.23 2.74,2.82 5.27,-3.5 85.4,-1.67 91.8,-1.67l1.39 -2.2c0.15,-0.22 0.57,-0.85 0.76,-1.1l1.62 -2.19 0.59 -31.08 -2.51 11.29 -103.38 0.1 -0.85 -15.92c-0.21,0.34 -0.65,0.42 -0.65,1.01 0,0.6 -0.41,0.88 -0.4,1.15 0.21,2.96 -0.02,1.64 1.17,4.67z"/>
   <path class="fil40" d="M1297.86 569.59l7.48 1.29c1.45,-4.05 0.74,-1.43 2.16,-3.4 2.71,-3.72 0.31,1.98 2.97,-3.9 -0.27,-0.15 -0.79,-0.47 -0.89,-0.16l-7.5 1.6c1.31,-11.32 1.71,-18.57 1.67,-32.11 -0.01,-5.67 0.23,-11.39 -0.17,-17.05l0.03 -15.34c-15.39,0 -24.46,-2.57 -33.94,-8.76 -4.83,-3.17 -7.6,-6.56 -10.79,-11.37 -3.57,-5.35 -2.62,-6.01 -4.51,-10.84l-2.46 -4.81c3.74,39.2 11.97,73.96 40.7,101.38 3.18,3.03 2.89,2.59 5.23,3.49z"/>
   <path class="fil8" d="M741.25 560.17c8.04,3.58 8.13,7.29 16.37,11.93 8.36,3.91 1.84,0.88 4.33,-0.01 -2.16,-2.88 -5.25,-5.8 -8.42,-8.52 2.8,-13.85 0.59,-17.87 -0.11,-30.7 -1.6,-29.52 4.92,-14.18 1.72,-29.42 -5.37,-2.52 -7.63,-0.93 -11.97,-2.94 -0.4,-0.22 -1.06,-0.91 -1.28,-0.54 0,0.01 -15.19,-4.39 -24.3,-13.45 -13.43,-13.33 -7.86,-22.28 -12.57,-28.62 1.2,43.33 13.66,77.31 36.23,102.26z"/>
   <path class="fil41" d="M1688.58 6.26l0.85 15.92 103.38 -0.1 2.51 -11.29 -0.3 -2.82c-1.24,-6.01 -11.81,-3.41 -24.51,-3.41 -18.89,0.02 -72.84,-2.48 -81.93,1.7z"/>
   <path class="fil42" d="M191.74 502.87l55.58 -2.36c-27.42,0 -54.85,-0.03 -82.29,0 -17.64,0.02 -22.78,0.7 -34.7,-6.2 -7.06,-4.1 -16.04,-12.93 -16.44,-22.77 0,21.33 5.29,38.05 12.9,53.93 4.6,9.6 17.54,33.43 28.12,38.41 0.48,-12.98 -0.69,-5.47 -3.66,-13.95l3.37 -2.27c0.25,-0.28 0.66,-0.66 0.87,-0.97 3.61,-5.53 0.02,-5.48 -0.05,-5.57 -3.52,-4.99 -8.84,2.92 -7.13,-20.24 0.57,-7.78 3.78,-6.57 4.13,-8.01 0.17,-0.65 0.82,-0.53 1.17,-0.74l-10.22 -1.4 7.46 -5.95 40.89 -1.92z"/>
   <path class="fil38" d="M1794.73 41.86l-1.73 39.73 -0.01 24.05c-5.54,-0.04 -12.12,-0.44 -17.49,-0.26 -7.24,0.24 -5.46,0.08 -11.72,4.83 3.79,7.22 3.17,1.94 5.02,10.9 -0.19,3.55 9.24,16.94 14.2,29.68 8.7,22.32 5.7,19.25 9.46,30.74l1.92 4.37c0,-24.14 5.22,-166.31 0.65,-177.94l0.3 2.82 -0.59 31.08z"/>
   <path class="fil43" d="M1756.87 107.18c0.13,4.01 0.07,2.1 3.21,6.27 0.68,0.91 2.56,3.2 3.34,3.9 4.45,4 -0.49,0.69 5.38,3.78 -1.85,-8.96 -1.23,-3.68 -5.02,-10.9 6.26,-4.75 4.48,-4.59 11.72,-4.83 5.37,-0.18 11.95,0.22 17.49,0.26l0.01 -24.05 -1.81 5.58c-7.81,-0.05 -20.36,1.55 -23.94,0.18 -5.07,-1.96 -3.27,-2.45 -10.42,-3.18 -8.4,-0.88 -5.46,2.27 -9.46,-3.48 -3.76,4.2 -0.62,-0.99 -1.83,3.47 -0.09,0.33 0.1,2.56 0.06,3.13 -2.56,-3.02 -8.76,-5.68 -13.57,-6.82 4.28,9.9 15.05,12.16 23.92,25.25 0.26,0.38 0.62,0.96 0.92,1.45z"/>
   <path class="fil44" d="M111.77 359.05c10.7,-6.15 3.14,-5.11 20.88,-5.11 4.17,-2.19 2.68,3.01 4.12,-6.93 0.65,-4.48 -0.85,-5.75 -0.3,-9.27 0.14,-0.86 2.14,-4.27 2.92,-8.64 1.66,-9.28 3.85,-3.76 -2.04,-7.55 4.28,-2.54 2.88,-0.45 4.86,-6.24 -3.26,-2.76 -3.81,-3.14 -3.66,-8.54 1.23,7.5 -0.74,4.01 6.35,4.86 0.27,-14.04 -7.05,-6.39 -0.79,-13.95 -3.81,-3.26 1.9,-2.02 -5.6,-0.18 -3.93,0.66 -13.54,18.92 -16.74,25.05 -3.55,6.83 -8.99,26.71 -10.01,36.49z"/>
  </g>
 </g>
</svg>
