<?xml version="1.0" encoding="UTF-8"?>
<!DOCTYPE svg PUBLIC "-//W3C//DTD SVG 1.1//EN" "http://www.w3.org/Graphics/SVG/1.1/DTD/svg11.dtd">
<!-- Creator: CorelDRAW 2019 (64-Bit) -->
<svg xmlns="http://www.w3.org/2000/svg" xml:space="preserve" width="6.16438in" height="0.542504in" version="1.1" style="shape-rendering:geometricPrecision; text-rendering:geometricPrecision; image-rendering:optimizeQuality; fill-rule:evenodd; clip-rule:evenodd"
viewBox="0 0 3662.55 322.33"
 xmlns:xlink="http://www.w3.org/1999/xlink"
 xmlns:xodm="http://www.corel.com/coreldraw/odm/2003">
 <defs>
  <style type="text/css">
   <![CDATA[
    .fil1 {fill:#313E80}
    .fil0 {fill:#A9ABAE;fill-rule:nonzero}
   ]]>
  </style>
 </defs>
 <g id="Layer_x0020_1">
  <metadata id="CorelCorpID_0Corel-Layer"/>
  <g id="_2256667579472">
   <path class="fil0" d="M2761.33 0c4.21,0 7.48,1.1 9.77,3.29 2.32,2.22 3.5,5.41 3.5,9.52l0 42.97c0,8.54 -4.42,12.81 -13.27,12.81l-197.65 0c-5.84,0 -11.13,0.25 -15.84,0.71 -4.67,0.47 -8.9,1.19 -12.63,2.14 -3.62,0.91 -6.88,2.16 -9.75,3.7 -2.84,1.53 -5.34,3.36 -7.47,5.5 -2.13,2.12 -3.94,4.64 -5.42,7.53 -1.5,2.94 -2.69,6.32 -3.54,10.07 -0.89,3.9 -1.55,8.25 -1.98,13.03 -0.44,4.78 -0.66,10.11 -0.66,15.97l0 1.66 252.69 0c4.1,0 7.27,1.11 9.48,3.33 2.22,2.22 3.33,5.38 3.33,9.48l0 35.74c0,4.09 -1.11,7.27 -3.33,9.49 -2.22,2.21 -5.39,3.33 -9.48,3.33l-252.69 0 0 4.83c0,5.86 0.23,11.2 0.66,15.97 0.44,4.77 1.09,9.13 1.98,13.03 0.85,3.76 2.04,7.13 3.54,10.07 1.48,2.88 3.29,5.42 5.42,7.53 2.14,2.13 4.64,3.97 7.48,5.5 2.88,1.54 6.14,2.79 9.75,3.7 3.73,0.95 7.96,1.67 12.63,2.14 4.71,0.47 10,0.71 15.84,0.71l197.65 0c4.21,0 7.48,1.1 9.77,3.29 2.32,2.22 3.5,5.41 3.5,9.52l0 42.97c0,8.53 -4.42,12.81 -13.27,12.81l-199 0c-23.15,0 -42.85,-2.15 -59.07,-6.43 -8.18,-2.16 -15.66,-5.02 -22.37,-8.55 -6.74,-3.54 -12.75,-7.8 -17.98,-12.71 -5.24,-4.93 -9.79,-10.61 -13.61,-17.01 -3.81,-6.38 -6.93,-13.49 -9.33,-21.32 -2.38,-7.77 -4.18,-16.37 -5.36,-25.76 -1.18,-9.38 -1.78,-19.56 -1.78,-30.49l0 -77.79c0,-21.96 2.38,-40.65 7.14,-56.02 2.4,-7.75 5.52,-14.81 9.33,-21.15 3.83,-6.37 8.37,-12.03 13.61,-16.95 5.23,-4.93 11.24,-9.2 17.96,-12.76 6.69,-3.55 14.16,-6.47 22.36,-8.71 16.25,-4.44 35.95,-6.67 59.1,-6.67l199 0zm380.04 262.59l62.98 0 0 -249.78c0,-8.53 4.42,-12.81 13.27,-12.81l48.85 0c4.09,0 7.27,1.11 9.49,3.33 2.21,2.22 3.33,5.39 3.33,9.49l0 296.7c0,4.08 -1.12,7.26 -3.33,9.48 -2.22,2.22 -5.4,3.34 -9.49,3.34l-21.77 0 -27.08 0 -0.19 0 -0.2 0 -48.28 0 -0.12 0 -0.13 0 -0.12 0 -46.41 0 -11.94 0c-2.08,0 -3.9,-0.14 -5.44,-0.38 -1.72,-0.29 -3.13,-0.77 -4.18,-1.39 -0.95,-0.57 -1.9,-1.32 -2.82,-2.24 -0.85,-0.85 -1.73,-1.9 -2.57,-3.08l-70.54 -92.86 -141.82 0 0 87.14c0,4.08 -1.12,7.26 -3.33,9.48 -2.22,2.22 -5.4,3.34 -9.48,3.34l-48.85 0c-4.22,0 -7.49,-1.11 -9.78,-3.28 -2.32,-2.23 -3.49,-5.42 -3.49,-9.53l0 -293.09c0,-5.3 1.42,-9.38 4.23,-12.19 2.82,-2.82 6.89,-4.24 12.2,-4.24l242.88 0c35.48,0 61.05,8.15 76.69,24.4 15.61,16.24 23.42,40.12 23.42,71.63l0 25.78c0,26.52 -5.46,47.57 -16.36,63.14 -5.52,7.9 -12.79,14.38 -21.74,19.41 -7.71,4.33 -16.71,7.6 -26.96,9.8l39.05 48.43zm-258.49 -101.12l170.36 0c7.43,0 13.73,-0.79 18.85,-2.35 4.93,-1.51 8.83,-3.75 11.65,-6.7 2.86,-3 5.02,-6.82 6.47,-11.44 1.49,-4.75 2.24,-10.41 2.24,-16.91l0 -18.99c0,-6.5 -0.75,-12.15 -2.24,-16.9 -1.44,-4.62 -3.6,-8.44 -6.47,-11.44 -2.82,-2.96 -6.72,-5.2 -11.65,-6.71 -5.12,-1.56 -11.42,-2.35 -18.85,-2.35l-167.35 0c-2.01,0 -3.02,0.86 -3.02,2.57l0 91.21zm755.1 -161.47c4.1,0 7.27,1.11 9.49,3.33 2.22,2.22 3.33,5.38 3.33,9.49l0 42.97c0,4.1 -1.11,7.27 -3.33,9.49 -2.22,2.22 -5.38,3.33 -9.49,3.33l-226.59 0c-4.05,0 -7.46,0.51 -10.21,1.52 -2.58,0.93 -4.62,2.34 -6.1,4.19 -3.21,3.99 -4.81,9.58 -4.81,16.76l0 15.38c0,14.97 6.89,22.47 20.66,22.47l169.62 0c13.4,0 25.23,1.73 35.4,5.19 10.29,3.5 18.93,8.77 25.89,15.81 6.91,7 12.13,15.53 15.59,25.55 3.42,9.9 5.14,21.28 5.14,34.11l0 36.18c0,11.32 -1.69,21.6 -5.05,30.83 -3.37,9.27 -8.46,17.47 -15.2,24.52 -6.8,7.12 -15.49,12.47 -26.03,16 -10.4,3.49 -22.63,5.25 -36.65,5.25l-250.57 0c-4.21,0 -7.48,-1.1 -9.77,-3.29 -2.31,-2.22 -3.49,-5.4 -3.49,-9.52l0 -42.97c0,-4.12 1.17,-7.3 3.49,-9.52 2.29,-2.19 5.55,-3.29 9.77,-3.29l237.45 0c4.04,0 7.45,-0.51 10.21,-1.52 2.59,-0.95 4.64,-2.36 6.11,-4.2 3.19,-3.98 4.79,-9.57 4.79,-16.75l0 -18.55c0,-14.97 -6.89,-22.47 -20.66,-22.47l-169.62 0c-13.41,0 -25.23,-1.74 -35.4,-5.19 -10.29,-3.49 -18.93,-8.77 -25.89,-15.8 -6.93,-7.01 -12.13,-15.53 -15.59,-25.55 -3.42,-9.9 -5.14,-21.3 -5.14,-34.12l0 -33.02c0,-11.32 1.69,-21.6 5.05,-30.83 3.37,-9.27 8.45,-17.47 15.2,-24.52 6.8,-7.12 15.49,-12.47 26.03,-16 10.4,-3.49 22.63,-5.25 36.65,-5.25l239.71 0z"/>
   <path class="fil1" d="M1774.14 318.56c-23.01,0 -46.01,0.18 -69.02,-0.06 -17.19,-0.17 -34.25,-1.8 -51.01,-6.02 -36.45,-9.17 -57.88,-32.52 -65.67,-68.95 -2.95,-13.78 -4.24,-27.74 -4.31,-41.8 -0.14,-27.33 -0.15,-54.67 0,-82.01 0.09,-15.7 1.56,-31.3 5.5,-46.57 9.16,-35.46 32.35,-56.29 67.51,-64.63 14.59,-3.46 29.41,-5.27 44.36,-5.31 51.99,-0.15 103.98,-0.2 155.96,0.03 16.9,0.08 33.61,2.25 49.96,6.87 35.07,9.89 55.58,33.01 62.86,68.43 2.81,13.67 4.04,27.49 4.04,41.38 0,31.82 0.74,63.64 -0.51,95.45 -0.54,13.46 -2.62,26.72 -6.58,39.62 -9.54,31.05 -30.96,49.34 -61.88,57.33 -17.01,4.4 -34.39,6.05 -51.88,6.19 -26.44,0.22 -52.88,0.06 -79.32,0.06zm351.39 0.04c-41.38,0 -82.77,0 -124.14,-0 -11.65,0 -15.52,-3.92 -15.54,-15.67 -0.01,-12.1 -0.01,-24.2 0,-36.3 0.01,-11.92 3.95,-15.89 15.83,-15.89 74.69,-0.01 149.39,-0 224.08,-0 1.34,0 2.69,0.01 4.03,0 15.52,-0.09 21.04,-5.28 21.54,-20.84 0.25,-7.9 0.48,-15.83 -0.32,-23.73 -1.04,-10.26 -6.43,-15.61 -16.67,-16.49 -1.93,-0.16 -3.88,-0.11 -5.82,-0.11 -53.93,-0 -107.86,-0.02 -161.79,0.01 -11.26,0.01 -22.33,-1.08 -33.14,-4.38 -23.17,-7.08 -38.56,-22.37 -44.2,-45.68 -6.63,-27.42 -6.39,-55.6 -1.1,-83.1 5.55,-28.86 26.61,-46.89 55.57,-51.52 7.84,-1.26 15.7,-1.83 23.63,-1.83 77.23,0.03 154.47,0.01 231.7,0.02 22.56,0 14.59,34.01 14.56,52.91 -0.02,11.04 -3.73,14.76 -14.84,14.76 -71.56,0.02 -143.11,0 -214.67,0.02 -2.83,0 -5.67,0.09 -8.5,0.32 -9.45,0.76 -14.75,5.69 -15.8,15.16 -1.01,9.07 -0.99,18.21 -0.01,27.29 1.01,9.32 6.93,14.66 16.38,15.16 3.43,0.18 6.87,0.12 10.3,0.12 51.99,0.01 103.97,0 155.96,0.01 10.93,0 21.8,0.79 32.36,3.77 27.53,7.77 43.05,26.4 48.48,54.03 2.91,14.8 1.65,29.78 1.8,44.69 0.11,10.14 0.4,20.28 -1.6,30.35 -6.09,30.7 -26.91,50.61 -57.93,55.22 -7.85,1.17 -15.71,1.75 -23.65,1.74 -38.84,-0.04 -77.68,-0.02 -116.52,-0.02zm-1453.47 -105.66c10.27,12.75 20.21,25.04 30.08,37.41 1.29,1.61 2.73,1.94 4.64,1.93 25.99,-0.05 51.99,-0.08 77.98,0.04 2.88,0.01 4.12,-1.13 5.39,-3.48 17.42,-32.1 34.94,-64.13 52.44,-96.18 20.57,-37.67 41.15,-75.35 61.7,-113.03 3.94,-7.22 8.29,-14.15 13.63,-20.44 8.95,-10.53 20.43,-15.93 34.13,-15.99 13.12,-0.06 26.28,-1 39.38,0.71 13.26,1.73 23.84,8.09 32.03,18.58 4.24,5.42 7.86,11.23 11.17,17.26 38.17,69.34 76.4,138.64 114.46,208.03 1.96,3.57 4.07,4.67 7.96,4.56 10.15,-0.28 20.32,-0.33 30.47,0.01 4.49,0.15 5.92,-0.85 5.9,-5.69 -0.19,-64.09 -0.12,-128.18 -0.13,-192.27 0,-6.43 0.25,-12.84 1.36,-19.19 3.61,-20.6 12.94,-30.31 33.79,-31.63 20.83,-1.32 41.8,-1.09 62.69,0.16 11.75,0.7 21,6.21 28.47,15 11.6,13.67 22.01,28.26 32.88,42.5 46.49,60.86 92.87,121.8 139.29,182.71 0.54,0.71 1.12,1.4 1.63,2.14 1.59,2.28 4.04,1.99 6.12,1.55 2.23,-0.47 1.17,-2.73 1.17,-4.14 0.06,-74.7 0.05,-149.39 0.06,-224.09 0,-1.94 -0.06,-3.9 0.19,-5.81 0.94,-6.93 4.66,-10.4 11.67,-10.45 16.14,-0.11 32.27,-0.11 48.4,-0 7.53,0.05 11.49,4.04 12.01,11.59 0.08,1.19 0.04,2.39 0.04,3.58 0,83.37 0,166.72 0,250.08 0,7.78 -0.44,15.53 -2.34,23.11 -3.93,15.73 -13.4,24.09 -29.52,26.27 -4.45,0.6 -8.91,0.92 -13.4,0.84 -16.57,-0.33 -33.15,0.5 -49.72,-0.59 -13.09,-0.85 -23.43,-6.57 -31.48,-16.57 -8.43,-10.46 -16.62,-21.11 -24.78,-31.78 -48.79,-63.8 -97.55,-127.62 -146.32,-191.44 -0.73,-0.95 -1.52,-1.85 -2.28,-2.76 -1.7,-2.06 -4.1,-1.98 -6.18,-1.38 -2.1,0.6 -1.06,2.84 -1.06,4.3 -0.05,74.4 -0.05,148.8 -0.05,223.19 0,1.94 0.03,3.89 -0.11,5.82 -0.47,6.47 -4.3,10.44 -10.72,11.1 -1.63,0.17 -3.28,0.1 -4.92,0.1 -43.77,0 -87.54,-0.13 -131.31,0.11 -8.53,0.05 -13.76,-3.21 -17.8,-10.68 -41.82,-77.19 -83.86,-154.26 -125.87,-231.34 -1.14,-2.09 -1.67,-4.73 -5.19,-4.69 -3.54,0.04 -3.95,2.79 -5.05,4.86 -41.44,77.05 -82.89,154.09 -124.13,231.24 -4.02,7.52 -9.37,10.66 -17.85,10.61 -38.24,-0.21 -76.47,1.4 -114.72,0.78 -10.61,-0.17 -21.2,-0.65 -31.8,-0.94 -5.18,-0.14 -9.2,-2.38 -12.07,-6.6 -33.35,-49.01 -70.91,-94.95 -104.73,-143.62 -1.24,-1.78 -3.22,-3.52 -1.87,-6 1.27,-2.33 3.7,-1.51 5.69,-1.51 19.72,-0.05 39.44,-0.03 59.16,-0.05 5.39,-0 10.72,-0.51 16.01,-1.59 11.65,-2.38 18.86,-9.43 21.06,-20.99 2.72,-14.34 2.58,-28.94 0.47,-43.26 -2.35,-15.82 -11.51,-23.29 -27.82,-24.56 -3.87,-0.3 -7.76,-0.42 -11.64,-0.42 -52.43,-0.03 -104.87,-0.02 -157.31,-0.02 -6.14,0 -6.14,0.01 -6.14,6.04 -0,75.59 0,151.19 -0,226.78 0,12.4 -3.49,15.85 -16.02,15.85 -14.49,0 -28.98,0.03 -43.48,-0.01 -10.04,-0.02 -14.28,-4.14 -14.28,-14.07 -0.03,-94.72 -0.03,-189.43 0,-284.15 0,-12.35 4.88,-17.26 17,-17.27 80.37,-0.01 160.75,0 241.12,0.04 12.44,0.01 24.72,1.54 36.74,4.8 30.62,8.29 47.68,29.08 53.91,59.4 4.71,22.9 2.93,46.11 2.26,69.22 -0.23,8.21 -1.99,16.27 -4.28,24.18 -8.09,27.81 -26.8,44.3 -54.52,51.19 -1,0.25 -1.98,0.55 -3.64,1.02zm-485.99 -209.85l169.64 0c2.09,0 4.2,-0.09 6.27,0.14 5.87,0.64 9.9,4.36 9.98,10.18 0.23,16.13 0.23,32.26 -0.01,48.39 -0.09,5.76 -4.17,9.63 -9.87,10.39 -2.21,0.3 -4.47,0.34 -6.7,0.34 -42.43,0.02 -84.85,0.07 -127.28,-0.08 -4.01,-0.02 -4.88,1.05 -4.87,4.95 0.12,74.69 0.09,149.38 0.09,224.07 0,1.8 0.03,3.59 -0.05,5.38 -0.33,7.1 -4.43,11.58 -11.54,11.67 -8.55,0.1 -17.11,0.15 -25.67,0.15 -8.55,0 -17.11,-0.05 -25.66,-0.15 -7.11,-0.09 -11.2,-4.57 -11.54,-11.67 -0.08,-1.79 -0.05,-3.58 -0.05,-5.38 -0,-74.69 -0.04,-149.38 0.09,-224.07 0,-3.9 -0.86,-4.97 -4.87,-4.95 -42.42,0.16 -84.85,0.1 -127.27,0.08 -2.24,0 -4.49,-0.04 -6.7,-0.34 -5.7,-0.76 -9.78,-4.63 -9.87,-10.39 -0.25,-16.13 -0.24,-32.26 -0.01,-48.39 0.08,-5.82 4.11,-9.54 9.98,-10.18 2.07,-0.23 4.18,-0.14 6.27,-0.14l169.64 -0zm2161.72 29.3c0,-46.67 0,55.58 0,0zm-9.02 3.56c-4.56,-93.8 4.12,83.94 0,0zm-554.52 34.83c20.77,0.29 46.31,-0.49 71.84,0.4 5.24,0.18 10.4,1.01 15.49,2.12 16.26,3.53 24.27,14.53 26.94,30.2 1.18,6.92 1.88,13.89 1.88,20.93 -0,24.34 -0,48.68 -0,73.02 0,7.03 -0.68,14.02 -1.92,20.92 -3.46,19.25 -13.83,28.83 -33.74,31.23 -4.14,0.5 -8.32,0.98 -12.49,0.99 -48.98,0.06 -97.95,0.03 -146.92,0.01 -5.84,-0 -11.62,-0.82 -17.31,-2.03 -16.18,-3.46 -24.83,-12.77 -27.89,-29.79 -1.14,-6.32 -1.9,-12.68 -1.89,-19.12 0.03,-26.58 0.02,-53.16 0.05,-79.74 0,-6.14 0.8,-12.22 2.05,-18.21 3.78,-18.17 13.89,-27.12 32.76,-29.61 7.87,-1.03 15.77,-1.28 23.68,-1.3 20.9,-0.06 41.8,-0.02 67.47,-0.02z"/>
  </g>
 </g>
</svg>
