<svg width="268" height="268" viewBox="0 0 268 268" fill="none" xmlns="http://www.w3.org/2000/svg">
<rect width="268" height="268" fill="#DB2777"/>
<path d="M100.8 142V128.88H102.46V140.58H108.2V142H100.8ZM110.367 142V132.28H112.007V142H110.367ZM111.207 130.28C110.887 130.28 110.62 130.187 110.407 130C110.207 129.8 110.107 129.533 110.107 129.2C110.107 128.88 110.207 128.62 110.407 128.42C110.62 128.22 110.887 128.12 111.207 128.12C111.527 128.12 111.787 128.22 111.987 128.42C112.2 128.62 112.307 128.88 112.307 129.2C112.307 129.533 112.2 129.8 111.987 130C111.787 130.187 111.527 130.28 111.207 130.28ZM118.568 146.48C117.382 146.48 116.415 146.253 115.668 145.8C114.922 145.347 114.548 144.7 114.548 143.86C114.548 143.447 114.675 143.047 114.928 142.66C115.182 142.287 115.528 141.953 115.968 141.66V141.58C115.728 141.433 115.522 141.227 115.348 140.96C115.188 140.693 115.108 140.373 115.108 140C115.108 139.587 115.222 139.227 115.448 138.92C115.675 138.613 115.915 138.373 116.168 138.2V138.12C115.848 137.853 115.555 137.493 115.288 137.04C115.035 136.587 114.908 136.073 114.908 135.5C114.908 134.793 115.075 134.18 115.408 133.66C115.742 133.14 116.188 132.74 116.748 132.46C117.308 132.18 117.915 132.04 118.568 132.04C118.835 132.04 119.088 132.067 119.328 132.12C119.568 132.16 119.775 132.213 119.948 132.28H123.328V133.54H121.328C121.555 133.753 121.742 134.04 121.888 134.4C122.048 134.747 122.128 135.127 122.128 135.54C122.128 136.233 121.968 136.833 121.648 137.34C121.328 137.847 120.902 138.24 120.368 138.52C119.835 138.787 119.235 138.92 118.568 138.92C118.048 138.92 117.562 138.807 117.108 138.58C116.935 138.727 116.788 138.893 116.668 139.08C116.548 139.253 116.488 139.473 116.488 139.74C116.488 140.047 116.608 140.3 116.848 140.5C117.102 140.7 117.555 140.8 118.208 140.8H120.088C121.222 140.8 122.068 140.987 122.628 141.36C123.202 141.72 123.488 142.307 123.488 143.12C123.488 143.72 123.288 144.273 122.888 144.78C122.488 145.287 121.922 145.693 121.188 146C120.455 146.32 119.582 146.48 118.568 146.48ZM118.568 137.82C119.128 137.82 119.608 137.613 120.008 137.2C120.422 136.773 120.628 136.207 120.628 135.5C120.628 134.793 120.428 134.24 120.028 133.84C119.628 133.44 119.142 133.24 118.568 133.24C117.995 133.24 117.508 133.44 117.108 133.84C116.708 134.24 116.508 134.793 116.508 135.5C116.508 136.207 116.708 136.773 117.108 137.2C117.522 137.613 118.008 137.82 118.568 137.82ZM118.808 145.34C119.742 145.34 120.488 145.133 121.048 144.72C121.608 144.32 121.888 143.867 121.888 143.36C121.888 142.907 121.715 142.593 121.368 142.42C121.035 142.247 120.555 142.16 119.928 142.16H118.248C118.062 142.16 117.855 142.147 117.628 142.12C117.415 142.093 117.202 142.053 116.988 142C116.642 142.253 116.388 142.52 116.228 142.8C116.068 143.08 115.988 143.36 115.988 143.64C115.988 144.16 116.235 144.573 116.728 144.88C117.235 145.187 117.928 145.34 118.808 145.34ZM125.367 142V127.76H127.007V131.64L126.947 133.64C127.413 133.2 127.9 132.827 128.407 132.52C128.927 132.2 129.52 132.04 130.187 132.04C131.213 132.04 131.96 132.367 132.427 133.02C132.907 133.66 133.147 134.6 133.147 135.84V142H131.507V136.06C131.507 135.153 131.36 134.493 131.067 134.08C130.773 133.667 130.307 133.46 129.667 133.46C129.173 133.46 128.727 133.587 128.327 133.84C127.94 134.093 127.5 134.467 127.007 134.96V142H125.367ZM139.305 142.24C138.265 142.24 137.539 141.94 137.125 141.34C136.725 140.74 136.525 139.96 136.525 139V133.62H135.085V132.38L136.605 132.28L136.805 129.56H138.185V132.28H140.805V133.62H138.185V139.02C138.185 139.62 138.292 140.087 138.505 140.42C138.732 140.74 139.125 140.9 139.685 140.9C139.859 140.9 140.045 140.873 140.245 140.82C140.445 140.753 140.625 140.693 140.785 140.64L141.105 141.88C140.839 141.973 140.545 142.053 140.225 142.12C139.919 142.2 139.612 142.24 139.305 142.24ZM143.003 142V132.28H144.643V142H143.003ZM143.843 130.28C143.523 130.28 143.257 130.187 143.043 130C142.843 129.8 142.743 129.533 142.743 129.2C142.743 128.88 142.843 128.62 143.043 128.42C143.257 128.22 143.523 128.12 143.843 128.12C144.163 128.12 144.423 128.22 144.623 128.42C144.837 128.62 144.943 128.88 144.943 129.2C144.943 129.533 144.837 129.8 144.623 130C144.423 130.187 144.163 130.28 143.843 130.28ZM147.925 142V132.28H149.285L149.425 133.68H149.485C149.952 133.213 150.445 132.827 150.965 132.52C151.485 132.2 152.078 132.04 152.745 132.04C153.772 132.04 154.518 132.367 154.985 133.02C155.465 133.66 155.705 134.6 155.705 135.84V142H154.065V136.06C154.065 135.153 153.918 134.493 153.625 134.08C153.332 133.667 152.865 133.46 152.225 133.46C151.732 133.46 151.285 133.587 150.885 133.84C150.498 134.093 150.058 134.467 149.565 134.96V142H147.925ZM162.143 146.48C160.956 146.48 159.989 146.253 159.243 145.8C158.496 145.347 158.123 144.7 158.123 143.86C158.123 143.447 158.249 143.047 158.503 142.66C158.756 142.287 159.103 141.953 159.543 141.66V141.58C159.303 141.433 159.096 141.227 158.923 140.96C158.763 140.693 158.683 140.373 158.683 140C158.683 139.587 158.796 139.227 159.023 138.92C159.249 138.613 159.489 138.373 159.743 138.2V138.12C159.423 137.853 159.129 137.493 158.863 137.04C158.609 136.587 158.483 136.073 158.483 135.5C158.483 134.793 158.649 134.18 158.983 133.66C159.316 133.14 159.763 132.74 160.323 132.46C160.883 132.18 161.489 132.04 162.143 132.04C162.409 132.04 162.663 132.067 162.903 132.12C163.143 132.16 163.349 132.213 163.523 132.28H166.903V133.54H164.903C165.129 133.753 165.316 134.04 165.463 134.4C165.623 134.747 165.703 135.127 165.703 135.54C165.703 136.233 165.543 136.833 165.223 137.34C164.903 137.847 164.476 138.24 163.943 138.52C163.409 138.787 162.809 138.92 162.143 138.92C161.623 138.92 161.136 138.807 160.683 138.58C160.509 138.727 160.363 138.893 160.243 139.08C160.123 139.253 160.063 139.473 160.063 139.74C160.063 140.047 160.183 140.3 160.423 140.5C160.676 140.7 161.129 140.8 161.783 140.8H163.663C164.796 140.8 165.643 140.987 166.203 141.36C166.776 141.72 167.063 142.307 167.063 143.12C167.063 143.72 166.863 144.273 166.463 144.78C166.063 145.287 165.496 145.693 164.763 146C164.029 146.32 163.156 146.48 162.143 146.48ZM162.143 137.82C162.703 137.82 163.183 137.613 163.583 137.2C163.996 136.773 164.203 136.207 164.203 135.5C164.203 134.793 164.003 134.24 163.603 133.84C163.203 133.44 162.716 133.24 162.143 133.24C161.569 133.24 161.083 133.44 160.683 133.84C160.283 134.24 160.083 134.793 160.083 135.5C160.083 136.207 160.283 136.773 160.683 137.2C161.096 137.613 161.583 137.82 162.143 137.82ZM162.383 145.34C163.316 145.34 164.063 145.133 164.623 144.72C165.183 144.32 165.463 143.867 165.463 143.36C165.463 142.907 165.289 142.593 164.943 142.42C164.609 142.247 164.129 142.16 163.503 142.16H161.823C161.636 142.16 161.429 142.147 161.203 142.12C160.989 142.093 160.776 142.053 160.563 142C160.216 142.253 159.963 142.52 159.803 142.8C159.643 143.08 159.563 143.36 159.563 143.64C159.563 144.16 159.809 144.573 160.303 144.88C160.809 145.187 161.503 145.34 162.383 145.34Z" fill="white"/>
</svg>
