<svg width="268" height="268" viewBox="0 0 268 268" fill="none" xmlns="http://www.w3.org/2000/svg">
<rect width="268" height="268" fill="#D9D9D9"/>
<path d="M167.75 89H100.25C94.0368 89 89 94.0368 89 100.25V167.75C89 168.381 89.0519 168.999 89.1515 169.601C90.0342 174.933 94.6672 179 100.25 179H167.75C173.963 179 179 173.963 179 167.75V146.319V100.25C179 94.0368 173.963 89 167.75 89Z" stroke="#001A72" stroke-width="1.5" stroke-linecap="round" stroke-linejoin="round"/>
<path d="M128.375 117.125C128.375 123.338 123.338 128.375 117.125 128.375C110.912 128.375 105.875 123.338 105.875 117.125C105.875 110.912 110.912 105.875 117.125 105.875C123.338 105.875 128.375 110.912 128.375 117.125Z" stroke="#001A72" stroke-width="1.5" stroke-linecap="round" stroke-linejoin="round"/>
<path d="M89.1514 169.601L110.643 148.109C114.468 144.762 120.062 144.396 124.291 147.215L127.155 149.125C131.231 151.842 136.598 151.609 140.424 148.549L155.319 136.632C159.116 133.594 164.405 133.357 168.441 135.96C168.888 136.248 169.286 136.606 169.662 136.982L179 146.319" stroke="#001A72" stroke-width="1.5" stroke-linecap="round" stroke-linejoin="round"/>
</svg>
