<svg width="268" height="268" viewBox="0 0 268 268" fill="none" xmlns="http://www.w3.org/2000/svg">
<rect width="268" height="268" fill="#F59E0B"/>
<path d="M100.8 141V127.88H102.46V139.58H108.2V141H100.8ZM110.367 141V131.28H112.007V141H110.367ZM111.207 129.28C110.887 129.28 110.62 129.187 110.407 129C110.207 128.8 110.107 128.533 110.107 128.2C110.107 127.88 110.207 127.62 110.407 127.42C110.62 127.22 110.887 127.12 111.207 127.12C111.527 127.12 111.787 127.22 111.987 127.42C112.2 127.62 112.307 127.88 112.307 128.2C112.307 128.533 112.2 128.8 111.987 129C111.787 129.187 111.527 129.28 111.207 129.28ZM118.568 145.48C117.382 145.48 116.415 145.253 115.668 144.8C114.922 144.347 114.548 143.7 114.548 142.86C114.548 142.447 114.675 142.047 114.928 141.66C115.182 141.287 115.528 140.953 115.968 140.66V140.58C115.728 140.433 115.522 140.227 115.348 139.96C115.188 139.693 115.108 139.373 115.108 139C115.108 138.587 115.222 138.227 115.448 137.92C115.675 137.613 115.915 137.373 116.168 137.2V137.12C115.848 136.853 115.555 136.493 115.288 136.04C115.035 135.587 114.908 135.073 114.908 134.5C114.908 133.793 115.075 133.18 115.408 132.66C115.742 132.14 116.188 131.74 116.748 131.46C117.308 131.18 117.915 131.04 118.568 131.04C118.835 131.04 119.088 131.067 119.328 131.12C119.568 131.16 119.775 131.213 119.948 131.28H123.328V132.54H121.328C121.555 132.753 121.742 133.04 121.888 133.4C122.048 133.747 122.128 134.127 122.128 134.54C122.128 135.233 121.968 135.833 121.648 136.34C121.328 136.847 120.902 137.24 120.368 137.52C119.835 137.787 119.235 137.92 118.568 137.92C118.048 137.92 117.562 137.807 117.108 137.58C116.935 137.727 116.788 137.893 116.668 138.08C116.548 138.253 116.488 138.473 116.488 138.74C116.488 139.047 116.608 139.3 116.848 139.5C117.102 139.7 117.555 139.8 118.208 139.8H120.088C121.222 139.8 122.068 139.987 122.628 140.36C123.202 140.72 123.488 141.307 123.488 142.12C123.488 142.72 123.288 143.273 122.888 143.78C122.488 144.287 121.922 144.693 121.188 145C120.455 145.32 119.582 145.48 118.568 145.48ZM118.568 136.82C119.128 136.82 119.608 136.613 120.008 136.2C120.422 135.773 120.628 135.207 120.628 134.5C120.628 133.793 120.428 133.24 120.028 132.84C119.628 132.44 119.142 132.24 118.568 132.24C117.995 132.24 117.508 132.44 117.108 132.84C116.708 133.24 116.508 133.793 116.508 134.5C116.508 135.207 116.708 135.773 117.108 136.2C117.522 136.613 118.008 136.82 118.568 136.82ZM118.808 144.34C119.742 144.34 120.488 144.133 121.048 143.72C121.608 143.32 121.888 142.867 121.888 142.36C121.888 141.907 121.715 141.593 121.368 141.42C121.035 141.247 120.555 141.16 119.928 141.16H118.248C118.062 141.16 117.855 141.147 117.628 141.12C117.415 141.093 117.202 141.053 116.988 141C116.642 141.253 116.388 141.52 116.228 141.8C116.068 142.08 115.988 142.36 115.988 142.64C115.988 143.16 116.235 143.573 116.728 143.88C117.235 144.187 117.928 144.34 118.808 144.34ZM125.367 141V126.76H127.007V130.64L126.947 132.64C127.413 132.2 127.9 131.827 128.407 131.52C128.927 131.2 129.52 131.04 130.187 131.04C131.213 131.04 131.96 131.367 132.427 132.02C132.907 132.66 133.147 133.6 133.147 134.84V141H131.507V135.06C131.507 134.153 131.36 133.493 131.067 133.08C130.773 132.667 130.307 132.46 129.667 132.46C129.173 132.46 128.727 132.587 128.327 132.84C127.94 133.093 127.5 133.467 127.007 133.96V141H125.367ZM139.305 141.24C138.265 141.24 137.539 140.94 137.125 140.34C136.725 139.74 136.525 138.96 136.525 138V132.62H135.085V131.38L136.605 131.28L136.805 128.56H138.185V131.28H140.805V132.62H138.185V138.02C138.185 138.62 138.292 139.087 138.505 139.42C138.732 139.74 139.125 139.9 139.685 139.9C139.859 139.9 140.045 139.873 140.245 139.82C140.445 139.753 140.625 139.693 140.785 139.64L141.105 140.88C140.839 140.973 140.545 141.053 140.225 141.12C139.919 141.2 139.612 141.24 139.305 141.24ZM143.003 141V131.28H144.643V141H143.003ZM143.843 129.28C143.523 129.28 143.257 129.187 143.043 129C142.843 128.8 142.743 128.533 142.743 128.2C142.743 127.88 142.843 127.62 143.043 127.42C143.257 127.22 143.523 127.12 143.843 127.12C144.163 127.12 144.423 127.22 144.623 127.42C144.837 127.62 144.943 127.88 144.943 128.2C144.943 128.533 144.837 128.8 144.623 129C144.423 129.187 144.163 129.28 143.843 129.28ZM147.925 141V131.28H149.285L149.425 132.68H149.485C149.952 132.213 150.445 131.827 150.965 131.52C151.485 131.2 152.078 131.04 152.745 131.04C153.772 131.04 154.518 131.367 154.985 132.02C155.465 132.66 155.705 133.6 155.705 134.84V141H154.065V135.06C154.065 134.153 153.918 133.493 153.625 133.08C153.332 132.667 152.865 132.46 152.225 132.46C151.732 132.46 151.285 132.587 150.885 132.84C150.498 133.093 150.058 133.467 149.565 133.96V141H147.925ZM162.143 145.48C160.956 145.48 159.989 145.253 159.243 144.8C158.496 144.347 158.123 143.7 158.123 142.86C158.123 142.447 158.249 142.047 158.503 141.66C158.756 141.287 159.103 140.953 159.543 140.66V140.58C159.303 140.433 159.096 140.227 158.923 139.96C158.763 139.693 158.683 139.373 158.683 139C158.683 138.587 158.796 138.227 159.023 137.92C159.249 137.613 159.489 137.373 159.743 137.2V137.12C159.423 136.853 159.129 136.493 158.863 136.04C158.609 135.587 158.483 135.073 158.483 134.5C158.483 133.793 158.649 133.18 158.983 132.66C159.316 132.14 159.763 131.74 160.323 131.46C160.883 131.18 161.489 131.04 162.143 131.04C162.409 131.04 162.663 131.067 162.903 131.12C163.143 131.16 163.349 131.213 163.523 131.28H166.903V132.54H164.903C165.129 132.753 165.316 133.04 165.463 133.4C165.623 133.747 165.703 134.127 165.703 134.54C165.703 135.233 165.543 135.833 165.223 136.34C164.903 136.847 164.476 137.24 163.943 137.52C163.409 137.787 162.809 137.92 162.143 137.92C161.623 137.92 161.136 137.807 160.683 137.58C160.509 137.727 160.363 137.893 160.243 138.08C160.123 138.253 160.063 138.473 160.063 138.74C160.063 139.047 160.183 139.3 160.423 139.5C160.676 139.7 161.129 139.8 161.783 139.8H163.663C164.796 139.8 165.643 139.987 166.203 140.36C166.776 140.72 167.063 141.307 167.063 142.12C167.063 142.72 166.863 143.273 166.463 143.78C166.063 144.287 165.496 144.693 164.763 145C164.029 145.32 163.156 145.48 162.143 145.48ZM162.143 136.82C162.703 136.82 163.183 136.613 163.583 136.2C163.996 135.773 164.203 135.207 164.203 134.5C164.203 133.793 164.003 133.24 163.603 132.84C163.203 132.44 162.716 132.24 162.143 132.24C161.569 132.24 161.083 132.44 160.683 132.84C160.283 133.24 160.083 133.793 160.083 134.5C160.083 135.207 160.283 135.773 160.683 136.2C161.096 136.613 161.583 136.82 162.143 136.82ZM162.383 144.34C163.316 144.34 164.063 144.133 164.623 143.72C165.183 143.32 165.463 142.867 165.463 142.36C165.463 141.907 165.289 141.593 164.943 141.42C164.609 141.247 164.129 141.16 163.503 141.16H161.823C161.636 141.16 161.429 141.147 161.203 141.12C160.989 141.093 160.776 141.053 160.563 141C160.216 141.253 159.963 141.52 159.803 141.8C159.643 142.08 159.563 142.36 159.563 142.64C159.563 143.16 159.809 143.573 160.303 143.88C160.809 144.187 161.503 144.34 162.383 144.34Z" fill="white"/>
</svg>
