<svg width="268" height="268" viewBox="0 0 268 268" fill="none" xmlns="http://www.w3.org/2000/svg">
<rect width="268" height="268" fill="#172673"/>
<path d="M59.44 141.24C58.52 141.24 57.6667 141.067 56.88 140.72C56.0933 140.36 55.4133 139.887 54.84 139.3L55.84 138.14C56.3067 138.633 56.8533 139.033 57.48 139.34C58.12 139.633 58.78 139.78 59.46 139.78C60.3267 139.78 61 139.587 61.48 139.2C61.96 138.8 62.2 138.28 62.2 137.64C62.2 137.187 62.1 136.827 61.9 136.56C61.7133 136.293 61.4533 136.067 61.12 135.88C60.8 135.693 60.4333 135.507 60.02 135.32L58.14 134.5C57.7267 134.327 57.3133 134.1 56.9 133.82C56.5 133.54 56.16 133.18 55.88 132.74C55.6133 132.3 55.48 131.76 55.48 131.12C55.48 130.453 55.6533 129.86 56 129.34C56.36 128.807 56.8533 128.393 57.48 128.1C58.1067 127.793 58.8133 127.64 59.6 127.64C60.3867 127.64 61.1133 127.793 61.78 128.1C62.4467 128.393 63.0133 128.78 63.48 129.26L62.58 130.34C62.18 129.953 61.7333 129.653 61.24 129.44C60.76 129.213 60.2133 129.1 59.6 129.1C58.8667 129.1 58.2733 129.273 57.82 129.62C57.38 129.967 57.16 130.433 57.16 131.02C57.16 131.433 57.2667 131.78 57.48 132.06C57.7067 132.327 57.9867 132.547 58.32 132.72C58.6533 132.893 58.9933 133.053 59.34 133.2L61.2 134C61.7067 134.213 62.16 134.473 62.56 134.78C62.9733 135.073 63.3 135.44 63.54 135.88C63.78 136.307 63.9 136.847 63.9 137.5C63.9 138.193 63.72 138.827 63.36 139.4C63 139.96 62.4867 140.407 61.82 140.74C61.1533 141.073 60.36 141.24 59.44 141.24ZM67.8636 141L65.1636 131.28H66.8436L68.2836 136.9C68.3903 137.353 68.4903 137.807 68.5836 138.26C68.6769 138.7 68.7703 139.147 68.8636 139.6H68.9436C69.0503 139.147 69.1569 138.7 69.2636 138.26C69.3703 137.807 69.4836 137.353 69.6036 136.9L71.1036 131.28H72.7036L74.2236 136.9C74.3436 137.353 74.4569 137.807 74.5636 138.26C74.6836 138.7 74.7969 139.147 74.9036 139.6H74.9836C75.0903 139.147 75.1903 138.7 75.2836 138.26C75.3903 137.807 75.4903 137.353 75.5836 136.9L77.0036 131.28H78.5636L75.9636 141H73.9636L72.5636 135.78C72.4436 135.313 72.3303 134.853 72.2236 134.4C72.1303 133.947 72.0236 133.473 71.9036 132.98H71.8236C71.7169 133.473 71.6103 133.953 71.5036 134.42C71.3969 134.873 71.2769 135.333 71.1436 135.8L69.7836 141H67.8636ZM80.6791 141V131.28H82.3191V141H80.6791ZM81.5191 129.28C81.1991 129.28 80.9324 129.187 80.7191 129C80.5191 128.8 80.4191 128.533 80.4191 128.2C80.4191 127.88 80.5191 127.62 80.7191 127.42C80.9324 127.22 81.1991 127.12 81.5191 127.12C81.8391 127.12 82.0991 127.22 82.2991 127.42C82.5124 127.62 82.6191 127.88 82.6191 128.2C82.6191 128.533 82.5124 128.8 82.2991 129C82.0991 129.187 81.8391 129.28 81.5191 129.28ZM88.6609 141.24C87.6209 141.24 86.8943 140.94 86.4809 140.34C86.0809 139.74 85.8809 138.96 85.8809 138V132.62H84.4409V131.38L85.9609 131.28L86.1609 128.56H87.5409V131.28H90.1609V132.62H87.5409V138.02C87.5409 138.62 87.6476 139.087 87.8609 139.42C88.0876 139.74 88.4809 139.9 89.0409 139.9C89.2143 139.9 89.4009 139.873 89.6009 139.82C89.8009 139.753 89.9809 139.693 90.1409 139.64L90.4609 140.88C90.1943 140.973 89.9009 141.053 89.5809 141.12C89.2743 141.2 88.9676 141.24 88.6609 141.24ZM95.9253 141.24C95.072 141.24 94.2986 141.04 93.6053 140.64C92.912 140.24 92.3653 139.66 91.9653 138.9C91.5653 138.14 91.3653 137.227 91.3653 136.16C91.3653 135.067 91.5786 134.14 92.0053 133.38C92.4453 132.62 93.0186 132.04 93.7253 131.64C94.4453 131.24 95.2186 131.04 96.0453 131.04C96.6853 131.04 97.232 131.153 97.6853 131.38C98.152 131.607 98.552 131.873 98.8853 132.18L98.0453 133.26C97.7653 133.007 97.4653 132.8 97.1453 132.64C96.8386 132.48 96.492 132.4 96.1053 132.4C95.5186 132.4 94.992 132.56 94.5253 132.88C94.072 133.187 93.712 133.627 93.4453 134.2C93.192 134.76 93.0653 135.413 93.0653 136.16C93.0653 137.267 93.3386 138.167 93.8853 138.86C94.4453 139.54 95.172 139.88 96.0653 139.88C96.5186 139.88 96.9386 139.787 97.3253 139.6C97.712 139.4 98.052 139.167 98.3453 138.9L99.0653 140C98.6253 140.387 98.1386 140.693 97.6053 140.92C97.072 141.133 96.512 141.24 95.9253 141.24ZM101.206 141V126.76H102.846V130.64L102.786 132.64C103.253 132.2 103.74 131.827 104.246 131.52C104.766 131.2 105.36 131.04 106.026 131.04C107.053 131.04 107.8 131.367 108.266 132.02C108.746 132.66 108.986 133.6 108.986 134.84V141H107.346V135.06C107.346 134.153 107.2 133.493 106.906 133.08C106.613 132.667 106.146 132.46 105.506 132.46C105.013 132.46 104.566 132.587 104.166 132.84C103.78 133.093 103.34 133.467 102.846 133.96V141H101.206ZM116.025 141.24C115.159 141.24 114.372 141.04 113.665 140.64C112.959 140.227 112.399 139.64 111.985 138.88C111.572 138.12 111.365 137.213 111.365 136.16C111.365 135.093 111.572 134.18 111.985 133.42C112.412 132.66 112.959 132.073 113.625 131.66C114.292 131.247 114.992 131.04 115.725 131.04C116.965 131.04 117.919 131.453 118.585 132.28C119.265 133.107 119.605 134.213 119.605 135.6C119.605 135.773 119.599 135.947 119.585 136.12C119.585 136.28 119.572 136.42 119.545 136.54H112.985C113.052 137.567 113.372 138.387 113.945 139C114.532 139.613 115.292 139.92 116.225 139.92C116.692 139.92 117.119 139.853 117.505 139.72C117.905 139.573 118.285 139.387 118.645 139.16L119.225 140.24C118.812 140.507 118.339 140.74 117.805 140.94C117.285 141.14 116.692 141.24 116.025 141.24ZM112.965 135.36H118.165C118.165 134.373 117.952 133.627 117.525 133.12C117.112 132.6 116.525 132.34 115.765 132.34C115.085 132.34 114.472 132.607 113.925 133.14C113.392 133.66 113.072 134.4 112.965 135.36ZM124.547 141.24C123.854 141.24 123.194 141.113 122.567 140.86C121.941 140.593 121.394 140.273 120.927 139.9L121.747 138.8C122.174 139.133 122.614 139.413 123.067 139.64C123.521 139.853 124.034 139.96 124.607 139.96C125.247 139.96 125.727 139.813 126.047 139.52C126.367 139.213 126.527 138.853 126.527 138.44C126.527 138.107 126.414 137.827 126.187 137.6C125.974 137.373 125.694 137.187 125.347 137.04C125.014 136.88 124.667 136.733 124.307 136.6C123.854 136.427 123.407 136.233 122.967 136.02C122.527 135.793 122.167 135.507 121.887 135.16C121.607 134.8 121.467 134.347 121.467 133.8C121.467 133.013 121.761 132.36 122.347 131.84C122.947 131.307 123.774 131.04 124.827 131.04C125.427 131.04 125.987 131.147 126.507 131.36C127.027 131.573 127.474 131.833 127.847 132.14L127.047 133.18C126.714 132.927 126.367 132.72 126.007 132.56C125.647 132.4 125.254 132.32 124.827 132.32C124.214 132.32 123.761 132.46 123.467 132.74C123.187 133.02 123.047 133.347 123.047 133.72C123.047 134.027 123.147 134.28 123.347 134.48C123.547 134.667 123.807 134.833 124.127 134.98C124.447 135.113 124.787 135.253 125.147 135.4C125.614 135.573 126.074 135.773 126.527 136C126.981 136.213 127.354 136.507 127.647 136.88C127.954 137.24 128.107 137.727 128.107 138.34C128.107 138.86 127.967 139.34 127.687 139.78C127.421 140.22 127.021 140.573 126.487 140.84C125.967 141.107 125.321 141.24 124.547 141.24ZM136.53 130.72C136.53 131.08 136.583 131.453 136.69 131.84C136.81 132.227 136.963 132.62 137.15 133.02C137.75 132.62 138.27 132.207 138.71 131.78C139.163 131.34 139.39 130.833 139.39 130.26C139.39 129.873 139.29 129.54 139.09 129.26C138.903 128.967 138.59 128.82 138.15 128.82C137.657 128.82 137.263 129 136.97 129.36C136.677 129.72 136.53 130.173 136.53 130.72ZM137.39 141.24C136.603 141.24 135.903 141.087 135.29 140.78C134.69 140.46 134.223 140.027 133.89 139.48C133.557 138.933 133.39 138.307 133.39 137.6C133.39 137.013 133.51 136.493 133.75 136.04C134.003 135.587 134.323 135.18 134.71 134.82C135.097 134.46 135.517 134.127 135.97 133.82C135.703 133.273 135.49 132.747 135.33 132.24C135.183 131.72 135.11 131.22 135.11 130.74C135.11 130.153 135.237 129.627 135.49 129.16C135.743 128.693 136.097 128.327 136.55 128.06C137.017 127.78 137.55 127.64 138.15 127.64C138.963 127.64 139.597 127.88 140.05 128.36C140.503 128.84 140.73 129.467 140.73 130.24C140.73 130.813 140.583 131.327 140.29 131.78C139.997 132.233 139.623 132.647 139.17 133.02C138.73 133.393 138.263 133.76 137.77 134.12C138.197 134.787 138.703 135.44 139.29 136.08C139.877 136.707 140.477 137.28 141.09 137.8C141.49 137.253 141.843 136.66 142.15 136.02C142.47 135.367 142.73 134.667 142.93 133.92H144.47C144.217 134.773 143.897 135.6 143.51 136.4C143.137 137.187 142.69 137.927 142.17 138.62C142.623 138.927 143.057 139.187 143.47 139.4C143.883 139.613 144.27 139.773 144.63 139.88L144.19 141.24C143.737 141.107 143.25 140.92 142.73 140.68C142.223 140.427 141.703 140.113 141.17 139.74C140.677 140.193 140.117 140.56 139.49 140.84C138.863 141.107 138.163 141.24 137.39 141.24ZM134.99 137.5C134.99 138.233 135.237 138.82 135.73 139.26C136.237 139.7 136.85 139.92 137.57 139.92C138.023 139.92 138.457 139.827 138.87 139.64C139.297 139.453 139.697 139.193 140.07 138.86C139.43 138.3 138.81 137.687 138.21 137.02C137.623 136.353 137.097 135.667 136.63 134.96C136.177 135.333 135.79 135.727 135.47 136.14C135.15 136.54 134.99 136.993 134.99 137.5ZM154.381 141.24C153.461 141.24 152.608 141.067 151.821 140.72C151.035 140.36 150.355 139.887 149.781 139.3L150.781 138.14C151.248 138.633 151.795 139.033 152.421 139.34C153.061 139.633 153.721 139.78 154.401 139.78C155.268 139.78 155.941 139.587 156.421 139.2C156.901 138.8 157.141 138.28 157.141 137.64C157.141 137.187 157.041 136.827 156.841 136.56C156.655 136.293 156.395 136.067 156.061 135.88C155.741 135.693 155.375 135.507 154.961 135.32L153.081 134.5C152.668 134.327 152.255 134.1 151.841 133.82C151.441 133.54 151.101 133.18 150.821 132.74C150.555 132.3 150.421 131.76 150.421 131.12C150.421 130.453 150.595 129.86 150.941 129.34C151.301 128.807 151.795 128.393 152.421 128.1C153.048 127.793 153.755 127.64 154.541 127.64C155.328 127.64 156.055 127.793 156.721 128.1C157.388 128.393 157.955 128.78 158.421 129.26L157.521 130.34C157.121 129.953 156.675 129.653 156.181 129.44C155.701 129.213 155.155 129.1 154.541 129.1C153.808 129.1 153.215 129.273 152.761 129.62C152.321 129.967 152.101 130.433 152.101 131.02C152.101 131.433 152.208 131.78 152.421 132.06C152.648 132.327 152.928 132.547 153.261 132.72C153.595 132.893 153.935 133.053 154.281 133.2L156.141 134C156.648 134.213 157.101 134.473 157.501 134.78C157.915 135.073 158.241 135.44 158.481 135.88C158.721 136.307 158.841 136.847 158.841 137.5C158.841 138.193 158.661 138.827 158.301 139.4C157.941 139.96 157.428 140.407 156.761 140.74C156.095 141.073 155.301 141.24 154.381 141.24ZM165.045 141.24C164.258 141.24 163.518 141.04 162.825 140.64C162.145 140.24 161.592 139.66 161.165 138.9C160.752 138.14 160.545 137.227 160.545 136.16C160.545 135.067 160.752 134.14 161.165 133.38C161.592 132.62 162.145 132.04 162.825 131.64C163.518 131.24 164.258 131.04 165.045 131.04C165.845 131.04 166.585 131.24 167.265 131.64C167.945 132.04 168.492 132.62 168.905 133.38C169.332 134.14 169.545 135.067 169.545 136.16C169.545 137.227 169.332 138.14 168.905 138.9C168.492 139.66 167.945 140.24 167.265 140.64C166.585 141.04 165.845 141.24 165.045 141.24ZM165.045 139.88C165.885 139.88 166.558 139.54 167.065 138.86C167.585 138.167 167.845 137.267 167.845 136.16C167.845 135.04 167.585 134.133 167.065 133.44C166.558 132.747 165.885 132.4 165.045 132.4C164.218 132.4 163.545 132.747 163.025 133.44C162.505 134.133 162.245 135.04 162.245 136.16C162.245 137.267 162.505 138.167 163.025 138.86C163.545 139.54 164.218 139.88 165.045 139.88ZM175.945 141.24C175.092 141.24 174.318 141.04 173.625 140.64C172.932 140.24 172.385 139.66 171.985 138.9C171.585 138.14 171.385 137.227 171.385 136.16C171.385 135.067 171.598 134.14 172.025 133.38C172.465 132.62 173.038 132.04 173.745 131.64C174.465 131.24 175.238 131.04 176.065 131.04C176.705 131.04 177.252 131.153 177.705 131.38C178.172 131.607 178.572 131.873 178.905 132.18L178.065 133.26C177.785 133.007 177.485 132.8 177.165 132.64C176.858 132.48 176.512 132.4 176.125 132.4C175.538 132.4 175.012 132.56 174.545 132.88C174.092 133.187 173.732 133.627 173.465 134.2C173.212 134.76 173.085 135.413 173.085 136.16C173.085 137.267 173.358 138.167 173.905 138.86C174.465 139.54 175.192 139.88 176.085 139.88C176.538 139.88 176.958 139.787 177.345 139.6C177.732 139.4 178.072 139.167 178.365 138.9L179.085 140C178.645 140.387 178.158 140.693 177.625 140.92C177.092 141.133 176.532 141.24 175.945 141.24ZM181.226 141V126.76H182.846V136.4H182.906L187.046 131.28H188.866L185.606 135.18L189.306 141H187.506L184.666 136.32L182.846 138.44V141H181.226ZM194.717 141.24C193.85 141.24 193.063 141.04 192.357 140.64C191.65 140.227 191.09 139.64 190.677 138.88C190.263 138.12 190.057 137.213 190.057 136.16C190.057 135.093 190.263 134.18 190.677 133.42C191.103 132.66 191.65 132.073 192.317 131.66C192.983 131.247 193.683 131.04 194.417 131.04C195.657 131.04 196.61 131.453 197.277 132.28C197.957 133.107 198.297 134.213 198.297 135.6C198.297 135.773 198.29 135.947 198.277 136.12C198.277 136.28 198.263 136.42 198.237 136.54H191.677C191.743 137.567 192.063 138.387 192.637 139C193.223 139.613 193.983 139.92 194.917 139.92C195.383 139.92 195.81 139.853 196.197 139.72C196.597 139.573 196.977 139.387 197.337 139.16L197.917 140.24C197.503 140.507 197.03 140.74 196.497 140.94C195.977 141.14 195.383 141.24 194.717 141.24ZM191.657 135.36H196.857C196.857 134.373 196.643 133.627 196.217 133.12C195.803 132.6 195.217 132.34 194.457 132.34C193.777 132.34 193.163 132.607 192.617 133.14C192.083 133.66 191.763 134.4 191.657 135.36ZM203.563 141.24C202.523 141.24 201.797 140.94 201.383 140.34C200.983 139.74 200.783 138.96 200.783 138V132.62H199.343V131.38L200.863 131.28L201.063 128.56H202.443V131.28H205.063V132.62H202.443V138.02C202.443 138.62 202.55 139.087 202.763 139.42C202.99 139.74 203.383 139.9 203.943 139.9C204.117 139.9 204.303 139.873 204.503 139.82C204.703 139.753 204.883 139.693 205.043 139.64L205.363 140.88C205.097 140.973 204.803 141.053 204.483 141.12C204.177 141.2 203.87 141.24 203.563 141.24ZM209.606 141.24C208.912 141.24 208.252 141.113 207.626 140.86C206.999 140.593 206.452 140.273 205.986 139.9L206.806 138.8C207.232 139.133 207.672 139.413 208.126 139.64C208.579 139.853 209.092 139.96 209.666 139.96C210.306 139.96 210.786 139.813 211.106 139.52C211.426 139.213 211.586 138.853 211.586 138.44C211.586 138.107 211.472 137.827 211.246 137.6C211.032 137.373 210.752 137.187 210.406 137.04C210.072 136.88 209.726 136.733 209.366 136.6C208.912 136.427 208.466 136.233 208.026 136.02C207.586 135.793 207.226 135.507 206.946 135.16C206.666 134.8 206.526 134.347 206.526 133.8C206.526 133.013 206.819 132.36 207.406 131.84C208.006 131.307 208.832 131.04 209.886 131.04C210.486 131.04 211.046 131.147 211.566 131.36C212.086 131.573 212.532 131.833 212.906 132.14L212.106 133.18C211.772 132.927 211.426 132.72 211.066 132.56C210.706 132.4 210.312 132.32 209.886 132.32C209.272 132.32 208.819 132.46 208.526 132.74C208.246 133.02 208.106 133.347 208.106 133.72C208.106 134.027 208.206 134.28 208.406 134.48C208.606 134.667 208.866 134.833 209.186 134.98C209.506 135.113 209.846 135.253 210.206 135.4C210.672 135.573 211.132 135.773 211.586 136C212.039 136.213 212.412 136.507 212.706 136.88C213.012 137.24 213.166 137.727 213.166 138.34C213.166 138.86 213.026 139.34 212.746 139.78C212.479 140.22 212.079 140.573 211.546 140.84C211.026 141.107 210.379 141.24 209.606 141.24Z" fill="white"/>
</svg>
