<?xml version="1.0" encoding="UTF-8"?>
<!DOCTYPE svg PUBLIC "-//W3C//DTD SVG 1.1//EN" "http://www.w3.org/Graphics/SVG/1.1/DTD/svg11.dtd">
<!-- Creator: CorelDRAW 2019 (64-Bit) -->
<svg xmlns="http://www.w3.org/2000/svg" xml:space="preserve" width="3.8467in" height="0.458583in" version="1.1" style="shape-rendering:geometricPrecision; text-rendering:geometricPrecision; image-rendering:optimizeQuality; fill-rule:evenodd; clip-rule:evenodd"
viewBox="0 0 1420.49 169.34"
 xmlns:xlink="http://www.w3.org/1999/xlink"
 xmlns:xodm="http://www.corel.com/coreldraw/odm/2003">
 <defs>
  <style type="text/css">
   <![CDATA[
    .str0 {stroke:#373435;stroke-width:2.56;stroke-miterlimit:2.61313}
    .fil3 {fill:none}
    .fil2 {fill:#727376;fill-rule:nonzero}
    .fil0 {fill:#373435;fill-rule:nonzero}
    .fil1 {fill:#313E80;fill-rule:nonzero}
   ]]>
  </style>
 </defs>
 <g id="Layer_x0020_1">
  <metadata id="CorelCorpID_0Corel-Layer"/>
  <path class="fil0" d="M813.24 106.57l0 25.09 -11.78 0 0 -67.83 25.95 0c7.57,0 13.59,1.97 18.05,5.93 4.45,3.96 6.69,9.19 6.69,15.69 0,6.66 -2.19,11.85 -6.55,15.55 -4.36,3.7 -10.48,5.56 -18.33,5.56l-14.02 0zm0 -9.54l14.17 0c4.2,0 7.39,-0.99 9.6,-2.96 2.19,-1.97 3.31,-4.82 3.31,-8.54 0,-3.67 -1.13,-6.6 -3.36,-8.79 -2.24,-2.18 -5.31,-3.31 -9.24,-3.37l-14.48 0 0 23.66z"/>
  <path id="1" class="fil0" d="M887.76 91.58c-1.49,-0.24 -3.04,-0.37 -4.61,-0.37 -5.18,0 -8.68,1.99 -10.48,5.96l0 34.49 -11.32 0 0 -50.37 10.8 0 0.28 5.61c2.73,-4.37 6.52,-6.57 11.37,-6.57 1.61,0 2.94,0.22 4.01,0.65l-0.05 10.59z"/>
  <path id="2" class="fil0" d="M891.07 106.01c0,-4.95 0.99,-9.4 2.94,-13.36 1.96,-3.96 4.71,-7 8.25,-9.13 3.53,-2.13 7.6,-3.2 12.19,-3.2 6.8,0 12.32,2.19 16.57,6.57 4.23,4.39 6.52,10.19 6.87,17.43l0.05 2.66c0,4.98 -0.96,9.41 -2.86,13.32 -1.92,3.91 -4.64,6.95 -8.2,9.1 -3.56,2.15 -7.66,3.21 -12.32,3.21 -7.11,0 -12.8,-2.37 -17.08,-7.11 -4.26,-4.74 -6.41,-11.05 -6.41,-18.94l0 -0.56zm11.32 0.95c0,5.18 1.08,9.24 3.23,12.18 2.13,2.94 5.12,4.4 8.94,4.4 3.82,0 6.79,-1.49 8.92,-4.47 2.13,-2.99 3.2,-7.34 3.2,-13.1 0,-5.09 -1.1,-9.13 -3.29,-12.12 -2.18,-2.97 -5.15,-4.47 -8.92,-4.47 -3.69,0 -6.63,1.46 -8.79,4.41 -2.18,2.94 -3.28,7.31 -3.28,13.16z"/>
  <path id="3" class="fil0" d="M945.38 106.11c0,-7.78 1.8,-14.01 5.41,-18.71 3.61,-4.71 8.43,-7.06 14.48,-7.06 5.34,0 9.67,1.86 12.96,5.6l0 -25.82 11.32 0 0 71.55 -10.25 0 -0.56 -5.2c-3.39,4.1 -7.9,6.15 -13.56,6.15 -5.9,0 -10.67,-2.37 -14.33,-7.12 -3.64,-4.75 -5.47,-11.23 -5.47,-19.38zm11.32 0.95c0,5.12 0.99,9.11 2.96,11.99 1.97,2.88 4.77,4.31 8.41,4.31 4.63,0 8.01,-2.07 10.16,-6.2l0 -21.51c-2.08,-4.04 -5.44,-6.06 -10.06,-6.06 -3.67,0 -6.49,1.45 -8.47,4.36 -1.99,2.91 -2.99,7.27 -2.99,13.12z"/>
  <path id="4" class="fil0" d="M1031.92 126.75c-3.32,3.91 -8.04,5.87 -14.17,5.87 -5.45,0 -9.6,-1.61 -12.4,-4.8 -2.81,-3.2 -4.21,-7.82 -4.21,-13.88l0 -32.64 11.32 0 0 32.48c0,6.39 2.66,9.59 7.95,9.59 5.5,0 9.22,-1.97 11.15,-5.91l0 -36.16 11.32 0 0 50.37 -10.67 0 -0.29 -4.91z"/>
  <path id="5" class="fil0" d="M1075.07 123.55c2.81,0 5.17,-0.83 7.03,-2.46 1.86,-1.64 2.86,-3.67 2.97,-6.09l10.67 0c-0.11,3.15 -1.1,6.07 -2.93,8.79 -1.83,2.72 -4.33,4.86 -7.46,6.46 -3.13,1.57 -6.52,2.37 -10.16,2.37 -7.04,0 -12.64,-2.29 -16.76,-6.85 -4.13,-4.56 -6.2,-10.88 -6.2,-18.92l0 -1.16c0,-7.66 2.05,-13.82 6.15,-18.43 4.1,-4.61 9.68,-6.92 16.76,-6.92 5.99,0 10.89,1.75 14.66,5.25 3.77,3.48 5.76,8.08 5.93,13.77l-10.67 0c-0.11,-2.91 -1.1,-5.28 -2.96,-7.15 -1.84,-1.86 -4.2,-2.8 -7.04,-2.8 -3.67,0 -6.5,1.34 -8.49,3.99 -1.99,2.66 -2.99,6.68 -3.02,12.08l0 1.81c0,5.47 0.99,9.54 2.96,12.23 1.97,2.69 4.82,4.04 8.55,4.04z"/>
  <path id="6" class="fil0" d="M1118.54 69.08l0 12.21 8.89 0 0 8.39 -8.89 0 0 28.13c0,1.92 0.38,3.32 1.14,4.17 0.75,0.86 2.12,1.29 4.07,1.29 1.3,0 2.62,-0.16 3.96,-0.46l0 8.74c-2.58,0.72 -5.06,1.07 -7.46,1.07 -8.7,0 -13.04,-4.8 -13.04,-14.39l0 -28.54 -8.3 0 0 -8.39 8.3 0 0 -12.21 11.32 0z"/>
  <path id="7" class="fil0" d="M1185.82 105.62l-13.13 0 0 26.04 -11.78 0 0 -67.83 23.85 0c7.82,0 13.86,1.76 18.11,5.28 4.26,3.51 6.39,8.6 6.39,15.25 0,4.55 -1.1,8.35 -3.29,11.42 -2.19,3.07 -5.25,5.42 -9.16,7.07l15.23 28.21 0 0.6 -12.63 0 -13.59 -26.04zm-13.13 -9.54l12.1 0c3.97,0 7.09,-1 9.32,-3 2.24,-2 3.36,-4.74 3.36,-8.21 0,-3.62 -1.03,-6.44 -3.1,-8.43 -2.05,-1.99 -5.13,-3.01 -9.24,-3.07l-12.43 0 0 22.7z"/>
  <path id="8" class="fil0" d="M1249.45 131.66c-0.51,-0.95 -0.94,-2.51 -1.3,-4.69 -3.61,3.77 -8.01,5.64 -13.23,5.64 -5.07,0 -9.19,-1.45 -12.4,-4.34 -3.2,-2.89 -4.79,-6.47 -4.79,-10.73 0,-5.37 1.99,-9.51 5.98,-12.39 3.99,-2.88 9.7,-4.31 17.12,-4.31l6.93 0 0 -3.31c0,-2.61 -0.73,-4.69 -2.18,-6.26 -1.46,-1.57 -3.69,-2.35 -6.66,-2.35 -2.57,0 -4.69,0.65 -6.34,1.94 -1.64,1.29 -2.46,2.93 -2.46,4.91l-11.32 0c0,-2.77 0.92,-5.34 2.75,-7.74 1.83,-2.4 4.33,-4.29 7.47,-5.65 3.15,-1.37 6.68,-2.05 10.56,-2.05 5.9,0 10.6,1.48 14.1,4.45 3.51,2.96 5.31,7.12 5.41,12.5l0 22.74c0,4.53 0.64,8.14 1.91,10.84l0 0.8 -11.54 0zm-12.45 -8.11c2.24,0 4.34,-0.54 6.31,-1.64 1.97,-1.08 3.47,-2.54 4.45,-4.39l0 -9.52 -6.11 0c-4.18,0 -7.33,0.73 -9.44,2.19 -2.11,1.46 -3.18,3.53 -3.18,6.22 0,2.18 0.73,3.91 2.18,5.2 1.45,1.29 3.37,1.94 5.79,1.94z"/>
  <path id="9" class="fil0" d="M1281.44 81.29l0.32 5.8c3.74,-4.5 8.62,-6.76 14.68,-6.76 10.49,0 15.84,6.01 16.03,18.03l0 33.29 -11.32 0 0 -32.66c0,-3.2 -0.68,-5.57 -2.07,-7.11 -1.38,-1.54 -3.64,-2.31 -6.77,-2.31 -4.58,0 -7.97,2.07 -10.21,6.2l0 35.87 -11.32 0 0 -50.37 10.67 0z"/>
  <path id="10" class="fil0" d="M1322.03 106.11c0,-7.84 1.83,-14.09 5.52,-18.76 3.67,-4.67 8.55,-7.01 14.64,-7.01 5.74,0 10.27,2 13.56,6.01l0.51 -5.06 10.19 0 0 48.84c0,6.61 -2.05,11.83 -6.17,15.64 -4.12,3.82 -9.67,5.73 -16.65,5.73 -3.69,0 -7.31,-0.76 -10.83,-2.31 -3.53,-1.54 -6.2,-3.55 -8.04,-6.03l5.36 -6.81c3.48,4.12 7.78,6.17 12.86,6.17 3.75,0 6.73,-1.02 8.89,-3.04 2.18,-2.04 3.28,-5.01 3.28,-8.95l0 -3.39c-3.28,3.64 -7.62,5.45 -13.05,5.45 -5.9,0 -10.72,-2.35 -14.45,-7.04 -3.75,-4.69 -5.61,-11.18 -5.61,-19.46zm11.27 0.95c0,5.06 1.03,9.03 3.08,11.94 2.07,2.91 4.93,4.36 8.6,4.36 4.56,0 7.95,-1.96 10.16,-5.87l0 -22.18c-2.15,-3.82 -5.5,-5.73 -10.06,-5.73 -3.74,0 -6.63,1.48 -8.7,4.42 -2.05,2.96 -3.08,7.3 -3.08,13.05z"/>
  <path id="11" class="fil0" d="M1400.29 132.61c-7.17,0 -12.99,-2.26 -17.44,-6.77 -4.45,-4.53 -6.69,-10.54 -6.69,-18.06l0 -1.4c0,-5.02 0.97,-9.52 2.93,-13.48 1.94,-3.96 4.66,-7.04 8.17,-9.25 3.5,-2.21 7.41,-3.31 11.73,-3.31 6.87,0 12.16,2.19 15.9,6.58 3.75,4.39 5.61,10.59 5.61,18.6l0 4.58 -32.93 0c0.35,4.15 1.73,7.43 4.17,9.83 2.45,2.42 5.52,3.62 9.21,3.62 5.18,0 9.41,-2.08 12.67,-6.26l6.11 5.82c-2.02,3.02 -4.72,5.36 -8.09,7.01 -3.37,1.67 -7.14,2.5 -11.34,2.5zm-1.35 -43.22c-3.1,0 -5.61,1.1 -7.52,3.28 -1.91,2.18 -3.13,5.23 -3.66,9.13l21.56 0 0 -0.84c-0.24,-3.8 -1.26,-6.68 -3.02,-8.63 -1.76,-1.96 -4.23,-2.93 -7.36,-2.93z"/>
  <g id="_2160840169776">
   <path class="fil1" d="M400.52 20.7c1.08,0 1.62,0.54 1.62,1.62l0 6.98c0,1.08 -0.54,1.61 -1.62,1.61l-36.79 0c-1.42,0 -2.42,0.37 -3.01,1.1 -0.59,0.73 -0.88,1.74 -0.88,3.01l0 2.5c0,2.74 1.28,4.11 3.82,4.11l27.54 0c4.26,0 7.47,1.09 9.62,3.27 2.15,2.18 3.23,5.3 3.23,9.36l0 5.87c0,3.57 -1.05,6.46 -3.16,8.66 -2.11,2.2 -5.39,3.31 -9.84,3.31l-40.68 0c-1.13,0 -1.69,-0.54 -1.69,-1.62l0 -6.98c0,-1.08 0.57,-1.62 1.69,-1.62l38.55 0c1.42,0 2.42,-0.37 3.01,-1.1 0.59,-0.74 0.88,-1.74 0.88,-3.01l0 -3.01c0,-2.74 -1.27,-4.11 -3.82,-4.11l-27.54 0c-4.26,0 -7.47,-1.09 -9.62,-3.27 -2.15,-2.18 -3.23,-5.3 -3.23,-9.36l0 -5.36c0,-3.57 1.05,-6.46 3.15,-8.67 2.11,-2.2 5.39,-3.3 9.84,-3.3l38.92 0zm-112.73 31.21c0,1.91 0.16,3.51 0.48,4.81 0.32,1.3 0.84,2.33 1.58,3.08 0.74,0.76 1.73,1.3 2.97,1.62 1.25,0.32 2.83,0.48 4.74,0.48l21.81 0c1.91,0 3.49,-0.16 4.74,-0.48 1.25,-0.32 2.24,-0.86 2.97,-1.62 0.73,-0.76 1.26,-1.79 1.58,-3.08 0.32,-1.3 0.48,-2.9 0.48,-4.81l0 -11.02c0,-1.91 -0.16,-3.51 -0.48,-4.81 -0.32,-1.3 -0.85,-2.33 -1.58,-3.08 -0.73,-0.76 -1.73,-1.3 -2.97,-1.62 -1.25,-0.32 -2.83,-0.48 -4.74,-0.48l-21.81 0c-1.91,0 -3.49,0.16 -4.74,0.48 -1.25,0.32 -2.24,0.86 -2.97,1.62 -0.73,0.76 -1.26,1.79 -1.58,3.08 -0.32,1.3 -0.48,2.9 -0.48,4.81l0 11.02zm32.02 -31.21c3.72,0 6.89,0.35 9.51,1.06 2.62,0.71 4.75,1.84 6.39,3.38 1.64,1.54 2.83,3.54 3.56,5.99 0.73,2.45 1.1,5.43 1.1,8.96l0 12.63c0,3.52 -0.37,6.52 -1.1,8.99 -0.74,2.47 -1.92,4.48 -3.56,6.02 -1.64,1.54 -3.77,2.65 -6.39,3.34 -2.62,0.68 -5.79,1.03 -9.51,1.03l-22.69 0c-3.72,0 -6.88,-0.34 -9.47,-1.03 -2.59,-0.69 -4.71,-1.8 -6.35,-3.34 -1.64,-1.54 -2.84,-3.55 -3.6,-6.02 -0.76,-2.47 -1.14,-5.47 -1.14,-8.99l0 -12.63c0,-3.52 0.38,-6.51 1.14,-8.96 0.76,-2.45 1.96,-4.45 3.6,-5.99 1.64,-1.54 3.76,-2.67 6.35,-3.38 2.6,-0.71 5.75,-1.06 9.47,-1.06l22.69 0zm-167.73 32.46l25.26 0 -11.68 -21.52c-0.19,-0.34 -0.47,-0.51 -0.81,-0.51l-0.44 0c-0.34,0 -0.61,0.17 -0.81,0.51l-11.53 21.52zm-73.58 -6.24l28.12 0c2.5,0 4.26,-0.54 5.29,-1.61 1.03,-1.08 1.54,-2.72 1.54,-4.92l0 -3.08c0,-2.21 -0.51,-3.84 -1.54,-4.92 -1.03,-1.08 -2.79,-1.62 -5.29,-1.62l-27.17 0c-0.64,0 -0.95,0.29 -0.95,0.88l0 15.27zm41.37 15.38l14.76 0 19.65 -36.01c1.22,-2.2 2.42,-3.68 3.6,-4.44 1.17,-0.76 2.55,-1.14 4.11,-1.14l4.33 0c1.86,0 3.43,0.38 4.7,1.14 1.28,0.76 2.52,2.24 3.75,4.44l19.83 36.01 10.72 0 0 -33.96c0,-2.99 0.54,-5.01 1.62,-6.06 1.08,-1.05 2.74,-1.58 4.99,-1.58l6.46 0c1.18,0 2.15,0.05 2.94,0.15 0.78,0.1 1.47,0.31 2.06,0.63 0.59,0.32 1.15,0.76 1.69,1.32 0.54,0.57 1.15,1.31 1.83,2.24l27.32 35.84c0.2,0.34 0.51,0.51 0.96,0.51l0.66 0c0.39,0 0.59,-0.24 0.59,-0.73l0 -38.33c0,-1.08 0.54,-1.62 1.62,-1.62l7.71 0c1.07,0 1.62,0.54 1.62,1.62l0 42.15c0,2.99 -0.54,5.01 -1.62,6.06 -1.08,1.05 -2.74,1.58 -5,1.58l-6.31 0c-1.13,0 -2.07,-0.05 -2.83,-0.15 -0.76,-0.1 -1.43,-0.3 -2.02,-0.59 -0.58,-0.29 -1.16,-0.72 -1.72,-1.29 -0.56,-0.56 -1.21,-1.33 -1.95,-2.31l-27.39 -35.84c-0.3,-0.34 -0.61,-0.51 -0.96,-0.51l-0.66 0c-0.39,0 -0.59,0.25 -0.59,0.74l0 38.33c0,1.07 -0.54,1.62 -1.61,1.62l-2.06 0 0 0.07 -23.79 -0.07c-0.83,-0 -1.4,-0.32 -1.69,-0.95l-5.21 -9.47 -34.52 0 -5.07 9.47c-0.34,0.64 -0.91,0.95 -1.69,0.95l-1.2 0 0 0.07 -23.63 -0.07c-0.64,0 -1.08,-0.07 -1.32,-0.22 -0.24,-0.15 -0.49,-0.39 -0.73,-0.73l-11.6 -15.28 -23.72 0 0 14.61c0,1.07 -0.54,1.62 -1.62,1.62l-7.93 0c-1.13,0 -1.69,-0.54 -1.69,-1.62l0 -47.59c0,-1.47 0.73,-2.2 2.2,-2.2l39.43 0c5.63,0 9.67,1.27 12.12,3.82 2.45,2.55 3.67,6.32 3.67,11.31l0 4.19c0,4.21 -0.86,7.54 -2.57,9.99 -1.71,2.45 -4.51,4.02 -8.37,4.7l6.12 7.59zm-60.83 -41.59c1.13,0 1.69,0.54 1.69,1.62l0 7.2c0,1.13 -0.57,1.69 -1.69,1.69l-23.06 0 0 39.29c0,1.07 -0.54,1.62 -1.61,1.62l-8 0c-1.08,0 -1.62,-0.54 -1.62,-1.62l0 -39.29 -23.06 0c-1.13,0 -1.69,-0.56 -1.69,-1.69l0 -7.2c0,-1.08 0.56,-1.62 1.69,-1.62l57.35 0z"/>
   <path class="fil2" d="M715.05 81.69c1.13,0 1.69,0.54 1.69,1.62l0 7.2c0,1.13 -0.57,1.69 -1.69,1.69l-23.06 0 0 39.29c0,1.08 -0.54,1.62 -1.62,1.62l-8 0c-1.08,0 -1.62,-0.54 -1.62,-1.62l0 -39.29 -23.06 0c-1.13,0 -1.69,-0.56 -1.69,-1.69l0 -7.2c0,-1.08 0.56,-1.62 1.69,-1.62l57.35 0zm-91.28 0c1.08,0 1.62,0.54 1.62,1.62l0 29.3c0,1.96 0.16,3.59 0.48,4.88 0.32,1.3 0.84,2.32 1.58,3.08 0.73,0.76 1.73,1.3 2.97,1.62 1.25,0.32 2.83,0.48 4.74,0.48l29.74 0c1.08,0 1.62,0.54 1.62,1.62l0 7.2c0,1.08 -0.54,1.62 -1.62,1.62l-30.18 0c-3.72,0 -6.88,-0.34 -9.47,-1.03 -2.6,-0.69 -4.71,-1.8 -6.35,-3.34 -1.64,-1.54 -2.84,-3.55 -3.6,-6.02 -0.76,-2.47 -1.14,-5.47 -1.14,-9l0 -30.4c0,-1.08 0.56,-1.62 1.69,-1.62l7.93 0zm-71.16 31.21c0,1.91 0.16,3.51 0.48,4.81 0.32,1.3 0.84,2.33 1.58,3.08 0.73,0.76 1.73,1.3 2.97,1.62 1.25,0.32 2.83,0.48 4.74,0.48l21.81 0c1.91,0 3.49,-0.16 4.74,-0.48 1.25,-0.32 2.24,-0.86 2.97,-1.62 0.73,-0.76 1.26,-1.79 1.58,-3.08 0.32,-1.3 0.48,-2.9 0.48,-4.81l0 -11.02c0,-1.91 -0.16,-3.51 -0.48,-4.81 -0.32,-1.3 -0.84,-2.33 -1.58,-3.08 -0.73,-0.76 -1.73,-1.3 -2.97,-1.62 -1.25,-0.32 -2.83,-0.48 -4.74,-0.48l-21.81 0c-1.91,0 -3.49,0.16 -4.74,0.48 -1.25,0.32 -2.24,0.86 -2.97,1.62 -0.73,0.76 -1.26,1.79 -1.58,3.08 -0.32,1.3 -0.48,2.9 -0.48,4.81l0 11.02zm32.02 -31.21c3.72,0 6.89,0.35 9.51,1.07 2.62,0.71 4.75,1.83 6.39,3.38 1.64,1.54 2.82,3.54 3.56,5.99 0.74,2.45 1.1,5.43 1.1,8.96l0 12.63c0,3.52 -0.36,6.52 -1.1,9 -0.74,2.47 -1.92,4.48 -3.56,6.02 -1.64,1.54 -3.77,2.65 -6.39,3.34 -2.62,0.68 -5.79,1.03 -9.51,1.03l-22.69 0c-3.72,0 -6.88,-0.34 -9.47,-1.03 -2.59,-0.69 -4.71,-1.8 -6.35,-3.34 -1.64,-1.54 -2.84,-3.55 -3.6,-6.02 -0.76,-2.47 -1.14,-5.47 -1.14,-9l0 -12.63c0,-3.52 0.38,-6.51 1.14,-8.96 0.76,-2.45 1.96,-4.45 3.6,-5.99 1.64,-1.54 3.76,-2.67 6.35,-3.38 2.6,-0.71 5.75,-1.07 9.47,-1.07l22.69 0zm-98.92 21.37l30.11 0c2.45,0 4.11,-0.37 4.99,-1.1 0.88,-0.73 1.32,-1.81 1.32,-3.23l0 -2.49c0,-1.52 -0.43,-2.63 -1.28,-3.34 -0.86,-0.71 -2.24,-1.07 -4.15,-1.07l-30.03 0c-0.64,0 -0.95,0.32 -0.95,0.96l0 10.28zm0 8l0 10.94c0,0.64 0.32,0.96 0.95,0.96l30.11 0c1.96,0 3.35,-0.35 4.19,-1.07 0.83,-0.71 1.25,-1.85 1.25,-3.42l0 -2.79c0,-1.52 -0.45,-2.67 -1.36,-3.45 -0.91,-0.79 -2.58,-1.18 -5.03,-1.18l-30.11 0zm-66.46 -3.16l28.12 0c2.5,0 4.26,-0.54 5.29,-1.62 1.03,-1.08 1.54,-2.72 1.54,-4.92l0 -3.08c0,-2.2 -0.51,-3.84 -1.54,-4.92 -1.03,-1.08 -2.79,-1.62 -5.29,-1.62l-27.17 0c-0.64,0 -0.95,0.29 -0.95,0.88l0 15.28zm-21.37 -26.22c1.13,0 1.69,0.54 1.69,1.62l0 6.98c0,1.08 -0.56,1.61 -1.69,1.61l-32.09 0c-1.91,0 -3.49,0.16 -4.74,0.48 -1.25,0.32 -2.25,0.86 -3.01,1.62 -0.76,0.76 -1.29,1.79 -1.58,3.08 -0.29,1.3 -0.44,2.9 -0.44,4.81l0 0.73 41.49 0c1.08,0 1.62,0.54 1.62,1.62l0 5.8c0,1.08 -0.54,1.62 -1.62,1.62l-41.49 0 0 1.25c0,1.91 0.15,3.51 0.44,4.81 0.29,1.3 0.82,2.33 1.58,3.08 0.76,0.76 1.76,1.3 3.01,1.62 1.25,0.32 2.83,0.48 4.74,0.48l32.09 0c1.13,0 1.69,0.54 1.69,1.62l0 6.98c0,1.08 -0.56,1.62 -1.69,1.62l-32.31 0c-3.72,0 -6.88,-0.34 -9.47,-1.03 -2.6,-0.69 -4.71,-1.8 -6.35,-3.34 -1.64,-1.54 -2.84,-3.55 -3.6,-6.02 -0.76,-2.47 -1.14,-5.47 -1.14,-9l0 -12.63c0,-3.52 0.38,-6.51 1.14,-8.96 0.76,-2.45 1.96,-4.45 3.6,-5.99 1.64,-1.54 3.76,-2.67 6.35,-3.38 2.59,-0.71 5.75,-1.07 9.47,-1.07l32.31 0zm-109.28 40.24c0,0.64 0.32,0.96 0.96,0.96l24.09 0c2.15,0 3.97,-0.2 5.43,-0.59 1.47,-0.39 2.66,-1.03 3.56,-1.91 0.9,-0.88 1.55,-2.06 1.95,-3.52 0.39,-1.47 0.59,-3.28 0.59,-5.43l0 -8.08c0,-2.15 -0.19,-3.96 -0.59,-5.43 -0.39,-1.47 -1.04,-2.64 -1.95,-3.52 -0.91,-0.88 -2.09,-1.52 -3.56,-1.91 -1.47,-0.39 -3.28,-0.59 -5.43,-0.59l-24.09 0c-0.64,0 -0.96,0.34 -0.96,1.03l0 29.01zm25.33 -40.24c3.97,0 7.37,0.4 10.21,1.21 2.84,0.81 5.16,2.06 6.98,3.75 1.81,1.69 3.14,3.84 4,6.46 0.86,2.62 1.28,5.72 1.28,9.29l0 9.98c0,3.57 -0.43,6.67 -1.28,9.29 -0.86,2.62 -2.19,4.77 -4,6.46 -1.81,1.69 -4.14,2.94 -6.98,3.75 -2.84,0.81 -6.24,1.21 -10.21,1.21l-34.37 0c-1.47,0 -2.2,-0.73 -2.2,-2.2l0 -47c0,-1.47 0.73,-2.2 2.2,-2.2l34.37 0zm-95.32 0c1.17,0 2.15,0.05 2.94,0.15 0.78,0.1 1.47,0.31 2.06,0.63 0.59,0.32 1.15,0.76 1.69,1.32 0.54,0.57 1.15,1.31 1.83,2.24l27.32 35.84c0.2,0.34 0.51,0.51 0.96,0.51l0.66 0c0.39,0 0.59,-0.24 0.59,-0.74l0 -38.33c0,-1.08 0.54,-1.62 1.62,-1.62l7.71 0c1.07,0 1.62,0.54 1.62,1.62l0 42.15c0,2.99 -0.54,5.01 -1.62,6.06 -1.08,1.05 -2.74,1.58 -5,1.58l-6.31 0c-1.13,0 -2.07,-0.05 -2.83,-0.15 -0.76,-0.1 -1.43,-0.29 -2.02,-0.59 -0.59,-0.29 -1.16,-0.72 -1.72,-1.29 -0.56,-0.56 -1.21,-1.33 -1.95,-2.31l-27.39 -35.84c-0.3,-0.34 -0.61,-0.51 -0.96,-0.51l-0.66 0c-0.39,0 -0.59,0.24 -0.59,0.74l0 38.33c0,1.08 -0.54,1.62 -1.62,1.62l-7.71 0c-1.13,0 -1.69,-0.54 -1.69,-1.62l0 -42.15c0,-2.99 0.54,-5.01 1.62,-6.06 1.08,-1.05 2.74,-1.58 4.99,-1.58l6.46 0zm-75.35 0c1.08,0 1.61,0.54 1.61,1.62l0 29.3c0,1.96 0.16,3.59 0.48,4.88 0.32,1.3 0.85,2.32 1.58,3.08 0.73,0.76 1.72,1.3 2.97,1.62 1.25,0.32 2.83,0.48 4.74,0.48l20.34 0c1.91,0 3.49,-0.16 4.74,-0.48 1.25,-0.32 2.24,-0.86 2.97,-1.62 0.73,-0.76 1.25,-1.79 1.54,-3.08 0.29,-1.3 0.44,-2.93 0.44,-4.88l0 -29.3c0,-1.08 0.54,-1.62 1.62,-1.62l8 0c1.08,0 1.61,0.54 1.61,1.62l0 30.4c0,3.52 -0.37,6.52 -1.1,9 -0.73,2.47 -1.92,4.48 -3.56,6.02 -1.64,1.54 -3.77,2.65 -6.39,3.34 -2.62,0.68 -5.79,1.03 -9.51,1.03l-21.15 0c-3.72,0 -6.88,-0.34 -9.47,-1.03 -2.59,-0.69 -4.71,-1.8 -6.35,-3.34 -1.64,-1.54 -2.84,-3.55 -3.6,-6.02 -0.76,-2.47 -1.14,-5.47 -1.14,-9l0 -30.4c0,-1.08 0.56,-1.62 1.69,-1.62l7.93 0zm-66.39 0c1.08,0 1.62,0.54 1.62,1.62l0 19.09 34.37 0 0 -19.09c0,-1.08 0.54,-1.62 1.61,-1.62l7.93 0c1.13,0 1.69,0.54 1.69,1.62l0 48.17c0,1.08 -0.57,1.62 -1.69,1.62l-7.93 0c-1.08,0 -1.61,-0.54 -1.61,-1.62l0 -19.53 -34.37 0 0 19.53c0,1.08 -0.54,1.62 -1.62,1.62l-7.93 0c-1.13,0 -1.69,-0.54 -1.69,-1.62l0 -48.17c0,-1.08 0.56,-1.62 1.69,-1.62l7.93 0zm383.51 41.31l14.08 0 0 -39.11c0,-1.47 0.73,-2.2 2.2,-2.2l42.3 0c5.04,0 8.63,1 10.76,3.01 2.13,2.01 3.19,5.04 3.19,9.11l0 3.52c0,4.11 -1.57,7.22 -4.7,9.33 3.38,1.96 5.07,5.12 5.07,9.47l0 4.26c0,1.96 -0.22,3.72 -0.66,5.29 -0.44,1.57 -1.16,2.9 -2.17,4 -1,1.1 -2.34,1.94 -4,2.53 -1.66,0.59 -3.72,0.88 -6.17,0.88l-63.67 0c-0.63,0 -1.08,-0.07 -1.32,-0.22 -0.24,-0.15 -0.49,-0.39 -0.73,-0.73l-11.6 -15.28 -23.72 0 0 14.61c0,1.08 -0.54,1.62 -1.62,1.62l-7.93 0c-1.13,0 -1.69,-0.54 -1.69,-1.62l0 -47.59c0,-1.47 0.73,-2.2 2.2,-2.2l39.43 0c5.63,0 9.67,1.28 12.12,3.82 2.45,2.55 3.67,6.32 3.67,11.31l0 4.19c0,4.21 -0.86,7.54 -2.57,9.99 -1.71,2.45 -4.5,4.01 -8.37,4.7l5.9 7.31zm-401.35 -41.31c1.13,0 1.69,0.54 1.69,1.62l0 7.2c0,1.13 -0.57,1.69 -1.69,1.69l-23.06 0 0 39.29c0,1.08 -0.54,1.62 -1.61,1.62l-8 0c-1.08,0 -1.62,-0.54 -1.62,-1.62l0 -39.29 -23.06 0c-1.13,0 -1.69,-0.56 -1.69,-1.69l0 -7.2c0,-1.08 0.56,-1.62 1.69,-1.62l57.35 0z"/>
  </g>
  <line class="fil3 str0" x1="751.37" y1="0" x2="751.37" y2= "169.34" />
 </g>
</svg>
