<?xml version="1.0" encoding="UTF-8"?>
<!DOCTYPE svg PUBLIC "-//W3C//DTD SVG 1.1//EN" "http://www.w3.org/Graphics/SVG/1.1/DTD/svg11.dtd">
<!-- Creator: CorelDRAW 2019 (64-Bit) -->
<svg xmlns="http://www.w3.org/2000/svg" xml:space="preserve" width="5.37557in" height="0.434988in" version="1.1" style="shape-rendering:geometricPrecision; text-rendering:geometricPrecision; image-rendering:optimizeQuality; fill-rule:evenodd; clip-rule:evenodd"
viewBox="0 0 16844.06 1363.01"
 xmlns:xlink="http://www.w3.org/1999/xlink"
 xmlns:xodm="http://www.corel.com/coreldraw/odm/2003">
 <defs>
  <style type="text/css">
   <![CDATA[
    .fil0 {fill:#313E80}
    .fil1 {fill:#848688;fill-rule:nonzero}
   ]]>
  </style>
 </defs>
 <g id="Layer_x0020_1">
  <metadata id="CorelCorpID_0Corel-Layer"/>
  <path class="fil0" d="M7502.38 1347.11c-97.3,0.01 -194.58,0.74 -291.87,-0.23 -72.7,-0.73 -144.82,-7.62 -215.69,-25.47 -154.14,-38.76 -244.74,-137.51 -277.73,-291.57 -12.47,-58.29 -17.94,-117.31 -18.23,-176.74 -0.58,-115.59 -0.65,-231.2 0.01,-346.81 0.38,-66.41 6.6,-132.36 23.27,-196.93 38.75,-149.94 136.81,-238.06 285.46,-273.3 61.69,-14.62 124.35,-22.29 187.59,-22.46 219.85,-0.64 439.68,-0.84 659.52,0.11 71.45,0.32 142.14,9.52 211.29,29.03 148.28,41.82 235.03,139.61 265.84,289.39 11.87,57.78 17.07,116.22 17.07,174.97 0,134.55 3.15,269.12 -2.17,403.62 -2.26,56.9 -11.05,113 -27.82,167.55 -40.34,131.31 -130.91,208.67 -261.69,242.44 -71.93,18.6 -145.42,25.6 -219.4,26.19 -111.8,0.9 -223.62,0.23 -335.44,0.23zm1485.95 0.16c-174.99,0 -350,0.02 -524.96,-0.01 -49.26,0 -65.63,-16.56 -65.7,-66.27 -0.06,-51.17 -0.06,-102.34 0,-153.51 0.04,-50.39 16.7,-67.18 66.94,-67.18 315.85,-0.04 631.71,-0.01 947.58,-0.01 5.67,0 11.36,0.04 17.04,0 65.62,-0.38 88.99,-22.33 91.1,-88.14 1.06,-33.39 2.05,-66.95 -1.36,-100.36 -4.4,-43.37 -27.2,-66.01 -70.48,-69.71 -8.15,-0.69 -16.41,-0.46 -24.61,-0.46 -228.06,-0.01 -456.1,-0.09 -684.17,0.06 -47.58,0.04 -94.42,-4.55 -140.13,-18.52 -97.99,-29.93 -163.06,-94.58 -186.91,-193.15 -28.05,-115.97 -27,-235.12 -4.64,-351.4 23.46,-122.03 112.53,-198.27 235,-217.89 33.15,-5.3 66.37,-7.75 99.92,-7.75 326.61,0.12 653.21,0.05 979.79,0.09 95.4,0 61.69,143.83 61.56,223.75 -0.09,46.67 -15.75,62.39 -62.76,62.41 -302.6,0.07 -605.18,0.01 -907.79,0.07 -11.98,0.01 -23.99,0.38 -35.95,1.33 -39.95,3.22 -62.37,24.06 -66.83,64.1 -4.28,38.38 -4.19,77.02 -0.04,115.39 4.27,39.4 29.3,61.99 69.28,64.09 14.51,0.74 29.05,0.53 43.58,0.53 219.83,0.04 439.67,0.01 659.52,0.04 46.24,0 92.17,3.32 136.85,15.94 116.43,32.86 182.06,111.63 205.03,228.47 12.31,62.58 6.96,125.92 7.61,188.97 0.46,42.87 1.68,85.75 -6.77,128.35 -25.75,129.82 -113.8,214.01 -245,233.5 -33.2,4.93 -66.44,7.38 -99.99,7.35 -164.26,-0.16 -328.51,-0.07 -492.74,-0.07zm-6146.37 -446.82c43.41,53.9 85.48,105.91 127.2,158.2 5.44,6.8 11.56,8.18 19.63,8.17 109.92,-0.2 219.85,-0.35 329.76,0.19 12.16,0.05 17.43,-4.8 22.81,-14.71 73.66,-135.73 147.77,-271.2 221.77,-406.73 86.98,-159.31 173.99,-318.62 260.94,-477.99 16.67,-30.52 35.06,-59.84 57.66,-86.43 37.82,-44.55 86.39,-67.37 144.31,-67.63 55.49,-0.25 111.15,-4.21 166.53,3.02 56.07,7.32 100.8,34.2 135.45,78.56 17.91,22.92 33.22,47.5 47.25,72.97 161.43,293.2 323.1,586.25 484.03,879.71 8.29,15.11 17.21,19.76 33.67,19.31 42.93,-1.17 85.94,-1.37 128.84,0.05 19,0.64 25.02,-3.58 24.97,-24.06 -0.8,-271.01 -0.53,-542.02 -0.54,-813.04 0,-27.19 1.05,-54.32 5.75,-81.15 15.25,-87.11 54.74,-128.15 142.88,-133.75 88.11,-5.6 176.74,-4.63 265.1,0.68 49.69,2.99 88.81,26.25 120.38,63.43 49.06,57.78 93.09,119.52 139.06,179.7 196.59,257.36 392.71,515.08 589.01,772.65 2.29,3.01 4.71,5.92 6.88,9.03 6.7,9.66 17.06,8.43 25.87,6.56 9.41,-1.99 4.93,-11.53 4.95,-17.53 0.23,-315.87 0.2,-631.74 0.23,-947.62 0,-8.19 -0.27,-16.48 0.81,-24.59 3.97,-29.3 19.73,-43.95 49.35,-44.18 68.23,-0.48 136.47,-0.48 204.69,-0.01 31.85,0.21 48.61,17.06 50.78,49 0.35,5.02 0.17,10.1 0.17,15.15 0,352.53 0,705.03 0,1057.54 0,32.91 -1.88,65.65 -9.88,97.72 -16.63,66.52 -56.69,101.85 -124.84,111.06 -18.84,2.55 -37.68,3.91 -56.65,3.53 -70.08,-1.39 -140.18,2.1 -210.27,-2.48 -55.33,-3.59 -99.07,-27.79 -133.12,-70.06 -35.63,-44.23 -70.29,-89.27 -104.81,-134.39 -206.33,-269.77 -412.49,-539.69 -618.73,-809.54 -3.07,-4.01 -6.41,-7.81 -9.62,-11.69 -7.17,-8.71 -17.34,-8.35 -26.13,-5.84 -8.88,2.53 -4.49,12 -4.49,18.2 -0.21,314.6 -0.2,629.23 -0.21,943.83 0,8.2 0.12,16.44 -0.47,24.61 -2,27.35 -18.18,44.14 -45.34,46.93 -6.88,0.7 -13.88,0.42 -20.82,0.42 -185.11,0.01 -370.2,-0.54 -555.3,0.48 -36.06,0.2 -58.18,-13.57 -75.28,-45.15 -176.85,-326.41 -354.62,-652.32 -532.29,-978.28 -4.81,-8.83 -7.07,-20.01 -21.92,-19.82 -14.99,0.17 -16.7,11.81 -21.38,20.53 -175.23,325.82 -350.5,651.61 -524.9,977.87 -17,31.79 -39.61,45.08 -75.5,44.88 -161.72,-0.89 -323.39,5.92 -485.13,3.31 -44.84,-0.73 -89.65,-2.76 -134.48,-4 -21.88,-0.59 -38.9,-10.07 -51.02,-27.9 -141.03,-207.25 -299.85,-401.53 -442.89,-607.33 -5.22,-7.53 -13.62,-14.88 -7.91,-25.36 5.34,-9.83 15.64,-6.38 24.07,-6.4 83.41,-0.21 166.79,-0.14 250.18,-0.2 22.77,-0.01 45.32,-2.15 67.69,-6.72 49.28,-10.08 79.77,-39.9 89.04,-88.79 11.5,-60.65 10.94,-122.35 1.97,-182.94 -9.93,-66.91 -48.68,-98.48 -117.65,-103.88 -16.36,-1.28 -32.83,-1.76 -49.25,-1.79 -221.72,-0.11 -443.47,-0.07 -665.23,-0.07 -25.97,0 -25.97,0.04 -25.97,25.56 -0.02,319.66 0,639.33 -0.02,959 0,52.45 -14.77,67.02 -67.76,67.04 -61.27,0 -122.56,0.11 -183.84,-0.05 -42.45,-0.1 -60.37,-17.53 -60.4,-59.52 -0.1,-400.54 -0.1,-801.05 0.02,-1201.58 0.01,-52.24 20.66,-73.01 71.88,-73.03 339.87,-0.05 679.76,0 1019.64,0.16 52.61,0.04 104.54,6.51 155.35,20.28 129.47,35.08 201.65,122.99 227.99,251.19 19.9,96.85 12.4,194.99 9.56,292.72 -1,34.7 -8.41,68.81 -18.11,102.23 -34.21,117.6 -113.32,187.34 -230.58,216.48 -4.21,1.04 -8.38,2.33 -15.4,4.29zm-2055.12 -887.41l717.37 0.01c8.85,0 17.75,-0.38 26.52,0.58 24.83,2.71 41.86,18.44 42.2,43.04 0.96,68.2 1,136.42 -0.05,204.61 -0.38,24.36 -17.63,40.71 -41.73,43.94 -9.35,1.26 -18.9,1.43 -28.35,1.43 -179.42,0.06 -358.82,0.31 -538.21,-0.37 -16.95,-0.07 -20.63,4.45 -20.6,20.95 0.52,315.86 0.39,631.69 0.37,947.54 0,7.6 0.14,15.19 -0.21,22.74 -1.41,30.03 -18.71,48.98 -48.79,49.36 -36.17,0.43 -72.35,0.64 -108.52,0.64 -36.17,0 -72.35,-0.21 -108.52,-0.64 -30.08,-0.38 -47.37,-19.33 -48.79,-49.36 -0.33,-7.55 -0.21,-15.14 -0.21,-22.74 -0.02,-315.85 -0.15,-631.67 0.38,-947.54 0.01,-16.49 -3.65,-21.02 -20.61,-20.95 -179.4,0.68 -358.79,0.43 -538.21,0.37 -9.45,0 -19,-0.17 -28.34,-1.43 -24.12,-3.23 -41.36,-19.58 -41.73,-43.94 -1.05,-68.2 -1.02,-136.42 -0.06,-204.61 0.35,-24.6 17.37,-40.33 42.2,-43.04 8.77,-0.96 17.68,-0.58 26.52,-0.58l717.37 -0.01zm9141.38 123.88c0,-197.36 0,235.06 0,0zm-38.16 15.04c-19.28,-396.64 17.42,354.96 0,0zm-2344.93 147.28c87.85,1.25 195.83,-2.06 303.78,1.7 22.13,0.78 43.95,4.28 65.52,8.96 68.78,14.94 102.63,61.45 113.91,127.69 4.98,29.26 7.93,58.76 7.93,88.51 -0.02,102.92 -0.02,205.85 -0.02,308.76 0,29.74 -2.85,59.29 -8.09,88.49 -14.62,81.41 -58.49,121.9 -142.67,132.05 -17.52,2.12 -35.2,4.15 -52.8,4.18 -207.1,0.25 -414.2,0.15 -621.3,0.05 -24.71,-0.01 -49.14,-3.45 -73.19,-8.59 -68.43,-14.62 -105.02,-53.98 -117.95,-125.97 -4.8,-26.73 -8.02,-53.63 -7.98,-80.87 0.11,-112.4 0.09,-224.78 0.21,-337.18 0.02,-25.96 3.4,-51.68 8.66,-77 16,-76.82 58.73,-114.7 138.55,-125.2 33.3,-4.38 66.68,-5.4 100.13,-5.5 88.39,-0.25 176.78,-0.09 285.3,-0.09z"/>
  <path class="fil1" d="M11837.66 -0.01c17.79,0 31.63,4.64 41.31,13.92 9.78,9.36 14.77,22.82 14.77,40.25l0 187.45c0,17.9 -4.89,31.82 -14.54,41.5 -9.71,9.68 -23.62,14.57 -41.54,14.57l-588.46 0 0 1011.18c0,36.07 -18.06,54.17 -54.21,54.17l-208.46 0c-17.31,0 -30.71,-4.74 -40.07,-14.08 -9.4,-9.36 -14.1,-22.8 -14.1,-40.09l0 -1011.18 -588.46 0c-17.97,0 -31.85,-4.89 -41.54,-14.54 -9.72,-9.68 -14.58,-23.59 -14.58,-41.52l0 -187.45c0,-36.07 18.71,-54.17 56.12,-54.17l1493.75 0zm1557.34 1110.44l280.17 0 523.24 -958.75c16.26,-29.34 32.48,-53.95 48.48,-73.73 16.36,-20.29 32.84,-35.75 49.28,-46.36 16.32,-10.54 34.07,-18.44 53.03,-23.72 18.95,-5.21 39.24,-7.87 60.58,-7.87l112.85 0c25.06,0 48.36,2.64 69.76,7.78 21.59,5.23 41.25,13.11 58.84,23.62 17.72,10.54 35.21,26.03 52.26,46.26 16.84,20.03 33.41,44.68 49.64,73.92l633.29 1149.96c7.97,15.91 9.72,29.73 5.24,41.29 -2.8,7.17 -8.07,12.53 -15.53,15.94 -6.32,2.83 -14.13,4.26 -23.43,4.26l-242.92 0c-26.61,0 -44.87,-10.51 -54.71,-31.45l-132.2 -240.15 -884.59 0 -128.55 240.31c-5.53,10.39 -13.08,18.26 -22.42,23.5 -9.2,5.14 -19.97,7.78 -32.2,7.78l-43.72 0 -204.94 0 -0.44 0 -0.48 0 -0.44 0 -93.47 0 -0.52 0 -0.53 0 -0.52 0 -216.75 0 -29.97 0c-8.8,0 -16.52,-0.58 -23,-1.63 -7.27,-1.2 -13.24,-3.23 -17.65,-5.87 -4.03,-2.41 -8.03,-5.59 -11.9,-9.46 -3.59,-3.59 -7.3,-8.03 -10.87,-13.01l-298.29 -392.71 -599.73 0 0 368.51c0,17.27 -4.72,30.71 -14.06,40.07 -9.4,9.36 -22.83,14.1 -40.11,14.1l-206.56 0c-17.84,0 -31.69,-4.7 -41.34,-13.88 -9.82,-9.44 -14.77,-22.9 -14.77,-40.29l0 -1239.39c0,-22.42 6,-39.66 17.91,-51.57 11.9,-11.9 29.15,-17.91 51.57,-17.91l1027.08 0c150.04,0 258.19,34.46 324.3,103.21 66.01,68.65 99.04,169.65 99.04,302.9l0 109c0,112.16 -23.08,201.17 -69.19,267.02 -23.34,33.41 -54.07,60.81 -91.92,82.09 -32.62,18.29 -70.66,32.14 -114,41.44l165.15 204.78zm-1093.09 -427.63l720.43 0c31.43,0 58.04,-3.34 79.71,-9.94 20.86,-6.38 37.34,-15.84 49.28,-28.36 12.09,-12.67 21.24,-28.83 27.34,-48.36 6.28,-20.1 9.46,-44 9.46,-71.48l0 -80.3c0,-27.47 -3.18,-51.38 -9.46,-71.48 -6.09,-19.53 -15.25,-35.7 -27.34,-48.37 -11.94,-12.51 -28.42,-21.97 -49.28,-28.35 -21.66,-6.61 -48.27,-9.94 -79.71,-9.94l-707.67 0c-8.51,0 -12.77,3.63 -12.77,10.86l0 385.72zm1869.85 162.58l617.43 0 -294.38 -542.52c-1.47,-2.64 -3.18,-4.54 -4.9,-5.63 -1.55,-0.95 -3.39,-1.46 -5.53,-1.46l-11.46 0c-2.16,0 -4,0.47 -5.49,1.43 -1.78,1.11 -3.47,3.01 -4.96,5.65l-290.71 542.52zm2618.14 -845.39c17.3,0 30.73,4.7 40.11,14.06 9.33,9.4 14.06,22.81 14.06,40.11l0 187.45c0,17.78 -4.64,31.62 -13.92,41.3 -9.36,9.78 -22.82,14.77 -40.25,14.77l-851.14 0c-24.67,0 -47.05,1.05 -66.96,3.02 -19.75,1.96 -37.63,5.02 -53.42,9.04 -15.33,3.87 -29.05,9.15 -40.96,15.59 -11.84,6.45 -22.13,14.16 -30.77,23.12 -8.77,9.02 -16.32,19.69 -22.61,31.82 -6.41,12.39 -11.62,26.49 -15.49,42.1 -4.03,16.1 -7.08,34.36 -9.05,54.69 -1.96,20.36 -3.01,43.31 -3.01,68.65l0 271.59c0,25.38 1.05,48.4 3.01,68.91 1.97,20.48 5.06,39.02 9.05,55.38 3.87,16 9.12,30.32 15.49,42.83 6.29,12.32 13.82,23 22.54,31.98 8.71,8.98 19.08,16.8 30.84,23.18 11.9,6.45 25.59,11.68 40.96,15.59 15.79,4 33.67,7.04 53.42,9.04 19.91,1.97 42.29,3.02 66.96,3.02l851.14 0c17.3,0 30.73,4.7 40.11,14.06 9.33,9.4 14.06,22.8 14.06,40.11l0 187.45c0,17.27 -4.74,30.71 -14.06,40.07 -9.4,9.36 -22.83,14.1 -40.11,14.1l-862.6 0c-97.9,0 -181.22,-9.08 -249.81,-27.19 -34.6,-9.1 -66.2,-21.24 -94.58,-36.16 -28.52,-14.99 -53.92,-33 -76.03,-53.76 -22.16,-20.86 -41.4,-44.87 -57.56,-71.92 -16.1,-26.99 -29.31,-57.07 -39.44,-90.15 -10.07,-32.86 -17.65,-69.22 -22.67,-108.92 -4.98,-39.69 -7.53,-82.72 -7.53,-128.95l0 -328.96c0,-92.88 10.07,-171.88 30.2,-236.88 10.13,-32.77 23.34,-62.66 39.44,-89.41 16.19,-26.93 35.41,-50.91 57.56,-71.71 22.13,-20.82 47.54,-38.9 75.96,-53.97 28.3,-15.03 59.89,-27.37 94.57,-36.84 68.71,-18.76 152.03,-28.2 249.9,-28.2l862.6 0z"/>
 </g>
</svg>
