<svg width="260" height="260" viewBox="0 0 260 260" fill="none" xmlns="http://www.w3.org/2000/svg">
<path d="M0 0H260V260H0V0Z" fill="#172673"/>
<path fill-rule="evenodd" clip-rule="evenodd" d="M174.854 104.272C175.447 104.388 175.995 104.787 176.438 105.096C176.936 105.445 177.302 105.842 177.642 106.36C178.521 107.695 178.514 108.372 178.632 110.269C179.287 109.445 179.753 108.552 179.898 107.438C180.143 105.561 179.985 103.722 178.989 102.266C178.543 101.612 178.06 101.122 177.426 100.664C177.22 100.515 177 100.386 176.774 100.261C174.947 99.2518 174.056 99.2873 171.917 98.8594C170.773 98.6304 169.58 98.408 168.389 98.1683L161.492 96.7022C160.541 96.4089 159.077 95.4764 158.811 94.7279C158.402 94.4222 158.101 93.5792 157.932 93.0197C157.824 92.6628 157.749 92.284 157.727 91.8446C157.712 91.5339 157.775 90.9319 157.694 90.6868C157.122 90.9001 156.485 93.0296 156.406 93.5103C156.11 95.3064 156.312 97.2205 157.313 98.6952C157.472 98.9308 157.601 99.0781 157.78 99.2827C157.977 99.508 158.054 99.6231 158.274 99.8439C159.884 101.454 162.224 101.66 164.393 102.093L174.067 104.022C174.488 104.125 174.637 104.251 174.854 104.272Z" fill="#FDFDFD"/>
<path fill-rule="evenodd" clip-rule="evenodd" d="M86.0362 112.925L88.8003 112.965C88.6431 112.611 87.8963 112.654 87.2675 112.211L87.0641 112C86.7373 111.999 86.0713 111.256 85.8039 110.991C85.3868 110.578 84.8195 109.204 84.6787 108.491C84.524 107.705 84.3532 103.345 84.6301 102.901L84.6119 102.816C84.654 102.412 84.878 101.592 85.0249 101.31C85.157 101.057 85.5531 100.304 85.7156 100.276C85.8675 99.8571 86.4633 99.1697 86.8804 99.0603C87.0117 98.7827 87.4643 98.6721 87.7098 98.571C87.9293 98.4806 88.4583 98.33 88.5899 98.3849C87.7346 98.3007 86.9671 98.29 86.1064 98.3156C85.6183 98.3139 85.3418 98.3853 84.9523 98.3853C84.3887 98.9225 84.5182 97.943 84.5195 97.6121C84.5248 95.6365 84.3251 92.9681 85.1714 91.2488C85.3864 90.811 85.9731 89.8793 86.3626 89.699C86.5339 89.4011 87.2324 88.9344 87.5889 88.7727C88.1987 88.4958 88.7525 88.3951 89.0995 88.1888C85.8233 88.1888 83.7359 88.0056 81.5173 90.492C81.2392 90.8035 80.7614 91.5912 80.5902 92.0261C79.7394 94.1882 80.0587 96.5975 80.0587 99.0187C80.0587 100.66 80.0587 102.301 80.0587 103.941C80.0587 106.867 79.8021 109.549 82.4081 111.578C83.1405 112.148 84.7101 113.045 86.0362 112.925Z" fill="#FDFDFD"/>
<path fill-rule="evenodd" clip-rule="evenodd" d="M110.368 112.859L113.529 112.878C112.683 112.481 112.364 112.66 111.202 111.754C110.92 111.534 110.739 111.453 110.585 111.114C109.653 110.084 109.139 108.682 109.09 106.894C109.185 105.455 109.102 103.725 109.102 102.253C109.102 100.354 109.213 88.4397 109.032 88.2586C108.857 88.0832 104.818 88.1962 104.776 88.2222C104.615 88.3229 104.681 88.3312 104.645 88.5829C104.526 89.3957 104.601 103.487 104.601 105.488C104.601 107.462 104.839 109.199 106.028 110.601C106.984 111.728 108.828 112.965 110.368 112.859Z" fill="#FEFEFE"/>
<path fill-rule="evenodd" clip-rule="evenodd" d="M132.941 112.859L135.921 112.881C135.712 112.669 135.404 112.75 135.235 112.491C134.83 112.523 133.793 111.889 133.551 111.502C133.455 111.465 133.467 111.483 133.336 111.358C132.15 110.227 131.811 108.792 131.656 107.175L131.68 88.6753C131.656 87.98 131.204 88.1876 130.48 88.1876C129.918 88.188 129.356 88.1876 128.793 88.1876C126.717 88.1876 127.176 87.5105 127.176 91.6337C127.176 96.1341 127.176 100.635 127.176 105.136C127.176 107.029 127.093 107.921 127.879 109.496C128.437 110.615 129.252 111.464 130.342 112.095C130.913 112.426 132.022 112.922 132.941 112.859Z" fill="#FDFDFD"/>
<path fill-rule="evenodd" clip-rule="evenodd" d="M149.65 112.801C149.892 113.043 149.956 112.943 150.663 112.941C151.284 112.941 153.802 113.038 153.968 112.871C154.13 112.709 154.049 100.846 154.037 98.8062C154.035 98.3325 154.106 98.1678 154.111 97.7548L154.038 95.6707L153.959 95.4904C153.804 95.0163 153.928 95.143 153.569 94.222C153.364 93.6968 152.975 93.1443 152.983 92.9974C152.74 92.8699 152.944 93.0065 152.761 92.8414C152.728 92.8125 152.651 92.7181 152.623 92.6805C152.493 92.508 152.496 92.5873 152.49 92.4218C152.167 92.2951 151.59 91.6824 151.228 91.4278C150.841 91.1555 150.125 90.7928 149.64 90.7383L149.65 112.801Z" fill="#FEFEFE"/>
<path fill-rule="evenodd" clip-rule="evenodd" d="M165.004 112.871C164.997 112.611 165.453 112.653 165.848 112.649L165.41 112.529C165.694 112.338 165.74 112.399 165.911 112.321C165.58 112.315 165.165 112.34 164.939 112.238C164.954 112.228 164.982 112.204 164.991 112.22C165 112.237 165.032 112.207 165.045 112.204C165.576 112.067 165.428 112.299 165.428 110.902L165.423 109.49C165.444 109.214 165.421 109.28 165.569 109.147C165.302 109.125 165.288 109.076 164.938 109.074L165.291 108.933C165.471 108.855 165.351 108.915 165.428 108.862C165.194 108.525 164.001 108.63 163.322 108.618L161.563 108.595C161.495 108.595 161.337 108.597 161.279 108.592L160.959 108.511C160.2 108.511 156.811 108.399 156.43 108.581C156.197 109.067 156.197 112.315 156.43 112.801C156.856 113.005 163.859 112.871 165.004 112.871Z" fill="#F5F4F4"/>
<path fill-rule="evenodd" clip-rule="evenodd" d="M102.211 112.889C102.422 112.601 102.353 112.413 102.351 111.957C102.35 111.606 102.351 111.254 102.351 110.902C102.351 110.206 102.405 109.362 102.281 108.779C101.655 108.667 97.577 108.784 96.7221 108.829L96.7386 112.156C96.6482 112.34 95.9819 112.226 95.7714 112.29C95.9456 112.408 96.1279 112.369 96.4139 112.404L97.1029 112.495C97.1153 112.499 97.138 112.506 97.1541 112.515L95.5494 112.625C96.3247 112.747 95.5094 112.75 95.9724 112.812C96.7811 112.92 101.767 112.941 102.211 112.889Z" fill="#F9F7F8"/>
<path fill-rule="evenodd" clip-rule="evenodd" d="M102.281 92.3599C102.429 92.3356 102.296 92.435 102.337 92.2431L102.351 89.3128C102.353 88.7607 102.434 88.587 102.211 88.327C101.537 88.2198 97.6963 88.3642 96.7473 88.3984L96.7386 92.3463C97.5589 92.4127 101.777 92.5967 102.281 92.3599Z" fill="#F9F7F8"/>
<path fill-rule="evenodd" clip-rule="evenodd" d="M95.7446 102.575L100.663 102.608C101.234 102.594 101.288 102.594 101.352 102.098L101.366 98.3845C101.265 98.3275 101.295 98.3477 101.156 98.3267L96.1572 98.3618V102.182L95.75 102.322C96.0829 102.52 96.3689 102.265 96.7134 102.521L95.7446 102.575Z" fill="#F8F8F8"/>
<path fill-rule="evenodd" clip-rule="evenodd" d="M178.862 92.3657C179.103 91.8883 179.024 89.6792 179.005 88.8886C178.984 87.9986 178.832 88.1302 178.581 88.1001L174.749 88.0972L174.745 88.3642C174.122 88.3592 174.269 88.6208 174.269 90.2275C174.269 90.912 174.266 91.5978 174.271 92.2827L178.862 92.3657Z" fill="#FBFBFB"/>
<path fill-rule="evenodd" clip-rule="evenodd" d="M165.004 112.871L169.894 112.871C169.811 112.824 169.883 112.839 169.826 112.731C169.951 112.638 169.658 112.646 170.111 112.621C169.739 112.421 169.731 112.696 169.43 112.238L169.84 112.098V109.144C169.952 109.052 169.727 109.092 170.051 109.053L169.886 108.885C169.875 108.875 169.851 108.857 169.835 108.841C170.076 108.819 169.975 108.856 170.121 108.753L166.876 108.512L160.959 108.511L161.279 108.592C161.337 108.597 161.495 108.595 161.563 108.595L163.322 108.618C164.001 108.63 165.194 108.525 165.428 108.862C165.351 108.915 165.471 108.855 165.291 108.933L164.938 109.074C165.288 109.076 165.302 109.125 165.569 109.147C165.421 109.28 165.444 109.214 165.423 109.49L165.428 110.902C165.428 112.299 165.576 112.067 165.045 112.204C165.032 112.207 165 112.237 164.991 112.22C164.982 112.204 164.954 112.228 164.939 112.238C165.165 112.34 165.58 112.315 165.911 112.321C165.74 112.399 165.694 112.338 165.41 112.529L165.848 112.649C165.453 112.653 164.997 112.611 165.004 112.871Z" fill="#D5D3D4"/>
<path fill-rule="evenodd" clip-rule="evenodd" d="M172.854 92.3389L178.3 92.3793L178.862 92.3657L174.271 92.2827C174.266 91.5978 174.269 90.912 174.269 90.2275C174.269 88.6208 174.122 88.3592 174.745 88.3642L174.749 88.0972L169.72 88.1872C169.591 88.0374 170.237 88.2614 169.66 88.339C169.9 88.4714 169.843 88.3105 169.874 88.6716L169.868 92.2625L172.854 92.3389Z" fill="#ECEAEB"/>
<path fill-rule="evenodd" clip-rule="evenodd" d="M120.463 112.886L124.644 112.881C124.999 112.709 124.854 111.454 124.854 110.761L124.856 109.071C124.83 108.673 124.78 108.701 124.644 108.678L120.466 108.702L120.463 112.886Z" fill="#F9F7F8"/>
<path fill-rule="evenodd" clip-rule="evenodd" d="M175.206 107.562C175.705 107.855 175.658 108.029 175.606 108.393C175.526 108.954 175.625 111.441 175.567 112.388L175.362 112.519C175.848 112.474 176.851 111.884 177.195 111.626C177.448 111.436 177.714 111.239 177.932 111.026C178.214 110.75 178.326 110.538 178.632 110.269C178.514 108.372 178.521 107.695 177.642 106.36C177.302 105.842 176.936 105.445 176.438 105.096C175.995 104.787 175.447 104.388 174.854 104.272C174.866 104.285 174.887 104.285 174.893 104.309C174.931 104.454 175.495 104.529 175.489 105.767C175.485 106.48 175.492 107.136 175.206 107.562Z" fill="#857E80"/>
<path fill-rule="evenodd" clip-rule="evenodd" d="M142.778 112.876L147.076 112.888C147.514 112.733 147.357 111.843 147.357 110.972C147.357 110.222 147.357 109.472 147.357 108.722C147.138 108.598 147.291 108.685 147.147 108.722L143.176 108.703C143.093 109.246 143.201 111.503 143.192 112.379C143.037 112.469 143.08 112.438 142.848 112.441L142.855 112.591C143.098 112.611 143.052 112.596 143.196 112.731L142.778 112.876Z" fill="#FBF9F9"/>
<path fill-rule="evenodd" clip-rule="evenodd" d="M158.89 89.5021C159.17 89.5855 159.055 89.595 158.992 89.8817L158.996 90.1867C158.92 90.7004 158.993 91.2384 158.991 91.7769C158.989 92.3405 159.159 93.0304 158.985 93.4785C158.979 93.4946 158.97 93.5119 158.963 93.528C158.956 93.5433 158.947 93.561 158.941 93.5759L158.771 94.0079C158.947 93.8593 158.826 93.8544 159.06 93.7809C159.051 94.425 158.94 93.8688 158.919 94.3767C159.126 94.4943 158.707 94.3656 159.012 94.3631C159.059 94.3627 159.03 94.3281 159.133 94.3767C159.098 94.567 159.071 94.5975 159.065 94.8418L158.811 94.7279C159.077 95.4764 160.541 96.4089 161.492 96.7022C161.34 96.4844 161.357 96.616 161.167 96.3891C161.07 96.2723 160.964 96.0912 160.915 95.9385C160.8 95.5803 160.646 93.75 161.402 93.0226C161.474 92.9541 161.516 92.9219 161.583 92.8526L161.773 92.619C161.609 92.6793 161.473 92.7969 161.395 92.6009C161.317 92.404 161.351 92.5493 161.566 92.4078L161.473 92.2877C161.467 92.2737 161.457 92.2551 161.452 92.239L161.428 90.3686C161.428 89.8558 161.539 88.6881 161.289 88.3291C160.662 88.3786 159.211 89.1576 158.89 89.5021Z" fill="#8D8788"/>
<path fill-rule="evenodd" clip-rule="evenodd" d="M139.78 108.652C139.846 108.788 139.815 108.675 139.797 108.84L139.765 112.283C139.751 112.418 139.652 112.184 139.76 112.371C139.828 112.49 140.072 112.455 140.252 112.459C140.127 112.522 140.033 112.525 139.901 112.588C140.209 112.783 140.107 112.617 140.185 112.801L140.041 112.847L142.778 112.876L143.196 112.731C143.052 112.596 143.098 112.611 142.855 112.591L142.848 112.441C143.08 112.438 143.037 112.469 143.192 112.379C143.201 111.503 143.093 109.246 143.176 108.703L147.147 108.722C147.052 108.496 147.136 108.576 146.303 108.581C144.937 108.591 140.437 108.478 139.78 108.652Z" fill="#E7E5E5"/>
<path fill-rule="evenodd" clip-rule="evenodd" d="M166.884 92.4073L176.893 92.4775C177.211 92.4775 178.077 92.5769 178.3 92.3793L172.854 92.3389C171.59 92.3306 168.621 92.4866 167.586 92.2662L167.586 88.5391C167.71 88.2222 167.521 88.4611 167.864 88.3278L167.854 88.0695C167.389 87.9965 166.575 88.0844 166.063 88.1017C164.156 88.1665 165.302 88.2981 164.439 88.3262L164.583 92.3062L166.884 92.4073Z" fill="#C5C2C2"/>
<path fill-rule="evenodd" clip-rule="evenodd" d="M101.999 112.988L102.211 112.889C101.767 112.941 96.7811 112.92 95.9724 112.812C95.5094 112.75 96.3247 112.747 95.5494 112.625L97.1541 112.515C97.138 112.506 97.1153 112.499 97.1029 112.495L96.4139 112.404C96.1279 112.369 95.9456 112.408 95.7714 112.29C95.9819 112.226 96.6482 112.34 96.7386 112.156L96.7221 108.829C97.577 108.784 101.655 108.667 102.281 108.779L102.14 108.694L94.5728 108.753L93.0758 108.88L93.4253 109.005C93.2528 109.286 93.3585 109.291 93.3568 109.987C93.356 110.386 93.3564 110.784 93.3568 111.183L93.3477 112.031C93.3448 112.053 93.3403 112.072 93.3366 112.092C93.3333 112.11 93.3259 112.13 93.3226 112.146C93.3197 112.16 93.3106 112.18 93.3085 112.193C93.3065 112.203 93.2986 112.223 93.297 112.232L93.3395 112.386C93.3812 112.48 93.3568 112.383 93.3989 112.547L93.4484 112.755C93.5231 112.945 93.3065 112.627 93.4901 112.839L101.999 112.988Z" fill="#E2DFE1"/>
<path fill-rule="evenodd" clip-rule="evenodd" d="M161.29 88.3283C161.54 88.6872 161.429 89.8549 161.429 90.3678L161.452 92.2382C161.458 92.2543 161.467 92.2724 161.474 92.2869L161.567 92.4069C161.352 92.5485 161.318 92.4032 161.395 92.6C161.473 92.796 161.61 92.6784 161.774 92.6182C161.941 92.6285 162.313 92.4494 162.832 92.4102L166.884 92.4073L164.583 92.3062L164.439 88.3262C165.302 88.2981 164.156 88.1665 166.063 88.1017C166.575 88.0844 167.389 87.9965 167.854 88.0695L169.148 88.0465C167.656 88.0465 162.016 87.9532 161.29 88.3283Z" fill="#AAA6A6"/>
<path fill-rule="evenodd" clip-rule="evenodd" d="M117.518 112.871L120.463 112.886L120.466 108.702L117.486 108.792C117.211 109.107 117.25 109.017 117.252 110.128L117.319 112.177C117.035 112.332 117.124 112.107 116.915 112.379C117.088 112.486 117.144 112.451 117.4 112.462C117.405 112.478 117.35 112.5 117.395 112.612C117.493 112.851 117.49 112.43 117.518 112.871Z" fill="#E7E5E5"/>
<path fill-rule="evenodd" clip-rule="evenodd" d="M93.7612 92.4626C93.9506 92.4548 94.1457 92.4486 94.3359 92.4544C94.4313 92.4572 94.527 92.463 94.6202 92.4812C94.8567 92.527 94.7547 92.5138 94.8261 92.5476C96.8492 92.5476 99.8097 92.6078 101.794 92.5575C102.221 92.5468 102.142 92.5142 102.21 92.4185L94.7333 92.3904L94.7349 88.355C95.0968 88.3274 95.5379 88.3963 95.7953 88.2428L93.3741 88.254C93.0226 88.4046 92.3401 88.3802 91.8941 88.393L91.899 91.9951C91.8858 92.5348 91.8281 92.3496 91.8281 92.3496L93.7612 92.4626Z" fill="#D5D2D2"/>
<path fill-rule="evenodd" clip-rule="evenodd" d="M95.7446 102.575L96.7134 102.521C96.3689 102.265 96.0829 102.52 95.75 102.322L96.1572 102.182V98.3618L93.0639 98.3894V102.33C93.2702 102.384 93.4588 102.445 93.6812 102.508L92.8568 102.542L95.7446 102.575Z" fill="#E4E2E3"/>
<path fill-rule="evenodd" clip-rule="evenodd" d="M114.59 108.652L114.891 108.771C114.903 108.776 114.927 108.783 114.942 108.792C114.927 108.802 114.9 108.793 114.891 108.815C114.854 108.919 114.887 108.819 114.791 108.858C114.62 108.928 114.753 108.838 114.604 108.933L114.543 111.894C114.513 112.263 114.594 112.065 114.403 112.238C114.424 112.248 114.518 112.281 114.528 112.289C114.534 112.293 114.554 112.307 114.559 112.311C114.564 112.316 114.577 112.333 114.581 112.338C114.585 112.343 114.594 112.364 114.596 112.368C114.599 112.372 114.609 112.389 114.608 112.4C114.432 112.497 114.173 112.47 113.978 112.479L114.537 112.503C114.47 112.693 114.382 112.684 114.335 112.757L117.518 112.871C117.49 112.43 117.493 112.851 117.395 112.612C117.35 112.5 117.405 112.478 117.4 112.462C117.144 112.451 117.088 112.486 116.915 112.379C117.124 112.107 117.035 112.332 117.319 112.177L117.252 110.128C117.25 109.017 117.211 109.107 117.486 108.792L120.466 108.702L124.644 108.678C124.43 108.492 123.726 108.581 123.448 108.581L114.59 108.652Z" fill="#CBC8C9"/>
<path fill-rule="evenodd" clip-rule="evenodd" d="M90.6806 98.3642L90.6641 102.232C90.6641 102.254 90.6641 102.309 90.667 102.327L90.7297 102.49C90.7322 102.479 90.7483 102.516 90.7528 102.523L90.2775 102.604C91.2001 102.604 91.8632 102.674 92.7878 102.674L100.033 102.675C100.271 102.678 100.502 102.704 100.663 102.608L95.7446 102.575L92.858 102.542L93.6824 102.508C93.46 102.445 93.2714 102.384 93.0651 102.33V98.3894L96.1585 98.3617L101.157 98.3267C101.142 98.3155 101.117 98.2862 101.108 98.3011L91.8743 98.2437C91.6664 98.363 91.4869 98.3523 91.2414 98.356C91.0553 98.3584 90.8684 98.3626 90.6823 98.3638L90.6806 98.3642Z" fill="#CBC8C9"/>
<path fill-rule="evenodd" clip-rule="evenodd" d="M171.83 112.871H173.768C174.014 112.521 173.764 112.654 174.086 112.522C174.071 112.511 174.046 112.48 174.038 112.495C174.028 112.513 173.984 112.465 173.941 112.444L173.846 112.4C173.836 112.396 173.814 112.387 173.8 112.379C174.009 112.144 174.011 112.048 174.007 111.608C174.003 111.223 174.097 109.251 173.922 109L173.778 108.848C173.992 108.801 174.229 108.65 174.348 108.527L173.94 108.581C173.395 108.371 170.64 108.512 169.845 108.512C170.078 108.688 171.046 108.623 171.409 108.654L171.471 108.855C171.473 108.861 171.481 108.88 171.483 108.886C171.484 108.892 171.488 108.912 171.489 108.919C171.516 109.077 171.481 108.821 171.49 108.985C171.497 109.092 171.47 108.976 171.503 109.135L171.569 111.892C171.518 112.483 171.463 111.947 171.439 112.356C171.559 112.451 171.471 112.384 171.604 112.462C171.617 112.47 171.636 112.48 171.649 112.487C171.662 112.495 171.681 112.505 171.695 112.512L171.785 112.564C171.795 112.57 171.816 112.58 171.831 112.59C171.815 112.6 171.788 112.589 171.779 112.611C171.771 112.632 171.739 112.627 171.727 112.631C171.715 112.635 171.689 112.644 171.674 112.649L171.424 112.73C171.574 112.805 171.507 112.747 171.622 112.786L171.83 112.871Z" fill="#ADA9A9"/>
<path fill-rule="evenodd" clip-rule="evenodd" d="M167.854 88.0695L167.864 88.3278C167.521 88.4611 167.71 88.2222 167.586 88.5391L167.586 92.2662C168.621 92.4866 171.59 92.3306 172.854 92.3389L169.868 92.2625L169.874 88.6716C169.843 88.3105 169.9 88.4714 169.66 88.339C170.237 88.2614 169.591 88.0374 169.72 88.1872L174.749 88.0972L178.581 88.1001C178.186 87.9115 170.325 88.0473 169.147 88.0473L167.854 88.0695Z" fill="#D9D6D6"/>
<path fill-rule="evenodd" clip-rule="evenodd" d="M135.235 112.491C135.404 112.75 135.712 112.669 135.921 112.881L132.941 112.859L133.288 112.948C134.571 113.012 138.623 112.941 139.973 112.941C140.899 112.941 146.746 113.048 147.076 112.888L142.778 112.876L140.041 112.847C139.608 112.866 139.204 112.807 138.776 112.803C137.914 112.795 138.486 112.688 137.717 112.657C137.787 112.592 137.92 112.532 137.942 112.415C137.977 112.223 138.022 112.47 137.856 112.247L137.789 112.162C138.124 111.969 137.988 111.891 137.988 110.831C137.988 110.316 137.988 109.8 137.988 109.284C138.045 109.018 138.016 109.134 138.19 109.003L137.904 108.892C137.891 108.885 137.867 108.874 137.851 108.862C138.021 108.709 138.037 108.751 138.183 108.651H135.34C135.355 108.661 135.378 108.666 135.39 108.67L135.782 108.762C135.948 108.853 135.824 108.864 135.776 109.085L135.765 112.013C135.794 112.169 135.767 112.082 135.823 112.169C135.726 112.405 135.837 112.224 135.615 112.376C135.859 112.409 135.873 112.465 136.028 112.589C135.842 112.665 135.505 112.509 135.235 112.491Z" fill="#BAB6B6"/>
<path fill-rule="evenodd" clip-rule="evenodd" d="M87.9116 108.749C87.8918 108.759 87.8658 108.767 87.8484 108.772L87.3471 108.858C87.4371 108.877 87.3125 108.798 87.4272 108.911C87.6364 109.116 87.5662 109.221 87.5629 109.307L87.5431 111.636C87.4168 111.69 87.4585 111.7 87.2691 111.705C87.5897 111.797 87.5485 111.749 87.5481 112.125C87.3356 112.106 87.2419 112.062 87.0641 112L87.2675 112.211C87.8963 112.654 88.6431 112.611 88.8003 112.965L86.0362 112.925C86.2743 113.111 89.5315 113.012 89.8339 113.012C91.1547 113.012 92.4755 113.012 93.7962 113.012C93.5668 112.915 93.0989 112.927 92.7891 112.961L90.3262 112.888C89.9606 112.864 89.8224 112.787 89.4816 112.785C89.5538 112.619 89.4737 112.747 89.6256 112.653C89.8269 112.529 90.0477 112.48 90.2965 112.488L89.555 112.441C89.5678 112.43 89.5905 112.4 89.5963 112.413L89.8183 112.238C89.6602 111.941 89.7333 110.299 89.7419 109.702C89.7493 109.202 89.8966 109.165 89.6037 109.093C89.744 108.976 90.0349 108.931 90.2408 108.908C90.1995 108.901 90.0943 108.896 90.0398 108.881C90.0217 108.876 90.001 108.87 89.9825 108.864L89.8649 108.816C89.8492 108.81 89.8236 108.8 89.805 108.787C90.5424 108.746 92.4392 108.825 92.9281 108.652H90.2053L87.9116 108.749Z" fill="#A6A2A1"/>
<path fill-rule="evenodd" clip-rule="evenodd" d="M149.65 112.801L149.64 90.7383C150.125 90.7928 150.841 91.1555 151.228 91.4278C151.59 91.6824 152.167 92.2951 152.49 92.4218C152.478 92.4016 152.464 92.378 152.453 92.3624C152.087 91.8222 151.642 91.729 151.466 91.3205C151.664 91.3675 151.92 91.4769 152.026 91.6019C152.027 91.5784 152.02 91.4864 152.023 91.4728C152.073 91.2883 151.944 91.5029 152.099 91.3296C152.264 91.5668 152.143 91.4369 152.489 91.4732C152.784 91.5037 152.71 91.5235 152.919 91.6044C153.066 91.6613 153.584 91.5953 153.907 91.597L153.982 91.3667L154.053 89.7274L153.986 89.8178C153.979 89.8281 153.961 89.8541 153.955 89.8632L153.897 89.9539C153.633 89.9539 150.327 89.8788 150.11 90.0228C150.037 89.9572 150.065 90.0055 149.997 89.9065C149.914 89.7864 149.973 89.8706 149.937 89.7509C149.842 89.9275 149.945 89.8867 149.694 89.9605L149.678 88.5395C149.526 88.6026 149.518 88.3835 149.534 89.1708C149.63 93.587 149.329 111.952 149.65 112.801Z" fill="#C1BEBE"/>
<path fill-rule="evenodd" clip-rule="evenodd" d="M86.3626 89.699C86.762 89.5669 86.9613 89.2562 87.3017 89.1724C87.4074 89.0061 87.4144 89.0697 87.5794 88.9731C87.931 88.7681 88.2136 88.6237 88.6613 88.5906C88.5891 88.8027 88.6213 88.7561 88.2994 88.8609L88.6576 88.9418C88.6238 89.2075 88.6568 89.113 88.5078 89.2426C88.7781 89.4584 88.7261 89.4089 88.7207 89.8718L88.7191 92.3636C89.4944 92.4465 89.6681 92.3747 90.1855 92.4015C90.2973 92.4077 90.3633 92.4131 90.471 92.4457C90.6344 92.4952 90.5878 92.4845 90.6769 92.5476H94.8261C94.7547 92.5138 94.8567 92.527 94.6202 92.4812C94.527 92.463 94.4313 92.4572 94.3359 92.4544C94.1457 92.4486 93.9506 92.4548 93.7612 92.4626L90.4504 92.376L90.45 88.367L93.3741 88.254L95.7953 88.2428L102 88.2176L89.1003 88.1879C88.7533 88.3942 88.1996 88.4949 87.5897 88.7718C87.2332 88.9335 86.5347 89.4002 86.3635 89.6981L86.3626 89.699Z" fill="#B1ADAE"/>
<path fill-rule="evenodd" clip-rule="evenodd" d="M92.7891 112.961C93.0989 112.927 93.5668 112.915 93.7962 113.012L101.999 112.988L93.4901 112.839C93.3065 112.627 93.5231 112.945 93.4484 112.755L93.3989 112.547C93.3568 112.383 93.3812 112.48 93.3395 112.386L93.297 112.232C93.2986 112.223 93.3065 112.203 93.3085 112.193C93.3106 112.18 93.3197 112.16 93.3226 112.146C93.3259 112.13 93.3333 112.11 93.3366 112.092C93.3403 112.072 93.3448 112.053 93.3477 112.031L93.3568 111.183C93.3564 110.784 93.356 110.386 93.3568 109.987C93.3585 109.291 93.2528 109.286 93.4253 109.005L93.0758 108.88L94.5728 108.753C93.5235 108.725 92.6133 108.754 91.5219 108.802C91.3478 109.084 91.4217 108.924 91.1085 109.049L91.5834 109.157C91.3949 109.494 91.5133 111.448 91.5133 112.028C91.4865 112.198 91.3202 112.277 91.1659 112.343L91.4518 112.449C91.3709 112.608 91.2991 112.608 91.2302 112.661C91.7295 112.79 91.1737 112.682 91.4563 112.807C91.6556 112.895 92.4747 112.851 92.7891 112.961Z" fill="#CDC9CA"/>
<path fill-rule="evenodd" clip-rule="evenodd" d="M102.21 92.4185C102.319 92.5101 102.281 92.501 102.281 92.3599C101.777 92.5967 97.5589 92.4127 96.7386 92.3463L96.7473 88.3984C97.6963 88.3642 101.537 88.2198 102.211 88.327L102 88.2176L95.7953 88.2428C95.5379 88.3963 95.0968 88.3274 94.7349 88.355L94.7333 92.3904L102.21 92.4185Z" fill="#E8E6E6"/>
<path fill-rule="evenodd" clip-rule="evenodd" d="M92.7891 112.961C92.4751 112.851 91.6544 112.895 91.4551 112.807C91.1725 112.682 91.7283 112.79 91.229 112.661C91.2979 112.608 91.3697 112.608 91.4506 112.449L91.1646 112.343C91.3189 112.277 91.4852 112.198 91.512 112.028C91.512 111.448 91.3936 109.494 91.5822 109.157L91.1073 109.049C91.4204 108.924 91.3466 109.084 91.5207 108.802C92.6121 108.754 93.5227 108.726 94.572 108.754L102.139 108.694C101.77 108.553 94.0562 108.652 92.9269 108.652C92.4379 108.825 90.5412 108.746 89.8038 108.787C89.8224 108.8 89.848 108.81 89.8637 108.816L89.9812 108.864C89.9998 108.871 90.0204 108.876 90.0386 108.881C90.0931 108.896 90.1983 108.901 90.2395 108.908C90.0337 108.931 89.7428 108.976 89.6025 109.093C89.8954 109.165 89.7485 109.202 89.7407 109.702C89.732 110.3 89.659 111.941 89.817 112.238L89.595 112.413C89.5893 112.4 89.5666 112.43 89.5538 112.441L90.2952 112.488C90.0469 112.48 89.8261 112.529 89.6243 112.653C89.4721 112.747 89.5521 112.619 89.4803 112.786C89.8207 112.787 89.9594 112.864 90.325 112.888L92.7878 112.961L92.7891 112.961Z" fill="#BBB8B7"/>
<path fill-rule="evenodd" clip-rule="evenodd" d="M140.041 112.847L140.185 112.801C140.107 112.617 140.209 112.783 139.901 112.588C140.033 112.525 140.127 112.522 140.252 112.459C140.072 112.455 139.828 112.49 139.76 112.371C139.652 112.184 139.751 112.418 139.765 112.283L139.797 108.84C139.815 108.675 139.846 108.788 139.78 108.652L138.184 108.651C138.039 108.751 138.023 108.709 137.852 108.862C137.868 108.874 137.892 108.885 137.905 108.892L138.191 109.003C138.017 109.134 138.046 109.018 137.99 109.284C137.99 109.8 137.99 110.316 137.99 110.831C137.99 111.891 138.125 111.969 137.79 112.162L137.857 112.247C138.023 112.47 137.978 112.223 137.943 112.415C137.921 112.532 137.788 112.592 137.718 112.657C138.487 112.688 137.915 112.795 138.777 112.803C139.206 112.807 139.609 112.865 140.042 112.846L140.041 112.847Z" fill="#D1CECE"/>
<path fill-rule="evenodd" clip-rule="evenodd" d="M169.894 112.871H171.83L171.622 112.786C171.507 112.747 171.574 112.805 171.424 112.73L171.674 112.649C171.689 112.644 171.715 112.635 171.727 112.631C171.739 112.627 171.771 112.632 171.779 112.611C171.788 112.589 171.815 112.6 171.831 112.59C171.816 112.58 171.795 112.57 171.785 112.564L171.695 112.512C171.681 112.505 171.662 112.495 171.649 112.487C171.636 112.48 171.617 112.47 171.604 112.462C171.471 112.384 171.559 112.451 171.439 112.356C171.463 111.947 171.518 112.483 171.569 111.892L171.503 109.135C171.47 108.976 171.497 109.092 171.49 108.985C171.481 108.821 171.516 109.077 171.489 108.919C171.488 108.912 171.484 108.892 171.483 108.886C171.481 108.88 171.473 108.861 171.471 108.855L171.409 108.654C171.046 108.623 170.078 108.688 169.845 108.512H166.876L170.121 108.753C169.975 108.856 170.076 108.819 169.835 108.841C169.851 108.857 169.875 108.875 169.886 108.885L170.051 109.053C169.727 109.092 169.952 109.052 169.84 109.144V112.098L169.43 112.238C169.731 112.696 169.739 112.421 170.111 112.621C169.658 112.646 169.951 112.638 169.826 112.731C169.883 112.839 169.811 112.824 169.894 112.871Z" fill="#C0BCBA"/>
<path fill-rule="evenodd" clip-rule="evenodd" d="M173.94 108.581L174.348 108.527C174.229 108.65 173.992 108.801 173.778 108.848L173.922 109C174.097 109.251 174.003 111.223 174.007 111.608C174.011 112.048 174.009 112.144 173.8 112.379C173.814 112.387 173.836 112.396 173.846 112.4L173.941 112.444C173.984 112.465 174.028 112.513 174.038 112.495C174.046 112.48 174.071 112.511 174.086 112.522C173.764 112.654 174.014 112.521 173.768 112.871C174.288 112.771 174.951 112.767 175.362 112.519L175.567 112.388C175.625 111.441 175.526 108.954 175.606 108.393C175.658 108.029 175.705 107.855 175.206 107.562C174.665 108.409 174.198 108.255 173.94 108.581Z" fill="#989394"/>
<path fill-rule="evenodd" clip-rule="evenodd" d="M111.26 111.605C110.92 111.414 110.917 111.261 110.585 111.114C110.739 111.453 110.92 111.534 111.202 111.754C112.364 112.66 112.683 112.481 113.529 112.878L110.368 112.859C110.624 113.05 117.185 112.941 117.47 112.941H123.8C123.94 112.942 124.089 112.947 124.227 112.946C124.477 112.943 124.477 112.972 124.644 112.881L120.463 112.886L117.518 112.871L114.335 112.757C114.382 112.684 114.47 112.693 114.537 112.503L113.978 112.479C114.173 112.47 114.432 112.497 114.608 112.4C114.609 112.389 114.599 112.372 114.596 112.368C114.594 112.364 114.585 112.343 114.581 112.338C114.577 112.333 114.564 112.316 114.559 112.311C114.554 112.307 114.534 112.293 114.528 112.289C114.518 112.281 114.424 112.248 114.403 112.238C114.594 112.065 114.513 112.263 114.543 111.894L114.604 108.933C114.753 108.838 114.62 108.928 114.791 108.858C114.887 108.819 114.854 108.919 114.891 108.815C114.9 108.793 114.927 108.802 114.942 108.792C114.927 108.783 114.903 108.776 114.891 108.771L114.59 108.652L113.43 108.651C113.365 108.741 113.371 108.734 113.285 108.821L113.134 108.965C113.128 108.952 113.107 108.989 113.094 109.002C113.281 109.445 113.163 111.437 113.163 112.115C113.276 112.167 113.402 112.186 113.499 112.237C113.464 112.253 113.194 112.297 113.079 112.397C113.198 112.428 113.638 112.651 113.917 112.606C112.984 112.628 111.91 112.24 111.261 111.604L111.26 111.605Z" fill="#B5B1B1"/>
<path fill-rule="evenodd" clip-rule="evenodd" d="M133.551 111.502C133.793 111.889 134.83 112.523 135.235 112.491C135.505 112.509 135.842 112.665 136.028 112.589C135.873 112.465 135.859 112.409 135.615 112.376C135.837 112.224 135.726 112.405 135.823 112.169C135.767 112.082 135.794 112.169 135.765 112.013L135.776 109.085C135.824 108.864 135.948 108.853 135.782 108.762L135.39 108.67C135.378 108.666 135.355 108.661 135.34 108.651H133.79L133.788 109.284C133.805 109.518 133.795 109.754 133.795 109.988C133.797 110.546 133.781 110.845 133.726 111.312L134.036 111.246C134.04 111.234 134.062 111.247 134.073 111.253C133.963 111.496 134.062 111.261 133.95 111.414C133.891 111.495 133.921 111.387 133.861 111.554L133.552 111.501L133.551 111.502Z" fill="#9D9B9B"/>
<path fill-rule="evenodd" clip-rule="evenodd" d="M111.26 111.605C111.91 112.241 112.984 112.629 113.916 112.608C113.638 112.652 113.198 112.429 113.079 112.398C113.194 112.298 113.463 112.254 113.499 112.238C113.401 112.187 113.275 112.168 113.163 112.116C113.163 111.437 113.281 109.446 113.093 109.003C113.106 108.991 113.127 108.954 113.133 108.966L113.285 108.822C113.371 108.734 113.365 108.742 113.429 108.652H110.664C110.843 108.735 110.936 108.669 111.158 108.773C111.29 109.402 111.021 108.769 111.087 109.987C111.115 110.517 111.207 110.682 111.091 111.254C111.222 111.366 111.35 111.487 111.439 111.605C111.336 111.642 111.606 111.767 111.26 111.605Z" fill="#9E9A9A"/>
<path fill-rule="evenodd" clip-rule="evenodd" d="M86.3635 89.6981C85.974 89.8788 85.3864 90.8114 85.1714 91.2488C84.3251 92.9681 84.5248 95.6365 84.5195 97.6121C84.5182 97.943 84.3887 98.9225 84.9523 98.3853C84.7398 98.3713 84.7287 98.3535 84.5599 98.3143C84.5599 97.0909 84.3932 94.34 84.746 93.5078C84.9742 92.9701 85.5683 92.5489 86.3143 92.5443C87.1808 92.5394 88.0519 92.5476 88.9192 92.5476C88.6584 92.3756 88.0448 92.4408 87.421 92.4028L87.4201 90.0847C87.4255 89.699 87.5047 89.5566 87.27 89.4143L87.4144 89.2818C87.5089 89.1844 87.4263 89.3103 87.508 89.1725C87.456 89.1506 87.5893 89.0656 87.3017 89.1724C86.9613 89.2566 86.7629 89.5661 86.3635 89.6981Z" fill="#8A8586"/>
<path fill-rule="evenodd" clip-rule="evenodd" d="M89.0009 102.604L90.2775 102.604L90.7528 102.523C90.7483 102.516 90.7322 102.479 90.7297 102.49L90.667 102.327C90.6641 102.309 90.6641 102.254 90.6641 102.232L90.6806 98.3642L88.9906 98.384V101.549C88.9922 102.148 89.0723 102.245 88.8783 102.463C89.0079 102.549 88.9637 102.563 89.0009 102.604Z" fill="#B6B2B2"/>
<path fill-rule="evenodd" clip-rule="evenodd" d="M86.8804 99.0603C87.2209 99.0657 87.0554 99.0756 87.2976 98.9518C87.4597 98.8689 87.4106 98.7847 87.645 98.8771C87.4833 99.0871 87.5877 98.9423 87.3578 99.088C87.3739 99.0991 87.4003 99.0933 87.4086 99.1172C87.449 99.2348 87.6174 99.2171 87.6376 99.2287L87.6487 102.18C87.7176 102.477 87.617 102.204 87.8418 102.464C87.7816 102.509 87.8142 102.518 87.7696 102.604L89.0009 102.604C88.9637 102.563 89.0087 102.549 88.8795 102.464C89.0735 102.245 88.9934 102.148 88.9918 101.55V98.3844L90.6806 98.3642C90.8667 98.363 91.054 98.3593 91.2405 98.3568C91.486 98.3535 91.6655 98.3638 91.8735 98.2446L86.4538 98.2392C86.3779 98.2425 86.3362 98.2433 86.2619 98.2586C86.1084 98.2908 86.193 98.2603 86.1064 98.3156C86.9671 98.29 87.7346 98.3007 88.5899 98.3849C88.4583 98.33 87.9293 98.4806 87.7098 98.571C87.4643 98.6721 87.0117 98.7827 86.8804 99.0603Z" fill="#A3A09F"/>
<path fill-rule="evenodd" clip-rule="evenodd" d="M86.8804 99.0603C86.4633 99.1697 85.8675 99.8571 85.7156 100.276C86.0247 100.2 85.7891 100.149 85.9467 100.283C85.6884 100.595 85.9904 100.279 85.9793 100.859C85.6868 100.824 85.7681 100.967 85.7173 100.658C85.7111 100.881 85.7338 100.897 85.8683 101.011C85.7866 101.249 85.844 101.163 85.6678 101.268C85.9108 101.425 85.8205 101.197 85.752 101.58C85.7198 101.76 85.6373 101.901 85.6315 101.936C85.6092 102.081 85.6707 102.134 85.6439 102.319C85.5844 102.728 85.6459 102.514 85.4739 102.605L87.7696 102.604C87.8142 102.518 87.7816 102.509 87.8418 102.464C87.617 102.204 87.7176 102.477 87.6487 102.18L87.6376 99.2287C87.6174 99.2171 87.449 99.2348 87.4086 99.1172C87.4003 99.0933 87.3739 99.0991 87.3578 99.088C87.5877 98.9423 87.4833 99.0871 87.645 98.8771C87.4106 98.7847 87.4597 98.8689 87.2976 98.9518C87.0554 99.0756 87.2209 99.0657 86.8804 99.0603Z" fill="#8E898A"/>
<path fill-rule="evenodd" clip-rule="evenodd" d="M93.7612 92.4626L91.8281 92.3496C91.8281 92.3496 91.8858 92.5348 91.899 91.9951L91.8941 88.393C92.3401 88.3802 93.0226 88.4046 93.3741 88.254L90.45 88.367L90.4504 92.376L93.7612 92.4626Z" fill="#C1BEBE"/>
<path fill-rule="evenodd" clip-rule="evenodd" d="M157.695 90.6868C157.776 90.9323 157.712 91.5338 157.728 91.8445C157.75 92.284 157.825 92.6628 157.933 93.0197C158.102 93.5792 158.403 94.4221 158.812 94.7279L159.066 94.8409C159.071 94.5967 159.099 94.5661 159.133 94.3759C159.03 94.3272 159.06 94.3619 159.013 94.3623C158.708 94.3652 159.127 94.4935 158.92 94.3759C158.941 93.868 159.051 94.4246 159.061 93.7801C158.826 93.8536 158.947 93.8585 158.772 94.007L158.942 93.575C158.948 93.5602 158.958 93.5424 158.964 93.5272C158.97 93.5111 158.98 93.4942 158.986 93.4777C159.16 93.0292 158.99 92.3397 158.992 91.776C158.994 91.2376 158.921 90.7 158.996 90.1858L158.993 89.8809C159.055 89.5946 159.171 89.5851 158.891 89.5013C158.507 89.8368 157.914 90.2469 157.695 90.6868Z" fill="#7A7475"/>
<path fill-rule="evenodd" clip-rule="evenodd" d="M87.0641 112C87.2419 112.062 87.3356 112.106 87.5481 112.125C87.5485 111.749 87.5897 111.797 87.2691 111.705C87.4585 111.7 87.4168 111.69 87.5431 111.636L87.5629 109.307C87.5662 109.221 87.6364 109.116 87.4272 108.911C87.3125 108.798 87.4371 108.877 87.3471 108.858L87.8484 108.772C87.8658 108.767 87.8918 108.759 87.9116 108.749L86.224 108.828L85.9162 109.074L86.3379 109.131C86.3238 109.14 86.2966 109.135 86.2896 109.162C86.2747 109.221 86.1427 109.172 86.1192 109.492C86.0486 110.448 86.2681 110.122 86.4134 110.328C86.4163 110.331 86.5644 110.329 86.4154 110.557C86.4068 110.57 86.3899 110.586 86.3795 110.597L86.2405 110.691C86.363 111.041 86.4117 110.731 86.3915 111.267C85.955 111.061 85.4215 110.078 85.2312 109.682C84.9172 109.027 84.699 108.337 84.699 107.457C84.465 106.85 84.5591 105.961 84.5591 105.206C84.5591 104.808 84.5599 104.409 84.5587 104.01C84.557 103.546 84.6301 103.253 84.6301 102.901C84.3532 103.345 84.524 107.705 84.6787 108.491C84.8195 109.204 85.3868 110.578 85.8039 110.991C86.0713 111.256 86.7373 111.999 87.0641 112Z" fill="#928F90"/>
<path fill-rule="evenodd" clip-rule="evenodd" d="M87.3017 89.1724C87.5893 89.0656 87.456 89.1506 87.508 89.1725C87.4263 89.3103 87.5089 89.1844 87.4144 89.2818L87.27 89.4143C87.5047 89.5566 87.4255 89.699 87.4201 90.0847L87.421 92.4028C88.0448 92.4408 88.6584 92.3756 88.9192 92.5476L90.6769 92.5476C90.5878 92.4845 90.6344 92.4952 90.471 92.4457C90.3633 92.4131 90.2973 92.4077 90.1855 92.4015C89.6681 92.3747 89.4944 92.4465 88.7191 92.3636L88.7207 89.8718C88.7261 89.4089 88.7781 89.4584 88.5078 89.2426C88.6568 89.113 88.6238 89.2075 88.6576 88.9418L88.2994 88.8609C88.6213 88.7561 88.5891 88.8027 88.6613 88.5906C88.2136 88.6237 87.931 88.7681 87.5794 88.9731C87.4144 89.0697 87.4074 89.0061 87.3017 89.1724Z" fill="#9E9A9A"/>
<path fill-rule="evenodd" clip-rule="evenodd" d="M149.678 88.5395L149.694 89.9605C149.945 89.8867 149.842 89.9275 149.937 89.7509C149.973 89.8706 149.914 89.7864 149.997 89.9065C150.065 90.0055 150.037 89.9572 150.11 90.0228C150.327 89.8788 153.633 89.9539 153.897 89.9539L153.955 89.8632C153.961 89.8541 153.979 89.8281 153.986 89.8178L154.053 89.7274L154.078 88.445L153.974 88.9109L149.709 88.915L149.674 88.2581C149.665 88.2722 149.647 88.2755 149.647 88.2998C149.647 88.3246 149.63 88.3361 149.63 88.3473C149.639 88.4694 149.629 88.4145 149.678 88.5395Z" fill="#DBD9DA"/>
<path fill-rule="evenodd" clip-rule="evenodd" d="M133.551 111.502L133.86 111.555C133.92 111.388 133.891 111.496 133.949 111.415C134.061 111.261 133.962 111.496 134.072 111.254C134.061 111.248 134.039 111.234 134.035 111.247L133.726 111.313C133.78 110.846 133.796 110.547 133.795 109.988C133.794 109.754 133.804 109.518 133.787 109.285L133.789 108.652C133.154 108.652 132.779 108.546 132.388 108.29C132.189 108.16 132.075 108.02 131.943 107.821C131.796 107.601 131.835 107.573 131.757 107.374L131.656 107.176C131.81 108.793 132.149 110.227 133.335 111.359C133.466 111.484 133.454 111.466 133.551 111.503L133.551 111.502Z" fill="#868182"/>
<path fill-rule="evenodd" clip-rule="evenodd" d="M110.585 111.114C110.917 111.261 110.92 111.414 111.26 111.605C111.606 111.767 111.336 111.642 111.439 111.605C111.35 111.487 111.222 111.366 111.091 111.254C111.207 110.682 111.115 110.517 111.087 109.987C111.021 108.769 111.29 109.402 111.158 108.773C110.936 108.669 110.843 108.735 110.664 108.652C110.647 108.643 110.621 108.614 110.611 108.629C110.611 108.629 109.985 108.448 109.609 108.074C109.055 107.524 109.284 107.156 109.09 106.894C109.139 108.682 109.653 110.084 110.585 111.114Z" fill="#857E80"/>
<path fill-rule="evenodd" clip-rule="evenodd" d="M149.674 88.2581L149.709 88.915L153.974 88.9109L154.078 88.445L154.065 88.3287C154.014 88.0807 153.578 88.188 153.054 88.188C152.274 88.1888 150.049 88.0857 149.674 88.2581Z" fill="#F4F1F1"/>
<path fill-rule="evenodd" clip-rule="evenodd" d="M87.9116 108.749L90.2053 108.652C89.0739 108.652 87.9417 108.65 86.8095 108.652C86.0816 108.652 85.8695 108.68 85.3777 108.396C85.0864 108.227 84.7155 107.863 84.699 107.457C84.699 108.337 84.9172 109.027 85.2312 109.682C85.4215 110.078 85.955 111.061 86.3915 111.267C86.4117 110.731 86.363 111.041 86.2405 110.691L86.3795 110.597C86.3899 110.586 86.4068 110.57 86.4154 110.557C86.5644 110.329 86.4163 110.331 86.4134 110.328C86.2681 110.122 86.0486 110.448 86.1192 109.492C86.1427 109.172 86.2747 109.221 86.2896 109.162C86.2966 109.135 86.3238 109.14 86.3379 109.131L85.9162 109.074L86.224 108.828L87.9116 108.749Z" fill="#7E797A"/>
<path fill-rule="evenodd" clip-rule="evenodd" d="M154.053 89.7274L153.982 91.3667L153.981 92.3587C153.753 92.357 153.481 92.3405 153.26 92.3479C152.961 92.3578 153.034 92.3512 152.776 92.5472C152.932 92.8451 152.906 92.6277 152.983 92.9974C152.975 93.1443 153.364 93.6968 153.569 94.222C153.928 95.143 153.804 95.0163 153.959 95.4904L154.038 95.6707C154.038 94.6747 154.253 88.8086 154.065 88.3287L154.078 88.445L154.053 89.7274Z" fill="#928F90"/>
<path fill-rule="evenodd" clip-rule="evenodd" d="M152.49 92.4218C152.496 92.5873 152.493 92.508 152.623 92.6805C152.651 92.7181 152.728 92.8125 152.761 92.8414C152.944 93.0065 152.74 92.8699 152.983 92.9974C152.906 92.6277 152.932 92.8451 152.776 92.5472C153.034 92.3512 152.961 92.3578 153.26 92.3479C153.481 92.3405 153.753 92.357 153.981 92.3587L153.982 91.3667L153.907 91.597C153.584 91.5953 153.066 91.6613 152.919 91.6044C152.71 91.5235 152.784 91.5037 152.489 91.4732C152.143 91.4369 152.264 91.5668 152.099 91.3296C151.944 91.5029 152.073 91.2883 152.023 91.4728C152.02 91.4864 152.027 91.5784 152.026 91.6019C151.92 91.4769 151.664 91.3675 151.466 91.3205C151.642 91.729 152.087 91.8222 152.453 92.3624C152.464 92.378 152.478 92.4016 152.49 92.4218Z" fill="#A9A4A3"/>
<path fill-rule="evenodd" clip-rule="evenodd" d="M84.6119 102.816C85.0534 102.562 84.7419 102.605 85.4739 102.605C85.6459 102.514 85.5844 102.728 85.6439 102.319C85.6707 102.134 85.6092 102.081 85.6315 101.936C85.6373 101.901 85.7198 101.76 85.752 101.58C85.8205 101.197 85.9108 101.425 85.6678 101.268C85.844 101.163 85.7866 101.249 85.8683 101.011C85.7338 100.897 85.7111 100.881 85.7173 100.658C85.7681 100.967 85.6868 100.824 85.9793 100.859C85.9904 100.279 85.6884 100.595 85.9467 100.283C85.7895 100.149 86.0247 100.199 85.7152 100.275C85.5531 100.302 85.1566 101.056 85.0245 101.309C84.8781 101.59 84.6536 102.411 84.6115 102.814L84.6119 102.816Z" fill="#7D7678"/>
<path d="M63.4321 147.288C62.3654 147.288 61.4534 147.101 60.6961 146.728C59.9494 146.355 59.3467 145.869 58.8881 145.272C58.4294 144.675 58.0934 144.029 57.8801 143.336C57.6667 142.632 57.5601 141.955 57.5601 141.304V140.952C57.5601 140.248 57.6667 139.544 57.8801 138.84C58.1041 138.136 58.4454 137.496 58.9041 136.92C59.3627 136.344 59.9601 135.88 60.6961 135.528C61.4321 135.176 62.3121 135 63.3361 135C64.3814 135 65.2774 135.181 66.0241 135.544C66.7707 135.907 67.3627 136.413 67.8001 137.064C68.2374 137.715 68.5041 138.483 68.6001 139.368H67.0001C66.9147 138.707 66.7014 138.163 66.3601 137.736C66.0187 137.299 65.5867 136.973 65.0641 136.76C64.5521 136.547 63.9761 136.44 63.3361 136.44C62.6427 136.44 62.0347 136.563 61.5121 136.808C60.9894 137.043 60.5521 137.379 60.2001 137.816C59.8587 138.243 59.5974 138.739 59.4161 139.304C59.2454 139.869 59.1601 140.483 59.1601 141.144C59.1601 141.773 59.2454 142.371 59.4161 142.936C59.5974 143.501 59.8641 144.003 60.2161 144.44C60.5787 144.877 61.0267 145.224 61.5601 145.48C62.0934 145.725 62.7174 145.848 63.4321 145.848C64.4347 145.848 65.2774 145.597 65.9601 145.096C66.6427 144.595 67.0587 143.869 67.2081 142.92H68.8081C68.7014 143.72 68.4294 144.451 67.9921 145.112C67.5654 145.773 66.9681 146.301 66.2001 146.696C65.4427 147.091 64.5201 147.288 63.4321 147.288Z" fill="white"/>
<path d="M76.0228 147V144.44H75.7668V141.48C75.7668 140.893 75.6121 140.451 75.3028 140.152C75.0041 139.853 74.5615 139.704 73.9748 139.704C73.6441 139.704 73.3028 139.709 72.9508 139.72C72.5988 139.731 72.2628 139.741 71.9428 139.752C71.6228 139.763 71.3455 139.779 71.1108 139.8V138.456C71.3455 138.435 71.5908 138.419 71.8468 138.408C72.1135 138.387 72.3855 138.376 72.6628 138.376C72.9401 138.365 73.2068 138.36 73.4628 138.36C74.3375 138.36 75.0521 138.467 75.6068 138.68C76.1615 138.883 76.5721 139.219 76.8388 139.688C77.1055 140.157 77.2388 140.792 77.2388 141.592V147H76.0228ZM73.2228 147.224C72.5828 147.224 72.0281 147.117 71.5588 146.904C71.1001 146.68 70.7428 146.36 70.4868 145.944C70.2415 145.528 70.1188 145.027 70.1188 144.44C70.1188 143.832 70.2521 143.325 70.5188 142.92C70.7961 142.515 71.1961 142.211 71.7188 142.008C72.2415 141.795 72.8708 141.688 73.6068 141.688H75.9268V142.84H73.5428C72.9241 142.84 72.4495 142.989 72.1188 143.288C71.7881 143.587 71.6228 143.971 71.6228 144.44C71.6228 144.909 71.7881 145.288 72.1188 145.576C72.4495 145.864 72.9241 146.008 73.5428 146.008C73.9055 146.008 74.2521 145.944 74.5828 145.816C74.9135 145.677 75.1855 145.453 75.3988 145.144C75.6228 144.824 75.7455 144.387 75.7668 143.832L76.1828 144.44C76.1295 145.048 75.9801 145.56 75.7348 145.976C75.5001 146.381 75.1695 146.691 74.7428 146.904C74.3268 147.117 73.8201 147.224 73.2228 147.224Z" fill="white"/>
<path d="M84.5699 147.288C83.8659 147.288 83.2366 147.133 82.6819 146.824C82.1379 146.515 81.7059 146.067 81.3859 145.48C81.0659 144.883 80.8899 144.168 80.8579 143.336H81.2739V147H80.0579V135.32H81.5939V141L81.0499 142.168C81.0926 141.24 81.2793 140.483 81.6099 139.896C81.9406 139.309 82.3726 138.877 82.9059 138.6C83.4499 138.312 84.0473 138.168 84.6979 138.168C85.3059 138.168 85.8606 138.285 86.3619 138.52C86.8633 138.744 87.2953 139.059 87.6579 139.464C88.0206 139.859 88.2979 140.323 88.4899 140.856C88.6819 141.379 88.7779 141.944 88.7779 142.552V142.84C88.7779 143.448 88.6766 144.019 88.4739 144.552C88.2819 145.085 87.9993 145.56 87.6259 145.976C87.2526 146.381 86.8046 146.701 86.2819 146.936C85.7699 147.171 85.1993 147.288 84.5699 147.288ZM84.3939 145.944C84.9699 145.944 85.4713 145.805 85.8979 145.528C86.3246 145.251 86.6553 144.872 86.8899 144.392C87.1246 143.901 87.2419 143.336 87.2419 142.696C87.2419 142.056 87.1193 141.496 86.8739 141.016C86.6393 140.536 86.3086 140.168 85.8819 139.912C85.4553 139.645 84.9593 139.512 84.3939 139.512C83.8819 139.512 83.4073 139.629 82.9699 139.864C82.5326 140.088 82.1806 140.419 81.9139 140.856C81.6579 141.283 81.5299 141.8 81.5299 142.408V143.144C81.5299 143.731 81.6633 144.232 81.9299 144.648C82.1966 145.064 82.5486 145.384 82.9859 145.608C83.4233 145.832 83.8926 145.944 84.3939 145.944Z" fill="white"/>
<path d="M91.1852 147V135.32H92.7212V147H91.1852ZM90.0012 136.536V135.32H92.7212V136.536H90.0012Z" fill="white"/>
<path d="M99.2993 147.288C98.5526 147.288 97.9073 147.16 97.3633 146.904C96.8193 146.648 96.3766 146.312 96.0353 145.896C95.694 145.469 95.438 144.995 95.2673 144.472C95.1073 143.949 95.0273 143.416 95.0273 142.872V142.584C95.0273 142.029 95.1073 141.491 95.2673 140.968C95.438 140.445 95.694 139.976 96.0353 139.56C96.3766 139.133 96.8086 138.797 97.3313 138.552C97.8646 138.296 98.4886 138.168 99.2033 138.168C100.131 138.168 100.894 138.371 101.491 138.776C102.099 139.171 102.547 139.683 102.835 140.312C103.134 140.941 103.283 141.613 103.283 142.328V143.016H95.6993V141.864H102.163L101.811 142.488C101.811 141.88 101.715 141.357 101.523 140.92C101.331 140.472 101.043 140.125 100.659 139.88C100.275 139.635 99.79 139.512 99.2033 139.512C98.5953 139.512 98.0886 139.651 97.6833 139.928C97.2886 140.205 96.99 140.584 96.7873 141.064C96.5953 141.544 96.4993 142.099 96.4993 142.728C96.4993 143.336 96.5953 143.885 96.7873 144.376C96.99 144.856 97.2993 145.24 97.7153 145.528C98.1313 145.805 98.6593 145.944 99.2993 145.944C99.9713 145.944 100.515 145.795 100.931 145.496C101.358 145.197 101.614 144.851 101.699 144.456H103.139C103.022 145.043 102.787 145.549 102.435 145.976C102.083 146.403 101.641 146.728 101.107 146.952C100.574 147.176 99.9713 147.288 99.2993 147.288Z" fill="white"/>
<path d="M114.401 147.288C113.334 147.288 112.422 147.101 111.665 146.728C110.918 146.355 110.315 145.869 109.857 145.272C109.398 144.675 109.062 144.029 108.849 143.336C108.635 142.632 108.529 141.955 108.529 141.304V140.952C108.529 140.248 108.635 139.544 108.849 138.84C109.073 138.136 109.414 137.496 109.873 136.92C110.331 136.344 110.929 135.88 111.665 135.528C112.401 135.176 113.281 135 114.305 135C115.35 135 116.246 135.181 116.993 135.544C117.739 135.907 118.331 136.413 118.769 137.064C119.206 137.715 119.473 138.483 119.569 139.368H117.969C117.883 138.707 117.67 138.163 117.329 137.736C116.987 137.299 116.555 136.973 116.033 136.76C115.521 136.547 114.945 136.44 114.305 136.44C113.611 136.44 113.003 136.563 112.481 136.808C111.958 137.043 111.521 137.379 111.169 137.816C110.827 138.243 110.566 138.739 110.385 139.304C110.214 139.869 110.129 140.483 110.129 141.144C110.129 141.773 110.214 142.371 110.385 142.936C110.566 143.501 110.833 144.003 111.185 144.44C111.547 144.877 111.995 145.224 112.529 145.48C113.062 145.725 113.686 145.848 114.401 145.848C115.403 145.848 116.246 145.597 116.929 145.096C117.611 144.595 118.027 143.869 118.177 142.92H119.777C119.67 143.72 119.398 144.451 118.961 145.112C118.534 145.773 117.937 146.301 117.169 146.696C116.411 147.091 115.489 147.288 114.401 147.288Z" fill="white"/>
<path d="M121.92 147V135.32H123.456V147H121.92ZM120.736 136.536V135.32H123.456V136.536H120.736Z" fill="white"/>
<path d="M131.57 147V144.44H131.314V141.48C131.314 140.893 131.159 140.451 130.85 140.152C130.551 139.853 130.108 139.704 129.522 139.704C129.191 139.704 128.85 139.709 128.498 139.72C128.146 139.731 127.81 139.741 127.49 139.752C127.17 139.763 126.892 139.779 126.658 139.8V138.456C126.892 138.435 127.138 138.419 127.394 138.408C127.66 138.387 127.932 138.376 128.21 138.376C128.487 138.365 128.754 138.36 129.01 138.36C129.884 138.36 130.599 138.467 131.154 138.68C131.708 138.883 132.119 139.219 132.386 139.688C132.652 140.157 132.786 140.792 132.786 141.592V147H131.57ZM128.77 147.224C128.13 147.224 127.575 147.117 127.106 146.904C126.647 146.68 126.29 146.36 126.034 145.944C125.788 145.528 125.666 145.027 125.666 144.44C125.666 143.832 125.799 143.325 126.066 142.92C126.343 142.515 126.743 142.211 127.266 142.008C127.788 141.795 128.418 141.688 129.154 141.688H131.474V142.84H129.09C128.471 142.84 127.996 142.989 127.666 143.288C127.335 143.587 127.17 143.971 127.17 144.44C127.17 144.909 127.335 145.288 127.666 145.576C127.996 145.864 128.471 146.008 129.09 146.008C129.452 146.008 129.799 145.944 130.13 145.816C130.46 145.677 130.732 145.453 130.946 145.144C131.17 144.824 131.292 144.387 131.314 143.832L131.73 144.44C131.676 145.048 131.527 145.56 131.282 145.976C131.047 146.381 130.716 146.691 130.29 146.904C129.874 147.117 129.367 147.224 128.77 147.224Z" fill="white"/>
<path d="M135.605 147V138.456H136.821V142.12H136.629C136.629 141.288 136.735 140.584 136.949 140.008C137.173 139.421 137.503 138.973 137.941 138.664C138.378 138.355 138.933 138.2 139.605 138.2H139.669C140.341 138.2 140.895 138.355 141.333 138.664C141.781 138.973 142.111 139.421 142.325 140.008C142.538 140.584 142.645 141.288 142.645 142.12H142.197C142.197 141.288 142.309 140.584 142.533 140.008C142.757 139.421 143.087 138.973 143.525 138.664C143.973 138.355 144.533 138.2 145.205 138.2H145.269C145.941 138.2 146.501 138.355 146.949 138.664C147.397 138.973 147.727 139.421 147.941 140.008C148.165 140.584 148.277 141.288 148.277 142.12V147H146.741V141.784C146.741 141.091 146.57 140.557 146.229 140.184C145.887 139.8 145.413 139.608 144.805 139.608C144.175 139.608 143.669 139.811 143.285 140.216C142.901 140.611 142.709 141.165 142.709 141.88V147H141.173V141.784C141.173 141.091 141.002 140.557 140.661 140.184C140.319 139.8 139.845 139.608 139.237 139.608C138.607 139.608 138.101 139.811 137.717 140.216C137.333 140.611 137.141 141.165 137.141 141.88V147H135.605Z" fill="white"/>
<path d="M151.089 150.2V138.456H152.305V142.152L152.017 142.12C152.071 141.203 152.263 140.456 152.593 139.88C152.935 139.293 153.377 138.861 153.921 138.584C154.465 138.307 155.057 138.168 155.697 138.168C156.316 138.168 156.876 138.285 157.377 138.52C157.889 138.755 158.327 139.075 158.689 139.48C159.052 139.885 159.329 140.355 159.521 140.888C159.713 141.421 159.809 141.987 159.809 142.584V142.872C159.809 143.469 159.708 144.035 159.505 144.568C159.303 145.101 159.015 145.571 158.641 145.976C158.279 146.381 157.841 146.701 157.329 146.936C156.828 147.171 156.273 147.288 155.665 147.288C155.057 147.288 154.476 147.155 153.921 146.888C153.367 146.621 152.908 146.189 152.545 145.592C152.183 144.995 151.975 144.211 151.921 143.24L152.625 144.52V150.2H151.089ZM155.425 145.944C156.001 145.944 156.503 145.811 156.929 145.544C157.356 145.267 157.687 144.888 157.921 144.408C158.156 143.917 158.273 143.357 158.273 142.728C158.273 142.088 158.156 141.528 157.921 141.048C157.687 140.568 157.356 140.195 156.929 139.928C156.503 139.651 156.001 139.512 155.425 139.512C154.913 139.512 154.439 139.629 154.001 139.864C153.564 140.088 153.212 140.419 152.945 140.856C152.689 141.283 152.561 141.8 152.561 142.408V143.144C152.561 143.731 152.695 144.232 152.961 144.648C153.228 145.064 153.58 145.384 154.017 145.608C154.455 145.832 154.924 145.944 155.425 145.944Z" fill="white"/>
<path d="M164.92 147.256C163.8 147.256 162.931 147.016 162.312 146.536C161.704 146.056 161.39 145.4 161.368 144.568H162.808C162.83 144.899 162.995 145.213 163.304 145.512C163.624 145.8 164.163 145.944 164.92 145.944C165.603 145.944 166.126 145.811 166.488 145.544C166.851 145.267 167.032 144.931 167.032 144.536C167.032 144.184 166.899 143.912 166.632 143.72C166.366 143.517 165.934 143.384 165.336 143.32L164.408 143.224C163.598 143.139 162.936 142.899 162.424 142.504C161.912 142.099 161.656 141.533 161.656 140.808C161.656 140.264 161.795 139.8 162.072 139.416C162.35 139.021 162.734 138.723 163.224 138.52C163.715 138.307 164.28 138.2 164.92 138.2C165.88 138.2 166.659 138.413 167.256 138.84C167.854 139.267 168.163 139.901 168.184 140.744H166.744C166.734 140.403 166.574 140.115 166.264 139.88C165.966 139.635 165.518 139.512 164.92 139.512C164.323 139.512 163.87 139.635 163.56 139.88C163.251 140.125 163.096 140.435 163.096 140.808C163.096 141.128 163.203 141.384 163.416 141.576C163.64 141.768 164.003 141.891 164.504 141.944L165.432 142.04C166.35 142.136 167.086 142.392 167.64 142.808C168.195 143.213 168.472 143.789 168.472 144.536C168.472 145.069 168.318 145.544 168.008 145.96C167.71 146.365 167.294 146.685 166.76 146.92C166.227 147.144 165.614 147.256 164.92 147.256Z" fill="white"/>
<path d="M179.507 147V144.44H179.251V141.48C179.251 140.893 179.097 140.451 178.787 140.152C178.489 139.853 178.046 139.704 177.459 139.704C177.129 139.704 176.787 139.709 176.435 139.72C176.083 139.731 175.747 139.741 175.427 139.752C175.107 139.763 174.83 139.779 174.595 139.8V138.456C174.83 138.435 175.075 138.419 175.331 138.408C175.598 138.387 175.87 138.376 176.147 138.376C176.425 138.365 176.691 138.36 176.947 138.36C177.822 138.36 178.537 138.467 179.091 138.68C179.646 138.883 180.057 139.219 180.323 139.688C180.59 140.157 180.723 140.792 180.723 141.592V147H179.507ZM176.707 147.224C176.067 147.224 175.513 147.117 175.043 146.904C174.585 146.68 174.227 146.36 173.971 145.944C173.726 145.528 173.603 145.027 173.603 144.44C173.603 143.832 173.737 143.325 174.003 142.92C174.281 142.515 174.681 142.211 175.203 142.008C175.726 141.795 176.355 141.688 177.091 141.688H179.411V142.84H177.027C176.409 142.84 175.934 142.989 175.603 143.288C175.273 143.587 175.107 143.971 175.107 144.44C175.107 144.909 175.273 145.288 175.603 145.576C175.934 145.864 176.409 146.008 177.027 146.008C177.39 146.008 177.737 145.944 178.067 145.816C178.398 145.677 178.67 145.453 178.883 145.144C179.107 144.824 179.23 144.387 179.251 143.832L179.667 144.44C179.614 145.048 179.465 145.56 179.219 145.976C178.985 146.381 178.654 146.691 178.227 146.904C177.811 147.117 177.305 147.224 176.707 147.224Z" fill="white"/>
<path d="M183.542 147V138.456H184.758V142.12H184.566C184.566 141.277 184.678 140.568 184.902 139.992C185.137 139.405 185.489 138.963 185.958 138.664C186.428 138.355 187.02 138.2 187.734 138.2H187.798C188.876 138.2 189.67 138.536 190.182 139.208C190.705 139.88 190.966 140.851 190.966 142.12V147H189.43V141.8C189.43 141.139 189.244 140.611 188.87 140.216C188.497 139.811 187.985 139.608 187.334 139.608C186.662 139.608 186.118 139.816 185.702 140.232C185.286 140.648 185.078 141.203 185.078 141.896V147H183.542Z" fill="white"/>
<path d="M197.345 147.288C196.737 147.288 196.177 147.176 195.665 146.952C195.153 146.728 194.705 146.413 194.321 146.008C193.947 145.603 193.654 145.133 193.441 144.6C193.238 144.067 193.137 143.491 193.137 142.872V142.584C193.137 141.976 193.238 141.405 193.441 140.872C193.643 140.339 193.926 139.869 194.289 139.464C194.662 139.059 195.099 138.744 195.601 138.52C196.113 138.285 196.678 138.168 197.297 138.168C197.947 138.168 198.539 138.307 199.073 138.584C199.606 138.851 200.043 139.272 200.385 139.848C200.726 140.424 200.918 141.171 200.961 142.088L200.321 141.064V135.32H201.857V147H200.641V143.208H201.089C201.046 144.179 200.843 144.968 200.481 145.576C200.118 146.173 199.659 146.611 199.105 146.888C198.561 147.155 197.974 147.288 197.345 147.288ZM197.553 145.944C198.075 145.944 198.55 145.827 198.977 145.592C199.403 145.357 199.745 145.021 200.001 144.584C200.257 144.136 200.385 143.613 200.385 143.016V142.28C200.385 141.693 200.251 141.197 199.985 140.792C199.729 140.376 199.382 140.061 198.945 139.848C198.518 139.624 198.049 139.512 197.537 139.512C196.971 139.512 196.47 139.645 196.033 139.912C195.606 140.179 195.27 140.552 195.025 141.032C194.79 141.512 194.673 142.077 194.673 142.728C194.673 143.379 194.795 143.949 195.041 144.44C195.286 144.92 195.627 145.293 196.065 145.56C196.502 145.816 196.998 145.944 197.553 145.944Z" fill="white"/>
<path d="M110.955 167.288C109.889 167.288 108.977 167.101 108.219 166.728C107.473 166.355 106.87 165.869 106.411 165.272C105.953 164.675 105.617 164.029 105.404 163.336C105.19 162.632 105.084 161.955 105.084 161.304V160.952C105.084 160.248 105.19 159.544 105.404 158.84C105.628 158.136 105.969 157.496 106.427 156.92C106.886 156.344 107.483 155.88 108.219 155.528C108.955 155.176 109.835 155 110.859 155C111.905 155 112.801 155.181 113.548 155.544C114.294 155.907 114.886 156.413 115.324 157.064C115.761 157.715 116.028 158.483 116.124 159.368H114.523C114.438 158.707 114.225 158.163 113.883 157.736C113.542 157.299 113.11 156.973 112.588 156.76C112.076 156.547 111.499 156.44 110.859 156.44C110.166 156.44 109.558 156.563 109.035 156.808C108.513 157.043 108.076 157.379 107.724 157.816C107.382 158.243 107.121 158.739 106.939 159.304C106.769 159.869 106.684 160.483 106.684 161.144C106.684 161.773 106.769 162.371 106.939 162.936C107.121 163.501 107.388 164.003 107.74 164.44C108.102 164.877 108.55 165.224 109.084 165.48C109.617 165.725 110.241 165.848 110.955 165.848C111.958 165.848 112.801 165.597 113.483 165.096C114.166 164.595 114.582 163.869 114.731 162.92H116.331C116.225 163.72 115.953 164.451 115.516 165.112C115.089 165.773 114.492 166.301 113.724 166.696C112.966 167.091 112.043 167.288 110.955 167.288Z" fill="white"/>
<path d="M118.474 167V155.32H120.01V167H118.474ZM117.29 156.536V155.32H120.01V156.536H117.29Z" fill="white"/>
<path d="M126.588 167.288C125.842 167.288 125.196 167.16 124.652 166.904C124.108 166.648 123.666 166.312 123.324 165.896C122.983 165.469 122.727 164.995 122.556 164.472C122.396 163.949 122.316 163.416 122.316 162.872V162.584C122.316 162.029 122.396 161.491 122.556 160.968C122.727 160.445 122.983 159.976 123.324 159.56C123.666 159.133 124.098 158.797 124.62 158.552C125.154 158.296 125.778 158.168 126.492 158.168C127.42 158.168 128.183 158.371 128.78 158.776C129.388 159.171 129.836 159.683 130.124 160.312C130.423 160.941 130.572 161.613 130.572 162.328V163.016H122.988V161.864H129.452L129.1 162.488C129.1 161.88 129.004 161.357 128.812 160.92C128.62 160.472 128.332 160.125 127.948 159.88C127.564 159.635 127.079 159.512 126.492 159.512C125.884 159.512 125.378 159.651 124.972 159.928C124.578 160.205 124.279 160.584 124.076 161.064C123.884 161.544 123.788 162.099 123.788 162.728C123.788 163.336 123.884 163.885 124.076 164.376C124.279 164.856 124.588 165.24 125.004 165.528C125.42 165.805 125.948 165.944 126.588 165.944C127.26 165.944 127.804 165.795 128.22 165.496C128.647 165.197 128.903 164.851 128.988 164.456H130.428C130.311 165.043 130.076 165.549 129.724 165.976C129.372 166.403 128.93 166.728 128.396 166.952C127.863 167.176 127.26 167.288 126.588 167.288Z" fill="white"/>
<path d="M137.921 167V164.44H137.665V161.48C137.665 160.893 137.511 160.451 137.201 160.152C136.903 159.853 136.46 159.704 135.873 159.704C135.543 159.704 135.201 159.709 134.849 159.72C134.497 159.731 134.161 159.741 133.841 159.752C133.521 159.763 133.244 159.779 133.009 159.8V158.456C133.244 158.435 133.489 158.419 133.745 158.408C134.012 158.387 134.284 158.376 134.561 158.376C134.839 158.365 135.105 158.36 135.361 158.36C136.236 158.36 136.951 158.467 137.505 158.68C138.06 158.883 138.471 159.219 138.737 159.688C139.004 160.157 139.137 160.792 139.137 161.592V167H137.921ZM135.121 167.224C134.481 167.224 133.927 167.117 133.457 166.904C132.999 166.68 132.641 166.36 132.385 165.944C132.14 165.528 132.017 165.027 132.017 164.44C132.017 163.832 132.151 163.325 132.417 162.92C132.695 162.515 133.095 162.211 133.617 162.008C134.14 161.795 134.769 161.688 135.505 161.688H137.825V162.84H135.441C134.823 162.84 134.348 162.989 134.017 163.288C133.687 163.587 133.521 163.971 133.521 164.44C133.521 164.909 133.687 165.288 134.017 165.576C134.348 165.864 134.823 166.008 135.441 166.008C135.804 166.008 136.151 165.944 136.481 165.816C136.812 165.677 137.084 165.453 137.297 165.144C137.521 164.824 137.644 164.387 137.665 163.832L138.081 164.44C138.028 165.048 137.879 165.56 137.633 165.976C137.399 166.381 137.068 166.691 136.641 166.904C136.225 167.117 135.719 167.224 135.121 167.224Z" fill="white"/>
<path d="M145.284 167.096C144.644 167.096 144.09 167.005 143.62 166.824C143.162 166.643 142.804 166.333 142.548 165.896C142.303 165.448 142.18 164.845 142.18 164.088V155.864H143.652V164.28C143.652 164.739 143.775 165.096 144.02 165.352C144.276 165.597 144.634 165.72 145.092 165.72H146.596V167.096H145.284ZM140.708 159.608V158.456H146.596V159.608H140.708Z" fill="white"/>
<path d="M151.506 167.256C150.386 167.256 149.517 167.016 148.898 166.536C148.29 166.056 147.976 165.4 147.954 164.568H149.394C149.416 164.899 149.581 165.213 149.89 165.512C150.21 165.8 150.749 165.944 151.506 165.944C152.189 165.944 152.712 165.811 153.074 165.544C153.437 165.267 153.618 164.931 153.618 164.536C153.618 164.184 153.485 163.912 153.218 163.72C152.952 163.517 152.52 163.384 151.922 163.32L150.994 163.224C150.184 163.139 149.522 162.899 149.01 162.504C148.498 162.099 148.242 161.533 148.242 160.808C148.242 160.264 148.381 159.8 148.658 159.416C148.936 159.021 149.32 158.723 149.81 158.52C150.301 158.307 150.866 158.2 151.506 158.2C152.466 158.2 153.245 158.413 153.842 158.84C154.44 159.267 154.749 159.901 154.77 160.744H153.33C153.32 160.403 153.16 160.115 152.85 159.88C152.552 159.635 152.104 159.512 151.506 159.512C150.909 159.512 150.456 159.635 150.146 159.88C149.837 160.125 149.682 160.435 149.682 160.808C149.682 161.128 149.789 161.384 150.002 161.576C150.226 161.768 150.589 161.891 151.09 161.944L152.018 162.04C152.936 162.136 153.672 162.392 154.226 162.808C154.781 163.213 155.058 163.789 155.058 164.536C155.058 165.069 154.904 165.544 154.594 165.96C154.296 166.365 153.88 166.685 153.346 166.92C152.813 167.144 152.2 167.256 151.506 167.256Z" fill="white"/>
</svg>
