<?xml version="1.0" encoding="UTF-8"?>
<!DOCTYPE svg PUBLIC "-//W3C//DTD SVG 1.1//EN" "http://www.w3.org/Graphics/SVG/1.1/DTD/svg11.dtd">
<!-- Creator: CorelDRAW 2019 (64-Bit) -->
<svg xmlns="http://www.w3.org/2000/svg" xml:space="preserve" width="3.17491in" height="0.576539in" version="1.1" style="shape-rendering:geometricPrecision; text-rendering:geometricPrecision; image-rendering:optimizeQuality; fill-rule:evenodd; clip-rule:evenodd"
viewBox="0 0 971.28 176.38"
 xmlns:xlink="http://www.w3.org/1999/xlink"
 xmlns:xodm="http://www.corel.com/coreldraw/odm/2003">
 <defs>
  <style type="text/css">
   <![CDATA[
    .fil0 {fill:#303C7B}
   ]]>
  </style>
 </defs>
 <g id="Layer_x0020_1">
  <metadata id="CorelCorpID_0Corel-Layer"/>
  <g id="_2163221414336">
   <path class="fil0" d="M912.62 169.96c0.04,0.51 0.08,0.8 0.09,1.1 0.09,4.12 -0.34,4.63 -4.51,5.1 -2.41,0.27 -4.83,0.39 -7.21,-0.32 -3.12,-0.92 -5.26,-2.9 -6.28,-6 -1.06,-3.21 -1.02,-6.46 0.16,-9.61 1.71,-4.58 5.93,-6.98 11.33,-6.59 4.06,0.29 7.13,2.96 8.09,7.14 0.35,1.54 0.33,3.12 0.4,4.69 0.05,1.13 -0.34,1.45 -1.45,1.44 -3.75,-0.06 -7.51,0.04 -11.26,-0.05 -1.43,-0.03 -1.47,0.47 -1.07,1.58 0.71,1.96 2.19,2.83 4.12,3.04 2.63,0.28 5.17,-0.05 7.59,-1.51zm-128.71 6.41c-2.17,0.02 -3.84,-1.45 -3.91,-3.44 -0.07,-2.03 1.64,-3.61 3.91,-3.62 2.19,-0.01 3.84,1.45 3.89,3.44 0.05,2.08 -1.58,3.59 -3.89,3.62zm155.03 0c-2.24,0.04 -4,-1.54 -3.97,-3.57 0.02,-1.94 1.71,-3.45 3.9,-3.48 2.18,-0.03 3.87,1.43 3.94,3.4 0.07,2.07 -1.56,3.61 -3.87,3.66zm-220.63 -11.46c0,-3.15 0.04,-6.29 -0.02,-9.43 -0.02,-1.05 0.17,-1.55 1.37,-1.45 1.67,0.14 3.86,-0.51 4.9,0.33 1.12,0.9 0.33,3.17 0.35,4.83 0.05,5.08 -0.01,10.16 0.04,15.24 0.01,1.09 -0.22,1.51 -1.38,1.42 -1.68,-0.13 -3.88,0.54 -4.91,-0.3 -1.09,-0.88 -0.28,-3.17 -0.33,-4.83 -0.06,-1.93 -0.01,-3.87 -0.01,-5.8zm207.14 -7.13c1.32,-2.79 3.13,-4.16 5.86,-4.11 0.94,0.01 1.45,0.29 1.39,1.37 -0.08,1.62 -0.02,3.25 -0.02,4.93 -0.39,-0.08 -0.62,-0.12 -0.86,-0.18 -3.94,-0.92 -6.36,0.92 -6.47,5.02 -0.08,3.21 -0.08,6.42 0,9.62 0.03,1.12 -0.27,1.52 -1.41,1.4 -1.73,-0.18 -3.99,0.72 -5.05,-0.37 -0.83,-0.85 -0.24,-3.1 -0.25,-4.73 -0.01,-5.02 0.03,-10.05 -0.03,-15.07 -0.01,-1.22 0.27,-1.82 1.59,-1.64 0.53,0.08 1.09,0.01 1.63,0.01 3.34,0 3.34,0 3.6,3.74zm-83.24 -0.33c1.14,-2.38 2.88,-3.77 5.51,-3.78 1.05,-0.01 1.72,0.2 1.62,1.52 -0.12,1.56 -0.03,3.14 -0.03,4.8 -0.45,-0.1 -0.79,-0.17 -1.12,-0.25 -3.54,-0.83 -5.99,0.93 -6.15,4.61 -0.14,3.32 -0.11,6.66 -0.04,9.98 0.02,1.19 -0.31,1.6 -1.51,1.5 -1.68,-0.13 -3.88,0.52 -4.91,-0.32 -1.09,-0.89 -0.32,-3.18 -0.33,-4.85 -0.05,-4.9 0.06,-9.81 -0.06,-14.71 -0.04,-1.67 0.5,-2.18 2.04,-1.93 0.3,0.05 0.6,0 0.91,0.01 1.15,0.02 2.47,-0.32 3.4,0.14 1.09,0.54 0.07,2.09 0.69,3.26zm18.42 -9.93c0,1.91 0.04,3.66 -0.02,5.41 -0.03,0.89 0.28,1.23 1.14,1.12 0.06,-0.01 0.12,-0 0.18,0 3.75,0.12 3.71,0.12 3.57,3.83 -0.04,0.97 -0.36,1.19 -1.27,1.21 -3.6,0.1 -3.6,0.13 -3.6,3.7 0,1.7 -0.04,3.39 0.01,5.09 0.09,2.71 1.2,3.66 3.8,3.12 0.87,-0.18 0.99,-0.04 1.05,0.76 0.3,4.04 -0.17,4.58 -4.2,4.62 -4.77,0.05 -7.19,-2.29 -7.25,-7.06 -0.04,-2.91 -0.05,-5.82 0.01,-8.72 0.02,-1.09 -0.15,-1.77 -1.44,-1.52 -1.75,0.33 -2.45,-0.36 -2.14,-2.13 0.07,-0.41 0.06,-0.85 0,-1.27 -0.17,-1.23 0.25,-1.86 1.57,-1.62 1.72,0.32 2.3,-0.47 1.98,-2.05 -0.43,-2.08 0.45,-3.06 2.48,-3.38 1.35,-0.21 2.65,-0.69 4.13,-1.09zm-176.93 -0.04c0,1.91 0.07,3.61 -0.02,5.29 -0.06,1.07 0.36,1.28 1.34,1.29 3.69,0.04 3.98,0.47 3.49,4.2 -0.11,0.82 -0.53,0.76 -1.09,0.8 -1.19,0.07 -2.76,-0.55 -3.47,0.26 -0.76,0.86 -0.19,2.43 -0.23,3.68 -0.04,1.33 -0.01,2.66 -0.01,4 0.01,3.9 0.93,4.65 4.78,3.8 0,0.63 0,1.22 0,1.82 0,3.48 0,3.48 -3.57,3.71 -5.07,0.33 -7.66,-1.92 -7.85,-6.98 -0.11,-2.9 -0.1,-5.82 -0.01,-8.72 0.04,-1.27 -0.33,-1.83 -1.6,-1.58 -1.67,0.33 -2.15,-0.43 -1.9,-1.96 0.06,-0.35 0.06,-0.73 0,-1.09 -0.24,-1.51 0.21,-2.31 1.9,-1.98 1.28,0.25 1.63,-0.32 1.61,-1.58 -0.06,-3.09 0.01,-3.09 2.93,-3.92 1.16,-0.33 2.31,-0.66 3.71,-1.05zm110.65 19.95c0,-2.36 -0.05,-4.73 0.02,-7.09 0.03,-1.04 -0.3,-1.49 -1.31,-1.28 -2.09,0.42 -2.66,-0.55 -2.34,-2.44 0.07,-0.41 0.06,-0.85 0,-1.27 -0.13,-1.02 0.25,-1.51 1.3,-1.3 2.08,0.42 2.45,-0.54 2.38,-2.44 -0.28,-6.91 6.05,-9.41 11.42,-8.24 0.69,0.15 0.89,0.49 0.86,1.12 -0.03,0.54 -0,1.09 -0,1.64 0,2.31 0,2.29 -2.23,2.18 -1.2,-0.06 -2.35,0.17 -2.98,1.33 -0.7,1.28 -0.65,2.72 -0.42,4.09 0.1,0.58 0.96,0.3 1.47,0.31 3.45,0.06 3.37,0.05 3.46,3.4 0.04,1.45 -0.48,1.68 -1.76,1.65 -3.25,-0.07 -3.26,-0.01 -3.26,3.31 0,3.88 -0.05,7.76 0.03,11.63 0.03,1.32 -0.18,1.99 -1.72,1.82 -1.55,-0.17 -3.65,0.5 -4.56,-0.29 -1.05,-0.92 -0.26,-3.07 -0.34,-4.67 -0.06,-1.15 -0.01,-2.3 -0.01,-3.45zm-57.01 -10.03c2.31,-3.45 5.37,-4.35 8.91,-3.63 2.91,0.59 4.35,2.72 4.8,5.51 0.73,4.46 0.22,8.95 0.33,13.44 0.07,3.1 0.01,3.1 -3.12,3.1 -3.52,0 -3.51,0 -3.53,-3.62 -0.01,-3.15 0.06,-6.31 -0.11,-9.45 -0.15,-2.78 -1.37,-4.05 -3.45,-4.04 -2.18,0.01 -3.87,1.8 -3.92,4.39 -0.08,3.7 -0.1,7.4 0.01,11.1 0.04,1.43 -0.42,1.78 -1.73,1.63 -1.61,-0.18 -3.77,0.68 -4.69,-0.36 -0.79,-0.89 -0.25,-3 -0.25,-4.56 -0.01,-5.09 0.04,-10.19 -0.03,-15.28 -0.02,-1.27 0.34,-1.77 1.62,-1.6 0.6,0.08 1.21,0.01 1.82,0.01 3.1,0 3.1,0 3.34,3.36zm85.4 15.41c-1.38,1.75 -2.82,2.99 -4.84,3.37 -4.94,0.94 -8.66,-1.7 -8.93,-6.71 -0.26,-4.77 -0.11,-9.57 -0.18,-14.35 -0.01,-0.92 0.38,-1.14 1.2,-1.09 1.74,0.11 3.95,-0.69 5.1,0.3 1.1,0.95 0.3,3.19 0.34,4.86 0.07,2.6 -0.01,5.21 0.03,7.81 0.05,2.67 1.2,4.06 3.32,4.14 2.37,0.09 3.94,-1.24 4.06,-3.88 0.17,-3.87 0.14,-7.75 0.09,-11.63 -0.02,-1.26 0.32,-1.75 1.62,-1.62 1.61,0.16 3.71,-0.65 4.73,0.31 1.04,0.98 0.31,3.09 0.33,4.7 0.05,5.09 -0.01,10.18 0.04,15.27 0.01,1.13 -0.2,1.71 -1.46,1.53 -0.65,-0.09 -1.33,-0.02 -2,-0.02 -3.03,0 -3.03,0 -3.44,-3.01zm-59.02 -9.16c1.78,-2.78 3.59,-5.54 5.31,-8.36 0.57,-0.93 1.2,-1.34 2.32,-1.28 1.99,0.09 3.99,0.03 6.03,0.03 0.1,0.89 -0.61,1.31 -1.01,1.85 -1.75,2.39 -3.52,4.78 -5.37,7.1 -0.76,0.94 -0.86,1.58 -0.07,2.61 2.14,2.78 4.13,5.68 6.16,8.55 0.33,0.46 0.85,0.85 0.88,1.68 -2.38,0 -4.72,-0.02 -7.06,0.01 -0.79,0.01 -0.98,-0.61 -1.29,-1.09 -1.96,-3.05 -3.91,-6.12 -6.21,-9.18 0,2.17 0,4.35 0,6.52 0,3.74 0,3.74 -3.76,3.74 -2.96,0 -2.96,0 -2.96,-2.92 0,-9.15 0.03,-18.3 -0.03,-27.46 -0.01,-1.4 0.32,-1.97 1.8,-1.82 1.56,0.15 3.65,-0.49 4.58,0.3 1.08,0.93 0.33,3.07 0.35,4.69 0.05,4.42 0.02,8.85 0.02,13.27 0,0.57 0,1.14 0,1.71 0.11,0.02 0.22,0.04 0.32,0.07zm112.19 -6.36c2.06,-2.71 4.4,-3.92 7.44,-3.71 3.27,0.23 5.62,1.98 6.21,5.34 0.94,5.35 0.26,10.77 0.43,16.15 0.02,0.55 -0.24,0.77 -0.77,0.74 -0.18,-0.01 -0.36,0.01 -0.55,0 -1.74,-0.1 -3.97,0.72 -5.09,-0.31 -1.04,-0.97 -0.27,-3.21 -0.31,-4.9 -0.06,-2.61 0.02,-5.22 -0.06,-7.82 -0.08,-2.65 -1.19,-3.99 -3.18,-4.08 -2.1,-0.09 -3.81,1.37 -4.03,3.85 -0.22,2.47 -0.09,4.96 -0.11,7.45 -0,0.24 0,0.49 0,0.73 0,5.62 0,5.59 -5.68,5.11 -0.87,-0.07 -0.94,-0.44 -0.94,-1.12 0.01,-10 0.02,-20.01 -0.01,-30.01 -0,-0.93 0.37,-1.12 1.18,-1.09 1.75,0.07 3.98,-0.55 5.11,0.31 1.09,0.82 0.29,3.18 0.33,4.86 0.06,2.67 0.02,5.33 0.02,8.5zm-176.93 -0.05c1.87,-2.38 3.77,-3.63 6.35,-3.67 4.38,-0.07 7.17,2.11 7.43,6.47 0.3,4.95 0.13,9.94 0.18,14.91 0.01,0.59 -0.15,0.93 -0.81,0.87 -0.18,-0.02 -0.36,0 -0.55,-0 -1.69,-0.03 -3.89,0.56 -4.92,-0.28 -1.09,-0.88 -0.3,-3.17 -0.33,-4.85 -0.06,-2.55 0.02,-5.09 -0.03,-7.64 -0.05,-2.82 -1.22,-4.3 -3.34,-4.34 -2.28,-0.04 -3.93,1.76 -3.97,4.48 -0.05,3.7 -0.05,7.4 0,11.1 0.02,1.11 -0.17,1.66 -1.45,1.56 -1.68,-0.14 -3.89,0.54 -4.94,-0.3 -1.11,-0.89 -0.33,-3.18 -0.34,-4.86 -0.04,-8.42 0.02,-16.85 -0.05,-25.28 -0.01,-1.46 0.42,-1.92 1.84,-1.79 1.56,0.14 3.6,-0.47 4.58,0.32 1.04,0.84 0.3,2.96 0.33,4.51 0.06,2.76 0.02,5.53 0.02,8.8zm201.72 5.48c0.27,-2.5 1.45,-4.13 3.31,-4.52 2.85,-0.61 4.75,1.77 4.67,4.43 -2.64,-0.01 -5.32,0.09 -7.98,0.09z"/>
   <path class="fil0" d="M720.2 129.21c-9.34,0 -18.68,0.07 -28.02,-0.02 -6.98,-0.07 -13.9,-0.73 -20.71,-2.44 -14.8,-3.72 -23.49,-13.2 -26.66,-27.99 -1.2,-5.6 -1.72,-11.26 -1.75,-16.97 -0.06,-11.1 -0.06,-22.19 0,-33.29 0.04,-6.38 0.63,-12.71 2.23,-18.9 3.72,-14.39 13.13,-22.85 27.4,-26.23 5.92,-1.4 11.94,-2.14 18.01,-2.16 21.1,-0.06 42.21,-0.08 63.31,0.01 6.86,0.03 13.64,0.91 20.28,2.79 14.24,4.02 22.56,13.4 25.52,27.78 1.14,5.55 1.64,11.16 1.64,16.8 0,12.92 0.3,25.83 -0.21,38.75 -0.22,5.46 -1.06,10.85 -2.67,16.09 -3.87,12.6 -12.57,20.03 -25.12,23.27 -6.91,1.79 -13.96,2.46 -21.06,2.51 -10.73,0.09 -21.47,0.02 -32.2,0.02zm1.49 14.57c2.28,0 3.86,1.41 3.85,3.43 -0.01,1.99 -1.66,3.48 -3.85,3.48 -2.19,-0 -3.8,-1.47 -3.81,-3.49 -0.01,-2.06 1.5,-3.42 3.81,-3.41zm141.16 -14.55c-16.8,0 -33.6,0 -50.39,-0 -4.73,0 -6.3,-1.59 -6.31,-6.36 -0,-4.91 -0,-9.82 0,-14.74 0,-4.84 1.6,-6.45 6.43,-6.45 30.32,-0 60.64,-0 90.96,-0 0.54,0 1.09,0 1.64,0 6.3,-0.04 8.54,-2.14 8.75,-8.46 0.1,-3.21 0.2,-6.43 -0.13,-9.63 -0.42,-4.16 -2.61,-6.34 -6.77,-6.69 -0.78,-0.07 -1.58,-0.04 -2.36,-0.04 -21.89,-0 -43.78,-0.01 -65.68,0 -4.57,0 -9.06,-0.44 -13.45,-1.78 -9.41,-2.87 -15.65,-9.08 -17.94,-18.54 -2.69,-11.13 -2.59,-22.57 -0.45,-33.73 2.25,-11.71 10.8,-19.03 22.56,-20.92 3.18,-0.51 6.37,-0.74 9.59,-0.74 31.35,0.01 62.7,0 94.06,0.01 4.51,0 5.9,1.37 5.91,5.83 0.01,5.21 0.01,10.43 0,15.65 -0.01,4.48 -1.51,5.99 -6.02,5.99 -29.05,0.01 -58.1,0 -87.14,0.01 -1.15,0 -2.3,0.04 -3.45,0.13 -3.83,0.31 -5.99,2.31 -6.41,6.15 -0.41,3.68 -0.4,7.39 -0,11.08 0.41,3.78 2.81,5.95 6.65,6.15 1.39,0.07 2.79,0.05 4.18,0.05 21.1,0 42.21,0 63.31,0 4.44,0 8.85,0.32 13.14,1.53 11.18,3.15 17.48,10.72 19.68,21.93 1.18,6.01 0.67,12.09 0.73,18.14 0.04,4.12 0.16,8.23 -0.65,12.32 -2.47,12.46 -10.92,20.54 -23.52,22.41 -3.19,0.47 -6.38,0.71 -9.6,0.71 -15.77,-0.02 -31.53,-0.01 -47.3,-0.01zm-590.03 -42.89c4.17,5.17 8.21,10.17 12.21,15.19 0.52,0.65 1.11,0.79 1.88,0.78 10.55,-0.02 21.11,-0.03 31.66,0.02 1.17,0 1.67,-0.46 2.19,-1.41 7.07,-13.03 14.18,-26.03 21.29,-39.05 8.35,-15.29 16.7,-30.59 25.05,-45.89 1.6,-2.93 3.37,-5.75 5.54,-8.3 3.63,-4.28 8.29,-6.47 13.85,-6.49 5.33,-0.03 10.67,-0.4 15.99,0.29 5.38,0.7 9.68,3.28 13,7.54 1.72,2.2 3.19,4.56 4.54,7 15.5,28.15 31.02,56.28 46.46,84.45 0.8,1.45 1.65,1.9 3.23,1.85 4.12,-0.11 8.25,-0.13 12.37,0 1.82,0.06 2.4,-0.34 2.4,-2.31 -0.08,-26.02 -0.05,-52.03 -0.05,-78.05 0,-2.61 0.1,-5.21 0.55,-7.79 1.46,-8.36 5.25,-12.3 13.72,-12.84 8.46,-0.54 16.97,-0.44 25.45,0.07 4.77,0.29 8.52,2.52 11.56,6.09 4.71,5.55 8.94,11.47 13.35,17.25 18.87,24.71 37.7,49.45 56.54,74.17 0.22,0.29 0.45,0.57 0.66,0.87 0.64,0.93 1.64,0.81 2.48,0.63 0.9,-0.19 0.47,-1.11 0.47,-1.68 0.02,-30.32 0.02,-60.64 0.02,-90.97 0,-0.79 -0.03,-1.58 0.08,-2.36 0.38,-2.81 1.89,-4.22 4.74,-4.24 6.55,-0.05 13.1,-0.05 19.65,-0 3.06,0.02 4.67,1.64 4.87,4.7 0.03,0.48 0.02,0.97 0.02,1.45 0,33.84 0,67.68 0,101.52 0,3.16 -0.18,6.3 -0.95,9.38 -1.6,6.38 -5.44,9.78 -11.99,10.66 -1.81,0.24 -3.62,0.37 -5.44,0.34 -6.73,-0.13 -13.46,0.2 -20.19,-0.24 -5.31,-0.34 -9.51,-2.67 -12.78,-6.73 -3.42,-4.25 -6.75,-8.57 -10.06,-12.9 -19.81,-25.9 -39.6,-51.81 -59.4,-77.71 -0.3,-0.38 -0.62,-0.75 -0.92,-1.12 -0.69,-0.84 -1.67,-0.8 -2.51,-0.56 -0.85,0.24 -0.43,1.15 -0.43,1.75 -0.02,30.2 -0.02,60.4 -0.02,90.6 0,0.79 0.01,1.58 -0.05,2.36 -0.19,2.63 -1.75,4.24 -4.35,4.5 -0.66,0.07 -1.33,0.04 -2,0.04 -17.77,0 -35.54,-0.05 -53.31,0.05 -3.46,0.02 -5.58,-1.3 -7.23,-4.33 -16.98,-31.33 -34.04,-62.62 -51.1,-93.91 -0.46,-0.85 -0.68,-1.92 -2.11,-1.9 -1.44,0.02 -1.6,1.13 -2.05,1.97 -16.82,31.28 -33.65,62.55 -50.39,93.87 -1.63,3.05 -3.8,4.33 -7.25,4.31 -15.52,-0.08 -31.04,0.57 -46.57,0.32 -4.3,-0.07 -8.61,-0.26 -12.91,-0.38 -2.1,-0.06 -3.73,-0.97 -4.9,-2.68 -13.54,-19.89 -28.78,-38.54 -42.52,-58.3 -0.5,-0.72 -1.31,-1.43 -0.76,-2.43 0.51,-0.94 1.5,-0.61 2.31,-0.61 8.01,-0.02 16.01,-0.01 24.02,-0.02 2.19,-0 4.35,-0.21 6.5,-0.65 4.73,-0.97 7.66,-3.83 8.55,-8.52 1.1,-5.82 1.05,-11.75 0.19,-17.56 -0.95,-6.42 -4.67,-9.45 -11.29,-9.97 -1.57,-0.12 -3.15,-0.17 -4.73,-0.17 -21.28,-0.01 -42.57,-0.01 -63.86,-0.01 -2.49,0 -2.49,0 -2.49,2.45 -0,30.69 0,61.37 -0,92.06 0,5.04 -1.42,6.43 -6.51,6.44 -5.88,0 -11.77,0.01 -17.65,-0.01 -4.07,-0.01 -5.8,-1.68 -5.8,-5.71 -0.01,-38.45 -0.01,-76.9 0,-115.35 0,-5.01 1.98,-7.01 6.9,-7.01 32.63,-0 65.25,0 97.88,0.02 5.05,0 10.04,0.63 14.91,1.95 12.43,3.37 19.36,11.81 21.89,24.11 1.91,9.3 1.19,18.72 0.92,28.1 -0.1,3.33 -0.81,6.61 -1.74,9.81 -3.28,11.29 -10.88,17.98 -22.13,20.78 -0.4,0.1 -0.8,0.22 -1.48,0.41zm-197.28 -85.19l68.87 0c0.85,0 1.7,-0.04 2.54,0.06 2.38,0.26 4.02,1.77 4.05,4.13 0.09,6.55 0.1,13.1 -0,19.64 -0.04,2.34 -1.69,3.91 -4.01,4.22 -0.9,0.12 -1.81,0.14 -2.72,0.14 -17.22,0.01 -34.44,0.03 -51.67,-0.03 -1.63,-0.01 -1.98,0.43 -1.98,2.01 0.05,30.32 0.04,60.64 0.04,90.96 0,0.73 0.01,1.46 -0.02,2.18 -0.13,2.88 -1.8,4.7 -4.68,4.74 -3.47,0.04 -6.95,0.06 -10.42,0.06 -3.47,0 -6.95,-0.02 -10.42,-0.06 -2.89,-0.04 -4.55,-1.85 -4.68,-4.74 -0.03,-0.73 -0.02,-1.45 -0.02,-2.18 -0,-30.32 -0.01,-60.64 0.04,-90.96 0,-1.59 -0.35,-2.02 -1.98,-2.01 -17.22,0.06 -34.44,0.04 -51.67,0.03 -0.91,0 -1.82,-0.02 -2.72,-0.14 -2.31,-0.31 -3.97,-1.88 -4.01,-4.22 -0.1,-6.55 -0.1,-13.1 -0,-19.64 0.03,-2.36 1.67,-3.87 4.05,-4.13 0.84,-0.09 1.7,-0.06 2.54,-0.06l68.87 -0zm882.2 -1.14c0.74,-0 1.47,-0 2.21,-0 7.53,0.67 11.06,4.37 11.31,11.91 0.06,1.81 0.04,3.62 -0.35,5.42 -1.1,5.08 -4.06,7.85 -9.19,8.65 -2.19,0.34 -4.35,0.29 -6.5,-0.12 -4.33,-0.83 -7.15,-3.38 -8.28,-7.65 -0.77,-2.9 -0.82,-5.89 -0.29,-8.82 1.09,-6.08 4.38,-8.79 11.08,-9.38zm-4.67 13.03c0,-2 0.02,-4 -0.01,-5.99 -0.02,-0.78 0.1,-1.25 1.06,-1.21 2.12,0.07 4.24,-0.04 6.36,0.1 1.93,0.13 3.58,0.98 4.11,3 0.54,2.07 0.57,4.16 -1.39,5.61 -0.75,0.55 -0.71,0.92 -0.29,1.59 0.67,1.08 1.26,2.21 1.9,3.3 0.35,0.59 0.25,0.85 -0.48,0.9 -1.32,0.08 -2.54,0.11 -3.02,-1.52 -0.17,-0.57 -0.57,-1.06 -0.86,-1.59 -0.72,-1.31 -2.39,-1.94 -3.74,-1.48 -0.48,0.17 -0.45,0.49 -0.46,0.84 -0.01,0.6 -0.09,1.22 0.01,1.81 0.29,1.68 -0.46,2.08 -2.01,1.97 -0.99,-0.07 -1.21,-0.43 -1.19,-1.32 0.05,-2 0.02,-4 0.02,-5.99zm3.17 -2.16c0,-1.19 -0.47,-2.54 1.71,-2.39 2.7,0.19 3.49,0.53 3.52,2.29 0.04,1.93 -0.76,2.51 -3.45,2.51 -1.79,-0 -1.79,-0 -1.79,-2.41zm2.62 12.59c-6.18,0.01 -9.14,-2.81 -9.44,-8.99 -0.11,-2.25 -0.03,-4.49 0.71,-6.64 0.79,-2.33 2.34,-3.91 4.75,-4.59 2.63,-0.74 5.26,-0.75 7.89,-0.03 2.63,0.72 4.23,2.47 4.94,5.07 0.85,3.1 0.89,6.23 0.04,9.33 -1.11,4.03 -3.93,5.85 -8.88,5.86zm-234.55 5.14c8.43,0.12 18.8,-0.2 29.16,0.16 2.13,0.07 4.22,0.41 6.29,0.86 6.6,1.43 9.85,5.9 10.94,12.26 0.48,2.81 0.76,5.64 0.76,8.5 -0,9.88 -0,19.76 -0,29.64 0,2.85 -0.27,5.69 -0.78,8.49 -1.4,7.82 -5.62,11.7 -13.7,12.68 -1.68,0.2 -3.38,0.4 -5.07,0.4 -19.88,0.02 -39.76,0.01 -59.64,0 -2.37,-0 -4.72,-0.33 -7.03,-0.82 -6.57,-1.4 -10.08,-5.18 -11.32,-12.09 -0.46,-2.57 -0.77,-5.15 -0.77,-7.76 0.01,-10.79 0.01,-21.58 0.02,-32.37 0,-2.49 0.33,-4.96 0.83,-7.39 1.54,-7.37 5.64,-11.01 13.3,-12.02 3.2,-0.42 6.4,-0.52 9.61,-0.53 8.49,-0.02 16.97,-0.01 27.39,-0.01z"/>
  </g>
 </g>
</svg>
