<svg width="260" height="260" viewBox="0 0 260 260" fill="none" xmlns="http://www.w3.org/2000/svg">
<path d="M0 0H260V260H0V0Z" fill="#172673"/>
<path d="M178.627 92.0045C178.843 92.0045 179.009 92.0608 179.126 92.1733C179.246 92.2882 179.307 92.4502 179.307 92.6618V94.8658C179.307 95.3047 179.079 95.5231 178.627 95.5231H168.49C168.19 95.5231 167.918 95.5366 167.677 95.5591C167.438 95.5839 167.22 95.6199 167.029 95.6694C166.842 95.7167 166.675 95.7797 166.529 95.8585C166.383 95.9373 166.254 96.0319 166.146 96.1399C166.036 96.248 165.944 96.3786 165.867 96.5271C165.79 96.678 165.73 96.8513 165.685 97.0426C165.64 97.243 165.606 97.4659 165.583 97.7113C165.561 97.9566 165.55 98.229 165.55 98.5307V98.6162H178.51C178.719 98.6162 178.883 98.6725 178.996 98.7873C179.108 98.9021 179.167 99.0642 179.167 99.2736V101.106C179.167 101.315 179.111 101.48 178.996 101.592C178.881 101.705 178.719 101.763 178.51 101.763H165.55V102.011C165.55 102.313 165.561 102.585 165.583 102.83C165.606 103.076 165.64 103.299 165.685 103.499C165.727 103.693 165.79 103.866 165.867 104.015C165.944 104.163 166.036 104.291 166.144 104.402C166.254 104.512 166.383 104.604 166.527 104.683C166.673 104.762 166.842 104.825 167.026 104.872C167.218 104.92 167.434 104.958 167.675 104.983C167.916 105.007 168.188 105.019 168.487 105.019H178.624C178.841 105.019 179.007 105.075 179.124 105.187C179.244 105.302 179.304 105.464 179.304 105.676V107.88C179.304 108.317 179.077 108.537 178.624 108.537H168.418C167.231 108.537 166.22 108.427 165.387 108.209C164.967 108.098 164.584 107.95 164.239 107.77C163.893 107.587 163.587 107.369 163.319 107.117C163.051 106.865 162.817 106.572 162.621 106.245C162.425 105.919 162.265 105.554 162.141 105.151C162.02 104.753 161.927 104.312 161.867 103.83C161.806 103.348 161.777 102.826 161.777 102.265V98.2763C161.777 97.1507 161.898 96.1917 162.144 95.4038C162.267 95.0076 162.427 94.6451 162.623 94.3187C162.819 93.9923 163.053 93.7019 163.321 93.4498C163.589 93.1976 163.897 92.977 164.242 92.7947C164.584 92.6123 164.969 92.4637 165.39 92.3489C166.223 92.1216 167.233 92.0068 168.42 92.0068H178.627V92.0045ZM198.117 105.471H201.348V92.6596C201.348 92.2229 201.575 92.0023 202.028 92.0023H204.533C204.743 92.0023 204.907 92.0585 205.02 92.1733C205.132 92.2882 205.191 92.4502 205.191 92.6596V107.878C205.191 108.087 205.132 108.249 205.02 108.364C204.905 108.476 204.743 108.535 204.533 108.535H196.519C196.413 108.535 196.319 108.528 196.24 108.515C196.152 108.499 196.08 108.476 196.026 108.443C195.977 108.413 195.929 108.375 195.882 108.328C195.839 108.285 195.794 108.231 195.751 108.17L192.134 103.407H184.86V107.875C184.86 108.085 184.802 108.247 184.689 108.362C184.574 108.474 184.412 108.533 184.203 108.533H181.697C181.481 108.533 181.312 108.476 181.195 108.364C181.076 108.249 181.015 108.087 181.015 107.875V92.8442C181.015 92.5718 181.087 92.3624 181.234 92.2184C181.378 92.0743 181.587 92 181.859 92H194.315C196.134 92 197.447 92.4187 198.248 93.2517C199.049 94.0846 199.45 95.3092 199.45 96.9256V98.247C199.45 99.6067 199.171 100.687 198.61 101.484C198.327 101.889 197.955 102.223 197.496 102.479C197.1 102.702 196.638 102.869 196.114 102.981L198.117 105.464V105.471ZM184.86 100.284H193.597C193.978 100.284 194.302 100.244 194.563 100.163C194.815 100.086 195.015 99.9714 195.162 99.8184C195.308 99.6653 195.421 99.4694 195.493 99.2308C195.569 98.9877 195.607 98.6973 195.607 98.3641V97.3893C195.607 97.0562 195.569 96.7658 195.493 96.5226C195.418 96.2863 195.308 96.0904 195.162 95.9351C195.018 95.7842 194.817 95.6694 194.563 95.5906C194.299 95.5096 193.978 95.4691 193.597 95.4691H185.013C184.91 95.4691 184.858 95.5118 184.858 95.5996V100.278L184.86 100.284ZM223.587 92.0023C223.797 92.0023 223.961 92.0585 224.074 92.1733C224.186 92.2882 224.245 92.4502 224.245 92.6596V94.8635C224.245 95.0729 224.188 95.2372 224.074 95.3498C223.959 95.4623 223.797 95.5209 223.587 95.5209H211.967C211.76 95.5209 211.584 95.5479 211.442 95.5996C211.309 95.6469 211.206 95.719 211.129 95.8158C210.965 96.0206 210.884 96.3065 210.884 96.6757V97.4636C210.884 98.2313 211.237 98.6162 211.944 98.6162H220.643C221.329 98.6162 221.937 98.704 222.457 98.8819C222.984 99.062 223.428 99.3321 223.785 99.6923C224.141 100.05 224.409 100.489 224.585 101.002C224.76 101.509 224.848 102.094 224.848 102.752V104.609C224.848 105.19 224.76 105.716 224.589 106.189C224.416 106.664 224.155 107.085 223.81 107.448C223.461 107.812 223.016 108.087 222.475 108.267C221.942 108.447 221.314 108.537 220.596 108.537H207.744C207.527 108.537 207.361 108.481 207.244 108.368C207.124 108.254 207.064 108.091 207.064 107.88V105.676C207.064 105.464 207.124 105.302 207.244 105.187C207.361 105.075 207.527 105.019 207.744 105.019H219.922C220.13 105.019 220.305 104.992 220.447 104.94C220.58 104.893 220.686 104.818 220.76 104.724C220.924 104.519 221.005 104.233 221.005 103.864V102.911C221.005 102.144 220.652 101.759 219.945 101.759H211.246C210.557 101.759 209.952 101.669 209.43 101.493C208.903 101.315 208.459 101.043 208.101 100.683C207.746 100.323 207.478 99.8859 207.302 99.3726C207.127 98.8639 207.039 98.2808 207.039 97.6235V95.9306C207.039 95.3498 207.124 94.823 207.298 94.3502C207.471 93.8752 207.732 93.4543 208.077 93.0918C208.426 92.7271 208.871 92.4525 209.412 92.2724C209.945 92.0923 210.573 92.0023 211.291 92.0023H223.587Z" fill="#96989A"/>
<path fill-rule="evenodd" clip-rule="evenodd" d="M127.995 108.344C126.816 108.344 125.636 108.353 124.456 108.341C123.574 108.332 122.701 108.249 121.841 108.033C119.972 107.562 118.871 106.365 118.473 104.496C118.322 103.789 118.254 103.074 118.252 102.353C118.245 100.951 118.243 99.5482 118.252 98.148C118.257 97.3421 118.333 96.5429 118.534 95.7595C119.004 93.9405 120.193 92.8712 121.996 92.4457C122.743 92.2679 123.504 92.1756 124.272 92.1733C126.937 92.1666 129.605 92.1621 132.27 92.1756C133.137 92.1801 133.995 92.2904 134.832 92.5268C136.631 93.0333 137.682 94.2197 138.056 96.0364C138.2 96.7365 138.263 97.4456 138.263 98.1592C138.263 99.7913 138.301 101.423 138.236 103.056C138.209 103.747 138.101 104.427 137.898 105.088C137.41 106.68 136.311 107.619 134.724 108.028C133.851 108.254 132.961 108.339 132.063 108.346C130.706 108.357 129.351 108.348 127.995 108.348V108.344ZM146.018 108.346C143.895 108.346 141.773 108.346 139.652 108.346C139.055 108.346 138.855 108.145 138.855 107.542C138.855 106.921 138.855 106.302 138.855 105.68C138.855 105.068 139.058 104.866 139.668 104.866C143.499 104.866 147.329 104.866 151.16 104.866C151.23 104.866 151.297 104.866 151.367 104.866C152.162 104.861 152.445 104.595 152.472 103.796C152.486 103.391 152.497 102.984 152.457 102.578C152.403 102.052 152.126 101.777 151.601 101.732C151.502 101.723 151.403 101.727 151.302 101.727C148.535 101.727 145.771 101.725 143.004 101.727C142.428 101.727 141.858 101.671 141.304 101.502C140.116 101.14 139.326 100.354 139.037 99.1588C138.697 97.7518 138.711 96.3065 138.981 94.8973C139.265 93.4182 140.345 92.493 141.831 92.2544C142.234 92.1891 142.637 92.1598 143.042 92.1598C147.002 92.1621 150.964 92.1598 154.926 92.1621C156.083 92.1621 155.674 93.9068 155.674 94.8748C155.671 95.4398 155.482 95.6312 154.913 95.6312C151.243 95.6312 147.572 95.6312 143.902 95.6312C143.758 95.6312 143.612 95.6357 143.465 95.6469C142.981 95.6852 142.709 95.9396 142.655 96.4236C142.603 96.8896 142.606 97.3578 142.655 97.8238C142.707 98.3011 143.011 98.5757 143.495 98.6005C143.67 98.6095 143.846 98.6072 144.024 98.6072C146.689 98.6072 149.357 98.6072 152.022 98.6072C152.583 98.6072 153.141 98.6477 153.681 98.8008C155.093 99.1993 155.89 100.154 156.169 101.572C156.318 102.331 156.252 103.098 156.261 103.864C156.268 104.384 156.281 104.904 156.18 105.422C155.867 106.995 154.8 108.017 153.209 108.254C152.806 108.314 152.403 108.344 151.995 108.344C150.003 108.341 148.011 108.344 146.018 108.344V108.346ZM71.4727 102.927C71.9994 103.58 72.5105 104.213 73.0147 104.845C73.08 104.929 73.1543 104.944 73.2533 104.944C74.586 104.942 75.9187 104.94 77.2537 104.947C77.4023 104.947 77.4653 104.888 77.5306 104.769C78.4243 103.123 79.3225 101.48 80.2208 99.8364C81.2766 97.9048 82.3301 95.9711 83.3859 94.0396C83.5885 93.6681 83.8114 93.3124 84.086 92.9905C84.5453 92.4502 85.1351 92.1733 85.8352 92.1711C86.5083 92.1688 87.1837 92.1193 87.8545 92.2071C88.5344 92.2949 89.0769 92.6213 89.4979 93.1594C89.7162 93.4385 89.9008 93.7357 90.0719 94.0441C92.0305 97.6009 93.9912 101.153 95.943 104.712C96.0443 104.895 96.1524 104.951 96.3505 104.947C96.8705 104.933 97.3928 104.931 97.9128 104.947C98.1424 104.956 98.2167 104.904 98.2145 104.654C98.2055 101.367 98.2077 98.0804 98.2077 94.7937C98.2077 94.465 98.2212 94.1341 98.2775 93.81C98.4621 92.7541 98.9416 92.2566 100.011 92.1869C101.08 92.1193 102.154 92.1306 103.226 92.1959C103.829 92.2319 104.302 92.5133 104.687 92.9658C105.281 93.6659 105.814 94.4155 106.373 95.1449C108.757 98.2673 111.136 101.392 113.516 104.517C113.543 104.553 113.574 104.589 113.599 104.627C113.68 104.744 113.806 104.728 113.912 104.706C114.027 104.681 113.973 104.566 113.973 104.492C113.975 100.66 113.975 96.831 113.975 92.9995C113.975 92.9005 113.97 92.7992 113.984 92.7024C114.031 92.3467 114.223 92.1688 114.583 92.1666C115.411 92.1598 116.237 92.1598 117.066 92.1666C117.453 92.1688 117.656 92.3737 117.68 92.7609C117.685 92.8217 117.683 92.8825 117.683 92.9455C117.683 97.2205 117.683 101.495 117.683 105.773C117.683 106.171 117.66 106.57 117.563 106.957C117.361 107.763 116.877 108.193 116.048 108.305C115.821 108.337 115.591 108.353 115.362 108.348C114.513 108.33 113.662 108.373 112.811 108.319C112.14 108.276 111.609 107.981 111.197 107.47C110.765 106.934 110.344 106.387 109.925 105.84C107.422 102.569 104.923 99.2938 102.422 96.0229C102.384 95.9733 102.343 95.9283 102.305 95.881C102.217 95.7752 102.095 95.7797 101.987 95.8112C101.879 95.8428 101.933 95.9576 101.933 96.0319C101.931 99.8476 101.931 103.663 101.931 107.479C101.931 107.578 101.933 107.679 101.924 107.779C101.9 108.109 101.704 108.314 101.375 108.348C101.292 108.357 101.206 108.353 101.123 108.353C98.8786 108.353 96.6319 108.346 94.3875 108.359C93.9507 108.362 93.6828 108.195 93.4735 107.812C91.3281 103.855 89.1715 99.9016 87.0171 95.9463C86.9586 95.8383 86.9315 95.7032 86.7514 95.7054C86.5691 95.7077 86.5488 95.8495 86.4926 95.9553C84.3674 99.9062 82.2423 103.859 80.1262 107.815C79.9191 108.2 79.6445 108.362 79.21 108.359C77.2492 108.348 75.2884 108.431 73.3254 108.4C72.7806 108.391 72.2381 108.366 71.6933 108.35C71.4276 108.344 71.2205 108.229 71.0742 108.013C69.3633 105.498 67.4385 103.143 65.7029 100.647C65.6398 100.554 65.5363 100.467 65.6061 100.338C65.6714 100.219 65.7952 100.262 65.8987 100.262C66.9095 100.26 67.9225 100.26 68.9333 100.26C69.2102 100.26 69.4826 100.233 69.755 100.179C70.3516 100.057 70.723 99.6945 70.8356 99.1025C70.9752 98.3663 70.9684 97.6189 70.8603 96.8828C70.741 96.0724 70.2705 95.6874 69.4331 95.6222C69.235 95.6064 69.0346 95.6019 68.8365 95.5996C66.1464 95.5974 63.4585 95.5996 60.7683 95.5996C60.4531 95.5996 60.4531 95.5996 60.4531 95.9103C60.4531 99.7868 60.4531 103.663 60.4531 107.54C60.4531 108.177 60.273 108.353 59.6314 108.353C58.8885 108.353 58.1457 108.355 57.4028 108.353C56.8873 108.35 56.6711 108.139 56.6711 107.63C56.6689 102.772 56.6689 97.9139 56.6711 93.0558C56.6711 92.421 56.921 92.1711 57.5423 92.1688C61.6643 92.1688 65.7862 92.1688 69.9081 92.1711C70.5452 92.1711 71.1755 92.2499 71.7923 92.4165C73.3637 92.8419 74.2371 93.909 74.5568 95.4623C74.7977 96.6374 74.7076 97.8261 74.6738 99.0124C74.6626 99.4334 74.5725 99.8476 74.4532 100.253C74.039 101.68 73.08 102.524 71.6573 102.878C71.6055 102.891 71.556 102.907 71.4704 102.929L71.4727 102.927ZM55.2484 92.1643C55.3564 92.1643 55.4645 92.1598 55.5703 92.1711C55.872 92.2049 56.0768 92.394 56.0813 92.6934C56.0926 93.5196 56.0926 94.348 56.0813 95.1742C56.0768 95.4691 55.8675 95.6672 55.5748 95.7077C55.4623 95.7235 55.3452 95.7257 55.2304 95.7257C53.0535 95.7257 50.8788 95.7302 48.702 95.7212C48.4971 95.7212 48.4521 95.7752 48.4521 95.9756C48.4588 99.8071 48.4566 103.636 48.4566 107.468C48.4566 107.56 48.4588 107.652 48.4543 107.745C48.4363 108.109 48.227 108.339 47.8623 108.344C47.4233 108.348 46.9843 108.353 46.5453 108.353C46.1063 108.353 45.6674 108.35 45.2284 108.344C44.8637 108.339 44.6543 108.109 44.6363 107.745C44.6318 107.652 44.6341 107.56 44.6341 107.468C44.6341 103.636 44.6318 99.8071 44.6386 95.9756C44.6386 95.7752 44.5935 95.7212 44.3887 95.7212C42.2118 95.7302 40.0371 95.7257 37.8603 95.7257C37.7454 95.7257 37.6306 95.7235 37.5158 95.7077C37.2232 95.6694 37.0138 95.4713 37.0093 95.1742C36.9958 94.3457 36.998 93.5196 37.0093 92.6934C37.0138 92.394 37.2209 92.2049 37.5203 92.1711C37.6261 92.1598 37.7342 92.1643 37.8422 92.1643H55.2484ZM157.416 93.6659C157.416 96.5159 157.416 91.2729 157.416 93.6659ZM156.955 93.8482C157.166 98.1525 156.72 89.0374 156.955 93.8482ZM128.515 95.6334C129.58 95.6492 130.89 95.6086 132.201 95.6537C132.468 95.6627 132.734 95.7054 132.995 95.7617C133.83 95.9418 134.24 96.5069 134.377 97.3105C134.438 97.6662 134.474 98.0242 134.474 98.3844C134.474 99.6338 134.474 100.881 134.474 102.128C134.474 102.488 134.44 102.846 134.375 103.202C134.197 104.19 133.666 104.681 132.644 104.805C132.432 104.829 132.216 104.854 132.005 104.854C129.492 104.857 126.98 104.857 124.47 104.854C124.171 104.854 123.873 104.811 123.583 104.751C122.752 104.573 122.309 104.096 122.154 103.222C122.095 102.898 122.057 102.572 122.057 102.241C122.059 100.876 122.059 99.5144 122.059 98.1502C122.059 97.8351 122.1 97.5244 122.165 97.216C122.358 96.284 122.876 95.8248 123.844 95.6964C124.247 95.6424 124.652 95.6312 125.058 95.6289C126.129 95.6267 127.201 95.6267 128.518 95.6267L128.515 95.6334Z" fill="#FEFEFE"/>
<path d="M49.2976 142V130.32H50.8656V142H49.2976ZM50.5456 142V140.592H56.2096V142H50.5456ZM50.5456 136.768V135.36H55.7136V136.768H50.5456ZM50.5456 131.728V130.32H56.0496V131.728H50.5456Z" fill="white"/>
<path d="M65.0238 145.2V139.456L65.6318 138.24C65.5998 139.168 65.4131 139.931 65.0718 140.528C64.7305 141.125 64.2878 141.568 63.7438 141.856C63.2105 142.144 62.6238 142.288 61.9838 142.288C61.3758 142.288 60.8158 142.171 60.3038 141.936C59.8025 141.701 59.3651 141.376 58.9918 140.96C58.6291 140.544 58.3465 140.069 58.1438 139.536C57.9411 138.992 57.8398 138.416 57.8398 137.808V137.52C57.8398 136.912 57.9411 136.347 58.1438 135.824C58.3465 135.301 58.6345 134.843 59.0078 134.448C59.3811 134.043 59.8238 133.728 60.3358 133.504C60.8478 133.28 61.4185 133.168 62.0478 133.168C62.7731 133.168 63.4078 133.323 63.9518 133.632C64.5065 133.941 64.9438 134.389 65.2638 134.976C65.5838 135.563 65.7598 136.277 65.7918 137.12H65.3438V133.456H66.5598V145.2H65.0238ZM62.2558 140.88C62.7785 140.88 63.2531 140.763 63.6798 140.528C64.1065 140.293 64.4478 139.957 64.7038 139.52C64.9598 139.072 65.0878 138.549 65.0878 137.952V137.216C65.0878 136.629 64.9545 136.133 64.6878 135.728C64.4318 135.312 64.0851 134.997 63.6478 134.784C63.2211 134.56 62.7571 134.448 62.2558 134.448C61.6798 134.448 61.1731 134.581 60.7358 134.848C60.3091 135.115 59.9731 135.493 59.7278 135.984C59.4931 136.464 59.3758 137.024 59.3758 137.664C59.3758 138.304 59.4985 138.869 59.7438 139.36C59.9891 139.84 60.3305 140.213 60.7678 140.48C61.2051 140.747 61.7011 140.88 62.2558 140.88Z" fill="white"/>
<path d="M72.4711 142.256C71.4577 142.256 70.6791 141.925 70.1351 141.264C69.5911 140.603 69.3191 139.648 69.3191 138.4V133.44H70.8551V138.704C70.8551 139.376 71.0364 139.904 71.3991 140.288C71.7617 140.661 72.2524 140.848 72.8711 140.848C73.5111 140.848 74.0337 140.645 74.4391 140.24C74.8444 139.824 75.0471 139.259 75.0471 138.544V133.44H76.5831V142H75.3671V138.336H75.5591C75.5591 139.179 75.4471 139.893 75.2231 140.48C74.9991 141.056 74.6631 141.499 74.2151 141.808C73.7777 142.107 73.2177 142.256 72.5351 142.256H72.4711Z" fill="white"/>
<path d="M79.9739 142V133.456H81.5099V142H79.9739ZM78.6619 134.672V133.456H81.5099V134.672H78.6619ZM80.4059 132.08C80.0646 132.08 79.8086 131.989 79.6379 131.808C79.4779 131.627 79.3979 131.397 79.3979 131.12C79.3979 130.843 79.4779 130.613 79.6379 130.432C79.8086 130.251 80.0646 130.16 80.4059 130.16C80.7473 130.16 80.9979 130.251 81.1579 130.432C81.3286 130.613 81.4139 130.843 81.4139 131.12C81.4139 131.397 81.3286 131.627 81.1579 131.808C80.9979 131.989 80.7473 132.08 80.4059 132.08Z" fill="white"/>
<path d="M84.4798 145.2V133.456H85.6958V137.152L85.4078 137.12C85.4611 136.203 85.6531 135.456 85.9838 134.88C86.3251 134.293 86.7678 133.861 87.3118 133.584C87.8558 133.307 88.4478 133.168 89.0878 133.168C89.7065 133.168 90.2665 133.285 90.7678 133.52C91.2798 133.755 91.7171 134.075 92.0798 134.48C92.4425 134.885 92.7198 135.355 92.9118 135.888C93.1038 136.421 93.1998 136.987 93.1998 137.584V137.872C93.1998 138.469 93.0985 139.035 92.8958 139.568C92.6931 140.101 92.4051 140.571 92.0318 140.976C91.6691 141.381 91.2318 141.701 90.7198 141.936C90.2185 142.171 89.6638 142.288 89.0558 142.288C88.4478 142.288 87.8665 142.155 87.3118 141.888C86.7571 141.621 86.2985 141.189 85.9358 140.592C85.5731 139.995 85.3651 139.211 85.3118 138.24L86.0158 139.52V145.2H84.4798ZM88.8158 140.944C89.3918 140.944 89.8931 140.811 90.3198 140.544C90.7465 140.267 91.0771 139.888 91.3118 139.408C91.5465 138.917 91.6638 138.357 91.6638 137.728C91.6638 137.088 91.5465 136.528 91.3118 136.048C91.0771 135.568 90.7465 135.195 90.3198 134.928C89.8931 134.651 89.3918 134.512 88.8158 134.512C88.3038 134.512 87.8291 134.629 87.3918 134.864C86.9545 135.088 86.6025 135.419 86.3358 135.856C86.0798 136.283 85.9518 136.8 85.9518 137.408V138.144C85.9518 138.731 86.0851 139.232 86.3518 139.648C86.6185 140.064 86.9705 140.384 87.4078 140.608C87.8451 140.832 88.3145 140.944 88.8158 140.944Z" fill="white"/>
<path d="M95.5111 142V133.456H96.7271V137.12H96.5351C96.5351 136.288 96.6417 135.584 96.8551 135.008C97.0791 134.421 97.4097 133.973 97.8471 133.664C98.2844 133.355 98.8391 133.2 99.5111 133.2H99.5751C100.247 133.2 100.802 133.355 101.239 133.664C101.687 133.973 102.018 134.421 102.231 135.008C102.444 135.584 102.551 136.288 102.551 137.12H102.103C102.103 136.288 102.215 135.584 102.439 135.008C102.663 134.421 102.994 133.973 103.431 133.664C103.879 133.355 104.439 133.2 105.111 133.2H105.175C105.847 133.2 106.407 133.355 106.855 133.664C107.303 133.973 107.634 134.421 107.847 135.008C108.071 135.584 108.183 136.288 108.183 137.12V142H106.647V136.784C106.647 136.091 106.476 135.557 106.135 135.184C105.794 134.8 105.319 134.608 104.711 134.608C104.082 134.608 103.575 134.811 103.191 135.216C102.807 135.611 102.615 136.165 102.615 136.88V142H101.079V136.784C101.079 136.091 100.908 135.557 100.567 135.184C100.226 134.8 99.7511 134.608 99.1431 134.608C98.5137 134.608 98.0071 134.811 97.6231 135.216C97.2391 135.611 97.0471 136.165 97.0471 136.88V142H95.5111Z" fill="white"/>
<path d="M114.627 142.288C113.881 142.288 113.235 142.16 112.691 141.904C112.147 141.648 111.705 141.312 111.363 140.896C111.022 140.469 110.766 139.995 110.595 139.472C110.435 138.949 110.355 138.416 110.355 137.872V137.584C110.355 137.029 110.435 136.491 110.595 135.968C110.766 135.445 111.022 134.976 111.363 134.56C111.705 134.133 112.137 133.797 112.659 133.552C113.193 133.296 113.817 133.168 114.531 133.168C115.459 133.168 116.222 133.371 116.819 133.776C117.427 134.171 117.875 134.683 118.163 135.312C118.462 135.941 118.611 136.613 118.611 137.328V138.016H111.027V136.864H117.491L117.139 137.488C117.139 136.88 117.043 136.357 116.851 135.92C116.659 135.472 116.371 135.125 115.987 134.88C115.603 134.635 115.118 134.512 114.531 134.512C113.923 134.512 113.417 134.651 113.011 134.928C112.617 135.205 112.318 135.584 112.115 136.064C111.923 136.544 111.827 137.099 111.827 137.728C111.827 138.336 111.923 138.885 112.115 139.376C112.318 139.856 112.627 140.24 113.043 140.528C113.459 140.805 113.987 140.944 114.627 140.944C115.299 140.944 115.843 140.795 116.259 140.496C116.686 140.197 116.942 139.851 117.027 139.456H118.467C118.35 140.043 118.115 140.549 117.763 140.976C117.411 141.403 116.969 141.728 116.435 141.952C115.902 142.176 115.299 142.288 114.627 142.288Z" fill="white"/>
<path d="M120.792 142V133.456H122.008V137.12H121.816C121.816 136.277 121.928 135.568 122.152 134.992C122.387 134.405 122.739 133.963 123.208 133.664C123.678 133.355 124.27 133.2 124.984 133.2H125.048C126.126 133.2 126.92 133.536 127.432 134.208C127.955 134.88 128.216 135.851 128.216 137.12V142H126.68V136.8C126.68 136.139 126.494 135.611 126.12 135.216C125.747 134.811 125.235 134.608 124.584 134.608C123.912 134.608 123.368 134.816 122.952 135.232C122.536 135.648 122.328 136.203 122.328 136.896V142H120.792Z" fill="white"/>
<path d="M134.355 142.096C133.715 142.096 133.16 142.005 132.691 141.824C132.232 141.643 131.875 141.333 131.619 140.896C131.373 140.448 131.251 139.845 131.251 139.088V130.864H132.723V139.28C132.723 139.739 132.845 140.096 133.091 140.352C133.347 140.597 133.704 140.72 134.163 140.72H135.667V142.096H134.355ZM129.779 134.608V133.456H135.667V134.608H129.779Z" fill="white"/>
<path d="M141.704 142V130.256H143.272V142H141.704ZM148.92 142L145.048 136.8H146.888L150.824 142H148.92ZM142.68 137.776V136.384H145.816C146.306 136.384 146.728 136.283 147.08 136.08C147.432 135.877 147.704 135.6 147.896 135.248C148.088 134.885 148.184 134.475 148.184 134.016C148.184 133.557 148.088 133.152 147.896 132.8C147.704 132.437 147.432 132.155 147.08 131.952C146.728 131.739 146.306 131.632 145.816 131.632H142.68V130.256H145.528C146.381 130.256 147.128 130.384 147.768 130.64C148.408 130.896 148.904 131.291 149.256 131.824C149.608 132.357 149.784 133.045 149.784 133.888V134.144C149.784 134.987 149.602 135.675 149.24 136.208C148.888 136.741 148.392 137.136 147.752 137.392C147.122 137.648 146.381 137.776 145.528 137.776H142.68Z" fill="white"/>
<path d="M157.851 142V139.44H157.595V136.48C157.595 135.893 157.44 135.451 157.131 135.152C156.832 134.853 156.39 134.704 155.803 134.704C155.472 134.704 155.131 134.709 154.779 134.72C154.427 134.731 154.091 134.741 153.771 134.752C153.451 134.763 153.174 134.779 152.939 134.8V133.456C153.174 133.435 153.419 133.419 153.675 133.408C153.942 133.387 154.214 133.376 154.491 133.376C154.768 133.365 155.035 133.36 155.291 133.36C156.166 133.36 156.88 133.467 157.435 133.68C157.99 133.883 158.4 134.219 158.667 134.688C158.934 135.157 159.067 135.792 159.067 136.592V142H157.851ZM155.051 142.224C154.411 142.224 153.856 142.117 153.387 141.904C152.928 141.68 152.571 141.36 152.315 140.944C152.07 140.528 151.947 140.027 151.947 139.44C151.947 138.832 152.08 138.325 152.347 137.92C152.624 137.515 153.024 137.211 153.547 137.008C154.07 136.795 154.699 136.688 155.435 136.688H157.755V137.84H155.371C154.752 137.84 154.278 137.989 153.947 138.288C153.616 138.587 153.451 138.971 153.451 139.44C153.451 139.909 153.616 140.288 153.947 140.576C154.278 140.864 154.752 141.008 155.371 141.008C155.734 141.008 156.08 140.944 156.411 140.816C156.742 140.677 157.014 140.453 157.227 140.144C157.451 139.824 157.574 139.387 157.595 138.832L158.011 139.44C157.958 140.048 157.808 140.56 157.563 140.976C157.328 141.381 156.998 141.691 156.571 141.904C156.155 142.117 155.648 142.224 155.051 142.224Z" fill="white"/>
<path d="M165.55 142.288C164.814 142.288 164.174 142.16 163.63 141.904C163.097 141.648 162.654 141.307 162.302 140.88C161.95 140.443 161.683 139.963 161.502 139.44C161.331 138.917 161.246 138.395 161.246 137.872V137.584C161.246 137.04 161.331 136.507 161.502 135.984C161.683 135.461 161.95 134.992 162.302 134.576C162.665 134.149 163.113 133.808 163.646 133.552C164.179 133.296 164.803 133.168 165.518 133.168C166.233 133.168 166.873 133.301 167.438 133.568C168.014 133.835 168.473 134.213 168.814 134.704C169.166 135.184 169.363 135.755 169.406 136.416H167.934C167.859 135.883 167.614 135.44 167.198 135.088C166.782 134.725 166.222 134.544 165.518 134.544C164.91 134.544 164.403 134.683 163.998 134.96C163.593 135.237 163.289 135.616 163.086 136.096C162.883 136.576 162.782 137.12 162.782 137.728C162.782 138.315 162.883 138.853 163.086 139.344C163.289 139.824 163.593 140.208 163.998 140.496C164.414 140.773 164.931 140.912 165.55 140.912C166.03 140.912 166.446 140.827 166.798 140.656C167.15 140.485 167.433 140.256 167.646 139.968C167.859 139.68 167.987 139.355 168.03 138.992H169.502C169.47 139.664 169.273 140.245 168.91 140.736C168.558 141.227 168.089 141.611 167.502 141.888C166.926 142.155 166.275 142.288 165.55 142.288Z" fill="white"/>
<path d="M177.477 142L174.261 138.016H172.853L176.773 133.456H178.389L174.837 137.568L174.949 136.752L179.253 142H177.477ZM171.589 142V130.32H173.125V142H171.589Z" fill="white"/>
<path d="M189.57 142V139.44H189.314V136.48C189.314 135.893 189.159 135.451 188.85 135.152C188.551 134.853 188.108 134.704 187.522 134.704C187.191 134.704 186.85 134.709 186.498 134.72C186.146 134.731 185.81 134.741 185.49 134.752C185.17 134.763 184.892 134.779 184.658 134.8V133.456C184.892 133.435 185.138 133.419 185.394 133.408C185.66 133.387 185.932 133.376 186.21 133.376C186.487 133.365 186.754 133.36 187.01 133.36C187.884 133.36 188.599 133.467 189.154 133.68C189.708 133.883 190.119 134.219 190.386 134.688C190.652 135.157 190.786 135.792 190.786 136.592V142H189.57ZM186.77 142.224C186.13 142.224 185.575 142.117 185.106 141.904C184.647 141.68 184.29 141.36 184.034 140.944C183.788 140.528 183.666 140.027 183.666 139.44C183.666 138.832 183.799 138.325 184.066 137.92C184.343 137.515 184.743 137.211 185.266 137.008C185.788 136.795 186.418 136.688 187.154 136.688H189.474V137.84H187.09C186.471 137.84 185.996 137.989 185.666 138.288C185.335 138.587 185.17 138.971 185.17 139.44C185.17 139.909 185.335 140.288 185.666 140.576C185.996 140.864 186.471 141.008 187.09 141.008C187.452 141.008 187.799 140.944 188.13 140.816C188.46 140.677 188.732 140.453 188.946 140.144C189.17 139.824 189.292 139.387 189.314 138.832L189.73 139.44C189.676 140.048 189.527 140.56 189.282 140.976C189.047 141.381 188.716 141.691 188.29 141.904C187.874 142.117 187.367 142.224 186.77 142.224Z" fill="white"/>
<path d="M193.605 142V133.456H194.821V137.12H194.629C194.629 136.277 194.741 135.568 194.965 134.992C195.199 134.405 195.551 133.963 196.021 133.664C196.49 133.355 197.082 133.2 197.797 133.2H197.861C198.938 133.2 199.733 133.536 200.245 134.208C200.767 134.88 201.029 135.851 201.029 137.12V142H199.493V136.8C199.493 136.139 199.306 135.611 198.933 135.216C198.559 134.811 198.047 134.608 197.397 134.608C196.725 134.608 196.181 134.816 195.765 135.232C195.349 135.648 195.141 136.203 195.141 136.896V142H193.605Z" fill="white"/>
<path d="M207.407 142.288C206.799 142.288 206.239 142.176 205.727 141.952C205.215 141.728 204.767 141.413 204.383 141.008C204.01 140.603 203.717 140.133 203.503 139.6C203.301 139.067 203.199 138.491 203.199 137.872V137.584C203.199 136.976 203.301 136.405 203.503 135.872C203.706 135.339 203.989 134.869 204.351 134.464C204.725 134.059 205.162 133.744 205.663 133.52C206.175 133.285 206.741 133.168 207.359 133.168C208.01 133.168 208.602 133.307 209.135 133.584C209.669 133.851 210.106 134.272 210.447 134.848C210.789 135.424 210.981 136.171 211.023 137.088L210.383 136.064V130.32H211.919V142H210.703V138.208H211.151C211.109 139.179 210.906 139.968 210.543 140.576C210.181 141.173 209.722 141.611 209.167 141.888C208.623 142.155 208.037 142.288 207.407 142.288ZM207.615 140.944C208.138 140.944 208.613 140.827 209.039 140.592C209.466 140.357 209.807 140.021 210.063 139.584C210.319 139.136 210.447 138.613 210.447 138.016V137.28C210.447 136.693 210.314 136.197 210.047 135.792C209.791 135.376 209.445 135.061 209.007 134.848C208.581 134.624 208.111 134.512 207.599 134.512C207.034 134.512 206.533 134.645 206.095 134.912C205.669 135.179 205.333 135.552 205.087 136.032C204.853 136.512 204.735 137.077 204.735 137.728C204.735 138.379 204.858 138.949 205.103 139.44C205.349 139.92 205.69 140.293 206.127 140.56C206.565 140.816 207.061 140.944 207.615 140.944Z" fill="white"/>
<path d="M44.9936 162V150.32H46.5616V162H44.9936Z" fill="white"/>
<path d="M49.7689 162V153.456H50.9849V157.12H50.7929C50.7929 156.277 50.9049 155.568 51.1289 154.992C51.3635 154.405 51.7155 153.963 52.1849 153.664C52.6542 153.355 53.2462 153.2 53.9609 153.2H54.0249C55.1022 153.2 55.8969 153.536 56.4089 154.208C56.9315 154.88 57.1929 155.851 57.1929 157.12V162H55.6569V156.8C55.6569 156.139 55.4702 155.611 55.0969 155.216C54.7235 154.811 54.2115 154.608 53.5609 154.608C52.8889 154.608 52.3449 154.816 51.9289 155.232C51.5129 155.648 51.3049 156.203 51.3049 156.896V162H49.7689Z" fill="white"/>
<path d="M62.8032 162.256C61.6832 162.256 60.8139 162.016 60.1953 161.536C59.5873 161.056 59.2726 160.4 59.2513 159.568H60.6912C60.7126 159.899 60.8779 160.213 61.1872 160.512C61.5072 160.8 62.0459 160.944 62.8032 160.944C63.4859 160.944 64.0086 160.811 64.3712 160.544C64.7339 160.267 64.9153 159.931 64.9153 159.536C64.9153 159.184 64.7819 158.912 64.5153 158.72C64.2486 158.517 63.8166 158.384 63.2192 158.32L62.2913 158.224C61.4806 158.139 60.8193 157.899 60.3073 157.504C59.7953 157.099 59.5392 156.533 59.5392 155.808C59.5392 155.264 59.6779 154.8 59.9552 154.416C60.2326 154.021 60.6166 153.723 61.1073 153.52C61.5979 153.307 62.1632 153.2 62.8032 153.2C63.7632 153.2 64.5419 153.413 65.1393 153.84C65.7366 154.267 66.0459 154.901 66.0673 155.744H64.6273C64.6166 155.403 64.4566 155.115 64.1472 154.88C63.8486 154.635 63.4006 154.512 62.8032 154.512C62.2059 154.512 61.7526 154.635 61.4432 154.88C61.1339 155.125 60.9793 155.435 60.9793 155.808C60.9793 156.128 61.0859 156.384 61.2993 156.576C61.5233 156.768 61.8859 156.891 62.3872 156.944L63.3153 157.04C64.2326 157.136 64.9686 157.392 65.5232 157.808C66.0779 158.213 66.3552 158.789 66.3552 159.536C66.3552 160.069 66.2006 160.544 65.8913 160.96C65.5926 161.365 65.1766 161.685 64.6432 161.92C64.1099 162.144 63.4966 162.256 62.8032 162.256Z" fill="white"/>
<path d="M71.9094 162.096C71.2694 162.096 70.7147 162.005 70.2454 161.824C69.7867 161.643 69.4294 161.333 69.1734 160.896C68.928 160.448 68.8054 159.845 68.8054 159.088V150.864H70.2774V159.28C70.2774 159.739 70.4 160.096 70.6454 160.352C70.9014 160.597 71.2587 160.72 71.7174 160.72H73.2214V162.096H71.9094ZM67.3334 154.608V153.456H73.2214V154.608H67.3334Z" fill="white"/>
<path d="M75.3939 162V153.456H76.6099V156.976H76.5459C76.5459 155.728 76.8179 154.816 77.3619 154.24C77.9165 153.653 78.7432 153.36 79.8419 153.36H80.1299V154.736H79.5859C78.7325 154.736 78.0765 154.965 77.6179 155.424C77.1592 155.872 76.9299 156.523 76.9299 157.376V162H75.3939Z" fill="white"/>
<path d="M84.9164 162.256C83.903 162.256 83.1244 161.925 82.5804 161.264C82.0364 160.603 81.7644 159.648 81.7644 158.4V153.44H83.3004V158.704C83.3004 159.376 83.4817 159.904 83.8444 160.288C84.207 160.661 84.6977 160.848 85.3164 160.848C85.9564 160.848 86.479 160.645 86.8844 160.24C87.2897 159.824 87.4924 159.259 87.4924 158.544V153.44H89.0284V162H87.8124V158.336H88.0044C88.0044 159.179 87.8924 159.893 87.6684 160.48C87.4444 161.056 87.1084 161.499 86.6604 161.808C86.223 162.107 85.663 162.256 84.9804 162.256H84.9164Z" fill="white"/>
<path d="M92.0033 162V153.456H93.2193V157.12H93.0273C93.0273 156.288 93.1339 155.584 93.3473 155.008C93.5713 154.421 93.9019 153.973 94.3392 153.664C94.7766 153.355 95.3313 153.2 96.0033 153.2H96.0673C96.7393 153.2 97.2939 153.355 97.7312 153.664C98.1792 153.973 98.5099 154.421 98.7233 155.008C98.9366 155.584 99.0433 156.288 99.0433 157.12H98.5953C98.5953 156.288 98.7073 155.584 98.9313 155.008C99.1553 154.421 99.4859 153.973 99.9232 153.664C100.371 153.355 100.931 153.2 101.603 153.2H101.667C102.339 153.2 102.899 153.355 103.347 153.664C103.795 153.973 104.126 154.421 104.339 155.008C104.563 155.584 104.675 156.288 104.675 157.12V162H103.139V156.784C103.139 156.091 102.969 155.557 102.627 155.184C102.286 154.8 101.811 154.608 101.203 154.608C100.574 154.608 100.067 154.811 99.6833 155.216C99.2993 155.611 99.1073 156.165 99.1073 156.88V162H97.5713V156.784C97.5713 156.091 97.4006 155.557 97.0592 155.184C96.7179 154.8 96.2433 154.608 95.6353 154.608C95.0059 154.608 94.4992 154.811 94.1152 155.216C93.7312 155.611 93.5393 156.165 93.5393 156.88V162H92.0033Z" fill="white"/>
<path d="M111.12 162.288C110.373 162.288 109.728 162.16 109.184 161.904C108.64 161.648 108.197 161.312 107.856 160.896C107.514 160.469 107.258 159.995 107.088 159.472C106.928 158.949 106.848 158.416 106.848 157.872V157.584C106.848 157.029 106.928 156.491 107.088 155.968C107.258 155.445 107.514 154.976 107.856 154.56C108.197 154.133 108.629 153.797 109.152 153.552C109.685 153.296 110.309 153.168 111.024 153.168C111.952 153.168 112.714 153.371 113.312 153.776C113.92 154.171 114.368 154.683 114.656 155.312C114.954 155.941 115.104 156.613 115.104 157.328V158.016H107.52V156.864H113.984L113.632 157.488C113.632 156.88 113.536 156.357 113.344 155.92C113.152 155.472 112.864 155.125 112.48 154.88C112.096 154.635 111.61 154.512 111.024 154.512C110.416 154.512 109.909 154.651 109.504 154.928C109.109 155.205 108.81 155.584 108.608 156.064C108.416 156.544 108.32 157.099 108.32 157.728C108.32 158.336 108.416 158.885 108.608 159.376C108.81 159.856 109.12 160.24 109.536 160.528C109.952 160.805 110.48 160.944 111.12 160.944C111.792 160.944 112.336 160.795 112.752 160.496C113.178 160.197 113.434 159.851 113.52 159.456H114.96C114.842 160.043 114.608 160.549 114.256 160.976C113.904 161.403 113.461 161.728 112.928 161.952C112.394 162.176 111.792 162.288 111.12 162.288Z" fill="white"/>
<path d="M117.285 162V153.456H118.501V157.12H118.309C118.309 156.277 118.421 155.568 118.645 154.992C118.879 154.405 119.231 153.963 119.701 153.664C120.17 153.355 120.762 153.2 121.477 153.2H121.54C122.618 153.2 123.412 153.536 123.924 154.208C124.447 154.88 124.709 155.851 124.709 157.12V162H123.173V156.8C123.173 156.139 122.986 155.611 122.613 155.216C122.239 154.811 121.727 154.608 121.076 154.608C120.404 154.608 119.861 154.816 119.445 155.232C119.029 155.648 118.821 156.203 118.821 156.896V162H117.285Z" fill="white"/>
<path d="M130.847 162.096C130.207 162.096 129.652 162.005 129.183 161.824C128.724 161.643 128.367 161.333 128.111 160.896C127.866 160.448 127.743 159.845 127.743 159.088V150.864H129.215V159.28C129.215 159.739 129.338 160.096 129.583 160.352C129.839 160.597 130.196 160.72 130.655 160.72H132.159V162.096H130.847ZM126.271 154.608V153.456H132.159V154.608H126.271Z" fill="white"/>
<path d="M139.468 162V159.44H139.212V156.48C139.212 155.893 139.057 155.451 138.748 155.152C138.449 154.853 138.007 154.704 137.42 154.704C137.089 154.704 136.748 154.709 136.396 154.72C136.044 154.731 135.708 154.741 135.388 154.752C135.068 154.763 134.791 154.779 134.556 154.8V153.456C134.791 153.435 135.036 153.419 135.292 153.408C135.559 153.387 135.831 153.376 136.108 153.376C136.385 153.365 136.652 153.36 136.908 153.36C137.783 153.36 138.497 153.467 139.052 153.68C139.607 153.883 140.017 154.219 140.284 154.688C140.551 155.157 140.684 155.792 140.684 156.592V162H139.468ZM136.668 162.224C136.028 162.224 135.473 162.117 135.004 161.904C134.545 161.68 134.188 161.36 133.932 160.944C133.687 160.528 133.564 160.027 133.564 159.44C133.564 158.832 133.697 158.325 133.964 157.92C134.241 157.515 134.641 157.211 135.164 157.008C135.687 156.795 136.316 156.688 137.052 156.688H139.372V157.84H136.988C136.369 157.84 135.895 157.989 135.564 158.288C135.233 158.587 135.068 158.971 135.068 159.44C135.068 159.909 135.233 160.288 135.564 160.576C135.895 160.864 136.369 161.008 136.988 161.008C137.351 161.008 137.697 160.944 138.028 160.816C138.359 160.677 138.631 160.453 138.844 160.144C139.068 159.824 139.191 159.387 139.212 158.832L139.628 159.44C139.575 160.048 139.425 160.56 139.18 160.976C138.945 161.381 138.615 161.691 138.188 161.904C137.772 162.117 137.265 162.224 136.668 162.224Z" fill="white"/>
<path d="M143.599 162V150.32H145.135V162H143.599ZM142.415 151.536V150.32H145.135V151.536H142.415Z" fill="white"/>
<path d="M155.738 162.288C154.767 162.288 153.941 162.128 153.258 161.808C152.575 161.488 152.053 161.045 151.69 160.48C151.327 159.915 151.146 159.275 151.146 158.56H152.714C152.714 158.912 152.805 159.264 152.986 159.616C153.178 159.968 153.493 160.261 153.93 160.496C154.378 160.731 154.981 160.848 155.738 160.848C156.442 160.848 157.018 160.747 157.466 160.544C157.914 160.331 158.245 160.059 158.458 159.728C158.671 159.387 158.778 159.019 158.778 158.624C158.778 158.144 158.57 157.749 158.154 157.44C157.738 157.12 157.13 156.923 156.33 156.848L155.034 156.736C153.999 156.651 153.173 156.331 152.554 155.776C151.935 155.221 151.626 154.491 151.626 153.584C151.626 152.869 151.797 152.245 152.138 151.712C152.49 151.179 152.975 150.763 153.594 150.464C154.213 150.155 154.933 150 155.754 150C156.565 150 157.279 150.149 157.898 150.448C158.517 150.747 158.997 151.168 159.338 151.712C159.69 152.245 159.866 152.885 159.866 153.632H158.298C158.298 153.259 158.207 152.907 158.026 152.576C157.855 152.245 157.583 151.973 157.21 151.76C156.837 151.547 156.351 151.44 155.754 151.44C155.178 151.44 154.698 151.541 154.314 151.744C153.941 151.947 153.658 152.213 153.466 152.544C153.285 152.864 153.194 153.211 153.194 153.584C153.194 154.011 153.359 154.389 153.69 154.72C154.021 155.051 154.511 155.243 155.162 155.296L156.458 155.408C157.258 155.472 157.946 155.643 158.522 155.92C159.109 156.187 159.557 156.549 159.866 157.008C160.186 157.456 160.346 157.995 160.346 158.624C160.346 159.339 160.154 159.973 159.77 160.528C159.386 161.083 158.847 161.515 158.154 161.824C157.461 162.133 156.655 162.288 155.738 162.288Z" fill="white"/>
<path d="M165.713 162.256C164.7 162.256 163.921 161.925 163.377 161.264C162.833 160.603 162.561 159.648 162.561 158.4V153.44H164.097V158.704C164.097 159.376 164.279 159.904 164.641 160.288C165.004 160.661 165.495 160.848 166.113 160.848C166.753 160.848 167.276 160.645 167.681 160.24C168.087 159.824 168.289 159.259 168.289 158.544V153.44H169.825V162H168.609V158.336H168.801C168.801 159.179 168.689 159.893 168.465 160.48C168.241 161.056 167.905 161.499 167.457 161.808C167.02 162.107 166.46 162.256 165.777 162.256H165.713Z" fill="white"/>
<path d="M172.8 165.2V153.456H174.016V157.152L173.728 157.12C173.781 156.203 173.973 155.456 174.304 154.88C174.645 154.293 175.088 153.861 175.632 153.584C176.176 153.307 176.768 153.168 177.408 153.168C178.027 153.168 178.587 153.285 179.088 153.52C179.6 153.755 180.037 154.075 180.4 154.48C180.763 154.885 181.04 155.355 181.232 155.888C181.424 156.421 181.52 156.987 181.52 157.584V157.872C181.52 158.469 181.419 159.035 181.216 159.568C181.013 160.101 180.725 160.571 180.352 160.976C179.989 161.381 179.552 161.701 179.04 161.936C178.539 162.171 177.984 162.288 177.376 162.288C176.768 162.288 176.187 162.155 175.632 161.888C175.077 161.621 174.619 161.189 174.256 160.592C173.893 159.995 173.685 159.211 173.632 158.24L174.336 159.52V165.2H172.8ZM177.136 160.944C177.712 160.944 178.213 160.811 178.64 160.544C179.067 160.267 179.397 159.888 179.632 159.408C179.867 158.917 179.984 158.357 179.984 157.728C179.984 157.088 179.867 156.528 179.632 156.048C179.397 155.568 179.067 155.195 178.64 154.928C178.213 154.651 177.712 154.512 177.136 154.512C176.624 154.512 176.149 154.629 175.712 154.864C175.275 155.088 174.923 155.419 174.656 155.856C174.4 156.283 174.272 156.8 174.272 157.408V158.144C174.272 158.731 174.405 159.232 174.672 159.648C174.939 160.064 175.291 160.384 175.728 160.608C176.165 160.832 176.635 160.944 177.136 160.944Z" fill="white"/>
<path d="M183.831 165.2V153.456H185.047V157.152L184.759 157.12C184.813 156.203 185.005 155.456 185.335 154.88C185.677 154.293 186.119 153.861 186.663 153.584C187.207 153.307 187.799 153.168 188.439 153.168C189.058 153.168 189.618 153.285 190.119 153.52C190.631 153.755 191.069 154.075 191.431 154.48C191.794 154.885 192.071 155.355 192.263 155.888C192.455 156.421 192.551 156.987 192.551 157.584V157.872C192.551 158.469 192.45 159.035 192.247 159.568C192.045 160.101 191.757 160.571 191.383 160.976C191.021 161.381 190.583 161.701 190.071 161.936C189.57 162.171 189.015 162.288 188.407 162.288C187.799 162.288 187.218 162.155 186.663 161.888C186.109 161.621 185.65 161.189 185.287 160.592C184.925 159.995 184.717 159.211 184.663 158.24L185.367 159.52V165.2H183.831ZM188.167 160.944C188.743 160.944 189.245 160.811 189.671 160.544C190.098 160.267 190.429 159.888 190.663 159.408C190.898 158.917 191.015 158.357 191.015 157.728C191.015 157.088 190.898 156.528 190.663 156.048C190.429 155.568 190.098 155.195 189.671 154.928C189.245 154.651 188.743 154.512 188.167 154.512C187.655 154.512 187.181 154.629 186.743 154.864C186.306 155.088 185.954 155.419 185.687 155.856C185.431 156.283 185.303 156.8 185.303 157.408V158.144C185.303 158.731 185.437 159.232 185.703 159.648C185.97 160.064 186.322 160.384 186.759 160.608C187.197 160.832 187.666 160.944 188.167 160.944Z" fill="white"/>
<path d="M198.799 162.288C198.052 162.288 197.396 162.16 196.831 161.904C196.265 161.648 195.785 161.312 195.391 160.896C195.007 160.469 194.713 159.995 194.511 159.472C194.319 158.949 194.223 158.416 194.223 157.872V157.584C194.223 157.04 194.324 156.507 194.527 155.984C194.729 155.451 195.028 154.976 195.423 154.56C195.817 154.133 196.297 153.797 196.863 153.552C197.428 153.296 198.073 153.168 198.799 153.168C199.524 153.168 200.169 153.296 200.735 153.552C201.3 153.797 201.78 154.133 202.175 154.56C202.569 154.976 202.868 155.451 203.071 155.984C203.273 156.507 203.375 157.04 203.375 157.584V157.872C203.375 158.416 203.273 158.949 203.071 159.472C202.879 159.995 202.585 160.469 202.191 160.896C201.807 161.312 201.332 161.648 200.767 161.904C200.201 162.16 199.545 162.288 198.799 162.288ZM198.799 160.912C199.439 160.912 199.983 160.773 200.431 160.496C200.889 160.208 201.236 159.824 201.471 159.344C201.716 158.864 201.839 158.325 201.839 157.728C201.839 157.12 201.716 156.576 201.471 156.096C201.225 155.616 200.873 155.237 200.415 154.96C199.967 154.683 199.428 154.544 198.799 154.544C198.18 154.544 197.641 154.683 197.183 154.96C196.724 155.237 196.372 155.616 196.127 156.096C195.881 156.576 195.759 157.12 195.759 157.728C195.759 158.325 195.876 158.864 196.111 159.344C196.356 159.824 196.703 160.208 197.151 160.496C197.609 160.773 198.159 160.912 198.799 160.912Z" fill="white"/>
<path d="M205.675 162V153.456H206.891V156.976H206.827C206.827 155.728 207.099 154.816 207.643 154.24C208.198 153.653 209.024 153.36 210.123 153.36H210.411V154.736H209.867C209.014 154.736 208.358 154.965 207.899 155.424C207.44 155.872 207.211 156.523 207.211 157.376V162H205.675Z" fill="white"/>
<path d="M215.722 162.096C215.082 162.096 214.527 162.005 214.058 161.824C213.599 161.643 213.242 161.333 212.986 160.896C212.741 160.448 212.618 159.845 212.618 159.088V150.864H214.09V159.28C214.09 159.739 214.213 160.096 214.458 160.352C214.714 160.597 215.071 160.72 215.53 160.72H217.034V162.096H215.722ZM211.146 154.608V153.456H217.034V154.608H211.146Z" fill="white"/>
</svg>
