<?xml version="1.0" encoding="UTF-8"?>
<!DOCTYPE svg PUBLIC "-//W3C//DTD SVG 1.1//EN" "http://www.w3.org/Graphics/SVG/1.1/DTD/svg11.dtd">
<!-- Creator: CorelDRAW 2019 (64-Bit) -->
<svg xmlns="http://www.w3.org/2000/svg" xml:space="preserve" width="3.17491in" height="0.576539in" version="1.1" style="shape-rendering:geometricPrecision; text-rendering:geometricPrecision; image-rendering:optimizeQuality; fill-rule:evenodd; clip-rule:evenodd"
viewBox="0 0 3086.29 560.45"
 xmlns:xlink="http://www.w3.org/1999/xlink"
 xmlns:xodm="http://www.corel.com/coreldraw/odm/2003">
 <defs>
  <style type="text/css">
   <![CDATA[
    .fil0 {fill:#FEFEFE}
   ]]>
  </style>
 </defs>
 <g id="Layer_x0020_1">
  <metadata id="CorelCorpID_0Corel-Layer"/>
  <g id="_2162622517808">
   <path class="fil0" d="M2899.88 540.05c0.13,1.62 0.26,2.55 0.28,3.48 0.28,13.08 -1.09,14.7 -14.33,16.2 -7.67,0.87 -15.35,1.23 -22.9,-1.01 -9.91,-2.94 -16.73,-9.22 -19.97,-19.06 -3.36,-10.2 -3.23,-20.51 0.5,-30.54 5.42,-14.55 18.83,-22.18 36.01,-20.95 12.92,0.93 22.64,9.4 25.7,22.68 1.13,4.88 1.05,9.92 1.27,14.91 0.15,3.59 -1.09,4.62 -4.6,4.56 -11.93,-0.2 -23.86,0.11 -35.78,-0.17 -4.55,-0.11 -4.68,1.48 -3.39,5.03 2.25,6.22 6.95,9 13.09,9.65 8.35,0.88 16.44,-0.16 24.12,-4.78zm-408.98 20.37c-6.9,0.07 -12.2,-4.6 -12.41,-10.92 -0.21,-6.46 5.2,-11.46 12.43,-11.49 6.96,-0.03 12.21,4.61 12.35,10.92 0.15,6.6 -5.03,11.42 -12.37,11.49zm492.61 0c-7.11,0.13 -12.69,-4.89 -12.63,-11.36 0.06,-6.15 5.44,-10.95 12.38,-11.06 6.92,-0.1 12.31,4.55 12.53,10.8 0.24,6.56 -4.96,11.47 -12.29,11.62zm-701.06 -36.41c0,-10 0.12,-19.99 -0.07,-29.98 -0.07,-3.32 0.53,-4.94 4.34,-4.62 5.32,0.44 12.26,-1.62 15.58,1.04 3.55,2.85 1.06,10.07 1.1,15.36 0.17,16.14 -0.04,32.29 0.14,48.42 0.04,3.45 -0.7,4.8 -4.4,4.52 -5.32,-0.41 -12.32,1.71 -15.6,-0.95 -3.45,-2.8 -0.9,-10.06 -1.06,-15.36 -0.2,-6.14 -0.05,-12.3 -0.05,-18.44zm658.19 -22.65c4.21,-8.87 9.95,-13.21 18.63,-13.06 2.98,0.04 4.6,0.93 4.43,4.37 -0.25,5.16 -0.06,10.33 -0.06,15.66 -1.23,-0.25 -1.98,-0.39 -2.72,-0.57 -12.52,-2.92 -20.21,2.91 -20.55,15.94 -0.26,10.19 -0.24,20.39 0,30.57 0.08,3.56 -0.87,4.84 -4.47,4.46 -5.5,-0.57 -12.66,2.29 -16.06,-1.17 -2.63,-2.69 -0.77,-9.86 -0.78,-15.04 -0.03,-15.96 0.1,-31.92 -0.1,-47.88 -0.04,-3.89 0.87,-5.79 5.06,-5.2 1.7,0.24 3.46,0.05 5.19,0.05 10.62,0 10.62,0 11.43,11.88zm-264.48 -1.06c3.64,-7.57 9.14,-11.97 17.51,-12.01 3.33,-0.02 5.45,0.65 5.14,4.83 -0.38,4.96 -0.09,9.97 -0.09,15.27 -1.42,-0.32 -2.5,-0.55 -3.57,-0.8 -11.25,-2.63 -19.05,2.96 -19.56,14.66 -0.46,10.56 -0.34,21.16 -0.13,31.73 0.08,3.78 -0.97,5.07 -4.8,4.78 -5.33,-0.41 -12.34,1.66 -15.61,-1.02 -3.46,-2.83 -1.01,-10.1 -1.06,-15.42 -0.15,-15.58 0.2,-31.16 -0.2,-46.73 -0.14,-5.32 1.6,-6.92 6.49,-6.13 0.94,0.16 1.92,0.01 2.88,0.03 3.65,0.05 7.85,-1.01 10.8,0.45 3.48,1.71 0.21,6.65 2.19,10.36zm58.52 -31.55c0,6.05 0.13,11.62 -0.05,17.18 -0.09,2.81 0.9,3.91 3.63,3.55 0.19,-0.03 0.39,-0.01 0.58,0 11.9,0.39 11.78,0.39 11.34,12.16 -0.12,3.09 -1.13,3.77 -4.04,3.85 -11.45,0.31 -11.45,0.41 -11.45,11.75 0,5.39 -0.13,10.78 0.05,16.17 0.29,8.61 3.81,11.62 12.09,9.91 2.76,-0.57 3.14,-0.13 3.33,2.43 0.95,12.83 -0.54,14.54 -13.34,14.67 -15.16,0.16 -22.85,-7.26 -23.05,-22.42 -0.12,-9.24 -0.17,-18.48 0.02,-27.72 0.07,-3.48 -0.48,-5.63 -4.57,-4.85 -5.56,1.06 -7.8,-1.15 -6.8,-6.76 0.23,-1.31 0.19,-2.71 0.01,-4.03 -0.55,-3.92 0.8,-5.92 4.98,-5.14 5.46,1.03 7.31,-1.51 6.28,-6.52 -1.35,-6.62 1.44,-9.73 7.89,-10.75 4.28,-0.67 8.43,-2.2 13.11,-3.48zm-562.2 -0.11c0,6.07 0.21,11.46 -0.07,16.82 -0.18,3.41 1.13,4.06 4.27,4.1 11.72,0.13 12.64,1.5 11.08,13.36 -0.35,2.62 -1.68,2.42 -3.46,2.53 -3.78,0.24 -8.78,-1.75 -11.04,0.82 -2.41,2.72 -0.61,7.71 -0.73,11.71 -0.14,4.23 -0.04,8.46 -0.03,12.69 0.02,12.38 2.96,14.79 15.18,12.07 0,1.99 0,3.89 0,5.79 0.01,11.06 0.01,11.06 -11.35,11.79 -16.12,1.04 -24.33,-6.1 -24.93,-22.17 -0.34,-9.22 -0.3,-18.48 -0.03,-27.7 0.12,-4.03 -1.05,-5.8 -5.09,-5.01 -5.31,1.05 -6.85,-1.38 -6.05,-6.23 0.18,-1.13 0.18,-2.33 0,-3.46 -0.76,-4.81 0.68,-7.34 6.05,-6.28 4.05,0.8 5.17,-1.03 5.1,-5.03 -0.18,-9.81 0.02,-9.81 9.31,-12.45 3.67,-1.04 7.36,-2.08 11.8,-3.34zm351.59 63.4c0,-7.51 -0.16,-15.02 0.07,-22.52 0.1,-3.29 -0.94,-4.72 -4.18,-4.07 -6.64,1.33 -8.47,-1.76 -7.44,-7.77 0.22,-1.31 0.18,-2.71 0,-4.03 -0.42,-3.24 0.8,-4.8 4.12,-4.14 6.61,1.32 7.8,-1.71 7.55,-7.76 -0.9,-21.97 19.23,-29.9 36.3,-26.2 2.2,0.48 2.81,1.56 2.72,3.56 -0.08,1.73 -0.02,3.47 -0.02,5.2 0,7.34 0.01,7.28 -7.07,6.94 -3.8,-0.18 -7.45,0.55 -9.46,4.23 -2.23,4.08 -2.06,8.65 -1.34,12.98 0.31,1.84 3.04,0.96 4.67,0.99 10.98,0.19 10.7,0.17 10.99,10.81 0.13,4.62 -1.52,5.34 -5.61,5.25 -10.34,-0.23 -10.35,-0.03 -10.35,10.51 0,12.32 -0.16,24.65 0.09,36.96 0.08,4.19 -0.57,6.34 -5.47,5.79 -4.92,-0.55 -11.61,1.6 -14.48,-0.91 -3.33,-2.92 -0.82,-9.74 -1.08,-14.85 -0.18,-3.65 -0.03,-7.31 -0.03,-10.97zm-181.15 -31.88c7.33,-10.95 17.05,-13.82 28.31,-11.52 9.23,1.88 13.81,8.64 15.27,17.51 2.32,14.16 0.7,28.45 1.04,42.69 0.23,9.84 0.05,9.84 -9.9,9.84 -11.19,0 -11.16,0 -11.21,-11.49 -0.03,-10.02 0.18,-20.05 -0.35,-30.04 -0.47,-8.85 -4.35,-12.87 -10.98,-12.83 -6.94,0.04 -12.28,5.71 -12.46,13.96 -0.25,11.75 -0.33,23.52 0.05,35.26 0.14,4.55 -1.35,5.66 -5.49,5.19 -5.11,-0.58 -11.96,2.16 -14.91,-1.15 -2.52,-2.83 -0.78,-9.52 -0.8,-14.5 -0.04,-16.19 0.12,-32.38 -0.11,-48.56 -0.05,-4.05 1.09,-5.62 5.15,-5.08 1.89,0.25 3.85,0.05 5.78,0.05 9.86,0 9.86,0 10.61,10.68zm271.38 48.96c-4.4,5.55 -8.96,9.5 -15.38,10.72 -15.68,3 -27.5,-5.41 -28.37,-21.32 -0.83,-15.17 -0.36,-30.4 -0.59,-45.6 -0.04,-2.92 1.22,-3.62 3.82,-3.46 5.54,0.35 12.56,-2.2 16.21,0.95 3.49,3.01 0.94,10.15 1.07,15.46 0.21,8.27 -0.04,16.55 0.11,24.83 0.15,8.48 3.8,12.89 10.54,13.15 7.54,0.3 12.53,-3.94 12.89,-12.32 0.54,-12.29 0.44,-24.63 0.28,-36.94 -0.05,-3.99 1.03,-5.56 5.14,-5.15 5.13,0.51 11.79,-2.07 15.04,0.99 3.31,3.1 1,9.82 1.04,14.94 0.15,16.17 -0.04,32.34 0.13,48.51 0.04,3.58 -0.65,5.42 -4.65,4.87 -2.08,-0.29 -4.22,-0.05 -6.35,-0.05 -9.61,0 -9.61,0 -10.92,-9.56zm-187.55 -29.09c5.64,-8.84 11.4,-17.6 16.86,-26.55 1.81,-2.97 3.82,-4.25 7.37,-4.08 6.33,0.29 12.69,0.09 19.15,0.09 0.32,2.84 -1.94,4.15 -3.21,5.87 -5.58,7.6 -11.17,15.2 -17.08,22.55 -2.41,3 -2.74,5.01 -0.23,8.29 6.8,8.84 13.14,18.04 19.58,27.16 1.03,1.48 2.69,2.7 2.81,5.33 -7.58,0 -15.01,-0.07 -22.44,0.03 -2.52,0.03 -3.12,-1.93 -4.11,-3.48 -6.23,-9.71 -12.42,-19.44 -19.74,-29.17 0,6.91 0,13.82 0,20.72 0,11.89 0,11.89 -11.95,11.89 -9.39,0 -9.39,0 -9.39,-9.29 0,-29.08 0.09,-58.16 -0.09,-87.24 -0.03,-4.45 1.03,-6.26 5.72,-5.8 4.95,0.48 11.6,-1.57 14.54,0.96 3.42,2.94 1.05,9.77 1.11,14.89 0.17,14.05 0.06,28.11 0.06,42.17 0,1.81 0,3.63 0,5.44 0.34,0.07 0.69,0.14 1.03,0.21zm356.47 -20.21c6.56,-8.63 13.97,-12.45 23.64,-11.78 10.4,0.72 17.85,6.3 19.73,16.95 2.98,16.98 0.83,34.21 1.37,51.33 0.05,1.73 -0.78,2.44 -2.44,2.36 -0.58,-0.03 -1.16,0.03 -1.74,0 -5.53,-0.31 -12.63,2.3 -16.16,-0.99 -3.31,-3.08 -0.86,-10.21 -0.97,-15.56 -0.18,-8.28 0.08,-16.57 -0.18,-24.85 -0.25,-8.42 -3.78,-12.69 -10.12,-12.95 -6.67,-0.28 -12.1,4.36 -12.79,12.24 -0.69,7.84 -0.28,15.77 -0.35,23.67 -0.01,0.77 0,1.55 0,2.31 0,17.85 0,17.77 -18.06,16.23 -2.78,-0.24 -2.99,-1.39 -2.98,-3.57 0.04,-31.79 0.06,-63.57 -0.03,-95.36 -0.01,-2.96 1.16,-3.56 3.75,-3.45 5.55,0.24 12.64,-1.74 16.23,0.98 3.45,2.6 0.93,10.1 1.04,15.43 0.18,8.47 0.05,16.94 0.05,27.01zm-562.19 -0.15c5.95,-7.55 11.97,-11.53 20.18,-11.67 13.9,-0.23 22.78,6.7 23.61,20.56 0.94,15.74 0.42,31.57 0.59,47.37 0.02,1.86 -0.49,2.95 -2.57,2.76 -0.57,-0.05 -1.15,0.01 -1.73,-0 -5.36,-0.11 -12.35,1.78 -15.63,-0.9 -3.46,-2.81 -0.94,-10.08 -1.06,-15.4 -0.19,-8.09 0.05,-16.18 -0.1,-24.27 -0.16,-8.97 -3.88,-13.67 -10.6,-13.8 -7.25,-0.14 -12.5,5.59 -12.61,14.25 -0.16,11.75 -0.17,23.51 0.01,35.26 0.05,3.52 -0.54,5.27 -4.62,4.94 -5.35,-0.44 -12.36,1.73 -15.69,-0.94 -3.52,-2.82 -1.06,-10.12 -1.09,-15.45 -0.12,-26.77 0.06,-53.55 -0.16,-80.33 -0.04,-4.65 1.35,-6.1 5.84,-5.69 4.96,0.44 11.45,-1.48 14.55,1.01 3.29,2.66 0.95,9.4 1.04,14.34 0.18,8.78 0.05,17.56 0.05,27.96zm640.97 17.42c0.87,-7.95 4.62,-13.11 10.53,-14.37 9.07,-1.94 15.08,5.62 14.84,14.09 -8.39,-0.03 -16.91,0.28 -25.37,0.28z"/>
   <path class="fil0" d="M2288.44 410.57c-29.68,0 -59.35,0.23 -89.03,-0.07 -22.17,-0.22 -44.17,-2.33 -65.79,-7.77 -47.02,-11.83 -74.65,-41.95 -84.72,-88.94 -3.8,-17.78 -5.47,-35.78 -5.56,-53.91 -0.18,-35.26 -0.2,-70.52 0,-105.79 0.11,-20.26 2.01,-40.38 7.1,-60.07 11.82,-45.73 41.73,-72.61 87.08,-83.36 18.82,-4.46 37.93,-6.8 57.22,-6.85 67.06,-0.19 134.12,-0.25 201.17,0.03 21.8,0.1 43.36,2.9 64.45,8.85 45.23,12.76 71.69,42.59 81.08,88.27 3.62,17.63 5.21,35.45 5.21,53.37 0,41.04 0.96,82.09 -0.66,123.11 -0.69,17.36 -3.38,34.47 -8.48,51.11 -12.31,40.05 -39.94,63.65 -79.83,73.95 -21.94,5.68 -44.36,7.81 -66.92,7.99 -34.11,0.28 -68.21,0.07 -102.32,0.07zm4.72 46.29c7.23,0 12.27,4.49 12.22,10.88 -0.05,6.32 -5.29,11.06 -12.23,11.06 -6.97,-0.01 -12.07,-4.68 -12.11,-11.1 -0.03,-6.55 4.77,-10.85 12.12,-10.85zm448.53 -46.24c-53.38,0 -106.76,0 -160.13,-0.01 -15.03,0 -20.02,-5.05 -20.04,-20.21 -0.02,-15.61 -0.02,-31.22 0,-46.83 0.01,-15.37 5.09,-20.49 20.42,-20.49 96.34,-0.01 192.69,-0 289.04,-0 1.73,0 3.47,0.01 5.2,0 20.02,-0.11 27.15,-6.81 27.79,-26.89 0.33,-10.19 0.62,-20.42 -0.41,-30.61 -1.34,-13.23 -8.3,-20.14 -21.5,-21.27 -2.49,-0.21 -5.01,-0.14 -7.51,-0.14 -69.57,-0 -139.12,-0.03 -208.69,0.02 -14.52,0.01 -28.8,-1.39 -42.74,-5.64 -29.89,-9.13 -49.74,-28.85 -57.01,-58.92 -8.56,-35.37 -8.24,-71.72 -1.42,-107.19 7.16,-37.22 34.33,-60.48 71.68,-66.46 10.11,-1.62 20.25,-2.37 30.48,-2.37 99.62,0.04 199.25,0.02 298.87,0.03 14.34,0 18.74,4.34 18.77,18.53 0.05,16.57 0.03,33.14 0.01,49.72 -0.03,14.23 -4.81,19.03 -19.14,19.04 -92.3,0.02 -184.6,0.01 -276.9,0.02 -3.65,0 -7.32,0.11 -10.96,0.41 -12.19,0.98 -19.03,7.34 -20.38,19.55 -1.31,11.71 -1.28,23.49 -0.01,35.2 1.3,12.02 8.94,18.91 21.13,19.55 4.42,0.23 8.86,0.16 13.29,0.16 67.06,0.01 134.11,0 201.18,0.01 14.1,0 28.11,1.02 41.74,4.86 35.51,10.02 55.53,34.05 62.54,69.69 3.75,19.09 2.12,38.41 2.32,57.64 0.14,13.08 0.51,26.15 -2.07,39.15 -7.85,39.6 -34.71,65.28 -74.73,71.22 -10.13,1.5 -20.27,2.25 -30.5,2.24 -50.1,-0.05 -100.2,-0.02 -150.3,-0.02zm-1874.82 -136.29c13.24,16.44 26.07,32.3 38.8,48.25 1.66,2.07 3.53,2.5 5.99,2.49 33.53,-0.06 67.06,-0.1 100.59,0.06 3.71,0.02 5.32,-1.46 6.96,-4.48 22.47,-41.4 45.07,-82.73 67.64,-124.07 26.53,-48.6 53.07,-97.19 79.59,-145.8 5.09,-9.31 10.7,-18.26 17.59,-26.36 11.54,-13.59 26.35,-20.55 44.02,-20.62 16.93,-0.08 33.9,-1.29 50.8,0.92 17.1,2.24 30.75,10.43 41.32,23.96 5.47,6.99 10.13,14.49 14.41,22.26 49.24,89.44 98.56,178.83 147.64,268.34 2.53,4.61 5.25,6.03 10.27,5.89 13.1,-0.36 26.21,-0.42 39.3,0.02 5.79,0.2 7.63,-1.09 7.61,-7.34 -0.24,-82.67 -0.16,-165.33 -0.16,-248 0,-8.29 0.32,-16.57 1.75,-24.75 4.65,-26.57 16.7,-39.09 43.59,-40.8 26.87,-1.71 53.91,-1.41 80.86,0.21 15.16,0.91 27.09,8 36.72,19.35 14.96,17.63 28.39,36.45 42.42,54.82 59.97,78.5 119.79,157.11 179.66,235.68 0.7,0.92 1.44,1.81 2.1,2.76 2.05,2.95 5.2,2.57 7.89,2 2.87,-0.6 1.5,-3.52 1.51,-5.35 0.07,-96.35 0.06,-192.7 0.07,-289.05 0,-2.5 -0.08,-5.03 0.25,-7.5 1.21,-8.94 6.02,-13.41 15.05,-13.48 20.81,-0.15 41.63,-0.15 62.44,-0.01 9.71,0.07 14.83,5.2 15.49,14.95 0.1,1.53 0.05,3.08 0.05,4.62 0,107.53 0,215.06 0,322.58 0,10.04 -0.57,20.02 -3.02,29.81 -5.07,20.29 -17.29,31.07 -38.08,33.88 -5.74,0.78 -11.49,1.19 -17.28,1.08 -21.37,-0.42 -42.76,0.64 -64.14,-0.76 -16.87,-1.09 -30.22,-8.48 -40.61,-21.37 -10.87,-13.49 -21.44,-27.23 -31.97,-40.99 -62.94,-82.29 -125.82,-164.62 -188.73,-246.94 -0.94,-1.22 -1.96,-2.38 -2.93,-3.57 -2.19,-2.66 -5.29,-2.55 -7.98,-1.78 -2.71,0.77 -1.37,3.66 -1.37,5.55 -0.07,95.96 -0.06,191.93 -0.07,287.89 0,2.5 0.04,5.02 -0.15,7.51 -0.6,8.34 -5.55,13.46 -13.83,14.31 -2.1,0.21 -4.23,0.13 -6.35,0.13 -56.47,0.01 -112.92,-0.16 -169.38,0.15 -11,0.06 -17.75,-4.14 -22.96,-13.77 -53.94,-99.56 -108.17,-198.98 -162.36,-298.4 -1.47,-2.69 -2.16,-6.1 -6.69,-6.05 -4.57,0.05 -5.09,3.6 -6.52,6.26 -53.45,99.38 -106.91,198.76 -160.11,298.28 -5.19,9.7 -12.09,13.75 -23.03,13.69 -49.33,-0.27 -98.64,1.81 -147.98,1.01 -13.68,-0.22 -27.34,-0.84 -41.02,-1.22 -6.68,-0.18 -11.86,-3.07 -15.56,-8.52 -43.02,-63.22 -91.46,-122.48 -135.09,-185.25 -1.59,-2.29 -4.16,-4.54 -2.41,-7.73 1.63,-3 4.78,-1.94 7.34,-1.95 25.44,-0.07 50.87,-0.04 76.31,-0.06 6.95,-0 13.82,-0.65 20.65,-2.05 15.03,-3.07 24.33,-12.17 27.16,-27.08 3.51,-18.5 3.34,-37.32 0.6,-55.8 -3.03,-20.41 -14.85,-30.04 -35.89,-31.68 -4.99,-0.39 -10.01,-0.54 -15.02,-0.55 -67.63,-0.03 -135.27,-0.02 -202.91,-0.02 -7.92,0 -7.92,0.01 -7.92,7.8 -0.01,97.51 0,195.01 -0.01,292.52 0,16 -4.5,20.44 -20.67,20.45 -18.69,0 -37.39,0.03 -56.07,-0.02 -12.95,-0.03 -18.42,-5.35 -18.42,-18.16 -0.03,-122.17 -0.03,-244.34 0.01,-366.52 0,-15.93 6.3,-22.27 21.93,-22.27 103.67,-0.02 207.35,0 311.02,0.05 16.05,0.01 31.89,1.99 47.39,6.18 39.49,10.7 61.51,37.52 69.54,76.62 6.07,29.54 3.78,59.48 2.92,89.29 -0.3,10.59 -2.56,20.99 -5.53,31.18 -10.43,35.87 -34.56,57.14 -70.33,66.03 -1.28,0.32 -2.56,0.71 -4.7,1.31zm-626.87 -270.69l218.82 0c2.69,0 5.41,-0.11 8.09,0.18 7.58,0.83 12.77,5.63 12.87,13.13 0.29,20.8 0.3,41.61 -0.02,62.42 -0.12,7.43 -5.38,12.42 -12.73,13.4 -2.85,0.39 -5.76,0.44 -8.65,0.44 -54.73,0.02 -109.45,0.09 -164.17,-0.11 -5.17,-0.02 -6.29,1.35 -6.28,6.39 0.16,96.34 0.12,192.68 0.11,289.02 0,2.32 0.04,4.63 -0.07,6.93 -0.43,9.16 -5.71,14.94 -14.88,15.05 -11.03,0.13 -22.07,0.2 -33.1,0.2 -11.03,0 -22.07,-0.07 -33.1,-0.2 -9.17,-0.11 -14.45,-5.89 -14.88,-15.05 -0.1,-2.3 -0.07,-4.62 -0.07,-6.93 -0.01,-96.34 -0.05,-192.68 0.11,-289.02 0,-5.04 -1.11,-6.41 -6.28,-6.39 -54.72,0.2 -109.44,0.13 -164.17,0.11 -2.89,0 -5.79,-0.05 -8.65,-0.44 -7.36,-0.99 -12.61,-5.97 -12.73,-13.4 -0.32,-20.8 -0.31,-41.61 -0.02,-62.42 0.1,-7.5 5.3,-12.3 12.87,-13.13 2.68,-0.29 5.39,-0.18 8.09,-0.18l218.82 -0zm2803.23 -3.63c2.34,-0.01 4.68,-0.01 7.02,-0.01 23.93,2.12 35.14,13.88 35.95,37.86 0.2,5.76 0.12,11.5 -1.11,17.21 -3.49,16.14 -12.91,24.95 -29.2,27.47 -6.95,1.07 -13.82,0.93 -20.65,-0.37 -13.76,-2.63 -22.71,-10.73 -26.3,-24.32 -2.44,-9.23 -2.6,-18.71 -0.93,-28.04 3.48,-19.32 13.91,-27.94 35.21,-29.79zm-14.84 41.42c0,-6.35 0.08,-12.7 -0.04,-19.04 -0.05,-2.49 0.33,-3.96 3.36,-3.85 6.73,0.23 13.48,-0.12 20.2,0.33 6.13,0.42 11.36,3.1 13.05,9.53 1.72,6.56 1.8,13.23 -4.4,17.82 -2.37,1.75 -2.24,2.93 -0.93,5.04 2.13,3.43 3.99,7.01 6.03,10.49 1.11,1.89 0.8,2.71 -1.53,2.85 -4.18,0.24 -8.09,0.36 -9.61,-4.84 -0.52,-1.8 -1.8,-3.38 -2.72,-5.06 -2.28,-4.18 -7.58,-6.18 -11.89,-4.7 -1.53,0.53 -1.44,1.55 -1.46,2.67 -0.04,1.92 -0.29,3.89 0.03,5.76 0.93,5.35 -1.45,6.62 -6.38,6.26 -3.15,-0.23 -3.84,-1.37 -3.77,-4.2 0.15,-6.35 0.05,-12.69 0.05,-19.05zm10.06 -6.85c0.02,-3.8 -1.5,-8.09 5.44,-7.59 8.57,0.61 11.08,1.7 11.19,7.28 0.13,6.13 -2.4,7.98 -10.95,7.97 -5.7,-0.01 -5.7,-0.01 -5.68,-7.65zm8.31 40.02c-19.63,0.02 -29.04,-8.93 -30.01,-28.58 -0.35,-7.15 -0.08,-14.25 2.24,-21.11 2.52,-7.41 7.44,-12.44 15.08,-14.59 8.34,-2.36 16.71,-2.38 25.06,-0.08 8.35,2.3 13.45,7.86 15.71,16.1 2.71,9.86 2.82,19.81 0.13,29.64 -3.51,12.82 -12.48,18.6 -28.2,18.62zm-745.28 16.35c26.79,0.38 59.73,-0.63 92.66,0.52 6.75,0.24 13.41,1.31 19.99,2.74 20.98,4.55 31.31,18.74 34.75,38.95 1.52,8.92 2.42,17.92 2.42,27 -0,31.39 -0,62.79 -0,94.18 0,9.07 -0.87,18.08 -2.47,26.99 -4.46,24.83 -17.84,37.18 -43.52,40.28 -5.34,0.65 -10.74,1.26 -16.1,1.27 -63.17,0.08 -126.34,0.05 -189.52,0.02 -7.54,-0 -14.98,-1.05 -22.32,-2.62 -20.87,-4.46 -32.03,-16.47 -35.97,-38.42 -1.47,-8.15 -2.45,-16.36 -2.44,-24.67 0.03,-34.28 0.03,-68.57 0.07,-102.85 0,-7.92 1.03,-15.76 2.64,-23.49 4.88,-23.43 17.91,-34.99 42.26,-38.19 10.16,-1.33 20.34,-1.65 30.54,-1.68 26.96,-0.08 53.92,-0.03 87.03,-0.03z"/>
  </g>
 </g>
</svg>
