<?xml version="1.0" encoding="UTF-8"?>
<!DOCTYPE svg PUBLIC "-//W3C//DTD SVG 1.1//EN" "http://www.w3.org/Graphics/SVG/1.1/DTD/svg11.dtd">
<!-- Creator: CorelDRAW 2019 (64-Bit) -->
<svg xmlns="http://www.w3.org/2000/svg" xml:space="preserve" width="2.40315in" height="0.196409in" version="1.1" style="shape-rendering:geometricPrecision; text-rendering:geometricPrecision; image-rendering:optimizeQuality; fill-rule:evenodd; clip-rule:evenodd"
viewBox="0 0 610.24 49.87"
 xmlns:xlink="http://www.w3.org/1999/xlink"
 xmlns:xodm="http://www.corel.com/coreldraw/odm/2003">
 <defs>
  <style type="text/css">
   <![CDATA[
    .fil0 {fill:#313E80}
    .fil1 {fill:#848688;fill-rule:nonzero}
   ]]>
  </style>
 </defs>
 <g id="Layer_x0020_1">
  <metadata id="CorelCorpID_0Corel-Layer"/>
  <g id="_2291491984832">
   <path class="fil0" d="M274.39 49.29c-3.56,0 -7.12,0.03 -10.68,-0.01 -2.66,-0.03 -5.3,-0.28 -7.89,-0.93 -5.64,-1.42 -8.95,-5.03 -10.16,-10.66 -0.46,-2.13 -0.66,-4.29 -0.67,-6.46 -0.02,-4.23 -0.02,-8.46 0,-12.68 0.01,-2.43 0.24,-4.84 0.85,-7.2 1.42,-5.48 5,-8.71 10.44,-10 2.26,-0.53 4.55,-0.81 6.86,-0.82 8.04,-0.02 16.08,-0.03 24.12,0 2.61,0.01 5.2,0.35 7.73,1.06 5.42,1.53 8.6,5.11 9.72,10.58 0.43,2.11 0.62,4.25 0.62,6.4 0,4.92 0.11,9.84 -0.08,14.76 -0.08,2.08 -0.4,4.13 -1.02,6.13 -1.48,4.8 -4.79,7.63 -9.57,8.87 -2.63,0.68 -5.32,0.94 -8.02,0.96 -4.09,0.03 -8.18,0.01 -12.27,0.01zm54.35 0.01c-6.4,0 -12.8,0 -19.2,0 -1.8,0 -2.4,-0.61 -2.4,-2.42 -0,-1.87 -0,-3.74 0,-5.61 0,-1.84 0.61,-2.46 2.45,-2.46 11.55,-0 23.1,0 34.66,0 0.21,0 0.42,0 0.62,0 2.4,-0.01 3.26,-0.82 3.33,-3.22 0.04,-1.22 0.07,-2.45 -0.05,-3.67 -0.16,-1.59 -0.99,-2.41 -2.58,-2.55 -0.3,-0.03 -0.6,-0.02 -0.9,-0.02 -8.34,-0 -16.68,-0 -25.02,0 -1.74,0 -3.45,-0.17 -5.12,-0.68 -3.58,-1.09 -5.96,-3.46 -6.84,-7.06 -1.03,-4.24 -0.99,-8.6 -0.17,-12.85 0.86,-4.46 4.12,-7.25 8.59,-7.97 1.21,-0.19 2.43,-0.28 3.65,-0.28 11.95,0 23.89,0 35.84,0 3.49,0 2.26,5.26 2.25,8.18 -0,1.71 -0.58,2.28 -2.3,2.28 -11.07,0 -22.13,0 -33.2,0 -0.44,0 -0.88,0.01 -1.31,0.05 -1.46,0.12 -2.28,0.88 -2.44,2.34 -0.16,1.4 -0.15,2.82 -0,4.22 0.16,1.44 1.07,2.27 2.53,2.34 0.53,0.03 1.06,0.02 1.59,0.02 8.04,0 16.08,0 24.12,0 1.69,0 3.37,0.12 5,0.58 4.26,1.2 6.66,4.08 7.5,8.36 0.45,2.29 0.25,4.61 0.28,6.91 0.02,1.57 0.06,3.14 -0.25,4.69 -0.94,4.75 -4.16,7.83 -8.96,8.54 -1.21,0.18 -2.43,0.27 -3.66,0.27 -6.01,-0.01 -12.01,-0 -18.02,-0zm-224.8 -16.34c1.59,1.97 3.13,3.87 4.65,5.79 0.2,0.25 0.42,0.3 0.72,0.3 4.02,-0.01 8.04,-0.01 12.06,0.01 0.44,0 0.64,-0.18 0.83,-0.54 2.69,-4.96 5.4,-9.92 8.11,-14.88 3.18,-5.83 6.36,-11.65 9.54,-17.48 0.61,-1.12 1.28,-2.19 2.11,-3.16 1.38,-1.63 3.16,-2.46 5.28,-2.47 2.03,-0.01 4.07,-0.15 6.09,0.11 2.05,0.27 3.69,1.25 4.95,2.87 0.65,0.84 1.21,1.74 1.73,2.67 5.9,10.72 11.82,21.44 17.7,32.17 0.3,0.55 0.63,0.72 1.23,0.71 1.57,-0.04 3.14,-0.05 4.71,0 0.69,0.02 0.91,-0.13 0.91,-0.88 -0.03,-9.91 -0.02,-19.82 -0.02,-29.74 0,-0.99 0.04,-1.99 0.21,-2.97 0.56,-3.19 2,-4.69 5.23,-4.89 3.22,-0.2 6.46,-0.17 9.7,0.02 1.82,0.11 3.25,0.96 4.4,2.32 1.79,2.11 3.41,4.37 5.09,6.57 7.19,9.41 14.36,18.84 21.54,28.26 0.08,0.11 0.17,0.22 0.25,0.33 0.24,0.35 0.62,0.31 0.95,0.24 0.34,-0.07 0.18,-0.42 0.18,-0.64 0.01,-11.55 0.01,-23.1 0.01,-34.66 0,-0.3 -0.01,-0.6 0.03,-0.9 0.14,-1.07 0.72,-1.61 1.8,-1.62 2.5,-0.02 4.99,-0.02 7.49,-0 1.16,0.01 1.78,0.62 1.86,1.79 0.01,0.18 0.01,0.37 0.01,0.55 0,12.89 0,25.79 0,38.68 0,1.2 -0.07,2.4 -0.36,3.57 -0.61,2.43 -2.07,3.73 -4.57,4.06 -0.69,0.09 -1.38,0.14 -2.07,0.13 -2.56,-0.05 -5.13,0.08 -7.69,-0.09 -2.02,-0.13 -3.62,-1.02 -4.87,-2.56 -1.3,-1.62 -2.57,-3.26 -3.83,-4.91 -7.55,-9.87 -15.09,-19.74 -22.63,-29.61 -0.11,-0.15 -0.23,-0.28 -0.35,-0.43 -0.26,-0.32 -0.63,-0.3 -0.96,-0.21 -0.32,0.09 -0.16,0.44 -0.16,0.67 -0.01,11.51 -0.01,23.01 -0.01,34.52 0,0.3 0,0.6 -0.02,0.9 -0.07,1 -0.66,1.61 -1.66,1.72 -0.25,0.03 -0.51,0.02 -0.76,0.02 -6.77,0 -13.54,-0.02 -20.31,0.02 -1.32,0.01 -2.13,-0.5 -2.75,-1.65 -6.47,-11.94 -12.97,-23.86 -19.47,-35.78 -0.18,-0.32 -0.26,-0.73 -0.8,-0.72 -0.55,0.01 -0.61,0.43 -0.78,0.75 -6.41,11.92 -12.82,23.83 -19.2,35.76 -0.62,1.16 -1.45,1.65 -2.76,1.64 -5.91,-0.03 -11.83,0.22 -17.74,0.12 -1.64,-0.03 -3.28,-0.1 -4.92,-0.15 -0.8,-0.02 -1.42,-0.37 -1.87,-1.02 -5.16,-7.58 -10.97,-14.69 -16.2,-22.21 -0.19,-0.28 -0.5,-0.54 -0.29,-0.93 0.2,-0.36 0.57,-0.23 0.88,-0.23 3.05,-0.01 6.1,-0 9.15,-0.01 0.83,0 1.66,-0.08 2.48,-0.25 1.8,-0.37 2.92,-1.46 3.26,-3.25 0.42,-2.22 0.4,-4.47 0.07,-6.69 -0.36,-2.45 -1.78,-3.6 -4.3,-3.8 -0.6,-0.05 -1.2,-0.06 -1.8,-0.07 -8.11,-0 -16.22,-0 -24.33,-0 -0.95,0 -0.95,0 -0.95,0.93 0,11.69 0,23.38 0,35.07 0,1.92 -0.54,2.45 -2.48,2.45 -2.24,0 -4.48,0 -6.72,-0 -1.55,-0 -2.21,-0.64 -2.21,-2.18 -0,-14.65 -0,-29.3 0,-43.95 0,-1.91 0.76,-2.67 2.63,-2.67 12.43,-0 24.86,0 37.29,0.01 1.92,0 3.82,0.24 5.68,0.74 4.74,1.28 7.38,4.5 8.34,9.19 0.73,3.54 0.45,7.13 0.35,10.71 -0.04,1.27 -0.31,2.52 -0.66,3.74 -1.25,4.3 -4.14,6.85 -8.43,7.92 -0.15,0.04 -0.31,0.08 -0.56,0.16zm-75.16 -32.46l26.24 0c0.32,0 0.65,-0.01 0.97,0.02 0.91,0.1 1.53,0.67 1.54,1.57 0.03,2.49 0.04,4.99 -0,7.48 -0.01,0.89 -0.64,1.49 -1.53,1.61 -0.34,0.05 -0.69,0.05 -1.04,0.05 -6.56,0 -13.12,0.01 -19.68,-0.01 -0.62,-0 -0.75,0.16 -0.75,0.77 0.02,11.55 0.01,23.1 0.01,34.65 0,0.28 0,0.55 -0.01,0.83 -0.05,1.1 -0.68,1.79 -1.78,1.8 -1.32,0.02 -2.65,0.02 -3.97,0.02 -1.32,0 -2.65,-0.01 -3.97,-0.02 -1.1,-0.01 -1.73,-0.71 -1.78,-1.8 -0.01,-0.28 -0.01,-0.55 -0.01,-0.83 -0,-11.55 -0,-23.1 0.01,-34.65 0,-0.6 -0.13,-0.77 -0.75,-0.77 -6.56,0.02 -13.12,0.01 -19.68,0.01 -0.34,0 -0.69,-0.01 -1.04,-0.05 -0.88,-0.12 -1.51,-0.72 -1.53,-1.61 -0.04,-2.49 -0.04,-4.99 -0,-7.48 0.01,-0.9 0.63,-1.48 1.54,-1.57 0.32,-0.03 0.65,-0.02 0.97,-0.02l26.24 -0zm247.18 10.47c3.21,0.05 7.16,-0.07 11.11,0.06 0.81,0.03 1.61,0.16 2.4,0.33 2.52,0.55 3.75,2.25 4.17,4.67 0.18,1.07 0.29,2.15 0.29,3.24 -0,3.76 -0,7.53 -0,11.29 0,1.09 -0.1,2.17 -0.3,3.24 -0.53,2.98 -2.14,4.46 -5.22,4.83 -0.64,0.08 -1.29,0.15 -1.93,0.15 -7.58,0.01 -15.15,0.01 -22.72,0 -0.9,0 -1.8,-0.13 -2.68,-0.31 -2.5,-0.53 -3.84,-1.97 -4.31,-4.61 -0.17,-0.98 -0.29,-1.96 -0.29,-2.96 0,-4.11 0,-8.22 0.01,-12.33 0,-0.95 0.12,-1.89 0.32,-2.82 0.58,-2.81 2.15,-4.19 5.07,-4.58 1.22,-0.16 2.44,-0.2 3.66,-0.2 3.23,-0.01 6.47,-0 10.44,-0z"/>
   <path class="fil1" d="M422.81 40.64l10.25 0 19.14 -35.07c0.59,-1.07 1.19,-1.97 1.77,-2.7 0.6,-0.74 1.2,-1.31 1.8,-1.7 0.6,-0.39 1.25,-0.67 1.94,-0.87 0.69,-0.19 1.43,-0.29 2.22,-0.29l4.13 0c0.92,0 1.77,0.1 2.55,0.28 0.79,0.19 1.51,0.48 2.15,0.86 0.65,0.38 1.29,0.95 1.91,1.69 0.62,0.73 1.22,1.63 1.82,2.7l23.16 42.06c0.29,0.58 0.36,1.09 0.19,1.51 -0.1,0.26 -0.29,0.46 -0.57,0.58 -0.23,0.1 -0.52,0.15 -0.86,0.15l-8.88 0c-0.97,0 -1.64,-0.38 -2,-1.15l-20.49 -37.62c-0.05,-0.1 -0.12,-0.17 -0.18,-0.21 -0.06,-0.03 -0.12,-0.05 -0.2,-0.05l-0.42 0c-0.08,0 -0.15,0.02 -0.2,0.05 -0.06,0.04 -0.13,0.11 -0.18,0.21l-20.49 38.04c-0.16,0.18 -0.34,0.33 -0.54,0.45 -0.34,0.19 -0.73,0.28 -1.18,0.28l-1.6 0 -7.5 0 -0.02 0 -0.02 0 -0.02 0 -3.42 0 -0.02 0 -0.02 0 -0.02 0 -7.93 0 -1.1 0c-0.32,0 -0.6,-0.02 -0.84,-0.06 -0.26,-0.04 -0.48,-0.12 -0.64,-0.21 -0.15,-0.09 -0.29,-0.2 -0.44,-0.35 -0.13,-0.13 -0.27,-0.29 -0.4,-0.48l-10.91 -14.36 -21.93 0 0 13.48c0,0.63 -0.17,1.12 -0.51,1.47 -0.34,0.34 -0.83,0.51 -1.47,0.51l-7.56 0c-0.65,0 -1.16,-0.17 -1.51,-0.51 -0.36,-0.34 -0.54,-0.84 -0.54,-1.47l0 -45.33c0,-0.82 0.22,-1.45 0.65,-1.89 0.43,-0.43 1.07,-0.65 1.89,-0.65l37.56 0c5.49,0 9.44,1.26 11.86,3.78 2.41,2.51 3.62,6.2 3.62,11.08l0 3.99c0,4.1 -0.84,7.36 -2.53,9.77 -0.85,1.22 -1.98,2.22 -3.36,3 -1.19,0.67 -2.58,1.18 -4.17,1.52l6.04 7.49zm142 -40.64c1.04,0 1.56,0.52 1.56,1.56l0 18.82 9.98 0c1.13,0 2.08,-0.03 2.83,-0.11 0.75,-0.07 1.41,-0.22 1.98,-0.46 0.57,-0.24 1.08,-0.57 1.56,-0.99 0.47,-0.42 0.97,-0.97 1.49,-1.63l12.17 -16.27c0.24,-0.33 0.47,-0.57 0.71,-0.71 0.24,-0.14 0.68,-0.21 1.34,-0.21l8.77 0c0.61,0 0.98,0.2 1.1,0.6 0.12,0.4 0.06,0.77 -0.18,1.1l-13.72 17.76c-0.8,1.08 -1.54,2 -2.23,2.76 -0.68,0.75 -1.36,1.41 -2.02,1.98 1.84,1.13 3.63,2.83 5.38,5.09l14.5 18.39c0.19,0.24 0.26,0.6 0.21,1.1 -0.05,0.49 -0.42,0.74 -1.13,0.74l-9.06 0c-0.61,0 -1.04,-0.07 -1.27,-0.21 -0.24,-0.14 -0.47,-0.38 -0.71,-0.71l-13.02 -16.84c-0.94,-1.23 -1.96,-2.06 -3.04,-2.51 -1.08,-0.45 -2.71,-0.67 -4.88,-0.67l-10.75 0 0 19.38c0,1.04 -0.52,1.56 -1.56,1.56l-7.64 0c-1.08,0 -1.63,-0.52 -1.63,-1.56l0 -46.41c0,-1.04 0.54,-1.56 1.63,-1.56l7.64 0zm-181.98 25l26.35 0c1.15,0 2.12,-0.12 2.92,-0.36 0.76,-0.23 1.37,-0.58 1.8,-1.04 0.44,-0.46 0.78,-1.05 1,-1.77 0.23,-0.73 0.35,-1.61 0.35,-2.61l0 -2.94c0,-1.01 -0.12,-1.88 -0.35,-2.61 -0.22,-0.71 -0.56,-1.31 -1,-1.77 -0.44,-0.46 -1.04,-0.8 -1.8,-1.04 -0.79,-0.24 -1.77,-0.36 -2.92,-0.36l-25.88 0c-0.31,0 -0.47,0.13 -0.47,0.4l0 14.11zm164.14 -24.97c0.63,0 1.12,0.17 1.47,0.51 0.34,0.34 0.51,0.83 0.51,1.47l0 6.86c0,0.65 -0.17,1.16 -0.51,1.51 -0.34,0.36 -0.83,0.54 -1.47,0.54l-31.13 0c-0.9,0 -1.72,0.04 -2.45,0.11 -0.72,0.07 -1.38,0.18 -1.95,0.33 -0.56,0.14 -1.06,0.33 -1.5,0.57 -0.43,0.24 -0.81,0.52 -1.13,0.85 -0.32,0.33 -0.6,0.72 -0.83,1.16 -0.23,0.45 -0.42,0.97 -0.57,1.54 -0.15,0.59 -0.26,1.26 -0.33,2 -0.07,0.74 -0.11,1.58 -0.11,2.51l0 9.93c0,0.93 0.04,1.77 0.11,2.52 0.07,0.75 0.18,1.43 0.33,2.03 0.14,0.58 0.33,1.11 0.57,1.57 0.23,0.45 0.51,0.84 0.82,1.17 0.32,0.33 0.7,0.61 1.13,0.85 0.43,0.24 0.94,0.43 1.5,0.57 0.58,0.15 1.23,0.26 1.95,0.33 0.73,0.07 1.55,0.11 2.45,0.11l31.13 0c0.63,0 1.12,0.17 1.47,0.51 0.34,0.34 0.51,0.83 0.51,1.47l0 6.86c0,0.63 -0.17,1.12 -0.51,1.47 -0.34,0.34 -0.84,0.51 -1.47,0.51l-31.55 0c-3.58,0 -6.63,-0.33 -9.14,-0.99 -1.27,-0.33 -2.42,-0.78 -3.46,-1.32 -1.04,-0.55 -1.97,-1.21 -2.78,-1.97 -0.81,-0.76 -1.51,-1.64 -2.11,-2.63 -0.59,-0.99 -1.07,-2.09 -1.44,-3.3 -0.37,-1.2 -0.65,-2.53 -0.83,-3.98 -0.18,-1.45 -0.27,-3.03 -0.27,-4.72l0 -12.03c0,-3.4 0.37,-6.29 1.1,-8.66 0.37,-1.2 0.85,-2.29 1.44,-3.27 0.59,-0.98 1.3,-1.86 2.11,-2.62 0.81,-0.76 1.74,-1.42 2.78,-1.97 1.03,-0.55 2.19,-1 3.46,-1.35 2.51,-0.69 5.56,-1.03 9.14,-1.03l31.55 0z"/>
  </g>
 </g>
</svg>
