<?xml version="1.0" encoding="UTF-8"?>
<!DOCTYPE svg PUBLIC "-//W3C//DTD SVG 1.1//EN" "http://www.w3.org/Graphics/SVG/1.1/DTD/svg11.dtd">
<!-- Creator: CorelDRAW 2019 (64-Bit) -->
<svg xmlns="http://www.w3.org/2000/svg" xml:space="preserve" width="2.12554in" height="0.171996in" version="1.1" style="shape-rendering:geometricPrecision; text-rendering:geometricPrecision; image-rendering:optimizeQuality; fill-rule:evenodd; clip-rule:evenodd"
viewBox="0 0 451.15 36.51"
 xmlns:xlink="http://www.w3.org/1999/xlink"
 xmlns:xodm="http://www.corel.com/coreldraw/odm/2003">
 <defs>
  <style type="text/css">
   <![CDATA[
    .fil0 {fill:#FEFEFE}
    .fil1 {fill:#96989A;fill-rule:nonzero}
   ]]>
  </style>
 </defs>
 <g id="Layer_x0020_1">
  <metadata id="CorelCorpID_0Corel-Layer"/>
  <g id="_2163237656768">
   <path class="fil0" d="M200.94 36.08c-2.61,0 -5.21,0.02 -7.82,-0.01 -1.95,-0.02 -3.88,-0.2 -5.78,-0.68 -4.13,-1.04 -6.55,-3.68 -7.44,-7.81 -0.33,-1.56 -0.48,-3.14 -0.49,-4.73 -0.02,-3.1 -0.02,-6.19 0,-9.29 0.01,-1.78 0.18,-3.54 0.62,-5.27 1.04,-4.02 3.66,-6.38 7.65,-7.32 1.65,-0.39 3.33,-0.6 5.02,-0.6 5.89,-0.02 11.78,-0.02 17.66,0 1.91,0.01 3.81,0.25 5.66,0.78 3.97,1.12 6.29,3.74 7.12,7.75 0.32,1.55 0.46,3.11 0.46,4.69 0,3.6 0.08,7.21 -0.06,10.81 -0.06,1.52 -0.3,3.03 -0.75,4.49 -1.08,3.52 -3.51,5.59 -7.01,6.49 -1.93,0.5 -3.89,0.69 -5.88,0.7 -2.99,0.02 -5.99,0.01 -8.98,0.01zm39.8 0.01c-4.69,0 -9.37,0 -14.06,-0 -1.32,0 -1.76,-0.44 -1.76,-1.77 -0,-1.37 -0,-2.74 0,-4.11 0,-1.35 0.45,-1.8 1.79,-1.8 8.46,-0 16.92,0 25.38,0 0.15,0 0.3,0 0.46,0 1.76,-0.01 2.38,-0.6 2.44,-2.36 0.03,-0.89 0.06,-1.79 -0.04,-2.69 -0.12,-1.16 -0.73,-1.77 -1.89,-1.87 -0.22,-0.02 -0.44,-0.01 -0.66,-0.01 -6.11,0 -12.22,-0 -18.32,0 -1.27,0 -2.53,-0.12 -3.75,-0.5 -2.62,-0.8 -4.37,-2.53 -5.01,-5.17 -0.75,-3.11 -0.72,-6.3 -0.12,-9.41 0.63,-3.27 3.01,-5.31 6.29,-5.84 0.89,-0.14 1.78,-0.21 2.68,-0.21 8.75,0 17.5,0 26.24,0 2.56,0 1.65,3.85 1.65,5.99 -0,1.25 -0.42,1.67 -1.68,1.67 -8.1,0 -16.21,0 -24.31,0 -0.32,0 -0.64,0.01 -0.96,0.04 -1.07,0.09 -1.67,0.64 -1.79,1.72 -0.12,1.03 -0.11,2.06 -0,3.09 0.11,1.06 0.78,1.66 1.86,1.72 0.39,0.02 0.78,0.01 1.17,0.01 5.89,0 11.78,0 17.66,0 1.24,0 2.47,0.09 3.67,0.43 3.12,0.88 4.88,2.99 5.49,6.12 0.33,1.68 0.19,3.37 0.2,5.06 0.01,1.15 0.05,2.3 -0.18,3.44 -0.69,3.48 -3.05,5.73 -6.56,6.25 -0.89,0.13 -1.78,0.2 -2.68,0.2 -4.4,-0 -8.8,-0 -13.2,-0zm-164.62 -11.97c1.16,1.44 2.29,2.84 3.41,4.24 0.15,0.18 0.31,0.22 0.53,0.22 2.94,-0.01 5.89,-0.01 8.83,0.01 0.33,0 0.47,-0.13 0.61,-0.39 1.97,-3.63 3.96,-7.26 5.94,-10.89 2.33,-4.27 4.66,-8.53 6.99,-12.8 0.45,-0.82 0.94,-1.6 1.54,-2.31 1.01,-1.19 2.31,-1.8 3.87,-1.81 1.49,-0.01 2.98,-0.11 4.46,0.08 1.5,0.2 2.7,0.92 3.63,2.1 0.48,0.61 0.89,1.27 1.27,1.95 4.32,7.85 8.65,15.7 12.96,23.56 0.22,0.41 0.46,0.53 0.9,0.52 1.15,-0.03 2.3,-0.04 3.45,0 0.51,0.02 0.67,-0.1 0.67,-0.64 -0.02,-7.26 -0.01,-14.52 -0.01,-21.78 0,-0.73 0.03,-1.45 0.15,-2.17 0.41,-2.33 1.47,-3.43 3.83,-3.58 2.36,-0.15 4.73,-0.12 7.1,0.02 1.33,0.08 2.38,0.7 3.22,1.7 1.31,1.55 2.49,3.2 3.72,4.81 5.27,6.89 10.52,13.8 15.78,20.69 0.06,0.08 0.13,0.16 0.18,0.24 0.18,0.26 0.46,0.23 0.69,0.18 0.25,-0.05 0.13,-0.31 0.13,-0.47 0.01,-8.46 0.01,-16.92 0.01,-25.38 0,-0.22 -0.01,-0.44 0.02,-0.66 0.11,-0.78 0.53,-1.18 1.32,-1.18 1.83,-0.01 3.66,-0.01 5.48,-0 0.85,0.01 1.3,0.46 1.36,1.31 0.01,0.13 0.01,0.27 0.01,0.41 0,9.44 0,18.88 0,28.33 0,0.88 -0.05,1.76 -0.26,2.62 -0.45,1.78 -1.52,2.73 -3.34,2.97 -0.5,0.07 -1.01,0.1 -1.52,0.09 -1.88,-0.04 -3.75,0.06 -5.63,-0.07 -1.48,-0.1 -2.65,-0.74 -3.57,-1.88 -0.95,-1.18 -1.88,-2.39 -2.81,-3.6 -5.53,-7.23 -11.05,-14.45 -16.57,-21.68 -0.08,-0.11 -0.17,-0.21 -0.26,-0.31 -0.19,-0.23 -0.46,-0.22 -0.7,-0.16 -0.24,0.07 -0.12,0.32 -0.12,0.49 -0.01,8.43 -0.01,16.85 -0.01,25.28 0,0.22 0,0.44 -0.01,0.66 -0.05,0.73 -0.49,1.18 -1.21,1.26 -0.18,0.02 -0.37,0.01 -0.56,0.01 -4.96,0 -9.92,-0.01 -14.87,0.01 -0.97,0.01 -1.56,-0.36 -2.02,-1.21 -4.74,-8.74 -9.5,-17.47 -14.26,-26.2 -0.13,-0.24 -0.19,-0.54 -0.59,-0.53 -0.4,0.01 -0.45,0.32 -0.57,0.55 -4.69,8.73 -9.39,17.45 -14.06,26.19 -0.46,0.85 -1.06,1.21 -2.02,1.2 -4.33,-0.02 -8.66,0.16 -12.99,0.09 -1.2,-0.02 -2.4,-0.07 -3.6,-0.11 -0.59,-0.02 -1.04,-0.27 -1.37,-0.75 -3.78,-5.55 -8.03,-10.75 -11.86,-16.27 -0.14,-0.2 -0.37,-0.4 -0.21,-0.68 0.14,-0.26 0.42,-0.17 0.64,-0.17 2.23,-0.01 4.47,-0 6.7,-0.01 0.61,0 1.21,-0.06 1.81,-0.18 1.32,-0.27 2.14,-1.07 2.38,-2.38 0.31,-1.62 0.29,-3.28 0.05,-4.9 -0.27,-1.79 -1.3,-2.64 -3.15,-2.78 -0.44,-0.03 -0.88,-0.05 -1.32,-0.05 -5.94,-0 -11.88,-0 -17.82,-0 -0.7,0 -0.7,0 -0.7,0.68 0,8.56 0,17.12 0,25.69 0,1.4 -0.4,1.79 -1.81,1.8 -1.64,0 -3.28,0 -4.92,-0 -1.14,-0 -1.62,-0.47 -1.62,-1.59 -0,-10.73 -0,-21.45 0,-32.18 0,-1.4 0.55,-1.96 1.93,-1.96 9.1,-0 18.21,0 27.31,0 1.41,0 2.8,0.17 4.16,0.54 3.47,0.94 5.4,3.29 6.11,6.73 0.53,2.59 0.33,5.22 0.26,7.84 -0.03,0.93 -0.22,1.84 -0.49,2.74 -0.92,3.15 -3.04,5.02 -6.18,5.8 -0.11,0.03 -0.22,0.06 -0.41,0.12zm-55.04 -23.77l19.21 0c0.24,0 0.48,-0.01 0.71,0.02 0.67,0.07 1.12,0.49 1.13,1.15 0.03,1.83 0.03,3.65 -0,5.48 -0.01,0.65 -0.47,1.09 -1.12,1.18 -0.25,0.03 -0.51,0.04 -0.76,0.04 -4.81,0 -9.61,0.01 -14.42,-0.01 -0.45,-0 -0.55,0.12 -0.55,0.56 0.01,8.46 0.01,16.92 0.01,25.38 0,0.2 0,0.41 -0.01,0.61 -0.04,0.8 -0.5,1.31 -1.31,1.32 -0.97,0.01 -1.94,0.02 -2.91,0.02 -0.97,0 -1.94,-0.01 -2.91,-0.02 -0.81,-0.01 -1.27,-0.52 -1.31,-1.32 -0.01,-0.2 -0.01,-0.41 -0.01,-0.61 -0,-8.46 -0,-16.92 0.01,-25.38 0,-0.44 -0.1,-0.56 -0.55,-0.56 -4.8,0.02 -9.61,0.01 -14.42,0.01 -0.25,0 -0.51,-0 -0.76,-0.04 -0.65,-0.09 -1.11,-0.52 -1.12,-1.18 -0.03,-1.83 -0.03,-3.65 -0,-5.48 0.01,-0.66 0.47,-1.08 1.13,-1.15 0.23,-0.03 0.47,-0.02 0.71,-0.02l19.21 0zm244.84 3.32c0,-5.29 0,6.3 0,0zm-1.02 0.4c-0.52,-10.62 0.47,9.51 0,0zm-62.81 3.94c2.35,0.03 5.25,-0.06 8.14,0.05 0.59,0.02 1.18,0.11 1.75,0.24 1.84,0.4 2.75,1.65 3.05,3.42 0.13,0.78 0.21,1.57 0.21,2.37 -0,2.76 -0,5.51 -0,8.27 0,0.8 -0.08,1.59 -0.22,2.37 -0.39,2.18 -1.57,3.26 -3.82,3.54 -0.47,0.06 -0.94,0.11 -1.41,0.11 -5.55,0.01 -11.09,0 -16.64,0 -0.66,0 -1.32,-0.09 -1.96,-0.23 -1.83,-0.39 -2.81,-1.45 -3.16,-3.37 -0.13,-0.72 -0.21,-1.44 -0.21,-2.17 0,-3.01 0,-6.02 0.01,-9.03 0,-0.7 0.09,-1.38 0.23,-2.06 0.43,-2.06 1.57,-3.07 3.71,-3.35 0.89,-0.12 1.79,-0.14 2.68,-0.15 2.37,-0.01 4.73,-0 7.64,-0z"/>
   <path class="fil1" d="M317.06 0c0.48,0 0.85,0.12 1.11,0.37 0.26,0.25 0.4,0.61 0.4,1.08l0 5.02c0,0.48 -0.13,0.85 -0.39,1.11 -0.26,0.26 -0.63,0.39 -1.11,0.39l-15.76 0 0 27.08c0,0.97 -0.48,1.45 -1.45,1.45l-5.58 0c-0.46,0 -0.82,-0.13 -1.07,-0.38 -0.25,-0.25 -0.38,-0.61 -0.38,-1.07l0 -27.08 -15.76 0c-0.48,0 -0.85,-0.13 -1.11,-0.39 -0.26,-0.26 -0.39,-0.63 -0.39,-1.11l0 -5.02c0,-0.97 0.5,-1.45 1.5,-1.45l40.01 0zm41.71 29.74l7.5 0 14.01 -25.68c0.44,-0.79 0.87,-1.44 1.3,-1.97 0.44,-0.54 0.88,-0.96 1.32,-1.24 0.44,-0.28 0.91,-0.49 1.42,-0.64 0.51,-0.14 1.05,-0.21 1.62,-0.21l3.02 0c0.67,0 1.3,0.07 1.87,0.21 0.58,0.14 1.1,0.35 1.58,0.63 0.47,0.28 0.94,0.7 1.4,1.24 0.45,0.54 0.89,1.2 1.33,1.98l16.96 30.8c0.21,0.43 0.26,0.8 0.14,1.11 -0.08,0.19 -0.22,0.34 -0.42,0.43 -0.17,0.08 -0.38,0.11 -0.63,0.11l-6.51 0c-0.71,0 -1.2,-0.28 -1.46,-0.84l-3.54 -6.43 -23.69 0 -3.44 6.44c-0.15,0.28 -0.35,0.49 -0.6,0.63 -0.25,0.14 -0.53,0.21 -0.86,0.21l-1.17 0 -5.49 0 -0.01 0 -0.01 0 -0.01 0 -2.5 0 -0.01 0 -0.01 0 -0.01 0 -5.81 0 -0.8 0c-0.24,0 -0.44,-0.02 -0.62,-0.04 -0.19,-0.03 -0.36,-0.09 -0.47,-0.16 -0.11,-0.06 -0.21,-0.15 -0.32,-0.25 -0.1,-0.1 -0.2,-0.22 -0.29,-0.35l-7.99 -10.52 -16.06 0 0 9.87c0,0.46 -0.13,0.82 -0.38,1.07 -0.25,0.25 -0.61,0.38 -1.07,0.38l-5.53 0c-0.48,0 -0.85,-0.13 -1.11,-0.37 -0.26,-0.25 -0.4,-0.61 -0.4,-1.08l0 -33.2c0,-0.6 0.16,-1.06 0.48,-1.38 0.32,-0.32 0.78,-0.48 1.38,-0.48l27.51 0c4.02,0 6.92,0.92 8.69,2.76 1.77,1.84 2.65,4.54 2.65,8.11l0 2.92c0,3 -0.62,5.39 -1.85,7.15 -0.63,0.89 -1.45,1.63 -2.46,2.2 -0.87,0.49 -1.89,0.86 -3.05,1.11l4.42 5.49zm-29.28 -11.45l19.3 0c0.84,0 1.55,-0.09 2.13,-0.27 0.56,-0.17 1,-0.42 1.32,-0.76 0.32,-0.34 0.57,-0.77 0.73,-1.3 0.17,-0.54 0.25,-1.18 0.25,-1.91l0 -2.15c0,-0.74 -0.09,-1.38 -0.25,-1.91 -0.16,-0.52 -0.41,-0.96 -0.73,-1.3 -0.32,-0.34 -0.76,-0.59 -1.32,-0.76 -0.58,-0.18 -1.29,-0.27 -2.13,-0.27l-18.95 0c-0.23,0 -0.34,0.1 -0.34,0.29l0 10.33zm50.08 4.35l16.54 0 -7.89 -14.53c-0.04,-0.07 -0.09,-0.12 -0.13,-0.15 -0.04,-0.03 -0.09,-0.04 -0.15,-0.04l-0.31 0c-0.06,0 -0.11,0.01 -0.15,0.04 -0.05,0.03 -0.09,0.08 -0.13,0.15l-7.79 14.53zm70.12 -22.64c0.46,0 0.82,0.13 1.07,0.38 0.25,0.25 0.38,0.61 0.38,1.07l0 5.02c0,0.48 -0.12,0.85 -0.37,1.11 -0.25,0.26 -0.61,0.4 -1.08,0.4l-22.8 0c-0.66,0 -1.26,0.03 -1.79,0.08 -0.53,0.05 -1.01,0.13 -1.43,0.24 -0.41,0.1 -0.78,0.24 -1.1,0.42 -0.32,0.17 -0.59,0.38 -0.82,0.62 -0.23,0.24 -0.44,0.53 -0.61,0.85 -0.17,0.33 -0.31,0.71 -0.42,1.13 -0.11,0.43 -0.19,0.92 -0.24,1.46 -0.05,0.54 -0.08,1.16 -0.08,1.84l0 7.27c0,0.68 0.03,1.3 0.08,1.85 0.05,0.55 0.14,1.04 0.24,1.48 0.1,0.43 0.24,0.81 0.42,1.15 0.17,0.33 0.37,0.62 0.6,0.86 0.23,0.24 0.51,0.45 0.83,0.62 0.32,0.17 0.69,0.31 1.1,0.42 0.42,0.11 0.9,0.19 1.43,0.24 0.53,0.05 1.13,0.08 1.79,0.08l22.8 0c0.46,0 0.82,0.13 1.07,0.38 0.25,0.25 0.38,0.61 0.38,1.07l0 5.02c0,0.46 -0.13,0.82 -0.38,1.07 -0.25,0.25 -0.61,0.38 -1.07,0.38l-23.1 0c-2.62,0 -4.85,-0.24 -6.69,-0.73 -0.93,-0.24 -1.77,-0.57 -2.53,-0.97 -0.76,-0.4 -1.44,-0.88 -2.04,-1.44 -0.59,-0.56 -1.11,-1.2 -1.54,-1.93 -0.43,-0.72 -0.78,-1.53 -1.06,-2.41 -0.27,-0.88 -0.47,-1.85 -0.61,-2.92 -0.13,-1.06 -0.2,-2.22 -0.2,-3.45l0 -8.81c0,-2.49 0.27,-4.6 0.81,-6.34 0.27,-0.88 0.63,-1.68 1.06,-2.39 0.43,-0.72 0.95,-1.36 1.54,-1.92 0.59,-0.56 1.27,-1.04 2.03,-1.45 0.76,-0.4 1.6,-0.73 2.53,-0.99 1.84,-0.5 4.07,-0.75 6.69,-0.75l23.1 0z"/>
  </g>
 </g>
</svg>
