<svg width="260" height="260" viewBox="0 0 260 260" fill="none" xmlns="http://www.w3.org/2000/svg">
<path d="M0 0H260V260H0V0Z" fill="#172673"/>
<path fill-rule="evenodd" clip-rule="evenodd" d="M119.089 92.9939C117.932 92.9939 116.779 93.0027 115.622 92.9894C114.758 92.9806 113.902 92.9008 113.06 92.688C111.229 92.227 110.157 91.0567 109.762 89.2259C109.616 88.5344 109.549 87.834 109.545 87.1292C109.536 85.755 109.536 84.3852 109.545 83.011C109.549 82.222 109.625 81.4418 109.82 80.6749C110.281 78.8928 111.442 77.8467 113.211 77.43C113.942 77.2571 114.687 77.164 115.436 77.164C118.047 77.1552 120.658 77.1552 123.265 77.164C124.111 77.1684 124.954 77.2748 125.774 77.5098C127.534 78.0063 128.562 79.1677 128.93 80.9453C129.072 81.6324 129.134 82.3239 129.134 83.0243C129.134 84.6201 129.169 86.2204 129.107 87.8163C129.081 88.4901 128.974 89.1594 128.775 89.8066C128.296 91.367 127.219 92.2846 125.667 92.6836C124.812 92.9052 123.943 92.9894 123.061 92.9939C121.735 93.0027 120.406 92.9983 119.08 92.9983L119.089 92.9939ZM136.732 92.9983C134.653 92.9983 132.578 92.9983 130.499 92.9983C129.914 92.9983 129.719 92.8033 129.719 92.2137C129.719 91.6064 129.719 90.9991 129.719 90.3918C129.719 89.7933 129.919 89.5938 130.513 89.5938C134.263 89.5938 138.013 89.5938 141.763 89.5938C141.83 89.5938 141.896 89.5938 141.967 89.5938C142.747 89.5894 143.022 89.3279 143.049 88.5477C143.062 88.1532 143.075 87.7542 143.031 87.3552C142.978 86.841 142.707 86.5706 142.193 86.5263C142.096 86.5174 141.998 86.5219 141.901 86.5219C139.192 86.5219 136.484 86.5219 133.78 86.5219C133.217 86.5219 132.658 86.4687 132.117 86.3002C130.956 85.9456 130.18 85.1787 129.896 84.0084C129.564 82.6298 129.577 81.2157 129.843 79.8371C130.122 78.3875 131.177 77.4832 132.631 77.2482C133.026 77.1862 133.421 77.1552 133.819 77.1552C137.698 77.1552 141.577 77.1552 145.451 77.1552C146.586 77.1552 146.183 78.8618 146.183 79.8105C146.183 80.3646 145.997 80.5508 145.438 80.5508C141.847 80.5508 138.252 80.5508 134.662 80.5508C134.52 80.5508 134.378 80.5552 134.236 80.5685C133.762 80.6084 133.496 80.8522 133.443 81.3309C133.389 81.7875 133.394 82.2441 133.443 82.7007C133.491 83.1706 133.788 83.4366 134.267 83.4632C134.44 83.472 134.613 83.4676 134.786 83.4676C137.397 83.4676 140.008 83.4676 142.614 83.4676C143.164 83.4676 143.709 83.5075 144.241 83.6582C145.624 84.0483 146.404 84.9836 146.675 86.3711C146.821 87.1159 146.759 87.865 146.764 88.6142C146.768 89.124 146.786 89.6337 146.684 90.1391C146.378 91.6817 145.332 92.6791 143.776 92.9097C143.381 92.9673 142.987 92.9983 142.588 92.9983C140.637 92.9983 138.687 92.9983 136.736 92.9983H136.732ZM63.7576 87.6921C64.2718 88.3305 64.7727 88.9511 65.2692 89.5717C65.3357 89.6515 65.4066 89.6692 65.5042 89.6692C66.8074 89.6648 68.1151 89.6648 69.4184 89.6736C69.5647 89.6736 69.6268 89.616 69.6888 89.5008C70.5621 87.8916 71.4442 86.2825 72.3219 84.6733C73.3548 82.7805 74.3877 80.8921 75.4205 78.9992C75.62 78.6357 75.8372 78.29 76.1032 77.9752C76.5509 77.4477 77.1272 77.1773 77.8187 77.1729C78.4792 77.1684 79.1397 77.1241 79.7958 77.2083C80.4607 77.297 80.9927 77.6162 81.4049 78.1393C81.6177 78.4097 81.7995 78.7022 81.9679 79.0037C83.8829 82.4835 85.8024 85.9633 87.713 89.4476C87.8105 89.6293 87.9169 89.6825 88.1119 89.6781C88.6217 89.6648 89.1315 89.6603 89.6413 89.6781C89.8673 89.6869 89.9383 89.6337 89.9383 89.3944C89.9294 86.1761 89.9338 82.9578 89.9338 79.7395C89.9338 79.4159 89.9471 79.0968 90.0003 78.7776C90.1821 77.7447 90.652 77.2571 91.6981 77.1906C92.7443 77.1241 93.7949 77.1374 94.8455 77.1995C95.4351 77.2349 95.9005 77.5098 96.2729 77.9531C96.8536 78.6402 97.3767 79.3716 97.9219 80.0853C100.258 83.1396 102.585 86.2027 104.917 89.257C104.944 89.2924 104.975 89.3279 104.997 89.3633C105.077 89.4786 105.201 89.4653 105.303 89.4431C105.414 89.421 105.36 89.3057 105.36 89.2348C105.365 85.4846 105.365 81.7343 105.365 77.9841C105.365 77.8866 105.36 77.7891 105.374 77.6915C105.422 77.3458 105.609 77.1684 105.959 77.1684C106.77 77.164 107.581 77.164 108.388 77.1684C108.765 77.1729 108.964 77.3724 108.991 77.7492C108.995 77.8068 108.995 77.8688 108.995 77.9309C108.995 82.1156 108.995 86.3002 108.995 90.4893C108.995 90.8794 108.973 91.2695 108.88 91.6507C108.681 92.4398 108.206 92.8609 107.399 92.9673C107.178 92.9983 106.952 93.0116 106.726 93.0072C105.892 92.9894 105.063 93.0338 104.23 92.9762C103.574 92.9318 103.055 92.6481 102.647 92.1428C102.226 91.6197 101.814 91.0833 101.402 90.5469C98.9503 87.3419 96.5034 84.1414 94.0564 80.9364C94.021 80.8876 93.9811 80.8433 93.9412 80.799C93.857 80.697 93.7373 80.7015 93.6309 80.7281C93.5245 80.7591 93.5777 80.8699 93.5777 80.9453C93.5732 84.6822 93.5732 88.4147 93.5732 92.1516C93.5732 92.2492 93.5732 92.3467 93.5688 92.4442C93.5466 92.7678 93.3516 92.9673 93.0324 93.0027C92.9526 93.0116 92.8684 93.0072 92.7842 93.0072C90.5855 93.0072 88.3868 93.0027 86.1925 93.0116C85.7625 93.016 85.5009 92.852 85.297 92.4752C83.1958 88.6009 81.0858 84.731 78.9757 80.8611C78.9181 80.7547 78.8915 80.6217 78.7142 80.6261C78.5369 80.6305 78.5147 80.768 78.4615 80.8699C76.3825 84.7398 74.299 88.6053 72.2289 92.4797C72.0249 92.8565 71.759 93.016 71.3334 93.0116C69.414 93.0027 67.4945 93.0825 65.5751 93.0515C65.0431 93.0426 64.5112 93.0205 63.9792 93.0027C63.7177 92.9939 63.5182 92.8831 63.3719 92.6703C61.6963 90.21 59.8123 87.9049 58.1145 85.458C58.0525 85.3693 57.9505 85.2806 58.0214 85.1565C58.0835 85.0413 58.2076 85.0812 58.3051 85.0812C59.2937 85.0767 60.2866 85.0812 61.2752 85.0767C61.5456 85.0767 61.8116 85.0501 62.0775 84.9969C62.6627 84.8773 63.0262 84.5226 63.1326 83.9419C63.27 83.2238 63.2611 82.4879 63.1547 81.7698C63.035 80.9763 62.5784 80.5995 61.7584 80.5375C61.5633 80.5242 61.3683 80.5153 61.1732 80.5153C58.5401 80.5153 55.9069 80.5153 53.2738 80.5153C52.9635 80.5153 52.9635 80.5153 52.9635 80.8167C52.9635 84.6113 52.9635 88.4058 52.9635 92.2048C52.9635 92.8254 52.7862 92.9983 52.1611 93.0027C51.4341 93.0027 50.7072 93.0027 49.9802 93.0027C49.4748 93.0027 49.262 92.7944 49.262 92.2979C49.262 87.5414 49.262 82.7894 49.262 78.0329C49.262 77.4123 49.5058 77.164 50.1176 77.164C54.1515 77.164 58.1899 77.164 62.2238 77.164C62.8489 77.164 63.465 77.2394 64.0679 77.4034C65.6061 77.8201 66.4617 78.8618 66.7764 80.3867C67.0113 81.5349 66.9227 82.7007 66.8917 83.8621C66.8784 84.2744 66.7941 84.6778 66.6744 85.0767C66.2666 86.4731 65.3268 87.302 63.9349 87.6478C63.8861 87.6611 63.8374 87.6744 63.7532 87.701L63.7576 87.6921ZM47.8745 77.1552C47.9809 77.1552 48.0873 77.1507 48.1893 77.164C48.4863 77.195 48.6858 77.3812 48.6902 77.6738C48.7035 78.485 48.7035 79.2918 48.6902 80.103C48.6858 80.3912 48.4818 80.5862 48.1937 80.6261C48.0829 80.6394 47.9676 80.6438 47.8568 80.6438C45.7246 80.6438 43.5968 80.6483 41.4646 80.6394C41.2651 80.6394 41.2208 80.6926 41.2208 80.8876C41.2252 84.6379 41.2252 88.3881 41.2252 92.1383C41.2252 92.227 41.2252 92.3201 41.2208 92.4087C41.203 92.7634 40.9991 92.9894 40.6401 92.9939C40.2101 92.9983 39.7801 93.0027 39.3501 93.0027C38.9201 93.0027 38.4901 92.9983 38.0601 92.9939C37.701 92.9894 37.4971 92.7634 37.4794 92.4087C37.475 92.3201 37.475 92.227 37.475 92.1383C37.475 88.3881 37.475 84.6379 37.4794 80.8876C37.4794 80.6926 37.4351 80.6394 37.2356 80.6394C35.1078 80.6483 32.9756 80.6438 30.8434 80.6438C30.7325 80.6438 30.6173 80.6438 30.5065 80.6261C30.2183 80.5862 30.0144 80.3956 30.01 80.103C29.9967 79.2918 29.9967 78.485 30.01 77.6738C30.0144 77.3812 30.2183 77.195 30.5109 77.164C30.6128 77.1507 30.7192 77.1552 30.8256 77.1552H47.8745ZM147.894 78.6269C147.894 81.4196 147.894 76.2819 147.894 78.6269ZM147.442 78.8042C147.65 83.0199 147.211 74.0965 147.442 78.8042ZM119.599 80.5508C120.64 80.564 121.926 80.5242 123.207 80.5729C123.469 80.5818 123.73 80.6217 123.983 80.6793C124.799 80.8566 125.202 81.4107 125.335 82.1954C125.393 82.5411 125.428 82.8913 125.428 83.2459C125.428 84.4694 125.428 85.6885 125.428 86.9119C125.428 87.2666 125.393 87.6168 125.33 87.9625C125.158 88.9289 124.635 89.4077 123.637 89.5318C123.429 89.5584 123.22 89.5806 123.012 89.5806C120.552 89.585 118.096 89.5806 115.636 89.5806C115.343 89.5806 115.051 89.5407 114.767 89.4786C113.956 89.3057 113.521 88.8358 113.366 87.9847C113.308 87.6655 113.273 87.3464 113.273 87.0228C113.273 85.6885 113.273 84.3542 113.277 83.0199C113.277 82.7096 113.317 82.4081 113.379 82.1067C113.57 81.1935 114.075 80.7458 115.024 80.6217C115.419 80.5685 115.818 80.5596 116.212 80.5552C117.263 80.5508 118.309 80.5552 119.599 80.5552V80.5508Z" fill="#FEFEFE"/>
<path d="M170.564 77C170.777 77 170.941 77.0532 171.056 77.164C171.171 77.2748 171.233 77.4344 171.233 77.6428V79.8681C171.233 80.0809 171.175 80.2449 171.06 80.3601C170.945 80.4754 170.781 80.533 170.568 80.533H163.582V92.5373C163.582 92.9673 163.369 93.1801 162.939 93.1801H160.466C160.262 93.1801 160.102 93.1224 159.991 93.0116C159.88 92.9008 159.823 92.7412 159.823 92.5373V80.533H152.837C152.624 80.533 152.46 80.4754 152.345 80.3601C152.229 80.2449 152.172 80.0809 152.172 79.8681V77.6428C152.172 77.2128 152.393 77 152.837 77H170.573H170.564ZM189.053 90.1834H192.378L198.589 78.7998C198.784 78.4496 198.974 78.1614 199.165 77.9265C199.36 77.6871 199.555 77.5009 199.75 77.3768C199.945 77.2527 200.153 77.1596 200.379 77.0931C200.605 77.031 200.845 77 201.098 77H202.436C202.733 77 203.013 77.031 203.265 77.0931C203.522 77.1552 203.753 77.2482 203.966 77.3724C204.174 77.4965 204.382 77.6827 204.586 77.922C204.786 78.1614 204.981 78.454 205.176 78.7998L212.694 92.4531C212.787 92.6437 212.809 92.8077 212.756 92.9451C212.721 93.0293 212.659 93.0958 212.57 93.1357C212.494 93.1712 212.401 93.1845 212.291 93.1845H209.405C209.09 93.1845 208.873 93.0604 208.758 92.8121L207.188 89.9618H196.687L195.162 92.8166C195.095 92.9407 195.007 93.0338 194.896 93.0958C194.785 93.1579 194.661 93.1889 194.515 93.1889H187.497C187.391 93.1889 187.302 93.1801 187.223 93.1712C187.138 93.1579 187.063 93.1313 187.014 93.1003C186.965 93.0737 186.921 93.0338 186.872 92.9894C186.828 92.9451 186.784 92.8919 186.744 92.8343L183.202 88.1709H176.083V92.5462C176.083 92.7501 176.025 92.9097 175.914 93.0205C175.803 93.1313 175.644 93.1889 175.44 93.1889H172.989C172.776 93.1889 172.612 93.1313 172.496 93.0249C172.381 92.9141 172.319 92.7545 172.319 92.5462V77.8289C172.319 77.563 172.39 77.3591 172.532 77.2172C172.674 77.0754 172.878 77.0044 173.144 77.0044H185.339C187.121 77.0044 188.406 77.4123 189.191 78.2279C189.975 79.0436 190.365 80.2404 190.365 81.823V83.1174C190.365 84.4473 190.091 85.5067 189.545 86.2869C189.266 86.6814 188.903 87.0095 188.455 87.2622C188.069 87.4794 187.617 87.6434 187.103 87.7542L189.062 90.1879L189.053 90.1834ZM176.074 85.1078H184.629C185.002 85.1078 185.316 85.0679 185.574 84.9881C185.822 84.9127 186.017 84.8019 186.159 84.6512C186.301 84.5005 186.411 84.3098 186.482 84.0749C186.558 83.8355 186.593 83.5518 186.593 83.2282V82.2751C186.593 81.9471 186.553 81.6634 186.482 81.4285C186.411 81.1979 186.301 81.0029 186.159 80.8522C186.017 80.7015 185.822 80.5906 185.574 80.5153C185.316 80.4355 185.002 80.3956 184.629 80.3956H176.229C176.127 80.3956 176.078 80.4399 176.078 80.5242V85.1033L176.074 85.1078ZM205.606 87.0361L202.108 80.5951C202.09 80.564 202.068 80.5419 202.051 80.5286C202.033 80.5153 202.011 80.5108 201.984 80.5108H201.847C201.82 80.5108 201.798 80.5153 201.78 80.5286C201.758 80.5419 201.74 80.564 201.723 80.5951L198.269 87.0361H205.606ZM229.357 77C229.561 77 229.721 77.0576 229.832 77.1684C229.942 77.2793 230 77.4389 230 77.6428V79.8681C230 80.0809 229.947 80.2449 229.836 80.3601C229.725 80.4754 229.566 80.5375 229.357 80.5375H219.25C218.958 80.5375 218.692 80.5507 218.457 80.5729C218.222 80.5951 218.009 80.6305 217.823 80.6793C217.641 80.7236 217.477 80.7857 217.335 80.8655C217.193 80.9408 217.074 81.0339 216.972 81.1403C216.87 81.2467 216.777 81.3753 216.701 81.5171C216.626 81.6634 216.564 81.8319 216.515 82.018C216.466 82.2087 216.431 82.4259 216.409 82.6652C216.387 82.9046 216.373 83.1795 216.373 83.4809V86.7036C216.373 87.005 216.387 87.2799 216.409 87.5237C216.431 87.7675 216.471 87.9847 216.515 88.1798C216.559 88.3704 216.622 88.5388 216.701 88.6895C216.777 88.8358 216.865 88.9644 216.967 89.0708C217.069 89.1772 217.193 89.2703 217.335 89.3456C217.477 89.421 217.641 89.483 217.823 89.5318C218.009 89.5806 218.222 89.616 218.457 89.6382C218.692 89.6603 218.958 89.6736 219.25 89.6736H229.357C229.561 89.6736 229.721 89.7313 229.832 89.8421C229.942 89.9529 230 90.1125 230 90.3164V92.5417C230 92.7456 229.942 92.9052 229.832 93.016C229.721 93.1269 229.561 93.1845 229.357 93.1845H219.117C217.956 93.1845 216.967 93.0781 216.152 92.8609C215.739 92.7545 215.367 92.6082 215.03 92.4309C214.693 92.2536 214.392 92.0408 214.126 91.7926C213.864 91.5443 213.634 91.2606 213.443 90.937C213.253 90.6179 213.097 90.2588 212.973 89.8687C212.854 89.4786 212.765 89.0486 212.703 88.5743C212.645 88.1044 212.614 87.5902 212.614 87.0449V83.1396C212.614 82.0358 212.734 81.1004 212.973 80.3291C213.093 79.939 213.253 79.5844 213.443 79.2696C213.634 78.9505 213.864 78.6668 214.126 78.4185C214.387 78.1703 214.689 77.9575 215.026 77.7758C215.363 77.5984 215.735 77.4522 216.147 77.3369C216.963 77.1153 217.951 77.0044 219.113 77.0044H229.353L229.357 77Z" fill="#96989A"/>
<path d="M66.5234 123.383H68.0234C67.9453 124.102 67.7396 124.745 67.4062 125.312C67.0729 125.88 66.6016 126.331 65.9922 126.664C65.3828 126.992 64.6224 127.156 63.7109 127.156C63.0443 127.156 62.4375 127.031 61.8906 126.781C61.349 126.531 60.8828 126.177 60.4922 125.719C60.1016 125.255 59.7995 124.701 59.5859 124.055C59.3776 123.404 59.2734 122.68 59.2734 121.883V120.75C59.2734 119.953 59.3776 119.232 59.5859 118.586C59.7995 117.935 60.1042 117.378 60.5 116.914C60.901 116.451 61.3828 116.094 61.9453 115.844C62.5078 115.594 63.1406 115.469 63.8438 115.469C64.7031 115.469 65.4297 115.63 66.0234 115.953C66.6172 116.276 67.0781 116.724 67.4062 117.297C67.7396 117.865 67.9453 118.523 68.0234 119.273H66.5234C66.4505 118.742 66.3151 118.286 66.1172 117.906C65.9193 117.521 65.638 117.224 65.2734 117.016C64.9089 116.807 64.4323 116.703 63.8438 116.703C63.3385 116.703 62.8932 116.799 62.5078 116.992C62.1276 117.185 61.8073 117.458 61.5469 117.812C61.2917 118.167 61.099 118.591 60.9688 119.086C60.8385 119.581 60.7734 120.13 60.7734 120.734V121.883C60.7734 122.44 60.8307 122.964 60.9453 123.453C61.0651 123.943 61.2448 124.372 61.4844 124.742C61.724 125.112 62.0286 125.404 62.3984 125.617C62.7682 125.826 63.2057 125.93 63.7109 125.93C64.3516 125.93 64.862 125.828 65.2422 125.625C65.6224 125.422 65.9089 125.13 66.1016 124.75C66.2995 124.37 66.4401 123.914 66.5234 123.383Z" fill="white"/>
<path d="M74.8438 125.555V121.203C74.8438 120.87 74.776 120.581 74.6406 120.336C74.5104 120.086 74.3125 119.893 74.0469 119.758C73.7812 119.622 73.4531 119.555 73.0625 119.555C72.6979 119.555 72.3776 119.617 72.1016 119.742C71.8307 119.867 71.6172 120.031 71.4609 120.234C71.3099 120.438 71.2344 120.656 71.2344 120.891H69.7891C69.7891 120.589 69.8672 120.289 70.0234 119.992C70.1797 119.695 70.4036 119.427 70.6953 119.188C70.9922 118.943 71.3464 118.75 71.7578 118.609C72.1745 118.464 72.638 118.391 73.1484 118.391C73.763 118.391 74.3047 118.495 74.7734 118.703C75.2474 118.911 75.6172 119.227 75.8828 119.648C76.1536 120.065 76.2891 120.589 76.2891 121.219V125.156C76.2891 125.438 76.3125 125.737 76.3594 126.055C76.4115 126.372 76.487 126.646 76.5859 126.875V127H75.0781C75.0052 126.833 74.9479 126.612 74.9062 126.336C74.8646 126.055 74.8438 125.794 74.8438 125.555ZM75.0938 121.875L75.1094 122.891H73.6484C73.237 122.891 72.8698 122.924 72.5469 122.992C72.224 123.055 71.9531 123.151 71.7344 123.281C71.5156 123.411 71.349 123.576 71.2344 123.773C71.1198 123.966 71.0625 124.193 71.0625 124.453C71.0625 124.719 71.1224 124.961 71.2422 125.18C71.362 125.398 71.5417 125.573 71.7812 125.703C72.026 125.828 72.3255 125.891 72.6797 125.891C73.1224 125.891 73.513 125.797 73.8516 125.609C74.1901 125.422 74.4583 125.193 74.6562 124.922C74.8594 124.651 74.9688 124.388 74.9844 124.133L75.6016 124.828C75.5651 125.047 75.4661 125.289 75.3047 125.555C75.1432 125.82 74.9271 126.076 74.6562 126.32C74.3906 126.56 74.0729 126.76 73.7031 126.922C73.3385 127.078 72.9271 127.156 72.4688 127.156C71.8958 127.156 71.3932 127.044 70.9609 126.82C70.5339 126.596 70.2005 126.297 69.9609 125.922C69.7266 125.542 69.6094 125.117 69.6094 124.648C69.6094 124.195 69.6979 123.797 69.875 123.453C70.0521 123.104 70.3073 122.815 70.6406 122.586C70.974 122.352 71.375 122.174 71.8438 122.055C72.3125 121.935 72.8359 121.875 73.4141 121.875H75.0938Z" fill="white"/>
<path d="M78.5547 115H80.0078V125.359L79.8828 127H78.5547V115ZM85.7188 122.703V122.867C85.7188 123.482 85.6458 124.052 85.5 124.578C85.3542 125.099 85.1406 125.552 84.8594 125.938C84.5781 126.323 84.2344 126.622 83.8281 126.836C83.4219 127.049 82.9557 127.156 82.4297 127.156C81.8932 127.156 81.4219 127.065 81.0156 126.883C80.6146 126.695 80.276 126.427 80 126.078C79.724 125.729 79.5026 125.307 79.3359 124.812C79.1745 124.318 79.0625 123.76 79 123.141V122.422C79.0625 121.797 79.1745 121.237 79.3359 120.742C79.5026 120.247 79.724 119.826 80 119.477C80.276 119.122 80.6146 118.854 81.0156 118.672C81.4167 118.484 81.8828 118.391 82.4141 118.391C82.9453 118.391 83.4167 118.495 83.8281 118.703C84.2396 118.906 84.5833 119.198 84.8594 119.578C85.1406 119.958 85.3542 120.414 85.5 120.945C85.6458 121.471 85.7188 122.057 85.7188 122.703ZM84.2656 122.867V122.703C84.2656 122.281 84.2266 121.885 84.1484 121.516C84.0703 121.141 83.9453 120.812 83.7734 120.531C83.6016 120.245 83.375 120.021 83.0938 119.859C82.8125 119.693 82.4661 119.609 82.0547 119.609C81.6901 119.609 81.3724 119.672 81.1016 119.797C80.8359 119.922 80.6094 120.091 80.4219 120.305C80.2344 120.513 80.0807 120.753 79.9609 121.023C79.8464 121.289 79.7604 121.565 79.7031 121.852V123.734C79.7865 124.099 79.9219 124.451 80.1094 124.789C80.3021 125.122 80.5573 125.396 80.875 125.609C81.1979 125.823 81.5964 125.93 82.0703 125.93C82.4609 125.93 82.7943 125.852 83.0703 125.695C83.3516 125.534 83.5781 125.312 83.75 125.031C83.9271 124.75 84.0573 124.424 84.1406 124.055C84.224 123.685 84.2656 123.289 84.2656 122.867Z" fill="white"/>
<path d="M89.1172 115V127H87.6641V115H89.1172Z" fill="white"/>
<path d="M94.9453 127.156C94.3568 127.156 93.8229 127.057 93.3438 126.859C92.8698 126.656 92.4609 126.372 92.1172 126.008C91.7786 125.643 91.5182 125.211 91.3359 124.711C91.1536 124.211 91.0625 123.664 91.0625 123.07V122.742C91.0625 122.055 91.1641 121.443 91.3672 120.906C91.5703 120.365 91.8464 119.906 92.1953 119.531C92.5443 119.156 92.9401 118.872 93.3828 118.68C93.8255 118.487 94.2839 118.391 94.7578 118.391C95.362 118.391 95.8828 118.495 96.3203 118.703C96.763 118.911 97.125 119.203 97.4062 119.578C97.6875 119.948 97.8958 120.385 98.0312 120.891C98.1667 121.391 98.2344 121.938 98.2344 122.531V123.18H91.9219V122H96.7891V121.891C96.7682 121.516 96.6901 121.151 96.5547 120.797C96.4245 120.443 96.2161 120.151 95.9297 119.922C95.6432 119.693 95.2526 119.578 94.7578 119.578C94.4297 119.578 94.1276 119.648 93.8516 119.789C93.5755 119.924 93.3385 120.128 93.1406 120.398C92.9427 120.669 92.7891 121 92.6797 121.391C92.5703 121.781 92.5156 122.232 92.5156 122.742V123.07C92.5156 123.471 92.5703 123.849 92.6797 124.203C92.7943 124.552 92.9583 124.859 93.1719 125.125C93.3906 125.391 93.6536 125.599 93.9609 125.75C94.2734 125.901 94.6276 125.977 95.0234 125.977C95.5339 125.977 95.9661 125.872 96.3203 125.664C96.6745 125.456 96.9844 125.177 97.25 124.828L98.125 125.523C97.9427 125.799 97.7109 126.062 97.4297 126.312C97.1484 126.562 96.8021 126.766 96.3906 126.922C95.9844 127.078 95.5026 127.156 94.9453 127.156Z" fill="white"/>
<path d="M107.43 118.547V119.656H102.859V118.547H107.43ZM104.406 116.492H105.852V124.906C105.852 125.193 105.896 125.409 105.984 125.555C106.073 125.701 106.188 125.797 106.328 125.844C106.469 125.891 106.62 125.914 106.781 125.914C106.901 125.914 107.026 125.904 107.156 125.883C107.292 125.857 107.393 125.836 107.461 125.82L107.469 127C107.354 127.036 107.203 127.07 107.016 127.102C106.833 127.138 106.612 127.156 106.352 127.156C105.997 127.156 105.672 127.086 105.375 126.945C105.078 126.805 104.841 126.57 104.664 126.242C104.492 125.909 104.406 125.461 104.406 124.898V116.492Z" fill="white"/>
<path d="M110.57 119.875V127H109.125V118.547H110.531L110.57 119.875ZM113.211 118.5L113.203 119.844C113.083 119.818 112.969 119.802 112.859 119.797C112.755 119.786 112.635 119.781 112.5 119.781C112.167 119.781 111.872 119.833 111.617 119.938C111.362 120.042 111.146 120.188 110.969 120.375C110.792 120.562 110.651 120.786 110.547 121.047C110.448 121.302 110.383 121.583 110.352 121.891L109.945 122.125C109.945 121.615 109.995 121.135 110.094 120.688C110.198 120.24 110.357 119.844 110.57 119.5C110.784 119.151 111.055 118.88 111.383 118.688C111.716 118.49 112.112 118.391 112.57 118.391C112.674 118.391 112.794 118.404 112.93 118.43C113.065 118.451 113.159 118.474 113.211 118.5Z" fill="white"/>
<path d="M119.219 125.555V121.203C119.219 120.87 119.151 120.581 119.016 120.336C118.885 120.086 118.688 119.893 118.422 119.758C118.156 119.622 117.828 119.555 117.438 119.555C117.073 119.555 116.753 119.617 116.477 119.742C116.206 119.867 115.992 120.031 115.836 120.234C115.685 120.438 115.609 120.656 115.609 120.891H114.164C114.164 120.589 114.242 120.289 114.398 119.992C114.555 119.695 114.779 119.427 115.07 119.188C115.367 118.943 115.721 118.75 116.133 118.609C116.549 118.464 117.013 118.391 117.523 118.391C118.138 118.391 118.68 118.495 119.148 118.703C119.622 118.911 119.992 119.227 120.258 119.648C120.529 120.065 120.664 120.589 120.664 121.219V125.156C120.664 125.438 120.688 125.737 120.734 126.055C120.786 126.372 120.862 126.646 120.961 126.875V127H119.453C119.38 126.833 119.323 126.612 119.281 126.336C119.24 126.055 119.219 125.794 119.219 125.555ZM119.469 121.875L119.484 122.891H118.023C117.612 122.891 117.245 122.924 116.922 122.992C116.599 123.055 116.328 123.151 116.109 123.281C115.891 123.411 115.724 123.576 115.609 123.773C115.495 123.966 115.438 124.193 115.438 124.453C115.438 124.719 115.497 124.961 115.617 125.18C115.737 125.398 115.917 125.573 116.156 125.703C116.401 125.828 116.701 125.891 117.055 125.891C117.497 125.891 117.888 125.797 118.227 125.609C118.565 125.422 118.833 125.193 119.031 124.922C119.234 124.651 119.344 124.388 119.359 124.133L119.977 124.828C119.94 125.047 119.841 125.289 119.68 125.555C119.518 125.82 119.302 126.076 119.031 126.32C118.766 126.56 118.448 126.76 118.078 126.922C117.714 127.078 117.302 127.156 116.844 127.156C116.271 127.156 115.768 127.044 115.336 126.82C114.909 126.596 114.576 126.297 114.336 125.922C114.102 125.542 113.984 125.117 113.984 124.648C113.984 124.195 114.073 123.797 114.25 123.453C114.427 123.104 114.682 122.815 115.016 122.586C115.349 122.352 115.75 122.174 116.219 122.055C116.688 121.935 117.211 121.875 117.789 121.875H119.469Z" fill="white"/>
<path d="M125.188 126.125L127.539 118.547H129.086L125.695 128.305C125.617 128.513 125.513 128.737 125.383 128.977C125.258 129.221 125.096 129.453 124.898 129.672C124.701 129.891 124.461 130.068 124.18 130.203C123.904 130.344 123.573 130.414 123.188 130.414C123.073 130.414 122.927 130.398 122.75 130.367C122.573 130.336 122.448 130.31 122.375 130.289L122.367 129.117C122.409 129.122 122.474 129.128 122.562 129.133C122.656 129.143 122.721 129.148 122.758 129.148C123.086 129.148 123.365 129.104 123.594 129.016C123.823 128.932 124.016 128.789 124.172 128.586C124.333 128.388 124.471 128.115 124.586 127.766L125.188 126.125ZM123.461 118.547L125.656 125.109L126.031 126.633L124.992 127.164L121.883 118.547H123.461Z" fill="white"/>
<path d="M135.312 124.758C135.312 124.549 135.266 124.357 135.172 124.18C135.083 123.997 134.898 123.833 134.617 123.688C134.341 123.536 133.924 123.406 133.367 123.297C132.898 123.198 132.474 123.081 132.094 122.945C131.719 122.81 131.398 122.646 131.133 122.453C130.872 122.26 130.672 122.034 130.531 121.773C130.391 121.513 130.32 121.208 130.32 120.859C130.32 120.526 130.393 120.211 130.539 119.914C130.69 119.617 130.901 119.354 131.172 119.125C131.448 118.896 131.779 118.716 132.164 118.586C132.549 118.456 132.979 118.391 133.453 118.391C134.13 118.391 134.708 118.51 135.188 118.75C135.667 118.99 136.034 119.31 136.289 119.711C136.544 120.107 136.672 120.547 136.672 121.031H135.227C135.227 120.797 135.156 120.57 135.016 120.352C134.88 120.128 134.68 119.943 134.414 119.797C134.154 119.651 133.833 119.578 133.453 119.578C133.052 119.578 132.727 119.641 132.477 119.766C132.232 119.885 132.052 120.039 131.938 120.227C131.828 120.414 131.773 120.612 131.773 120.82C131.773 120.977 131.799 121.117 131.852 121.242C131.909 121.362 132.008 121.474 132.148 121.578C132.289 121.677 132.487 121.771 132.742 121.859C132.997 121.948 133.323 122.036 133.719 122.125C134.411 122.281 134.982 122.469 135.43 122.688C135.878 122.906 136.211 123.174 136.43 123.492C136.648 123.81 136.758 124.195 136.758 124.648C136.758 125.018 136.68 125.357 136.523 125.664C136.372 125.971 136.151 126.237 135.859 126.461C135.573 126.68 135.229 126.852 134.828 126.977C134.432 127.096 133.987 127.156 133.492 127.156C132.747 127.156 132.117 127.023 131.602 126.758C131.086 126.492 130.695 126.148 130.43 125.727C130.164 125.305 130.031 124.859 130.031 124.391H131.484C131.505 124.786 131.62 125.102 131.828 125.336C132.036 125.565 132.292 125.729 132.594 125.828C132.896 125.922 133.195 125.969 133.492 125.969C133.888 125.969 134.219 125.917 134.484 125.812C134.755 125.708 134.961 125.565 135.102 125.383C135.242 125.201 135.312 124.992 135.312 124.758Z" fill="white"/>
<path d="M139.969 125.281V126.445C139.969 126.919 139.849 127.419 139.609 127.945C139.37 128.477 139.034 128.919 138.602 129.273L137.781 128.703C137.948 128.474 138.089 128.24 138.203 128C138.318 127.766 138.404 127.521 138.461 127.266C138.523 127.016 138.555 126.75 138.555 126.469V125.281H139.969Z" fill="white"/>
<path d="M147.352 115V127H145.898V115H147.352Z" fill="white"/>
<path d="M154.656 125.555V121.203C154.656 120.87 154.589 120.581 154.453 120.336C154.323 120.086 154.125 119.893 153.859 119.758C153.594 119.622 153.266 119.555 152.875 119.555C152.51 119.555 152.19 119.617 151.914 119.742C151.643 119.867 151.43 120.031 151.273 120.234C151.122 120.438 151.047 120.656 151.047 120.891H149.602C149.602 120.589 149.68 120.289 149.836 119.992C149.992 119.695 150.216 119.427 150.508 119.188C150.805 118.943 151.159 118.75 151.57 118.609C151.987 118.464 152.451 118.391 152.961 118.391C153.576 118.391 154.117 118.495 154.586 118.703C155.06 118.911 155.43 119.227 155.695 119.648C155.966 120.065 156.102 120.589 156.102 121.219V125.156C156.102 125.438 156.125 125.737 156.172 126.055C156.224 126.372 156.299 126.646 156.398 126.875V127H154.891C154.818 126.833 154.76 126.612 154.719 126.336C154.677 126.055 154.656 125.794 154.656 125.555ZM154.906 121.875L154.922 122.891H153.461C153.049 122.891 152.682 122.924 152.359 122.992C152.036 123.055 151.766 123.151 151.547 123.281C151.328 123.411 151.161 123.576 151.047 123.773C150.932 123.966 150.875 124.193 150.875 124.453C150.875 124.719 150.935 124.961 151.055 125.18C151.174 125.398 151.354 125.573 151.594 125.703C151.839 125.828 152.138 125.891 152.492 125.891C152.935 125.891 153.326 125.797 153.664 125.609C154.003 125.422 154.271 125.193 154.469 124.922C154.672 124.651 154.781 124.388 154.797 124.133L155.414 124.828C155.378 125.047 155.279 125.289 155.117 125.555C154.956 125.82 154.74 126.076 154.469 126.32C154.203 126.56 153.885 126.76 153.516 126.922C153.151 127.078 152.74 127.156 152.281 127.156C151.708 127.156 151.206 127.044 150.773 126.82C150.346 126.596 150.013 126.297 149.773 125.922C149.539 125.542 149.422 125.117 149.422 124.648C149.422 124.195 149.51 123.797 149.688 123.453C149.865 123.104 150.12 122.815 150.453 122.586C150.786 122.352 151.188 122.174 151.656 122.055C152.125 121.935 152.648 121.875 153.227 121.875H154.906Z" fill="white"/>
<path d="M163.703 125.359V115H165.156V127H163.828L163.703 125.359ZM158.016 122.867V122.703C158.016 122.057 158.094 121.471 158.25 120.945C158.411 120.414 158.638 119.958 158.93 119.578C159.227 119.198 159.578 118.906 159.984 118.703C160.396 118.495 160.854 118.391 161.359 118.391C161.891 118.391 162.354 118.484 162.75 118.672C163.151 118.854 163.49 119.122 163.766 119.477C164.047 119.826 164.268 120.247 164.43 120.742C164.591 121.237 164.703 121.797 164.766 122.422V123.141C164.708 123.76 164.596 124.318 164.43 124.812C164.268 125.307 164.047 125.729 163.766 126.078C163.49 126.427 163.151 126.695 162.75 126.883C162.349 127.065 161.88 127.156 161.344 127.156C160.849 127.156 160.396 127.049 159.984 126.836C159.578 126.622 159.227 126.323 158.93 125.938C158.638 125.552 158.411 125.099 158.25 124.578C158.094 124.052 158.016 123.482 158.016 122.867ZM159.469 122.703V122.867C159.469 123.289 159.51 123.685 159.594 124.055C159.682 124.424 159.818 124.75 160 125.031C160.182 125.312 160.414 125.534 160.695 125.695C160.977 125.852 161.312 125.93 161.703 125.93C162.182 125.93 162.576 125.828 162.883 125.625C163.195 125.422 163.445 125.154 163.633 124.82C163.82 124.487 163.966 124.125 164.07 123.734V121.852C164.008 121.565 163.917 121.289 163.797 121.023C163.682 120.753 163.531 120.513 163.344 120.305C163.161 120.091 162.935 119.922 162.664 119.797C162.398 119.672 162.083 119.609 161.719 119.609C161.323 119.609 160.982 119.693 160.695 119.859C160.414 120.021 160.182 120.245 160 120.531C159.818 120.812 159.682 121.141 159.594 121.516C159.51 121.885 159.469 122.281 159.469 122.703Z" fill="white"/>
<path d="M172.734 125.359V115H174.188V127H172.859L172.734 125.359ZM167.047 122.867V122.703C167.047 122.057 167.125 121.471 167.281 120.945C167.443 120.414 167.669 119.958 167.961 119.578C168.258 119.198 168.609 118.906 169.016 118.703C169.427 118.495 169.885 118.391 170.391 118.391C170.922 118.391 171.385 118.484 171.781 118.672C172.182 118.854 172.521 119.122 172.797 119.477C173.078 119.826 173.299 120.247 173.461 120.742C173.622 121.237 173.734 121.797 173.797 122.422V123.141C173.74 123.76 173.628 124.318 173.461 124.812C173.299 125.307 173.078 125.729 172.797 126.078C172.521 126.427 172.182 126.695 171.781 126.883C171.38 127.065 170.911 127.156 170.375 127.156C169.88 127.156 169.427 127.049 169.016 126.836C168.609 126.622 168.258 126.323 167.961 125.938C167.669 125.552 167.443 125.099 167.281 124.578C167.125 124.052 167.047 123.482 167.047 122.867ZM168.5 122.703V122.867C168.5 123.289 168.542 123.685 168.625 124.055C168.714 124.424 168.849 124.75 169.031 125.031C169.214 125.312 169.445 125.534 169.727 125.695C170.008 125.852 170.344 125.93 170.734 125.93C171.214 125.93 171.607 125.828 171.914 125.625C172.227 125.422 172.477 125.154 172.664 124.82C172.852 124.487 172.997 124.125 173.102 123.734V121.852C173.039 121.565 172.948 121.289 172.828 121.023C172.714 120.753 172.562 120.513 172.375 120.305C172.193 120.091 171.966 119.922 171.695 119.797C171.43 119.672 171.115 119.609 170.75 119.609C170.354 119.609 170.013 119.693 169.727 119.859C169.445 120.021 169.214 120.245 169.031 120.531C168.849 120.812 168.714 121.141 168.625 121.516C168.542 121.885 168.5 122.281 168.5 122.703Z" fill="white"/>
<path d="M179.945 127.156C179.357 127.156 178.823 127.057 178.344 126.859C177.87 126.656 177.461 126.372 177.117 126.008C176.779 125.643 176.518 125.211 176.336 124.711C176.154 124.211 176.062 123.664 176.062 123.07V122.742C176.062 122.055 176.164 121.443 176.367 120.906C176.57 120.365 176.846 119.906 177.195 119.531C177.544 119.156 177.94 118.872 178.383 118.68C178.826 118.487 179.284 118.391 179.758 118.391C180.362 118.391 180.883 118.495 181.32 118.703C181.763 118.911 182.125 119.203 182.406 119.578C182.688 119.948 182.896 120.385 183.031 120.891C183.167 121.391 183.234 121.938 183.234 122.531V123.18H176.922V122H181.789V121.891C181.768 121.516 181.69 121.151 181.555 120.797C181.424 120.443 181.216 120.151 180.93 119.922C180.643 119.693 180.253 119.578 179.758 119.578C179.43 119.578 179.128 119.648 178.852 119.789C178.576 119.924 178.339 120.128 178.141 120.398C177.943 120.669 177.789 121 177.68 121.391C177.57 121.781 177.516 122.232 177.516 122.742V123.07C177.516 123.471 177.57 123.849 177.68 124.203C177.794 124.552 177.958 124.859 178.172 125.125C178.391 125.391 178.654 125.599 178.961 125.75C179.273 125.901 179.628 125.977 180.023 125.977C180.534 125.977 180.966 125.872 181.32 125.664C181.674 125.456 181.984 125.177 182.25 124.828L183.125 125.523C182.943 125.799 182.711 126.062 182.43 126.312C182.148 126.562 181.802 126.766 181.391 126.922C180.984 127.078 180.503 127.156 179.945 127.156Z" fill="white"/>
<path d="M186.367 119.875V127H184.922V118.547H186.328L186.367 119.875ZM189.008 118.5L189 119.844C188.88 119.818 188.766 119.802 188.656 119.797C188.552 119.786 188.432 119.781 188.297 119.781C187.964 119.781 187.669 119.833 187.414 119.938C187.159 120.042 186.943 120.188 186.766 120.375C186.589 120.562 186.448 120.786 186.344 121.047C186.245 121.302 186.18 121.583 186.148 121.891L185.742 122.125C185.742 121.615 185.792 121.135 185.891 120.688C185.995 120.24 186.154 119.844 186.367 119.5C186.581 119.151 186.852 118.88 187.18 118.688C187.513 118.49 187.909 118.391 188.367 118.391C188.471 118.391 188.591 118.404 188.727 118.43C188.862 118.451 188.956 118.474 189.008 118.5Z" fill="white"/>
<path d="M195.266 124.758C195.266 124.549 195.219 124.357 195.125 124.18C195.036 123.997 194.852 123.833 194.57 123.688C194.294 123.536 193.878 123.406 193.32 123.297C192.852 123.198 192.427 123.081 192.047 122.945C191.672 122.81 191.352 122.646 191.086 122.453C190.826 122.26 190.625 122.034 190.484 121.773C190.344 121.513 190.273 121.208 190.273 120.859C190.273 120.526 190.346 120.211 190.492 119.914C190.643 119.617 190.854 119.354 191.125 119.125C191.401 118.896 191.732 118.716 192.117 118.586C192.503 118.456 192.932 118.391 193.406 118.391C194.083 118.391 194.661 118.51 195.141 118.75C195.62 118.99 195.987 119.31 196.242 119.711C196.497 120.107 196.625 120.547 196.625 121.031H195.18C195.18 120.797 195.109 120.57 194.969 120.352C194.833 120.128 194.633 119.943 194.367 119.797C194.107 119.651 193.786 119.578 193.406 119.578C193.005 119.578 192.68 119.641 192.43 119.766C192.185 119.885 192.005 120.039 191.891 120.227C191.781 120.414 191.727 120.612 191.727 120.82C191.727 120.977 191.753 121.117 191.805 121.242C191.862 121.362 191.961 121.474 192.102 121.578C192.242 121.677 192.44 121.771 192.695 121.859C192.951 121.948 193.276 122.036 193.672 122.125C194.365 122.281 194.935 122.469 195.383 122.688C195.831 122.906 196.164 123.174 196.383 123.492C196.602 123.81 196.711 124.195 196.711 124.648C196.711 125.018 196.633 125.357 196.477 125.664C196.326 125.971 196.104 126.237 195.812 126.461C195.526 126.68 195.182 126.852 194.781 126.977C194.385 127.096 193.94 127.156 193.445 127.156C192.701 127.156 192.07 127.023 191.555 126.758C191.039 126.492 190.648 126.148 190.383 125.727C190.117 125.305 189.984 124.859 189.984 124.391H191.438C191.458 124.786 191.573 125.102 191.781 125.336C191.99 125.565 192.245 125.729 192.547 125.828C192.849 125.922 193.148 125.969 193.445 125.969C193.841 125.969 194.172 125.917 194.438 125.812C194.708 125.708 194.914 125.565 195.055 125.383C195.195 125.201 195.266 124.992 195.266 124.758Z" fill="white"/>
<path d="M199.922 125.281V126.445C199.922 126.919 199.802 127.419 199.562 127.945C199.323 128.477 198.987 128.919 198.555 129.273L197.734 128.703C197.901 128.474 198.042 128.24 198.156 128C198.271 127.766 198.357 127.521 198.414 127.266C198.477 127.016 198.508 126.75 198.508 126.469V125.281H199.922Z" fill="white"/>
<path d="M51.3047 143.758C51.3047 143.549 51.2578 143.357 51.1641 143.18C51.0755 142.997 50.8906 142.833 50.6094 142.688C50.3333 142.536 49.9167 142.406 49.3594 142.297C48.8906 142.198 48.4661 142.081 48.0859 141.945C47.7109 141.81 47.3906 141.646 47.125 141.453C46.8646 141.26 46.6641 141.034 46.5234 140.773C46.3828 140.513 46.3125 140.208 46.3125 139.859C46.3125 139.526 46.3854 139.211 46.5312 138.914C46.6823 138.617 46.8932 138.354 47.1641 138.125C47.4401 137.896 47.7708 137.716 48.1562 137.586C48.5417 137.456 48.9714 137.391 49.4453 137.391C50.1224 137.391 50.7005 137.51 51.1797 137.75C51.6589 137.99 52.026 138.31 52.2812 138.711C52.5365 139.107 52.6641 139.547 52.6641 140.031H51.2188C51.2188 139.797 51.1484 139.57 51.0078 139.352C50.8724 139.128 50.6719 138.943 50.4062 138.797C50.1458 138.651 49.8255 138.578 49.4453 138.578C49.0443 138.578 48.7188 138.641 48.4688 138.766C48.224 138.885 48.0443 139.039 47.9297 139.227C47.8203 139.414 47.7656 139.612 47.7656 139.82C47.7656 139.977 47.7917 140.117 47.8438 140.242C47.901 140.362 48 140.474 48.1406 140.578C48.2812 140.677 48.4792 140.771 48.7344 140.859C48.9896 140.948 49.3151 141.036 49.7109 141.125C50.4036 141.281 50.974 141.469 51.4219 141.688C51.8698 141.906 52.2031 142.174 52.4219 142.492C52.6406 142.81 52.75 143.195 52.75 143.648C52.75 144.018 52.6719 144.357 52.5156 144.664C52.3646 144.971 52.1432 145.237 51.8516 145.461C51.5651 145.68 51.2214 145.852 50.8203 145.977C50.4245 146.096 49.9792 146.156 49.4844 146.156C48.7396 146.156 48.1094 146.023 47.5938 145.758C47.0781 145.492 46.6875 145.148 46.4219 144.727C46.1562 144.305 46.0234 143.859 46.0234 143.391H47.4766C47.4974 143.786 47.612 144.102 47.8203 144.336C48.0286 144.565 48.2839 144.729 48.5859 144.828C48.888 144.922 49.1875 144.969 49.4844 144.969C49.8802 144.969 50.2109 144.917 50.4766 144.812C50.7474 144.708 50.9531 144.565 51.0938 144.383C51.2344 144.201 51.3047 143.992 51.3047 143.758Z" fill="white"/>
<path d="M59.8203 144.047V137.547H61.2734V146H59.8906L59.8203 144.047ZM60.0938 142.266L60.6953 142.25C60.6953 142.812 60.6354 143.333 60.5156 143.812C60.401 144.286 60.2135 144.698 59.9531 145.047C59.6927 145.396 59.3516 145.669 58.9297 145.867C58.5078 146.06 57.9948 146.156 57.3906 146.156C56.9792 146.156 56.6016 146.096 56.2578 145.977C55.9193 145.857 55.6276 145.672 55.3828 145.422C55.138 145.172 54.9479 144.846 54.8125 144.445C54.6823 144.044 54.6172 143.562 54.6172 143V137.547H56.0625V143.016C56.0625 143.396 56.1042 143.711 56.1875 143.961C56.276 144.206 56.3932 144.401 56.5391 144.547C56.6901 144.688 56.8568 144.786 57.0391 144.844C57.2266 144.901 57.4193 144.93 57.6172 144.93C58.2318 144.93 58.7188 144.812 59.0781 144.578C59.4375 144.339 59.6953 144.018 59.8516 143.617C60.013 143.211 60.0938 142.76 60.0938 142.266Z" fill="white"/>
<path d="M64.9219 139.172V149.25H63.4688V137.547H64.7969L64.9219 139.172ZM70.6172 141.703V141.867C70.6172 142.482 70.5443 143.052 70.3984 143.578C70.2526 144.099 70.0391 144.552 69.7578 144.938C69.4818 145.323 69.1406 145.622 68.7344 145.836C68.3281 146.049 67.862 146.156 67.3359 146.156C66.7995 146.156 66.3255 146.068 65.9141 145.891C65.5026 145.714 65.1536 145.456 64.8672 145.117C64.5807 144.779 64.3516 144.372 64.1797 143.898C64.013 143.424 63.8984 142.891 63.8359 142.297V141.422C63.8984 140.797 64.0156 140.237 64.1875 139.742C64.3594 139.247 64.5859 138.826 64.8672 138.477C65.1536 138.122 65.5 137.854 65.9062 137.672C66.3125 137.484 66.7812 137.391 67.3125 137.391C67.8438 137.391 68.3151 137.495 68.7266 137.703C69.138 137.906 69.4844 138.198 69.7656 138.578C70.0469 138.958 70.2578 139.414 70.3984 139.945C70.5443 140.471 70.6172 141.057 70.6172 141.703ZM69.1641 141.867V141.703C69.1641 141.281 69.1198 140.885 69.0312 140.516C68.9427 140.141 68.8047 139.812 68.6172 139.531C68.4349 139.245 68.2005 139.021 67.9141 138.859C67.6276 138.693 67.2865 138.609 66.8906 138.609C66.526 138.609 66.2083 138.672 65.9375 138.797C65.6719 138.922 65.4453 139.091 65.2578 139.305C65.0703 139.513 64.9167 139.753 64.7969 140.023C64.6823 140.289 64.5964 140.565 64.5391 140.852V142.875C64.6432 143.24 64.7891 143.583 64.9766 143.906C65.1641 144.224 65.4141 144.482 65.7266 144.68C66.0391 144.872 66.4323 144.969 66.9062 144.969C67.2969 144.969 67.6328 144.888 67.9141 144.727C68.2005 144.56 68.4349 144.333 68.6172 144.047C68.8047 143.76 68.9427 143.432 69.0312 143.062C69.1198 142.688 69.1641 142.289 69.1641 141.867Z" fill="white"/>
<path d="M73.9062 139.172V149.25H72.4531V137.547H73.7812L73.9062 139.172ZM79.6016 141.703V141.867C79.6016 142.482 79.5286 143.052 79.3828 143.578C79.237 144.099 79.0234 144.552 78.7422 144.938C78.4661 145.323 78.125 145.622 77.7188 145.836C77.3125 146.049 76.8464 146.156 76.3203 146.156C75.7839 146.156 75.3099 146.068 74.8984 145.891C74.487 145.714 74.138 145.456 73.8516 145.117C73.5651 144.779 73.3359 144.372 73.1641 143.898C72.9974 143.424 72.8828 142.891 72.8203 142.297V141.422C72.8828 140.797 73 140.237 73.1719 139.742C73.3438 139.247 73.5703 138.826 73.8516 138.477C74.138 138.122 74.4844 137.854 74.8906 137.672C75.2969 137.484 75.7656 137.391 76.2969 137.391C76.8281 137.391 77.2995 137.495 77.7109 137.703C78.1224 137.906 78.4688 138.198 78.75 138.578C79.0312 138.958 79.2422 139.414 79.3828 139.945C79.5286 140.471 79.6016 141.057 79.6016 141.703ZM78.1484 141.867V141.703C78.1484 141.281 78.1042 140.885 78.0156 140.516C77.9271 140.141 77.7891 139.812 77.6016 139.531C77.4193 139.245 77.1849 139.021 76.8984 138.859C76.612 138.693 76.2708 138.609 75.875 138.609C75.5104 138.609 75.1927 138.672 74.9219 138.797C74.6562 138.922 74.4297 139.091 74.2422 139.305C74.0547 139.513 73.901 139.753 73.7812 140.023C73.6667 140.289 73.5807 140.565 73.5234 140.852V142.875C73.6276 143.24 73.7734 143.583 73.9609 143.906C74.1484 144.224 74.3984 144.482 74.7109 144.68C75.0234 144.872 75.4167 144.969 75.8906 144.969C76.2812 144.969 76.6172 144.888 76.8984 144.727C77.1849 144.56 77.4193 144.333 77.6016 144.047C77.7891 143.76 77.9271 143.432 78.0156 143.062C78.1042 142.688 78.1484 142.289 78.1484 141.867Z" fill="white"/>
<path d="M81.0625 141.867V141.688C81.0625 141.078 81.151 140.513 81.3281 139.992C81.5052 139.466 81.7604 139.01 82.0938 138.625C82.4271 138.234 82.8307 137.932 83.3047 137.719C83.7786 137.5 84.3099 137.391 84.8984 137.391C85.4922 137.391 86.026 137.5 86.5 137.719C86.9792 137.932 87.3854 138.234 87.7188 138.625C88.0573 139.01 88.3151 139.466 88.4922 139.992C88.6693 140.513 88.7578 141.078 88.7578 141.688V141.867C88.7578 142.477 88.6693 143.042 88.4922 143.562C88.3151 144.083 88.0573 144.539 87.7188 144.93C87.3854 145.315 86.9818 145.617 86.5078 145.836C86.0391 146.049 85.5078 146.156 84.9141 146.156C84.3203 146.156 83.7865 146.049 83.3125 145.836C82.8385 145.617 82.4323 145.315 82.0938 144.93C81.7604 144.539 81.5052 144.083 81.3281 143.562C81.151 143.042 81.0625 142.477 81.0625 141.867ZM82.5078 141.688V141.867C82.5078 142.289 82.5573 142.688 82.6562 143.062C82.7552 143.432 82.9036 143.76 83.1016 144.047C83.3047 144.333 83.5573 144.56 83.8594 144.727C84.1615 144.888 84.513 144.969 84.9141 144.969C85.3099 144.969 85.6562 144.888 85.9531 144.727C86.2552 144.56 86.5052 144.333 86.7031 144.047C86.901 143.76 87.0495 143.432 87.1484 143.062C87.2526 142.688 87.3047 142.289 87.3047 141.867V141.688C87.3047 141.271 87.2526 140.878 87.1484 140.508C87.0495 140.133 86.8984 139.802 86.6953 139.516C86.4974 139.224 86.2474 138.995 85.9453 138.828C85.6484 138.661 85.2995 138.578 84.8984 138.578C84.5026 138.578 84.1536 138.661 83.8516 138.828C83.5547 138.995 83.3047 139.224 83.1016 139.516C82.9036 139.802 82.7552 140.133 82.6562 140.508C82.5573 140.878 82.5078 141.271 82.5078 141.688Z" fill="white"/>
<path d="M92.0156 138.875V146H90.5703V137.547H91.9766L92.0156 138.875ZM94.6562 137.5L94.6484 138.844C94.5286 138.818 94.4141 138.802 94.3047 138.797C94.2005 138.786 94.0807 138.781 93.9453 138.781C93.612 138.781 93.3177 138.833 93.0625 138.938C92.8073 139.042 92.5911 139.188 92.4141 139.375C92.237 139.562 92.0964 139.786 91.9922 140.047C91.8932 140.302 91.8281 140.583 91.7969 140.891L91.3906 141.125C91.3906 140.615 91.4401 140.135 91.5391 139.688C91.6432 139.24 91.8021 138.844 92.0156 138.5C92.2292 138.151 92.5 137.88 92.8281 137.688C93.1615 137.49 93.5573 137.391 94.0156 137.391C94.1198 137.391 94.2396 137.404 94.375 137.43C94.5104 137.451 94.6042 137.474 94.6562 137.5Z" fill="white"/>
<path d="M99.9219 137.547V138.656H95.3516V137.547H99.9219ZM96.8984 135.492H98.3438V143.906C98.3438 144.193 98.388 144.409 98.4766 144.555C98.5651 144.701 98.6797 144.797 98.8203 144.844C98.9609 144.891 99.112 144.914 99.2734 144.914C99.3932 144.914 99.5182 144.904 99.6484 144.883C99.7839 144.857 99.8854 144.836 99.9531 144.82L99.9609 146C99.8464 146.036 99.6953 146.07 99.5078 146.102C99.3255 146.138 99.1042 146.156 98.8438 146.156C98.4896 146.156 98.1641 146.086 97.8672 145.945C97.5703 145.805 97.3333 145.57 97.1562 145.242C96.9844 144.909 96.8984 144.461 96.8984 143.898V135.492Z" fill="white"/>
<path d="M106.539 143.758C106.539 143.549 106.492 143.357 106.398 143.18C106.31 142.997 106.125 142.833 105.844 142.688C105.568 142.536 105.151 142.406 104.594 142.297C104.125 142.198 103.701 142.081 103.32 141.945C102.945 141.81 102.625 141.646 102.359 141.453C102.099 141.26 101.898 141.034 101.758 140.773C101.617 140.513 101.547 140.208 101.547 139.859C101.547 139.526 101.62 139.211 101.766 138.914C101.917 138.617 102.128 138.354 102.398 138.125C102.674 137.896 103.005 137.716 103.391 137.586C103.776 137.456 104.206 137.391 104.68 137.391C105.357 137.391 105.935 137.51 106.414 137.75C106.893 137.99 107.26 138.31 107.516 138.711C107.771 139.107 107.898 139.547 107.898 140.031H106.453C106.453 139.797 106.383 139.57 106.242 139.352C106.107 139.128 105.906 138.943 105.641 138.797C105.38 138.651 105.06 138.578 104.68 138.578C104.279 138.578 103.953 138.641 103.703 138.766C103.458 138.885 103.279 139.039 103.164 139.227C103.055 139.414 103 139.612 103 139.82C103 139.977 103.026 140.117 103.078 140.242C103.135 140.362 103.234 140.474 103.375 140.578C103.516 140.677 103.714 140.771 103.969 140.859C104.224 140.948 104.549 141.036 104.945 141.125C105.638 141.281 106.208 141.469 106.656 141.688C107.104 141.906 107.438 142.174 107.656 142.492C107.875 142.81 107.984 143.195 107.984 143.648C107.984 144.018 107.906 144.357 107.75 144.664C107.599 144.971 107.378 145.237 107.086 145.461C106.799 145.68 106.456 145.852 106.055 145.977C105.659 146.096 105.214 146.156 104.719 146.156C103.974 146.156 103.344 146.023 102.828 145.758C102.312 145.492 101.922 145.148 101.656 144.727C101.391 144.305 101.258 143.859 101.258 143.391H102.711C102.732 143.786 102.846 144.102 103.055 144.336C103.263 144.565 103.518 144.729 103.82 144.828C104.122 144.922 104.422 144.969 104.719 144.969C105.115 144.969 105.445 144.917 105.711 144.812C105.982 144.708 106.188 144.565 106.328 144.383C106.469 144.201 106.539 143.992 106.539 143.758Z" fill="white"/>
<path d="M111.195 144.281V145.445C111.195 145.919 111.076 146.419 110.836 146.945C110.596 147.477 110.26 147.919 109.828 148.273L109.008 147.703C109.174 147.474 109.315 147.24 109.43 147C109.544 146.766 109.63 146.521 109.688 146.266C109.75 146.016 109.781 145.75 109.781 145.469V144.281H111.195Z" fill="white"/>
<path d="M119.164 146H117.719V136.656C117.719 136.047 117.828 135.534 118.047 135.117C118.271 134.695 118.591 134.378 119.008 134.164C119.424 133.945 119.919 133.836 120.492 133.836C120.659 133.836 120.826 133.846 120.992 133.867C121.164 133.888 121.331 133.919 121.492 133.961L121.414 135.141C121.305 135.115 121.18 135.096 121.039 135.086C120.904 135.076 120.768 135.07 120.633 135.07C120.326 135.07 120.06 135.133 119.836 135.258C119.617 135.378 119.451 135.555 119.336 135.789C119.221 136.023 119.164 136.312 119.164 136.656V146ZM120.961 137.547V138.656H116.383V137.547H120.961Z" fill="white"/>
<path d="M127.555 144.555V140.203C127.555 139.87 127.487 139.581 127.352 139.336C127.221 139.086 127.023 138.893 126.758 138.758C126.492 138.622 126.164 138.555 125.773 138.555C125.409 138.555 125.089 138.617 124.812 138.742C124.542 138.867 124.328 139.031 124.172 139.234C124.021 139.438 123.945 139.656 123.945 139.891H122.5C122.5 139.589 122.578 139.289 122.734 138.992C122.891 138.695 123.115 138.427 123.406 138.188C123.703 137.943 124.057 137.75 124.469 137.609C124.885 137.464 125.349 137.391 125.859 137.391C126.474 137.391 127.016 137.495 127.484 137.703C127.958 137.911 128.328 138.227 128.594 138.648C128.865 139.065 129 139.589 129 140.219V144.156C129 144.438 129.023 144.737 129.07 145.055C129.122 145.372 129.198 145.646 129.297 145.875V146H127.789C127.716 145.833 127.659 145.612 127.617 145.336C127.576 145.055 127.555 144.794 127.555 144.555ZM127.805 140.875L127.82 141.891H126.359C125.948 141.891 125.581 141.924 125.258 141.992C124.935 142.055 124.664 142.151 124.445 142.281C124.227 142.411 124.06 142.576 123.945 142.773C123.831 142.966 123.773 143.193 123.773 143.453C123.773 143.719 123.833 143.961 123.953 144.18C124.073 144.398 124.253 144.573 124.492 144.703C124.737 144.828 125.036 144.891 125.391 144.891C125.833 144.891 126.224 144.797 126.562 144.609C126.901 144.422 127.169 144.193 127.367 143.922C127.57 143.651 127.68 143.388 127.695 143.133L128.312 143.828C128.276 144.047 128.177 144.289 128.016 144.555C127.854 144.82 127.638 145.076 127.367 145.32C127.102 145.56 126.784 145.76 126.414 145.922C126.049 146.078 125.638 146.156 125.18 146.156C124.607 146.156 124.104 146.044 123.672 145.82C123.245 145.596 122.911 145.297 122.672 144.922C122.438 144.542 122.32 144.117 122.32 143.648C122.32 143.195 122.409 142.797 122.586 142.453C122.763 142.104 123.018 141.815 123.352 141.586C123.685 141.352 124.086 141.174 124.555 141.055C125.023 140.935 125.547 140.875 126.125 140.875H127.805Z" fill="white"/>
<path d="M136.195 143.758C136.195 143.549 136.148 143.357 136.055 143.18C135.966 142.997 135.781 142.833 135.5 142.688C135.224 142.536 134.807 142.406 134.25 142.297C133.781 142.198 133.357 142.081 132.977 141.945C132.602 141.81 132.281 141.646 132.016 141.453C131.755 141.26 131.555 141.034 131.414 140.773C131.273 140.513 131.203 140.208 131.203 139.859C131.203 139.526 131.276 139.211 131.422 138.914C131.573 138.617 131.784 138.354 132.055 138.125C132.331 137.896 132.661 137.716 133.047 137.586C133.432 137.456 133.862 137.391 134.336 137.391C135.013 137.391 135.591 137.51 136.07 137.75C136.549 137.99 136.917 138.31 137.172 138.711C137.427 139.107 137.555 139.547 137.555 140.031H136.109C136.109 139.797 136.039 139.57 135.898 139.352C135.763 139.128 135.562 138.943 135.297 138.797C135.036 138.651 134.716 138.578 134.336 138.578C133.935 138.578 133.609 138.641 133.359 138.766C133.115 138.885 132.935 139.039 132.82 139.227C132.711 139.414 132.656 139.612 132.656 139.82C132.656 139.977 132.682 140.117 132.734 140.242C132.792 140.362 132.891 140.474 133.031 140.578C133.172 140.677 133.37 140.771 133.625 140.859C133.88 140.948 134.206 141.036 134.602 141.125C135.294 141.281 135.865 141.469 136.312 141.688C136.76 141.906 137.094 142.174 137.312 142.492C137.531 142.81 137.641 143.195 137.641 143.648C137.641 144.018 137.562 144.357 137.406 144.664C137.255 144.971 137.034 145.237 136.742 145.461C136.456 145.68 136.112 145.852 135.711 145.977C135.315 146.096 134.87 146.156 134.375 146.156C133.63 146.156 133 146.023 132.484 145.758C131.969 145.492 131.578 145.148 131.312 144.727C131.047 144.305 130.914 143.859 130.914 143.391H132.367C132.388 143.786 132.503 144.102 132.711 144.336C132.919 144.565 133.174 144.729 133.477 144.828C133.779 144.922 134.078 144.969 134.375 144.969C134.771 144.969 135.102 144.917 135.367 144.812C135.638 144.708 135.844 144.565 135.984 144.383C136.125 144.201 136.195 143.992 136.195 143.758Z" fill="white"/>
<path d="M143.078 137.547V138.656H138.508V137.547H143.078ZM140.055 135.492H141.5V143.906C141.5 144.193 141.544 144.409 141.633 144.555C141.721 144.701 141.836 144.797 141.977 144.844C142.117 144.891 142.268 144.914 142.43 144.914C142.549 144.914 142.674 144.904 142.805 144.883C142.94 144.857 143.042 144.836 143.109 144.82L143.117 146C143.003 146.036 142.852 146.07 142.664 146.102C142.482 146.138 142.26 146.156 142 146.156C141.646 146.156 141.32 146.086 141.023 145.945C140.727 145.805 140.49 145.57 140.312 145.242C140.141 144.909 140.055 144.461 140.055 143.898V135.492Z" fill="white"/>
<path d="M148.281 146.156C147.693 146.156 147.159 146.057 146.68 145.859C146.206 145.656 145.797 145.372 145.453 145.008C145.115 144.643 144.854 144.211 144.672 143.711C144.49 143.211 144.398 142.664 144.398 142.07V141.742C144.398 141.055 144.5 140.443 144.703 139.906C144.906 139.365 145.182 138.906 145.531 138.531C145.88 138.156 146.276 137.872 146.719 137.68C147.161 137.487 147.62 137.391 148.094 137.391C148.698 137.391 149.219 137.495 149.656 137.703C150.099 137.911 150.461 138.203 150.742 138.578C151.023 138.948 151.232 139.385 151.367 139.891C151.503 140.391 151.57 140.938 151.57 141.531V142.18H145.258V141H150.125V140.891C150.104 140.516 150.026 140.151 149.891 139.797C149.76 139.443 149.552 139.151 149.266 138.922C148.979 138.693 148.589 138.578 148.094 138.578C147.766 138.578 147.464 138.648 147.188 138.789C146.911 138.924 146.674 139.128 146.477 139.398C146.279 139.669 146.125 140 146.016 140.391C145.906 140.781 145.852 141.232 145.852 141.742V142.07C145.852 142.471 145.906 142.849 146.016 143.203C146.13 143.552 146.294 143.859 146.508 144.125C146.727 144.391 146.99 144.599 147.297 144.75C147.609 144.901 147.964 144.977 148.359 144.977C148.87 144.977 149.302 144.872 149.656 144.664C150.01 144.456 150.32 144.177 150.586 143.828L151.461 144.523C151.279 144.799 151.047 145.062 150.766 145.312C150.484 145.562 150.138 145.766 149.727 145.922C149.32 146.078 148.839 146.156 148.281 146.156Z" fill="white"/>
<path d="M154.703 139.352V146H153.258V137.547H154.625L154.703 139.352ZM154.359 141.453L153.758 141.43C153.763 140.852 153.849 140.318 154.016 139.828C154.182 139.333 154.417 138.904 154.719 138.539C155.021 138.174 155.38 137.893 155.797 137.695C156.219 137.492 156.685 137.391 157.195 137.391C157.612 137.391 157.987 137.448 158.32 137.562C158.654 137.672 158.938 137.849 159.172 138.094C159.411 138.339 159.594 138.656 159.719 139.047C159.844 139.432 159.906 139.904 159.906 140.461V146H158.453V140.445C158.453 140.003 158.388 139.648 158.258 139.383C158.128 139.112 157.938 138.917 157.688 138.797C157.438 138.672 157.13 138.609 156.766 138.609C156.406 138.609 156.078 138.685 155.781 138.836C155.49 138.987 155.237 139.195 155.023 139.461C154.815 139.727 154.651 140.031 154.531 140.375C154.417 140.714 154.359 141.073 154.359 141.453Z" fill="white"/>
<path d="M165.609 146.156C165.021 146.156 164.487 146.057 164.008 145.859C163.534 145.656 163.125 145.372 162.781 145.008C162.443 144.643 162.182 144.211 162 143.711C161.818 143.211 161.727 142.664 161.727 142.07V141.742C161.727 141.055 161.828 140.443 162.031 139.906C162.234 139.365 162.51 138.906 162.859 138.531C163.208 138.156 163.604 137.872 164.047 137.68C164.49 137.487 164.948 137.391 165.422 137.391C166.026 137.391 166.547 137.495 166.984 137.703C167.427 137.911 167.789 138.203 168.07 138.578C168.352 138.948 168.56 139.385 168.695 139.891C168.831 140.391 168.898 140.938 168.898 141.531V142.18H162.586V141H167.453V140.891C167.432 140.516 167.354 140.151 167.219 139.797C167.089 139.443 166.88 139.151 166.594 138.922C166.307 138.693 165.917 138.578 165.422 138.578C165.094 138.578 164.792 138.648 164.516 138.789C164.24 138.924 164.003 139.128 163.805 139.398C163.607 139.669 163.453 140 163.344 140.391C163.234 140.781 163.18 141.232 163.18 141.742V142.07C163.18 142.471 163.234 142.849 163.344 143.203C163.458 143.552 163.622 143.859 163.836 144.125C164.055 144.391 164.318 144.599 164.625 144.75C164.938 144.901 165.292 144.977 165.688 144.977C166.198 144.977 166.63 144.872 166.984 144.664C167.339 144.456 167.648 144.177 167.914 143.828L168.789 144.523C168.607 144.799 168.375 145.062 168.094 145.312C167.812 145.562 167.466 145.766 167.055 145.922C166.648 146.078 166.167 146.156 165.609 146.156Z" fill="white"/>
<path d="M172.031 138.875V146H170.586V137.547H171.992L172.031 138.875ZM174.672 137.5L174.664 138.844C174.544 138.818 174.43 138.802 174.32 138.797C174.216 138.786 174.096 138.781 173.961 138.781C173.628 138.781 173.333 138.833 173.078 138.938C172.823 139.042 172.607 139.188 172.43 139.375C172.253 139.562 172.112 139.786 172.008 140.047C171.909 140.302 171.844 140.583 171.812 140.891L171.406 141.125C171.406 140.615 171.456 140.135 171.555 139.688C171.659 139.24 171.818 138.844 172.031 138.5C172.245 138.151 172.516 137.88 172.844 137.688C173.177 137.49 173.573 137.391 174.031 137.391C174.135 137.391 174.255 137.404 174.391 137.43C174.526 137.451 174.62 137.474 174.672 137.5Z" fill="white"/>
<path d="M180.93 143.758C180.93 143.549 180.883 143.357 180.789 143.18C180.701 142.997 180.516 142.833 180.234 142.688C179.958 142.536 179.542 142.406 178.984 142.297C178.516 142.198 178.091 142.081 177.711 141.945C177.336 141.81 177.016 141.646 176.75 141.453C176.49 141.26 176.289 141.034 176.148 140.773C176.008 140.513 175.938 140.208 175.938 139.859C175.938 139.526 176.01 139.211 176.156 138.914C176.307 138.617 176.518 138.354 176.789 138.125C177.065 137.896 177.396 137.716 177.781 137.586C178.167 137.456 178.596 137.391 179.07 137.391C179.747 137.391 180.326 137.51 180.805 137.75C181.284 137.99 181.651 138.31 181.906 138.711C182.161 139.107 182.289 139.547 182.289 140.031H180.844C180.844 139.797 180.773 139.57 180.633 139.352C180.497 139.128 180.297 138.943 180.031 138.797C179.771 138.651 179.451 138.578 179.07 138.578C178.669 138.578 178.344 138.641 178.094 138.766C177.849 138.885 177.669 139.039 177.555 139.227C177.445 139.414 177.391 139.612 177.391 139.82C177.391 139.977 177.417 140.117 177.469 140.242C177.526 140.362 177.625 140.474 177.766 140.578C177.906 140.677 178.104 140.771 178.359 140.859C178.615 140.948 178.94 141.036 179.336 141.125C180.029 141.281 180.599 141.469 181.047 141.688C181.495 141.906 181.828 142.174 182.047 142.492C182.266 142.81 182.375 143.195 182.375 143.648C182.375 144.018 182.297 144.357 182.141 144.664C181.99 144.971 181.768 145.237 181.477 145.461C181.19 145.68 180.846 145.852 180.445 145.977C180.049 146.096 179.604 146.156 179.109 146.156C178.365 146.156 177.734 146.023 177.219 145.758C176.703 145.492 176.312 145.148 176.047 144.727C175.781 144.305 175.648 143.859 175.648 143.391H177.102C177.122 143.786 177.237 144.102 177.445 144.336C177.654 144.565 177.909 144.729 178.211 144.828C178.513 144.922 178.812 144.969 179.109 144.969C179.505 144.969 179.836 144.917 180.102 144.812C180.372 144.708 180.578 144.565 180.719 144.383C180.859 144.201 180.93 143.992 180.93 143.758Z" fill="white"/>
<path d="M193.227 144.555V140.203C193.227 139.87 193.159 139.581 193.023 139.336C192.893 139.086 192.695 138.893 192.43 138.758C192.164 138.622 191.836 138.555 191.445 138.555C191.081 138.555 190.76 138.617 190.484 138.742C190.214 138.867 190 139.031 189.844 139.234C189.693 139.438 189.617 139.656 189.617 139.891H188.172C188.172 139.589 188.25 139.289 188.406 138.992C188.562 138.695 188.786 138.427 189.078 138.188C189.375 137.943 189.729 137.75 190.141 137.609C190.557 137.464 191.021 137.391 191.531 137.391C192.146 137.391 192.688 137.495 193.156 137.703C193.63 137.911 194 138.227 194.266 138.648C194.536 139.065 194.672 139.589 194.672 140.219V144.156C194.672 144.438 194.695 144.737 194.742 145.055C194.794 145.372 194.87 145.646 194.969 145.875V146H193.461C193.388 145.833 193.331 145.612 193.289 145.336C193.247 145.055 193.227 144.794 193.227 144.555ZM193.477 140.875L193.492 141.891H192.031C191.62 141.891 191.253 141.924 190.93 141.992C190.607 142.055 190.336 142.151 190.117 142.281C189.898 142.411 189.732 142.576 189.617 142.773C189.503 142.966 189.445 143.193 189.445 143.453C189.445 143.719 189.505 143.961 189.625 144.18C189.745 144.398 189.924 144.573 190.164 144.703C190.409 144.828 190.708 144.891 191.062 144.891C191.505 144.891 191.896 144.797 192.234 144.609C192.573 144.422 192.841 144.193 193.039 143.922C193.242 143.651 193.352 143.388 193.367 143.133L193.984 143.828C193.948 144.047 193.849 144.289 193.688 144.555C193.526 144.82 193.31 145.076 193.039 145.32C192.773 145.56 192.456 145.76 192.086 145.922C191.721 146.078 191.31 146.156 190.852 146.156C190.279 146.156 189.776 146.044 189.344 145.82C188.917 145.596 188.583 145.297 188.344 144.922C188.109 144.542 187.992 144.117 187.992 143.648C187.992 143.195 188.081 142.797 188.258 142.453C188.435 142.104 188.69 141.815 189.023 141.586C189.357 141.352 189.758 141.174 190.227 141.055C190.695 140.935 191.219 140.875 191.797 140.875H193.477Z" fill="white"/>
<path d="M198.391 139.352V146H196.945V137.547H198.312L198.391 139.352ZM198.047 141.453L197.445 141.43C197.451 140.852 197.536 140.318 197.703 139.828C197.87 139.333 198.104 138.904 198.406 138.539C198.708 138.174 199.068 137.893 199.484 137.695C199.906 137.492 200.372 137.391 200.883 137.391C201.299 137.391 201.674 137.448 202.008 137.562C202.341 137.672 202.625 137.849 202.859 138.094C203.099 138.339 203.281 138.656 203.406 139.047C203.531 139.432 203.594 139.904 203.594 140.461V146H202.141V140.445C202.141 140.003 202.076 139.648 201.945 139.383C201.815 139.112 201.625 138.917 201.375 138.797C201.125 138.672 200.818 138.609 200.453 138.609C200.094 138.609 199.766 138.685 199.469 138.836C199.177 138.987 198.924 139.195 198.711 139.461C198.503 139.727 198.339 140.031 198.219 140.375C198.104 140.714 198.047 141.073 198.047 141.453Z" fill="white"/>
<path d="M211.117 144.359V134H212.57V146H211.242L211.117 144.359ZM205.43 141.867V141.703C205.43 141.057 205.508 140.471 205.664 139.945C205.826 139.414 206.052 138.958 206.344 138.578C206.641 138.198 206.992 137.906 207.398 137.703C207.81 137.495 208.268 137.391 208.773 137.391C209.305 137.391 209.768 137.484 210.164 137.672C210.565 137.854 210.904 138.122 211.18 138.477C211.461 138.826 211.682 139.247 211.844 139.742C212.005 140.237 212.117 140.797 212.18 141.422V142.141C212.122 142.76 212.01 143.318 211.844 143.812C211.682 144.307 211.461 144.729 211.18 145.078C210.904 145.427 210.565 145.695 210.164 145.883C209.763 146.065 209.294 146.156 208.758 146.156C208.263 146.156 207.81 146.049 207.398 145.836C206.992 145.622 206.641 145.323 206.344 144.938C206.052 144.552 205.826 144.099 205.664 143.578C205.508 143.052 205.43 142.482 205.43 141.867ZM206.883 141.703V141.867C206.883 142.289 206.924 142.685 207.008 143.055C207.096 143.424 207.232 143.75 207.414 144.031C207.596 144.312 207.828 144.534 208.109 144.695C208.391 144.852 208.727 144.93 209.117 144.93C209.596 144.93 209.99 144.828 210.297 144.625C210.609 144.422 210.859 144.154 211.047 143.82C211.234 143.487 211.38 143.125 211.484 142.734V140.852C211.422 140.565 211.331 140.289 211.211 140.023C211.096 139.753 210.945 139.513 210.758 139.305C210.576 139.091 210.349 138.922 210.078 138.797C209.812 138.672 209.497 138.609 209.133 138.609C208.737 138.609 208.396 138.693 208.109 138.859C207.828 139.021 207.596 139.245 207.414 139.531C207.232 139.812 207.096 140.141 207.008 140.516C206.924 140.885 206.883 141.281 206.883 141.703Z" fill="white"/>
<path d="M92.7578 163.555V159.203C92.7578 158.87 92.6901 158.581 92.5547 158.336C92.4245 158.086 92.2266 157.893 91.9609 157.758C91.6953 157.622 91.3672 157.555 90.9766 157.555C90.612 157.555 90.2917 157.617 90.0156 157.742C89.7448 157.867 89.5312 158.031 89.375 158.234C89.224 158.438 89.1484 158.656 89.1484 158.891H87.7031C87.7031 158.589 87.7812 158.289 87.9375 157.992C88.0938 157.695 88.3177 157.427 88.6094 157.188C88.9062 156.943 89.2604 156.75 89.6719 156.609C90.0885 156.464 90.5521 156.391 91.0625 156.391C91.6771 156.391 92.2188 156.495 92.6875 156.703C93.1615 156.911 93.5312 157.227 93.7969 157.648C94.0677 158.065 94.2031 158.589 94.2031 159.219V163.156C94.2031 163.438 94.2266 163.737 94.2734 164.055C94.3255 164.372 94.401 164.646 94.5 164.875V165H92.9922C92.9193 164.833 92.862 164.612 92.8203 164.336C92.7786 164.055 92.7578 163.794 92.7578 163.555ZM93.0078 159.875L93.0234 160.891H91.5625C91.151 160.891 90.7839 160.924 90.4609 160.992C90.138 161.055 89.8672 161.151 89.6484 161.281C89.4297 161.411 89.263 161.576 89.1484 161.773C89.0339 161.966 88.9766 162.193 88.9766 162.453C88.9766 162.719 89.0365 162.961 89.1562 163.18C89.276 163.398 89.4557 163.573 89.6953 163.703C89.9401 163.828 90.2396 163.891 90.5938 163.891C91.0365 163.891 91.4271 163.797 91.7656 163.609C92.1042 163.422 92.3724 163.193 92.5703 162.922C92.7734 162.651 92.8828 162.388 92.8984 162.133L93.5156 162.828C93.4792 163.047 93.3802 163.289 93.2188 163.555C93.0573 163.82 92.8411 164.076 92.5703 164.32C92.3047 164.56 91.987 164.76 91.6172 164.922C91.2526 165.078 90.8411 165.156 90.3828 165.156C89.8099 165.156 89.3073 165.044 88.875 164.82C88.4479 164.596 88.1146 164.297 87.875 163.922C87.6406 163.542 87.5234 163.117 87.5234 162.648C87.5234 162.195 87.612 161.797 87.7891 161.453C87.9661 161.104 88.2214 160.815 88.5547 160.586C88.888 160.352 89.2891 160.174 89.7578 160.055C90.2266 159.935 90.75 159.875 91.3281 159.875H93.0078Z" fill="white"/>
<path d="M99.8594 163.969C100.203 163.969 100.521 163.898 100.812 163.758C101.104 163.617 101.344 163.424 101.531 163.18C101.719 162.93 101.826 162.646 101.852 162.328H103.227C103.201 162.828 103.031 163.294 102.719 163.727C102.411 164.154 102.008 164.5 101.508 164.766C101.008 165.026 100.458 165.156 99.8594 165.156C99.224 165.156 98.6693 165.044 98.1953 164.82C97.7266 164.596 97.3359 164.289 97.0234 163.898C96.7161 163.508 96.4844 163.06 96.3281 162.555C96.1771 162.044 96.1016 161.505 96.1016 160.938V160.609C96.1016 160.042 96.1771 159.505 96.3281 159C96.4844 158.49 96.7161 158.039 97.0234 157.648C97.3359 157.258 97.7266 156.951 98.1953 156.727C98.6693 156.503 99.224 156.391 99.8594 156.391C100.521 156.391 101.099 156.526 101.594 156.797C102.089 157.062 102.477 157.427 102.758 157.891C103.044 158.349 103.201 158.87 103.227 159.453H101.852C101.826 159.104 101.727 158.789 101.555 158.508C101.388 158.227 101.159 158.003 100.867 157.836C100.581 157.664 100.245 157.578 99.8594 157.578C99.4167 157.578 99.0443 157.667 98.7422 157.844C98.4453 158.016 98.2083 158.25 98.0312 158.547C97.8594 158.839 97.7344 159.164 97.6562 159.523C97.5833 159.878 97.5469 160.24 97.5469 160.609V160.938C97.5469 161.307 97.5833 161.672 97.6562 162.031C97.7292 162.391 97.8516 162.716 98.0234 163.008C98.2005 163.299 98.4375 163.534 98.7344 163.711C99.0365 163.883 99.4115 163.969 99.8594 163.969Z" fill="white"/>
<path d="M108.234 163.969C108.578 163.969 108.896 163.898 109.188 163.758C109.479 163.617 109.719 163.424 109.906 163.18C110.094 162.93 110.201 162.646 110.227 162.328H111.602C111.576 162.828 111.406 163.294 111.094 163.727C110.786 164.154 110.383 164.5 109.883 164.766C109.383 165.026 108.833 165.156 108.234 165.156C107.599 165.156 107.044 165.044 106.57 164.82C106.102 164.596 105.711 164.289 105.398 163.898C105.091 163.508 104.859 163.06 104.703 162.555C104.552 162.044 104.477 161.505 104.477 160.938V160.609C104.477 160.042 104.552 159.505 104.703 159C104.859 158.49 105.091 158.039 105.398 157.648C105.711 157.258 106.102 156.951 106.57 156.727C107.044 156.503 107.599 156.391 108.234 156.391C108.896 156.391 109.474 156.526 109.969 156.797C110.464 157.062 110.852 157.427 111.133 157.891C111.419 158.349 111.576 158.87 111.602 159.453H110.227C110.201 159.104 110.102 158.789 109.93 158.508C109.763 158.227 109.534 158.003 109.242 157.836C108.956 157.664 108.62 157.578 108.234 157.578C107.792 157.578 107.419 157.667 107.117 157.844C106.82 158.016 106.583 158.25 106.406 158.547C106.234 158.839 106.109 159.164 106.031 159.523C105.958 159.878 105.922 160.24 105.922 160.609V160.938C105.922 161.307 105.958 161.672 106.031 162.031C106.104 162.391 106.227 162.716 106.398 163.008C106.576 163.299 106.812 163.534 107.109 163.711C107.411 163.883 107.786 163.969 108.234 163.969Z" fill="white"/>
<path d="M116.734 165.156C116.146 165.156 115.612 165.057 115.133 164.859C114.659 164.656 114.25 164.372 113.906 164.008C113.568 163.643 113.307 163.211 113.125 162.711C112.943 162.211 112.852 161.664 112.852 161.07V160.742C112.852 160.055 112.953 159.443 113.156 158.906C113.359 158.365 113.635 157.906 113.984 157.531C114.333 157.156 114.729 156.872 115.172 156.68C115.615 156.487 116.073 156.391 116.547 156.391C117.151 156.391 117.672 156.495 118.109 156.703C118.552 156.911 118.914 157.203 119.195 157.578C119.477 157.948 119.685 158.385 119.82 158.891C119.956 159.391 120.023 159.938 120.023 160.531V161.18H113.711V160H118.578V159.891C118.557 159.516 118.479 159.151 118.344 158.797C118.214 158.443 118.005 158.151 117.719 157.922C117.432 157.693 117.042 157.578 116.547 157.578C116.219 157.578 115.917 157.648 115.641 157.789C115.365 157.924 115.128 158.128 114.93 158.398C114.732 158.669 114.578 159 114.469 159.391C114.359 159.781 114.305 160.232 114.305 160.742V161.07C114.305 161.471 114.359 161.849 114.469 162.203C114.583 162.552 114.747 162.859 114.961 163.125C115.18 163.391 115.443 163.599 115.75 163.75C116.062 163.901 116.417 163.977 116.812 163.977C117.323 163.977 117.755 163.872 118.109 163.664C118.464 163.456 118.773 163.177 119.039 162.828L119.914 163.523C119.732 163.799 119.5 164.062 119.219 164.312C118.938 164.562 118.591 164.766 118.18 164.922C117.773 165.078 117.292 165.156 116.734 165.156Z" fill="white"/>
<path d="M126.633 162.758C126.633 162.549 126.586 162.357 126.492 162.18C126.404 161.997 126.219 161.833 125.938 161.688C125.661 161.536 125.245 161.406 124.688 161.297C124.219 161.198 123.794 161.081 123.414 160.945C123.039 160.81 122.719 160.646 122.453 160.453C122.193 160.26 121.992 160.034 121.852 159.773C121.711 159.513 121.641 159.208 121.641 158.859C121.641 158.526 121.714 158.211 121.859 157.914C122.01 157.617 122.221 157.354 122.492 157.125C122.768 156.896 123.099 156.716 123.484 156.586C123.87 156.456 124.299 156.391 124.773 156.391C125.451 156.391 126.029 156.51 126.508 156.75C126.987 156.99 127.354 157.31 127.609 157.711C127.865 158.107 127.992 158.547 127.992 159.031H126.547C126.547 158.797 126.477 158.57 126.336 158.352C126.201 158.128 126 157.943 125.734 157.797C125.474 157.651 125.154 157.578 124.773 157.578C124.372 157.578 124.047 157.641 123.797 157.766C123.552 157.885 123.372 158.039 123.258 158.227C123.148 158.414 123.094 158.612 123.094 158.82C123.094 158.977 123.12 159.117 123.172 159.242C123.229 159.362 123.328 159.474 123.469 159.578C123.609 159.677 123.807 159.771 124.062 159.859C124.318 159.948 124.643 160.036 125.039 160.125C125.732 160.281 126.302 160.469 126.75 160.688C127.198 160.906 127.531 161.174 127.75 161.492C127.969 161.81 128.078 162.195 128.078 162.648C128.078 163.018 128 163.357 127.844 163.664C127.693 163.971 127.471 164.237 127.18 164.461C126.893 164.68 126.549 164.852 126.148 164.977C125.753 165.096 125.307 165.156 124.812 165.156C124.068 165.156 123.438 165.023 122.922 164.758C122.406 164.492 122.016 164.148 121.75 163.727C121.484 163.305 121.352 162.859 121.352 162.391H122.805C122.826 162.786 122.94 163.102 123.148 163.336C123.357 163.565 123.612 163.729 123.914 163.828C124.216 163.922 124.516 163.969 124.812 163.969C125.208 163.969 125.539 163.917 125.805 163.812C126.076 163.708 126.281 163.565 126.422 163.383C126.562 163.201 126.633 162.992 126.633 162.758Z" fill="white"/>
<path d="M134.898 162.758C134.898 162.549 134.852 162.357 134.758 162.18C134.669 161.997 134.484 161.833 134.203 161.688C133.927 161.536 133.51 161.406 132.953 161.297C132.484 161.198 132.06 161.081 131.68 160.945C131.305 160.81 130.984 160.646 130.719 160.453C130.458 160.26 130.258 160.034 130.117 159.773C129.977 159.513 129.906 159.208 129.906 158.859C129.906 158.526 129.979 158.211 130.125 157.914C130.276 157.617 130.487 157.354 130.758 157.125C131.034 156.896 131.365 156.716 131.75 156.586C132.135 156.456 132.565 156.391 133.039 156.391C133.716 156.391 134.294 156.51 134.773 156.75C135.253 156.99 135.62 157.31 135.875 157.711C136.13 158.107 136.258 158.547 136.258 159.031H134.812C134.812 158.797 134.742 158.57 134.602 158.352C134.466 158.128 134.266 157.943 134 157.797C133.74 157.651 133.419 157.578 133.039 157.578C132.638 157.578 132.312 157.641 132.062 157.766C131.818 157.885 131.638 158.039 131.523 158.227C131.414 158.414 131.359 158.612 131.359 158.82C131.359 158.977 131.385 159.117 131.438 159.242C131.495 159.362 131.594 159.474 131.734 159.578C131.875 159.677 132.073 159.771 132.328 159.859C132.583 159.948 132.909 160.036 133.305 160.125C133.997 160.281 134.568 160.469 135.016 160.688C135.464 160.906 135.797 161.174 136.016 161.492C136.234 161.81 136.344 162.195 136.344 162.648C136.344 163.018 136.266 163.357 136.109 163.664C135.958 163.971 135.737 164.237 135.445 164.461C135.159 164.68 134.815 164.852 134.414 164.977C134.018 165.096 133.573 165.156 133.078 165.156C132.333 165.156 131.703 165.023 131.188 164.758C130.672 164.492 130.281 164.148 130.016 163.727C129.75 163.305 129.617 162.859 129.617 162.391H131.07C131.091 162.786 131.206 163.102 131.414 163.336C131.622 163.565 131.878 163.729 132.18 163.828C132.482 163.922 132.781 163.969 133.078 163.969C133.474 163.969 133.805 163.917 134.07 163.812C134.341 163.708 134.547 163.565 134.688 163.383C134.828 163.201 134.898 162.992 134.898 162.758Z" fill="white"/>
<path d="M137.859 160.867V160.688C137.859 160.078 137.948 159.513 138.125 158.992C138.302 158.466 138.557 158.01 138.891 157.625C139.224 157.234 139.628 156.932 140.102 156.719C140.576 156.5 141.107 156.391 141.695 156.391C142.289 156.391 142.823 156.5 143.297 156.719C143.776 156.932 144.182 157.234 144.516 157.625C144.854 158.01 145.112 158.466 145.289 158.992C145.466 159.513 145.555 160.078 145.555 160.688V160.867C145.555 161.477 145.466 162.042 145.289 162.562C145.112 163.083 144.854 163.539 144.516 163.93C144.182 164.315 143.779 164.617 143.305 164.836C142.836 165.049 142.305 165.156 141.711 165.156C141.117 165.156 140.583 165.049 140.109 164.836C139.635 164.617 139.229 164.315 138.891 163.93C138.557 163.539 138.302 163.083 138.125 162.562C137.948 162.042 137.859 161.477 137.859 160.867ZM139.305 160.688V160.867C139.305 161.289 139.354 161.688 139.453 162.062C139.552 162.432 139.701 162.76 139.898 163.047C140.102 163.333 140.354 163.56 140.656 163.727C140.958 163.888 141.31 163.969 141.711 163.969C142.107 163.969 142.453 163.888 142.75 163.727C143.052 163.56 143.302 163.333 143.5 163.047C143.698 162.76 143.846 162.432 143.945 162.062C144.049 161.688 144.102 161.289 144.102 160.867V160.688C144.102 160.271 144.049 159.878 143.945 159.508C143.846 159.133 143.695 158.802 143.492 158.516C143.294 158.224 143.044 157.995 142.742 157.828C142.445 157.661 142.096 157.578 141.695 157.578C141.299 157.578 140.951 157.661 140.648 157.828C140.352 157.995 140.102 158.224 139.898 158.516C139.701 158.802 139.552 159.133 139.453 159.508C139.354 159.878 139.305 160.271 139.305 160.688Z" fill="white"/>
<path d="M148.812 157.875V165H147.367V156.547H148.773L148.812 157.875ZM151.453 156.5L151.445 157.844C151.326 157.818 151.211 157.802 151.102 157.797C150.997 157.786 150.878 157.781 150.742 157.781C150.409 157.781 150.115 157.833 149.859 157.938C149.604 158.042 149.388 158.188 149.211 158.375C149.034 158.562 148.893 158.786 148.789 159.047C148.69 159.302 148.625 159.583 148.594 159.891L148.188 160.125C148.188 159.615 148.237 159.135 148.336 158.688C148.44 158.24 148.599 157.844 148.812 157.5C149.026 157.151 149.297 156.88 149.625 156.688C149.958 156.49 150.354 156.391 150.812 156.391C150.917 156.391 151.036 156.404 151.172 156.43C151.307 156.451 151.401 156.474 151.453 156.5Z" fill="white"/>
<path d="M154.359 156.547V165H152.906V156.547H154.359ZM152.797 154.305C152.797 154.07 152.867 153.872 153.008 153.711C153.154 153.549 153.367 153.469 153.648 153.469C153.924 153.469 154.135 153.549 154.281 153.711C154.432 153.872 154.508 154.07 154.508 154.305C154.508 154.529 154.432 154.721 154.281 154.883C154.135 155.039 153.924 155.117 153.648 155.117C153.367 155.117 153.154 155.039 153.008 154.883C152.867 154.721 152.797 154.529 152.797 154.305Z" fill="white"/>
<path d="M160.188 165.156C159.599 165.156 159.065 165.057 158.586 164.859C158.112 164.656 157.703 164.372 157.359 164.008C157.021 163.643 156.76 163.211 156.578 162.711C156.396 162.211 156.305 161.664 156.305 161.07V160.742C156.305 160.055 156.406 159.443 156.609 158.906C156.812 158.365 157.089 157.906 157.438 157.531C157.786 157.156 158.182 156.872 158.625 156.68C159.068 156.487 159.526 156.391 160 156.391C160.604 156.391 161.125 156.495 161.562 156.703C162.005 156.911 162.367 157.203 162.648 157.578C162.93 157.948 163.138 158.385 163.273 158.891C163.409 159.391 163.477 159.938 163.477 160.531V161.18H157.164V160H162.031V159.891C162.01 159.516 161.932 159.151 161.797 158.797C161.667 158.443 161.458 158.151 161.172 157.922C160.885 157.693 160.495 157.578 160 157.578C159.672 157.578 159.37 157.648 159.094 157.789C158.818 157.924 158.581 158.128 158.383 158.398C158.185 158.669 158.031 159 157.922 159.391C157.812 159.781 157.758 160.232 157.758 160.742V161.07C157.758 161.471 157.812 161.849 157.922 162.203C158.036 162.552 158.201 162.859 158.414 163.125C158.633 163.391 158.896 163.599 159.203 163.75C159.516 163.901 159.87 163.977 160.266 163.977C160.776 163.977 161.208 163.872 161.562 163.664C161.917 163.456 162.227 163.177 162.492 162.828L163.367 163.523C163.185 163.799 162.953 164.062 162.672 164.312C162.391 164.562 162.044 164.766 161.633 164.922C161.227 165.078 160.745 165.156 160.188 165.156Z" fill="white"/>
<path d="M170.086 162.758C170.086 162.549 170.039 162.357 169.945 162.18C169.857 161.997 169.672 161.833 169.391 161.688C169.115 161.536 168.698 161.406 168.141 161.297C167.672 161.198 167.247 161.081 166.867 160.945C166.492 160.81 166.172 160.646 165.906 160.453C165.646 160.26 165.445 160.034 165.305 159.773C165.164 159.513 165.094 159.208 165.094 158.859C165.094 158.526 165.167 158.211 165.312 157.914C165.464 157.617 165.674 157.354 165.945 157.125C166.221 156.896 166.552 156.716 166.938 156.586C167.323 156.456 167.753 156.391 168.227 156.391C168.904 156.391 169.482 156.51 169.961 156.75C170.44 156.99 170.807 157.31 171.062 157.711C171.318 158.107 171.445 158.547 171.445 159.031H170C170 158.797 169.93 158.57 169.789 158.352C169.654 158.128 169.453 157.943 169.188 157.797C168.927 157.651 168.607 157.578 168.227 157.578C167.826 157.578 167.5 157.641 167.25 157.766C167.005 157.885 166.826 158.039 166.711 158.227C166.602 158.414 166.547 158.612 166.547 158.82C166.547 158.977 166.573 159.117 166.625 159.242C166.682 159.362 166.781 159.474 166.922 159.578C167.062 159.677 167.26 159.771 167.516 159.859C167.771 159.948 168.096 160.036 168.492 160.125C169.185 160.281 169.755 160.469 170.203 160.688C170.651 160.906 170.984 161.174 171.203 161.492C171.422 161.81 171.531 162.195 171.531 162.648C171.531 163.018 171.453 163.357 171.297 163.664C171.146 163.971 170.924 164.237 170.633 164.461C170.346 164.68 170.003 164.852 169.602 164.977C169.206 165.096 168.76 165.156 168.266 165.156C167.521 165.156 166.891 165.023 166.375 164.758C165.859 164.492 165.469 164.148 165.203 163.727C164.938 163.305 164.805 162.859 164.805 162.391H166.258C166.279 162.786 166.393 163.102 166.602 163.336C166.81 163.565 167.065 163.729 167.367 163.828C167.669 163.922 167.969 163.969 168.266 163.969C168.661 163.969 168.992 163.917 169.258 163.812C169.529 163.708 169.734 163.565 169.875 163.383C170.016 163.201 170.086 162.992 170.086 162.758Z" fill="white"/>
</svg>
