<?xml version="1.0" encoding="UTF-8"?>
<!DOCTYPE svg PUBLIC "-//W3C//DTD SVG 1.1//EN" "http://www.w3.org/Graphics/SVG/1.1/DTD/svg11.dtd">
<!-- Creator: CorelDRAW 2019 (64-Bit) -->
<svg xmlns="http://www.w3.org/2000/svg" xml:space="preserve" width="1.9567in" height="0.172201in" version="1.1" style="shape-rendering:geometricPrecision; text-rendering:geometricPrecision; image-rendering:optimizeQuality; fill-rule:evenodd; clip-rule:evenodd"
viewBox="0 0 834.42 73.43"
 xmlns:xlink="http://www.w3.org/1999/xlink"
 xmlns:xodm="http://www.corel.com/coreldraw/odm/2003">
 <defs>
  <style type="text/css">
   <![CDATA[
    .fil1 {fill:#FEFEFE}
    .fil0 {fill:#96989A;fill-rule:nonzero}
   ]]>
  </style>
 </defs>
 <g id="Layer_x0020_1">
  <metadata id="CorelCorpID_0Corel-Layer"/>
  <g id="_2162831591120">
   <path class="fil0" d="M629.1 0c0.96,0 1.7,0.25 2.22,0.75 0.53,0.51 0.8,1.23 0.8,2.17l0 9.79c0,1.95 -1.01,2.92 -3.02,2.92l-45.03 0c-1.33,0 -2.54,0.06 -3.61,0.16 -1.06,0.11 -2.03,0.27 -2.88,0.49 -0.83,0.21 -1.57,0.49 -2.22,0.84 -0.65,0.35 -1.22,0.77 -1.7,1.25 -0.49,0.48 -0.9,1.06 -1.24,1.72 -0.34,0.67 -0.61,1.44 -0.81,2.29 -0.2,0.89 -0.35,1.88 -0.45,2.97 -0.1,1.09 -0.15,2.3 -0.15,3.64l0 0.38 57.57 0c0.93,0 1.66,0.25 2.16,0.76 0.5,0.51 0.76,1.23 0.76,2.16l0 8.14c0,0.93 -0.25,1.66 -0.76,2.16 -0.51,0.5 -1.23,0.76 -2.16,0.76l-57.57 0 0 1.1c0,1.34 0.05,2.55 0.15,3.64 0.1,1.09 0.25,2.08 0.45,2.97 0.19,0.86 0.47,1.63 0.81,2.29 0.34,0.66 0.75,1.23 1.23,1.72 0.49,0.49 1.06,0.9 1.7,1.25 0.65,0.35 1.4,0.63 2.22,0.84 0.85,0.21 1.81,0.38 2.88,0.49 1.07,0.11 2.28,0.16 3.61,0.16l45.03 0c0.96,0 1.7,0.25 2.22,0.75 0.53,0.51 0.8,1.23 0.8,2.17l0 9.79c0,1.94 -1.01,2.92 -3.02,2.92l-45.34 0c-5.27,0 -9.76,-0.49 -13.46,-1.46 -1.87,-0.49 -3.57,-1.15 -5.1,-1.95 -1.54,-0.81 -2.9,-1.78 -4.09,-2.9 -1.19,-1.12 -2.23,-2.42 -3.1,-3.87 -0.87,-1.45 -1.58,-3.07 -2.13,-4.86 -0.54,-1.77 -0.95,-3.73 -1.22,-5.87 -0.27,-2.14 -0.4,-4.46 -0.4,-6.95l0 -17.72c0,-5 0.54,-9.26 1.63,-12.76 0.55,-1.76 1.26,-3.37 2.13,-4.82 0.87,-1.45 1.91,-2.74 3.1,-3.86 1.19,-1.12 2.56,-2.1 4.09,-2.91 1.52,-0.81 3.23,-1.47 5.1,-1.98 3.7,-1.01 8.19,-1.52 13.46,-1.52l45.34 0zm86.58 59.82l14.35 0 0 -56.91c0,-1.94 1.01,-2.92 3.02,-2.92l11.13 0c0.93,0 1.66,0.25 2.16,0.76 0.5,0.51 0.76,1.23 0.76,2.16l0 67.6c0,0.93 -0.26,1.65 -0.76,2.16 -0.51,0.5 -1.23,0.76 -2.16,0.76l-4.96 0 -6.17 0 -0.05 0 -0.04 0 -11 0 -0.03 0 -0.03 0 -0.03 0 -10.57 0 -2.72 0c-0.47,0 -0.89,-0.03 -1.24,-0.09 -0.39,-0.07 -0.71,-0.17 -0.95,-0.32 -0.22,-0.13 -0.43,-0.3 -0.64,-0.51 -0.19,-0.19 -0.39,-0.43 -0.58,-0.7l-16.07 -21.16 -32.31 0 0 19.85c0,0.93 -0.26,1.65 -0.76,2.16 -0.51,0.5 -1.23,0.76 -2.16,0.76l-11.13 0c-0.96,0 -1.71,-0.25 -2.23,-0.75 -0.53,-0.51 -0.8,-1.23 -0.8,-2.17l0 -66.77c0,-1.21 0.32,-2.14 0.97,-2.78 0.64,-0.64 1.57,-0.97 2.78,-0.97l55.33 0c8.08,0 13.91,1.86 17.47,5.56 3.56,3.7 5.34,9.14 5.34,16.32l0 5.87c0,6.04 -1.24,10.84 -3.73,14.38 -1.26,1.8 -2.91,3.28 -4.95,4.42 -1.76,0.99 -3.81,1.73 -6.14,2.23l8.9 11.03zm-58.89 -23.04l38.81 0c1.69,0 3.13,-0.18 4.29,-0.54 1.12,-0.34 2.01,-0.85 2.66,-1.53 0.65,-0.68 1.15,-1.55 1.47,-2.61 0.34,-1.08 0.51,-2.37 0.51,-3.85l0 -4.33c0,-1.48 -0.17,-2.77 -0.51,-3.85 -0.33,-1.05 -0.82,-1.92 -1.47,-2.61 -0.64,-0.67 -1.53,-1.18 -2.66,-1.53 -1.17,-0.36 -2.6,-0.54 -4.29,-0.54l-38.13 0c-0.46,0 -0.69,0.19 -0.69,0.58l0 20.78zm172.03 -36.79c0.93,0 1.66,0.25 2.16,0.76 0.5,0.51 0.76,1.23 0.76,2.16l0 9.79c0,0.93 -0.25,1.66 -0.76,2.16 -0.51,0.5 -1.23,0.76 -2.16,0.76l-51.62 0c-0.92,0 -1.7,0.12 -2.33,0.35 -0.59,0.21 -1.05,0.53 -1.39,0.96 -0.73,0.91 -1.09,2.18 -1.09,3.82l0 3.5c0,3.41 1.57,5.12 4.71,5.12l38.64 0c3.05,0 5.75,0.39 8.06,1.18 2.34,0.8 4.31,2 5.9,3.6 1.58,1.59 2.77,3.54 3.55,5.82 0.78,2.25 1.17,4.85 1.17,7.77l0 8.25c0,2.58 -0.39,4.92 -1.15,7.02 -0.77,2.11 -1.93,3.98 -3.46,5.59 -1.55,1.62 -3.53,2.84 -5.93,3.64 -2.37,0.8 -5.16,1.2 -8.35,1.2l-57.09 0c-0.96,0 -1.7,-0.25 -2.22,-0.75 -0.53,-0.51 -0.8,-1.23 -0.8,-2.17l0 -9.79c0,-0.94 0.27,-1.66 0.8,-2.17 0.52,-0.5 1.26,-0.75 2.22,-0.75l54.1 0c0.92,0 1.7,-0.12 2.33,-0.35 0.59,-0.21 1.06,-0.54 1.39,-0.96 0.73,-0.91 1.09,-2.18 1.09,-3.82l0 -4.23c0,-3.41 -1.57,-5.12 -4.71,-5.12l-38.64 0c-3.06,0 -5.75,-0.4 -8.07,-1.18 -2.34,-0.79 -4.31,-2 -5.9,-3.6 -1.58,-1.6 -2.77,-3.54 -3.55,-5.82 -0.78,-2.26 -1.17,-4.85 -1.17,-7.77l0 -7.52c0,-2.58 0.38,-4.92 1.15,-7.02 0.77,-2.11 1.93,-3.98 3.46,-5.59 1.55,-1.62 3.53,-2.84 5.93,-3.64 2.37,-0.8 5.16,-1.2 8.35,-1.2l54.61 0z"/>
   <path class="fil1" d="M404.19 72.58c-5.24,0 -10.48,0.04 -15.72,-0.01 -3.92,-0.04 -7.8,-0.41 -11.62,-1.37 -8.3,-2.09 -13.19,-7.41 -14.96,-15.71 -0.67,-3.14 -0.97,-6.32 -0.98,-9.52 -0.03,-6.23 -0.04,-12.46 0,-18.68 0.02,-3.58 0.36,-7.13 1.25,-10.61 2.09,-8.08 7.37,-12.83 15.38,-14.72 3.32,-0.79 6.7,-1.2 10.11,-1.21 11.84,-0.03 23.69,-0.05 35.53,0.01 3.85,0.02 7.66,0.51 11.38,1.56 7.99,2.25 12.66,7.52 14.32,15.59 0.64,3.11 0.92,6.26 0.92,9.43 0,7.25 0.17,14.5 -0.12,21.75 -0.12,3.07 -0.6,6.09 -1.5,9.03 -2.17,7.07 -7.05,11.24 -14.1,13.06 -3.88,1 -7.83,1.38 -11.82,1.41 -6.03,0.05 -12.05,0.01 -18.07,0.01zm80.06 0.01c-9.43,0 -18.86,0 -28.28,-0 -2.65,0 -3.54,-0.89 -3.54,-3.57 -0,-2.76 -0,-5.51 0,-8.27 0,-2.72 0.9,-3.62 3.61,-3.62 17.02,-0 34.03,-0 51.05,-0 0.31,0 0.61,0 0.92,0 3.53,-0.02 4.79,-1.2 4.91,-4.75 0.06,-1.8 0.11,-3.61 -0.07,-5.41 -0.24,-2.34 -1.47,-3.56 -3.8,-3.76 -0.44,-0.04 -0.88,-0.02 -1.33,-0.02 -12.29,-0 -24.57,-0.01 -36.86,0 -2.56,0 -5.09,-0.25 -7.55,-1 -5.28,-1.61 -8.79,-5.1 -10.07,-10.41 -1.51,-6.25 -1.45,-12.67 -0.25,-18.93 1.26,-6.57 6.06,-10.68 12.66,-11.74 1.79,-0.29 3.58,-0.42 5.38,-0.42 17.59,0.01 35.19,0 52.79,0.01 5.14,0 3.32,7.75 3.32,12.05 -0.01,2.51 -0.85,3.36 -3.38,3.36 -16.3,0 -32.61,0 -48.91,0 -0.64,0 -1.29,0.02 -1.94,0.07 -2.15,0.17 -3.36,1.3 -3.6,3.45 -0.23,2.07 -0.22,4.15 -0,6.22 0.23,2.12 1.58,3.34 3.73,3.45 0.78,0.04 1.56,0.03 2.35,0.03 11.84,0 23.69,0 35.53,0 2.49,0 4.97,0.18 7.37,0.86 6.27,1.77 9.81,6.01 11.05,12.31 0.66,3.37 0.37,6.78 0.41,10.18 0.03,2.31 0.09,4.62 -0.36,6.92 -1.39,6.99 -6.13,11.53 -13.2,12.58 -1.79,0.27 -3.58,0.4 -5.39,0.4 -8.85,-0.01 -17.7,-0 -26.55,-0zm-331.14 -24.07c2.34,2.9 4.61,5.71 6.85,8.52 0.29,0.37 0.62,0.44 1.06,0.44 5.92,-0.01 11.84,-0.02 17.77,0.01 0.66,0 0.94,-0.26 1.23,-0.79 3.97,-7.31 7.96,-14.61 11.95,-21.91 4.69,-8.58 9.37,-17.17 14.06,-25.75 0.9,-1.65 1.89,-3.23 3.11,-4.66 2.04,-2.4 4.66,-3.63 7.77,-3.64 2.99,-0.01 5.99,-0.23 8.97,0.16 3.02,0.39 5.43,1.84 7.3,4.23 0.97,1.24 1.79,2.56 2.55,3.93 8.7,15.8 17.41,31.58 26.08,47.39 0.45,0.81 0.93,1.06 1.81,1.04 2.31,-0.06 4.63,-0.07 6.94,0 1.02,0.04 1.35,-0.19 1.34,-1.3 -0.04,-14.6 -0.03,-29.2 -0.03,-43.8 0,-1.46 0.06,-2.93 0.31,-4.37 0.82,-4.69 2.95,-6.9 7.7,-7.21 4.75,-0.3 9.52,-0.25 14.28,0.04 2.68,0.16 4.78,1.41 6.49,3.42 2.64,3.11 5.01,6.44 7.49,9.68 10.59,13.87 21.16,27.75 31.73,41.63 0.12,0.16 0.26,0.32 0.37,0.49 0.36,0.52 0.92,0.45 1.39,0.35 0.51,-0.11 0.27,-0.62 0.27,-0.95 0.01,-17.02 0.01,-34.03 0.01,-51.05 0,-0.44 -0.02,-0.89 0.04,-1.32 0.21,-1.58 1.06,-2.37 2.66,-2.38 3.68,-0.03 7.35,-0.03 11.03,-0 1.72,0.01 2.62,0.92 2.73,2.64 0.02,0.27 0.01,0.54 0.01,0.82 0,18.99 0,37.98 0,56.98 0,1.77 -0.1,3.54 -0.53,5.26 -0.9,3.58 -3.05,5.49 -6.73,5.99 -1.01,0.14 -2.03,0.21 -3.05,0.19 -3.77,-0.08 -7.55,0.11 -11.33,-0.13 -2.98,-0.19 -5.34,-1.5 -7.17,-3.77 -1.92,-2.38 -3.79,-4.81 -5.65,-7.24 -11.12,-14.53 -22.22,-29.08 -33.33,-43.61 -0.17,-0.22 -0.35,-0.42 -0.52,-0.63 -0.39,-0.47 -0.93,-0.45 -1.41,-0.31 -0.48,0.14 -0.24,0.65 -0.24,0.98 -0.01,16.95 -0.01,33.9 -0.01,50.85 0,0.44 0.01,0.89 -0.03,1.33 -0.11,1.47 -0.98,2.38 -2.44,2.53 -0.37,0.04 -0.75,0.02 -1.12,0.02 -9.97,0 -19.95,-0.03 -29.92,0.03 -1.94,0.01 -3.13,-0.73 -4.06,-2.43 -9.53,-17.58 -19.11,-35.14 -28.68,-52.71 -0.26,-0.48 -0.38,-1.08 -1.18,-1.07 -0.81,0.01 -0.9,0.64 -1.15,1.11 -9.44,17.55 -18.88,35.11 -28.28,52.68 -0.92,1.71 -2.14,2.43 -4.07,2.42 -8.71,-0.05 -17.42,0.32 -26.14,0.18 -2.42,-0.04 -4.83,-0.15 -7.25,-0.22 -1.18,-0.03 -2.1,-0.54 -2.75,-1.5 -7.6,-11.17 -16.15,-21.63 -23.86,-32.72 -0.28,-0.41 -0.74,-0.8 -0.43,-1.37 0.29,-0.53 0.84,-0.34 1.3,-0.34 4.49,-0.01 8.99,-0.01 13.48,-0.01 1.23,0 2.44,-0.12 3.65,-0.36 2.65,-0.54 4.3,-2.15 4.8,-4.78 0.62,-3.27 0.59,-6.59 0.11,-9.86 -0.53,-3.6 -2.62,-5.31 -6.34,-5.6 -0.88,-0.07 -1.77,-0.09 -2.65,-0.1 -11.95,-0.01 -23.89,-0 -35.84,-0 -1.4,0 -1.4,0 -1.4,1.38 0,17.22 0,34.44 0,51.66 0,2.83 -0.8,3.61 -3.65,3.61 -3.3,0 -6.6,0.01 -9.9,-0 -2.29,-0.01 -3.25,-0.95 -3.25,-3.21 -0.01,-21.58 -0.01,-43.16 0,-64.74 0,-2.82 1.11,-3.93 3.87,-3.94 18.31,-0 36.62,0 54.93,0.01 2.83,0 5.63,0.35 8.37,1.09 6.98,1.89 10.86,6.63 12.28,13.53 1.07,5.22 0.67,10.5 0.52,15.77 -0.05,1.87 -0.45,3.71 -0.98,5.51 -1.84,6.34 -6.1,10.09 -12.42,11.66 -0.23,0.06 -0.45,0.13 -0.83,0.23zm-110.72 -47.81l38.65 0c0.48,0 0.96,-0.02 1.43,0.03 1.34,0.15 2.25,0.99 2.27,2.32 0.05,3.67 0.05,7.35 -0,11.02 -0.02,1.31 -0.95,2.19 -2.25,2.37 -0.5,0.07 -1.02,0.08 -1.53,0.08 -9.67,0 -19.33,0.02 -29,-0.02 -0.91,-0 -1.11,0.24 -1.11,1.13 0.03,17.02 0.02,34.03 0.02,51.05 0,0.41 0.01,0.82 -0.01,1.23 -0.08,1.62 -1.01,2.64 -2.63,2.66 -1.95,0.02 -3.9,0.04 -5.85,0.04 -1.95,0 -3.9,-0.01 -5.85,-0.04 -1.62,-0.02 -2.55,-1.04 -2.63,-2.66 -0.02,-0.41 -0.01,-0.82 -0.01,-1.23 -0,-17.02 -0.01,-34.03 0.02,-51.05 0,-0.89 -0.2,-1.13 -1.11,-1.13 -9.67,0.04 -19.33,0.02 -29,0.02 -0.51,0 -1.02,-0.01 -1.53,-0.08 -1.3,-0.17 -2.23,-1.05 -2.25,-2.37 -0.06,-3.68 -0.05,-7.35 -0,-11.02 0.02,-1.33 0.94,-2.17 2.27,-2.32 0.47,-0.05 0.95,-0.03 1.43,-0.03l38.65 0zm492.49 6.67c0,-10.63 0,12.66 0,0zm-2.05 0.81c-1.04,-21.37 0.94,19.12 0,0zm-126.33 7.93c4.73,0.07 10.55,-0.11 16.37,0.09 1.19,0.04 2.37,0.23 3.53,0.48 3.71,0.8 5.53,3.31 6.14,6.88 0.27,1.58 0.43,3.17 0.43,4.77 -0,5.55 -0,11.09 -0,16.63 0,1.6 -0.15,3.19 -0.44,4.77 -0.79,4.39 -3.15,6.57 -7.69,7.12 -0.94,0.11 -1.9,0.22 -2.84,0.22 -11.16,0.01 -22.32,0.01 -33.47,0 -1.33,-0 -2.65,-0.19 -3.94,-0.46 -3.69,-0.79 -5.66,-2.91 -6.35,-6.79 -0.26,-1.44 -0.43,-2.89 -0.43,-4.36 0.01,-6.06 0.01,-12.11 0.01,-18.17 0,-1.4 0.18,-2.78 0.47,-4.15 0.86,-4.14 3.16,-6.18 7.46,-6.75 1.79,-0.24 3.59,-0.29 5.39,-0.3 4.76,-0.01 9.52,-0.01 15.37,-0.01z"/>
  </g>
 </g>
</svg>
