<?xml version="1.0" encoding="UTF-8"?>
<!DOCTYPE svg PUBLIC "-//W3C//DTD SVG 1.1//EN" "http://www.w3.org/Graphics/SVG/1.1/DTD/svg11.dtd">
<!-- Creator: CorelDRAW 2019 (64-Bit) -->
<svg xmlns="http://www.w3.org/2000/svg" xml:space="preserve" width="2.79445in" height="0.222in" version="1.1" style="shape-rendering:geometricPrecision; text-rendering:geometricPrecision; image-rendering:optimizeQuality; fill-rule:evenodd; clip-rule:evenodd"
viewBox="0 0 752.66 59.79"
 xmlns:xlink="http://www.w3.org/1999/xlink"
 xmlns:xodm="http://www.corel.com/coreldraw/odm/2003">
 <defs>
  <style type="text/css">
   <![CDATA[
    .fil0 {fill:#004094}
    .fil1 {fill:#8C8C8C;fill-rule:nonzero}
   ]]>
  </style>
 </defs>
 <g id="Layer_x0020_1">
  <metadata id="CorelCorpID_0Corel-Layer"/>
  <g id="_3046252759808">
   <path class="fil0" d="M334.27 59.55c-4.33,0 -8.67,0.03 -13,-0.01 -3.24,-0.03 -6.45,-0.34 -9.61,-1.13 -6.87,-1.73 -10.9,-6.13 -12.37,-12.99 -0.56,-2.6 -0.8,-5.23 -0.81,-7.88 -0.03,-5.15 -0.03,-10.3 0,-15.45 0.02,-2.96 0.29,-5.9 1.04,-8.77 1.73,-6.68 6.1,-10.61 12.72,-12.18 2.75,-0.65 5.54,-0.99 8.36,-1 9.79,-0.03 19.59,-0.04 29.38,0.01 3.18,0.01 6.33,0.42 9.41,1.29 6.61,1.86 10.47,6.22 11.84,12.89 0.53,2.57 0.76,5.18 0.76,7.8 0,5.99 0.14,11.99 -0.1,17.98 -0.1,2.54 -0.49,5.03 -1.24,7.47 -1.8,5.85 -5.83,9.3 -11.66,10.8 -3.2,0.83 -6.48,1.14 -9.77,1.17 -4.98,0.04 -9.96,0.01 -14.95,0.01zm66.21 0.01c-7.8,0 -15.59,0 -23.39,-0 -2.19,0 -2.92,-0.74 -2.93,-2.95 -0,-2.28 -0,-4.56 0,-6.84 0,-2.24 0.74,-2.99 2.98,-2.99 14.07,-0 28.15,0 42.22,0 0.25,0 0.51,0 0.76,0 2.92,-0.02 3.96,-0.99 4.06,-3.93 0.05,-1.49 0.09,-2.98 -0.06,-4.47 -0.2,-1.93 -1.21,-2.94 -3.14,-3.11 -0.36,-0.03 -0.73,-0.02 -1.1,-0.02 -10.16,0 -20.32,-0 -30.48,0 -2.12,0 -4.21,-0.2 -6.24,-0.82 -4.37,-1.33 -7.27,-4.21 -8.33,-8.61 -1.25,-5.17 -1.2,-10.48 -0.21,-15.66 1.05,-5.44 5.01,-8.83 10.47,-9.71 1.48,-0.24 2.96,-0.35 4.45,-0.35 14.55,0.01 29.1,0 43.65,0 4.25,0 2.75,6.41 2.74,9.97 -0,2.08 -0.7,2.78 -2.8,2.78 -13.48,0 -26.96,0 -40.45,0 -0.53,0 -1.07,0.02 -1.6,0.06 -1.78,0.14 -2.78,1.07 -2.98,2.86 -0.19,1.71 -0.19,3.43 -0,5.14 0.19,1.75 1.31,2.76 3.09,2.86 0.65,0.03 1.29,0.02 1.94,0.02 9.79,0 19.59,0 29.38,0 2.06,0 4.11,0.15 6.1,0.71 5.19,1.46 8.11,4.97 9.14,10.18 0.55,2.79 0.31,5.61 0.34,8.42 0.02,1.91 0.07,3.82 -0.3,5.72 -1.15,5.78 -5.07,9.54 -10.92,10.4 -1.48,0.22 -2.96,0.33 -4.46,0.33 -7.32,-0.01 -14.64,-0 -21.95,-0zm-273.85 -19.91c1.94,2.4 3.81,4.72 5.67,7.05 0.24,0.3 0.52,0.36 0.87,0.36 4.9,-0.01 9.79,-0.02 14.69,0.01 0.54,0 0.78,-0.21 1.02,-0.65 3.28,-6.05 6.58,-12.08 9.88,-18.12 3.88,-7.1 7.75,-14.2 11.63,-21.3 0.74,-1.36 1.56,-2.67 2.57,-3.85 1.68,-1.98 3.85,-3 6.43,-3.01 2.47,-0.01 4.95,-0.19 7.42,0.13 2.5,0.33 4.49,1.52 6.03,3.5 0.8,1.02 1.48,2.12 2.11,3.25 7.19,13.06 14.39,26.12 21.57,39.2 0.37,0.67 0.77,0.88 1.5,0.86 1.91,-0.05 3.83,-0.06 5.74,0 0.85,0.03 1.12,-0.16 1.11,-1.07 -0.03,-12.07 -0.02,-24.15 -0.02,-36.23 0,-1.21 0.05,-2.42 0.26,-3.61 0.68,-3.88 2.44,-5.71 6.37,-5.96 3.92,-0.25 7.87,-0.21 11.81,0.03 2.21,0.13 3.96,1.17 5.36,2.83 2.19,2.58 4.15,5.33 6.2,8.01 8.76,11.47 17.5,22.95 26.24,34.43 0.1,0.13 0.21,0.26 0.31,0.4 0.3,0.43 0.76,0.38 1.15,0.29 0.42,-0.09 0.22,-0.51 0.22,-0.78 0.01,-14.07 0.01,-28.15 0.01,-42.22 0,-0.36 -0.01,-0.73 0.04,-1.1 0.18,-1.31 0.88,-1.96 2.2,-1.97 3.04,-0.02 6.08,-0.02 9.12,-0 1.42,0.01 2.17,0.76 2.26,2.18 0.02,0.22 0.01,0.45 0.01,0.68 0,15.71 0,31.41 0,47.12 0,1.47 -0.08,2.92 -0.44,4.35 -0.74,2.96 -2.52,4.54 -5.56,4.95 -0.84,0.11 -1.68,0.17 -2.52,0.16 -3.12,-0.06 -6.24,0.09 -9.37,-0.11 -2.47,-0.16 -4.41,-1.24 -5.93,-3.12 -1.59,-1.97 -3.13,-3.98 -4.67,-5.99 -9.19,-12.02 -18.38,-24.05 -27.57,-36.07 -0.14,-0.18 -0.29,-0.35 -0.43,-0.52 -0.32,-0.39 -0.77,-0.37 -1.16,-0.26 -0.4,0.11 -0.2,0.54 -0.2,0.81 -0.01,14.02 -0.01,28.04 -0.01,42.05 0,0.37 0.01,0.73 -0.02,1.1 -0.09,1.22 -0.81,1.97 -2.02,2.09 -0.31,0.03 -0.62,0.02 -0.93,0.02 -8.25,0 -16.49,-0.02 -24.74,0.02 -1.61,0.01 -2.59,-0.6 -3.35,-2.01 -7.88,-14.54 -15.8,-29.06 -23.72,-43.59 -0.21,-0.39 -0.31,-0.89 -0.98,-0.88 -0.67,0.01 -0.74,0.53 -0.95,0.92 -7.81,14.52 -15.62,29.03 -23.39,43.57 -0.76,1.42 -1.76,2.01 -3.36,2 -7.21,-0.04 -14.41,0.26 -21.62,0.15 -2,-0.03 -3.99,-0.12 -5.99,-0.18 -0.98,-0.03 -1.73,-0.45 -2.27,-1.24 -6.28,-9.23 -13.36,-17.89 -19.73,-27.06 -0.23,-0.34 -0.61,-0.66 -0.35,-1.13 0.24,-0.44 0.7,-0.29 1.07,-0.29 3.72,-0.01 7.43,-0.01 11.15,-0.01 1.01,0 2.02,-0.1 3.02,-0.3 2.2,-0.45 3.55,-1.78 3.97,-3.96 0.51,-2.7 0.49,-5.45 0.09,-8.15 -0.44,-2.98 -2.17,-4.39 -5.24,-4.63 -0.73,-0.06 -1.46,-0.08 -2.19,-0.08 -9.88,-0.01 -19.76,-0 -29.64,-0 -1.16,0 -1.16,0 -1.16,1.14 -0,14.24 0,28.49 -0,42.73 0,2.34 -0.66,2.99 -3.02,2.99 -2.73,0 -5.46,0 -8.19,-0 -1.89,-0 -2.69,-0.78 -2.69,-2.65 -0.01,-17.85 -0.01,-35.69 0,-53.54 0,-2.33 0.92,-3.25 3.2,-3.25 15.14,-0 30.29,0 45.43,0.01 2.34,0 4.66,0.29 6.92,0.9 5.77,1.56 8.98,5.48 10.16,11.19 0.89,4.32 0.55,8.69 0.43,13.04 -0.04,1.55 -0.37,3.07 -0.81,4.56 -1.52,5.24 -5.05,8.35 -10.27,9.65 -0.19,0.05 -0.37,0.1 -0.69,0.19zm-91.57 -39.54l31.96 0c0.39,0 0.79,-0.02 1.18,0.03 1.11,0.12 1.87,0.82 1.88,1.92 0.04,3.04 0.04,6.08 -0,9.12 -0.02,1.09 -0.78,1.81 -1.86,1.96 -0.42,0.06 -0.84,0.06 -1.26,0.06 -7.99,0 -15.99,0.01 -23.98,-0.02 -0.76,-0 -0.92,0.2 -0.92,0.93 0.02,14.07 0.02,28.14 0.02,42.22 0,0.34 0.01,0.68 -0.01,1.01 -0.06,1.34 -0.83,2.18 -2.17,2.2 -1.61,0.02 -3.22,0.03 -4.84,0.03 -1.61,0 -3.22,-0.01 -4.83,-0.03 -1.34,-0.02 -2.11,-0.86 -2.17,-2.2 -0.02,-0.34 -0.01,-0.68 -0.01,-1.01 -0,-14.07 -0.01,-28.14 0.02,-42.22 0,-0.74 -0.16,-0.94 -0.92,-0.93 -7.99,0.03 -15.99,0.02 -23.98,0.02 -0.42,0 -0.85,-0.01 -1.26,-0.06 -1.08,-0.14 -1.84,-0.87 -1.86,-1.96 -0.05,-3.04 -0.05,-6.08 -0,-9.12 0.01,-1.1 0.77,-1.8 1.88,-1.92 0.39,-0.04 0.79,-0.03 1.18,-0.03l31.96 -0zm301.12 12.75c3.91,0.06 8.73,-0.09 13.53,0.08 0.99,0.03 1.96,0.19 2.92,0.4 3.06,0.67 4.57,2.74 5.08,5.69 0.22,1.3 0.35,2.62 0.35,3.94 -0,4.59 -0,9.17 -0,13.76 0,1.32 -0.13,2.64 -0.36,3.94 -0.65,3.63 -2.61,5.43 -6.36,5.88 -0.78,0.09 -1.57,0.18 -2.35,0.19 -9.23,0.01 -18.46,0.01 -27.68,0 -1.1,-0 -2.19,-0.15 -3.26,-0.38 -3.05,-0.65 -4.68,-2.4 -5.25,-5.61 -0.21,-1.19 -0.36,-2.39 -0.36,-3.6 0,-5.01 0,-10.02 0.01,-15.02 0,-1.16 0.15,-2.3 0.39,-3.43 0.71,-3.42 2.62,-5.11 6.17,-5.58 1.48,-0.2 2.97,-0.24 4.46,-0.24 3.94,-0.01 7.88,-0 12.71,-0z"/>
   <path class="fil1" d="M512.37 0c1.31,0 1.96,0.63 1.96,1.88l0 8.12c0,1.25 -0.66,1.88 -1.96,1.88l-37.33 0c-2.22,0 -4.06,0.18 -5.51,0.55 -1.45,0.37 -2.62,1 -3.5,1.88 -0.88,0.88 -1.49,2.08 -1.84,3.59 -0.34,1.51 -0.51,3.37 -0.51,5.59l0 0.85 48.26 0c1.25,0 1.88,0.63 1.88,1.88l0 6.75c0,1.25 -0.63,1.88 -1.88,1.88l-48.26 0 0 1.45c0,2.22 0.17,4.09 0.51,5.6 0.34,1.51 0.95,2.71 1.84,3.59 0.88,0.88 2.05,1.51 3.5,1.88 1.45,0.37 3.29,0.55 5.51,0.55l37.33 0c1.31,0 1.96,0.63 1.96,1.88l0 8.11c0,1.25 -0.66,1.88 -1.96,1.88l-37.59 0c-4.33,0 -8,-0.4 -11.02,-1.2 -3.02,-0.8 -5.48,-2.09 -7.39,-3.89 -1.91,-1.79 -3.3,-4.13 -4.19,-7 -0.88,-2.88 -1.32,-6.36 -1.32,-10.46l0 -14.69c0,-4.1 0.44,-7.57 1.32,-10.42 0.88,-2.85 2.28,-5.17 4.19,-6.96 1.91,-1.79 4.37,-3.1 7.39,-3.93 3.02,-0.82 6.69,-1.24 11.02,-1.24l37.59 0zm22.81 0c1.25,0 1.88,0.63 1.88,1.88l0 34.08c0,2.28 0.18,4.17 0.56,5.68 0.37,1.51 0.98,2.7 1.84,3.59 0.85,0.88 2.01,1.51 3.46,1.88 1.45,0.37 3.29,0.56 5.51,0.56l34.59 0c1.25,0 1.88,0.63 1.88,1.88l0 8.37c0,1.25 -0.63,1.88 -1.88,1.88l-35.11 0c-4.33,0 -8,-0.4 -11.02,-1.2 -3.02,-0.8 -5.48,-2.09 -7.39,-3.89 -1.91,-1.79 -3.3,-4.13 -4.19,-7 -0.88,-2.88 -1.32,-6.36 -1.32,-10.46l0 -35.36c0,-1.25 0.66,-1.88 1.96,-1.88l9.23 0zm68.59 0c1.25,0 1.88,0.63 1.88,1.88l0 56.04c0,1.25 -0.63,1.88 -1.88,1.88l-9.23 0c-1.31,0 -1.96,-0.63 -1.96,-1.88l0 -56.04c0,-1.25 0.66,-1.88 1.96,-1.88l9.23 0zm78.24 0c1.31,0 1.96,0.63 1.96,1.88l0 8.37c0,1.31 -0.66,1.96 -1.96,1.96l-26.82 0 0 45.7c0,1.25 -0.63,1.88 -1.88,1.88l-9.31 0c-1.25,0 -1.88,-0.63 -1.88,-1.88l0 -45.7 -26.82 0c-1.31,0 -1.96,-0.65 -1.96,-1.96l0 -8.37c0,-1.25 0.66,-1.88 1.96,-1.88l66.71 0zm68.68 0c1.31,0 1.96,0.63 1.96,1.88l0 8.12c0,1.25 -0.66,1.88 -1.96,1.88l-37.33 0c-2.22,0 -4.06,0.18 -5.51,0.55 -1.45,0.37 -2.62,1 -3.5,1.88 -0.88,0.88 -1.49,2.08 -1.84,3.59 -0.34,1.51 -0.51,3.37 -0.51,5.59l0 0.85 48.26 0c1.25,0 1.88,0.63 1.88,1.88l0 6.75c0,1.25 -0.63,1.88 -1.88,1.88l-48.26 0 0 1.45c0,2.22 0.17,4.09 0.51,5.6 0.34,1.51 0.95,2.71 1.84,3.59 0.88,0.88 2.05,1.51 3.5,1.88 1.45,0.37 3.29,0.55 5.51,0.55l37.33 0c1.31,0 1.96,0.63 1.96,1.88l0 8.11c0,1.25 -0.66,1.88 -1.96,1.88l-37.58 0c-4.33,0 -8,-0.4 -11.02,-1.2 -3.02,-0.8 -5.48,-2.09 -7.39,-3.89 -1.91,-1.79 -3.3,-4.13 -4.19,-7 -0.88,-2.88 -1.32,-6.36 -1.32,-10.46l0 -14.69c0,-4.1 0.44,-7.57 1.32,-10.42 0.88,-2.85 2.28,-5.17 4.19,-6.96 1.91,-1.79 4.37,-3.1 7.39,-3.93 3.02,-0.82 6.69,-1.24 11.02,-1.24l37.58 0z"/>
  </g>
 </g>
</svg>
