<?xml version="1.0" encoding="UTF-8"?>
<!DOCTYPE svg PUBLIC "-//W3C//DTD SVG 1.1//EN" "http://www.w3.org/Graphics/SVG/1.1/DTD/svg11.dtd">
<!-- Creator: CorelDRAW 2019 (64-Bit) -->
<svg xmlns="http://www.w3.org/2000/svg" xml:space="preserve" width="2.53861in" height="0.67687in" version="1.1" style="shape-rendering:geometricPrecision; text-rendering:geometricPrecision; image-rendering:optimizeQuality; fill-rule:evenodd; clip-rule:evenodd"
viewBox="0 0 621.15 165.62"
 xmlns:xlink="http://www.w3.org/1999/xlink"
 xmlns:xodm="http://www.corel.com/coreldraw/odm/2003">
 <defs>
  <style type="text/css">
   <![CDATA[
    .fil0 {fill:#219C9C}
    .fil1 {fill:#FEFEFE;fill-rule:nonzero}
   ]]>
  </style>
 </defs>
 <g id="Layer_x0020_1">
  <metadata id="CorelCorpID_0Corel-Layer"/>
  <g id="_1333372308320">
   <rect class="fil0" x="0" y="-0" width="621.15" height="165.62"/>
   <path class="fil1" d="M43 47.09c0.68,0 1.16,0.44 1.43,1.33l16.53 54.9c0.07,0.48 0.34,0.71 0.82,0.71l0.51 0c0.41,0 0.68,-0.24 0.82,-0.71l16.53 -50.31c0.75,-2.31 1.73,-3.88 2.96,-4.69 1.22,-0.82 2.76,-1.22 4.59,-1.22l10.1 0c2.25,0 3.96,0.44 5.15,1.33 1.19,0.88 2.16,2.42 2.91,4.59l16.94 50.31c0.14,0.48 0.41,0.71 0.82,0.71l0.61 0c0.41,0 0.68,-0.24 0.82,-0.71l16.12 -54.9c0.14,-0.54 0.36,-0.9 0.66,-1.07 0.31,-0.17 0.63,-0.26 0.97,-0.26l13.78 0c0.54,0 0.87,0.24 0.97,0.71 0.1,0.48 0.05,1.02 -0.15,1.63l-19.59 61.33c-0.95,3.06 -2.01,5.12 -3.16,6.17 -1.16,1.05 -2.72,1.58 -4.69,1.58l-11.94 0c-1.97,0 -3.52,-0.54 -4.64,-1.63 -1.12,-1.09 -2.19,-3.13 -3.21,-6.12l-16.02 -48.47c-0.07,-0.47 -0.34,-0.71 -0.82,-0.71l-0.41 0c-0.48,0 -0.75,0.24 -0.82,0.71l-16.23 48.47c-1.02,2.99 -2.09,5.03 -3.22,6.12 -1.12,1.09 -2.67,1.63 -4.64,1.63l-11.63 0c-1.16,0 -2.16,-0.1 -3.01,-0.31 -0.85,-0.2 -1.62,-0.6 -2.3,-1.17 -0.68,-0.58 -1.28,-1.38 -1.79,-2.4 -0.51,-1.02 -1,-2.31 -1.48,-3.88l-18.78 -61.33c-0.2,-0.68 -0.26,-1.24 -0.15,-1.68 0.1,-0.44 0.42,-0.66 0.97,-0.66l13.68 0zm383.39 57.32l27.05 -49.57c1.68,-3.07 3.37,-5.12 5,-6.17 1.63,-1.05 3.54,-1.58 5.72,-1.58l6.02 0c2.59,0 4.76,0.53 6.53,1.58 1.77,1.05 3.5,3.11 5.2,6.17l27.3 49.57 12.55 0 -0.1 -0.33c-1.05,-3.44 -1.58,-7.6 -1.58,-12.5l0 -42.25c0,-1.5 0.78,-2.25 2.35,-2.25l11.02 0c1.5,0 2.25,0.75 2.25,2.25l0 40.72c0,2.72 0.22,4.98 0.66,6.79 0.44,1.8 1.17,3.23 2.19,4.29 1.02,1.05 2.4,1.8 4.13,2.25 1.73,0.44 3.93,0.66 6.58,0.66l41.33 0c1.5,0 2.25,0.75 2.25,2.25l0 10c0,1.5 -0.75,2.25 -2.25,2.25l-87.33 0 -1.76 0c-1.16,0 -1.94,-0.44 -2.35,-1.33l-7.25 -13.16 -47.96 0 -7.04 13.16c-0.47,0.89 -1.26,1.33 -2.35,1.33l-1.27 0 -30.09 0 -37.32 0c-5.17,0 -9.56,-0.48 -13.16,-1.43 -3.61,-0.95 -6.55,-2.5 -8.83,-4.64 -2.28,-2.14 -3.95,-4.93 -5,-8.37 -1.05,-3.44 -1.58,-7.6 -1.58,-12.5l0 -17.55c0,-4.9 0.53,-9.05 1.58,-12.45 1.05,-3.4 2.72,-6.17 5,-8.32 2.28,-2.14 5.22,-3.71 8.83,-4.69 3.61,-0.99 7.99,-1.48 13.16,-1.48l44.9 0c1.57,0 2.35,0.75 2.35,2.25l0 9.69c0,1.5 -0.78,2.24 -2.35,2.24l-44.6 0c-2.65,0 -4.85,0.22 -6.58,0.66 -1.74,0.44 -3.13,1.19 -4.18,2.24 -1.05,1.05 -1.79,2.48 -2.19,4.29 -0.41,1.8 -0.61,4.03 -0.61,6.68l0 1.02 57.66 0c1.5,0 2.25,0.75 2.25,2.25l0 8.06c0,1.5 -0.75,2.25 -2.25,2.25l-57.66 0 0 1.73c0,2.65 0.2,4.88 0.61,6.68 0.41,1.8 1.14,3.23 2.19,4.29 1.05,1.05 2.45,1.8 4.18,2.24 1.73,0.44 3.93,0.66 6.58,0.66l60.2 0.07zm-189.8 -57.32c1.56,0 2.35,0.75 2.35,2.25l0 9.69c0,1.5 -0.78,2.24 -2.35,2.24l-44.6 0c-2.65,0 -4.85,0.22 -6.58,0.66 -1.74,0.44 -3.13,1.19 -4.18,2.24 -1.05,1.05 -1.79,2.48 -2.19,4.29 -0.41,1.8 -0.61,4.03 -0.61,6.68l0 1.02 57.66 0c1.5,0 2.25,0.75 2.25,2.25l0 8.06c0,1.5 -0.75,2.25 -2.25,2.25l-57.66 0 0 1.73c0,2.65 0.2,4.88 0.61,6.68 0.41,1.8 1.14,3.23 2.19,4.29 1.05,1.05 2.45,1.8 4.18,2.24 1.73,0.44 3.93,0.66 6.58,0.66l44.6 0c1.56,0 2.35,0.75 2.35,2.24l0 9.69c0,1.5 -0.78,2.25 -2.35,2.25l-44.9 0c-5.17,0 -9.56,-0.48 -13.16,-1.43 -3.61,-0.95 -6.55,-2.5 -8.83,-4.64 -2.28,-2.14 -3.95,-4.93 -5,-8.37 -1.05,-3.44 -1.58,-7.6 -1.58,-12.5l0 -17.55c0,-4.9 0.53,-9.05 1.58,-12.45 1.05,-3.4 2.72,-6.17 5,-8.32 2.28,-2.14 5.22,-3.71 8.83,-4.69 3.61,-0.99 7.99,-1.48 13.16,-1.48l44.9 0zm85.01 0c1.5,0 2.25,0.75 2.25,2.25l0 9.69c0,1.5 -0.75,2.24 -2.25,2.24l-51.13 0c-1.97,0 -3.37,0.51 -4.18,1.53 -0.82,1.02 -1.22,2.42 -1.22,4.18l0 3.47c0,3.81 1.77,5.71 5.31,5.71l38.27 0c5.92,0 10.37,1.51 13.37,4.54 2.99,3.03 4.49,7.37 4.49,13.01l0 8.16c0,4.97 -1.46,8.98 -4.39,12.04 -2.93,3.06 -7.48,4.59 -13.68,4.59l-56.54 0c-1.56,0 -2.35,-0.75 -2.35,-2.25l0 -9.69c0,-1.5 0.78,-2.24 2.35,-2.24l53.58 0c1.97,0 3.37,-0.51 4.18,-1.53 0.82,-1.02 1.22,-2.42 1.22,-4.18l0 -4.18c0,-3.81 -1.77,-5.71 -5.31,-5.71l-38.27 0c-5.92,0 -10.38,-1.51 -13.37,-4.54 -2.99,-3.03 -4.49,-7.37 -4.49,-13.01l0 -7.45c0,-4.97 1.46,-8.98 4.39,-12.04 2.92,-3.06 7.48,-4.59 13.68,-4.59l54.09 0zm128.79 45.11l35.1 0 -16.23 -29.9c-0.27,-0.47 -0.65,-0.71 -1.12,-0.71l-0.61 0c-0.48,0 -0.85,0.24 -1.12,0.71l-16.02 29.9z"/>
  </g>
 </g>
</svg>
