<?xml version="1.0" encoding="UTF-8"?>
<!DOCTYPE svg PUBLIC "-//W3C//DTD SVG 1.1//EN" "http://www.w3.org/Graphics/SVG/1.1/DTD/svg11.dtd">
<!-- Creator: CorelDRAW 2019 (64-Bit) -->
<svg xmlns="http://www.w3.org/2000/svg" xml:space="preserve" width="4.13035in" height="0.67687in" version="1.1" style="shape-rendering:geometricPrecision; text-rendering:geometricPrecision; image-rendering:optimizeQuality; fill-rule:evenodd; clip-rule:evenodd"
viewBox="0 0 1644.29 269.46"
 xmlns:xlink="http://www.w3.org/1999/xlink"
 xmlns:xodm="http://www.corel.com/coreldraw/odm/2003">
 <defs>
  <style type="text/css">
   <![CDATA[
    .fil1 {fill:#219C9C}
    .fil2 {fill:#FEFEFE;fill-rule:nonzero}
    .fil0 {fill:#373435;fill-rule:nonzero}
   ]]>
  </style>
 </defs>
 <g id="Layer_x0020_1">
  <metadata id="CorelCorpID_0Corel-Layer"/>
  <path class="fil0" d="M1149.15 181.02c-4.37,5.25 -10.53,9.31 -18.54,12.22 -7.99,2.9 -16.83,4.34 -26.53,4.34 -10.23,0 -19.15,-2.24 -26.86,-6.69 -7.68,-4.45 -13.63,-10.92 -17.8,-19.4 -4.2,-8.48 -6.33,-18.46 -6.44,-29.9l0 -8.02c0,-11.77 1.99,-21.97 5.94,-30.6 3.98,-8.62 9.7,-15.2 17.16,-19.76 7.49,-4.56 16.25,-6.85 26.28,-6.85 13.99,0 24.9,3.34 32.81,10 7.88,6.66 12.55,16.36 13.99,29.08l-23.63 0c-1.08,-6.74 -3.48,-11.69 -7.16,-14.81 -3.7,-3.12 -8.79,-4.7 -15.28,-4.7 -8.24,0 -14.54,3.1 -18.85,9.31 -4.31,6.22 -6.52,15.45 -6.55,27.72l0 7.52c0,12.38 2.32,21.72 7.02,28.05 4.7,6.33 11.58,9.48 20.65,9.48 9.15,0 15.64,-1.93 19.54,-5.83l0 -20.37 -22.11 0 0 -17.91 46.38 0 0 47.12z"/>
  <path id="1" class="fil0" d="M1218.08 195.91c-1.08,-2.1 -1.85,-4.7 -2.35,-7.82 -5.67,6.33 -13.04,9.48 -22.11,9.48 -8.57,0 -15.7,-2.49 -21.34,-7.46 -5.64,-4.97 -8.46,-11.25 -8.46,-18.82 0,-9.29 3.45,-16.42 10.34,-21.39 6.88,-4.97 16.83,-7.49 29.82,-7.55l10.78 0 0 -4.97c0,-4.04 -1.05,-7.24 -3.12,-9.65 -2.07,-2.41 -5.36,-3.62 -9.84,-3.62 -3.93,0 -7.02,0.94 -9.26,2.79 -2.24,1.85 -3.37,4.42 -3.37,7.66l-23.38 0c0,-5.06 1.55,-9.76 4.67,-14.04 3.15,-4.31 7.57,-7.68 13.29,-10.14 5.72,-2.46 12.13,-3.68 19.26,-3.68 10.81,0 19.38,2.71 25.7,8.12 6.36,5.44 9.54,13.05 9.54,22.88l0 37.98c0.05,8.29 1.22,14.59 3.48,18.85l0 1.38 -23.66 0zm-19.35 -16.25c3.45,0 6.63,-0.77 9.56,-2.29 2.9,-1.55 5.06,-3.62 6.47,-6.19l0 -15.06 -8.73 0c-11.72,0 -17.97,4.03 -18.71,12.13l-0.08 1.38c0,2.9 1.02,5.31 3.07,7.21 2.05,1.88 4.86,2.82 8.43,2.82z"/>
  <path id="2" class="fil0" d="M1303.68 171.73c0,-2.85 -1.44,-5.11 -4.26,-6.74 -2.85,-1.66 -7.38,-3.12 -13.65,-4.42 -20.84,-4.37 -31.26,-13.24 -31.26,-26.56 0,-7.79 3.23,-14.29 9.67,-19.48 6.47,-5.22 14.9,-7.82 25.32,-7.82 11.11,0 20.01,2.63 26.67,7.85 6.66,5.25 10,12.05 10,20.43l-23.41 0c0,-3.34 -1.08,-6.08 -3.23,-8.26 -2.16,-2.18 -5.53,-3.26 -10.12,-3.26 -3.95,0 -6.99,0.89 -9.15,2.65 -2.16,1.8 -3.23,4.06 -3.23,6.8 0,2.57 1.22,4.67 3.68,6.25 2.46,1.6 6.61,2.99 12.44,4.12 5.83,1.16 10.72,2.49 14.73,3.92 12.36,4.53 18.55,12.41 18.55,23.58 0,7.99 -3.43,14.46 -10.28,19.4 -6.85,4.95 -15.73,7.41 -26.56,7.41 -7.35,0 -13.88,-1.3 -19.57,-3.92 -5.69,-2.63 -10.14,-6.22 -13.41,-10.78 -3.23,-4.56 -4.84,-9.48 -4.84,-14.79l22.17 0c0.22,4.17 1.77,7.35 4.62,9.59 2.87,2.21 6.72,3.32 11.5,3.32 4.48,0 7.88,-0.86 10.17,-2.54 2.29,-1.71 3.45,-3.95 3.45,-6.72z"/>
  <polygon id="3" class="fil0" points="1373.33,160.79 1364.9,169.21 1364.9,195.91 1341.49,195.91 1341.49,71.54 1364.9,71.54 1364.9,140.47 1369.43,134.67 1391.84,108.36 1419.95,108.36 1388.31,144.84 1422.72,195.91 1395.82,195.91 "/>
  <path id="4" class="fil0" d="M1468.82 197.57c-12.85,0 -23.33,-3.95 -31.4,-11.83 -8.07,-7.88 -12.11,-18.38 -12.11,-31.51l0 -2.27c0,-8.79 1.71,-16.67 5.11,-23.6 3.4,-6.94 8.21,-12.3 14.45,-16.03 6.25,-3.76 13.35,-5.64 21.34,-5.64 11.99,0 21.42,3.79 28.3,11.33 6.88,7.57 10.31,18.3 10.31,32.17l0 9.56 -55.77 0c0.75,5.72 3.04,10.28 6.83,13.74 3.81,3.45 8.62,5.17 14.46,5.17 9.04,0 16.06,-3.26 21.14,-9.76l11.5 12.88c-3.51,4.95 -8.26,8.84 -14.26,11.61 -5.97,2.79 -12.63,4.17 -19.9,4.17zm-2.68 -71.97c-4.64,0 -8.4,1.58 -11.3,4.73 -2.87,3.15 -4.73,7.66 -5.53,13.52l32.53 0 0 -1.88c-0.11,-5.2 -1.49,-9.23 -4.2,-12.08 -2.71,-2.85 -6.52,-4.28 -11.5,-4.28z"/>
  <path id="5" class="fil0" d="M1546.09 86.8l0 21.56 14.98 0 0 17.25 -14.98 0 0 43.67c0,3.23 0.64,5.55 1.88,6.96 1.24,1.41 3.62,2.1 7.13,2.1 2.57,0 4.86,-0.19 6.88,-0.55l0 17.69c-4.59,1.41 -9.31,2.1 -14.18,2.1 -16.42,0 -24.79,-8.26 -25.09,-24.82l0 -47.15 -12.8 0 0 -17.25 12.8 0 0 -21.56 23.38 0z"/>
  <path id="6" class="fil0" d="M1621.55 171.73c0,-2.85 -1.44,-5.11 -4.26,-6.74 -2.85,-1.66 -7.38,-3.12 -13.65,-4.42 -20.84,-4.37 -31.26,-13.24 -31.26,-26.56 0,-7.79 3.23,-14.29 9.67,-19.48 6.47,-5.22 14.9,-7.82 25.32,-7.82 11.11,0 20.01,2.63 26.67,7.85 6.66,5.25 10,12.05 10,20.43l-23.41 0c0,-3.34 -1.08,-6.08 -3.23,-8.26 -2.16,-2.18 -5.53,-3.26 -10.12,-3.26 -3.95,0 -6.99,0.89 -9.15,2.65 -2.16,1.8 -3.23,4.06 -3.23,6.8 0,2.57 1.22,4.67 3.68,6.25 2.46,1.6 6.61,2.99 12.44,4.12 5.83,1.16 10.72,2.49 14.73,3.92 12.36,4.53 18.55,12.41 18.55,23.58 0,7.99 -3.43,14.46 -10.28,19.4 -6.85,4.95 -15.73,7.41 -26.56,7.41 -7.35,0 -13.88,-1.3 -19.57,-3.92 -5.69,-2.63 -10.14,-6.22 -13.41,-10.78 -3.23,-4.56 -4.84,-9.48 -4.84,-14.79l22.17 0c0.22,4.17 1.77,7.35 4.62,9.59 2.87,2.21 6.72,3.32 11.5,3.32 4.48,0 7.88,-0.86 10.17,-2.54 2.29,-1.71 3.45,-3.95 3.45,-6.72z"/>
  <g id="_1333380711744">
   <rect class="fil1" x="0" y="-0" width="1010.62" height="269.46"/>
   <path class="fil2" d="M69.96 76.62c1.11,0 1.88,0.72 2.32,2.16l26.9 89.33c0.11,0.77 0.55,1.16 1.33,1.16l0.83 0c0.66,0 1.11,-0.39 1.33,-1.16l26.9 -81.86c1.21,-3.76 2.82,-6.31 4.81,-7.64 1.99,-1.33 4.48,-1.99 7.47,-1.99l16.44 0c3.65,0 6.45,0.72 8.39,2.16 1.94,1.44 3.51,3.93 4.73,7.47l27.56 81.86c0.22,0.77 0.67,1.16 1.33,1.16l1 0c0.66,0 1.11,-0.39 1.33,-1.16l26.23 -89.33c0.22,-0.89 0.58,-1.47 1.08,-1.74 0.5,-0.28 1.03,-0.42 1.58,-0.42l22.42 0c0.88,0 1.41,0.39 1.58,1.16 0.17,0.78 0.08,1.66 -0.25,2.66l-31.88 99.79c-1.55,4.98 -3.27,8.33 -5.15,10.04 -1.88,1.71 -4.43,2.57 -7.64,2.57l-19.43 0c-3.21,0 -5.73,-0.89 -7.55,-2.66 -1.83,-1.77 -3.57,-5.09 -5.23,-9.96l-26.07 -78.87c-0.11,-0.77 -0.55,-1.16 -1.33,-1.16l-0.66 0c-0.78,0 -1.22,0.39 -1.33,1.16l-26.4 78.87c-1.66,4.87 -3.4,8.19 -5.23,9.96 -1.82,1.77 -4.34,2.66 -7.55,2.66l-18.93 0c-1.88,0 -3.51,-0.17 -4.9,-0.5 -1.38,-0.33 -2.63,-0.97 -3.73,-1.91 -1.11,-0.94 -2.08,-2.24 -2.91,-3.9 -0.83,-1.66 -1.63,-3.76 -2.41,-6.31l-30.55 -99.79c-0.33,-1.11 -0.42,-2.02 -0.25,-2.74 0.17,-0.72 0.69,-1.08 1.58,-1.08l22.25 0zm623.79 93.26l44.01 -80.64c2.73,-5 5.48,-8.33 8.14,-10.04 2.66,-1.72 5.76,-2.58 9.3,-2.58l9.8 0c4.21,0 7.75,0.86 10.63,2.58 2.88,1.71 5.7,5.06 8.47,10.04l44.41 80.64 20.42 0 -0.17 -0.53c-1.72,-5.59 -2.58,-12.37 -2.58,-20.34l0 -68.74c0,-2.44 1.27,-3.65 3.82,-3.65l17.93 0c2.44,0 3.65,1.22 3.65,3.65l0 66.25c0,4.43 0.36,8.11 1.08,11.04 0.72,2.93 1.91,5.26 3.57,6.97 1.66,1.72 3.9,2.93 6.73,3.65 2.82,0.72 6.39,1.08 10.71,1.08l67.24 0c2.44,0 3.65,1.22 3.65,3.65l0 16.27c0,2.44 -1.22,3.65 -3.65,3.65l-142.09 0 -2.86 0c-1.88,0 -3.16,-0.72 -3.82,-2.16l-11.79 -21.42 -78.04 0 -11.46 21.42c-0.77,1.44 -2.05,2.16 -3.82,2.16l-2.06 0 -48.96 0 -60.72 0c-8.41,0 -15.55,-0.77 -21.42,-2.33 -5.87,-1.55 -10.66,-4.07 -14.36,-7.55 -3.71,-3.48 -6.42,-8.02 -8.14,-13.61 -1.71,-5.59 -2.57,-12.37 -2.57,-20.34l0 -28.56c0,-7.97 0.86,-14.72 2.57,-20.26 1.72,-5.53 4.43,-10.04 8.14,-13.53 3.71,-3.49 8.49,-6.03 14.36,-7.64 5.87,-1.61 13.01,-2.41 21.42,-2.41l73.06 0c2.55,0 3.82,1.22 3.82,3.65l0 15.77c0,2.44 -1.27,3.65 -3.82,3.65l-72.56 0c-4.32,0 -7.89,0.36 -10.71,1.08 -2.82,0.72 -5.09,1.94 -6.81,3.65 -1.72,1.72 -2.91,4.04 -3.57,6.97 -0.66,2.93 -1,6.56 -1,10.88l0 1.66 93.81 0c2.44,0 3.65,1.22 3.65,3.65l0 13.12c0,2.44 -1.22,3.65 -3.65,3.65l-93.81 0 0 2.82c0,4.32 0.33,7.94 1,10.88 0.66,2.93 1.85,5.26 3.57,6.97 1.72,1.71 3.98,2.93 6.81,3.65 2.82,0.72 6.39,1.08 10.71,1.08l97.95 0.11zm-308.82 -93.26c2.55,0 3.82,1.22 3.82,3.65l0 15.77c0,2.44 -1.27,3.65 -3.82,3.65l-72.56 0c-4.32,0 -7.89,0.36 -10.71,1.08 -2.82,0.72 -5.09,1.94 -6.81,3.65 -1.72,1.72 -2.9,4.04 -3.57,6.97 -0.66,2.93 -1,6.56 -1,10.88l0 1.66 93.81 0c2.44,0 3.65,1.22 3.65,3.65l0 13.12c0,2.44 -1.22,3.65 -3.65,3.65l-93.81 0 0 2.82c0,4.32 0.33,7.94 1,10.88 0.67,2.93 1.85,5.26 3.57,6.97 1.72,1.71 3.98,2.93 6.81,3.65 2.82,0.72 6.39,1.08 10.71,1.08l72.56 0c2.55,0 3.82,1.22 3.82,3.65l0 15.77c0,2.44 -1.27,3.65 -3.82,3.65l-73.06 0c-8.41,0 -15.55,-0.77 -21.42,-2.33 -5.87,-1.55 -10.65,-4.07 -14.36,-7.55 -3.71,-3.48 -6.42,-8.02 -8.14,-13.61 -1.71,-5.59 -2.57,-12.37 -2.57,-20.34l0 -28.56c0,-7.97 0.86,-14.72 2.57,-20.26 1.72,-5.53 4.43,-10.04 8.14,-13.53 3.71,-3.49 8.5,-6.03 14.36,-7.64 5.87,-1.61 13.01,-2.41 21.42,-2.41l73.06 0zm138.31 0c2.44,0 3.65,1.22 3.65,3.65l0 15.77c0,2.44 -1.22,3.65 -3.65,3.65l-83.18 0c-3.21,0 -5.48,0.83 -6.81,2.49 -1.33,1.66 -1.99,3.93 -1.99,6.81l0 5.65c0,6.2 2.88,9.3 8.63,9.3l62.26 0c9.63,0 16.88,2.46 21.75,7.39 4.87,4.93 7.31,11.98 7.31,21.17l0 13.28c0,8.08 -2.38,14.61 -7.14,19.59 -4.76,4.98 -12.18,7.47 -22.25,7.47l-91.98 0c-2.55,0 -3.82,-1.22 -3.82,-3.65l0 -15.77c0,-2.43 1.27,-3.65 3.82,-3.65l87.17 0c3.21,0 5.48,-0.83 6.81,-2.49 1.33,-1.66 1.99,-3.93 1.99,-6.81l0 -6.81c0,-6.2 -2.88,-9.3 -8.63,-9.3l-62.26 0c-9.63,0 -16.88,-2.46 -21.75,-7.39 -4.87,-4.93 -7.31,-11.98 -7.31,-21.17l0 -12.12c0,-8.08 2.38,-14.61 7.14,-19.59 4.76,-4.98 12.18,-7.47 22.25,-7.47l88 0zm209.54 73.39l57.12 0 -26.4 -48.65c-0.44,-0.77 -1.05,-1.16 -1.83,-1.16l-1 0c-0.77,0 -1.38,0.39 -1.83,1.16l-26.07 48.65z"/>
  </g>
 </g>
</svg>
