<svg width="268" height="268" viewBox="0 0 268 268" fill="none" xmlns="http://www.w3.org/2000/svg">
<rect width="268" height="268" fill="#059669"/>
<path d="M76.24 141L73.46 127.88H75.18L76.56 135.02C76.68 135.727 76.8067 136.433 76.94 137.14C77.0733 137.847 77.2 138.553 77.32 139.26H77.4C77.5467 138.553 77.7 137.847 77.86 137.14C78.02 136.42 78.1733 135.713 78.32 135.02L80.14 127.88H81.66L83.48 135.02C83.64 135.713 83.8 136.42 83.96 137.14C84.12 137.847 84.28 138.553 84.44 139.26H84.52C84.64 138.553 84.76 137.847 84.88 137.14C85 136.42 85.1267 135.713 85.26 135.02L86.64 127.88H88.24L85.52 141H83.52L81.54 133.1C81.42 132.593 81.3067 132.1 81.2 131.62C81.1067 131.127 81.0067 130.627 80.9 130.12H80.82C80.7267 130.627 80.62 131.127 80.5 131.62C80.38 132.1 80.2667 132.593 80.16 133.1L78.22 141H76.24ZM90.3627 141V131.28H92.0027V141H90.3627ZM91.2027 129.28C90.8827 129.28 90.616 129.187 90.4027 129C90.2027 128.8 90.1027 128.533 90.1027 128.2C90.1027 127.88 90.2027 127.62 90.4027 127.42C90.616 127.22 90.8827 127.12 91.2027 127.12C91.5227 127.12 91.7827 127.22 91.9827 127.42C92.196 127.62 92.3027 127.88 92.3027 128.2C92.3027 128.533 92.196 128.8 91.9827 129C91.7827 129.187 91.5227 129.28 91.2027 129.28ZM95.2845 141V131.28H96.6445L96.7845 133.04H96.8445C97.1779 132.427 97.5845 131.94 98.0645 131.58C98.5445 131.22 99.0579 131.04 99.6045 131.04C99.9912 131.04 100.338 131.107 100.645 131.24L100.325 132.68C100.165 132.627 100.018 132.587 99.8845 132.56C99.7512 132.533 99.5845 132.52 99.3845 132.52C98.9712 132.52 98.5379 132.687 98.0845 133.02C97.6445 133.353 97.2579 133.933 96.9245 134.76V141H95.2845ZM102.218 141V131.28H103.858V141H102.218ZM103.058 129.28C102.738 129.28 102.471 129.187 102.258 129C102.058 128.8 101.958 128.533 101.958 128.2C101.958 127.88 102.058 127.62 102.258 127.42C102.471 127.22 102.738 127.12 103.058 127.12C103.378 127.12 103.638 127.22 103.838 127.42C104.051 127.62 104.158 127.88 104.158 128.2C104.158 128.533 104.051 128.8 103.838 129C103.638 129.187 103.378 129.28 103.058 129.28ZM107.14 141V131.28H108.5L108.64 132.68H108.7C109.167 132.213 109.66 131.827 110.18 131.52C110.7 131.2 111.293 131.04 111.96 131.04C112.987 131.04 113.733 131.367 114.2 132.02C114.68 132.66 114.92 133.6 114.92 134.84V141H113.28V135.06C113.28 134.153 113.133 133.493 112.84 133.08C112.547 132.667 112.08 132.46 111.44 132.46C110.947 132.46 110.5 132.587 110.1 132.84C109.713 133.093 109.273 133.467 108.78 133.96V141H107.14ZM121.358 145.48C120.171 145.48 119.204 145.253 118.458 144.8C117.711 144.347 117.338 143.7 117.338 142.86C117.338 142.447 117.464 142.047 117.718 141.66C117.971 141.287 118.318 140.953 118.758 140.66V140.58C118.518 140.433 118.311 140.227 118.138 139.96C117.978 139.693 117.898 139.373 117.898 139C117.898 138.587 118.011 138.227 118.238 137.92C118.464 137.613 118.704 137.373 118.958 137.2V137.12C118.638 136.853 118.344 136.493 118.078 136.04C117.824 135.587 117.698 135.073 117.698 134.5C117.698 133.793 117.864 133.18 118.198 132.66C118.531 132.14 118.978 131.74 119.538 131.46C120.098 131.18 120.704 131.04 121.358 131.04C121.624 131.04 121.878 131.067 122.118 131.12C122.358 131.16 122.564 131.213 122.738 131.28H126.118V132.54H124.118C124.344 132.753 124.531 133.04 124.678 133.4C124.838 133.747 124.918 134.127 124.918 134.54C124.918 135.233 124.758 135.833 124.438 136.34C124.118 136.847 123.691 137.24 123.158 137.52C122.624 137.787 122.024 137.92 121.358 137.92C120.838 137.92 120.351 137.807 119.898 137.58C119.724 137.727 119.578 137.893 119.458 138.08C119.338 138.253 119.278 138.473 119.278 138.74C119.278 139.047 119.398 139.3 119.638 139.5C119.891 139.7 120.344 139.8 120.998 139.8H122.878C124.011 139.8 124.858 139.987 125.418 140.36C125.991 140.72 126.278 141.307 126.278 142.12C126.278 142.72 126.078 143.273 125.678 143.78C125.278 144.287 124.711 144.693 123.978 145C123.244 145.32 122.371 145.48 121.358 145.48ZM121.358 136.82C121.918 136.82 122.398 136.613 122.798 136.2C123.211 135.773 123.418 135.207 123.418 134.5C123.418 133.793 123.218 133.24 122.818 132.84C122.418 132.44 121.931 132.24 121.358 132.24C120.784 132.24 120.298 132.44 119.898 132.84C119.498 133.24 119.298 133.793 119.298 134.5C119.298 135.207 119.498 135.773 119.898 136.2C120.311 136.613 120.798 136.82 121.358 136.82ZM121.598 144.34C122.531 144.34 123.278 144.133 123.838 143.72C124.398 143.32 124.678 142.867 124.678 142.36C124.678 141.907 124.504 141.593 124.158 141.42C123.824 141.247 123.344 141.16 122.718 141.16H121.038C120.851 141.16 120.644 141.147 120.418 141.12C120.204 141.093 119.991 141.053 119.778 141C119.431 141.253 119.178 141.52 119.018 141.8C118.858 142.08 118.778 142.36 118.778 142.64C118.778 143.16 119.024 143.573 119.518 143.88C120.024 144.187 120.718 144.34 121.598 144.34ZM132.32 141V127.88H135.6C137.626 127.88 139.166 128.447 140.22 129.58C141.273 130.7 141.8 132.3 141.8 134.38C141.8 136.473 141.273 138.1 140.22 139.26C139.18 140.42 137.666 141 135.68 141H132.32ZM133.98 139.64H135.48C137.013 139.64 138.16 139.18 138.92 138.26C139.693 137.327 140.08 136.033 140.08 134.38C140.08 132.727 139.693 131.46 138.92 130.58C138.16 129.687 137.013 129.24 135.48 129.24H133.98V139.64ZM148.404 141.24C147.538 141.24 146.751 141.04 146.044 140.64C145.338 140.227 144.778 139.64 144.364 138.88C143.951 138.12 143.744 137.213 143.744 136.16C143.744 135.093 143.951 134.18 144.364 133.42C144.791 132.66 145.338 132.073 146.004 131.66C146.671 131.247 147.371 131.04 148.104 131.04C149.344 131.04 150.298 131.453 150.964 132.28C151.644 133.107 151.984 134.213 151.984 135.6C151.984 135.773 151.978 135.947 151.964 136.12C151.964 136.28 151.951 136.42 151.924 136.54H145.364C145.431 137.567 145.751 138.387 146.324 139C146.911 139.613 147.671 139.92 148.604 139.92C149.071 139.92 149.498 139.853 149.884 139.72C150.284 139.573 150.664 139.387 151.024 139.16L151.604 140.24C151.191 140.507 150.718 140.74 150.184 140.94C149.664 141.14 149.071 141.24 148.404 141.24ZM145.344 135.36H150.544C150.544 134.373 150.331 133.627 149.904 133.12C149.491 132.6 148.904 132.34 148.144 132.34C147.464 132.34 146.851 132.607 146.304 133.14C145.771 133.66 145.451 134.4 145.344 135.36ZM156.584 141L153.084 131.28H154.784L156.624 136.8C156.77 137.28 156.917 137.76 157.064 138.24C157.224 138.72 157.377 139.193 157.524 139.66H157.604C157.75 139.193 157.897 138.72 158.044 138.24C158.204 137.76 158.35 137.28 158.484 136.8L160.324 131.28H161.944L158.504 141H156.584ZM163.82 141V131.28H165.46V141H163.82ZM164.66 129.28C164.34 129.28 164.073 129.187 163.86 129C163.66 128.8 163.56 128.533 163.56 128.2C163.56 127.88 163.66 127.62 163.86 127.42C164.073 127.22 164.34 127.12 164.66 127.12C164.98 127.12 165.24 127.22 165.44 127.42C165.653 127.62 165.76 127.88 165.76 128.2C165.76 128.533 165.653 128.8 165.44 129C165.24 129.187 164.98 129.28 164.66 129.28ZM172.582 141.24C171.728 141.24 170.955 141.04 170.262 140.64C169.568 140.24 169.022 139.66 168.622 138.9C168.222 138.14 168.022 137.227 168.022 136.16C168.022 135.067 168.235 134.14 168.662 133.38C169.102 132.62 169.675 132.04 170.382 131.64C171.102 131.24 171.875 131.04 172.702 131.04C173.342 131.04 173.888 131.153 174.342 131.38C174.808 131.607 175.208 131.873 175.542 132.18L174.702 133.26C174.422 133.007 174.122 132.8 173.802 132.64C173.495 132.48 173.148 132.4 172.762 132.4C172.175 132.4 171.648 132.56 171.182 132.88C170.728 133.187 170.368 133.627 170.102 134.2C169.848 134.76 169.722 135.413 169.722 136.16C169.722 137.267 169.995 138.167 170.542 138.86C171.102 139.54 171.828 139.88 172.722 139.88C173.175 139.88 173.595 139.787 173.982 139.6C174.368 139.4 174.708 139.167 175.002 138.9L175.722 140C175.282 140.387 174.795 140.693 174.262 140.92C173.728 141.133 173.168 141.24 172.582 141.24ZM181.373 141.24C180.506 141.24 179.72 141.04 179.013 140.64C178.306 140.227 177.746 139.64 177.333 138.88C176.92 138.12 176.713 137.213 176.713 136.16C176.713 135.093 176.92 134.18 177.333 133.42C177.76 132.66 178.306 132.073 178.973 131.66C179.64 131.247 180.34 131.04 181.073 131.04C182.313 131.04 183.266 131.453 183.933 132.28C184.613 133.107 184.953 134.213 184.953 135.6C184.953 135.773 184.946 135.947 184.933 136.12C184.933 136.28 184.92 136.42 184.893 136.54H178.333C178.4 137.567 178.72 138.387 179.293 139C179.88 139.613 180.64 139.92 181.573 139.92C182.04 139.92 182.466 139.853 182.853 139.72C183.253 139.573 183.633 139.387 183.993 139.16L184.573 140.24C184.16 140.507 183.686 140.74 183.153 140.94C182.633 141.14 182.04 141.24 181.373 141.24ZM178.313 135.36H183.513C183.513 134.373 183.3 133.627 182.873 133.12C182.46 132.6 181.873 132.34 181.113 132.34C180.433 132.34 179.82 132.607 179.273 133.14C178.74 133.66 178.42 134.4 178.313 135.36ZM189.895 141.24C189.202 141.24 188.542 141.113 187.915 140.86C187.288 140.593 186.742 140.273 186.275 139.9L187.095 138.8C187.522 139.133 187.962 139.413 188.415 139.64C188.868 139.853 189.382 139.96 189.955 139.96C190.595 139.96 191.075 139.813 191.395 139.52C191.715 139.213 191.875 138.853 191.875 138.44C191.875 138.107 191.762 137.827 191.535 137.6C191.322 137.373 191.042 137.187 190.695 137.04C190.362 136.88 190.015 136.733 189.655 136.6C189.202 136.427 188.755 136.233 188.315 136.02C187.875 135.793 187.515 135.507 187.235 135.16C186.955 134.8 186.815 134.347 186.815 133.8C186.815 133.013 187.108 132.36 187.695 131.84C188.295 131.307 189.122 131.04 190.175 131.04C190.775 131.04 191.335 131.147 191.855 131.36C192.375 131.573 192.822 131.833 193.195 132.14L192.395 133.18C192.062 132.927 191.715 132.72 191.355 132.56C190.995 132.4 190.602 132.32 190.175 132.32C189.562 132.32 189.108 132.46 188.815 132.74C188.535 133.02 188.395 133.347 188.395 133.72C188.395 134.027 188.495 134.28 188.695 134.48C188.895 134.667 189.155 134.833 189.475 134.98C189.795 135.113 190.135 135.253 190.495 135.4C190.962 135.573 191.422 135.773 191.875 136C192.328 136.213 192.702 136.507 192.995 136.88C193.302 137.24 193.455 137.727 193.455 138.34C193.455 138.86 193.315 139.34 193.035 139.78C192.768 140.22 192.368 140.573 191.835 140.84C191.315 141.107 190.668 141.24 189.895 141.24Z" fill="white"/>
</svg>
